<?xml version="1.0" encoding="iso-8859-1"?>

<!DOCTYPE svg PUBLIC "-//W3C//DTD SVG 1.1//EN" "http://www.w3.org/Graphics/SVG/1.1/DTD/svg11.dtd">
<!-- Uploaded to: SVG Repo, www.svgrepo.com, Generator: SVG Repo Mixer Tools -->
<svg version="1.1" id="_x36_" xmlns="http://www.w3.org/2000/svg" xmlns:xlink="http://www.w3.org/1999/xlink" 
	 viewBox="0 0 512 512"  xml:space="preserve">
<g>
	<polygon style="fill:#C8A269;" points="447.832,0 339.554,0 300.789,56.148 300.789,89.573 300.789,89.573 224.582,89.573 
		211.216,89.573 211.216,56.148 172.452,0 64.163,0 0,73.526 22.723,82.884 22.723,114.966 41.439,114.966 41.439,143.04 
		68.176,143.04 68.176,171.109 106.945,171.109 106.945,213.897 106.945,271.372 175.122,330.195 237.953,330.195 287.413,330.195 
		336.878,330.195 405.055,271.372 405.055,213.897 405.055,171.109 443.819,171.109 443.819,143.04 470.56,143.04 470.56,114.966 
		489.277,114.966 489.277,82.884 512,73.526 	"/>
	<polygon style="fill:#BD965D;" points="339.554,0 300.789,56.148 300.789,89.573 254.487,89.573 254.487,330.195 287.413,330.195 
		336.878,330.195 405.055,271.372 405.055,213.897 405.055,171.109 443.819,171.109 443.819,143.04 470.56,143.04 470.56,114.966 
		489.277,114.966 489.277,82.884 512,73.526 447.832,0 	"/>
	<g>
		<polygon style="fill:#F7F7F7;" points="95.581,40.107 67.507,76.202 90.231,76.202 90.231,98.925 108.952,98.925 108.952,120.316 
			137.026,120.316 162.42,96.256 162.42,58.823 149.054,40.107 		"/>
		<polygon style="fill:#E9E8E8;" points="416.413,40.107 362.951,40.107 349.58,58.823 349.58,96.256 374.974,120.316 
			403.048,120.316 403.048,98.925 421.769,98.925 421.769,76.202 444.498,76.202 		"/>
	</g>
	<g>
		<path style="fill:#727171;" d="M189.161,205.208c0,7.75-6.285,14.034-14.04,14.034c-7.755,0-14.034-6.284-14.034-14.034
			c0-7.755,6.28-14.04,14.034-14.04C182.877,191.168,189.161,197.452,189.161,205.208z"/>
		<path style="fill:#727171;" d="M322.844,205.208c0,7.75,6.273,14.034,14.034,14.034c7.75,0,14.04-6.284,14.04-14.034
			c0-7.755-6.29-14.04-14.04-14.04C329.118,191.168,322.844,197.452,322.844,205.208z"/>
	</g>
	<rect x="227.257" y="296.776" style="fill:#727171;" width="57.48" height="8.025"/>
	<polygon style="opacity:0.07;fill:#231815;" points="297.742,180.945 238.064,278.081 289.271,330.195 336.878,330.195 
		395.059,280.003 	"/>
	<polygon style="fill:#776868;" points="268.033,181.879 243.962,181.879 215.893,181.879 215.893,250.74 237.284,279.53 
		243.962,279.53 268.033,279.53 274.711,279.53 296.107,250.74 296.107,181.879 	"/>
</g>
</svg>