<svg width="540" height="540" fill="none" viewBox="89.353 84.82 366.475 371.655" xmlns="http://www.w3.org/2000/svg"><path d="M0 0h540v540H0z" style="fill: rgba(251, 247, 239, 0);"></path><path fill="#fff" fill-rule="evenodd" stroke="#1C1C1E" stroke-width="1.5" d="M313.1 241.551c30.6-.103 59.894-3.031 80.328-14.935l-8.453-14.509c-16.205 9.441-41.402 12.55-71.931 12.652-18.702.063-38.332-.962-58.176-1.998-12.498-.653-25.081-1.31-37.57-1.702-31.531-.991-62.269-.271-85.301 7.678-11.679 4.031-21.957 10.107-29.299 19.285-7.428 9.285-11.268 21.02-11.268 35.228 0 18.465 5.3 33.445 15.957 44.714 10.499 11.103 25.364 17.718 42.863 21.276 34.72 7.062 83.114 2.714 138.995-6.82 34.217-5.838 62.601-5.596 81.985.763 9.581 3.143 16.523 7.634 21.061 13.189 4.455 5.453 7.078 12.516 7.078 21.82 0 11.179-2.48 19.131-6.369 24.913-3.879 5.769-9.638 10.087-17.44 13.182-16.071 6.375-39.292 6.999-66.983 4.973-13.663-.999-28.057-2.606-42.787-4.31l-5.372-.623c-12.954-1.505-26.116-3.035-39.01-4.209-29.174-2.656-58.086-3.621-81.698 2.004l3.892 16.334c20.727-4.938 47.249-4.259 76.284-1.615 12.67 1.153 25.609 2.656 38.586 4.164l5.388.625c14.722 1.703 29.435 3.349 43.493 4.377 27.752 2.03 54.43 1.809 74.398-6.112 10.218-4.053 19.013-10.245 25.183-19.42 6.161-9.161 9.226-20.585 9.226-34.283 0-12.72-3.686-23.656-10.865-32.443-7.095-8.686-17.111-14.676-28.831-18.52-23.216-7.616-54.797-7.374-90.043-1.361-55.871 9.532-101.48 13.293-132.825 6.918-15.535-3.159-26.718-8.649-34.009-16.359-7.133-7.543-11.365-18.086-11.365-33.177 0-11.034 2.913-18.894 7.589-24.74 4.762-5.953 11.939-10.544 21.664-13.9 19.776-6.826 47.642-7.763 79.296-6.768 11.705.368 23.98 1.005 36.379 1.648 20.296 1.053 40.927 2.124 59.95 2.061Z" clip-rule="evenodd"></path><path fill="#FFB8B8" d="M266.249 147.888s11.468 10.461 13.11 27.134c1.642 16.673-8.87 28.078-8.87 28.078s-7.039 11.622-23.8 14.981c0 0-12.258 2.31-19.974-1.04 0 0 9.851 10.678 28.396 10.319 18.545-.36 29.599-14.062 29.599-14.062s14.134-15.516 8.832-36.133c-5.301-20.617-24.114-28.245-24.114-28.245l-3.183-1.032h.004Z"></path><path fill="#FFB8B8" fill-rule="evenodd" d="M257.407 117.618s29.173 8.906 46.289 29.933l-50.153 241.411-15.37-9.003c-6.839-2.418-64.689-164.834-64.689-200.562 0-35.727 28.965-64.687 64.689-64.687a64.706 64.706 0 0 1 19.234 2.908Zm37.268 69.003c0 22.522-18.257 40.779-40.779 40.779-22.522 0-40.779-18.257-40.779-40.779 0-22.521 18.257-40.778 40.779-40.778 22.522 0 40.779 18.257 40.779 40.778Z" clip-rule="evenodd"></path><path fill="#FF8080" fill-rule="evenodd" d="M253.595 389.229c6.709 0 64.688-164.839 64.688-200.562 0-35.728-28.96-64.688-64.688-64.688-35.729 0-64.689 28.964-64.689 64.688 0 35.723 58.99 200.562 64.689 200.562Zm41.119-202.342c0 22.521-18.258 40.778-40.779 40.778-22.522 0-40.779-18.257-40.779-40.778 0-22.522 18.257-40.779 40.779-40.779 22.521 0 40.779 18.257 40.779 40.779Z" clip-rule="evenodd"></path><path fill="#FF8080" d="m233.05 127.027-17.601-8.213s29.349-14.769 69.944 12.482l-2.164-.321s-22.723-13.557-50.179-3.952v.004Z"></path><path fill="#1C1C1E" d="m279.362 179.278 15.308 9.817s2.201-31.387-28.397-41.204c0 0 14.572 13.084 13.089 31.387Z"></path><path stroke="#1C1C1E" stroke-linecap="round" stroke-linejoin="round" stroke-width="1.5" d="M318.244 188.402c0 35.724-57.979 200.562-64.689 200.562-5.698 0-64.688-164.838-64.688-200.562 0-35.723 28.96-64.687 64.688-64.687 35.729 0 64.689 28.96 64.689 64.687Z"></path><path stroke="#1C1C1E" stroke-linecap="round" stroke-linejoin="round" stroke-width="1.5" d="M303.696 147.551c-17.116-21.027-46.289-29.933-46.289-29.933a64.706 64.706 0 0 0-19.234-2.908c-35.724 0-64.689 28.96-64.689 64.687 0 35.728 57.85 198.144 64.689 200.562l15.37 9.003"></path><path stroke="#1C1C1E" stroke-linecap="round" stroke-linejoin="round" stroke-width="1.5" d="M253.896 227.4c22.522 0 40.779-18.258 40.779-40.779 0-22.521-18.257-40.778-40.779-40.778-22.521 0-40.779 18.257-40.779 40.778 0 22.521 18.258 40.779 40.779 40.779Z"></path><path stroke="#1C1C1E" stroke-linecap="round" stroke-linejoin="round" stroke-width="1.5" d="M265.763 147.6c8.36 7.465 13.62 18.327 13.62 30.417 0 22.522-18.257 40.779-40.779 40.779-4.128 0-8.114-.614-11.874-1.755"></path><path fill="#1C1C1E" d="M151.255 428.427c-1.368-6.943-3.245-13.681-4.052-15.409l10.458-1.962c2.072 4.673 2.989 10.884 2.709 16.726l-9.115.645Z"></path><path fill="#fff" stroke="#1C1C1E" stroke-width="1.5" d="M150.029 416.524c4.853 14.551-3.009 30.281-17.561 35.134-14.551 4.853-30.281-3.009-35.134-17.56-4.853-14.551 3.009-30.281 17.56-35.134 14.551-4.853 30.282 3.009 35.135 17.56Z"></path><path fill="#1C1C1E" d="M224.239 350.593c-2.369-6.352-11.41-14.597-16.774-14.597l11.245-1.199 5.529 15.796c.057.153.11.305.159.455l-.159-.455ZM180.443 238.18c-.303-7.433.037-15.051.506-17.45l5.178 17.005-5.684.445Z"></path><path fill="#fff" stroke="#1C1C1E" stroke-width="1.5" d="M416.806 208.729c4.853 14.551-3.009 30.281-17.56 35.134-14.552 4.853-30.282-3.009-35.135-17.56-4.853-14.551 3.009-30.281 17.56-35.134 14.552-4.853 30.282 3.009 35.135 17.56Z"></path><path fill="#fff" d="M390.686 97.138c3.561 0 6.448-2.034 6.448-4.542 0-2.509-2.887-4.542-6.448-4.542-3.561 0-6.448 2.033-6.448 4.542 0 2.508 2.887 4.542 6.448 4.542Z"></path><path fill="#fff" d="M384.234 92.597v106.04c0 2.508 2.887 4.542 6.448 4.542 3.562 0 6.448-2.034 6.448-4.542V92.597h-12.893"></path><path fill="#1C1C1E" d="M384.672 153.084s4.541 8.468 12.476 10.637v-6.397s-7.216.859-12.476-4.24Z"></path><path stroke="#1C1C1E" stroke-linecap="round" stroke-linejoin="round" stroke-width="1.5" d="M397.126 157.325v41.31c0 2.508-2.886 4.542-6.448 4.542-3.561 0-6.448-2.034-6.448-4.542V92.595"></path><path fill="#FF8080" d="M384.227 93.56s.829 7.436 14.602 6.38c0 0 13.262-2.705 17.321 1.285 4.059 3.99-4.551 9.41-.54 14.117 4.01 4.707 10.131 5.096 19.11 4.246 8.979-.85 15.269-.02 17.669 3.267l-14.045 27.241 14.045 30.198s-8.198-4.008-22.743-2.893c-14.545 1.116-14.646-4.34-15.159-6.486-.513-2.147 1.278-5.303 1.278-5.303s3.894-5.33-2.622-8.468c-6.517-3.138-11.982 2.364-23.918-.896 0 0-3.837-.834-4.994-6.038V93.559l-.004.002Z"></path><path stroke="#1C1C1E" stroke-linecap="round" stroke-linejoin="round" stroke-width="1.5" d="M397.121 92.596v7.435"></path><path fill="#FF8080" stroke="#1C1C1E" stroke-linecap="round" stroke-linejoin="round" stroke-width="1.5" d="M390.674 97.139c3.562 0 6.448-2.034 6.448-4.542 0-2.509-2.886-4.542-6.448-4.542-3.561 0-6.447 2.033-6.447 4.542 0 2.508 2.886 4.542 6.447 4.542Z"></path><path stroke="#1C1C1E" stroke-linecap="round" stroke-linejoin="round" stroke-width="1.5" d="M384.234 93.562s.83 7.435 14.603 6.379c0 0 13.262-2.705 17.321 1.285 4.059 3.99-4.551 9.41-.541 14.117 4.011 4.707 10.132 5.096 19.111 4.246 8.979-.85 15.269-.02 17.669 3.267l-14.046 27.241 14.046 30.198s-8.198-4.008-22.743-2.893c-14.545 1.116-14.646-4.34-15.159-6.486-.513-2.147 1.278-5.303 1.278-5.303s3.894-5.33-2.622-8.468c-6.517-3.138-11.982 2.364-23.919-.896 0 0-3.836-.834-4.993-6.038V93.56l-.005.002Z"></path><path fill="#1C1C1E" d="M415.049 205.385c-2.851-5.698-11.783-6.421-19.131-3.368l1.738-5.05v-6.595c3.248.623 14.829 7.425 17.393 15.013Z"></path><path fill="#FFF0F0" stroke="#1C1C1E" stroke-width="1.5" d="M230.658 420.799c0 10.076 8.167 18.243 18.243 18.243 10.076 0 18.244-8.167 18.244-18.243 0-10.075-8.168-18.243-18.244-18.243s-18.243 8.168-18.243 18.243Z"></path></svg>