<svg width="540" height="540" fill="none" viewBox="113.956 141.798 313.382 257.051" xmlns="http://www.w3.org/2000/svg"><path d="M0 0h540v540H0z" style="fill: rgba(251, 247, 239, 0);"></path><path fill="#FF8080" d="M258.729 393.834c-.145 0-.283-.015-.424-.045L127.57 371.533a2.892 2.892 0 0 1-2.397-2.937 2.883 2.883 0 0 1 2.604-2.768c63.366-6.186 110.3-14.379 133.383-34.253a2.917 2.917 0 0 1 1.879-.702c.05 0 .118 0 158.475 18.008a2.883 2.883 0 0 1 2.499 2.29 2.855 2.855 0 0 1-1.429 3.093c-23.123 12.851-70.255 30.145-163.469 39.554a2.307 2.307 0 0 1-.288.013 1.259 1.259 0 0 1-.098.003Z"></path><path fill="#1C1C1E" d="M263.04 331.535c.08 0 158.4 18.004 158.4 18.004a2.234 2.234 0 0 1 1.924 1.765 2.208 2.208 0 0 1-1.1 2.377c-23.059 12.816-70.082 30.074-163.215 39.475-.071.009-.15.009-.222.009a1.326 1.326 0 0 1-.381-.026l-130.764-22.261a2.216 2.216 0 0 1 .16-4.39c63.493-6.2 110.533-14.421 133.752-34.412.4-.345.923-.541 1.446-.541Zm0-1.327c-.848 0-1.671.307-2.315.866-22.947 19.757-69.77 27.918-133.012 34.093a3.547 3.547 0 0 0-3.201 3.407 3.558 3.558 0 0 0 2.949 3.613l130.74 22.257a2.688 2.688 0 0 0 .668.049 3.06 3.06 0 0 0 .346-.02c93.296-9.417 140.516-26.75 163.695-39.632a3.516 3.516 0 0 0 1.754-3.807 3.544 3.544 0 0 0-3.076-2.814c-158.393-18.012-158.444-18.012-158.548-18.012Z"></path><path fill="#FFB8B8" d="M250.824 374.367c-.267 0-.532-.044-.772-.142l-130.347-48.646a2.206 2.206 0 0 1-1.41-2.43 2.217 2.217 0 0 1 2.111-1.863c149.955-4.993 172.101-44.912 172.314-45.32a2.258 2.258 0 0 1 1.996-1.224c.249 0 .505.044.754.133l121.992 44.477a2.207 2.207 0 0 1 1.383 1.535 2.198 2.198 0 0 1-.47 2.004c-41.506 48.052-162.381 51.369-167.498 51.493-.018-.017-.036-.017-.053-.017Z"></path><path fill="#FF8080" d="M403.567 313.559c-32.239 21.357-95.08 39.122-133.678 38.768l-114.207-33.735s61.111-6.366 65.723-8.477c6.093-2.794 100.083-25.262 100.083-25.262l82.079 28.706Z"></path><path fill="#FBF7EF" d="M277.86 344.787a.657.657 0 0 1-.228-.041l-147.748-54.021a2.885 2.885 0 0 1-1.856-3.166 2.897 2.897 0 0 1 2.777-2.413c109.762-2.559 143.378-96.052 143.705-96.996a2.867 2.867 0 0 1 2.721-1.936c.342 0 .673.058.985.174l141.128 51.448c.8.29 1.426.916 1.718 1.718.28.819.2 1.697-.218 2.421-57.83 99.927-133.531 102.812-141.973 102.812h-1.011Z"></path><path fill="#1C1C1E" d="M277.23 186.877c.258 0 .514.045.754.133l141.132 51.448c.611.222 1.1.71 1.321 1.321a2.251 2.251 0 0 1-.168 1.863c-57.64 99.598-132.99 102.481-141.398 102.481h-1.011l-147.747-54.021a2.213 2.213 0 0 1-1.428-2.439 2.228 2.228 0 0 1 2.137-1.854c109.949-2.563 143.988-96.494 144.316-97.442a2.22 2.22 0 0 1 2.092-1.49Zm0-1.327a3.53 3.53 0 0 0-1.514.339 3.527 3.527 0 0 0-1.832 2.041c-.082.237-8.73 24.017-30.803 47.685-20.113 21.568-55.921 47.553-112.291 48.867a3.56 3.56 0 0 0-3.415 2.959 3.555 3.555 0 0 0 2.284 3.909l147.745 54.019c.146.053.3.08.456.08h1.011c8.481 0 84.531-2.894 142.546-103.143a3.583 3.583 0 0 0 .276-2.958 3.538 3.538 0 0 0-2.125-2.139l-141.13-51.446a3.467 3.467 0 0 0-1.208-.213Z"></path><path fill="#1C1C1E" d="M294.717 274.743c.248 0 .505.044.754.132l121.992 44.477a2.207 2.207 0 0 1 1.383 1.535 2.2 2.2 0 0 1-.47 2.005c-41.506 48.051-162.382 51.368-167.499 51.493-.017-.018-.035-.018-.053-.018a2.06 2.06 0 0 1-.771-.141l-130.348-48.647a2.206 2.206 0 0 1-1.409-2.43 2.215 2.215 0 0 1 2.11-1.862c149.957-4.993 172.102-44.912 172.315-45.321a2.257 2.257 0 0 1 1.996-1.223Zm0-1.328a3.6 3.6 0 0 0-3.177 1.947c-.045.08-5.686 10.042-29.776 20.513-22.021 9.573-64.429 21.522-141.402 24.085a3.546 3.546 0 0 0-3.377 2.978c-.282 1.649.666 3.287 2.255 3.884l130.349 48.646c.304.125.663.202 1.045.221.08.015.161.022.243.022h.032c3.438-.083 34.616-1.01 70.319-7.796 20.893-3.971 39.292-9.185 54.688-15.495 19.218-7.878 33.841-17.52 43.464-28.661a3.517 3.517 0 0 0 .749-3.214 3.516 3.516 0 0 0-2.212-2.44l-121.991-44.478a3.615 3.615 0 0 0-1.209-.212Z"></path><path fill="#F0F0F3" d="m277.856 344.123-147.748-54.021a2.212 2.212 0 0 1-1.427-2.439 2.23 2.23 0 0 1 2.137-1.854c109.948-2.562 143.987-96.493 144.316-97.443a2.219 2.219 0 0 1 2.093-1.49c.257 0 .514.044.754.133l141.131 51.448c.612.222 1.1.71 1.321 1.321.214.621.16 1.295-.168 1.863-57.638 99.598-132.989 102.481-141.398 102.481h-1.011v.001Z"></path><mask id="a" width="293" height="159" x="128" y="186" maskUnits="userSpaceOnUse" style="mask-type:luminance"><path fill="#fff" d="m277.86 344.121-147.748-54.02a2.213 2.213 0 0 1-1.427-2.439 2.23 2.23 0 0 1 2.137-1.855c109.948-2.562 143.987-96.493 144.316-97.443a2.219 2.219 0 0 1 2.093-1.49c.257 0 .514.044.754.133l141.131 51.448c.612.222 1.1.71 1.321 1.321.214.621.16 1.295-.168 1.863C362.63 341.237 287.28 344.12 278.871 344.12h-1.011v.001Z"></path></mask><g mask="url(#a)"><path fill="#fff" d="M243.359 213.427s9.983 81.717 103.204 105.163c0 0 43.841-26.026 76.078-85.348 38.54-70.922-160.001-53.91-160.001-53.91l-19.281 34.095Z"></path></g><mask id="b" width="293" height="159" x="128" y="186" maskUnits="userSpaceOnUse" style="mask-type:luminance"><path fill="#fff" d="m277.86 344.121-147.748-54.02a2.213 2.213 0 0 1-1.427-2.439 2.23 2.23 0 0 1 2.137-1.855c109.948-2.562 143.987-96.493 144.316-97.443a2.219 2.219 0 0 1 2.093-1.49c.257 0 .514.044.754.133l141.131 51.448c.612.222 1.1.71 1.321 1.321.214.621.16 1.295-.168 1.863C362.63 341.237 287.28 344.12 278.871 344.12h-1.011v.001Z"></path></mask><g mask="url(#b)"><path fill="#fff" d="m122.934 283.809 156.691 57.729s-.847-.848-1.456 1.121c-.842 2.725 3.459 5.04 3.459 5.04l-161.013-54.871 2.319-9.019Z"></path></g><mask id="c" width="293" height="159" x="128" y="186" maskUnits="userSpaceOnUse" style="mask-type:luminance"><path fill="#fff" d="m277.86 344.121-147.748-54.02a2.213 2.213 0 0 1-1.427-2.439 2.23 2.23 0 0 1 2.137-1.855c109.948-2.562 143.987-96.493 144.316-97.443a2.219 2.219 0 0 1 2.093-1.49c.257 0 .514.044.754.133l141.131 51.448c.612.222 1.1.71 1.321 1.321.214.621.16 1.295-.168 1.863C362.63 341.237 287.28 344.12 278.871 344.12h-1.011v.001Z"></path></mask><g mask="url(#c)"><path stroke="#8E8E8E" stroke-linecap="round" stroke-linejoin="round" stroke-miterlimit="10" stroke-width="1.5" d="M419.66 239.778s-50.816 98.727-141.008 102.832"></path></g><path stroke="#1C1C1E" stroke-linecap="round" stroke-linejoin="round" stroke-miterlimit="10" stroke-width="1.5" d="m270.734 238.538 98.206 36.221M258.812 251.15l98.215 36.221M243.352 262.955l53.081 19.574"></path><path fill="#CEFF7A" d="M175.984 204.312a9.98 9.98 0 0 1-7.713-3.628l-14.243-17.286c-3.498-4.247-2.893-10.551 1.348-14.051a10 10 0 0 1 6.347-2.281 9.965 9.965 0 0 1 7.705 3.629l14.244 17.286a9.931 9.931 0 0 1 2.233 7.315 9.923 9.923 0 0 1-3.583 6.746 10.028 10.028 0 0 1-6.338 2.27Z"></path><path fill="#1C1C1E" d="M161.723 167.73a9.314 9.314 0 0 1 7.193 3.388l14.244 17.285a9.258 9.258 0 0 1 2.084 6.829 9.272 9.272 0 0 1-3.344 6.297 9.368 9.368 0 0 1-5.915 2.119 9.316 9.316 0 0 1-7.202-3.387l-14.244-17.286c-3.264-3.964-2.705-9.844 1.26-13.117a9.331 9.331 0 0 1 5.924-2.128Zm0-1.328c-2.463 0-4.867.864-6.77 2.432-4.523 3.734-5.168 10.456-1.439 14.986l14.243 17.286a10.641 10.641 0 0 0 8.226 3.871c2.452 0 4.852-.86 6.757-2.421a10.58 10.58 0 0 0 3.824-7.195 10.588 10.588 0 0 0-2.381-7.802l-14.243-17.286a10.63 10.63 0 0 0-8.217-3.871Z"></path><path fill="#CEFF7A" d="M150.287 246.412a10.36 10.36 0 0 1-2.844-.407l-21.478-6.379c-5.276-1.568-8.293-7.138-6.727-12.416 1.245-4.201 5.18-7.136 9.568-7.136.941 0 1.898.137 2.842.407l21.479 6.379a9.933 9.933 0 0 1 5.937 4.816 9.874 9.874 0 0 1 .789 7.603c-1.254 4.199-5.187 7.133-9.566 7.133Z"></path><path fill="#1C1C1E" d="M128.807 220.738c.896 0 1.791.132 2.66.381l21.472 6.377a9.272 9.272 0 0 1 5.543 4.497 9.207 9.207 0 0 1 .737 7.095c-1.171 3.92-4.843 6.66-8.932 6.66a9.657 9.657 0 0 1-2.66-.381l-21.471-6.378c-4.923-1.463-7.743-6.66-6.279-11.591 1.161-3.92 4.833-6.66 8.93-6.66Zm0-1.328c-4.68 0-8.875 3.129-10.204 7.611-1.67 5.628 1.548 11.568 7.174 13.241l21.472 6.377a11.04 11.04 0 0 0 3.039.436c4.669 0 8.865-3.128 10.203-7.608a10.52 10.52 0 0 0-.841-8.108 10.59 10.59 0 0 0-6.332-5.135l-21.472-6.378a11.035 11.035 0 0 0-3.039-.436Z"></path><path fill="#CEFF7A" d="M227.449 185.305a9.373 9.373 0 0 1-9.316-8.341l-2.279-20.373a9.325 9.325 0 0 1 1.994-6.9 9.34 9.34 0 0 1 6.287-3.473c.091-.01.966-.058 1.052-.058a9.372 9.372 0 0 1 9.315 8.341l2.28 20.372a9.32 9.32 0 0 1-1.995 6.9 9.335 9.335 0 0 1-6.287 3.473c-.104.014-.939.059-1.051.059Z"></path><path fill="#1C1C1E" d="M225.187 146.825a8.707 8.707 0 0 1 8.656 7.751l2.28 20.372a8.668 8.668 0 0 1-1.854 6.413 8.679 8.679 0 0 1-5.845 3.228c-.079.009-.887.053-.975.053a8.706 8.706 0 0 1-8.656-7.751l-2.28-20.372a8.667 8.667 0 0 1 1.854-6.413 8.673 8.673 0 0 1 5.845-3.228c.079-.009.895-.053.975-.053Zm0-1.328c-.134 0-.993.047-1.122.061a10.003 10.003 0 0 0-6.737 3.721 9.981 9.981 0 0 0-2.134 7.386l2.279 20.373a10.036 10.036 0 0 0 9.976 8.931c.133 0 .993-.047 1.122-.061a10 10 0 0 0 6.737-3.721 9.981 9.981 0 0 0 2.134-7.386l-2.28-20.373a10.035 10.035 0 0 0-9.975-8.931Z"></path></svg>