<svg width="540" height="540" fill="none" viewBox="120.432 77.698 298.489 382.662" xmlns="http://www.w3.org/2000/svg"><path d="M0 0h540v540H0z" style="fill: rgba(251, 247, 239, 0);"></path><path fill="#ABA3FF" d="m159.235 105.555 65.766 171.183a47.398 47.398 0 0 0 8.16 13.527c8.288 9.638 23.631 27.454 24.784 28.62 1.586 1.602 3.309.649 3.309.649l10.015-4.396s1.91-.482 1.971-2.734c.046-1.636-1.572-25.121-2.11-37.813a47.376 47.376 0 0 0-3.291-15.446L202.844 90.302c-.861-2.173-2.372-4.038-4.352-5.285-3.745-2.358-10.113-4.722-21.397-1.302-18.461 5.6-19.343 18.073-17.86 21.837v.003Z"></path><path fill="#fff" d="M272.804 387.515c19.193 0 34.752-15.543 34.752-34.717 0-19.173-15.559-34.716-34.752-34.716-19.194 0-34.753 15.543-34.753 34.716 0 19.174 15.559 34.717 34.753 34.717ZM158.753 457c19.193 0 34.753-15.543 34.753-34.716 0-19.174-15.56-34.717-34.753-34.717-19.194 0-34.753 15.543-34.753 34.717C124 441.457 139.559 457 158.753 457ZM381.249 457c19.193 0 34.753-15.543 34.753-34.716 0-19.174-15.56-34.717-34.753-34.717-19.194 0-34.753 15.543-34.753 34.717 0 19.173 15.559 34.716 34.753 34.716Z"></path><path fill="#F0F0F3" d="M233.804 211.556c-2.112 1.541-2.592 3.712-1.919 5.631 1.801 5.121 12.14 29.96 12.14 29.96s1.548 6.382 8.957 5.513c0 0 3.294-.491 4.849-3.556"></path><path fill="#F0F0F3" d="m257.914 243.659-12.211-30.158s-1.609-4.188-8.541-3.421c0 0-5.762.54-3.962 5.661 1.8 5.121 12.139 29.959 12.139 29.959s1.549 6.382 8.958 5.514c0 0 6.059-.661 3.617-7.555Z"></path><path fill="#F8FFEA" d="M381.245 434.785c6.912 0 12.515-5.597 12.515-12.501 0-6.905-5.603-12.502-12.515-12.502-6.912 0-12.515 5.597-12.515 12.502 0 6.904 5.603 12.501 12.515 12.501ZM158.753 434.479c6.912 0 12.515-5.597 12.515-12.502 0-6.904-5.603-12.501-12.515-12.501-6.912 0-12.515 5.597-12.515 12.501 0 6.905 5.603 12.502 12.515 12.502Z"></path><path fill="#F0F0F3" d="M272.8 365.3c6.912 0 12.515-5.597 12.515-12.501 0-6.905-5.603-12.502-12.515-12.502-6.912 0-12.515 5.597-12.515 12.502 0 6.904 5.603 12.501 12.515 12.501Z"></path><path fill="#ABA3FF" d="m199.235 292.158-6.387 8.117 8.126 6.381 6.387-8.117-8.126-6.381ZM354.377 303.837l-9.162 4.779 4.784 9.153 9.162-4.779-4.784-9.153Z"></path><path fill="#fff" d="M273.455 315.164a2.878 2.878 0 0 0-1.838-2.436c-1.43-.537-3.782-.84-7.152.487 0 0-3.863 1.649-5.236 4.512-.52 1.083-.262 2.381.584 3.233l6.496 6.544s2.297 2.679 5.132 1.729c0 0 2.78-.941 2.664-4.824-.081-2.779-.448-7.043-.65-9.245Z"></path><path fill="#1C1C1E" d="M271.285 329.99s-5.958-.889-12.567-2.099c0 0-7.36-1.38-11.581 1.501 0 0 2.329-4.731 12-8.778l6.556 6.573s2.714 2.396 5.592 2.8v.003Z"></path><path fill="#D9D9D9" d="m245.845 246.984-1.493 1.083s1.008 3.585 5.68 4.543c4.673.959 7.178-2.52 7.178-2.52s-7.224 4.157-11.365-3.106ZM233.488 216.523l-1.408.947s-1.707-2.581 1.408-5.675c0 0-1.133 1.787 0 4.725v.003Z"></path><path fill="#1C1C1E" d="m352.19 305.006-4.245 8.862-2.73-5.225 6.975-3.637ZM194.857 301.854l7.984-6.864-3.601-2.829-6.388 8.12 2.005 1.573ZM272.802 361.88c5.161 0 9.345-4.179 9.345-9.335 0-5.156-4.184-9.335-9.345-9.335-5.161 0-9.345 4.179-9.345 9.335 0 5.156 4.184 9.335 9.345 9.335Z"></path><path stroke="#1C1C1E" stroke-linecap="round" stroke-linejoin="round" stroke-width="1.25" d="M273.455 315.164a2.878 2.878 0 0 0-1.838-2.436c-1.43-.537-3.782-.84-7.152.487 0 0-3.863 1.649-5.236 4.512-.52 1.083-.262 2.381.584 3.233l6.496 6.544s2.297 2.679 5.132 1.729c0 0 2.78-.941 2.664-4.824-.081-2.779-.448-7.043-.65-9.245ZM257.918 243.659l-12.211-30.158s-1.609-4.188-8.542-3.421c0 0-5.761.54-3.961 5.661 1.8 5.121 12.139 29.959 12.139 29.959s1.549 6.382 8.958 5.514c0 0 6.059-.661 3.617-7.555Z"></path><path stroke="#1C1C1E" stroke-linecap="round" stroke-linejoin="round" stroke-width="1.25" d="M233.804 211.556c-2.112 1.541-2.592 3.712-1.919 5.631 1.801 5.121 12.14 29.96 12.14 29.96s1.548 6.382 8.957 5.513c0 0 3.294-.491 4.849-3.556M272.8 365.046c6.912 0 12.515-5.597 12.515-12.501 0-6.905-5.603-12.502-12.515-12.502-6.912 0-12.515 5.597-12.515 12.502 0 6.904 5.603 12.501 12.515 12.501Z"></path><path stroke="#1C1C1E" stroke-linecap="round" stroke-linejoin="round" stroke-width="1.25" d="M259.139 320.616c-12.399 5.303-21.088 17.602-21.088 31.928 0 19.173 15.56 34.717 34.753 34.717 19.192 0 34.752-15.544 34.752-34.717 0-17.146-12.442-31.388-28.797-34.208 0 0-2.023-.332-2.947-.39M158.753 434.479c6.912 0 12.515-5.597 12.515-12.502 0-6.904-5.603-12.501-12.515-12.501-6.912 0-12.515 5.597-12.515 12.501 0 6.905 5.603 12.502 12.515 12.502Z"></path><path stroke="#1C1C1E" stroke-linecap="round" stroke-linejoin="round" stroke-width="1.25" d="M158.753 456.694c19.193 0 34.753-15.543 34.753-34.717 0-19.173-15.56-34.716-34.753-34.716-19.194 0-34.753 15.543-34.753 34.716 0 19.174 15.559 34.717 34.753 34.717ZM381.245 434.784c6.912 0 12.515-5.597 12.515-12.501 0-6.905-5.603-12.502-12.515-12.502-6.912 0-12.515 5.597-12.515 12.502 0 6.904 5.603 12.501 12.515 12.501Z"></path><path stroke="#1C1C1E" stroke-linecap="round" stroke-linejoin="round" stroke-width="1.25" d="M381.249 457c19.193 0 34.753-15.543 34.753-34.716 0-19.174-15.56-34.717-34.753-34.717-19.194 0-34.753 15.543-34.753 34.717 0 19.173 15.559 34.716 34.753 34.716ZM165.785 411.638s35.406-54.991 101.765-59.09"></path><path stroke="#1C1C1E" stroke-linecap="round" stroke-linejoin="round" stroke-width="1.25" d="M374.566 411.638s-30.314-48.681-89.25-58.112M263.793 343.871l-59.395-41.208M282.898 345.167l64.435-31.789M199.235 292.158l-6.387 8.117 8.126 6.381 6.387-8.117-8.126-6.381ZM354.377 303.836l-9.162 4.779 4.784 9.153 9.162-4.779-4.784-9.153ZM272.927 313.741c.177-.355.298-.794.313-1.334.046-1.636-1.572-25.121-2.11-37.813a47.376 47.376 0 0 0-3.291-15.446L202.844 90.305c-.861-2.173-2.372-4.038-4.352-5.285-3.745-2.358-10.113-4.722-21.397-1.302-18.461 5.6-19.343 18.073-17.86 21.837l65.766 171.183a47.384 47.384 0 0 0 8.16 13.527c8.288 9.638 23.631 27.454 24.784 28.62.37.372.746.609 1.107.747"></path><path stroke="#1C1C1E" stroke-linecap="round" stroke-linejoin="round" stroke-width="1.25" d="M270.83 272.715s-3.765-4.255-16.748-1.386c-4.996 1.103-9.772 3.068-14.014 5.923-4.184 2.815-8.441 6.856-8.108 11.512"></path></svg>