<svg width="540" height="540" fill="none" viewBox="87.41 102.949 365.828 332.159" xmlns="http://www.w3.org/2000/svg"><path d="M0 0h540v540H0z" style="fill: rgba(251, 247, 239, 0);"></path><path fill="#D9D9D9" d="m448.245 360.537-97.897-44.054V120.091l97.897 42.869v197.577Z"></path><path fill="#F0F0F3" d="M350.346 120.091 91.844 191.078v194.615l258.502-69.21V120.091Z"></path><path fill="#F0F0F3" d="m91.844 385.693 99.672 46.42 256.727-71.575-97.897-44.055-258.502 69.21Z"></path><path stroke="#1C1C1E" stroke-linecap="round" stroke-linejoin="round" stroke-width="1.5" d="M350.348 165.074v-44.983l97.897 42.869v197.577l-50.834-22.495M350.346 165.074v-44.983L91.844 191.078v194.615l66.548-17.818 191.954-51.392V165.074Z"></path><path stroke="#1C1C1E" stroke-linecap="round" stroke-linejoin="round" stroke-width="1.5" d="m91.844 385.693 99.672 46.42 256.727-71.575-50.835-22.495-47.062-21.56-258.502 69.21ZM350.403 154.285 91.98 225.25M350.403 207.157 91.98 278.118M350.403 257.551 91.98 328.515"></path><path fill="#6B991D" stroke="#1C1C1E" stroke-miterlimit="10" stroke-width="1.5" d="m129.59 392.662 10.114 4.764 234.455-70.245 10.114-158.823-10.114-4.764s-10.31 32.649-31.336 45.829c-21.025 13.18-41.048-15.89-62.385 3.782-21.337 19.671-23.908 61.181-35.532 64.927-11.624 3.744-35.269-18-61.115 26.325-25.846 44.327-35.147 73.344-54.205 88.209l.004-.004Z"></path><path fill="#CEFF7A" stroke="#1C1C1E" stroke-linecap="round" stroke-linejoin="round" stroke-width="1.5" d="m139.711 397.427 244.569-65.481V168.358s-10.31 32.65-31.336 45.83c-21.025 13.18-41.048-15.89-62.386 3.781-21.336 19.672-23.907 61.182-35.531 64.927-11.624 3.745-35.269-18-61.115 26.326-25.846 44.327-35.147 73.343-54.205 88.208l.004-.003Z"></path><path fill="#fff" stroke="#1C1C1E" stroke-miterlimit="10" stroke-width="1.5" d="M171.082 393.979v19.283c0 .922 1.691 1.672 3.782 1.672 2.089 0 3.781-.75 3.781-1.672v-19.283h-7.563Z"></path><path fill="#fff" stroke="#1C1C1E" stroke-linecap="round" stroke-linejoin="round" stroke-width="1.5" d="M163.77 360.155v34.165c0 2.714 4.972 4.91 11.103 4.91 6.13 0 11.103-2.2 11.103-4.91v-34.165H163.77Z"></path><path fill="#fff" stroke="#1C1C1E" stroke-linecap="round" stroke-linejoin="round" stroke-width="1.5" d="M174.873 365.065c6.131 0 11.103-2.198 11.103-4.91s-4.972-4.909-11.103-4.909c-6.132 0-11.103 2.197-11.103 4.909 0 2.712 4.971 4.91 11.103 4.91Z"></path><path fill="#fff" stroke="#1C1C1E" stroke-miterlimit="10" stroke-width="1.5" d="M171.082 340.328v19.283c0 .923 1.691 1.673 3.782 1.673 2.089 0 3.781-.75 3.781-1.673v-19.283h-7.563Z"></path><path fill="#fff" stroke="#1C1C1E" stroke-linecap="round" stroke-linejoin="round" stroke-width="1.5" d="M174.864 342.001c2.088 0 3.781-.749 3.781-1.672 0-.924-1.693-1.673-3.781-1.673-2.089 0-3.782.749-3.782 1.673 0 .923 1.693 1.672 3.782 1.672Z"></path><path fill="#fff" stroke="#1C1C1E" stroke-miterlimit="10" stroke-width="1.5" d="M199.977 314.334v19.283c0 .923 1.692 1.672 3.782 1.672s3.782-.749 3.782-1.672v-19.283h-7.564Z"></path><path fill="#fff" stroke="#1C1C1E" stroke-linecap="round" stroke-linejoin="round" stroke-width="1.5" d="M192.648 280.509v34.165c0 2.713 4.973 4.909 11.103 4.909 6.131 0 11.103-2.199 11.103-4.909v-34.165h-22.206Z"></path><path fill="#fff" stroke="#1C1C1E" stroke-linecap="round" stroke-linejoin="round" stroke-width="1.5" d="M203.751 285.42c6.132 0 11.103-2.199 11.103-4.91 0-2.712-4.971-4.909-11.103-4.909-6.131 0-11.103 2.197-11.103 4.909 0 2.711 4.972 4.91 11.103 4.91Z"></path><path fill="#fff" stroke="#1C1C1E" stroke-miterlimit="10" stroke-width="1.5" d="M199.977 260.686v19.283c0 .922 1.692 1.672 3.782 1.672s3.782-.75 3.782-1.672v-19.283h-7.564Z"></path><path fill="#fff" stroke="#1C1C1E" stroke-linecap="round" stroke-linejoin="round" stroke-width="1.5" d="M203.759 262.357c2.089 0 3.782-.748 3.782-1.671s-1.693-1.672-3.782-1.672-3.782.749-3.782 1.672c0 .923 1.693 1.671 3.782 1.671Z"></path><path fill="#fff" stroke="#1C1C1E" stroke-miterlimit="10" stroke-width="1.5" d="M245.109 359.184v19.283c0 .922 1.692 1.672 3.782 1.672s3.782-.75 3.782-1.672v-19.283h-7.564Z"></path><path fill="#fff" stroke="#1C1C1E" stroke-linecap="round" stroke-linejoin="round" stroke-width="1.5" d="M237.789 325.36v34.165c0 2.715 4.973 4.91 11.103 4.91s11.103-2.199 11.103-4.91V325.36h-22.206Z"></path><path fill="#fff" stroke="#1C1C1E" stroke-linecap="round" stroke-linejoin="round" stroke-width="1.5" d="M248.892 330.271c6.132 0 11.103-2.198 11.103-4.91s-4.971-4.91-11.103-4.91-11.103 2.198-11.103 4.91 4.971 4.91 11.103 4.91Z"></path><path fill="#fff" stroke="#1C1C1E" stroke-miterlimit="10" stroke-width="1.5" d="M245.109 305.534v19.283c0 .923 1.692 1.673 3.782 1.673s3.782-.75 3.782-1.673v-19.283h-7.564Z"></path><path fill="#fff" stroke="#1C1C1E" stroke-linecap="round" stroke-linejoin="round" stroke-width="1.5" d="M248.891 307.206c2.089 0 3.782-.748 3.782-1.671 0-.924-1.693-1.673-3.782-1.673s-3.782.749-3.782 1.673c0 .923 1.693 1.671 3.782 1.671Z"></path><path fill="#fff" stroke="#1C1C1E" stroke-miterlimit="10" stroke-width="1.5" d="M288.789 296.287v19.284c0 .923 1.691 1.672 3.782 1.672 2.089 0 3.781-.749 3.781-1.672v-19.284h-7.563Z"></path><path fill="#fff" stroke="#1C1C1E" stroke-linecap="round" stroke-linejoin="round" stroke-width="1.5" d="M281.457 262.464v34.165c0 2.713 4.973 4.91 11.103 4.91 6.131 0 11.103-2.199 11.103-4.91v-34.165h-22.206Z"></path><path fill="#fff" stroke="#1C1C1E" stroke-linecap="round" stroke-linejoin="round" stroke-width="1.5" d="M292.56 267.374c6.133 0 11.103-2.199 11.103-4.91 0-2.712-4.97-4.91-11.103-4.91-6.132 0-11.103 2.198-11.103 4.91 0 2.711 4.971 4.91 11.103 4.91Z"></path><path fill="#fff" stroke="#1C1C1E" stroke-miterlimit="10" stroke-width="1.5" d="M288.789 242.64v19.284c0 .922 1.691 1.672 3.782 1.672 2.089 0 3.781-.75 3.781-1.672V242.64h-7.563Z"></path><path fill="#fff" stroke="#1C1C1E" stroke-linecap="round" stroke-linejoin="round" stroke-width="1.5" d="M292.567 244.312c2.088 0 3.781-.749 3.781-1.672 0-.923-1.693-1.672-3.781-1.672-2.089 0-3.782.749-3.782 1.672 0 .923 1.693 1.672 3.782 1.672Z"></path><path fill="#fff" stroke="#1C1C1E" stroke-miterlimit="10" stroke-width="1.5" d="M330.121 237.71v19.284c0 .922 1.692 1.671 3.783 1.671 2.089 0 3.781-.749 3.781-1.671V237.71H330.121Z"></path><path fill="#fff" stroke="#1C1C1E" stroke-linecap="round" stroke-linejoin="round" stroke-width="1.5" d="M322.789 203.887v34.165c0 2.713 4.973 4.91 11.103 4.91s11.103-2.2 11.103-4.91v-34.165h-22.206Z"></path><path fill="#fff" stroke="#1C1C1E" stroke-linecap="round" stroke-linejoin="round" stroke-width="1.5" d="M333.892 208.796c6.132 0 11.103-2.199 11.103-4.909 0-2.712-4.971-4.91-11.103-4.91s-11.103 2.198-11.103 4.91c0 2.71 4.971 4.909 11.103 4.909Z"></path><path fill="#fff" stroke="#1C1C1E" stroke-miterlimit="10" stroke-width="1.5" d="M330.121 184.059v19.284c0 .921 1.692 1.671 3.783 1.671 2.089 0 3.781-.75 3.781-1.671v-19.284H330.121Z"></path><path fill="#fff" stroke="#1C1C1E" stroke-linecap="round" stroke-linejoin="round" stroke-width="1.5" d="M333.904 185.731c2.088 0 3.781-.749 3.781-1.673 0-.923-1.693-1.671-3.781-1.671-2.089 0-3.783.748-3.783 1.671 0 .924 1.694 1.673 3.783 1.673Z"></path><path fill="#fff" stroke="#1C1C1E" stroke-miterlimit="10" stroke-width="1.5" d="M376.77 222.241v19.284c0 .922 1.692 1.672 3.781 1.672 2.091 0 3.783-.75 3.783-1.672v-19.284h-7.564Z"></path><path fill="#fff" stroke="#1C1C1E" stroke-linecap="round" stroke-linejoin="round" stroke-width="1.5" d="M369.438 188.416v34.165c0 2.714 4.972 4.909 11.103 4.909 6.13 0 11.103-2.199 11.103-4.909v-34.165h-22.206Z"></path><path fill="#fff" stroke="#1C1C1E" stroke-linecap="round" stroke-linejoin="round" stroke-width="1.5" d="M380.541 193.327c6.131 0 11.103-2.198 11.103-4.91 0-2.711-4.972-4.909-11.103-4.909-6.132 0-11.103 2.198-11.103 4.909 0 2.712 4.971 4.91 11.103 4.91Z"></path><path fill="#fff" stroke="#1C1C1E" stroke-miterlimit="10" stroke-width="1.5" d="M376.77 168.594v19.284c0 .921 1.692 1.671 3.781 1.671 2.091 0 3.783-.75 3.783-1.671v-19.284h-7.564Z"></path><path fill="#fff" stroke="#1C1C1E" stroke-linecap="round" stroke-linejoin="round" stroke-width="1.5" d="M380.551 170.266c2.089 0 3.783-.749 3.783-1.673 0-.923-1.694-1.671-3.783-1.671-2.088 0-3.781.748-3.781 1.671 0 .924 1.693 1.673 3.781 1.673Z"></path><path fill="#fff" stroke="#1C1C1E" stroke-miterlimit="10" stroke-width="1.5" d="M418.938 162.549v19.284c0 .922 1.691 1.671 3.781 1.671s3.782-.749 3.782-1.671v-19.284h-7.563Z"></path><path fill="#fff" stroke="#1C1C1E" stroke-linecap="round" stroke-linejoin="round" stroke-width="1.5" d="M411.605 128.725v34.165c0 2.713 4.973 4.91 11.103 4.91 6.131 0 11.103-2.199 11.103-4.91v-34.165h-22.206Z"></path><path fill="#fff" stroke="#1C1C1E" stroke-linecap="round" stroke-linejoin="round" stroke-width="1.5" d="M422.712 133.636c6.132 0 11.103-2.198 11.103-4.91 0-2.711-4.971-4.91-11.103-4.91-6.131 0-11.103 2.199-11.103 4.91 0 2.712 4.972 4.91 11.103 4.91Z"></path><path fill="#fff" stroke="#1C1C1E" stroke-miterlimit="10" stroke-width="1.5" d="M418.938 108.901v19.284c0 .923 1.691 1.672 3.781 1.672s3.782-.749 3.782-1.672v-19.284h-7.563Z"></path><path fill="#fff" stroke="#1C1C1E" stroke-linecap="round" stroke-linejoin="round" stroke-width="1.5" d="M422.719 110.573c2.089 0 3.782-.748 3.782-1.672 0-.923-1.693-1.672-3.782-1.672-2.088 0-3.781.749-3.781 1.672 0 .924 1.693 1.672 3.781 1.672Z"></path></svg>