<svg width="540" height="540" fill="none" viewBox="74.461 125.611 391.726 288.129" xmlns="http://www.w3.org/2000/svg"><path d="M0 0h540v540H0z" style="fill: rgba(250, 247, 240, 0);"></path><path fill="#ABA3FF" d="m339.531 221.715-44.595-83.489-21.237-9.539-166.889 88.38-3.794 22.867 58.663 109.65 20.653 10.55 23.916-12.753"></path><path stroke="#000" stroke-linecap="round" stroke-linejoin="round" stroke-width="1.5" d="m339.531 221.715-44.595-83.489-21.237-9.539-166.889 88.38-3.794 22.867 58.663 109.65 20.653 10.55 23.916-12.753"></path><path fill="#fff" d="M451.626 252.711 266.56 215.1l-17.443 15.264-24.256 121.968 9.267 21.259 186.426 37.339 16.898-14.446 24.531-122.92-10.357-20.853Z"></path><path fill="#F2F0FF" d="m227.889 336.04 42.811-23.027 79.348-42.458 3.821-21.994-9.399-17.51-77.911-15.951-17.443 15.264-21.227 105.676Z"></path><path fill="#746BD3" d="m234.132 373.589-21.985-12.683-9.266-21.26 21.984 12.683 9.267 21.26Z"></path><path fill="#746BD3" d="m224.865 352.333 24.256-121.968-21.981-12.682-24.259 121.967 21.984 12.683ZM273.697 128.687l-25.035 4.15-166.893 88.381 25.039-4.15 166.889-88.381Z"></path><path fill="#746BD3" d="m103.017 239.933-25.035 4.151 3.792-22.867 25.038-4.151-3.795 22.867Z"></path><path fill="#746BD3" d="m161.68 349.581-58.663-109.65-25.035 4.15 58.66 109.651 25.038-4.151ZM182.338 360.132l-25.038 4.15-20.654-10.549 25.039-4.151 20.653 10.55Z"></path><path fill="#ABA3FF" d="M351.519 262.725c-31.684-4.731-38.728 15.345-40.056 20.891a1.348 1.348 0 0 0 1.068 1.636l21.279 3.977a1.348 1.348 0 0 0 1.54-.94c2.431-8.111 10.607-6.585 10.607-6.585 10.069 1.671 7.464 11.493 7.464 11.493-2.062 9.036-12.769 8.545-12.769 8.545-11.294-.423-12.218 6.187-12.276 6.739l-.012.096-2.781 14.893a1.352 1.352 0 0 0 1.103 1.581l20.076 3.378a1.352 1.352 0 0 0 1.559-1.12l1.001-6.319a1.35 1.35 0 0 1 1.241-1.135c26.203-1.764 26.825-23.807 26.825-23.807 2.357-29.169-25.866-33.32-25.866-33.32l-.003-.003ZM332.567 360.135c7.823 0 14.164-6.342 14.164-14.165 0-7.823-6.341-14.164-14.164-14.164-7.823 0-14.165 6.341-14.165 14.164 0 7.823 6.342 14.165 14.165 14.165Z"></path><path fill="#D6CCFF" d="m254.076 204.351 31.017-17.231a7.698 7.698 0 0 0 2.855-10.704 7.702 7.702 0 0 0-10.312-2.771L143.47 247.618a7.698 7.698 0 0 0-2.977 10.546l.244.43a7.698 7.698 0 0 0 10.434 2.925l75.599-42M256.201 239.128l24.473-13.597c1.129-.629.792-2.332-.491-2.483-6.828-.811-21.016-.529-25.894 14.505-.372 1.148.853 2.165 1.912 1.578v-.003ZM222.736 239.812l-63.94 35.255a7.697 7.697 0 0 0-2.976 10.546l.243.43a7.699 7.699 0 0 0 10.435 2.925l52.235-29.018M249.499 279.812l65.9-36.611a7.702 7.702 0 0 0-7.458-13.475l-57.996 31.976a1.936 1.936 0 0 0-.978 1.392l-2.319 14.723c-.25 1.594 1.44 2.774 2.851 1.992v.003ZM214.498 281.256l-40.713 22.446a7.698 7.698 0 0 0-2.977 10.547l.244.43a7.698 7.698 0 0 0 10.434 2.925l28.987-16.102"></path><path fill="#746BD3" d="m249.114 230.363-21.981-12.682 17.442-15.265 21.982 12.683-17.443 15.264ZM451.626 252.71l-21.985-12.682-185.063-37.612 21.982 12.683 185.066 37.611Z"></path><path fill="#F2F0FF" d="m451.624 252.713-17.918-3.718 6.258 11.948-24.467 122.593-16.961 14.713-168.468-33.961 4.058 9.305 186.426 37.339 16.898-14.447 24.531-122.92-10.357-20.852ZM173.785 303.619a7.698 7.698 0 0 0-2.977 10.547l.244.43a7.662 7.662 0 0 0 2.412 2.595l8.997-18.354-8.676 4.782ZM158.796 275.268a7.698 7.698 0 0 0-2.976 10.547l.243.429a7.699 7.699 0 0 0 10.435 2.926l28.633-15.91 12.109-24.704-48.444 26.709v.003ZM231.348 199.162l-87.878 48.451a7.698 7.698 0 0 0-2.977 10.546l.244.43a7.698 7.698 0 0 0 10.434 2.925l68.18-37.878 11.997-24.477v.003Z"></path><path stroke="#1C1C1E" stroke-linecap="round" stroke-linejoin="round" stroke-width="1.5" d="m339.531 221.715-44.595-83.489-21.237-9.539-166.889 88.381-3.794 22.866 58.663 109.65 20.653 10.55 23.916-12.753"></path><path stroke="#1C1C1E" stroke-linecap="round" stroke-linejoin="round" stroke-width="1.5" d="M451.626 252.711 266.56 215.1l-17.443 15.264-24.256 121.968 9.267 21.259 186.426 37.339 16.898-14.446 24.531-122.92-10.357-20.853Z"></path><path stroke="#1C1C1E" stroke-linecap="round" stroke-linejoin="round" stroke-width="1.5" d="m433.02 246.821-3.375-6.793-185.063-37.612-17.442 15.265-24.259 121.967 9.266 21.26 15.554 3.114M232.844 365.051l165.728 33.195 16.9-14.446 24.529-122.92-4.058-8.17"></path><path stroke="#1C1C1E" stroke-linecap="round" stroke-linejoin="round" stroke-width="1.5" d="m451.626 252.71-21.985-12.682-185.063-37.612 21.982 12.683 185.066 37.611ZM234.13 373.589l-21.984-12.683-9.267-21.26 21.984 12.683 9.267 21.26ZM249.114 230.363l-21.981-12.682 17.442-15.265 21.982 12.683-17.443 15.264Z"></path><path stroke="#1C1C1E" stroke-linecap="round" stroke-linejoin="round" stroke-width="1.5" d="m224.865 352.333 24.256-121.968-21.981-12.682-24.259 121.967 21.984 12.683ZM214.568 342.941l9.681-5.164M207.719 346.6l2.547-1.36"></path><path stroke="#443D8F" stroke-linecap="round" stroke-linejoin="round" stroke-width="1.5" d="m343.303 228.77-2.518-4.715"></path><path stroke="#1C1C1E" stroke-miterlimit="10" stroke-width="1.5" d="m351.514 262.726 2.476-13.94-7.881-14.758M233.285 332.959l86.816-46.291"></path><path stroke="#1C1C1E" stroke-linecap="round" stroke-linejoin="round" stroke-width="1.5" d="M248.666 132.839 81.774 221.22l-3.792 22.867 58.66 109.65 20.654 10.549"></path><path stroke="#1C1C1E" stroke-linecap="round" stroke-linejoin="round" stroke-width="1.5" d="m273.697 128.687-25.035 4.15-166.893 88.381 25.039-4.15 166.889-88.381Z"></path><path stroke="#1C1C1E" stroke-linecap="round" stroke-linejoin="round" stroke-width="1.5" d="m103.017 239.933-25.035 4.151 3.792-22.867 25.038-4.151-3.795 22.867Z"></path><path stroke="#1C1C1E" stroke-linecap="round" stroke-linejoin="round" stroke-width="1.5" d="m161.68 349.581-58.663-109.65-25.035 4.15 58.66 109.651 25.038-4.151ZM182.338 360.132l-25.038 4.15-20.654-10.549 25.039-4.151 20.653 10.55ZM333.804 289.235l-21.279-3.977a1.35 1.35 0 0 1-1.068-1.636c1.328-5.546 8.372-25.622 40.056-20.891 0 0 28.223 4.147 25.866 33.32 0 0-.623 22.042-26.825 23.807a1.349 1.349 0 0 0-1.241 1.135l-1.001 6.319a1.35 1.35 0 0 1-1.559 1.119l-20.076-3.377a1.352 1.352 0 0 1-1.103-1.581l2.78-14.893c.007-.032.01-.064.013-.096.058-.555.982-7.163 12.276-6.739 0 0 10.706.49 12.769-8.545 0 0 2.601-9.822-7.464-11.493 0 0-8.173-1.527-10.607 6.585a1.35 1.35 0 0 1-1.54.94l.003.003ZM332.569 360.135c7.823 0 14.164-6.342 14.164-14.165 0-7.823-6.341-14.164-14.164-14.164-7.823 0-14.165 6.341-14.165 14.164 0 7.823 6.342 14.165 14.165 14.165ZM254.076 204.351l31.017-17.231a7.698 7.698 0 0 0 2.855-10.704 7.702 7.702 0 0 0-10.312-2.771L143.47 247.618a7.698 7.698 0 0 0-2.977 10.546l.244.43a7.698 7.698 0 0 0 10.434 2.925l75.599-42"></path><path stroke="#1C1C1E" stroke-miterlimit="10" stroke-width="1.5" d="m256.201 239.128 24.473-13.597c1.129-.629.792-2.332-.491-2.483-6.828-.811-21.016-.529-25.894 14.505-.372 1.148.853 2.165 1.912 1.578v-.003Z"></path><path stroke="#1C1C1E" stroke-linecap="round" stroke-linejoin="round" stroke-width="1.5" d="m222.736 239.812-63.94 35.255a7.697 7.697 0 0 0-2.976 10.546l.243.43a7.699 7.699 0 0 0 10.435 2.925l52.235-29.018"></path><path stroke="#1C1C1E" stroke-miterlimit="10" stroke-width="1.5" d="m249.499 279.812 65.9-36.611a7.702 7.702 0 0 0-7.458-13.475l-57.996 31.976a1.936 1.936 0 0 0-.978 1.392l-2.319 14.723c-.25 1.594 1.44 2.774 2.851 1.992v.003Z"></path><path stroke="#1C1C1E" stroke-linecap="round" stroke-linejoin="round" stroke-width="1.5" d="m214.498 281.256-40.713 22.446a7.698 7.698 0 0 0-2.977 10.547l.244.43a7.698 7.698 0 0 0 10.434 2.925l28.987-16.102"></path></svg>