<svg width="540" height="540" fill="none" viewBox="130.791 171.583 283.598 206.547" xmlns="http://www.w3.org/2000/svg"><path d="M0 0h540v540H0z" style="fill: rgba(251, 247, 239, 0);"></path><path fill="#F8C100" stroke="#1C1C1E" stroke-miterlimit="10" stroke-width="1.5" d="M142.018 356.975c0 3.757 1.484 7.566 3.976 10.463a14.15 14.15 0 0 1-3.44-1.527s-.966-.615-1.405-.966c-4.125-2.896-6.758-7.987-6.758-12.99V192.818c0-4.301 1.755-8.251 4.564-11.235l7.628 5.021c-2.809 2.984-4.565 6.934-4.565 11.235v159.136Z"></path><path fill="#FFE771" stroke="#1C1C1E" stroke-miterlimit="10" stroke-width="1.5" d="M397.762 182.532c-1.571-.518-3.248-.842-4.801-.842H158.075c-4.564 0-8.689 1.843-11.498 4.915l-7.628-5.021c2.809-3.072 6.934-4.915 11.499-4.915h234.885c2.546 0 5.442.878 7.637 2.019 1.404.79 2.808 1.58 3.774 2.809.36.333.702.675 1.018 1.035Z"></path><path fill="#F8C100" stroke="#1C1C1E" stroke-miterlimit="10" stroke-width="1.5" d="M401.491 192.819v159.224a16.015 16.015 0 0 1-16.063 16.063H150.542c-1.606 0-3.124-.228-4.546-.667-2.493-2.896-3.976-6.706-3.976-10.463V197.84c0-4.301 1.755-8.251 4.564-11.235 2.809-3.072 6.934-4.916 11.498-4.916h234.886c1.553 0 3.23.325 4.801.843 2.423 2.712 3.722 6.258 3.722 10.287Z"></path><path fill="#F8C100" d="M409.116 197.84v159.224c0 5.442-2.633 10.182-6.671 13.078l-.088-.087-81.63-97.519 83.825-85.844c2.896 2.721 4.564 6.671 4.564 11.148Z"></path><path fill="#FD3" d="m404.642 186.604-83.825 85.844-31.16 31.862c-2.984 3.16-7.285 4.301-11.147 3.248a11.587 11.587 0 0 1-5.53-3.248L146.848 186.692c2.808-3.072 6.934-4.916 11.498-4.916h234.798c1.668 0 3.335.264 4.827.79.264.088.439.176.703.264h.087l.527.263c.059 0 .117.029.176.088.439.175.877.439 1.316.614 1.405.79 2.809 1.58 3.775 2.809h.087Z"></path><path fill="#FFD233" d="m402.363 369.967.087.087c-2.633 1.931-5.88 2.985-9.391 2.985H158.173c-2.984 0-5.705-.79-7.987-2.195 0 0-.966-.614-1.405-.965l84.089-96.026 30.457 30.721c2.985 3.16 8.69 5.705 15.098 3.072 3.862.966 8.163-.088 11.147-3.248l31.16-31.862 81.631 97.431Z"></path><path fill="#161616" d="m233.043 273.941-86.195-87.161L272.98 304.399a11.587 11.587 0 0 0 5.53 3.248c-6.408 2.633-12.113.087-15.097-3.073l-30.37-30.633Z"></path><path fill="#F8C100" d="m146.668 186.78.088-.088 86.195 87.161-84.089 96.026-1.316-1.053 1.141.614c-3.687-2.545-5.881-6.32-6.408-10.621-.088-.614-.088-1.141-.088-1.755V197.928c0-4.301 1.756-8.163 4.477-11.148Z"></path><path fill="#FFE771" d="m148.691 369.528-.966-.527c-.965-.79-1.755-1.755-2.545-2.809.965 1.229 2.194 2.37 3.511 3.336ZM211.54 252.173l-64.778-65.481 66.27 61.706-1.492 3.775Z"></path><path fill="#FFE771" d="m146.756 186.693-.088.087c-2.721 2.985-4.477 6.847-4.477 11.148v159.136c0 .615 0 1.229.088 1.756 0 .175 0 .351.088.526-.176-.79-.176-1.667-.176-2.457V197.928c0-4.389 1.756-8.339 4.565-11.235 2.545-2.897 6.407-4.74 10.62-5.004h82.684v.088h-81.718c-4.564 0-8.778 1.844-11.586 4.916ZM409.212 227.858v129.118c0 6.583-3.95 12.2-9.567 14.658a17.644 17.644 0 0 0 2.808-1.58c4.038-2.897 6.671-7.636 6.671-13.078V228.034l.088-.176Z"></path><path fill="#FFD233" d="M409.12 228.034v128.942c0 5.442-2.633 10.182-6.671 13.078l-.088-.087-34.232-40.904 40.991-101.029Z"></path><path fill="#FFE564" stroke="#FFE771" stroke-miterlimit="10" stroke-width="1.5" d="m240.065 181.776-27.035 66.622-66.182-61.706c2.808-3.072 6.934-4.916 11.498-4.916h81.719Z"></path><path fill="#FFD233" d="M150.272 370.846c1.492.966 3.159 1.58 5.003 1.931-1.844-.263-3.511-.965-5.003-1.931-.088 0-1.054-.614-1.405-.965.439.351 1.405.965 1.405.965Z"></path><path fill="#FFE564" d="M402.447 370.054a17.697 17.697 0 0 1-2.809 1.58c-.264.176-.615.263-.966.351-.175.088-.351.176-.614.176h-.088c-.175.088-.439.088-.614.175-.176.088-.439.088-.703.176-.175 0-.263.088-.438.088-.264.087-.439.087-.703.175-.438.088-.877.088-1.316.176h-44.063l17.906-44.063 34.232 40.903.176.263Z"></path><path fill="#FFD233" d="M395.691 372.865c.439-.088.79-.176 1.141-.263-.175 0-.263.087-.438.087-.264.088-.527.176-.703.176Z"></path><path fill="#161616" d="M278.422 307.559c-6.407 2.633-12.113.175-15.097-3.072l-30.282-30.634-21.505-21.68-64.69-65.393 66.182 61.706 59.95 55.913c1.492 1.58 3.423 2.633 5.442 3.16Z"></path><path fill="#FFD233" d="M204.248 244.887 154.48 363.559l-5.53 6.32c-.439-.263-.79-.614-1.229-.966l.966.527c-1.405-.965-2.546-2.106-3.511-3.335-.088-.088-.176-.176-.264-.351-1.228-1.756-2.018-3.775-2.457-5.881 0-.176-.088-.351-.088-.527 0-.176 0-.351-.088-.527-.088-.614-.088-1.141-.088-1.755V197.928c0-4.301 1.756-8.163 4.477-11.148l.088-.088 57.492 58.195Z"></path><path fill="#F8C100" d="M142.457 359.96c.439 2.107 1.317 4.125 2.458 5.881-.527-.79-.966-1.58-1.405-2.37a23.138 23.138 0 0 1-1.053-3.511ZM147.724 369.001c.352.351.79.702 1.229.965l-1.316-1.053.087.088Z"></path><path stroke="#1C1C1E" stroke-miterlimit="10" stroke-width="1.5" d="M142.283 358.907c-.059-.058-.088-.117-.088-.175-.175-.615-.175-1.141-.175-1.756V197.84c0-4.301 1.755-8.251 4.476-11.147l.088-.088c2.633-2.897 6.495-4.74 10.708-4.916h226.986v.088M122.088 172.56l-.088-.087M147.111 187.044l-.439-.264M404.636 186.604 289.651 304.31c-2.984 3.16-7.285 4.301-11.147 3.248"></path><path fill="#161616" stroke="#1C1C1E" stroke-miterlimit="10" stroke-width="1.5" d="M278.422 307.558c-6.408 2.633-12.113.175-15.097-3.073L146.672 186.604 272.98 304.31c1.492 1.668 3.423 2.721 5.442 3.248Z"></path><path stroke="#1C1C1E" stroke-miterlimit="10" stroke-width="1.5" d="M409.118 197.84v159.224a16.014 16.014 0 0 1-16.062 16.063H158.17c-2.984 0-5.705-.79-7.987-2.194 0 0-.966-.615-1.405-.966a15.191 15.191 0 0 1-2.782-2.528c-2.493-2.896-3.976-6.706-3.976-10.463V197.84c0-4.301 1.755-8.251 4.564-11.235 2.809-3.072 6.934-4.916 11.498-4.916h234.886c1.553 0 3.23.325 4.801.843 1.009.325 1.975.729 2.835 1.176 1.405.79 2.809 1.58 3.775 2.809 3.072 2.809 4.739 6.759 4.739 11.323ZM320.727 272.449l81.63 97.518"></path><path stroke="#1C1C1E" stroke-miterlimit="10" stroke-width="1.5" d="m235.502 271.045-86.634 98.922-7.716-5.02M392.977 178.688l10.225 6.662"></path></svg>