<svg xmlns:xlink="http://www.w3.org/1999/xlink" xmlns="http://www.w3.org/2000/svg" width="226" height="165" fill="none"><g clip-path="url(#a)"><path fill="#8E8E8E" d="M55.727 128.39c27.175 0 49.207 5.845 49.207 13.058S93.36 162 66.184 162c-.315 0-15.266-7.566-15.58-7.566-20.074.029-44.084-5.858-44.084-12.986-.004-7.212 22.03-13.058 49.207-13.058Z"></path><path fill="#fff" d="m6.586 37.662 6.854 98.678c0 7.925 20.715 14.348 45.963 14.348s45.716-6.423 45.716-14.348l7.407-105.287-105.94 6.609Z"></path><path fill="#D9D9D9" d="m6.586 32.531.43 11.77c0 2.903.174 5.402.174 5.402 10.212 4.927 29.368 8.264 51.584 8.264 22.911 0 42.903-4.082 52.84-9.272 0 0 .274-5.273.274-7.986l-1.881-9.07-103.421.892Z"></path><path fill="#C95353" stroke="#1C1C1E" stroke-linecap="round" stroke-linejoin="round" d="m6.586 37.662 6.854 98.678c0 7.925 20.715 14.348 45.963 14.348s45.716-6.423 45.716-14.348l7.407-105.287-105.94 6.609Z"></path><path fill="#7D363D" d="M57.032 70.68c-5.335 28.15-11.453 56.863-10.3 80.311l22.485 1.44-5.28-59.725-6.905-22.025ZM7.84 35.195l-.824 8.63c.088 2.148.315 4.288.679 6.407 10.222 4.817 29.81 7.84 52.232 7.416 22.256-.418 41.593-4.12 51.694-9.257 0 0-.057-1.888-.111-4.779l-2.789-9.776L7.84 35.195Z"></path><path stroke="#1C1C1E" stroke-linecap="round" stroke-linejoin="round" d="m6.586 37.662 6.854 98.678c0 7.925 20.715 14.348 45.963 14.348s45.716-6.423 45.716-14.348l7.407-105.287-105.94 6.609Z"></path><path stroke="#1C1C1E" stroke-linecap="round" stroke-miterlimit="10" d="m20.04 49.182 3.468 95.506M35.465 51.91l2.367 97.06M98.794 48.593l-3.47 95.507M83.367 51.323 81 148.611M52.43 53.214v96.741M67.638 52.998l-.619 97.489"></path><path fill="#C95353" stroke="#1C1C1E" stroke-linecap="round" stroke-linejoin="round" d="M0 27.737v10.957c0 8.97 26.627 16.243 59.473 16.243 32.846 0 59.474-7.272 59.474-16.243V27.583L0 27.737Z"></path><path fill="#FFB8B8" stroke="#1C1C1E" stroke-linecap="round" stroke-linejoin="round" d="M59.473 43.826c32.846 0 59.472-7.272 59.472-16.243 0-8.971-26.626-16.244-59.472-16.244C26.627 11.34 0 18.612 0 27.583c0 8.97 26.627 16.243 59.473 16.243Z"></path><path fill="#7D363D" stroke="#1C1C1E" stroke-linecap="round" stroke-linejoin="round" d="M114.221 27.583c0-4.397-9.763-8.265-24.58-10.533l18.704 16.226c3.759-1.71 5.876-3.646 5.876-5.693ZM9.454 26.774c.223-.01.447.006.666.049l13.677 2.643-.006-.068h.032l.871-2.42-.53-1.373-2.79-7.207c-10.604 2.306-17.23 5.567-17.23 9.186 0 1.446 1.067 2.836 3.02 4.132-.096-.747-.181-1.43-.255-2.032a2.641 2.641 0 0 1 1.498-2.66 2.63 2.63 0 0 1 1.047-.25ZM107.754 33.526c-.625.262-1.747.705-3.348 1.259a41.247 41.247 0 0 0 3.348-1.26ZM74.419 15.431a233.162 233.162 0 0 0-5.02-.273l2.475 6.436c.922-2.073 1.79-4.156 2.545-6.163Z"></path><path fill="#7D363D" stroke="#1C1C1E" stroke-linecap="round" stroke-linejoin="round" d="m25.447 27.7-2.373.973.001.003 2.373-.973-.001-.003Z"></path><path stroke="#1C1C1E" stroke-linecap="round" stroke-linejoin="round" d="M108.342 33.274h-.01"></path><path fill="#F8C100" stroke="#1C1C1E" stroke-linecap="round" stroke-linejoin="round" d="M20.852 17.02c.009.026.01.053.022.08l.503 1.297h.007l-.532-1.377Z"></path><path fill="#F8C100" stroke="#1C1C1E" stroke-linecap="round" stroke-linejoin="round" d="m21.378 18.396-.007.001 2.79 7.207-2.783-7.208ZM69.403 15.158 64.59 2.642A3.76 3.76 0 0 0 62.597.567l-.393-.174a4.613 4.613 0 0 0-3.422-.122l-36.08 12.962c-.012 0-.022.011-.034.015L57.932.58a2.849 2.849 0 0 1 2.114.071 2.7 2.7 0 0 1 1.446 1.497l4.982 12.9 3.843 9.957a171.17 171.17 0 0 0 1.566-3.413l-2.48-6.434Z"></path><path fill="#FD3" stroke="#1C1C1E" stroke-linecap="round" stroke-linejoin="round" d="m20.955 14.8-.124-.054a2.572 2.572 0 0 0-.075 2.035l.092.239a2.901 2.901 0 0 1 .107-2.22ZM22.664 13.248l-.285.1a2.718 2.718 0 0 0-1.55 1.396l.123.054a3.06 3.06 0 0 1 1.712-1.55ZM24.164 25.604l.53 1.374.002-.002-.532-1.372Z"></path><path fill="#FD3" stroke="#1C1C1E" stroke-linecap="round" stroke-linejoin="round" d="M24.693 26.977h-.002l.002.003h.001v-.003ZM67.188 31.365c1-1.955 2.068-4.113 3.12-6.35l-3.844-9.956-4.98-12.9A2.705 2.705 0 0 0 60.036.662l-6.808 14.349-4.155 8.759.542 2.652.238 1.159 1.884.302a4.586 4.586 0 0 1 3.238 2.188c.313.517.513 1.093.588 1.692l.328 2.789h.008v-.006l5.394 1.083-1.878-9.413 7.772 5.15Z"></path><path fill="#FD3" stroke="#1C1C1E" stroke-linecap="round" stroke-linejoin="round" d="M57.933.58 22.668 13.248a3.06 3.06 0 0 0-1.711 1.552l5.813 2.565 1.195.527.157-.435c.047-.116.1-.23.16-.34a3.323 3.323 0 0 1 3.522-1.747l4.343.728 7.523 1.263a6.258 6.258 0 0 1 4.435 3.074c.302.534.52 1.112.644 1.713l.331 1.62 4.155-8.76L60.047.65a2.849 2.849 0 0 0-2.114-.07ZM27.962 17.892l-1.196-.527-5.813-2.565a2.896 2.896 0 0 0-.106 2.217l.531 1.377 2.783 7.208.531 1.372 2.942-8.174.328-.908Z"></path><path fill="#C95353" stroke="#1C1C1E" stroke-linecap="round" stroke-linejoin="round" d="M108.331 33.28c-.184.083-.381.165-.573.247.352-.147.546-.236.573-.247ZM98.027 36.687a87.596 87.596 0 0 0 6.383-1.902 70.412 70.412 0 0 1-6.29 1.73l-.093.172ZM108.343 33.272l-.003.002.003-.002Z"></path><path fill="#D9D9D9" stroke="#1C1C1E" stroke-linecap="round" stroke-linejoin="round" d="M6.904 29.681a2.642 2.642 0 0 1 1.499-2.657 2.633 2.633 0 0 1-.001 0A2.635 2.635 0 0 0 6.9 29.68c.073.605.159 1.285.254 2.032-.091-.745-.177-1.43-.251-2.032ZM23.821 29.395l-.032.003.006.068h.001l.025-.071ZM24.695 26.977l-.004.002 1.11 2.875.004-.001-1.11-2.876ZM49.618 26.42l-.542-2.65-.002.002.544 2.649ZM49.069 23.773l-.331-1.62a5.945 5.945 0 0 0-.644-1.713c.3.534.517 1.112.64 1.713l.335 1.62Z"></path><path stroke="#1C1C1E" stroke-linecap="round" stroke-linejoin="round" d="m47.45 27.198.226-.477-.227.477Z"></path><path fill="#D9D9D9" stroke="#1C1C1E" stroke-linecap="round" stroke-linejoin="round" d="M56.552 40.195h.009l-.664-5.644h-.008l-.329-2.789a4.31 4.31 0 0 0-.587-1.692c.31.516.509 1.09.583 1.688l.996 8.437ZM47.45 27.198l2.404.383-2.178-.861-.227.478ZM23.8 29.467l-13.677-2.644a2.836 2.836 0 0 0-.003 0l13.68 2.644Z"></path><path fill="#D9D9D9" stroke="#1C1C1E" stroke-linecap="round" stroke-linejoin="round" d="m49.852 27.58 1.888.303a4.574 4.574 0 0 1-.004-.003l-1.884-.302v.003ZM55.896 34.545l-.002.006 5.394 1.083.001-.005-5.393-1.084ZM25.809 29.853l3.203 8.299h.015l-3.218-8.299ZM59.179 40.514c1.02 0 2.013-.025 3.02-.037l-.907-4.838-5.394-1.083.665 5.928c.87.004 1.742.034 2.616.03ZM42.773 37.058l4.676-9.86-4.676 9.86Z"></path><path fill="#D9D9D9" d="m47.445 27.198-11.417-1.814a4.508 4.508 0 0 0-4.158 1.521l-2.113 2.52a2.314 2.314 0 0 1-2.21.768l-1.747-.34-.452-.086-4.237-.82-10.998-2.123a2.871 2.871 0 0 0-.663-.05 2.633 2.633 0 0 0-2.435 1.836c-.11.345-.148.71-.11 1.071.074.605.16 1.287.255 2.035a37.549 37.549 0 0 0 10.858 4.259l.008-.016v.017c3.617.909 7.276 1.635 10.976 2.177l-.01-.026.025.028c.455.067.906.143 1.365.201v.006a188.698 188.698 0 0 0 26.176 2.117l-1.007-8.723a4.308 4.308 0 0 0-.584-1.688 4.58 4.58 0 0 0-3.233-2.185l-1.889-.302-2.404-.383"></path><path stroke="#1C1C1E" stroke-linecap="round" stroke-linejoin="round" d="m47.445 27.198-11.417-1.814a4.508 4.508 0 0 0-4.158 1.521l-2.113 2.52a2.314 2.314 0 0 1-2.21.768l-1.747-.34-.452-.086-4.237-.82-10.998-2.123a2.871 2.871 0 0 0-.663-.05 2.633 2.633 0 0 0-2.435 1.836c-.11.345-.148.71-.11 1.071.074.605.16 1.287.255 2.035a37.549 37.549 0 0 0 10.858 4.259l.008-.016v.017c3.617.909 7.276 1.635 10.976 2.177l-.01-.026.025.028c.455.067.906.143 1.365.201v.006a188.698 188.698 0 0 0 26.176 2.117l-1.007-8.723a4.308 4.308 0 0 0-.584-1.688 4.58 4.58 0 0 0-3.233-2.185l-1.889-.302-2.404-.383"></path><path fill="#D9D9D9" stroke="#1C1C1E" stroke-linecap="round" stroke-linejoin="round" d="m31.8 15.374 4.327.725h.012l-4.343-.728a3.317 3.317 0 0 0 .003.003ZM27.962 17.89l-.33.913h.003l.329-.912h-.002Z"></path><path fill="#D9D9D9" stroke="#1C1C1E" stroke-linecap="round" stroke-linejoin="round" d="M43.663 17.364a6.266 6.266 0 0 1-.007-.003l-7.523-1.263h-.012l7.542 1.266ZM27.96 17.892l.156-.432a3.137 3.137 0 0 1 .003-.004l-.158.436ZM49.851 27.58l-.238-1.16.237 1.16h.001ZM47.724 26.61l-.052.11.052-.11Z"></path><path fill="#D9D9D9" stroke="#1C1C1E" stroke-linecap="round" stroke-linejoin="round" d="m49.615 26.427-.543-2.649-.334-1.626a5.902 5.902 0 0 0-.64-1.713 6.278 6.278 0 0 0-4.428-3.07l-7.539-1.266-4.328-.725a3.317 3.317 0 0 0-3.516 1.743 3.13 3.13 0 0 0-.162.344l-.155.432-.33.907-2.94 8.174-.87 2.419-.025.072 3.757.726a2.313 2.313 0 0 0 2.203-.768l2.114-2.52a4.512 4.512 0 0 1 4.158-1.521L47.453 27.2l2.405.383-.243-1.156Z"></path><path stroke="#1C1C1E" stroke-linecap="round" stroke-linejoin="round" d="M49.852 27.582h0Z"></path><path fill="#D9D9D9" stroke="#1C1C1E" stroke-linecap="round" stroke-linejoin="round" d="M49.852 27.58h0Z"></path><path stroke="#1C1C1E" stroke-linecap="round" stroke-linejoin="round" d="M60.352 26.122v9.6-9.6ZM61.29 35.629v.006-.006ZM61.75 35.59v4.645-4.645Z"></path><path fill="#1C1C1E" stroke="#1C1C1E" stroke-linecap="round" stroke-linejoin="round" d="m97.715 36.606-.403.262c.247-.061.484-.124.722-.185l.094-.173a7.325 7.325 0 0 1-.413.096Z"></path><path fill="#1C1C1E" stroke="#1C1C1E" stroke-linecap="round" stroke-linejoin="round" d="m98.124 36.514.14-.259-.55.354c.14-.031.272-.063.41-.095ZM98.264 36.253l-.002.001h.002Z"></path><path stroke="#1C1C1E" stroke-linecap="round" stroke-linejoin="round" d="m59.414 26.216 7.772 5.143-7.772-5.143Z"></path><path fill="#FFE564" stroke="#1C1C1E" stroke-linecap="round" stroke-linejoin="round" d="m76.98 37.84-2.3-1.522 2.3 1.521Z"></path><path stroke="#1C1C1E" stroke-linecap="round" stroke-linejoin="round" d="m67.188 31.36 7.491 4.958-7.492-4.958ZM68.673 37.747a4.703 4.703 0 0 0-2.185-1.077"></path><path fill="#FFE564" stroke="#1C1C1E" stroke-linecap="round" stroke-linejoin="round" d="m64.595 36.293-3.306-.664.001.006 3.303.663.002-.005ZM66.486 36.677l.002-.005-1.888-.379-.002.005 1.888.379Z"></path><path fill="#FFE564" stroke="#1C1C1E" stroke-linecap="round" stroke-linejoin="round" d="m74.678 36.318-7.49-4.953-7.774-5.14 1.878 9.413h.006l-.005.005.906 4.838s14.934-.458 14.601-.57l.175-2.068-2.296-1.525Z"></path><path fill="#fff" d="m76.978 37.841 2.745 1.856.115.085a119.43 119.43 0 0 0 17.467-2.91 98.9 98.9 0 0 0 10.453-3.346c.194-.077.39-.164.573-.248h.01L89.639 17.054 76.975 6.068a39.786 39.786 0 0 1-2.554 9.366 114.722 114.722 0 0 1-2.544 6.163 171.162 171.162 0 0 1-1.566 3.413 227.293 227.293 0 0 1-3.12 6.349l7.492 4.958 2.3 1.521"></path><path stroke="#1C1C1E" stroke-linecap="round" stroke-linejoin="round" d="m76.978 37.841 2.745 1.856.115.085a119.43 119.43 0 0 0 17.467-2.91 98.9 98.9 0 0 0 10.453-3.346c.194-.077.39-.164.573-.248h.01L89.639 17.054 76.975 6.068a39.786 39.786 0 0 1-2.554 9.366 114.722 114.722 0 0 1-2.544 6.163 171.162 171.162 0 0 1-1.566 3.413 227.293 227.293 0 0 1-3.12 6.349l7.492 4.958 2.3 1.521M73.473 32.658l8.705 6.96M75.059 30l11.3 9.036"></path><path fill="#FD3" stroke="#1C1C1E" stroke-linecap="round" stroke-linejoin="round" d="m75.977 38.269-.176 1.957 3.016-.141-2.84-1.816Z"></path><path fill="#D9D9D9" stroke="#1C1C1E" stroke-linecap="round" stroke-linejoin="round" d="m218.557 62.338-.442-4.612c-.248-.257-1.9-2.83-1.9-2.83-3.639-1.707-5.112-3.046-10.259-2.776l-139.86 7.309c-8.58.448-10.323 7.22-10.074 11.972l4.39 83.606v.069a6.563 6.563 0 0 0 1.248 3.49 6.59 6.59 0 0 0 2.94 2.263l7.279 2.638-2.564-2.838 142.979-4.25c4.681-.245 8.086-3.51 7.836-8.259l-4.467-85.067a9.3 9.3 0 0 0-.031-.405l2.924-.311h.001Z"></path><path fill="#F0F0F3" stroke="#1C1C1E" stroke-linecap="round" stroke-linejoin="round" d="M212.588 54.272 69.902 61.728a8.575 8.575 0 0 0-5.892 2.863 8.533 8.533 0 0 0-2.14 6.18l4.469 85.065a8.534 8.534 0 0 0 2.774 5.923 8.58 8.58 0 0 0 6.16 2.233l142.682-7.456a8.576 8.576 0 0 0 5.892-2.864 8.53 8.53 0 0 0 2.138-6.18l-4.467-85.063a8.542 8.542 0 0 0-2.773-5.922 8.58 8.58 0 0 0-6.157-2.235Z"></path><path fill="#fff" stroke="#1C1C1E" stroke-linecap="round" stroke-linejoin="round" d="m210.25 60.444-137.38 7.18a5.405 5.405 0 0 0-3.713 1.803 5.38 5.38 0 0 0-1.346 3.894l4.167 79.356a5.38 5.38 0 0 0 1.749 3.731 5.406 5.406 0 0 0 3.88 1.409l137.38-7.183a5.408 5.408 0 0 0 3.711-1.806 5.376 5.376 0 0 0 1.347-3.893l-4.163-79.349a5.38 5.38 0 0 0-3.547-4.82 5.406 5.406 0 0 0-2.081-.319l-.004-.003Z"></path><path fill="#D9D9D9" d="M206.273 60.652s5.86-.078 5.66 6.567c-.2 6.646 4.129 78.618 4.129 78.618s-.784 4.333-4.015 4.889a7.179 7.179 0 0 0 6.174-1.624c2.609-2.478 1.93-2.963 1.521-8.274-.409-5.312-3.869-73.684-3.869-73.684s.9-2.784-2.12-5.613c-1.784-1.67-7.48-.88-7.48-.88Z"></path><path stroke="#1C1C1E" stroke-linecap="round" stroke-linejoin="round" d="M210.955 150.848a5.158 5.158 0 0 0 4.688-3.612 5.132 5.132 0 0 0 .201-2.075l-4.166-79.354a5.144 5.144 0 0 0-5.459-5.15"></path><path stroke="#1C1C1E" stroke-linecap="round" stroke-linejoin="round" d="m210.25 60.444-137.38 7.18a5.405 5.405 0 0 0-3.713 1.803 5.38 5.38 0 0 0-1.346 3.894l4.167 79.356a5.38 5.38 0 0 0 1.749 3.731 5.406 5.406 0 0 0 3.88 1.409l137.38-7.183a5.408 5.408 0 0 0 3.711-1.806 5.376 5.376 0 0 0 1.347-3.893l-4.163-79.349a5.38 5.38 0 0 0-3.547-4.82 5.406 5.406 0 0 0-2.081-.319l-.004-.003Z"></path><path fill="#D9D9D9" d="m153.461 83-7.722.401 7.415 10.257-15.065-9.854-7.733.401 7.595 13.55-15.234-13.148-7.733.402 7.69 17.601-4.908 35.39 7.733-.401 12.529-38.326-4.888 37.924 7.729-.401 12.366-41.62-4.716 41.22 7.726-.402 12.266-45.65L153.461 83Z"></path></g><defs><clipPath id="a"><path fill="#fff" d="M0 0h226v165H0z"></path></clipPath></defs></svg>