<svg width="540" height="540" fill="none" viewBox="113.957 101.007 311.439 339.928" xmlns="http://www.w3.org/2000/svg"><path d="M0 0h540v540H0z" style="fill: rgba(251, 247, 239, 0);"></path><path fill="#ABA3FF" d="M342.966 436.435H159.742l-41.371-240.979c-.537-3.13.229-6.35 2.109-8.876l10.702-14.349c2.075-2.781 5.283-4.421 8.692-4.448l155.42-1.141 47.672 269.79v.003Z"></path><path fill="#fff" d="m166.329 436.383-41.46-241.408s-.759-5.181 2.508-8.806l11.277-14.903s2.604-3.353 8.507-3.522c5.904-.169 148.127-1.089 148.127-1.089l47.673 269.791-176.632-.057v-.006Z"></path><path fill="#FD3" d="M255.895 379.297a34.568 34.568 0 0 0 6.336-7.21l155.82-236.588s10.689-15.292-4.019-26.989c0 0-15.688-11.093-27.074 5.524L233.59 353.825a35.35 35.35 0 0 0-4.466 10.306l-9.467 37.086c-.937 3.671 3.267 6.41 6.1 3.977l30.134-25.891.004-.006Z"></path><path fill="#F0F0F3" d="m145.013 212.292 25.782-.186-2.33-15.491-25.781.186 2.329 15.491ZM271.919 325.364c-1.768-1.232-4.194-.757-5.393 1.058l-12.211 18.479c-1.199 1.815-.737 4.308 1.031 5.54 1.767 1.231 4.194.756 5.393-1.059l12.21-18.479c1.199-1.815.737-4.308-1.03-5.539ZM413.135 108.108c-3.809-2.532-7.67-3.356-8.63-1.835-.956 1.52 1.354 4.803 5.163 7.335 3.81 2.533 7.671 3.356 8.631 1.836.956-1.52-1.354-4.803-5.164-7.336Z"></path><path fill="#D9D9D9" d="m222.719 406.114 47.359 3.735 66.407-10.078-4.569-25.857-87.6 15.322-18.566 15.952s-1.009 1.076-3.031.923v.003Z"></path><path stroke="#1C1C1E" stroke-linecap="round" stroke-linejoin="round" stroke-width="1.5" d="M255.895 379.295a34.568 34.568 0 0 0 6.336-7.21l155.82-236.588s10.689-15.292-4.019-26.989c0 0-15.688-11.093-27.074 5.524L233.59 353.823a35.35 35.35 0 0 0-4.466 10.306l-9.467 37.086c-.937 3.671 3.267 6.41 6.1 3.977l30.134-25.891.004-.006Z"></path><path stroke="#1C1C1E" stroke-linecap="round" stroke-linejoin="round" stroke-width="1.5" d="M272.965 330.907c1.205-1.823.744-4.304-1.03-5.541s-4.189-.762-5.394 1.061l-12.21 18.477c-1.204 1.823-.743 4.304 1.031 5.541s4.189.762 5.394-1.061l12.209-18.477ZM230.027 401.51s-6.62.704-8.918-6.025M351.553 236.391c-2.088 3.309-10.505 1.517-18.802-4.003-8.298-5.52-13.336-12.676-11.248-15.986M418.322 115.476c.958-1.519-1.352-4.804-5.16-7.337-3.807-2.533-7.67-3.356-8.628-1.837-.957 1.519 1.353 4.803 5.161 7.337 3.807 2.533 7.67 3.355 8.627 1.837Z"></path><path stroke="#1C1C1E" stroke-linecap="round" stroke-linejoin="round" stroke-width="1.5" d="m316.92 289.038 26.046 147.399H159.743l-41.372-240.979c-.537-3.13.229-6.35 2.109-8.876l10.702-14.349c2.075-2.781 5.283-4.421 8.692-4.448l155.42-1.141 12.556 71.059"></path><path stroke="#1C1C1E" stroke-linecap="round" stroke-linejoin="round" stroke-width="1.5" d="M137.77 172.175c2.074-2.781 5.283-4.421 8.691-4.447M127.07 186.525l10.702-14.349M124.956 195.401c-.536-3.13.23-6.35 2.11-8.876M166.341 436.38 124.969 195.4M288.943 233.226l-139.099.992M145.013 212.287l25.782-.186-2.33-15.491-25.781.186 2.329 15.491ZM285.288 272.982l-128.175.917M259.759 312.897l-95.384.684M234.223 352.807l-62.598.448M310.738 352.261l-35.621.255M221.836 392.633l-42.945.305M317.986 391.944l-77.474.551"></path></svg>