<svg width="540" height="540" fill="none" viewBox="69.281 95.828 401.439 360" xmlns="http://www.w3.org/2000/svg"><path d="M0 0h540v540H0z" style="fill: rgba(251, 247, 239, 0);"></path><path fill="#ABA3FF" d="M267.7 450.326c3.759 0 6.829-3.07 6.829-6.829v-60.786c0-3.76-3.07-6.829-6.829-6.829-3.76 0-6.829 3.069-6.829 6.829v60.786c0 3.759 3.078 6.829 6.829 6.829ZM363.301 436.839c3.078-2.152 3.832-6.438 1.67-9.516l-34.888-49.781c-2.152-3.078-6.438-3.832-9.516-1.671-3.079 2.153-3.832 6.439-1.671 9.517l34.888 49.781c2.161 3.078 6.438 3.832 9.517 1.67ZM170.543 436.839c-3.078-2.152-3.832-6.438-1.671-9.516l34.889-49.781c2.152-3.078 6.438-3.832 9.516-1.671 3.078 2.153 3.832 6.439 1.671 9.517l-34.888 49.781c-2.161 3.078-6.447 3.832-9.517 1.67ZM267.516 99.988c-3.759 0-6.828 3.07-6.828 6.829v60.786c0 3.76 3.069 6.829 6.828 6.829 3.76 0 6.829-3.069 6.829-6.829v-60.786c0-3.759-3.069-6.829-6.829-6.829ZM171.922 113.473c-3.078 2.152-3.832 6.438-1.671 9.517l34.888 49.78c2.153 3.079 6.439 3.832 9.517 1.671 3.078-2.152 3.832-6.438 1.671-9.517l-34.888-49.78c-2.161-3.079-6.448-3.832-9.517-1.671ZM364.679 113.473c3.079 2.152 3.833 6.438 1.671 9.517l-34.888 49.78c-2.152 3.079-6.438 3.832-9.516 1.671-3.079-2.152-3.833-6.438-1.671-9.517l34.888-49.78c2.161-3.079 6.438-3.832 9.516-1.671Z"></path><path stroke="#1C1C1E" stroke-linecap="round" stroke-linejoin="round" stroke-width="1.5" d="M267.516 99.988c-3.759 0-6.828 3.07-6.828 6.829v60.786c0 3.76 3.069 6.829 6.828 6.829 3.76 0 6.829-3.069 6.829-6.829v-60.786c0-3.759-3.069-6.829-6.829-6.829ZM171.922 113.473c-3.078 2.152-3.832 6.438-1.671 9.517l34.888 49.78c2.153 3.079 6.439 3.832 9.517 1.671 3.078-2.152 3.832-6.438 1.671-9.517l-34.888-49.78c-2.161-3.079-6.448-3.832-9.517-1.671ZM364.679 113.473c3.079 2.152 3.833 6.438 1.671 9.517l-34.888 49.78c-2.152 3.079-6.438 3.832-9.516 1.671-3.079-2.152-3.833-6.438-1.671-9.517l34.888-49.78c2.161-3.079 6.438-3.832 9.516-1.671ZM267.7 450.326c3.759 0 6.829-3.07 6.829-6.829v-60.786c0-3.76-3.07-6.829-6.829-6.829-3.76 0-6.829 3.069-6.829 6.829v60.786c0 3.759 3.078 6.829 6.829 6.829ZM363.301 436.839c3.078-2.152 3.832-6.438 1.67-9.516l-34.888-49.781c-2.152-3.078-6.438-3.832-9.516-1.671-3.079 2.153-3.832 6.439-1.671 9.517l34.888 49.781c2.161 3.078 6.438 3.832 9.517 1.67ZM170.543 436.839c-3.078-2.152-3.832-6.438-1.671-9.516l34.889-49.781c2.152-3.078 6.438-3.832 9.516-1.671 3.078 2.153 3.832 6.439 1.671 9.517l-34.888 49.781c-2.161 3.078-6.447 3.832-9.517 1.67Z"></path><path fill="#FFE771" d="M465.443 256.905c-.591-.027-1.181-.064-1.771-.091v-.962c.554.027 1.108.063 1.671.09.027.318.063.636.1.963Z"></path><path fill="#1C1C1E" d="M465.645 255.617c-.654-.036-1.308-.073-1.961-.1l.081-10.288c.146.018.291.045.436.072a162.025 162.025 0 0 1 1.444 10.316Z"></path><path fill="#FFE771" d="M464.202 245.302c-.146-.027-.291-.054-.436-.073v-.435l.018-1.753c.136.736.281 1.489.418 2.261ZM463.762 244.792v.436c-5.993-1.09-12.023-2.061-18.043-2.996-7.147-1.117-14.357-1.871-21.531-2.815-1.108-.146-1.453.145-1.198 1.298.935 4.15 1.425 8.363 1.698 12.604.081 1.271.572 1.544 1.716 1.517 2.179-.046 4.368.054 6.556.018 10.262-.191 20.495.127 30.72.663v1.298a739.77 739.77 0 0 0-27.578-.917c-3.133-.036-6.456-.091-9.734-.236-.572-.027-1.099-.018-1.444.327-.263.263-.363.654-.336 1.28.309 6.075.163 12.078-.155 17.608l-1.171-.064-.345-.018c.663-11.233.173-22.457-1.88-33.626-.318-1.753-1.062-2.325-2.715-2.561-11.678-1.625-23.346-3.332-35.006-5.039a7146.256 7146.256 0 0 1-34.234-5.086c-11.66-1.761-23.32-3.478-34.952-5.385a1064.795 1064.795 0 0 1-37.731-6.883c-1.162-.236-1.988.009-2.778.936a124.285 124.285 0 0 1-5.303 5.811c-.818.836-1.054 1.716-1.027 2.852.2 7.673.318 15.346.5 23.019.218 9.208.472 18.407.717 27.615 2.243-16.1 3.614-32.31 6.729-48.628 1.081.908.826 1.562.79 2.153-.699 11.151-2.088 22.238-3.269 33.335-1.68 15.764-3.396 31.519-5.103 47.274a5.648 5.648 0 0 0-.037.681h-.336l-1.225-.018c.063-2.443.29-4.904.499-7.292.145-1.734.309-3.523.409-5.285.363-6.447.045-12.994-.255-19.314a484.685 484.685 0 0 1-.308-7.283c-.582-17.181-.89-32.3-.945-46.221-.009-1.471.418-2.588 1.38-3.641 1.472-1.608 2.906-3.306 4.287-4.949.563-.672 1.126-1.344 1.689-2.007.989-1.172 2.088-1.571 3.45-1.272 12.45 2.752 25.227 4.795 37.585 6.766l1.698.272c16.491 2.633 33.272 5.14 49.509 7.573 15.482 2.316 31.482 4.713 47.201 7.21 12.05 1.907 24.318 3.669 36.187 5.367 5.022.717 10.034 1.444 15.047 2.17l.081.409c.055.345.128.699.191 1.044Z"></path><path fill="#000" d="m463.763 244.175 1.217 12.213c-10.461-.572-22.021-1.262-32.518-1.062-2.243.036-4.477-.073-6.711-.018-1.171.027-1.671-.264-1.752-1.635-.282-4.559-.781-9.09-1.735-13.548-.263-1.245.091-1.553 1.226-1.399 7.337 1.017 14.72 1.825 22.03 3.024 6.157 1.008 12.123 1.253 18.252 2.425h-.009Z"></path><path fill="#FFE771" d="M463.524 317.438c-.109.754-.227 1.507-.354 2.27l.018-2.343c.109.027.227.046.336.073ZM463.145 317.702l-.246 1.599c-12.44-2.552-28.749-6.021-45.222-10.298-4.976-1.299-10.052-2.534-14.965-3.732a1373.75 1373.75 0 0 1-8.472-2.071c-.935-.245-1.616-.099-2.216.509l-1.071-.845-.264-.208c3.406-4.323 6.666-8.772 9.726-13.367.536-.808.981-1.753 2.052-2.289.082.781-.281 1.181-.563 1.553-2.697 3.587-3.478 7.755-3.868 12.096-.118 1.207.127 1.58 1.307 1.852 4.632 1.035 9.254 2.134 13.83 3.369 1.58.427 2.307-.072 2.888-1.426 2.833-6.565 5.258-13.312 6.057-20.395.345-3.078.617-6.166.799-9.253l.345.018 1.171.064c-.272 4.449-.662 8.599-1.035 12.222-.699 6.729-1.789 12.704-3.332 18.289-.255.917-.246 1.516.018 1.979.281.482.808.781 1.816 1.036 12.813 3.278 25.953 6.066 38.666 8.754l2.579.544Z"></path><path fill="#FFE771" d="M421.035 241.17c2.052 11.169 2.543 22.393 1.88 33.626a176.24 176.24 0 0 1-.799 9.253c-.8 7.083-3.224 13.83-6.057 20.395-.581 1.353-1.308 1.853-2.888 1.426-4.577-1.235-9.199-2.334-13.83-3.369-1.18-.272-1.426-.645-1.308-1.852.391-4.341 1.172-8.509 3.869-12.096.281-.372.645-.772.563-1.553-1.072.536-1.517 1.48-2.052 2.289a207.94 207.94 0 0 1-9.726 13.366c-4.077 5.186-8.354 10.198-12.758 15.12-1.353 1.516-2.797 2.216-4.768 2.497-8.154 1.153-16.363 1.998-24.409 3.914-14.238 3.387-26.797 10.116-38.066 19.324a2.979 2.979 0 0 1-.2.154c-1.117.845-1.598.59-2.261-.59-1.743-3.097-3.441-6.239-5.376-9.217-1.026-1.571-.699-2.57.373-3.896 4.849-5.993 10.606-10.906 17.244-14.792 2.315-1.353 4.676-2.643 7.092-3.805 1.389-.663 2.207-1.635 2.888-2.979 3.859-7.609 5.802-15.827 7.909-24 .454-1.771-1.244-4.141-3.442-4.958-6.547-2.425-13.357-3.932-20.123-5.576-5.366-1.298-10.787-2.37-16.29-2.915-.736-.072-1.462-.145-2.616-.254 1.208 1.144 2.389.926 3.397 1.172 2.924.735 4.195 2.751 3.405 5.657-1.408 5.176-2.815 10.361-4.259 15.528-.745 2.697-1.489 5.403-3.505 7.7 1.398.155 2.225-.354 2.987-1.162 2.37-2.524 5.077-4.595 8.246-6.057 1.707-.79 3.341-.054 4.921.227 6.529 1.144 13.049 2.37 19.615 3.26 1.262.173 1.571.545 1.117 1.78-1.108 2.979-2.116 5.993-3.124 9.008-.282.854-.817 1.308-1.625 1.644-4.051 1.689-7.864 3.814-11.506 6.247-.69.454-1.407.781-2.234.881-12.413 1.508-24.717 3.66-37.04 5.694-1.362.218-2.207-.027-2.96-1.217-1.571-2.479-3.242-4.885-4.931-7.283-.554-.79-.772-1.607-.772-2.497 0-.227.009-.445.036-.681 1.708-15.755 3.424-31.51 5.104-47.274 1.18-11.097 2.57-22.185 3.269-33.336.036-.59.29-1.244-.79-2.152-3.115 16.318-4.486 32.527-6.729 48.627-.245-9.207-.499-18.406-.717-27.614-.182-7.673-.3-15.346-.5-23.02-.027-1.135.209-2.016 1.026-2.851a123.261 123.261 0 0 0 5.303-5.812c.79-.926 1.617-1.171 2.779-.935a1066.657 1066.657 0 0 0 37.731 6.883c11.632 1.907 23.292 3.623 34.951 5.385a7294.941 7294.941 0 0 0 34.235 5.085c11.659 1.707 23.328 3.415 35.006 5.04 1.653.236 2.397.808 2.715 2.561Z"></path><path fill="#FFE771" d="M392.024 303.708a4.121 4.121 0 0 0-.354.408c-3.85 5.185-8.118 9.998-11.405 13.612-.454.5-.809 1.081-1.145 1.644-.445.754-.871 1.462-1.534 2.007-.808.644-1.499.971-2.307 1.08-1.28.173-2.56.336-3.841.509-6.22.817-12.649 1.662-18.933 2.833-12.023 2.243-23.737 7.292-35.796 15.437a277.245 277.245 0 0 0-5.349 3.687l-.681-.981-.191-.281c.064-.046.136-.1.2-.154 11.269-9.208 23.828-15.937 38.066-19.324 8.046-1.916 16.255-2.761 24.409-3.914 1.971-.282 3.415-.981 4.768-2.497 4.404-4.922 8.681-9.935 12.758-15.12l.264.209 1.071.845Z"></path><path fill="#FFE771" d="M334.912 279.426c-6.547-2.424-13.357-3.932-20.122-5.575-5.367-1.299-10.788-2.37-16.291-2.915-.736-.073-1.462-.145-2.615-.254 1.207 1.144 2.388.926 3.396 1.171 2.924.736 4.195 2.752 3.405 5.657-1.408 5.176-2.815 10.361-4.259 15.528-.745 2.697-1.489 5.403-3.505 7.701 1.398.154 2.225-.354 2.988-1.162 2.37-2.525 5.076-4.595 8.245-6.057 1.707-.79 3.342-.055 4.922.227 6.529 1.144 13.049 2.37 19.614 3.26 1.262.172 1.571.545 1.117 1.779-1.108 2.979-2.116 5.994-3.124 9.009-.281.853-.817 1.307-1.625 1.643-4.05 1.689-7.864 3.814-11.506 6.248-.69.454-1.407.781-2.233.881-12.414 1.507-24.718 3.659-37.041 5.693-1.362.218-2.206-.027-2.96-1.217-1.571-2.479-3.242-4.885-4.931-7.282-.554-.79-.772-1.608-.772-2.498h-.336l-1.226-.018c-.009.472-.018.936-.018 1.408 0 1.326.3 2.197.972 2.833 1.798 1.671 3.06 3.759 4.277 5.784.227.364.445.727.663 1.081.853 1.38 1.616 1.825 3.078 1.734 3.578-.208 7.174-.817 10.643-1.398 1.444-.245 2.878-.49 4.331-.708 5.249-.79 10.588-1.635 15.746-2.452l5.358-.845-.727.736c-3.514 3.541-6.565 6.892-9.344 10.243-.971 1.171-1.089 2.352-.336 3.505.627.981 1.099 2.016 1.553 3.024l.136.3c1.217 2.669 2.561 5.484 4.432 7.918 1.434 1.862 2.479 1.989 4.486.554.018-.009.036-.027.054-.036l-.681-.981-.191-.282c-1.117.845-1.598.591-2.261-.59-1.743-3.096-3.441-6.238-5.376-9.217-1.026-1.571-.699-2.57.373-3.895 4.849-5.994 10.606-10.906 17.244-14.793 2.316-1.353 4.677-2.642 7.092-3.805 1.389-.663 2.207-1.634 2.888-2.978 3.859-7.61 5.802-15.828 7.909-24.001.454-1.77-1.244-4.14-3.442-4.958Zm-33.035 9.027c.445-1.88 1.489-2.815 3.278-3.487 5.085-1.907 10.416-2.443 15.701-3.279 1.788-.281 3.614-.408 5.284-1.126 3.315-1.416 5.948.663 8.772 1.662.591.2 1.008.926.827 2.053-.808 3.178-1.698 6.692-2.579 10.197-.182.745-.627.745-1.271.599-8.464-1.916-17.027-3.241-25.626-4.34-.917-.118-1.871-.064-2.806-.073-2.216-.009-2.107.018-1.58-2.206Zm21.494-9.372c-6.311.709-12.404 2.316-18.579 3.451-1.181.218-1.29.1-.927-1.008.727-2.216 1.281-4.477 1.935-6.72.127-.454-.028-1.135.971-.844 4.913 1.453 9.853 2.806 14.775 4.231.635.191 1.216.591 1.825.89Z"></path><path fill="#FFE771" d="M334.918 282.224c.59.2 1.008.926.826 2.052-.808 3.178-1.698 6.693-2.579 10.198-.181.744-.626.744-1.271.599-8.463-1.916-17.026-3.242-25.626-4.34-.917-.119-1.87-.064-2.806-.073-2.215-.009-2.106.018-1.58-2.207.445-1.879 1.489-2.815 3.278-3.487 5.086-1.907 10.416-2.442 15.701-3.278 1.789-.281 3.614-.409 5.285-1.126 3.314-1.416 5.948.663 8.772 1.662ZM321.548 278.19c.635.191 1.217.59 1.825.89-6.311.708-12.404 2.316-18.579 3.451-1.181.218-1.29.1-.926-1.008.726-2.216 1.28-4.477 1.934-6.72.127-.454-.027-1.135.971-.844 4.913 1.452 9.853 2.805 14.775 4.231Z"></path><path fill="#ABA3FF" d="M442.386 287.09c3.151 0 5.703-2.597 5.703-5.794 0-3.196-2.552-5.793-5.703-5.793-3.151 0-5.702 2.597-5.702 5.793 0 3.197 2.551 5.794 5.702 5.794Z"></path><path fill="#1C1C1E" d="M445.011 292.221c-5.939 0-10.779-4.903-10.779-10.924 0-6.02 4.84-10.924 10.779-10.924s10.779 4.904 10.779 10.924c0 6.021-4.84 10.924-10.779 10.924Zm0-20.486c-5.194 0-9.416 4.286-9.416 9.562s4.222 9.562 9.416 9.562 9.417-4.286 9.417-9.562-4.223-9.562-9.417-9.562Z"></path><path fill="#000" d="M426.368 255.662c3.278.145 6.601.2 9.734.236 9.263.136 18.534.445 27.569.917.591.027 1.181.064 1.771.091-.036-.327-.073-.645-.1-.963-.563-.027-1.117-.063-1.662-.09-11.904-.618-21.703-.827-30.711-.663a75.246 75.246 0 0 1-3.187-.009c-1.108-.009-2.252-.028-3.369-.009-1.19.018-1.961-.264-2.061-1.835-.309-4.813-.845-8.799-1.689-12.549-.109-.473-.182-1.063.154-1.426.336-.372.908-.345 1.417-.281 2.479.326 4.958.626 7.428.926 4.64.572 9.425 1.153 14.111 1.889 7.074 1.089 12.813 2.043 17.989 2.978h.018s-.009-.018-.018-.027v-.055c-.063-.345-.136-.699-.191-1.044l-.081-.409c-5.013-.726-10.025-1.453-15.047-2.17-11.869-1.698-24.137-3.46-36.187-5.367-15.719-2.497-31.719-4.894-47.201-7.21-16.237-2.433-33.018-4.94-49.509-7.573l-1.698-.272c-12.358-1.971-25.135-4.014-37.585-6.766-1.362-.299-2.461.1-3.45 1.272-.563.663-1.126 1.335-1.689 2.007-1.381 1.643-2.815 3.341-4.287 4.949-.962 1.053-1.389 2.17-1.38 3.641.055 13.921.363 29.04.945 46.221.081 2.424.19 4.849.308 7.283.3 6.32.618 12.867.255 19.314-.1 1.762-.264 3.551-.409 5.285-.209 2.388-.436 4.849-.499 7.292-.01.472-.019.935-.019 1.408 0 1.325.3 2.197.972 2.833 1.798 1.671 3.06 3.759 4.277 5.784.227.363.445.727.663 1.081.853 1.38 1.616 1.825 3.078 1.734 3.578-.209 7.174-.817 10.643-1.398 1.444-.245 2.878-.491 4.331-.708 5.249-.791 10.588-1.635 15.746-2.452l5.358-.845-.726.736c-3.515 3.541-6.566 6.892-9.345 10.243-.971 1.171-1.089 2.352-.336 3.505.627.981 1.099 2.016 1.553 3.024l.136.3c1.217 2.669 2.561 5.484 4.432 7.918 1.435 1.861 2.479 1.989 4.486.554.018-.009.036-.027.054-.036a271.46 271.46 0 0 1 5.349-3.687c12.059-8.146 23.773-13.195 35.796-15.438 6.284-1.171 12.713-2.015 18.933-2.833 1.281-.172 2.561-.336 3.841-.508.809-.109 1.499-.436 2.307-1.081.663-.545 1.09-1.253 1.535-2.007.336-.563.69-1.144 1.144-1.643 3.287-3.614 7.555-8.427 11.405-13.612.118-.155.236-.291.354-.409.6-.608 1.281-.754 2.216-.508 2.824.699 5.648 1.389 8.472 2.07 4.913 1.199 9.989 2.434 14.965 3.732 16.473 4.277 32.782 7.746 45.222 10.298l.246-1.599-2.579-.544c-12.713-2.688-25.853-5.476-38.666-8.754-1.008-.254-1.535-.554-1.816-1.035-.264-.463-.273-1.063-.018-1.98 1.543-5.585 2.633-11.56 3.332-18.289.373-3.623.763-7.773 1.035-12.222.318-5.53.464-11.533.155-17.608-.027-.626.072-1.017.336-1.28.345-.345.872-.354 1.444-.327Zm-3.905 28.423c-.872 7.682-3.714 14.983-6.084 20.495-.527 1.217-1.208 1.78-2.234 1.78-.318 0-.672-.055-1.062-.164-4.078-1.099-8.473-2.17-13.812-3.36-1.344-.317-1.707-.835-1.571-2.224.372-4.15 1.108-8.509 3.932-12.269l.072-.09c.146-.182.282-.364.364-.591-.473.391-.781.881-1.099 1.399-.091.136-.182.281-.273.418a204.135 204.135 0 0 1-9.743 13.385c-3.76 4.794-7.973 9.78-12.768 15.137-1.362 1.526-2.842 2.307-4.967 2.606-1.834.264-3.659.5-5.494.745-6.22.826-12.658 1.68-18.888 3.16-13.63 3.242-26.043 9.544-37.93 19.26-.072.064-.154.118-.227.173-.508.381-.908.554-1.262.554-.073 0-.145 0-.209-.018-.572-.109-.944-.663-1.271-1.244l-.926-1.644c-1.408-2.515-2.861-5.113-4.441-7.555-1.153-1.762-.726-2.906.391-4.295a63.573 63.573 0 0 1 17.335-14.866c2.57-1.498 4.894-2.751 7.119-3.823 1.199-.572 2.016-1.416 2.733-2.824 3.542-6.983 5.494-14.62 7.392-22.011l.49-1.916c.4-1.58-1.171-3.787-3.232-4.559-5.676-2.098-11.66-3.541-17.444-4.922l-2.643-.644c-6.193-1.499-11.351-2.425-16.236-2.906l-.318-.028a65.831 65.831 0 0 0-.836-.081c.4.127.79.172 1.181.218.3.036.59.072.863.145 1.589.39 2.706 1.144 3.341 2.225.618 1.053.718 2.343.309 3.85l-.227.854c-1.335 4.894-2.661 9.789-4.032 14.674-.69 2.497-1.389 5.058-3.124 7.292.881-.064 1.472-.481 2.035-1.081 2.542-2.706 5.275-4.713 8.354-6.129 1.435-.663 2.778-.345 4.077-.027.354.081.699.163 1.044.227 1.263.217 2.525.444 3.787.672 5.176.917 10.525 1.87 15.81 2.588.599.081 1.189.217 1.462.671.217.364.199.827-.073 1.562-1.099 2.97-2.125 6.039-3.115 8.999-.29.89-.835 1.444-1.816 1.853-3.841 1.598-7.582 3.632-11.451 6.211-.826.545-1.58.845-2.379.935-10.497 1.272-21.085 3.042-31.328 4.75-1.898.308-3.796.626-5.703.944-1.326.209-2.397.064-3.296-1.371-1.635-2.579-3.397-5.104-4.922-7.274-.563-.808-.836-1.671-.836-2.697 0-.227.009-.463.037-.708l.899-8.309c1.407-12.985 2.815-25.971 4.204-38.965.273-2.57.554-5.14.845-7.719.926-8.382 1.888-17.045 2.424-25.599 0-.09.009-.172.027-.263.037-.381.073-.726-.263-1.171-1.989 10.579-3.278 21.258-4.531 31.591-.645 5.376-1.317 10.934-2.08 16.382l-.672-.036-.136-5.167c-.209-7.483-.409-14.965-.581-22.448-.082-3.369-.145-6.738-.218-10.107-.082-4.304-.173-8.608-.282-12.912-.036-1.335.3-2.261 1.127-3.097a133.906 133.906 0 0 0 5.285-5.793c.853-1.008 1.779-1.326 3.105-1.054 12.804 2.57 25.49 4.886 37.712 6.883 9.417 1.544 19.006 2.988 28.278 4.377l6.674 1.008a7739.911 7739.911 0 0 0 34.234 5.086c11.369 1.661 23.129 3.387 34.998 5.039 1.888.264 2.678 1.008 3.005 2.834 1.971 10.706 2.597 21.811 1.889 33.707-.182 3.042-.445 6.13-.799 9.272Zm-117.423.563c2.107-.79 4.268-1.353 6.438-1.789 2.171-.436 4.35-.763 6.493-1.081.944-.136 1.898-.281 2.833-.427.382-.063.754-.109 1.126-.163 1.444-.2 2.797-.391 4.077-.945 2.679-1.144 4.913-.127 7.083.845.636.291 1.29.581 1.944.817.626.209 1.28.972 1.044 2.425-.808 3.205-1.698 6.72-2.579 10.225-.191.762-.654.935-1.081.935-.227 0-.444-.054-.599-.082-7.364-1.671-15.501-3.051-25.598-4.34-.645-.082-1.335-.082-1.998-.073-.254.009-.518.009-.763 0-1.244 0-1.771 0-2.07-.381-.291-.364-.164-.89.09-1.925l.073-.318c.445-1.88 1.453-2.961 3.487-3.723Zm-1.489-3.233c.454-1.399.853-2.851 1.235-4.25.227-.817.454-1.634.69-2.461a.839.839 0 0 0 .045-.236c.037-.263.091-.599.391-.799.227-.145.536-.163.962-.036 2.852.844 5.721 1.652 8.582 2.47 2.07.581 4.131 1.162 6.193 1.761.463.137.89.373 1.307.609.191.1.382.209.572.299l1.045.518-1.163.127c-4.14.463-8.254 1.335-12.24 2.17-2.062.436-4.196.89-6.312 1.281a4.43 4.43 0 0 1-.771.091c-.255 0-.454-.055-.591-.218-.263-.291-.145-.736.055-1.326Z"></path><path fill="#1C1C1E" d="m464.101 319.619-2.343-.545c.127-.754 1.28-.617 1.389-1.362 3.333-21.649 3.587-42.207 1.771-60.342a76.307 76.307 0 0 0-.173-1.634c-.39-3.578-.871-7.029-1.434-10.261a70.86 70.86 0 0 0-.291-1.589l-.127-.663 1.789-.336.127.663c.1.526.2 1.062.3 1.607a161.778 161.778 0 0 1 1.453 10.37c.063.545.118 1.099.172 1.662 1.834 18.279 1.062 38.602-2.297 60.396-.109.754-.2 1.271-.327 2.034h-.009ZM305.738 341.33l-.517-.744c11.006-7.71 18.524-11.615 22.002-7.301l-.708.572c-3.042-3.76-10.198.072-20.777 7.473Z"></path><path fill="#FD3" d="M275.17 266.42v13.849l-.3 4.985c-.236 3.868-.481 7.873-.663 11.814-.082 1.725-.245 3.469-.4 5.167-.263 2.824-.544 5.757-.426 8.663.027.608-.164 1.171-.591 1.771-1.852 2.597-3.795 5.43-5.539 8.481-.672 1.199-1.544 1.671-2.978 1.635-6.157-.146-12.414-.228-18.461-.309l-5.894-.082a63.285 63.285 0 0 0-2.261-.009h-.89l-.036.172c-.136.582.063.899.309 1.117l-.854.899-.154.164a68.573 68.573 0 0 0-1.226-1.117c-.618-.536-1.244-.717-2.043-.69-3.242.1-6.484.154-9.699.681-1.171.181-2.143-.345-2.787-1.235-2.797-3.896-6.039-7.483-8.436-11.651-.854-1.48-1.644-1.562-3.106-1.144-11.369 3.278-22.929 5.094-34.779 3.651-11.033-1.353-20.595-5.794-28.096-14.212-.263-.299-.826-.581-.372-1.062.436-.454.772.036 1.08.318 1.953 1.752 3.887 3.514 6.084 4.967 10.207 6.783 21.522 9.044 33.59 8.254 8.391-.545 16.5-2.397 24.572-4.74 8.591-2.488 16.927-5.585 25.145-9.035 7.655-3.224 15.001-7.111 22.284-11.106.536-.291 1.044-.872 1.825-.608-.302.829-.89 1.516-1.761 2.061-6.993 4.386-14.266 8.254-21.776 11.678-.527.245-1.226.281-1.507 1.008 2.451 1.443 5.085 2.379 7.764 3.251 4.449 1.452 8.99 2.66 13.258 4.631.644.299 1.58.408 1.643 1.78-3.886-1.081-7.6-2.089-11.296-3.151-4.023-1.163-8.019-2.407-11.696-4.468-2.325-1.308-3.896-1.208-6.048.427-.545.417-1.135.762-1.698 1.153-3.333 2.315-6.647 4.658-10.007 6.938-1.144.781-1.426 1.443-.436 2.633a81.918 81.918 0 0 1 4.631 6.12c.808 1.181 1.689 1.535 3.124 1.399 4.286-.418 8.59-.681 12.895-.945 8.808-.544 17.616-.218 26.425.1 1.207.046 1.934-.299 2.56-1.362 1.226-2.097 2.588-4.132 3.969-6.129.635-.908.989-1.835 1.08-2.924 1.716-21.622 2.316-43.252.69-64.909-.308-4.087-1.416-7.619-4.249-10.634-.872-.926-1.689-1.389-2.906-1.217-2.225.309-4.459.554-6.675.917-7.764 1.263-15.5 2.634-23.274 3.814-2.578.391-5.203.899-7.991.473.518-.772 1.199-.7 1.762-.818 6.13-1.217 12.259-2.424 18.389-3.605 5.53-1.053 11.069-1.979 16.663-2.615.826-.091 1.743-.045 1.643-1.444-.245-3.187-.699-6.184-3.686-8.136-.827-.536-1.49-1.335-2.171-2.062-.563-.617-1.162-.835-1.998-.653-3.16.69-6.356 1.262-9.498 2.043-11.696 2.887-23.337 5.966-35.188 8.2-.835.154-1.698.417-2.833-.146.581-.236.854-.381 1.144-.463 13.067-3.55 26.153-7.083 39.347-10.152.536-.118 1.417.1 1.507-.699.073-.663-.563-1.035-1.126-1.362a61.167 61.167 0 0 0-1.879-1.063l.109-.2.563-1.062c1.471.799 2.942 1.644 4.313 2.597.799.563 1.798 1.072 3.151.563 1.417-.536 2.706-.2 3.632.945 1.154 1.434 2.552 2.733 4.259 3.959 1.026.735 1.571 1.734 1.716 3.151.146 1.344.382 2.697.609 4.004.136.763.272 1.517.381 2.271.073.553.282.926.672 1.253 3.015 2.451 4.613 5.621 5.04 9.979.127 1.299.254 2.597.39 3.896.573 5.739 1.172 11.669 1.263 17.544.009.436.072.872.127 1.289.036.191.063.382.082.554Z"></path><path fill="#FD3" d="M271.887 245.299c1.625 21.658 1.026 43.288-.69 64.909-.091 1.09-.445 2.016-1.081 2.924-1.38 1.998-2.742 4.032-3.968 6.13-.627 1.062-1.353 1.407-2.561 1.362-8.808-.318-17.617-.645-26.425-.1-4.304.263-8.608.527-12.895.944-1.434.136-2.315-.218-3.123-1.398a81.948 81.948 0 0 0-4.632-6.121c-.989-1.189-.708-1.852.436-2.633 3.36-2.279 6.675-4.622 10.007-6.938.563-.39 1.154-.735 1.698-1.153 2.153-1.634 3.723-1.734 6.048-.427 3.678 2.062 7.673 3.306 11.696 4.468 3.696 1.062 7.41 2.07 11.297 3.151-.064-1.371-.999-1.48-1.644-1.78-4.268-1.97-8.808-3.178-13.258-4.631-2.679-.872-5.312-1.807-7.764-3.251.282-.726.981-.763 1.507-1.008 7.51-3.423 14.784-7.292 21.776-11.678.872-.545 1.459-1.232 1.762-2.061-.781-.263-1.29.318-1.826.608-7.282 3.996-14.629 7.882-22.284 11.106-8.218 3.451-16.554 6.547-25.144 9.035-8.073 2.343-16.182 4.196-24.573 4.741-12.068.79-23.382-1.471-33.589-8.255-2.198-1.453-4.132-3.214-6.084-4.967-.309-.281-.645-.772-1.081-.318-.454.482.109.763.372 1.063 7.501 8.418 17.063 12.858 28.096 14.211 11.851 1.444 23.41-.372 34.779-3.65 1.462-.418 2.252-.336 3.106 1.144 2.397 4.168 5.639 7.755 8.436 11.65.645.89 1.616 1.417 2.788 1.235 3.214-.526 6.456-.581 9.698-.681.799-.027 1.426.155 2.043.69.409.364.817.736 1.226 1.117 2.797 2.607 5.349 5.422 7.555 8.573.645.917.727 1.725.3 2.769-.826 2.016-1.444 4.123-2.279 6.139-.854 2.07-1.29 2.161-3.142.971-11.206-7.164-23.556-11.096-36.623-13.149-4.186-.662-8.39-1.126-12.604-1.28-9.035-.336-17.117-3.923-25.281-7.201-7.827-3.151-14.783-7.719-20.967-13.503-2.434-2.279-4.277-4.994-6.502-7.918-.445 2.66.227 4.776 1.181 6.81.49 1.044.29 1.417-.881 1.462-4.441.173-8.872.363-13.294.654-1.208.073-1.508-.472-1.708-1.435-1.189-5.675-2.143-11.396-2.706-17.171-1.207-12.604-.935-25.172.591-37.74.317-2.67.998-5.258 1.362-7.9.091-.672.245-1.462 1.235-1.235 6.202 1.462 11.805-1.362 17.607-2.534 11.587-2.333 22.711-6.329 33.917-9.998 21.721-7.11 43.696-13.312 65.908-18.661 1.253-.299 2.279-.19 3.414.346 1.943.935 3.859 1.907 5.748 2.942a63.37 63.37 0 0 1 1.88 1.062c.563.327 1.198.699 1.126 1.362-.091.799-.972.581-1.508.7-13.194 3.069-26.279 6.601-39.346 10.152-.291.081-.563.227-1.145.463 1.136.563 1.998.3 2.834.145 11.85-2.234 23.491-5.312 35.187-8.2 3.142-.781 6.339-1.353 9.499-2.043.835-.182 1.435.036 1.998.654.681.726 1.344 1.525 2.17 2.061 2.988 1.953 3.442 4.949 3.687 8.137.1 1.398-.818 1.353-1.644 1.443-5.594.636-11.133 1.562-16.663 2.616a3223.418 3223.418 0 0 0-18.388 3.605c-.563.118-1.245.045-1.762.817 2.788.427 5.412-.082 7.991-.472 7.773-1.181 15.51-2.552 23.274-3.814 2.215-.363 4.449-.609 6.674-.917 1.217-.173 2.034.29 2.906 1.217 2.833 3.014 3.941 6.547 4.25 10.633Z"></path><path fill="#FD3" d="m249.541 214.416-.563 1.062-.109.2a122.343 122.343 0 0 0-5.748-2.942c-1.136-.536-2.162-.645-3.415-.345-22.211 5.348-44.187 11.551-65.908 18.661-11.205 3.668-22.329 7.664-33.916 9.998-5.803 1.171-11.406 3.995-17.608 2.533-.99-.227-1.144.563-1.235 1.235-.363 2.643-1.044 5.231-1.362 7.9-1.525 12.568-1.798 25.136-.59 37.74.563 5.775 1.516 11.496 2.706 17.172.2.962.499 1.507 1.707 1.434 4.422-.29 8.854-.481 13.294-.653 1.172-.046 1.372-.418.881-1.462-.953-2.035-1.625-4.15-1.18-6.811 2.224 2.924 4.068 5.639 6.501 7.918 6.184 5.785 13.14 10.352 20.968 13.503 8.163 3.279 16.245 6.865 25.281 7.201 4.213.155 8.417.618 12.604 1.281 13.067 2.052 25.417 5.984 36.622 13.149 1.853 1.189 2.289 1.099 3.142-.972.836-2.016 1.453-4.123 2.279-6.138.427-1.045.346-1.853-.299-2.77-2.207-3.151-4.759-5.966-7.555-8.572l.154-.164.854-.899c.09.082.19.146.281.209.073.055.154.109.218.173 3.596 3.214 6.166 6.138 8.1 9.189l.118.182c.263.39.463.708.309 1.153a55.834 55.834 0 0 0-.899 3.079c-.627 2.279-1.281 4.64-2.57 6.71-.109.164-.209.336-.318.518-.372.636-.763 1.289-1.298 1.616-.5.3-.754.037-1.199-.499-.236-.282-.472-.563-.781-.718a307.437 307.437 0 0 1-3.914-2.015c-3.941-2.044-8.018-4.159-12.286-5.74-7.927-2.933-16.264-4.976-24.772-6.084l-.69-.09c-1.871-.246-3.787-.5-5.721-.5-.745 0-1.48.036-2.225.127-1.162.146-2.388.018-3.996-.39-9.798-2.488-21.221-5.885-31.728-12.232-3.314-2.016-5.993-4.023-8.19-6.129-1.372-1.317-2.97-1.926-4.895-1.835-4.849.218-9.698.445-14.547.672l-11.088.518c-1.861.082-3.723.172-5.584.254-5.839.272-11.878.554-17.817.763-6.148.218-11.133.39-15.691.517l-.164-1.017v-.581l.018-.227c14.03-.581 28.069-1.353 42.099-1.943 1.434-.064 1.761-.409 1.443-1.862-3.859-17.816-4.376-35.75-1.825-53.785.209-1.48-.236-1.662-1.525-1.553-10.271.881-20.56 1.644-30.857 1.826-2.706.045-5.412.118-8.118.218v-.227l.027-1.054v-.227h.046c12.731-.517 25.462-1.235 38.193-1.752 2.016-.091 3.16-.645 3.188-2.788.009-.363.145-.727.227-1.099.735-3.614.735-3.56-2.906-3.505-12.84.191-25.69-.036-38.539-.291v-.227l.019-.862c.072-.327.136-.654.208-.981 6.52.036 13.14.136 19.551.236 4.604.073 9.217.145 13.83.191 2.27.027 4.577-.009 6.802-.037 3.968-.054 8.072-.118 12.104.137 1.389.072 2.715-.327 3.996-.718.454-.145.917-.29 1.371-.408 12.786-3.342 25.553-7.474 37.903-11.478 7.392-2.389 15.028-4.868 22.593-7.147 11.95-3.605 24.736-6.965 41.471-10.906 3.188-.754 5.53-.472 8.082.972.926.517 1.871 1.026 2.797 1.507.545.291 1.099.581 1.644.881Z"></path><path fill="#fff" d="M119.255 307.004c.318 1.453-.009 1.798-1.444 1.861-14.03.59-28.068 1.362-42.098 1.944l1.217-57.1c2.706-.1 5.412-.173 8.118-.218 10.297-.182 20.586-.944 30.856-1.825 1.29-.109 1.735.072 1.526 1.552-2.552 18.035-2.034 35.969 1.825 53.786Z"></path><path fill="#000" d="M115.995 242.865c3.641-.055 3.823.553 3.087 4.168-.081.372 0 .817 0 1.18-.027 2.143-1.298 3.233-3.314 3.324-12.731.517-37.058 2.724-40.055 1.434l1.462-9.716c12.85.254 25.971-.2 38.811-.39h.009Z"></path><path fill="#FD3" d="m77.212 240.96-.028 1.208-.018.862v.227h-.072c-.118 0-.245-.009-.363-.009.154-.781.317-1.543.48-2.288Z"></path><path fill="#fff" d="m76.969 253.301-1.217 58.798c-.164-.79-.282-.79-.409-.781-3.378-21.857-2.624-41.781-.409-57.581.69-.027 1.226-.418 2.044-.445l-.01.009Z"></path><path fill="#FD3" d="M75.714 311.299v.227l-.018.581-.027 1.253-.327-2.043c.127-.009.245-.009.372-.018Z"></path><path fill="#000" d="M275.092 265.867c-.055-.417-.118-.853-.127-1.289-.091-5.875-.691-11.805-1.263-17.544a570.651 570.651 0 0 1-.39-3.896c-.427-4.359-2.025-7.528-5.04-9.979-.39-.327-.599-.7-.672-1.254-.109-.753-.245-1.507-.381-2.27-.227-1.307-.463-2.66-.609-4.004-.145-1.417-.69-2.416-1.716-3.151-1.707-1.226-3.106-2.525-4.259-3.96-.926-1.144-2.216-1.48-3.632-.944-1.353.508-2.352 0-3.151-.563-1.371-.954-2.842-1.798-4.313-2.597-.545-.3-1.099-.59-1.644-.881-.926-.481-1.871-.99-2.797-1.507-2.552-1.444-4.894-1.726-8.082-.972-16.736 3.941-29.521 7.301-41.471 10.906-7.565 2.279-15.202 4.758-22.593 7.147-12.35 4.004-25.118 8.136-37.903 11.478a26.36 26.36 0 0 0-1.371.408c-1.281.391-2.607.79-3.996.718-4.032-.255-8.136-.191-12.105-.137-2.224.028-4.531.064-6.801.037a2351.2 2351.2 0 0 1-13.83-.191c-6.411-.1-13.03-.2-19.55-.236-.073.327-.137.654-.21.981-.063.29-.481 1.216-.535 1.507 13.639.272 26.697.336 39.283.145 1.798-.027 2.343 0 2.76.509.427.517.545.835.155 2.733-.028.154-.064.273-.091.391-.064.245-.127.481-.136.708-.028 2.37-1.381 2.915-3.406 3.006-6.365.254-12.84.572-19.096.871-6.257.309-12.732.618-19.097.881h-.055l-1.689.073-.154 1.044c.627-.027 1.235-.045 1.816-.063 3.133-.109 5.694-.182 8.118-.218 10.58-.191 21.077-.99 30.838-1.826.736-.063 1.245-.036 1.544.291.273.281.336.736.227 1.526-2.579 18.179-1.961 36.25 1.816 53.703.182.826.155 1.299-.09 1.625-.291.382-.836.473-1.562.509-6.902.291-13.912.627-20.704.953-7.01.346-14.275.7-21.413.99-.036.009-.063.009-.1.009l.091.572.164 1.017c4.558-.127 9.543-.299 15.691-.517 5.939-.209 11.978-.491 17.817-.763 1.861-.082 3.723-.172 5.584-.254l11.088-.518c4.849-.227 9.698-.454 14.547-.672 1.925-.091 3.523.518 4.895 1.835 2.197 2.106 4.876 4.113 8.19 6.129 10.507 6.347 21.93 9.744 31.728 12.232 1.608.408 2.834.536 3.996.39a18.24 18.24 0 0 1 2.225-.127c1.934 0 3.85.254 5.721.5l.69.09c8.508 1.108 16.844 3.151 24.772 6.084 4.268 1.581 8.345 3.696 12.286 5.74 1.299.681 2.606 1.353 3.914 2.015.309.155.545.436.781.718.445.536.699.799 1.199.499.535-.327.926-.98 1.298-1.616.109-.182.209-.354.318-.518 1.289-2.07 1.943-4.431 2.57-6.71.272-1.017.563-2.062.899-3.079.154-.445-.046-.763-.309-1.153l-.118-.182c-1.934-3.051-4.504-5.975-8.1-9.189-.064-.064-.145-.118-.218-.173-.091-.063-.191-.127-.281-.209-.246-.218-.445-.536-.309-1.117l.036-.172h.89a63.285 63.285 0 0 1 2.261.009l5.893.082c6.048.081 12.305.163 18.462.308 1.434.037 2.306-.436 2.978-1.634 1.744-3.051 3.687-5.884 5.539-8.482.427-.599.618-1.162.591-1.77-.118-2.906.163-5.839.426-8.663.155-1.698.318-3.442.4-5.167.182-3.941.427-7.946.663-11.814l.299-4.986v-13.848a6.935 6.935 0 0 0-.081-.554h-.009Zm-3.669 44.36c-.091 1.108-.445 2.079-1.117 3.033-1.244 1.789-2.679 3.923-3.959 6.12-.663 1.108-1.426 1.517-2.77 1.471h-.236c-8.581-.318-17.453-.645-26.161-.1-4.232.255-8.609.527-12.895.945-1.562.145-2.488-.273-3.333-1.499a82.017 82.017 0 0 0-4.613-6.102c-.508-.608-.708-1.108-.644-1.571.063-.481.399-.899 1.126-1.398 2.361-1.599 4.74-3.26 7.037-4.868l2.97-2.07.653-.436c.345-.218.7-.454 1.036-.708 2.224-1.689 3.868-1.807 6.293-.445 3.677 2.061 7.773 3.333 11.65 4.449 2.588.745 5.149 1.453 7.855 2.198 1.026.282 2.061.572 3.115.863-.137-.736-.627-.927-1.135-1.126-.118-.046-.237-.091-.345-.137-3.206-1.489-6.639-2.551-9.962-3.586-1.09-.346-2.179-.681-3.269-1.036-2.552-.835-5.258-1.77-7.81-3.269l-.163-.1.073-.181c.245-.654.799-.836 1.235-.99.136-.045.263-.082.381-.145 7.673-3.496 14.992-7.419 21.757-11.66 1.145-.717 1.235-.772 1.581-1.707-.4-.036-.7.181-1.027.399a6.796 6.796 0 0 1-.39.246c-7.01 3.85-14.566 7.854-22.302 11.114-9.063 3.805-17.299 6.766-25.172 9.045-9.671 2.806-17.263 4.268-24.618 4.749-13.022.854-24.055-1.862-33.735-8.291-2.107-1.398-4.004-3.096-5.839-4.749l-.272-.236-.146-.145c-.145-.146-.299-.3-.417-.3h-.009c-.055 0-.118.036-.191.109-.045.054-.109.136-.109.2.009.1.154.236.282.354.072.073.145.136.208.209 7.111 7.973 16.509 12.731 27.951 14.129 10.579 1.29 21.603.137 34.688-3.641 1.508-.427 2.443-.354 3.369 1.244 1.553 2.715 3.514 5.231 5.403 7.655 1.008 1.299 2.043 2.634 3.015 3.978.645.899 1.562 1.307 2.57 1.144 2.951-.482 5.975-.572 8.89-.654l.835-.027c.899-.028 1.571.199 2.198.744.427.373.835.754 1.235 1.126 3.015 2.806 5.512 5.639 7.582 8.609.69.971.79 1.861.327 2.978a67.2 67.2 0 0 0-1.108 2.997 59.68 59.68 0 0 1-1.171 3.151c-.427 1.026-.781 1.662-1.326 1.834-.1.027-.209.046-.318.046-.472 0-1.035-.3-1.834-.809-10.288-6.583-22.239-10.869-36.532-13.112-4.513-.717-8.626-1.135-12.577-1.28-8.299-.309-15.9-3.388-23.255-6.366-.7-.291-1.399-.572-2.098-.854-7.637-3.069-14.72-7.627-21.04-13.548-1.971-1.844-3.56-3.977-5.249-6.239a91.406 91.406 0 0 0-.953-1.271c-.273 2.461.427 4.404 1.244 6.139.209.454.39.962.163 1.325-.181.3-.554.436-1.244.464-4.222.163-8.754.354-13.285.653-1.353.1-1.725-.535-1.943-1.616-1.308-6.202-2.189-11.823-2.715-17.199-1.172-12.204-.972-24.917.59-37.785.173-1.444.454-2.878.726-4.259.228-1.198.473-2.424.636-3.641.064-.49.173-1.035.563-1.308.245-.172.563-.209.954-.118 4.422 1.045 8.626-.154 12.694-1.307 1.571-.445 3.197-.908 4.813-1.226 9.68-1.953 19.197-5.122 28.405-8.182 1.825-.608 3.659-1.217 5.485-1.816 21.394-7.001 43.569-13.276 65.926-18.661 1.307-.318 2.37-.209 3.568.354a119.942 119.942 0 0 1 5.758 2.951c.644.354 1.28.709 1.888 1.063.591.345 1.326.772 1.235 1.589-.091.79-.799.826-1.271.853-.145.01-.291.01-.418.037-12.749 2.969-25.353 6.356-39.328 10.152a3.455 3.455 0 0 0-.572.227c-.01 0-.028.009-.037.009.718.218 1.326.1 1.925-.018l.264-.054c9.653-1.817 19.333-4.232 28.695-6.575 2.161-.545 4.322-1.081 6.483-1.616 1.998-.5 4.05-.917 6.039-1.326 1.153-.236 2.316-.472 3.469-.717.89-.2 1.58.018 2.207.717l.354.381c.545.6 1.117 1.217 1.78 1.644 3.06 1.998 3.532 5.076 3.786 8.309.109 1.498-.899 1.598-1.634 1.671l-.209.018c-4.949.563-10.234 1.389-16.645 2.606a5007.62 5007.62 0 0 0-18.389 3.605 3.893 3.893 0 0 1-.354.064c-.363.045-.708.099-1.008.363 2.316.281 4.541-.064 6.702-.4l.808-.127c4.922-.744 9.907-1.58 14.729-2.388 2.851-.481 5.694-.963 8.545-1.426 1.444-.236 2.924-.427 4.35-.608.781-.1 1.552-.2 2.333-.309 1.181-.154 2.08.209 3.097 1.29 2.597 2.76 3.968 6.184 4.313 10.769 1.462 19.46 1.235 40.7-.69 64.946Z"></path><path fill="#ABA3FF" d="M99.851 282.865a5.7 5.7 0 0 0 5.703-5.702 5.701 5.701 0 0 0-5.703-5.703 5.701 5.701 0 0 0-5.703 5.703 5.7 5.7 0 0 0 5.703 5.702Z"></path><path fill="#1C1C1E" d="M97.218 266.375c-5.948 0-10.779 4.84-10.779 10.779s4.831 10.779 10.78 10.779c5.947 0 10.778-4.831 10.778-10.779 0-5.948-4.84-10.779-10.779-10.779Zm0 20.196c-5.194 0-9.416-4.223-9.416-9.417s4.222-9.417 9.416-9.417 9.417 4.232 9.417 9.417-4.223 9.417-9.417 9.417Z"></path><path stroke="#1C1C1E" stroke-width="1.5" d="m75.666 313.364-.326-2.044c-3.379-21.857-2.707-41.244-.49-57.045l.217-1.498a175.838 175.838 0 0 1 2.143-11.814"></path><path fill="#1C1C1E" d="M242.398 344.719c-5.839-10.079-16.872-12.604-23.755-9.171l-.409-.808c7.247-3.624 18.843-1.008 24.945 9.525l-.79.454h.009Z"></path></svg>