<svg width="540" height="540" fill="none" viewBox="87.11 107.13 369.092 325.539" xmlns="http://www.w3.org/2000/svg"><g clip-path="url(#a)"><path d="M541.67-1h-540v540h540V-1Z" style="fill: rgba(251, 247, 239, 0);"></path><path fill="#FFD233" d="M239.914 111.413 90 230.821l7.043 14.992 147.518-117.848-4.584-16.543-.063-.009Z"></path><path fill="#FD3" d="M451.999 131.374v-14.993l-212.022-4.958 4.584 16.543.081-.063 207.357 3.471Z"></path><path stroke="#1C1C1E" stroke-linecap="round" stroke-linejoin="round" stroke-width="1.5" d="m90 230.821 149.914-119.408 212.085 4.968v14.992l-207.357-3.471-147.599 117.92L90 230.821Z"></path><path fill="#F8C100" d="m97.044 245.823 186.759-15.939L452 131.374l-207.357-3.471-147.6 117.92Z"></path><path stroke="#1C1C1E" stroke-linecap="round" stroke-linejoin="round" stroke-width="1.5" d="m97.044 245.823 186.759-15.939L452 131.374l-207.357-3.471-147.6 117.92Z"></path><path fill="#FD3" d="M257.413 155.921c-43.069 18.031-71.538 48.07-67.521 57.68l39.421 94.345 155.957-65.289-38.35-91.865c-4.017-9.611-46.446-12.901-89.507 5.129Z"></path><path stroke="#1C1C1E" stroke-linecap="round" stroke-linejoin="round" stroke-width="1.5" d="M257.413 155.921c-43.069 18.031-71.538 48.07-67.521 57.68l39.421 94.345 155.957-65.289-38.35-91.865c-4.017-9.611-46.446-12.901-89.507 5.129Z"></path><path fill="#F8C100" d="M385.27 242.648c4.017 9.602-24.029 37.197-67.098 55.228-43.07 18.031-84.851 19.662-88.868 10.061-4.017-9.601 25.092-38.694 68.153-56.724 43.069-18.022 83.796-18.166 87.813-8.565Z"></path><path stroke="#1C1C1E" stroke-linecap="round" stroke-linejoin="round" stroke-width="1.5" d="M385.27 242.648c4.017 9.602-24.029 37.197-67.098 55.228-43.07 18.031-84.851 19.662-88.868 10.061-4.017-9.601 25.092-38.694 68.153-56.724 43.069-18.022 83.796-18.166 87.813-8.565ZM244.641 127.902l-4.728-16.489"></path><path fill="#FF8080" d="M206.94 137.674c-6.628 1.578-6.313.18-19.832 11.179l-50.193 38.495a24.74 24.74 0 0 0-9.124 19.194v220.045l30.856-25.585 30.866 25.576V177.143a42.428 42.428 0 0 1 6.8-23.043l10.627-16.426Z"></path><path fill="#FFB8B8" d="M189.513 177.142c0-1.415.072-2.822.216-4.228l-61.938 48.998v111.303l61.722-53.875V177.142Z"></path><path fill="#1C1C1E" d="m346.92 149.35 25.813 28.461-11.664 6.87-14.149-35.331ZM297.466 251.221s-35.432 12.207-60.74 40.109c5.187 9.926 46.78 1.92 73.655-9.962 26.605-11.765 59.335-31.03 59.335-44.806-36.017-2.74-72.25 14.659-72.25 14.659Z"></path><path stroke="#1C1C1E" stroke-linecap="round" stroke-linejoin="round" stroke-width="1.5" d="M206.94 137.674c-6.628 1.578-6.313.18-19.832 11.179l-50.193 38.495a24.74 24.74 0 0 0-9.124 19.194v220.045l30.856-25.585 30.866 25.576V177.143a42.428 42.428 0 0 1 6.8-23.043l10.627-16.426Z"></path></g><defs><clipPath id="a"><path fill="#fff" d="M0 0h540v540H0z"></path></clipPath></defs></svg>