<svg width="540" height="540" fill="none" viewBox="83.525 76.403 352.231 389.784" xmlns="http://www.w3.org/2000/svg"><path d="M0 0h540v540H0z" style="fill: rgba(251, 247, 239, 0);"></path><mask id="a" width="179" height="352" x="105" y="96" maskUnits="userSpaceOnUse" style="mask-type:alpha"><path fill="#746BD3" d="M283.977 96.436H105.055v351.046h178.922z"></path></mask><g mask="url(#a)"><path fill="#746BD3" stroke="#000" stroke-width="1.5" d="M123.295 265.126c0-81.221 68.045-145.497 149.239-145.894l-2.414 293.46c-81.158-.401-146.825-66.315-146.825-147.566ZM271.62 412.692l2.414-293.46c81.138.391 144.4 64.637 144.4 145.894 0 81.247-65.661 147.158-146.814 147.566Z"></path></g><path fill="#ABA3FF" stroke="#000" stroke-width="1.5" d="M431.303 265.732c0 80.835-65.531 146.365-146.367 146.365-80.837 0-146.368-65.53-146.368-146.365 0-80.836 65.531-146.366 146.368-146.366 80.836 0 146.367 65.53 146.367 146.366Z"></path><ellipse cx="284.938" cy="265.734" fill="#fff" rx="128.574" ry="128.573"></ellipse><mask id="b" width="291" height="238" x="95" y="71" maskUnits="userSpaceOnUse" style="mask-type:alpha"><path fill="#D9D9D9" d="M95.545 225.375 330.307 71.017l54.764 83.289-234.762 154.358z"></path></mask><g mask="url(#b)"><ellipse cx="285.41" cy="266.544" fill="#F2F0FF" rx="128.574" ry="128.573"></ellipse></g><mask id="c" width="290" height="238" x="189" y="231" maskUnits="userSpaceOnUse" style="mask-type:alpha"><path fill="#D9D9D9" d="m189.689 386.273 234.762-154.358 54.382 82.708L244.071 468.98z"></path></mask><g mask="url(#c)"><ellipse cx="284.836" cy="265.682" fill="#F2F0FF" rx="128.574" ry="128.573"></ellipse></g><path fill="#F0F0F3" d="M290.711 353.006c8.238 0 13.674 5.773 13.674 13.226 0 7.566-6.445 13.394-14.683 13.394-10.144 0-15.468-8.294-15.468-18.942 0-13.282 6.389-21.184 16.028-21.184 8.407 0 13.955 5.1 14.683 11.433h-7.789c-.505-2.578-3.083-4.484-6.613-4.484-4.82 0-8.182 4.54-8.463 10.704 1.569-2.409 5.324-4.147 8.631-4.147Zm-7.062 13.226c0 3.643 2.466 6.109 6.221 6.109 3.643 0 6.053-2.466 6.053-6.109 0-3.531-2.41-6.052-6.053-6.052-3.755 0-6.221 2.521-6.221 6.052Z"></path><path fill="#000" d="M304.945 350.933v.75a.752.752 0 0 0 .745-.836l-.745.086Zm-7.789 0-.737.144a.75.75 0 0 0 .737.606v-.75Zm-15.076 6.22-.749-.034a.75.75 0 0 0 1.378.444l-.629-.41Zm8.631-3.397c7.828 0 12.924 5.441 12.924 12.476h1.5c0-7.872-5.776-13.976-14.424-13.976v1.5Zm12.924 12.476c0 7.086-6.041 12.644-13.933 12.644v1.5c8.584 0 15.433-6.099 15.433-14.144h-1.5Zm-13.933 12.644c-4.842 0-8.487-1.968-10.941-5.183-2.473-3.239-3.777-7.799-3.777-13.009h-1.5c0 5.438 1.359 10.349 4.084 13.919 2.743 3.594 6.832 5.773 12.134 5.773v-1.5Zm-14.718-18.192c0-6.53 1.572-11.648 4.244-15.115 2.656-3.447 6.441-5.319 11.034-5.319v-1.5c-5.046 0-9.275 2.079-12.222 5.904-2.933 3.804-4.556 9.278-4.556 16.03h1.5Zm15.278-20.434c8.085 0 13.26 4.87 13.938 10.768l1.49-.171c-.778-6.767-6.699-12.097-15.428-12.097v1.5Zm14.683 9.933h-7.789v1.5h7.789v-1.5Zm-7.053.606c-.593-3.028-3.571-5.09-7.349-5.09v1.5c3.282 0 5.46 1.75 5.876 3.878l1.473-.288Zm-7.349-5.09c-5.41 0-8.924 5.075-9.212 11.42l1.499.068c.272-5.984 3.483-9.988 7.713-9.988v-1.5Zm-7.834 11.864c.687-1.056 1.892-2.013 3.357-2.709 1.459-.694 3.115-1.098 4.645-1.098v-1.5c-1.777 0-3.652.465-5.289 1.243-1.631.775-3.088 1.891-3.97 3.245l1.257.819Zm.19 8.669c0 1.995.679 3.724 1.926 4.954 1.246 1.23 3 1.905 5.045 1.905v-1.5c-1.71 0-3.066-.559-3.991-1.472-.925-.913-1.48-2.239-1.48-3.887h-1.5Zm6.971 6.859c1.995 0 3.71-.679 4.926-1.912 1.215-1.231 1.877-2.957 1.877-4.947h-1.5c0 1.653-.544 2.981-1.444 3.894-.9.911-2.212 1.465-3.859 1.465v1.5Zm6.803-6.859c0-1.939-.665-3.649-1.877-4.877-1.213-1.229-2.926-1.925-4.926-1.925v1.5c1.643 0 2.956.565 3.859 1.479.903.915 1.444 2.232 1.444 3.823h1.5Zm-6.803-6.802c-2.049 0-3.802.691-5.045 1.918-1.243 1.227-1.926 2.94-1.926 4.884h1.5c0-1.586.551-2.9 1.48-3.816.928-.917 2.286-1.486 3.991-1.486v-1.5Z"></path><path fill="#F0F0F3" stroke="#1C1C1E" stroke-width="1.5" d="M277.959 198.366h-6.303a1.142 1.142 0 0 1-1.153-1.128v-27.742c0-.436-.479-.705-.865-.487l-5.452 3.051c-.766.43-1.723-.115-1.723-.981v-5.57c0-.378.19-.73.511-.936l7.745-5.051c.19-.121.413-.192.642-.192h6.592c.635 0 1.153.506 1.153 1.128v36.78c0 .622-.518 1.128-1.153 1.128h.006ZM287.215 165.182c1.159-2.182 2.817-3.853 4.973-5.019 2.156-1.167 4.691-1.75 7.614-1.75 2.771 0 5.235.518 7.391 1.553 2.156 1.035 3.82 2.483 4.999 4.344 1.18 1.861 1.769 4.036 1.769 6.52 0 5.307-3.145 9.533-9.442 12.698l-6.178 3.158c-2.34 1.206-3.716 2.398-4.135 3.578a.58.58 0 0 0 .55.767h17.947c.636 0 1.154.517 1.154 1.153v5.032c0 .635-.518 1.153-1.154 1.153H286.9a1.156 1.156 0 0 1-1.153-1.14l-.046-5.124c-.039-2.745.852-5.143 2.667-7.194s3.885-3.657 6.211-4.823l6.409-3.217c2.994-1.428 4.495-3.44 4.495-6.035 0-1.69-.505-3.033-1.521-4.036-1.009-.996-2.398-1.494-4.16-1.494-1.874 0-3.329.695-4.358 2.09-.858 1.16-1.336 2.634-1.421 4.423a1.158 1.158 0 0 1-1.147 1.107h-6.172a1.157 1.157 0 0 1-1.154-1.212c.112-2.463.669-4.639 1.665-6.519v-.013Z"></path><path fill="#F0F0F3" d="M191.66 271.47c-8.238 0-13.674-5.772-13.674-13.226 0-7.565 6.445-13.394 14.683-13.394 10.144 0 15.468 8.295 15.468 18.943 0 13.281-6.389 21.183-16.028 21.183-8.407 0-13.955-5.099-14.683-11.432h7.79c.504 2.578 3.082 4.483 6.613 4.483 4.819 0 8.182-4.539 8.462-10.704-1.569 2.41-5.324 4.147-8.631 4.147Zm7.062-13.226c0-3.642-2.466-6.108-6.221-6.108-3.643 0-6.052 2.466-6.052 6.108 0 3.531 2.409 6.053 6.052 6.053 3.755 0 6.221-2.522 6.221-6.053Z"></path><path fill="#000" d="M177.426 273.544v-.75a.748.748 0 0 0-.745.836l.745-.086Zm7.79 0 .736-.144a.75.75 0 0 0-.736-.606v.75Zm15.075-6.221.749.034a.75.75 0 0 0-1.378-.443l.629.409Zm-8.631 3.397c-7.828 0-12.924-5.44-12.924-12.476h-1.5c0 7.872 5.776 13.976 14.424 13.976v-1.5Zm-12.924-12.476c0-7.086 6.041-12.644 13.933-12.644v-1.5c-8.584 0-15.433 6.099-15.433 14.144h1.5Zm13.933-12.644c4.842 0 8.487 1.968 10.942 5.184 2.472 3.239 3.776 7.799 3.776 13.009h1.5c0-5.439-1.359-10.349-4.084-13.92-2.743-3.593-6.832-5.773-12.134-5.773v1.5Zm14.718 18.193c0 6.53-1.572 11.648-4.244 15.114-2.656 3.447-6.441 5.319-11.034 5.319v1.5c5.046 0 9.275-2.078 12.222-5.903 2.933-3.805 4.556-9.279 4.556-16.03h-1.5Zm-15.278 20.433c-8.084 0-13.26-4.87-13.938-10.768l-1.49.172c.778 6.767 6.699 12.096 15.428 12.096v-1.5Zm-14.683-9.932h7.79v-1.5h-7.79v1.5Zm7.054-.606c.592 3.028 3.57 5.089 7.349 5.089v-1.5c-3.283 0-5.461-1.749-5.877-3.877l-1.472.288Zm7.349 5.089c5.409 0 8.923-5.075 9.211-11.42l-1.498-.068c-.272 5.984-3.483 9.988-7.713 9.988v1.5Zm7.833-11.863c-.687 1.055-1.892 2.013-3.357 2.709-1.459.693-3.115 1.097-4.645 1.097v1.5c1.777 0 3.652-.464 5.289-1.242 1.631-.775 3.088-1.891 3.97-3.246l-1.257-.818Zm-.19-8.67c0-1.995-.679-3.723-1.926-4.954-1.246-1.23-3-1.904-5.045-1.904v1.5c1.71 0 3.066.558 3.991 1.472.925.913 1.48 2.239 1.48 3.886h1.5Zm-6.971-6.858c-1.995 0-3.71.679-4.926 1.911-1.215 1.232-1.876 2.958-1.876 4.947h1.5c0-1.653.543-2.981 1.444-3.893.899-.911 2.211-1.465 3.858-1.465v-1.5Zm-6.802 6.858c0 1.94.664 3.65 1.876 4.878 1.213 1.229 2.926 1.925 4.926 1.925v-1.5c-1.643 0-2.956-.565-3.858-1.479-.904-.916-1.444-2.232-1.444-3.824h-1.5Zm6.802 6.803c2.049 0 3.802-.691 5.045-1.919 1.243-1.227 1.926-2.939 1.926-4.884h-1.5c0 1.587-.551 2.9-1.48 3.817-.928.916-2.286 1.486-3.991 1.486v1.5Z"></path><path fill="#D7D7D7" stroke="#000" stroke-width="1.5" d="M290.338 216.913v48.892a4.788 4.788 0 0 1-9.577 0v-48.892a4.789 4.789 0 0 1 9.577 0Z"></path><path fill="#D9D9D9" stroke="#000" stroke-width="1.5" d="M328.303 270.592h-39.288a4.789 4.789 0 0 1 0-9.577h39.288a4.789 4.789 0 1 1 0 9.577Z"></path><path fill="#8E8E8E" stroke="#000" stroke-width="1.5" d="M296.45 265.803c0 6.019-4.879 10.899-10.899 10.899-6.019 0-10.899-4.88-10.899-10.899 0-6.019 4.88-10.899 10.899-10.899 6.02 0 10.899 4.88 10.899 10.899Z"></path><path stroke="#000" stroke-width="1.5" d="M413.376 266.047c0 70.769-57.37 128.138-128.139 128.138s-128.139-57.369-128.139-128.138 57.37-128.138 128.139-128.138 128.139 57.369 128.139 128.138Z"></path><path fill="#F0F0F3" stroke="#1C1C1E" stroke-width="1.5" d="M372.904 284.365c-2.281-1.035-4.082-2.522-5.413-4.481-1.113-1.639-1.762-3.519-1.946-5.635-.059-.669.492-1.245 1.167-1.245h5.969c.59 0 1.061.439 1.153 1.009.203 1.284.813 2.319 1.835 3.099 1.271.976 2.876 1.468 4.816 1.468 1.939 0 3.597-.452 4.757-1.35 1.16-.904 1.736-2.143 1.736-3.722 0-1.579-.576-2.693-1.736-3.577-1.16-.885-2.746-1.324-4.757-1.324h-2.595a1.162 1.162 0 0 1-1.166-1.153v-4.633c0-.635.524-1.153 1.166-1.153h2.424c1.56 0 2.811-.419 3.761-1.264.951-.846 1.422-1.927 1.422-3.237 0-1.311-.511-2.366-1.539-3.152-1.029-.786-2.372-1.186-4.043-1.186-1.671 0-3.021.432-4.043 1.297-.819.695-1.324 1.671-1.514 2.942a1.157 1.157 0 0 1-1.14 1.003h-5.812c-.681 0-1.225-.577-1.166-1.245.177-2.038.806-3.84 1.887-5.406 1.291-1.88 2.994-3.322 5.098-4.337 2.11-1.016 4.396-1.521 6.867-1.521 2.47 0 4.92.479 7.011 1.435 2.09.957 3.735 2.254 4.927 3.886 1.199 1.632 1.795 3.427 1.795 5.379 0 1.802-.425 3.454-1.284 4.961a9.239 9.239 0 0 1-1.946 2.398c-.596.511-.445 1.448.229 1.841a9.167 9.167 0 0 1 2.942 2.693c1.141 1.618 1.711 3.473 1.711 5.576 0 2.477-.675 4.639-2.025 6.48-1.35 1.841-3.171 3.25-5.471 4.226-2.3.977-4.797 1.468-7.496 1.468-2.7 0-5.301-.518-7.581-1.546v.006Z"></path><path fill="#D6CCFF" stroke="#1C1C1E" stroke-linecap="round" stroke-linejoin="round" stroke-width="1.5" d="m315.353 444.282-35.773-17.2c-.918-.441-1.946.353-1.752 1.351l3.197 16.428c.042.216.026.439-.047.649l-5.173 14.683c-.357 1.016.665 1.975 1.655 1.55l37.863-16.207a.69.69 0 0 0 .028-1.254h.002Z"></path><path fill="#000" d="M269.973 445.15a.75.75 0 1 0 0-1.5v1.5Zm-.773.001.773-.001v-1.5l-.774.001.001 1.5Z"></path><path stroke="#000" stroke-linejoin="round" stroke-width="1.5" d="M269.831 444.401c-100.623 0-182.194-81.57-182.194-182.192 0-100.622 84.551-180.138 185.174-180.138"></path></svg>