<svg width="540" height="540" fill="none" viewBox="72.518 141.151 394.317 255.108" xmlns="http://www.w3.org/2000/svg"><path d="M0 0h540v540H0z" style="fill: rgba(251, 247, 239, 0);"></path><path fill="#443D8F" d="m371.195 147.193-13.735-2.047a18.607 18.607 0 0 0-8.426.199L86.7 216.985a14.615 14.615 0 0 0-8.834 6.849 14.607 14.607 0 0 0-1.404 11.091l23.421 85.638a14.604 14.604 0 0 0 9.967 10.147l8.543 1.278 10.746 1.522"></path><path fill="#ABA3FF" d="m146.851 329.569-12.684 3.461a14.606 14.606 0 0 1-17.94-10.238l-23.394-85.638a14.607 14.607 0 0 1 10.238-17.94l262.325-71.64a14.612 14.612 0 0 1 11.09 1.404 14.601 14.601 0 0 1 6.849 8.835l23.385 85.638a14.598 14.598 0 0 1-1.404 11.09 14.587 14.587 0 0 1-3.736 4.303 14.581 14.581 0 0 1-5.098 2.546l-31.938 8.725"></path><path fill="#746BD3" d="m271.159 214.557-67.346 18.392a9.25 9.25 0 0 0-6.478 11.353l.598 2.192a9.236 9.236 0 0 0 7.755 6.733 9.254 9.254 0 0 0 3.598-.254l67.345-18.393a9.251 9.251 0 0 0 6.478-11.352l-.598-2.193a9.249 9.249 0 0 0-11.352-6.478ZM206.295 270.505a10.4 10.4 0 0 1 7.085-6.696l88.357-24.127a10.372 10.372 0 0 1 11.719 15.169 10.374 10.374 0 0 1-6.283 4.854l-38.054 10.401"></path><path fill="#fff" d="m355.563 245.154 17.052-4.666a4.957 4.957 0 0 0 3.67-4.957 4.954 4.954 0 0 0-.563-2.128l-6.396-12.168s-5.436-10.256-15.974-7.584c0 0 3.697-6.433 2.003-12.63 0 0-1.957-9.894-13.138-6.84-11.18 3.053-7.837 12.566-7.837 12.566 1.694 6.207 8.154 9.858 8.154 9.858-10.392 3.035-9.893 14.66-9.893 14.66l.679 13.717a4.95 4.95 0 0 0 6.261 4.53l16.018-4.367-.036.009Z"></path><path fill="#FBF7EF" d="m164.5 270.114-11.96-40.572-37.22 9.776 13.364 44.686a.64.64 0 0 0 .545.452.636.636 0 0 0 .624-.335l11.579-21.056a1.44 1.44 0 0 1 1.894-.589l15.638 7.856"></path><path stroke="#1C1C1E" stroke-linecap="round" stroke-linejoin="round" stroke-width="1.5" d="m154.09 327.522-19.933 5.508a14.612 14.612 0 0 1-11.09-1.403 14.601 14.601 0 0 1-6.849-8.835l-23.385-85.638a14.607 14.607 0 0 1 10.238-17.94l262.325-71.64a14.612 14.612 0 0 1 11.09 1.404 14.601 14.601 0 0 1 6.849 8.835l23.385 85.638a14.598 14.598 0 0 1-1.404 11.09 14.587 14.587 0 0 1-3.736 4.303 14.581 14.581 0 0 1-5.098 2.546l-31.938 8.725"></path><path stroke="#1C1C1E" stroke-linecap="round" stroke-linejoin="round" stroke-width="1.5" d="m371.195 147.193-13.735-2.047a18.607 18.607 0 0 0-8.426.199L86.7 216.985a14.615 14.615 0 0 0-8.834 6.849 14.607 14.607 0 0 0-1.404 11.091l23.421 85.638a14.604 14.604 0 0 0 9.967 10.147l8.543 1.278 10.746 1.522"></path><path stroke="#1C1C1E" stroke-linecap="round" stroke-linejoin="round" stroke-width="1.5" d="m271.159 214.557-67.346 18.392a9.25 9.25 0 0 0-6.478 11.353l.598 2.192a9.236 9.236 0 0 0 7.755 6.733 9.254 9.254 0 0 0 3.598-.254l67.345-18.393a9.251 9.251 0 0 0 6.478-11.352l-.598-2.193a9.249 9.249 0 0 0-11.352-6.478ZM206.295 270.505a10.4 10.4 0 0 1 7.085-6.696l88.357-24.127a10.372 10.372 0 0 1 11.719 15.169 10.374 10.374 0 0 1-6.283 4.854l-38.054 10.401M355.563 245.154l17.052-4.666a4.957 4.957 0 0 0 3.67-4.957 4.954 4.954 0 0 0-.563-2.128l-6.396-12.168s-5.436-10.256-15.974-7.584c0 0 3.697-6.433 2.003-12.63 0 0-1.957-9.894-13.138-6.84-11.18 3.053-7.837 12.566-7.837 12.566 1.694 6.207 8.154 9.858 8.154 9.858-10.392 3.035-9.893 14.66-9.893 14.66l.679 13.717a4.95 4.95 0 0 0 6.261 4.53l16.018-4.367-.036.009ZM164.5 270.114l-11.96-40.572-37.22 9.776 13.364 44.686a.64.64 0 0 0 .545.452.636.636 0 0 0 .624-.335l11.579-21.056a1.44 1.44 0 0 1 1.894-.589l17.269 8.254"></path><path fill="#746BD3" d="m458.563 276.883-10.664-5.645a18.616 18.616 0 0 0-8.155-2.029H167.798a14.615 14.615 0 0 0-14.614 14.605v88.792a14.602 14.602 0 0 0 6.904 12.385l7.909 3.479"></path><path fill="#fff" d="M448.334 272.951H173.217a13.01 13.01 0 0 0-13.011 13.011v91.962a13.01 13.01 0 0 0 13.011 13.011h275.117a13.005 13.005 0 0 0 9.2-3.811 13.005 13.005 0 0 0 3.811-9.2v-91.962a13.01 13.01 0 0 0-13.011-13.011Z"></path><path fill="#ABA3FF" d="M338.17 312.752h-69.81a9.243 9.243 0 0 0-9.242 9.241v2.275a9.24 9.24 0 0 0 9.242 9.241h69.81a9.236 9.236 0 0 0 6.534-2.707 9.236 9.236 0 0 0 2.707-6.534v-2.275a9.24 9.24 0 0 0-9.241-9.241Z"></path><path fill="#B2D2FF" d="M239.684 298.818a7.13 7.13 0 0 0-9.622 2.908l-23.502 43.327-13.7-23.403a7.11 7.11 0 0 0-12.53 6.714l20.177 34.52a7.135 7.135 0 0 0 4.938 3.624h.209c.149.029.301.05.453.063H207.475c.152-.012.303-.033.453-.063h.208a7.1 7.1 0 0 0 4.938-3.624l29.519-54.362a7.132 7.132 0 0 0-2.918-9.704h.009Z"></path><path fill="#ABA3FF" d="M362.225 345.026H268.36a9.243 9.243 0 0 0-9.242 9.242v2.274a9.243 9.243 0 0 0 9.242 9.242h93.865a9.243 9.243 0 0 0 9.241-9.242v-2.274a9.242 9.242 0 0 0-9.241-9.242ZM411.549 364.486h17.677a4.962 4.962 0 0 0 4.833-3.833 4.97 4.97 0 0 0 .014-2.201l-2.963-13.427s-2.582-11.344-13.409-11.534c0 0 5.255-5.228 5.255-11.661 0 0 .725-10.057-10.873-10.057-11.597 0-10.872 10.057-10.872 10.057 0 6.433 5.255 11.661 5.255 11.661-10.872.19-13.409 11.534-13.409 11.534l-2.963 13.409a4.957 4.957 0 0 0 .975 4.175 4.95 4.95 0 0 0 1.721 1.368c.668.322 1.4.49 2.142.491l16.617.018Z"></path><path stroke="#1C1C1E" stroke-linecap="round" stroke-linejoin="round" stroke-width="1.5" d="M448.334 272.951H173.217a13.01 13.01 0 0 0-13.011 13.011v91.962a13.01 13.01 0 0 0 13.011 13.011h275.117a13.005 13.005 0 0 0 9.2-3.811 13.005 13.005 0 0 0 3.811-9.2v-91.962a13.01 13.01 0 0 0-13.011-13.011Z"></path><path stroke="#1C1C1E" stroke-linecap="round" stroke-linejoin="round" stroke-width="1.5" d="M452.737 273.45c-3.996-3.235-10.057-4.222-12.975-4.222H167.798a14.615 14.615 0 0 0-14.614 14.605v88.791a14.602 14.602 0 0 0 6.904 12.367l6.75 4.277"></path><path stroke="#1C1C1E" stroke-linecap="round" stroke-linejoin="round" stroke-width="1.5" d="M338.17 312.752h-69.81a9.243 9.243 0 0 0-9.242 9.241v2.275a9.24 9.24 0 0 0 9.242 9.241h69.81a9.236 9.236 0 0 0 6.534-2.707 9.236 9.236 0 0 0 2.707-6.534v-2.275a9.24 9.24 0 0 0-9.241-9.241ZM239.684 298.818a7.13 7.13 0 0 0-9.622 2.908l-23.502 43.327-13.7-23.403a7.11 7.11 0 0 0-12.53 6.714l20.177 34.52a7.135 7.135 0 0 0 4.938 3.624h.209c.149.029.301.05.453.063H207.475c.152-.012.303-.033.453-.063h.208a7.1 7.1 0 0 0 4.938-3.624l29.519-54.362a7.132 7.132 0 0 0-2.918-9.704h.009ZM362.225 345.026H268.36a9.243 9.243 0 0 0-9.242 9.242v2.274a9.243 9.243 0 0 0 9.242 9.242h93.865a9.243 9.243 0 0 0 9.241-9.242v-2.274a9.242 9.242 0 0 0-9.241-9.242ZM411.549 364.486h17.677a4.962 4.962 0 0 0 4.833-3.833 4.97 4.97 0 0 0 .014-2.201l-2.963-13.427s-2.582-11.344-13.409-11.534c0 0 5.255-5.228 5.255-11.661 0 0 .725-10.057-10.873-10.057-11.597 0-10.872 10.057-10.872 10.057 0 6.433 5.255 11.661 5.255 11.661-10.872.19-13.409 11.534-13.409 11.534l-2.963 13.409a4.957 4.957 0 0 0 .975 4.175 4.95 4.95 0 0 0 1.721 1.368c.668.322 1.4.49 2.142.491l16.617.018Z"></path></svg>