<svg xmlns:xlink="http://www.w3.org/1999/xlink" xmlns="http://www.w3.org/2000/svg" width="605" height="452" fill="none"><path fill="#F8C100" stroke="#1C1C1E" stroke-linecap="round" stroke-linejoin="round" d="M164.128 128v67.359c0 24.891-5.27 44.438-15.667 58.782-9.97 13.5-26.634 25.734-49.993 36.281l-3.846 1.687L35.228 308l3.846-1.688c20.624-9.309 36.035-19.94 46.219-31.598a74.603 74.603 0 0 0 3.774-4.683c5.897-8.142 10.156-17.972 12.719-29.489 1.966-8.775 2.949-18.534 2.949-29.292v-67.373L164.128 128ZM164.128 128l-59.407 15.877H16L75.38 128h88.748Z"></path><path fill="#FFDD33" stroke="#1C1C1E" stroke-linecap="round" stroke-linejoin="round" d="M104.721 143.875v67.374c0 10.757-.983 20.517-2.948 29.292-2.564 11.517-6.823 21.347-12.72 29.489a74.603 74.603 0 0 1-3.774 4.683c-10.184 11.658-25.595 22.289-46.22 31.598l-3.845 1.688L16 272.139c15.668-7.312 26.492-14.484 32.474-21.656 5.983-7.172 9.259-15.609 9.97-25.453H16v-81.155h88.721Z"></path><path fill="#F8C100" stroke="#1C1C1E" stroke-linecap="round" stroke-linejoin="round" d="M284 128v67.359c0 24.891-5.27 44.438-15.667 58.782-9.971 13.5-26.635 25.734-49.994 36.281l-3.846 1.687L155.099 308l3.846-1.688c20.624-9.309 36.035-19.94 46.219-31.598a74.628 74.628 0 0 0 3.774-4.683c5.897-8.142 10.156-17.972 12.72-29.489 1.965-8.775 2.948-18.534 2.948-29.292v-67.373L284 128Z"></path><path fill="#F8C100" stroke="#1C1C1E" stroke-linecap="round" stroke-linejoin="round" d="m284 128-59.394 15.877H135.87L195.265 128H284Z"></path><path fill="#FFDD33" stroke="#1C1C1E" stroke-linecap="round" stroke-linejoin="round" d="M224.606 143.875v67.374c0 10.757-.983 20.517-2.949 29.292-2.563 11.517-6.822 21.347-12.719 29.489a74.628 74.628 0 0 1-3.774 4.683c-10.184 11.658-25.595 22.289-46.219 31.598l-3.847 1.688-19.228-35.86c15.668-7.312 26.493-14.484 32.475-21.656 5.982-7.172 9.258-15.609 9.97-25.453H135.87v-81.155h88.736Z"></path><path fill="#FFE564" d="M135.87 144.573v80.584l34.704-.795 32.651-79.789H135.87ZM136.733 272.391l8.689 16.172 10.967-26.859c-5.412 3.515-11.964 7.031-19.656 10.687ZM89.052 269.876c10.398-14.343 15.668-33.89 15.668-58.78l-.717-64.818-64.757 159.241c23.358-10.687 39.836-22.002 49.806-35.643Z"></path><path stroke="#1C1C1E" stroke-linecap="round" stroke-linejoin="round" d="M104.721 143.875v67.374c0 10.757-.983 20.517-2.948 29.292-2.564 11.517-6.823 21.347-12.72 29.489a74.565 74.565 0 0 1-3.774 4.683c-10.184 11.658-25.595 22.289-46.22 31.598l-3.845 1.688L16 272.139c15.668-7.312 26.492-14.484 32.474-21.656 5.983-7.172 9.259-15.609 9.97-25.453H16v-81.155h88.721ZM224.606 143.875v67.374c0 10.757-.983 20.517-2.949 29.292-2.563 11.517-6.822 21.347-12.719 29.489a74.628 74.628 0 0 1-3.774 4.683c-10.184 11.658-25.595 22.289-46.219 31.598l-3.847 1.688-19.228-35.86c15.668-7.312 26.493-14.484 32.475-21.656 5.982-7.172 9.258-15.609 9.97-25.453H135.87v-81.155h88.736Z" fill="none"></path></svg>