<svg width="540" height="540" fill="none" viewBox="113.309 53.741 336.043 409.209" xmlns="http://www.w3.org/2000/svg"><path d="M0 0h540v540H0z" style="fill: rgba(251, 247, 239, 0);"></path><path fill="#FD3" d="m298.61 456.007-3.059.517-.981-1.097 32.366-70.948 1.668 5.387-30.145 64.527.151 1.614ZM384.799 347.165l57.391-11.817 2.462-.473 1.034 1.026-1.337 3.184-1.196-.17-57.177 12.281-1.177-4.031Z"></path><path fill="#F0F5FF" d="m116.582 337.443 150.734 120.536-138.596-20.433-12.138-100.103ZM330.622 386.361l-32.161 68.032.152 1.614 101.119-22.814 43.425-94.279-60.308 12.566-52.227 34.881Z"></path><path fill="#FFE771" d="M383.199 232.577c1.552 2.479 1.355 5.11.918 7.58-1.034 5.762-1.944 11.648-2.818 17.338l-.785 5.075c-.348 2.23-.678 4.504-.963 6.511l-.036.24c-.347 2.399-.704 4.879-1.097 7.296-.196 1.257-.107 2.452-.017 3.603l.026.437c.241 3.104.437 6.234.634 9.266.151 2.346.303 4.692.463 7.046.455 6.35.972 13.548 1.534 20.709.161 1.989.33 3.978.5 5.958l.187 2.149c.321 3.666.731 8.241 1.026 12.584.196 2.935 1.061 5.717 1.908 8.402l.125.392c.303.981.624 1.989.901 2.988.776 2.899 1.561 5.797 2.345 8.687 1.151 4.218 2.507 9.213 3.862 14.332.196.731.446 1.275.955 1.552.392.205.882.205 1.48-.009.018-.009.036-.009.054-.009.107 0 .223.009.338-.009 2.194-.348 3.47.232 4.683 2.149 5.217 8.215 10.105 17.133 14.412 24.999l.214.393c-.553-.874-.57-.58.732 1.329 0 .009.009.009.009.018.954 1.89-1.32.312-.643 1.872-7.509-11.371-5.77-9.23-10.996-18.907-1.24-2.31-2.524-4.566-3.951-7.064-.473-.838-.955-1.676-1.436-2.533l-.482-.838-.508.669c-1.837 2.39-4.433 3.505-6.948 4.575l-.187.089c-.642.277-1.302.553-1.935.857l-.393-.821c.607-.285 1.204-.571 1.802-.856 1.73-.829 2.417-2.328 1.917-4.236-.285-1.106-.579-2.212-.874-3.327l-.339-1.275c-.918-3.452-1.873-7.028-2.72-10.551-1.159-4.888-2.898-9.409-4.45-13.191-.482-1.177-.785-2.31-.901-3.469-1.311-11.684-2.247-23.965-3.077-34.801l-.143-1.792c-.472-6.065-.954-12.335-1.498-18.48-.597-6.653-.312-13.36.856-20.504.999-6.073 1.918-12.281 2.81-18.283l.142-.936c.66-4.495 1.258-8.464 1.829-12.148a4.103 4.103 0 0 0-.304-2.372c-6.145-13.726-11.032-28.37-14.938-44.763-.437-1.837-1.445-2.247-2.828-2.31l-.499-.017c-2.346-.116-4.762-.232-7.046-.758-.642-.143-1.373-.268-1.837.169-.392.383-.383.963-.241 1.784a464.16 464.16 0 0 1 1.124 6.822l.25 1.561c.187 1.124.365 2.257.553 3.389 1.801 10.712 4.236 20.04 7.429 28.513.303.803.624 1.534.981 2.212-.491-.669-.972-1.4-1.445-2.194l-.767.455-.597.089a4.75 4.75 0 0 0-.277-1.115c-4.557-11.755-7.367-24.829-8.606-39.991-.161-1.819-.232-2.943.08-3.255.312-.321 1.472-.241 3.22-.125.775.053 1.551.089 2.327.134l.848.035c2.39.116 5.11.232 7.696.687.616.107.75.294.865.883 3.229 15.429 8.58 30.422 13.378 43.059.214.562.544 1.079.857 1.579l.312.473Z"></path><path fill="#FFE771" d="m414.776 403.566-.714-1.294c.188.304.438.741.714 1.294Z"></path><path fill="#FFE771" d="m414.064 402.272.713 1.294c-1.302-1.909-1.284-2.203-.731-1.329v.018s.018.009.018.017ZM320.564 223.232c1.721-.018 3.255-.669 4.317-1.846a5.35 5.35 0 0 0 1.23-2.328c.152-.25.304-.508.446-.776l.785.419c-.446.83-.919 1.57-1.436 2.203a.802.802 0 0 0-.321.107 4.026 4.026 0 0 0-.589.446c-2.185 2.132-4.771 2.622-7.901 1.534a18.589 18.589 0 0 1-7.59-5.039c-.072-.071-.134-.16-.205-.258-.223-.286-.509-.66-1.017-.874a80.756 80.756 0 0 1-2.471-2.73l.678-.579c.277.321.544.624.812.927a8.721 8.721 0 0 0 1.07 1.722c1.614 1.997 3.122 3.424 4.745 4.477 1.998 1.284 4.432 2.595 7.349 2.595h.098ZM345.009 348.225a214.986 214.986 0 0 1-1.49-5.413c-.071-.268-.143-.535-.214-.812-.071-.276-.143-.544-.214-.812-.883-3.478-1.373-5.779-1.391-5.859a.45.45 0 0 1 .348-.526.457.457 0 0 1 .526.348c0 .017.027.107.062.285-.062 1.186.027 2.408.375 3.63.58 2.024 1.07 3.835 1.525 5.494l.071.258c2.373 8.58 3.675 13.307 8.821 23.233.392.758.794 1.543 1.177 2.346l.089.161s.036.062.054.089l-.009.009c-.063.026-.098.035-.098.044-.045-.044-.116-.187-.17-.276-.098-.214-.205-.411-.321-.625-4.209-7.589-6.403-12.789-8.232-18.568-.053-.143-.089-.277-.125-.402-.124-.401-.24-.784-.356-1.168-.152-.49-.295-.963-.428-1.436ZM298.577 217.897l-.473.357c-3.701 2.8-6.813 3.113-9.721 1.793-.169-.081-.339-.161-.508-.25-.17-.089-.33-.187-.5-.285-.16-.09-.321-.197-.481-.295a7.463 7.463 0 0 1-.482-.321c-1.641-1.186-3.255-2.854-4.896-4.843l-1.311-1.569.044.276a45.11 45.11 0 0 1-1.632-2.283l.74-.499a39.47 39.47 0 0 0 1.267 1.792 24.975 24.975 0 0 0 3.023 4.228c1.409 1.587 2.899 2.729 4.567 3.496 1.373.633 2.72.954 3.995.954 1.944 0 3.71-.722 5.271-2.158.303-.277.535-.553.705-.856.24-.25.481-.509.722-.794l.687.571c-.286.33-.571.642-.856.936l-.161-.25Z"></path><path fill="#FFE771" d="M281.514 214.054c1.641 1.989 3.255 3.657 4.896 4.843-2.408-1.65-4.539-4.014-6.162-6.136l-.045-.277 1.311 1.57ZM310.672 247.188c.312-1.311.045-2.408-.232-3.514l-.026-.116a21.015 21.015 0 0 1-.17-.713c-1.802-9.231-3.594-18.846-4.861-28.701l.428-.053a80.686 80.686 0 0 0 2.471 2.729 1.698 1.698 0 0 0-.392-.143l-.553-.134-.17.723c-.062.16-.125.348-.089.571l.383 2.31a1017.25 1017.25 0 0 0 2.248 13.449l.241 1.373c1.159 6.698 2.479 14.297 4.325 21.592.027.072.036.143.063.259.142.589.348 1.472 1.578 1.641 3.844.526 7.76 1.097 11.648 1.721l-.098.714a740.27 740.27 0 0 1-12.772-1.855c-5.618-.865-11.362-1.962-17.56-3.371-.081-.018-.143-.036-.205-.036-4.085-.838-5.94-1.391-6.779-1.713.143-.017.277-.026.411-.035h2.595l4.156 1.017.919.205c3.754.838 7.465 1.543 9.926 1.997.508.09 1.079.152 1.436-.231.348-.384.268-.919.134-1.392a207.86 207.86 0 0 1-.99-3.879c-.732-2.979-1.57-6.359-2.845-9.534-2.176-5.343-3.63-11.033-5.021-16.527l-.054-.196a282.738 282.738 0 0 0-1.186-4.62 5.638 5.638 0 0 1-.089-.401l-.045-.196c-.098-.544-.223-1.16-.589-1.722l-.169-.258c.285-.295.571-.607.856-.937l.357-.089c2.462 9.721 5.601 19.639 9.365 29.619.035.098.098.178.142.259l.883 1.667.33-1.48ZM320.159 223.963c-2.631 0-5.61-1.445-8.999-4.397a18.573 18.573 0 0 0 5.931 3.425c3.131 1.088 5.717.598 7.902-1.534.196-.187.41-.33.589-.446a.793.793 0 0 1 .321-.107c-1.418 1.802-3.095 2.81-4.977 3.024-.25.026-.508.035-.767.035Z"></path><path fill="#FFE771" d="m364.024 232.427 1.481 1.221c.071.054.142.116.214.179 2.631 3.032 5.529 4.477 8.954 4.477.803 0 1.641-.08 2.506-.241l-.071-.374c.142-.045.223-.072.276-.098-.027 0-.053 0-.08.008l-.205.027-.08-.437c-4.781.865-8.393-.74-11.711-5.324a19.875 19.875 0 0 1-.981-2.212c-3.193-8.473-5.627-17.802-7.429-28.513-.187-1.133-.366-2.265-.553-3.389l-.25-1.561c-.383-2.417-.74-4.611-1.123-6.823-.143-.82-.152-1.4.241-1.783.463-.437 1.195-.312 1.837-.17 2.283.526 4.7.642 7.045.758l.5.018c1.382.063 2.39.473 2.827 2.31 3.906 16.393 8.794 31.037 14.939 44.763.339.785.437 1.534.303 2.372-.571 3.684-1.168 7.652-1.828 12.147l-.143.937c-.892 6.002-1.81 12.209-2.809 18.283-1.169 7.144-1.454 13.851-.857 20.504.545 6.145 1.026 12.415 1.499 18.479l.143 1.793c.829 10.836 1.765 23.117 3.076 34.801.116 1.159.42 2.292.901 3.469 1.552 3.781 3.291 8.303 4.451 13.191.847 3.522 1.801 7.099 2.72 10.55l.339 1.276c.294 1.115.588 2.22.874 3.326.499 1.909-.188 3.407-1.918 4.237-.597.285-1.195.57-1.801.856-8.75 4.156-18.025 8.508-27.505 12.486l-.767.321c-7.867 3.291-15.983 6.689-24.393 8.892a3.402 3.402 0 0 1-.838.125c-.286 0-.526-.063-.74-.187-.446-.286-.607-.812-.723-1.347-1.9-9.115-3.799-16.473-5.993-23.171l-.036-.107c-.16-.517-.33-1.052.027-1.382a.609.609 0 0 1 .651-.134c.169.053.33-.009.696-.214.437-.25 1.177-.669 2.033-.036.74.544 1.57 1.017 2.426 1.49-.116-.143-.259-.286-.419-.446-4.736-4.888-10.435-9.044-16.928-12.362-7.393-3.772-15.045-6.894-22.769-9.275-1.766-.553-2.872-1.391-3.701-2.8-8.794-14.903-19.496-30.404-33.659-48.785-2.649-3.416-5.869-6.796-9.846-10.337-.776-.687-1.115-1.365-.214-2.417.597-.696 1.23-1.391 1.837-2.06 1.57-1.721 3.157-3.461 4.343-5.432.161-.258.384-.57.758-.588.384-.036.616.276.723.41.053.071.089.116.134.161.258.249.775.454 1.489.579 5.949 1.017 10.568 4.272 14.1 9.953 1.311 2.105 3.006 4.112 4.495 5.878l.339.41c.526.642 1.061 1.275 1.57 1.927 2.782 3.424 6.038 5.351 10.56 6.243 18.345 3.603 32.249 12.789 41.311 27.282 2.559 4.093 4.762 7.777 6.724 11.264l.107.223c.098.196.152.285.179.33.009-.009.017-.009.026-.009l.054-.036s-.08-.169-.205-.419l-1.097-2.007c-3.639-6.653-7.376-13.485-12.486-19.237-6.912-7.75-15.653-12.995-26.721-16.027-.9-.259-1.694-.687-2.408-1.061-.793-.41-1.534-.794-2.345-.99-.517-.107-.723-.393-.803-.607-.134-.33-.053-.686.214-1.079 1.133-1.703 1.017-3.594.892-5.601a20.253 20.253 0 0 1-.071-1.391c-.054-2.14-.143-4.245-.25-6.582-.125-2.658-.232-5.253-.268-7.795-.062-3.362-.258-6.76-.454-10.051v-.232a260.169 260.169 0 0 1-.214-3.79c-.045-.179-.072-.491-.09-.937-.124-3.773-1.596-16.901-2.809-27.255a12.176 12.176 0 0 1-.455-2.337l-.348-3.425c-.481-4.869-.927-9.257-1.436-13.645-.223-1.909-.553-3.844-.9-5.895l-.081-.509c-.16-.945-.33-1.926-.49-2.961l-.286-1.739c1.624 2.123 3.755 4.486 6.163 6.136.161.116.321.223.482.321.16.116.321.214.481.294.161.107.33.206.5.286.169.089.339.169.508.25 1.169.57 2.382.927 3.63.998.143.009.286.009.428.009 2.257 0 4.37-.981 6.297-2.907l.169.259c.366.561.491 1.177.589 1.721l.044.196c.027.134.054.268.09.401.356 1.347.74 2.819 1.186 4.62l.053.196c1.392 5.494 2.845 11.184 5.022 16.527 1.275 3.175 2.113 6.555 2.845 9.534.294 1.195.633 2.542.99 3.879.133.473.214 1.008-.134 1.392-.357.383-.928.321-1.436.232-2.462-.455-6.172-1.16-9.927-1.998l-.918-.205-4.156-1.026h-2.596c-.133.018-.267.027-.41.045.838.321 2.694.874 6.778 1.712.063 0 .125.018.205.036 6.199 1.409 11.942 2.506 17.561 3.371 4.37.678 8.678 1.293 12.772 1.855 3.371.455 6.591.883 9.56 1.266 4.21.553 8.491 1.035 12.683 1.499.856.098 1.712.187 2.559.285l1.962.214c1.026.116 1.24.803 1.383 1.267.036.107.071.196.098.294 1.427 3.657.419 7.206-.473 10.328-3.853 13.378-7.456 28.12-11.023 45.066a429.582 429.582 0 0 0-1.793 9.221c-.25 1.356-.508 2.721-.767 4.085-.107.526-.062 1.097.134 1.846l.874 3.309c.143.553.285 1.088.428 1.614.071.268.143.536.214.812.063.259.134.535.214.812.428 1.641.928 3.469 1.49 5.413.133.482.276.963.428 1.436.116.393.232.785.356 1.169.036.124.072.258.125.401 2.275 7.376 5.36 15.599 8.901 20.602a.44.44 0 0 0 .366.187.466.466 0 0 0 .258-.08.45.45 0 0 0 .099-.624c-7.046-9.962-12.281-33.062-12.906-35.88.072-1.605.411-3.148.714-4.593l.116-.553a1032.108 1032.108 0 0 1 10.479-44.718 521.43 521.43 0 0 0 1.052-4.183l.018-.098c.785-3.122 1.588-6.35 2.542-9.481 1.677-5.467 2.435-11.193 3.166-16.731l.143-1.079c.08-.607.16-1.222.25-1.828.731-5.405 1.578-11.015 2.319-15.965l.026-.196c.072-.482.25-.919.446-1.356.134-.312.286-.669.268-.865l-.152-1.364Z"></path><path fill="#FFE771" d="M309.501 217.951c.526.58 1.079 1.115 1.659 1.614a44.103 44.103 0 0 1-2.881-2.747c.509.214.794.589 1.017.874.071.098.134.188.205.259ZM330.266 218.851c.347-1.391-.17-2.435-.714-3.371l.491-.286c.463.544.918 1.088 1.355 1.624l-.053.927a75.935 75.935 0 0 1-.098 1.597l-.054.749c-.071 1.15-.143 2.247-.16 3.317-.072 4.165-.099 8.384-.125 12.469v.472c-.063 9.088.365 16.42 1.337 23.073.143.945.464 1.552 1.624 1.694 5.092.678 10.292 1.41 15.875 2.239l-.036.303c-4.192-.464-8.473-.945-12.682-1.498-2.97-.384-6.19-.812-9.561-1.267l.098-.713c.125.018.277.036.419.036.313 0 .562-.081.758-.25.339-.285.384-.731.384-1.168-.009-2.266.071-4.594.143-6.841l.017-.428c.215-5.806.437-11.808-.793-17.793-.571-2.8-.937-5.69-1.285-8.49v-.098c-.16-1.24-.321-2.489-.49-3.72l-.063-.401-.544-.098s-.116-.027-.205-.027c.518-.633.99-1.373 1.436-2.203l.607-.071c.062.455.107.91.16 1.373.134 1.178.268 2.328.5 3.55l.686 3.603.42-3.647c.053-.518.089-.999.133-1.472l.027-.294c.089-1.071.17-1.998.393-2.89Z"></path><path fill="#FFE771" d="m325.736 159.882.179.035c1.926.366 3.897.812 5.752 1.231l1.329.294c.723.161 1.454.322 2.185.482.5.107.687.232.803.803 3.068 15.349 7.59 30.617 13.824 46.698.892 2.247.856 4.905.829 7.045-.035 2.578.384 5.191.758 7.492l.107.669c.116.749.232 1.507.33 2.265.357 2.721.741 5.45 1.115 8.17l.045.339c.883 6.368 1.882 13.601 2.622 20.646.089.874.205 1.748.312 2.614l.018.133a80.4 80.4 0 0 1 .267 2.123l.018.196c.045.402.152 1.32 1.106 1.32.286-.009.526-.107.696-.294.321-.339.294-.821.276-1.07v-.214c.491-6.342 1.142-11.969 1.98-17.187.633-3.888 1.374-7.839 2.141-11.888a4.935 4.935 0 0 0 .071-1.57l.598-.089c.847 1.427 1.721 2.658 2.622 3.701-.072-.062-.143-.125-.214-.178l-1.481-1.222.152 1.364c.018.197-.134.553-.268.866-.196.437-.374.874-.446 1.355l-.026.196c-.741 4.95-1.588 10.56-2.319 15.965-.09.606-.17 1.222-.25 1.828l-.143 1.079c-.731 5.539-1.489 11.265-3.166 16.732-.954 3.13-1.757 6.359-2.542 9.48l-.017.098a555.303 555.303 0 0 1-1.053 4.183 1032.454 1032.454 0 0 0-10.479 44.718l-.116.553c-.303 1.445-.642 2.988-.714 4.593-.035-.178-.062-.267-.062-.285a.457.457 0 0 0-.526-.348c-.241.054-.402.294-.348.526.018.08.508 2.381 1.391 5.86-.143-.526-.285-1.062-.428-1.615l-.874-3.308c-.196-.749-.241-1.32-.134-1.846.259-1.365.518-2.73.767-4.085a428.464 428.464 0 0 1 1.793-9.222c3.567-16.946 7.17-31.688 11.023-45.066.892-3.122 1.9-6.671.473-10.328-.027-.098-.062-.187-.098-.294-.143-.464-.357-1.151-1.383-1.267l-1.962-.214c-.847-.098-1.703-.187-2.559-.285l.035-.303c.241.035.42.044.58.044 1.186 0 1.944-.588 2.372-1.864.509-1.489.794-3.059.866-4.798.116-3.442-.375-6.867-.848-10.185a141.98 141.98 0 0 1-.508-3.728c-.375-3.077-.821-6.207-1.249-9.231l-.107-.713c-.874-6.181-1.792-12.567-2.122-18.917l-.036-.802c-.08-1.847-.169-3.764-.936-5.619-5.459-13.155-9.633-26.747-12.406-40.419-.419-2.052-1.597-3.416-3.496-4.049a174.887 174.887 0 0 0-8.304-2.533c-.883-.25-1.444-.241-1.89.062-.518.357-.66.972-.741 1.855-.633 7.385-.347 14.948.883 23.126 1.722 11.541 5.03 21.503 10.114 30.448-.392-.472-.785-.936-1.195-1.418l-.678.58-.49.286c-.054-.099-.116-.188-.17-.286l-.053-.089c-.125-.214-.339-.607-.758-.714a.931.931 0 0 0-.723.116c-.499.295-.499 1.053-.419 1.356.25.901.401 1.819.517 2.765l-.606.071-.785-.419c-.143.268-.294.526-.446.776a5.951 5.951 0 0 0 .152-1.998 256.89 256.89 0 0 1-.232-2.872l-.125-1.632c-.134-1.73-.268-3.523-.419-5.28-.08-.829-.196-1.712-.491-2.524-3.175-8.811-5.003-17.712-5.449-26.461-.348-6.778-.508-12.87 1.017-18.819.677-2.586-.339-4.718-2.872-6.011-2.221-1.115-4.665-2.06-7.697-2.987-1.409-.429-2.247-.571-2.854-.17-.597.392-.794 1.186-.954 2.604a256.854 256.854 0 0 0-1.614 26.658v.018c.116 11.996.597 21.262 1.56 30.047.17 1.534.42 3.228 1.169 4.807a88.312 88.312 0 0 1-.812-.928l-.678.58-.428.054c-.731-5.664-1.293-11.407-1.57-17.195-.811-16.402-.41-30.752 1.231-43.862l.018-.179c.054-.196.071-.392.063-.562v-.294c-.054-.776-.107-1.846.347-2.078l.223-.116c1.124-.597 2.275-1.204 3.568-.99 3.487.589 7.09 1.775 11.335 3.71.892.411 1.285 1.231 1.285 2.676.026 3.701.24 3.96 3.852 4.629Z"></path><path fill="#FFE771" d="m307.166 217.264.169-.722.553.134c.143.035.277.08.393.142a44.103 44.103 0 0 0 2.881 2.747c3.389 2.952 6.367 4.397 8.998 4.397.259 0 .518-.009.767-.035 1.882-.214 3.559-1.222 4.977-3.024.089 0 .161.018.205.027l.544.098.063.401c.169 1.231.33 2.48.481 3.719v.099c.357 2.8.723 5.69 1.293 8.49 1.231 5.985 1.008 11.987.794 17.793l-.018.428c-.071 2.247-.151 4.575-.142 6.841 0 .437-.045.882-.384 1.168-.196.169-.446.25-.758.25-.143 0-.294-.018-.419-.036a511.38 511.38 0 0 0-11.648-1.721c-1.231-.17-1.436-1.053-1.578-1.641-.027-.116-.036-.188-.063-.259-1.846-7.296-3.166-14.894-4.325-21.592l-.241-1.374c-.821-4.673-1.597-9.418-2.248-13.449l-.383-2.31c-.036-.223.027-.41.089-.571ZM345.006 348.226c.134.472.276.945.428 1.435a37.714 37.714 0 0 1-.428-1.435Z"></path><path fill="#FFE771" d="M249.258 284.296c.517-.936 1.204-1.373 2.158-1.373.348 0 .713.053 1.088.16 2.569.687 5.102 1.472 7.911 2.346.428.134.847.259 1.275.392.428.134.856.268 1.276.393.231.08.428.223.66.472 4.075 4.897 8.231 10.275 13.485 17.436 1.302 1.793 2.952 2.872 4.78 3.113 1.561.196 2.693-.036 3.451-.705.678-.615 1.008-1.56.982-2.809a922.903 922.903 0 0 0-.179-7.572c-.027-.776-.044-1.543-.062-2.319-.018-.793-.045-1.587-.063-2.372-.044-2.203-.08-4.406-.107-6.609-.089-6.029-.178-12.869-.722-19.425a419.105 419.105 0 0 1-.375-4.735c-.481-6.404-.981-13.031-2.533-19.488-1.257-5.244-1.659-10.702-2.051-15.982a258.082 258.082 0 0 0-.49-6.011c-.143-1.472-.402-3.416-1.142-5.378-2.925-7.938-3.96-16.294-4.772-24.178-.704-6.832-.686-13.985-.668-20.308v-1.552c0-1.035.009-2.069 0-3.104-.009-.802.124-1.605.267-2.408.161-.954.33-1.935.268-2.987-.018-.197.49-.473.704-.589 1.882-.963 3.933-1.097 6.44-.41 1.534.419 3.032.954 4.548 1.516.633.232 1.284.464 1.918.687 2.229.793 3.344 2.363 3.71 5.262 1.659 12.593 3.674 27.21 6.608 41.329a232.01 232.01 0 0 0 2.328 10.033l-.357.089-.686-.571c-.241.286-.482.544-.723.794.339-.597.402-1.266.232-2.096-.642-3.112-1.409-6.243-2.149-9.275l-.259-1.052c-1.052-4.326-2.131-8.794-2.943-13.245-1.632-9.114-2.72-18.203-3.567-25.89l-.027-.214c-.063-.705-.143-1.588-1.222-2.114-3.006-1.516-6.225-3.095-9.686-4.156-1.346-.428-2.167-.116-2.622.214-.651.481-.99 1.338-.99 2.479v11.478a69.826 69.826 0 0 0-.062 3.06c0 7.322.963 15.438 2.033 23.215.633 4.727 1.837 8.624 3.701 11.933-.472-.633-.9-1.24-1.266-1.793l-.74.5a46.03 46.03 0 0 0 1.632 2.283l.285 1.739c.161 1.035.33 2.016.491 2.961l.08.508c.348 2.052.678 3.987.901 5.896.508 4.388.954 8.775 1.436 13.645l.348 3.425c.08.82.24 1.641.454 2.337 1.213 10.354 2.685 23.482 2.81 27.255.018.446.044.758.089.936.062 1.258.134 2.524.205 3.791v.232c.205 3.291.401 6.689.464 10.051.036 2.542.143 5.137.267 7.795.107 2.337.197 4.441.25 6.582.009.428.027.883.072 1.391.124 2.007.24 3.898-.892 5.601-.268.392-.348.749-.214 1.079.08.214.285.5.802.607.812.196 1.552.579 2.346.99.713.374 1.507.802 2.408 1.061 11.068 3.032 19.808 8.276 26.72 16.027 5.111 5.752 8.847 12.584 12.486 19.237l1.097 2.007c.125.25.187.401.205.419l-.053.036s-.018 0-.027.009a4.532 4.532 0 0 1-.178-.33l-.107-.223c-1.962-3.487-4.165-7.171-6.725-11.264-9.061-14.493-22.965-23.679-41.311-27.283-4.522-.891-7.777-2.818-10.56-6.243-.508-.651-1.043-1.284-1.569-1.926l-.339-.41c-1.49-1.766-3.184-3.773-4.495-5.878-3.532-5.681-8.152-8.936-14.101-9.953-.713-.125-1.23-.33-1.489-.58a1.38 1.38 0 0 1-.134-.16c-.107-.134-.339-.446-.722-.41-.375.017-.598.33-.758.588-1.187 1.971-2.774 3.71-4.344 5.432-.606.669-1.239 1.364-1.837 2.06-.901 1.052-.562 1.73.214 2.417 3.978 3.54 7.197 6.921 9.846 10.337 14.163 18.381 24.865 33.881 33.659 48.784.83 1.41 1.936 2.248 3.701 2.801 7.724 2.381 15.376 5.503 22.77 9.275 6.492 3.318 12.191 7.474 16.927 12.362.161.16.303.303.419.445-.856-.472-1.685-.945-2.425-1.489-.857-.633-1.597-.214-2.034.036-.366.205-.526.267-.696.214a.61.61 0 0 0-.651.134c-.356.33-.187.865-.026 1.382l.035.107c2.194 6.698 4.094 14.056 5.994 23.171.116.535.276 1.061.722 1.346.214.125.455.188.74.188.223 0 .491-.036.839-.125 8.41-2.203 16.526-5.601 24.392-8.892l.767-.321c9.481-3.978 18.756-8.33 27.505-12.486l.393.82c-.215.107-.429.214-.634.321-17.614 8.955-32.339 15.367-46.341 20.183-5.333 1.828-10.23 2.979-14.974 3.523-2.783.312-5.307.107-7.938-.669l-1.025-.294.338 1.017a1420.7 1420.7 0 0 0 2.391 6.885c2.809 8.035 6.216 17.81 8.49 26.007a95.713 95.713 0 0 1-1.213-3.47l-.25-.758c-.222-.651-.437-1.311-.677-1.962-.901-2.551-2.257-5.779-3.684-9.204l-.133-.303c-2.435-5.842-5.209-12.469-6.261-17.008-.616-2.676-.018-4.7 1.881-6.377 2.667-2.337 5.896-4.932 9.74-6.448.918-.366 1.213-.919.954-1.855a475.794 475.794 0 0 1-.901-3.407l-.151-.58c-1.267-4.754-2.569-9.668-4.067-14.448-.295-.892-.848-1.293-1.401-1.596-8.321-4.79-16.009-8.598-23.5-11.648-1.739-.705-3.585-1.186-5.369-1.65l-.152-.036a41.355 41.355 0 0 1-1.552-.401c-1.48-.384-2.506-1.142-3.344-2.462-7.911-12.504-16.562-24.651-24.928-36.397l-1.757-2.47-2.461-3.452c-5.744-8.107-10.667-13.957-15.956-18.979-.758-.722-.82-1.195-.249-1.89.936-1.16 1.881-2.292 2.827-3.425l.918-1.115c.214-.267.446-.526.678-.785l.286-.312c.704-.785 1.436-1.596 1.971-2.542Z"></path><path fill="#FFE771" d="M342.638 335.438c.624 2.818 5.859 25.917 12.905 35.879a.452.452 0 0 1-.098.625.472.472 0 0 1-.259.08.444.444 0 0 1-.366-.187c-3.54-5.004-6.626-13.227-8.9-20.603 1.828 5.78 4.022 10.979 8.232 18.569.115.214.223.41.321.624.053.09.124.232.169.277 0-.009.036-.018.098-.045l.009-.009s-.036-.053-.053-.089l-.09-.16a78.862 78.862 0 0 0-1.177-2.346c-5.146-9.926-6.448-14.653-8.82-23.233l-.072-.259c-.455-1.659-.945-3.469-1.525-5.494-.348-1.221-.437-2.443-.374-3.629ZM345.438 349.661c.115.384.231.767.356 1.168a39.82 39.82 0 0 1-.356-1.168ZM377.304 237.599s.053-.009.08-.009a2.147 2.147 0 0 1-.277.098v-.062l.197-.027Z"></path><path fill="#FFE771" d="m377.108 237.687.071.375c-.865.16-1.703.24-2.506.24-3.425 0-6.323-1.444-8.954-4.477.66.544 1.373 1.133 2.078 1.748 2.72 2.355 5.752 3.05 9.275 2.123.009 0 .027-.009.036-.009Z"></path><path fill="#FFE771" d="M377.094 237.625v.063s-.018.009-.027.009c-3.523.927-6.555.232-9.275-2.123a96.856 96.856 0 0 0-2.078-1.748c-.901-1.043-1.775-2.274-2.622-3.701l.767-.455c.473.794.954 1.525 1.445 2.194 2.39 4.629 5.939 6.314 11.79 5.761Z"></path><path fill="#FFE771" d="m377.017 237.189.08.437c-5.851.553-9.4-1.133-11.79-5.762 3.317 4.584 6.929 6.19 11.71 5.325ZM352.715 246.552c.473 3.317.963 6.742.847 10.185-.071 1.739-.357 3.309-.865 4.798-.428 1.275-1.186 1.864-2.372 1.864a3.76 3.76 0 0 1-.58-.045c-5.583-.829-10.783-1.56-15.875-2.238-1.16-.143-1.481-.749-1.623-1.695-.972-6.653-1.401-13.984-1.338-23.072v-.473c.027-4.085.053-8.303.125-12.468.018-1.07.089-2.167.16-3.318l.054-.749c.035-.508.071-1.035.098-1.597l.053-.927.036.036c3.3 3.959 6.216 7.464 11.246 7.464.919 0 1.9-.115 2.97-.365l-.205-.874c-6.412 1.507-9.462-2.159-13.324-6.796-.072-.08-.134-.17-.205-.25-5.084-8.945-8.393-18.907-10.114-30.448-1.231-8.179-1.516-15.742-.883-23.126.08-.883.223-1.499.74-1.855.446-.304 1.008-.312 1.891-.063 2.979.839 5.699 1.659 8.303 2.533 1.9.633 3.077 1.998 3.496 4.049 2.774 13.673 6.948 27.265 12.406 40.42.767 1.855.856 3.772.937 5.618l.035.803c.33 6.35 1.249 12.736 2.123 18.916l.107.714c.428 3.023.874 6.154 1.249 9.231.142 1.195.312 2.39.508 3.728Z"></path><path fill="#FFE771" d="m345.445 223.08.205.874c-1.07.25-2.051.366-2.969.366-5.031 0-7.947-3.505-11.247-7.465-.009-.009-.018-.027-.036-.036l.045-.705.928 1.347c1.302 1.909 2.399 3.157 3.656 4.156 2.506 2.007 5.351 2.783 8.446 2.301l.286-.035h.169s-.009-.036-.009-.063c-.036-.148-.202-.208-.499-.178-5.164.455-9.142-1.829-12.148-6.975-.124-.205-.24-.419-.356-.633.071.08.133.17.205.25 3.862 4.638 6.912 8.303 13.324 6.796Z"></path><path fill="#FFE771" d="M344.919 223.819s.009.045.009.063h-.169l-.286.035c-3.094.482-5.94-.294-8.446-2.301-1.257-.999-2.354-2.247-3.656-4.156l-.928-1.346-.044.704a99.728 99.728 0 0 0-1.356-1.623l.678-.58c.41.482.802.946 1.195 1.418.116.214.232.428.357.634 3.005 5.146 6.983 7.429 12.147 6.974.297-.03.464.03.499.178ZM343.307 342.002c.071.276.142.544.214.812a17.046 17.046 0 0 1-.214-.812ZM326.262 217.06a5.948 5.948 0 0 1-.151 1.997c-1.463 2.417-3.238 3.755-5.28 3.978-3.532.392-8.098-2.497-13.53-8.598-.749-1.578-.999-3.273-1.168-4.807-.963-8.785-1.445-18.051-1.561-30.047v-.017c.045-6.101.366-15.688 1.615-26.658.16-1.418.356-2.212.954-2.604.606-.402 1.445-.259 2.854.169 3.032.928 5.476 1.873 7.697 2.988 2.532 1.293 3.549 3.424 2.871 6.011-1.525 5.949-1.364 12.04-1.016 18.818.446 8.749 2.274 17.65 5.449 26.462.294.811.41 1.694.49 2.524.152 1.757.286 3.549.42 5.28l.124 1.632c.072.963.152 1.917.232 2.872Z"></path><path fill="#FFE771" d="M326.106 219.057a5.342 5.342 0 0 1-1.231 2.328c-1.061 1.177-2.595 1.828-4.316 1.846h-.098c-2.917 0-5.351-1.311-7.349-2.595-1.623-1.052-3.131-2.479-4.745-4.477a8.743 8.743 0 0 1-1.07-1.721c5.431 6.1 9.998 8.989 13.529 8.597 2.043-.223 3.818-1.561 5.28-3.978ZM298.577 217.897l.16.25c-1.926 1.927-4.04 2.908-6.296 2.908-.143 0-.286 0-.428-.009-1.249-.072-2.462-.428-3.63-.999 2.907 1.32 6.02 1.008 9.721-1.793l.473-.357Z"></path><path fill="#FFE771" d="M298.416 215.338c.169.829.107 1.498-.232 2.096-1.882 1.926-3.942 2.845-6.127 2.72-4.513-.25-8.758-4.781-11.434-8.384-1.864-3.309-3.068-7.206-3.701-11.933-1.07-7.777-2.033-15.893-2.033-23.215 0-1.035.018-2.06.062-3.059v-11.479c0-1.141.339-1.997.99-2.479.455-.33 1.275-.642 2.622-.214 3.461 1.061 6.68 2.64 9.686 4.156 1.079.526 1.159 1.409 1.222 2.114l.026.214c.848 7.688 1.936 16.776 3.568 25.891.811 4.45 1.891 8.918 2.943 13.244l.259 1.052c.74 3.033 1.507 6.163 2.149 9.276Z"></path><path fill="#FFE771" d="M298.186 217.434c-.17.303-.402.58-.705.856-1.561 1.436-3.326 2.158-5.271 2.158-1.275 0-2.622-.321-3.995-.954-1.668-.767-3.157-1.909-4.567-3.496a24.967 24.967 0 0 1-3.023-4.227c2.676 3.603 6.921 8.133 11.434 8.383 2.185.125 4.245-.794 6.127-2.72ZM287.375 219.511c.169.098.33.196.499.285a4.02 4.02 0 0 1-.499-.285ZM286.893 219.217c.16.098.321.205.481.294a3.452 3.452 0 0 1-.481-.294Z"></path><path fill="#0A0A0A" d="M414.148 405.475c-1.115-2.238.964-1.293.634-1.89l-.955-1.74c-4.307-7.866-9.195-16.784-14.412-24.999-1.213-1.917-2.489-2.497-4.683-2.149-.115.018-.231.009-.338.009-.018 0-.036 0-.054.009-.597.214-1.088.214-1.48.009-.509-.277-.759-.821-.955-1.552a2011.586 2011.586 0 0 0-3.861-14.332c-.785-2.89-1.57-5.788-2.346-8.687-.277-.999-.598-2.007-.901-2.988l-.125-.392c-.847-2.685-1.712-5.467-1.908-8.402-.295-4.343-.705-8.918-1.026-12.584l-.187-2.149c-.17-1.98-.339-3.969-.5-5.958a3068.824 3068.824 0 0 1-1.534-20.709c-.16-2.354-.312-4.7-.463-7.046-.197-3.032-.393-6.162-.634-9.266l-.026-.437c-.09-1.151-.179-2.346.017-3.603.393-2.417.75-4.897 1.097-7.296l.036-.24c.285-2.007.615-4.281.963-6.511l.785-5.075c.874-5.69 1.784-11.576 2.818-17.338.437-2.47.634-5.101-.918-7.58l-.312-.473c-.313-.5-.643-1.017-.857-1.579-4.798-12.637-10.149-27.63-13.378-43.059-.115-.589-.249-.776-.865-.883-2.586-.455-5.306-.571-7.696-.687l-.848-.035c-.776-.045-1.552-.081-2.327-.134-1.748-.116-2.908-.196-3.22.125-.312.312-.241 1.436-.08 3.255 1.239 15.162 4.049 28.236 8.606 39.991.33.892.393 1.722.205 2.685-.767 4.049-1.507 8-2.14 11.888-.839 5.218-1.49 10.845-1.98 17.187v.214c.018.249.044.731-.277 1.07-.169.187-.41.285-.695.294-.955 0-1.062-.918-1.106-1.32l-.018-.196a76.405 76.405 0 0 0-.268-2.123l-.017-.133c-.107-.866-.223-1.74-.313-2.614-.74-7.045-1.739-14.278-2.622-20.646l-.044-.339c-.375-2.72-.758-5.449-1.115-8.17a91.391 91.391 0 0 0-.33-2.265l-.107-.669c-.375-2.301-.794-4.914-.758-7.492.027-2.14.062-4.798-.83-7.045-6.234-16.081-10.755-31.349-13.823-46.698-.116-.571-.304-.696-.803-.803-.731-.16-1.463-.321-2.185-.482l-1.329-.294c-1.855-.419-3.826-.865-5.753-1.231l-.178-.035c-3.612-.669-3.826-.928-3.853-4.629 0-1.445-.392-2.265-1.284-2.676-4.245-1.935-7.848-3.121-11.336-3.71-1.293-.214-2.443.393-3.567.99l-.223.116c-.455.232-.401 1.302-.357 2.078v.294c.018.17 0 .366-.053.562l-.018.179c-1.641 13.11-2.043 27.46-1.231 43.862.767 15.848 3.594 31.357 6.43 45.895.054.241.107.473.17.713l.027.116c.276 1.106.544 2.203.231 3.514l-.33 1.481-.882-1.668c-.045-.08-.107-.161-.143-.259-5.075-13.44-9.008-26.782-11.692-39.652-2.935-14.118-4.95-28.736-6.609-41.329-.366-2.899-1.481-4.468-3.71-5.262-.634-.223-1.285-.455-1.918-.687-1.516-.562-3.014-1.097-4.548-1.516-2.506-.687-4.558-.553-6.44.41-.214.116-.722.393-.704.589.062 1.052-.107 2.033-.268 2.988-.142.802-.276 1.605-.267 2.408v4.655c-.018 6.324-.036 13.476.669 20.308.811 7.884 1.846 16.241 4.771 24.179.74 1.962.999 3.906 1.142 5.377.196 2.016.348 4.067.49 6.012.393 5.279.794 10.738 2.051 15.982 1.552 6.457 2.052 13.083 2.533 19.487.116 1.579.241 3.157.375 4.736.544 6.555.633 13.396.722 19.425.027 2.203.063 4.405.107 6.608.018.785.045 1.579.063 2.373.018.776.035 1.543.062 2.319.081 2.889.134 5.288.179 7.572.026 1.248-.304 2.194-.981 2.809-.759.669-1.891.901-3.452.704-1.828-.24-3.478-1.319-4.78-3.112-5.253-7.162-9.409-12.54-13.485-17.436-.232-.25-.428-.392-.66-.473a99.65 99.65 0 0 1-1.276-.392c-.428-.134-.847-.259-1.275-.393-2.809-.874-5.342-1.658-7.911-2.345a3.968 3.968 0 0 0-1.088-.161c-.954 0-1.641.437-2.158 1.374-.535.945-1.267 1.757-1.971 2.542l-.286.312c-.231.258-.463.517-.677.785l-.919 1.114c-.945 1.133-1.891 2.266-2.827 3.425-.571.696-.509 1.168.249 1.891 5.289 5.021 10.212 10.872 15.956 18.979l2.461 3.451 1.757 2.471c8.366 11.746 17.017 23.893 24.928 36.397.838 1.32 1.864 2.078 3.344 2.461.509.143 1.026.277 1.552.402l.152.035c1.784.464 3.63.946 5.369 1.65 7.492 3.05 15.179 6.859 23.501 11.648.552.303 1.105.705 1.4 1.596 1.498 4.781 2.8 9.695 4.067 14.449l.151.579c.295 1.133.598 2.275.901 3.407.259.937-.036 1.49-.954 1.855-3.844 1.516-7.073 4.112-9.739 6.448-1.9 1.677-2.498 3.702-1.882 6.377 1.052 4.54 4.013 13.022 6.448 18.863l8.383 23.59c.384 1.151.589-1.382 1.026-.223-2.274-8.196-9.32-27.496-12.129-35.532-.856-2.443-1.659-4.762-2.39-6.885l-.339-1.017 1.025.295c2.631.776 5.155.981 7.938.669 4.745-.545 9.641-1.695 14.974-3.523 14.003-4.816 28.727-11.229 46.341-20.183.83-.437 1.713-.812 2.569-1.177l.187-.09c2.515-1.07 5.111-2.185 6.948-4.575l.508-.669.482.838c.482.857.963 1.695 1.436 2.533 1.427 2.498 2.711 4.754 3.951 7.064 5.226 9.686 3.487 7.536 11.005 18.925Zm-92.495-244.87c.446-.303 1.008-.312 1.891-.062 2.979.838 5.699 1.659 8.303 2.533 1.9.633 3.077 1.997 3.496 4.049 2.774 13.672 6.948 27.264 12.406 40.419.767 1.855.856 3.772.937 5.619l.035.802c.33 6.35 1.249 12.736 2.123 18.917l.107.713c.428 3.024.874 6.154 1.249 9.231.142 1.195.312 2.39.508 3.728.473 3.318.963 6.743.847 10.185-.071 1.739-.357 3.309-.865 4.798-.428 1.276-1.186 1.864-2.372 1.864a3.87 3.87 0 0 1-.58-.044 1045.04 1045.04 0 0 0-15.875-2.239c-1.16-.143-1.481-.749-1.623-1.694-.972-6.654-1.401-13.985-1.338-23.073v-.473c.027-4.084.053-8.303.125-12.468.018-1.07.089-2.167.16-3.318l.054-.749c.035-.508.071-1.034.098-1.596l.098-1.632.928 1.346c1.302 1.909 2.399 3.158 3.656 4.157 2.506 2.006 5.351 2.782 8.446 2.301l.285-.036h.17s-.009-.036-.009-.063c-.036-.148-.202-.208-.499-.178-5.164.455-9.142-1.828-12.148-6.974-5.279-9.106-8.704-19.274-10.47-31.082-1.231-8.178-1.516-15.741-.883-23.126.08-.883.223-1.498.74-1.855Zm8.607 58.248c-.223.892-.304 1.819-.393 2.889l-.026.295c-.045.472-.081.954-.134 1.471l-.419 3.648-.687-3.603c-.232-1.222-.366-2.373-.5-3.55-.16-1.445-.312-2.809-.677-4.138-.081-.303-.081-1.061.419-1.356a.929.929 0 0 1 .722-.116c.419.107.633.5.758.714l.054.089c.597 1.008 1.266 2.123.883 3.657Zm-25.695-39.269v-.018c.045-6.1.366-15.688 1.614-26.658.161-1.418.357-2.212.955-2.604.606-.401 1.445-.259 2.854.17 3.032.927 5.476 1.872 7.696 2.987 2.533 1.293 3.55 3.425 2.872 6.011-1.525 5.949-1.364 12.041-1.016 18.819.445 8.749 2.274 17.65 5.449 26.461.294.812.41 1.695.49 2.524.152 1.757.286 3.55.42 5.28l.124 1.632c.072.963.152 1.918.232 2.872.143 1.641-.348 3.184-1.382 4.326-1.061 1.177-2.595 1.828-4.317 1.846h-.098c-2.916 0-5.351-1.311-7.349-2.596-1.623-1.052-3.13-2.479-4.745-4.477-1.614-2.006-2.006-4.423-2.238-6.528-.963-8.785-1.445-18.051-1.561-30.047Zm5.378 55.385-.241-1.374c-.82-4.673-1.596-9.418-2.247-13.449l-.384-2.31c-.035-.223.027-.41.089-.571l.17-.722.553.134c.758.178 1.133.66 1.409 1.016.071.098.134.188.205.259a18.626 18.626 0 0 0 7.59 5.039c3.13 1.088 5.717.598 7.902-1.534.196-.187.41-.33.588-.446a.64.64 0 0 1 .527-.08l.544.098.062.401c.17 1.231.33 2.48.482 3.719v.098c.356 2.801.722 5.69 1.293 8.491 1.231 5.984 1.008 11.987.794 17.793l-.018.428c-.072 2.247-.152 4.575-.143 6.84 0 .437-.044.883-.383 1.169-.197.169-.446.249-.758.249-.143 0-.295-.017-.42-.035a510.513 510.513 0 0 0-11.647-1.722c-1.231-.169-1.436-1.052-1.579-1.641-.027-.116-.036-.187-.062-.258-1.847-7.296-3.167-14.894-4.326-21.592Zm-33.026-35.131c-1.07-7.777-2.033-15.893-2.033-23.215 0-1.035.018-2.06.062-3.059v-11.478c0-1.142.339-1.998.99-2.48.455-.33 1.276-.642 2.622-.214 3.461 1.061 6.68 2.64 9.686 4.156 1.079.526 1.159 1.409 1.222 2.114l.027.214c.847 7.688 1.935 16.776 3.567 25.891.812 4.45 1.891 8.918 2.943 13.244l.259 1.052c.74 3.033 1.507 6.163 2.149 9.276.259 1.248-.026 2.131-.936 2.952-1.561 1.436-3.327 2.158-5.271 2.158-1.275 0-2.622-.321-3.996-.954-1.667-.767-3.157-1.909-4.566-3.496-3.657-4.121-5.797-9.258-6.725-16.161Zm112.188 180.79c-9.276 4.415-19.175 9.088-29.307 13.342l-.767.321c-7.866 3.291-15.982 6.689-24.392 8.892a3.409 3.409 0 0 1-.839.125c-.285 0-.526-.062-.74-.187-.446-.286-.606-.812-.722-1.347-1.9-9.115-3.8-16.473-5.994-23.171l-.035-.107c-.161-.517-.33-1.052.027-1.382a.608.608 0 0 1 .651-.134c.169.054.33-.009.695-.214.437-.25 1.177-.669 2.034-.035.74.544 1.569 1.016 2.426 1.489-.116-.143-.259-.285-.42-.446-4.735-4.887-10.434-9.043-16.927-12.361-7.394-3.773-15.046-6.894-22.769-9.276-1.766-.553-2.872-1.391-3.702-2.8-8.793-14.903-19.496-30.404-33.659-48.785-2.648-3.416-5.868-6.796-9.846-10.337-.776-.686-1.115-1.364-.214-2.417.598-.695 1.231-1.391 1.837-2.06 1.57-1.721 3.158-3.46 4.344-5.431.16-.259.383-.571.758-.589.383-.036.615.276.722.41.054.072.09.116.134.161.259.25.776.455 1.49.58 5.948 1.016 10.568 4.272 14.1 9.953 1.311 2.105 3.005 4.111 4.495 5.877l.339.41c.526.643 1.061 1.276 1.569 1.927 2.783 3.425 6.038 5.351 10.56 6.243 18.346 3.603 32.25 12.789 41.311 27.282 2.56 4.094 4.763 7.777 6.725 11.264l.107.223c.098.196.151.286.178.33.009-.009.018-.009.027-.009l.053-.035s-.08-.17-.205-.42l-1.097-2.006c-3.638-6.654-7.375-13.485-12.486-19.238-6.912-7.75-15.652-12.994-26.72-16.027-.901-.258-1.694-.686-2.408-1.061-.794-.41-1.534-.794-2.346-.99-.517-.107-.722-.392-.802-.606-.134-.33-.054-.687.214-1.08 1.132-1.703 1.017-3.594.892-5.6a20.351 20.351 0 0 1-.072-1.392c-.053-2.14-.142-4.245-.249-6.582-.125-2.657-.232-5.253-.268-7.795-.062-3.362-.259-6.76-.455-10.051v-.232a291.72 291.72 0 0 1-.214-3.79c-.044-.179-.071-.491-.089-.937-.125-3.772-1.596-16.9-2.809-27.255a12.176 12.176 0 0 1-.455-2.337l-.348-3.424c-.482-4.87-.928-9.258-1.436-13.646-.223-1.909-.553-3.844-.901-5.895l-.08-.509c-.161-.945-.33-1.926-.491-2.961l-.33-2.015 1.311 1.569c5.111 6.19 9.882 9.276 16.589 4.201l.473-.357.33.509c.365.562.49 1.177.588 1.721l.045.196c.027.134.054.268.089.402.357 1.346.74 2.818 1.186 4.62l.054.196c1.391 5.494 2.845 11.184 5.021 16.526 1.275 3.175 2.114 6.555 2.845 9.534.294 1.195.633 2.542.99 3.88.134.472.214 1.007-.134 1.391-.356.383-.927.321-1.436.232-2.461-.455-6.171-1.16-9.926-1.998l-.919-.205-4.156-1.026h-2.595c-.134.018-.268.027-.41.045.838.321 2.693.874 6.778 1.712.062 0 .125.018.205.036 6.198 1.409 11.942 2.506 17.561 3.371 7.964 1.231 15.759 2.265 22.332 3.122 5.075.669 10.239 1.23 15.242 1.783l1.962.214c1.026.116 1.24.803 1.382 1.267.036.107.072.196.099.294 1.427 3.657.419 7.206-.473 10.328-3.853 13.378-7.456 28.12-11.024 45.066a428.372 428.372 0 0 0-1.792 9.222c-.25 1.355-.509 2.72-.767 4.084-.107.527-.063 1.097.134 1.847l.874 3.308c3.166 12.041 4.753 18.087 11.487 30.226.116.214.223.41.321.624.053.089.125.232.169.277 0-.009.036-.018.098-.045l.009-.009s-.035-.054-.053-.089l-.089-.161a82.59 82.59 0 0 0-1.178-2.345c-5.146-9.927-6.448-14.654-8.82-23.233l-.071-.259c-.455-1.659-.946-3.469-1.526-5.494-.811-2.863-.196-5.708.339-8.223l.116-.553a1032.464 1032.464 0 0 1 10.48-44.718c.356-1.391.704-2.783 1.052-4.183l.018-.098c.785-3.121 1.587-6.35 2.542-9.48 1.676-5.468 2.435-11.193 3.166-16.732l.143-1.079c.08-.606.16-1.222.249-1.828.732-5.405 1.579-11.015 2.319-15.965l.027-.196c.071-.481.25-.918.446-1.355.134-.313.285-.669.267-.866l-.151-1.364 1.48 1.222c.723.597 1.507 1.248 2.292 1.926 2.72 2.355 5.753 3.05 9.276 2.123.16-.045.249-.08.312-.107-.027 0-.054 0-.08.009l-.206.026c-6.697.634-10.39-1.667-12.771-7.973-3.193-8.473-5.628-17.801-7.429-28.513-.188-1.132-.366-2.265-.553-3.389l-.25-1.561c-.383-2.416-.74-4.61-1.124-6.822-.142-.821-.151-1.401.241-1.784.464-.437 1.195-.312 1.837-.169 2.284.526 4.7.642 7.046.758l.5.017c1.382.063 2.39.473 2.827 2.31 3.906 16.393 8.793 31.037 14.938 44.763.339.785.437 1.534.304 2.372-.571 3.684-1.169 7.653-1.829 12.148l-.142.936c-.892 6.002-1.811 12.21-2.81 18.283-1.168 7.144-1.453 13.851-.856 20.504.544 6.145 1.026 12.415 1.498 18.48l.143 1.792c.83 10.836 1.766 23.117 3.077 34.801.116 1.159.419 2.292.901 3.469 1.552 3.782 3.291 8.303 4.45 13.191.847 3.523 1.802 7.099 2.72 10.551l.339 1.275c.295 1.115.589 2.221.874 3.327.5 1.908-.187 3.407-1.917 4.236Z"></path><path fill="#000" d="M292.444 221.055c-.143 0-.285 0-.437-.008-5.699-.313-10.836-6.752-13.396-10.569l.741-.499c2.461 3.674 7.393 9.881 12.709 10.176 2.47.142 4.771-1.044 6.849-3.514l.678.571c-2.149 2.55-4.557 3.843-7.144 3.843ZM320.161 223.964c-3.942 0-8.643-3.237-14.35-9.873l.677-.579c5.789 6.733 10.631 9.935 14.342 9.525 2.247-.25 4.173-1.846 5.725-4.754l.785.419c-1.703 3.184-3.862 4.941-6.412 5.218a7.15 7.15 0 0 1-.758.044h-.009ZM342.684 224.319c-5.03 0-7.947-3.505-11.247-7.465-.455-.544-.918-1.106-1.4-1.659l.678-.58c.482.562.945 1.124 1.4 1.668 3.862 4.638 6.912 8.303 13.325 6.805l.205.865c-1.071.25-2.052.366-2.961.366ZM374.672 238.304c-4.611 0-8.25-2.604-11.576-8.169l.767-.455c3.737 6.261 7.679 8.508 13.155 7.518l.16.874c-.865.161-1.703.232-2.506.232ZM355.179 372.021a.44.44 0 0 1-.366-.188c-7.581-10.72-13.066-36.245-13.119-36.504a.44.44 0 0 1 .348-.526.44.44 0 0 1 .526.348c.053.259 5.494 25.596 12.977 36.174a.445.445 0 0 1-.366.704v-.008Z"></path><path fill="#FD3" d="M311.07 290.905c.018.562-.357 1.141-1.07 1.685-6.565 4.888-12.353 10.39-17.41 16.562l-.597-.499-.187-.874c-.625.134-1.213.232-1.775.303.731-.294 1.373-.696 1.792-1.204a68.203 68.203 0 0 1 7.037-7.411 74.016 74.016 0 0 1 8.268-6.484c.695-.473.972-.848.963-1.294-.009-.588-.553-.918-1.079-1.23-.5-.321-1.008-.625-1.516-.937l-.767-.472c-1.623-.981-3.3-1.998-4.834-3.131-2.328-1.712-4.611-2.033-7.171-1.008a5.694 5.694 0 0 1-1.008.25c-.454.089-.972.187-1.462.446.009-.018.018-.027.027-.045l-.732-.508-.16-.58c.597-.16 1.186-.321 1.774-.481l.473-.134c1.133-.312 2.257-.615 3.389-.919l.767-.214c1.82-.481 3.256-.276 4.798.678.937.598 1.891 1.195 2.837 1.784l.758.472c1.926 1.205 3.808 2.382 5.663 3.595.776.499 1.195 1.07 1.222 1.65Z"></path><path fill="#FD3" d="M308.093 291.689c.009.446-.267.82-.963 1.293a74.133 74.133 0 0 0-8.268 6.484 68.097 68.097 0 0 0-7.036 7.411c-.42.509-1.062.91-1.793 1.204-3.273.437-5.449-.143-6.502-1.73-2.756-4.156 2.497-14.662 6.725-20.745.49-.258 1.008-.357 1.463-.446a5.793 5.793 0 0 0 1.007-.249c2.56-1.026 4.843-.705 7.171 1.007 1.534 1.133 3.211 2.15 4.834 3.131l.767.472c.508.313 1.017.616 1.516.937.526.312 1.07.642 1.079 1.231ZM291.997 308.651l.597.5c-9.846 12.004-16.892 26.542-21.36 43.924a3.93 3.93 0 0 1-.089.348l-.027.089c-.142.482-.294 1.026-.321 1.597-.089 2.871-1.748 4.254-4.218 5.449-4.763 2.301-9.695 5.03-15.082 8.33-4.406 2.711-8.829 5.601-13.351 8.571-1.917 1.257-3.835 2.515-5.761 3.763-1.606 1.026-2.596 2.391-3.104 4.281l-1.044 3.719c-1.311 4.656-2.925 10.417-4.334 15.938l-.865-.223a350.013 350.013 0 0 1 1.9-7.554l.998-3.862c.402-1.596.527-2.8-.151-3.478-.696-.687-1.962-.517-3.648-.063l-.749.206c-.223.044-.41.169-.562.276l-.08.045s-.072.062-.107.08c-.054-.089-.018-.161.365-.491.036-.035.072-.062.099-.089.044-.035.08-.071.124-.107l1.811-1.837c1.819-1.819 3.692-3.71 5.61-5.503l.401-.365c1.971-1.838 4.013-3.746 6.27-5.298 7.028-4.852 15.447-10.462 24.66-15.313 1.266-.66 2.551-1.303 3.826-1.945l2.586-1.302c1.427-.713 2.203-1.801 2.453-3.434.589-3.522 1.543-7.259 2.925-11.567h.009s.018-.054.027-.089c.205-.589 1.427-4.067 4.37-11.452 2.738-5.431 5.574-11.05 9.07-16.178l.125-.161c1.249-1.855 2.524-3.656 3.71-5.342l.767-1.106a20.914 20.914 0 0 0 2.15-.357Z"></path><path fill="#FD3" d="m291.808 307.779.188.874c-.758.161-1.472.286-2.15.357l.072-.098h-1.534a5.798 5.798 0 0 0-.562 0c-1.775.089-3.122-.321-4.04-1.186-.892-.856-1.356-2.167-1.374-3.906-.027-1.615.214-3.309.741-5.164 1.159-4.005 2.952-7.786 5.502-11.568l.651-.981-.499.054c.259-.393.508-.758.749-1.106l.731.508s-.017.027-.026.045c-.312.16-.616.392-.874.722-3.898 5.075-6.226 10.738-6.912 16.874.133 2.042.446 4.129 2.675 5.155.464.205 1.097.321 1.829.321a8.56 8.56 0 0 0 3.059-.597c.562-.072 1.15-.17 1.774-.304Z"></path><path fill="#FD3" d="M290.034 308.08a8.54 8.54 0 0 1-3.059.598c-.732 0-1.365-.116-1.829-.321-2.229-1.026-2.542-3.113-2.675-5.155.686-6.136 3.014-11.799 6.912-16.874a2.63 2.63 0 0 1 .874-.723c-4.228 6.083-9.481 16.589-6.725 20.745 1.052 1.588 3.229 2.167 6.502 1.73Z"></path><path fill="#FD3" d="m289.917 308.911-.071.099a15.09 15.09 0 0 1-1.731.107c-2.541 0-4.325-.759-5.324-2.266-3.041-4.584 2.239-14.956 6.011-20.691l.5-.054-.652.982c-2.55 3.781-4.343 7.563-5.502 11.567-.527 1.855-.767 3.55-.741 5.164.018 1.739.482 3.05 1.374 3.906.919.865 2.265 1.276 4.04 1.186.161-.008.33-.009.562-.009h1.534v.009Z"></path><path fill="#FD3" d="m289.846 309.009-.767 1.106c-1.186 1.686-2.461 3.487-3.71 5.343l-.125.16c-3.496 5.128-6.332 10.747-9.07 16.178-2.943 7.385-4.165 10.863-4.37 11.452-.009.036-.018.062-.027.089h-.009c-1.382 4.308-2.337 8.045-2.925 11.568-.25 1.632-1.026 2.72-2.453 3.433l-2.586 1.302c-1.276.643-2.56 1.285-3.826 1.945-9.213 4.851-17.632 10.461-24.66 15.313-2.257 1.552-4.299 3.46-6.27 5.298l-.401.365c-1.918 1.793-3.791 3.684-5.61 5.503l-1.811 1.837c-.044.036-.08.072-.125.107-.026.027-.062.054-.098.09-.383.33-.419.401-.365.49a.431.431 0 0 0 .107-.08l.08-.045c.152-.107.339-.232.562-.276l.749-.205c1.686-.455 2.952-.625 3.648.062.678.678.553 1.882.151 3.478l-.999 3.862a357.532 357.532 0 0 0-1.899 7.554c-.17.669-.375 1.16-.83 1.356a.983.983 0 0 1-.401.08c-.357 0-.713-.169-1.159-.419-9.748-5.708-20.326-10.988-33.294-16.624-7.152-3.104-14.822-5.468-23.447-7.233-.722-.143-1.222-.321-1.516-.776-.25-.411-.267-.91-.062-1.677 1.168-4.504 2.31-8.999 3.469-13.601l.696-2.783c.651-2.559 1.293-5.128 1.962-7.687l.196-.785c.41-1.606.838-3.273 1.329-4.888 1.168-3.861.82-7.688.267-11.255-1.4-8.999-2.987-18.997-5.306-33.409a2.878 2.878 0 0 1-.018-.999l-.259-1.855a2.043 2.043 0 0 1-.026-.321l-.081-.642c-.026-.188-.044-.384-.071-.598-.062-.446-.116-.945-.187-1.489 0 0-.223-1.106-.205-1.178v-.08c-.036-.428-.081-.865-.125-1.302v-.027c-.072-.49-.134-.999-.205-1.516l-.072-.152h.054c-.437-3.157-.955-6.59-1.418-8.909l-.054-.241a.985.985 0 0 0-.053-.214 44.831 44.831 0 0 0-.723-2.694c-4.994-16.588-9.302-29.85-13.547-41.721a2.146 2.146 0 0 1-.098-.357l-.018.027-.401-1.106.214.393c5.975-3.3 3.781-16.696 2.657-21.967h.009l.098-.125.063-.08.178-.196.179.053c.561.33.758.901.883 1.275l.053.134c.027.063.054.134.08.196l2.078 4.629c2.194 4.87 4.772 10.613 7.251 16.268 1.49 3.407 2.979 6.831 4.46 10.247l.285.66c2.783 6.422 5.663 13.066 8.589 19.55 1.132 2.524 1.587 5.316 2.033 8.009l.107.66c.134.749.259 1.498.401 2.238.036.152.054.295.081.437.026.134.053.268.071.393.089.508.178.945.268 1.347.124-6.44-.455-13.2-1.82-21.262-.776-4.558-1.48-8.928-2.337-14.172-1.435-8.901-2.854-17.597-4.477-26.257-.695-3.728-1.364-7.518-2.015-11.193l-.464-2.648c-.089-.544-.134-1.088-.187-1.722l-.107-1.213c.544.17 1.052.25 1.534.25.802 0 1.507-.232 2.122-.704 4.076-3.113 2.444-16.099 1.65-21.004h.125c2.025.107 3.122.963 3.675 2.863 3.023 10.801 5.654 21.886 8.044 33.882.794 3.951 2.141 7.831 3.443 11.594.544 1.552.99 2.854 1.391 4.076 3.282 10.051 6.198 20.45 8.919 31.804.294 1.222.446 2.488.597 3.701l.018.152c.08.66.161 1.302.25 1.953l.829-.348c0-1.043.009-2.069.027-3.068.027-2.524.045-4.798-.054-7.072-.249-5.967-.793-12.023-1.32-17.873-.089-1.053-.178-2.069-.267-3.086-.089-.937-.17-1.864-.25-2.801-.713-8.374-2.007-16.9-3.96-26.06a5.144 5.144 0 0 1-.089-1.124c.152-8.606-.285-17.525-1.284-26.506a2.964 2.964 0 0 1 0-.49l.062-.785h.411c1.034.544 2.176.999 3.299.999.66 0 1.311-.152 1.945-.535 3.014-1.793 4.423-8.384 4.29-20.094a.94.94 0 0 1 .472.062c.375.179.5.553.571.776l.054.143c1.427 3.157 2.854 6.332 4.28 9.516.759 1.686.973 3.505 1.16 5.11.044.366.089.732.143 1.08 1.221 8.927 2.532 17.989 3.808 26.756l.258 1.783c2.096 14.484 4.264 29.467 6.11 44.237.356 2.872.071 5.797-.17 8.374a72.374 72.374 0 0 0-.303 3.978c.134-.027.268-.062.401-.089l.099-.027c-.018-.223 0-.49.044-.856.223-1.864.464-3.719.696-5.574l.107-.865c1.097-8.714 2.229-17.731 2.8-26.658.883-13.735 1.73-28.504 1.944-43.398.036-2.132-.16-4.379-.606-6.885v-.099l.062-.811c1.16.508 2.168.713 3.024.713 1.587 0 2.693-.677 3.434-1.436 4.236-4.298 3.041-16.758.053-23.616l.41-.054c1.409-.16 2.961-.035 3.746 2.114 1.588 4.299 2.89 8.705 4.156 12.968 1.177 3.995 2.257 7.59 3.496 11.148 1.766 5.021 1.543 9.846 1.311 14.948-.981 20.245-.767 37.922.669 54.082.027.357.054.723.063 1.062l.026.294 3.086 27.817.687 4.549c.455 2.987.928 6.073 1.427 9.097.633 4.031 2.907 7.429 6.93 10.381 1.373.99 3.148 1.008 5.404.036 2.453-1.062 4.602-2.569 6.565-4.04 5.351-4.049 9.4-7.786 12.744-11.773 1.918-2.31 4.37-3.567 7.501-3.862l.669-.062c-3.773 5.734-9.053 16.107-6.011 20.691.998 1.507 2.782 2.265 5.324 2.265.544 0 1.115-.035 1.73-.107Z"></path><path fill="#FD3" d="m289.392 284.474.161.58c-.241.347-.491.713-.749 1.105l-.669.063c-3.131.294-5.583 1.552-7.501 3.862-3.344 3.986-7.393 7.723-12.745 11.772-1.962 1.472-4.111 2.979-6.564 4.04-2.256.973-4.031.955-5.404-.035-4.023-2.952-6.297-6.35-6.93-10.382-.5-3.023-.972-6.109-1.427-9.097l-.687-4.548-3.086-27.817-.026-.295a22.357 22.357 0 0 0-.063-1.061c-1.436-16.16-1.65-33.837-.669-54.083.232-5.101.455-9.926-1.311-14.947-1.239-3.559-2.319-7.153-3.496-11.149-1.266-4.263-2.568-8.668-4.156-12.967-.785-2.15-2.337-2.274-3.746-2.114l-.41.054a16.16 16.16 0 0 0-.865-1.757v-.428c.749 0 1.498.017 2.256.062 1.463.08 2.56.812 3.354 2.256 3.148 5.735 4.976 11.934 6.867 18.863l.74 2.765c.625 2.364 1.276 4.807 2.069 7.171.669 1.953.91 4.067.776 6.867-.793 16.687-.981 31.367-.571 44.879.348 11.585 1.383 24.071 3.176 38.154.214 1.632.41 3.264.606 4.905l.071.588c.5 4.103 1.026 8.348 1.722 12.495.758 4.406 3.139 7.733 6.903 9.624 1.881.945 3.79.829 5.538-.33 5.084-3.407 10.221-7.67 16.17-13.423.223-.232.347-.49.463-.722l.036-.063c.054-.133.134-.321.223-.41l.116-.125c1.142-1.204 2.221-2.345 3.924-2.782a663.793 663.793 0 0 0 5.904-1.57ZM232.57 413.251c.437.197.473.589.366 1.659l-.027.286c-.383 4.361-1.543 8.642-2.667 12.78l-.49 1.802c-1.32 4.941-2.399 9.962-3.452 14.814l-.338 1.569c.321-1.81.651-3.621.972-5.431l.508-2.827c.214-1.142.419-2.284.624-3.425.197-1.124.402-2.248.598-3.371l.053-.295c.821-4.593 1.677-9.338 2.551-13.984.286-1.445-.517-1.989-1.24-2.48-13.048-8.624-26.854-15.366-37.422-20.28-11.175-5.182-22.743-9.106-34.39-11.657-.375-.089-.776-.17-1.142-.17-.972 0-1.525.58-1.864 1.945-4.513 18.238-8.687 32.517-13.351 45.636.499-1.989.99-3.968 1.498-5.948l.241-.946c3.3-12.932 6.707-26.301 10.087-39.456.749-2.952.856-3.023 3.755-2.524 1.98.348 2.595-.481 2.996-2.042 1.936-7.59 3.969-15.313 5.94-22.778l2.337-8.848c.267-.99.312-2.042.151-3.291-1.204-8.713-2.292-15.919-3.442-22.662-.954-5.672-1.739-11.407-2.399-16.33l-.295-2.221c-.205-1.694-.392-3.38-.588-5.03-.366-3.157-.776-6.733-1.311-10.265a52.298 52.298 0 0 0-.535-2.854c-1.071-5.066-2.845-9.971-4.576-14.725l-.24-.678a622.908 622.908 0 0 1-1.374-3.817c-1.106-3.193-2.203-6.475-3.175-9.373l-.053-.143c-2.979-8.856-6.065-18.016-9.847-26.774l-.829-1.935c-.654-1.487-.422-2.812.696-3.978l.107-.116c1.213-1.266 2.524-2.497 3.674-3.585 1.249-1.168 2.524-2.364 3.728-3.63l.535.526s.125.464.286 1.204l-.687.625c-.696.642-1.365 1.266-2.025 1.881l-.169.152a280.297 280.297 0 0 1-4.442 4.067c-.802.74-.454 1.48-.249 1.935l.972 2.159c1.578 3.496 3.211 7.09 4.646 11.014-.017.018-.035.027-.053.036l.214.392.401 1.106.018-.027c.018.107.054.232.098.357 4.246 11.871 8.553 25.133 13.548 41.721.258.857.499 1.749.722 2.694a.933.933 0 0 1 .054.214l.053.241c.464 2.319.981 5.752 1.418 8.909h-.053l.071.152c.071.517.134 1.026.205 1.516v.027c.045.437.089.874.116 1.302v.08c-.009.072.214 1.178.214 1.178.072.544.125 1.043.187 1.489.027.214.045.41.072.598l.08.642c0 .107.009.214.027.321l.258 1.855c-.053.348-.044.678.018.999a6433.045 6433.045 0 0 1 5.307 33.409c.553 3.568.901 7.394-.268 11.255-.49 1.615-.918 3.282-1.329 4.888l-.196.785c-.669 2.559-1.311 5.128-1.962 7.688l-.696 2.782a1993.646 1993.646 0 0 1-3.469 13.601c-.205.767-.187 1.267.063 1.677.294.455.793.633 1.516.776 8.624 1.766 16.294 4.129 23.447 7.233 12.967 5.636 23.545 10.916 33.293 16.624.446.25.803.419 1.159.419a.988.988 0 0 0 .402-.08c.455-.196.66-.687.829-1.356l.865.223c-.035.125-.071.241-.098.366-.294 1.133-.348 2.301 1.249 3.104 1.222.624 2.372 1.409 3.478 2.167l.08.053c1.249.839 2.542 1.713 3.96 2.399Z"></path><path fill="#FD3" d="M231.975 165.055c.509 2.47.446 5.003.348 7.197-.107 2.248-.374 4.87-1.534 7.233-1.186 2.435-2.702 3.157-5.396 2.551-.329-.062-.659-.134-.998-.187-.027-.018-.045-.045-.072-.072l-.606-.597.035.018c1.463.918 2.935 1.177 4.165.758 1.24-.411 2.23-1.463 2.854-3.042 1.053-2.675 1.16-5.52 1.187-8.686a25.246 25.246 0 0 0-.464-5.209c-.366-1.908-.919-3.915-1.784-6.519l-.053-.143c-.09-.321-.25-.901-.803-1.124a15.63 15.63 0 0 0-.571-1.088l.767-.446c.303.526.598 1.124.865 1.757l-.303.036.259.669c.749 1.998 1.596 4.388 2.104 6.894Z"></path><path fill="#FD3" d="M232.324 172.25c.098-2.194.16-4.726-.348-7.197-.508-2.506-1.356-4.896-2.105-6.894l-.258-.669.303-.036c2.988 6.859 4.183 19.318-.054 23.617-.74.758-1.846 1.436-3.433 1.436-.857 0-1.864-.205-3.024-.714l.072-.802a1.262 1.262 0 0 1-.206-.232c2.524 1.248 4.531 1.141 5.958-.312 3.764-3.818 2.943-16.313-.374-23.216.552.223.713.803.802 1.124l.054.143c.865 2.604 1.418 4.611 1.783 6.519.33 1.641.5 3.586.464 5.209-.027 3.166-.134 6.011-1.186 8.687-.624 1.578-1.614 2.631-2.854 3.041-1.231.419-2.702.16-4.165-.758-.018-.009-.027-.009-.036-.018l.607.598a.5.5 0 0 0 .071.071c.339.053.669.125.999.187 2.694.607 4.21-.116 5.396-2.551 1.159-2.363 1.427-4.985 1.534-7.233Z"></path><path fill="#FD3" d="M228.849 157.231c3.317 6.903 4.138 19.398.374 23.216-1.427 1.453-3.434 1.56-5.957.312h-.009c-.25-.357-.304-.758-.321-1.124-.322-6.966-1.249-13.779-2.257-20.718a2.7 2.7 0 0 1-.027-.366c0-1.052.848-1.204 1.311-1.284 1.374-.223 2.792-.169 3.934-.134h.24c.687.027 1.409.036 2.105.009h.107c.196 0 .366.036.5.089Z"></path><path fill="#FD3" d="M229.055 155.27v.428l-.776.446c.196.348.393.704.571 1.088a1.342 1.342 0 0 0-.499-.089h-.107c-.696.026-1.419.018-2.105 0h-.241c-1.142-.045-2.56-.098-3.933.125-.464.08-1.311.231-1.311 1.284 0 .116.009.232.027.365 1.007 6.939 1.935 13.753 2.256 20.718.018.366.071.767.321 1.115a6.892 6.892 0 0 1-.508-.267l-.428.785-.241.026-.054-.419-.044-.294c-.152-1.222-.313-2.488-.428-3.728-.393-4.147-.874-8.357-1.338-12.433l-.5-4.343a12.498 12.498 0 0 0-.356-1.82c-.188-.749-.339-1.444-.188-1.676.188-.295 1.124-.482 1.516-.562 2.667-.508 5.468-.758 8.366-.749Z"></path><path fill="#FD3" d="M223.341 182.703c.446 2.506.642 4.754.607 6.885-.214 14.894-1.062 29.664-1.945 43.398-.57 8.928-1.703 17.945-2.8 26.658l-.107.865c-.232 1.855-.473 3.71-.696 5.574-.044.366-.062.634-.044.857l-.098.026c-.134.027-.268.063-.402.089.054-1.293.17-2.613.304-3.977.24-2.578.526-5.503.169-8.375-1.846-14.769-4.013-29.752-6.109-44.236l-.259-1.784c-1.275-8.767-2.586-17.828-3.808-26.756-.054-.348-.098-.713-.143-1.079-.187-1.605-.401-3.425-1.159-5.111a3402.425 3402.425 0 0 0-4.281-9.516l-.054-.142c-.071-.223-.196-.598-.571-.776-.151-.063-.303-.081-.472-.063a158.47 158.47 0 0 0-.143-5.173l.41-.205c.741 1.463 1.427 2.952 2.096 4.415l.107.223c.295.651.598 1.302.901 1.944.375.794.714 1.623 1.035 2.435l.071.17c.526 1.337 1.07 2.72 1.801 4.004 1.775 3.139 2.23 6.511 2.614 10.274.472 4.736 1.23 9.543 1.89 13.788.411 2.605.874 5.637 1.267 8.545.321 2.434.66 4.869.99 7.304l.098.722c.847 6.217 1.908 13.958 2.729 21.307.152 1.329.321 2.667.482 4.013l.356 2.801.607-.152c1.025-.25.99-1.133.972-1.578-.009-.099-.018-.197 0-.277.571-5.333.829-10.756 1.088-16.009l.045-1.034c.142-2.926.285-5.958.49-8.919.321-4.861.571-9.802.803-14.582l.205-4.04c.089-1.695.169-3.389.268-5.093.16-3.005-.215-6.082-.571-8.829l.241-.027c.374.205.731.384 1.079.526l-.072.812v.098h.009Z"></path><path fill="#FD3" d="m223.473 180.99-.072.802a10.824 10.824 0 0 1-1.079-.526l.428-.785c.17.099.339.188.509.268h.009c.053.089.124.169.205.241ZM201.737 159.863l-.41.205-.892.035c.098 2.105.143 4.094.16 5.931-.231-1.587-.615-3.478-1.141-5.725-.178-.821-.5-1.329-.963-1.552-.616-.304-1.285-.063-1.873.196-2.328 1.124-4.611 2.203-6.948 3.175-1.15.473-1.685 1.15-1.685 2.14 0 .259.035.544.107.857 1.328 5.823 2.202 11.763 2.952 17.302.053.446.196.829.419 1.168-.196-.116-.384-.232-.571-.339-.232-.143-.464-.276-.678-.401l-.446.776-.205.027a288.756 288.756 0 0 0-1.801-12.692l-.348-2.265-.063-.401c-.214-1.356-.437-2.765-.74-4.121-.285-1.329.294-1.935 1.445-2.595 3.764-2.167 7.179-3.835 10.461-5.102.946-.374 1.213-.294 1.65.464a56.626 56.626 0 0 1 1.57 2.917Z"></path><path fill="#FD3" d="M201.468 165.241c.133 11.71-1.276 18.301-4.29 20.094a3.671 3.671 0 0 1-1.945.535c-1.123 0-2.265-.455-3.299-.999h.116c.053-.009.08-.009.107-.009.098-.009.231-.027.383.018.954.357 1.775.58 2.479.66.812.107 1.481.018 2.034-.241 1.034-.481 1.828-1.659 2.506-3.683 1.579-4.754 1.98-9.891 1.24-15.706l-.063-.428.402-.161c.116-.044.232-.071.33-.08Z"></path><path fill="#FD3" d="M201.329 160.068c.08 1.828.125 3.549.143 5.172a1.247 1.247 0 0 0-.33.081l-.402.16.063.428c.74 5.815.339 10.952-1.24 15.706-.678 2.024-1.472 3.202-2.506 3.683-.553.259-1.222.348-2.034.241h.348c.303 0 .607-.044.919-.134 1.133-.339 2.06-1.355 2.747-3.023 1.543-3.782 1.748-7.893 1.837-12.486.036-1.035-.053-2.31-.276-3.871a161.236 161.236 0 0 0-.161-5.931l.892-.035v.009Z"></path><path fill="#FD3" d="M200.599 166.033c.223 1.561.313 2.836.277 3.871-.089 4.593-.294 8.704-1.837 12.486-.687 1.668-1.615 2.684-2.747 3.023-.312.09-.616.134-.919.134-.116 0-.232 0-.348-.018-.838-.08-1.739-.463-2.756-1.141a2.849 2.849 0 0 1-.802-.794c1.676.981 3.639 1.944 5.262.972 2.631-1.57 3.933-7.795 3.87-18.533Z"></path><path fill="#FD3" d="M200.597 166.035c.063 10.738-1.239 16.963-3.87 18.533-1.624.972-3.586.009-5.262-.972a2.665 2.665 0 0 1-.42-1.168c-.749-5.539-1.623-11.479-2.952-17.303a3.884 3.884 0 0 1-.107-.856c0-.99.535-1.667 1.686-2.14 2.337-.972 4.62-2.051 6.948-3.175.588-.259 1.257-.5 1.872-.196.464.223.785.731.964 1.551.526 2.248.909 4.139 1.141 5.726ZM198.634 263.596c.098 2.274.08 4.548.054 7.072a170.64 170.64 0 0 0-.027 3.068l-.83.348a128.36 128.36 0 0 1-.249-1.953l-.018-.152c-.152-1.213-.303-2.479-.598-3.701-2.72-11.353-5.636-21.753-8.918-31.804a222.148 222.148 0 0 0-1.392-4.076c-1.302-3.763-2.648-7.643-3.442-11.594-2.39-11.996-5.021-23.081-8.045-33.882-.553-1.9-1.65-2.756-3.674-2.863h-.125a82.918 82.918 0 0 0-.321-1.873l.089-.66c1.231.232 2.506.58 3.835 1.035.446.152.606.446.865 1.088 2.221 5.717 3.639 11.773 5.012 17.632l.375 1.623c1.534 6.547 2.649 12.576 3.398 18.408.232 1.757.928 3.363 1.543 4.781.241.526.446 1.017.633 1.489 2.64 6.654 5.039 13.985 7.554 23.064.143.508.295 1.017.446 1.525l1.115 3.755-.027-3.916c-.044-7.331-.829-14.385-1.587-20.325-.366-2.863-.964-5.717-1.534-8.491-.473-2.31-.972-4.7-1.329-7.09-.286-1.918-.268-3.942-.25-5.913v-.08c.009-.589.018-1.178.009-1.766-.045-7.795-.58-15.947-1.632-24.687l.205-.027c.214.116.437.25.669.393.455.267.963.57 1.498.847h-.41l-.062.785a2.964 2.964 0 0 0 0 .49c.998 8.981 1.435 17.9 1.284 26.506-.009.393.018.767.089 1.124 1.953 9.16 3.246 17.686 3.96 26.06.08.937.16 1.864.25 2.801.089 1.017.178 2.033.267 3.086.526 5.85 1.07 11.906 1.32 17.873Z"></path><path fill="#FD3" d="M195.023 185.532c-.705-.071-1.525-.294-2.48-.651-.151-.045-.285-.027-.383-.018-.027 0-.054 0-.107.009h-.116c-.535-.276-1.044-.58-1.499-.847a13.659 13.659 0 0 0-.668-.393l.445-.776c.215.125.446.259.678.402.188.107.375.223.571.339.196.303.464.562.803.793 1.016.678 1.917 1.062 2.756 1.142ZM175.653 262.72c1.364 8.062 1.944 14.823 1.819 21.262a31.189 31.189 0 0 1-.268-1.347c-.017-.125-.044-.258-.071-.392-.027-.143-.044-.286-.08-.437-.143-.74-.268-1.49-.401-2.239l-.107-.66c-.446-2.693-.901-5.485-2.034-8.009-2.925-6.484-5.806-13.128-8.589-19.549l-.285-.66c-1.48-3.416-2.97-6.841-4.459-10.248a1808.978 1808.978 0 0 0-7.251-16.267l-2.078-4.629c-.027-.063-.054-.134-.08-.196l-.054-.134c-.125-.375-.321-.946-.883-1.276l-.178-.053-.179.196s-.044.063-.062.08l-.098.125h-.009c-.259-1.195-.464-1.971-.5-2.122l-.865.232-.535-.527a33.65 33.65 0 0 0 1.213-1.329c.776-.9 1.079-.972 1.133-.963.098.009.348.196.865 1.285a932.085 932.085 0 0 1 6.118 12.807c4.558 9.739 8.731 19.808 12.772 29.547l.303.731c.223.518.499 1.115.918 1.659l.866 1.115.133-1.409c.143-1.561-.151-3.068-.419-4.406l-.205-1.141c-.196-1.169-.392-2.337-.589-3.496-.196-1.151-.383-2.293-.579-3.434l-.045-.294c-1.364-8.161-2.783-16.607-4.325-24.892-.999-5.45-1.855-11.006-2.658-16.473l.981-.143c.41.205.803.357 1.177.482l.107 1.213c.054.633.098 1.177.187 1.721l.464 2.649c.651 3.674 1.32 7.465 2.016 11.193 1.623 8.66 3.041 17.355 4.477 26.256.856 5.244 1.561 9.615 2.337 14.172Z"></path><path fill="#FD3" d="M172.033 193.566c.017-1.053-.09-2.863-.455-4.807-.304-1.695-.571-2.908-.972-3.755a73.286 73.286 0 0 0-.429-2.649l.874-.169c.027.142.152.82.322 1.872l-.607-.026.161.713c.089.393.178.74.258 1.053l.152.624c1.293 5.726 1.222 10.809-.196 15.536-.33 1.115-.839 1.998-1.552 2.711-.785.776-1.65.973-2.774.634l-.785-.25.036.464a8.873 8.873 0 0 1-1.177-.482l.392-.803c.321.161.624.286.919.384.009.009.018.009.018.009.196.169.428.303.704.41.348.143.696.214 1.026.214.571 0 1.079-.214 1.525-.642.749-.705 1.141-1.596 1.454-2.453.891-2.515 1.088-5.146 1.106-8.588Z"></path><path fill="#FD3" d="M171.575 188.759c.366 1.944.473 3.754.455 4.807-.018 3.442-.214 6.073-1.106 8.588-.312.857-.705 1.749-1.454 2.453-.446.428-.954.642-1.525.642-.33 0-.678-.071-1.026-.214a2.372 2.372 0 0 1-.704-.41c1.222.41 2.185.321 2.961-.268 3.469-2.648 2.221-14.109 1.427-19.353.401.847.669 2.06.972 3.755Z"></path><path fill="#FD3" d="M171.138 201.959c1.418-4.727 1.489-9.811.196-15.537l-.152-.624c-.08-.312-.169-.66-.258-1.052l-.161-.714.607.027c.793 4.905 2.425 17.891-1.65 21.003-.616.473-1.32.705-2.123.705-.482 0-.99-.08-1.534-.25l-.036-.464.785.25c1.124.339 1.989.143 2.774-.633.713-.714 1.222-1.596 1.552-2.711Z"></path><path fill="#FD3" d="m171.14 181.526-.089.66-.874.17c.009.044.196 1.061.428 2.648-.856-1.864-2.328-1.962-6.136-1.596-.544.053-1.079.152-1.392.562-.312.41-.276.945-.205 1.418.955 6.029 1.811 11.978 2.631 17.721l.027.205c.08.562.294.981.669 1.302a7.053 7.053 0 0 1-.919-.383l-.392.803-.981.142c-.259-1.73-.5-3.451-.749-5.155-.312-2.203-.633-4.405-.955-6.608-.312-2.061-.49-4.174-.66-6.226l-.017-.223c-.116-1.346-.232-2.729-.375-4.102-.045-.348-.009-.393.455-.571 3.006-1.142 6.1-1.4 9.534-.767Z"></path><path fill="#FD3" d="M170.605 185.005c.794 5.244 2.043 16.705-1.427 19.354-.775.588-1.739.677-2.961.267 0 0-.008 0-.017-.009-.375-.321-.589-.74-.669-1.302l-.027-.205c-.821-5.744-1.677-11.692-2.631-17.721-.071-.473-.107-1.008.205-1.418.312-.411.847-.509 1.391-.562 3.809-.366 5.28-.268 6.136 1.596ZM149.958 219.858c1.142 4.139 1.632 8.214 1.445 12.103-.125 2.595-.865 4.834-2.23 6.68 3.122-6.127 1.927-12.022.669-18.239l-.107-.544c-.089-.446-.178-.883-.267-1.337l-.188-.973-.053.054a24.321 24.321 0 0 0-.286-1.204l.866-.232c.035.152.24.928.499 2.114l-.143-.081-.232-.223-.133.295c-.268.571-.045 1.061.08 1.355.027.09.053.161.08.232Z"></path><path fill="#FD3" d="M151.401 231.962c.187-3.888-.303-7.964-1.445-12.102-.027-.072-.054-.143-.08-.232-.125-.294-.348-.785-.081-1.356l.134-.294.232.223.143.08c1.124 5.28 3.318 18.676-2.658 21.976l-.214-.393-.161-.428c5.664-3.219 2.917-17.57 1.954-21.833l.053-.053.187.972c.09.455.179.892.268 1.338l.107.544c1.258 6.216 2.453 12.111-.669 18.238 1.365-1.846 2.105-4.084 2.23-6.68Z"></path><path fill="#FD3" d="M149.228 217.603c.963 4.263 3.71 18.613-1.953 21.832-1.436-3.924-3.068-7.518-4.647-11.014l-.972-2.158c-.205-.455-.553-1.196.25-1.936a280.31 280.31 0 0 0 4.441-4.067l.17-.151c.66-.616 1.329-1.24 2.024-1.882l.687-.624ZM147.27 239.434l.161.428-.214-.393s.035-.018.053-.035ZM118.081 332.859l46.083 35.879-1.151 4.799-46.439-36.094-.375-3.523s0-1.231.375-1.061c.374.169 1.507 0 1.507 0ZM229.422 426.817l37.235 29.44.66 1.722 4.566.561.759-2.015-1.499-1.4-40.16-32.232-1.561 3.924Z"></path><path stroke="#1C1C1E" stroke-miterlimit="10" stroke-width="1.5" d="m164.297 369.024-45.77-35.853c-.99-.794-2.453.018-2.292 1.284l12.504 103.1 142.288 20.976c1.435.214 2.22-1.605 1.096-2.515l-55.34-44.263"></path><path stroke="#1C1C1E" stroke-miterlimit="10" stroke-width="1.5" d="m162.475 372.769-43.674-33.766s-1.588-1.382-2.221-.731M214.305 414.92l51.719 40.785s1.703 1.231 1.222 1.989"></path><path stroke="#1C1C1E" stroke-width="1.5" d="m327.076 384.561-32.285 70.234c-.553 1.204.053 1.953 1.346 1.668l65.526-14.154.267-.054 22.743-4.905 9.507-2.051 4.281-.919c1.284-.285 2.791-1.48 3.335-2.684l.562-1.231 16.509-35.906.017-.054 26.623-57.918c.115-.258.187-.481.196-.704.009-.089 0-.196-.009-.286 0-.089-.036-.169-.063-.249a.613.613 0 0 0-.062-.116c-.018-.027-.036-.063-.071-.089-.206-.223-.58-.33-1.062-.277l-.249.054-60.522 12.896"></path><path stroke="#1C1C1E" stroke-width="1.5" d="m384.648 351.482 58.257-12.54s1.257-.16 1.748.33M328.835 389.386l-30.154 64.847s-.437 1.195-.062 1.775"></path><path fill="#E4FFB5" stroke="#1C1C1E" stroke-linecap="round" stroke-linejoin="round" stroke-width="1.5" d="M267.261 98.887a3.946 3.946 0 0 1-2.649-1.025 3.889 3.889 0 0 1-1.257-2.542l-2.908-33.846a3.91 3.91 0 0 1 .972-2.756 3.953 3.953 0 0 1 2.613-1.32 3.937 3.937 0 0 1 2.801.856 3.915 3.915 0 0 1 1.427 2.55l2.907 33.847a3.96 3.96 0 0 1-.169 1.516c-.152.49-.41.945-.74 1.338-.33.392-.741.713-1.195.954a3.85 3.85 0 0 1-1.463.428h-.339ZM235.503 121.63a3.94 3.94 0 0 1-2.756.696 3.962 3.962 0 0 1-2.506-1.356l-21.967-25.864a3.807 3.807 0 0 1-.82-1.346 4.035 4.035 0 0 1-.232-1.561 3.963 3.963 0 0 1 1.382-2.765 3.883 3.883 0 0 1 1.383-.758 3.897 3.897 0 0 1 1.569-.151 3.835 3.835 0 0 1 1.499.472c.463.259.865.607 1.195 1.026l21.966 25.908c.339.393.589.848.749 1.338.161.491.223 1.008.179 1.516a3.865 3.865 0 0 1-1.374 2.667c-.089.071-.178.152-.276.214v-.044l.009.008ZM305.094 114.798a3.984 3.984 0 0 1-2.069-1.953 3.95 3.95 0 0 1-.205-2.836l9.971-32.473a3.884 3.884 0 0 1 1.927-2.238 3.921 3.921 0 0 1 2.943-.259 3.943 3.943 0 0 1 2.292 1.864c.49.9.615 1.953.339 2.934l-9.971 32.473a3.913 3.913 0 0 1-1.918 2.31 3.914 3.914 0 0 1-2.987.285l-.322-.107Z"></path><path fill="#fff" d="m413.589 404.512-.357.633v.018c-.312.669-10.14 22.199-11.095 24.214-.972 2.052-1.373 3.907-3.906 4.397-.562.107-1.579.321-1.579.321l-65.177 14.056c-2.845-10.845-11.327-32.981-14.68-42.783 2.863.83 6.279 1.258 8.963.964 5.182-.589 10.078-1.847 14.975-3.523 16.008-5.503 31.277-12.522 46.341-20.183 3.826-1.828 7.607-3.122 10.212-6.511 1.89 3.327 4.441 7.768 6.162 10.979 6.333 11.175 4.112 7.055 10.141 17.418Z"></path><path fill="#0A0A0A" d="M330.511 402.353c.286.874.045 1.257-.847 1.409-1.837.285-3.657.571-5.529.544-1.775-.027-3.586.053-5.298-.678-1.017-.437-1.026-.874-.33-1.641 2.069-2.239 4.638-3.755 7.251-5.235 2.818-1.588 2.818-1.597 3.639 1.516.356 1.356.686 2.729 1.105 4.085h.009Z"></path><path fill="#fff" d="M231.686 417.764c-1.338 7.019-3.523 13.022-4.789 20.041-.633 3.54-1.953 9.444-2.551 13.003l-84.192-12.254.964-5.039c5.663-15.376 9.632-31.251 13.556-47.162l-.036-.294.785-4.103h4.013l32.964 9.605 29.315 16.215.33.936c2.988 1.641 5.913 3.371 8.731 5.235.696.464 1.133 2.712.91 3.817Z"></path><path fill="#0A0A0A" d="M150.206 217.586c.08.125.16.25.232.366-.054.08-.107.133-.161.205-.098-.081-.25-.161-.25-.259s.107-.223.179-.312Z"></path><path fill="#fff" d="m150.83 217.959-.107.17h-.009c-.045.071-.089.125-.125.178l-.071.089-.152.179-.08-.045-.232-.125s-.036-.026-.054-.044c-.16-.116-.303-.25-.303-.464 0-.196.107-.339.205-.464l.286-.374.294.338-.276.188.294-.17c.08.125.16.25.232.366l.098.178Z"></path><path fill="#FBF7EF" d="M271.802 343.249a2.715 2.715 0 0 1-.027.089c.009-.027.018-.053.027-.089Z"></path><path fill="#0A0A0A" d="M309.847 289.256a328.646 328.646 0 0 0-5.664-3.595l-.758-.472c-.945-.589-1.9-1.186-2.836-1.784-1.543-.954-2.979-1.159-4.798-.678l-.767.214c-1.133.304-2.257.607-3.389.919l-.473.134c-2.515.677-5.119 1.391-7.679 2.051-1.703.437-2.783 1.579-3.924 2.783l-.116.124c-.089.09-.17.277-.223.411l-.036.062c-.116.232-.241.491-.463.723-5.949 5.752-11.086 10.015-16.17 13.422-1.748 1.16-3.657 1.275-5.538.33-3.764-1.891-6.145-5.217-6.903-9.623-.696-4.147-1.222-8.393-1.722-12.495l-.071-.589a429.254 429.254 0 0 0-.607-4.905c-1.792-14.083-2.827-26.569-3.175-38.154-.41-13.512-.223-28.192.571-44.879.134-2.8-.107-4.914-.776-6.867-.793-2.363-1.445-4.807-2.069-7.171l-.74-2.764c-1.891-6.93-3.719-13.129-6.867-18.863-.794-1.445-1.891-2.176-3.354-2.257-3.701-.187-7.26.045-10.613.687-.392.08-1.329.268-1.516.562-.152.232 0 .928.187 1.677.178.669.294 1.266.357 1.819l.499 4.343c.464 4.076.946 8.286 1.338 12.433.116 1.24.277 2.506.428 3.728l.045.294c.374 2.854.794 6.092.624 9.249-.098 1.703-.178 3.398-.267 5.093l-.206 4.04c-.231 4.78-.481 9.721-.802 14.582-.205 2.961-.348 5.993-.491 8.918l-.044 1.035c-.259 5.253-.518 10.675-1.088 16.009a.943.943 0 0 0 0 .276c.017.446.053 1.329-.973 1.579l-.606.152-.357-2.801c-.16-1.347-.33-2.684-.481-4.013-.821-7.349-1.882-15.091-2.73-21.307l-.098-.722c-.33-2.435-.669-4.87-.99-7.305-.392-2.907-.856-5.94-1.266-8.544-.66-4.245-1.418-9.052-1.891-13.788-.383-3.764-.838-7.135-2.613-10.274-.731-1.285-1.275-2.667-1.801-4.005l-.072-.169a41.802 41.802 0 0 0-1.034-2.435c-.304-.642-.607-1.293-.901-1.944l-.107-.223c-1.124-2.444-2.292-4.968-3.666-7.331-.437-.758-.704-.839-1.65-.464-3.282 1.266-6.698 2.934-10.461 5.101-1.151.66-1.73 1.267-1.445 2.596.303 1.355.526 2.764.74 4.12l.063.401c.116.759.231 1.517.347 2.266 2.248 13.708 3.372 25.926 3.434 37.378.009.588 0 1.177-.009 1.766v.08c-.018 1.971-.035 3.995.25 5.913.357 2.39.856 4.78 1.329 7.09.571 2.774 1.168 5.628 1.534 8.491.758 5.94 1.543 12.994 1.587 20.325l.027 3.916-1.115-3.755c-.151-.508-.303-1.017-.446-1.525-2.515-9.079-4.914-16.41-7.554-23.064a30.516 30.516 0 0 0-.633-1.489c-.615-1.418-1.311-3.024-1.543-4.781-.749-5.832-1.864-11.861-3.398-18.408l-.375-1.623c-1.373-5.859-2.791-11.915-5.012-17.632-.258-.642-.419-.936-.865-1.088-5.048-1.739-9.293-1.819-13.369-.268-.464.179-.499.223-.455.571.143 1.374.259 2.756.375 4.103l.018.223c.169 2.051.347 4.165.66 6.225.321 2.203.642 4.406.954 6.609 1.026 7.108 2.087 14.457 3.407 21.627 1.543 8.286 2.961 16.732 4.325 24.892l.045.295c.196 1.141.383 2.283.58 3.433l.588 3.496.205 1.142c.268 1.338.562 2.845.42 4.406l-.134 1.409-.865-1.115c-.419-.544-.696-1.141-.919-1.659l-.303-.731c-4.04-9.739-8.214-19.808-12.772-29.548a926.007 926.007 0 0 0-6.118-12.807c-.517-1.088-.767-1.275-.865-1.284-.053-.009-.357.062-1.133.963-1.551 1.784-3.273 3.398-4.94 4.959-1.151 1.088-2.462 2.319-3.675 3.585l-.107.116c-1.118 1.166-1.35 2.491-.696 3.978l.83 1.935c3.781 8.758 6.867 17.918 9.846 26.774l.054.143c.972 2.898 2.069 6.18 3.175 9.373.454 1.276.909 2.542 1.373 3.817l.241.678c1.73 4.754 3.505 9.659 4.575 14.725.205.945.384 1.9.535 2.854.535 3.532.946 7.108 1.311 10.265.196 1.65.384 3.336.589 5.03l.294 2.221c.66 4.923 1.445 10.658 2.399 16.33 1.151 6.743 2.239 13.949 3.443 22.662.16 1.249.116 2.301-.152 3.291l-2.336 8.848c-1.971 7.465-4.005 15.188-5.94 22.778-.402 1.561-1.017 2.39-2.997 2.042-2.898-.499-3.005-.428-3.755 2.524-3.38 13.155-6.787 26.524-10.087 39.456l-4.682 16.348s.696-.713 1.097 0c4.665-13.119 10.685-36.852 15.197-55.09.339-1.365.892-1.945 1.864-1.945.366 0 .767.081 1.142.17 11.648 2.551 24.277 6.118 35.559 11.585 10.488 5.084 23.411 11.22 36.102 19.701.723.482 1.677 1.686 1.391 3.131-.874 4.647-7.518 34.729-7.518 34.729-.321 1.811 1.534-1.632 1.213.178l1.338-7.143c1.052-4.852 2.131-9.873 3.451-14.814l.491-1.802c1.124-4.138 2.283-8.419 2.667-12.78l.026-.286c.107-1.07.072-1.462-.365-1.658-1.418-.687-2.712-1.561-3.96-2.4l-.081-.053c-1.105-.758-2.256-1.543-3.478-2.167-1.596-.803-1.543-1.971-1.248-3.104 1.435-5.637 3.094-11.55 4.432-16.303l1.044-3.719c.508-1.891 1.498-3.256 3.103-4.281 1.927-1.249 3.844-2.506 5.762-3.764 4.521-2.97 8.945-5.86 13.351-8.571 5.387-3.3 10.319-6.029 15.081-8.33 2.471-1.195 4.13-2.577 4.219-5.449.027-.571.178-1.115.321-1.597l.027-.089a4.31 4.31 0 0 0 .089-.348c6.76-26.31 19.442-46.091 38.769-60.486.714-.544 1.088-1.123 1.07-1.685-.026-.58-.446-1.151-1.221-1.65ZM191.041 182.428c-.749-5.538-1.623-11.478-2.952-17.302a3.892 3.892 0 0 1-.107-.856c0-.99.536-1.668 1.686-2.141 2.337-.972 4.62-2.051 6.948-3.175.588-.258 1.257-.499 1.873-.196.463.223.784.731.963 1.552 1.052 4.459 1.498 7.509 1.418 9.596-.089 4.594-.294 8.705-1.837 12.487-.687 1.667-1.615 2.684-2.747 3.023a3.334 3.334 0 0 1-.919.134c-.928 0-1.944-.384-3.104-1.16-.731-.499-1.114-1.123-1.222-1.962Zm-25.516 20.888-.026-.205c-.821-5.744-1.677-11.693-2.631-17.722-.072-.472-.107-1.008.205-1.418.312-.41.847-.508 1.391-.562 5.538-.526 6.136-.08 7.108 5.351.366 1.945.473 3.755.455 4.808-.018 3.442-.214 6.073-1.106 8.588-.312.856-.705 1.748-1.454 2.453-.446.428-.954.642-1.525.642a2.7 2.7 0 0 1-1.025-.214c-.83-.33-1.267-.865-1.392-1.721Zm123.55 106.8c-1.186 1.686-2.462 3.488-3.71 5.343l-.125.16c-3.496 5.128-6.332 10.747-9.07 16.179-2.943 7.384-4.165 10.863-4.37 11.451a.988.988 0 0 1-.027.089h-.009c-1.382 4.308-2.337 8.045-2.925 11.568-.25 1.632-1.026 2.72-2.453 3.433l-2.586 1.303c-1.276.642-2.56 1.284-3.826 1.944-9.213 4.852-17.633 10.461-24.66 15.313-2.257 1.552-4.299 3.461-6.27 5.298l-.402.366c-1.917 1.792-3.79 3.683-5.609 5.502l-1.811 1.838s-.08.071-.125.107c-.026.026-.062.053-.098.089-.383.33-.419.401-.366.49a.418.418 0 0 0 .108-.08l.08-.045c.151-.107.339-.231.562-.276l.749-.205c1.685-.455 2.952-.624 3.648.062.677.678.552 1.882.151 3.479l-.999 3.861a357.532 357.532 0 0 0-1.899 7.554c-.17.669-.375 1.16-.83 1.356a.967.967 0 0 1-.401.08c-.357 0-.714-.169-1.16-.419-9.748-5.708-20.325-10.988-33.293-16.624-7.153-3.104-14.823-5.467-23.447-7.233-.722-.143-1.222-.321-1.516-.776-.25-.41-.268-.91-.062-1.677 1.168-4.504 2.309-8.999 3.469-13.601l.696-2.782c.651-2.56 1.293-5.129 1.962-7.688l.196-.785c.41-1.605.838-3.273 1.329-4.888 1.168-3.861.82-7.687.267-11.255-1.4-8.999-2.987-18.997-5.306-33.409a2.854 2.854 0 0 1-.018-.999l-.259-1.855a1.932 1.932 0 0 1-.027-.321l-.08-.642c-.027-.188-.044-.384-.071-.598-.063-.446-.116-.945-.187-1.489 0 0-.223-1.106-.206-1.178v-.08c-.035-.428-.08-.865-.124-1.302v-.027c-.072-.49-.134-.999-.206-1.516l-.071-.151h.054c-.437-3.158-.955-6.591-1.418-8.91l-.054-.241a.933.933 0 0 0-.054-.214 44.071 44.071 0 0 0-.722-2.693c-4.994-16.589-9.302-29.851-13.547-41.722a2.054 2.054 0 0 1-.098-.357l-.018.027-.402-1.106c-1.48-4.084-3.175-7.821-4.807-11.442l-.972-2.159c-.205-.455-.553-1.195.25-1.935a284.77 284.77 0 0 0 4.441-4.067l.17-.152c.66-.615 1.329-1.239 2.024-1.881l.741-.678.187.972c.089.455.178.892.267 1.338l.107.544c1.258 6.216 2.453 12.111-.668 18.238 1.364-1.846 2.104-4.084 2.229-6.68.187-3.888-.303-7.964-1.445-12.102-.026-.072-.053-.143-.08-.232-.125-.294-.348-.785-.08-1.356l.134-.294.231.223.152.089.098-.125s.036-.044.063-.08l.178-.196.178.053c.562.33.758.901.883 1.276l.054.133c.027.063.053.134.08.197l2.078 4.628c2.194 4.87 4.772 10.614 7.251 16.268a3637.34 3637.34 0 0 1 4.459 10.247l.286.66c2.782 6.422 5.663 13.066 8.588 19.55 1.133 2.524 1.588 5.316 2.034 8.009l.107.66c.134.749.258 1.498.401 2.239.036.151.054.294.08.437.027.133.054.267.072.392.089.508.178.945.267 1.347.125-6.439-.455-13.2-1.819-21.262-.776-4.558-1.481-8.928-2.337-14.172-1.436-8.901-2.854-17.596-4.477-26.256-.696-3.728-1.364-7.519-2.016-11.193l-.463-2.649c-.089-.544-.134-1.088-.188-1.721l-.142-1.677.785.25c1.123.338 1.988.142 2.773-.634.714-.713 1.222-1.596 1.552-2.711 1.418-4.727 1.49-9.81.196-15.536l-.151-.625a34.35 34.35 0 0 1-.259-1.052l-.16-.713.731.026c2.024.107 3.121.964 3.674 2.863 3.024 10.801 5.655 21.887 8.045 33.882.794 3.951 2.14 7.831 3.443 11.594.544 1.552.989 2.854 1.391 4.076 3.282 10.051 6.198 20.451 8.918 31.804.295 1.222.446 2.488.598 3.701l.018.152c.08.66.16 1.302.25 1.953l.829-.348c0-1.043.009-2.069.027-3.068.027-2.524.044-4.798-.054-7.072-.249-5.967-.794-12.023-1.32-17.873-.089-1.053-.178-2.069-.267-3.086-.089-.937-.17-1.864-.25-2.801-.713-8.374-2.007-16.9-3.96-26.06a5.144 5.144 0 0 1-.089-1.124c.152-8.606-.285-17.525-1.284-26.506a2.964 2.964 0 0 1 0-.49l.062-.785h.526c.054-.009.081-.009.107-.009.098-.009.232-.027.384.018 2.051.776 3.478.91 4.513.419 1.034-.482 1.828-1.659 2.506-3.683 1.578-4.754 1.98-9.891 1.239-15.706l-.062-.428.401-.161c.304-.116.562-.116.803-.018.375.179.499.553.571.776l.053.143a3276.41 3276.41 0 0 1 4.281 9.516c.758 1.686.972 3.505 1.16 5.111.044.365.089.731.142 1.079 1.222 8.927 2.533 17.989 3.809 26.756l.258 1.783c2.096 14.484 4.263 29.468 6.11 44.237.356 2.872.071 5.797-.17 8.374a70.458 70.458 0 0 0-.303 3.978c.134-.027.267-.062.401-.089l.098-.027c-.018-.223 0-.49.045-.856.223-1.864.464-3.719.696-5.574l.107-.865c1.097-8.714 2.229-17.73 2.8-26.658.883-13.735 1.73-28.504 1.944-43.398.036-2.132-.16-4.379-.606-6.885v-.098l.134-1.615c-.428-.392-.518-.9-.536-1.355-.321-6.966-1.248-13.78-2.256-20.718a2.7 2.7 0 0 1-.027-.366c0-1.052.848-1.204 1.311-1.284 1.374-.223 2.792-.17 3.933-.134h.241c.687.027 1.409.036 2.105.009h.107c.963 0 1.195.811 1.302 1.213l.054.142c.865 2.605 1.418 4.611 1.783 6.52.33 1.641.5 3.585.464 5.208-.027 3.167-.134 6.012-1.186 8.687-.624 1.579-1.614 2.631-2.854 3.042-1.231.419-2.702.16-4.165-.759-.018-.008-.027-.008-.036-.017l.607.597s.044.054.071.071c.339.054.669.125.999.188 2.694.606 4.21-.116 5.396-2.551 1.159-2.363 1.427-4.985 1.534-7.233.098-2.194.16-4.727-.348-7.197-.508-2.506-1.356-4.897-2.105-6.894l-.258-.669.713-.089c1.409-.161 2.961-.036 3.746 2.113 1.587 4.299 2.89 8.705 4.156 12.968 1.177 3.995 2.256 7.59 3.496 11.148 1.766 5.021 1.543 9.846 1.311 14.948-.981 20.245-.767 37.922.669 54.083.027.356.054.722.062 1.061l.027.294 3.086 27.817.687 4.549c.455 2.988.927 6.073 1.427 9.097.633 4.031 2.907 7.429 6.93 10.381 1.373.99 3.148 1.008 5.404.036 2.453-1.061 4.602-2.569 6.564-4.04 5.352-4.049 9.401-7.786 12.745-11.773 1.918-2.31 4.37-3.567 7.501-3.862l1.168-.116-.651.981c-2.551 3.782-4.343 7.563-5.503 11.568-.526 1.855-.767 3.55-.74 5.164.018 1.739.482 3.05 1.373 3.906.919.865 2.266 1.276 4.041 1.186.16-.009.33-.009.561-.009h1.534l-.838 1.213Zm18.051-17.132a74.003 74.003 0 0 0-8.267 6.484 68.107 68.107 0 0 0-7.037 7.411c-.954 1.177-3.166 1.801-4.852 1.801-.731 0-1.364-.115-1.828-.321-2.23-1.025-2.542-3.112-2.676-5.155.687-6.136 3.015-11.799 6.912-16.874.66-.847 1.588-1.025 2.337-1.168a5.694 5.694 0 0 0 1.008-.25c2.559-1.025 4.843-.704 7.17 1.008 1.534 1.133 3.211 2.15 4.834 3.131l.767.472c.509.312 1.017.616 1.516.937.527.312 1.071.642 1.08 1.23.008.446-.268.821-.964 1.294Z"></path><path fill="#000" d="m147.645 240.256-.428-.785c6.724-3.71 1.775-22.885 1.721-23.081l.865-.223c.214.821 5.173 20.04-2.149 24.08l-.009.009ZM167.59 205.768c-.811 0-1.721-.24-2.711-.731l.392-.803c1.659.821 2.935.857 3.898.116 4.513-3.442 1.025-21.815.99-21.993l.874-.169c.151.775 3.621 19.094-1.329 22.876-.615.472-1.32.704-2.123.704h.009ZM195.235 185.872c-1.713 0-3.434-1.035-4.799-1.846a13.659 13.659 0 0 0-.668-.393l.446-.776c.214.125.445.259.686.402 1.793 1.07 4.014 2.399 5.824 1.311 3.086-1.837 4.335-10.069 3.71-24.464l.892-.036c.642 14.957-.713 23.224-4.147 25.267a3.74 3.74 0 0 1-1.944.526v.009ZM226.422 182.509c-1.124 0-2.479-.339-4.111-1.24l.428-.785c2.764 1.525 4.949 1.516 6.475-.044 3.968-4.032 2.836-17.713-.955-24.304l.776-.446c3.577 6.235 5.441 20.665.812 25.374a4.667 4.667 0 0 1-3.434 1.436l.009.009ZM288.11 309.116c-2.542 0-4.326-.758-5.325-2.265-3.246-4.897 3.006-16.393 6.761-21.789l.731.509c-4.227 6.073-9.516 16.615-6.751 20.789 1.23 1.855 4.013 2.337 8.276 1.427l.187.874c-1.444.303-2.738.455-3.879.455Z"></path></svg>