<svg width="540" height="540" viewBox="80.288 75.108 380.719 391.727" fill="none" xmlns="http://www.w3.org/2000/svg"><path d="M196.932 362.758L211.587 345.255L219.846 349.136L226.529 358.553L210.044 375.765L197.924 366.964L196.932 362.758Z" fill="white"></path><path d="M191.172 429.403C191.172 429.403 190.378 420.121 180.857 415.133L208.642 373.4L199.903 365.253L153.754 405.272C153.754 405.272 132.039 398.214 124.985 416.461C124.985 416.461 116.793 410.921 106.775 414.116C98.0327 416.902 94.8645 423.81 94.8105 428.733C96.3364 435.418 105.054 438.706 105.054 438.706C105.054 438.706 98.5533 459.327 123.459 453.482C123.459 453.482 122.22 460.18 143.627 461.939C165.034 463.698 169.885 453.413 169.885 453.413C169.885 453.413 198.113 461.045 202.832 448.301C202.832 448.301 208.004 441.223 202.561 434.499C197.119 427.777 191.172 429.409 191.172 429.409V429.403Z" fill="#FF8080"></path><path d="M208.249 374.015L181.062 415.007" stroke="#1C1C1E" stroke-width="1.5" stroke-linecap="round" stroke-linejoin="round"></path><path d="M199.903 365.252L153.597 405.271C153.597 405.271 132.17 398.165 124.83 416.46C124.83 416.46 102.222 406.714 95.7872 423.557C91.2563 435.416 104.898 438.704 104.898 438.704C104.898 438.704 97.7905 457.756 123.304 453.479C123.304 453.479 127.586 462.497 143.627 461.937C167.292 462.247 169.989 452.79 169.989 452.79C169.989 452.79 199.482 462.343 204.147 445.149C208.19 430.252 191.016 429.407 191.016 429.407C191.016 429.407 190.093 418.483 178.1 413.968C166.109 409.452 157.609 418.663 157.609 418.663" stroke="#1C1C1E" stroke-width="1.5" stroke-linecap="round" stroke-linejoin="round"></path><path d="M156.678 443.082C156.678 443.082 145.294 424.155 118.967 435.325" stroke="#1C1C1E" stroke-width="1.5" stroke-linecap="round" stroke-linejoin="round"></path><path d="M233.977 294.143L314.241 200.059L347.962 160.536C351.699 156.1 346.181 148.642 340.959 151.165L318.169 162.174C313.221 164.564 308.822 167.953 305.246 172.127L191.862 304.426L182.235 309.304C182.193 309.323 182.151 309.341 182.109 309.359L182.04 309.389H182.046C181.832 309.503 181.647 309.641 181.499 309.817C179.62 312.058 183.979 318.818 191.243 324.915C198.506 331.012 205.919 334.137 207.802 331.896C207.946 331.722 208.049 331.52 208.125 331.294V331.3L208.149 331.219C208.158 331.177 208.173 331.136 208.18 331.092L210.499 321.982C210.467 321.896 210.431 321.806 210.398 321.715L210.659 321.829L233.977 294.143Z" fill="white" stroke="#1C1C1E" stroke-width="1.5" stroke-linecap="round" stroke-linejoin="round"></path><path d="M384.454 192.419L350.834 232.667L271.569 327.554L249.592 353.559L239.672 359.389C239.63 359.408 239.59 359.426 239.552 359.444L239.478 359.478H239.484C239.276 359.588 239.094 359.73 238.946 359.902C237.066 362.146 241.432 368.903 248.701 374.995C255.969 381.085 263.383 384.205 265.264 381.962C265.412 381.786 265.515 381.579 265.591 381.35V381.356L265.611 381.283C265.625 381.239 265.635 381.194 265.642 381.149L268.884 370.255L379.325 236.142C382.812 231.893 385.383 226.972 386.875 221.684L393.751 197.329C395.326 191.747 388.171 187.972 384.452 192.421L384.454 192.419Z" fill="white" stroke="#1C1C1E" stroke-width="1.5" stroke-linecap="round" stroke-linejoin="round"></path><path d="M210.503 346.021C210.236 340.605 209.871 332.575 210.134 327.434C210.395 322.289 213.046 319.275 213.046 319.275L219.306 311.67L392.317 108.555C392.317 108.555 415.466 81.8698 442.462 78.4041C445.859 77.9675 448.907 80.5082 449.086 83.9283C450.524 111.11 428.435 138.676 428.435 138.676L257.892 343.85L251.539 351.374C251.539 351.374 249.051 354.521 244.038 355.705C239.025 356.889 231.064 357.971 225.685 358.682C225.685 358.682 227.069 354.443 220.129 349.415C215.506 344.643 210.501 346.022 210.501 346.022L210.503 346.021Z" fill="white" stroke="#1C1C1E" stroke-width="1.5" stroke-linecap="round" stroke-linejoin="round"></path><path d="M350.831 232.668C359.163 235.456 365.371 240.618 369.452 248.154L383.556 229.847L393.736 198.049C394.762 194.845 392.948 191.171 389.636 190.58C387.878 190.266 386.15 190.85 384.453 192.42L350.831 232.668Z" fill="#FF8080"></path><path d="M295.144 183.936C302.322 183.329 308.342 190.663 313.634 199.582L348.384 159.245C350.695 154.683 348.053 151.551 340.959 151.165L309.428 167.505L295.144 183.936Z" fill="#FF8080"></path><path d="M211.211 322.71L210.492 346.02C219.663 346.954 225.932 350.211 225.685 358.684L249.344 355.01C249.795 340.484 232.228 325.454 211.211 322.71Z" fill="#D9D9D9"></path><path d="M192.66 304.099C192.66 304.099 206.778 308.4 212.561 319.924L211.208 322.71L209.158 330.768C209.158 330.768 208.636 327.512 196.062 317.262C183.486 307.013 182.479 309.489 182.479 309.489L192.66 304.099Z" fill="#D9D9D9"></path><path d="M250.359 353.559L241.076 358.756C241.076 358.756 244.048 359.902 253.881 368.562C263.714 377.222 265.682 380.284 265.682 380.284L268.885 370.255C268.885 370.255 265.652 359.697 250.359 353.559Z" fill="#D9D9D9"></path><path d="M196.425 318.479C202.337 323.44 206.11 329.089 205.5 329.677C203.779 331.331 197.927 328.966 192.02 324.004C186.109 319.043 182.537 313.516 184.099 311.712C185.013 310.654 190.518 313.519 196.43 318.48L196.425 318.479Z" fill="#1C1C1E"></path><path d="M253.878 368.563C259.79 373.525 263.563 379.174 262.952 379.762C261.231 381.416 255.38 379.05 249.472 374.089C243.561 369.127 239.989 363.601 241.55 361.796C242.465 360.738 247.969 363.603 253.881 368.565L253.878 368.563Z" fill="#1C1C1E"></path><path d="M412.137 158.001C412.137 158.001 414.299 152.288 406.428 143.828C398.559 135.367 391.66 131.478 391.66 131.478C391.66 131.478 384.839 125.249 376.835 127.509C376.835 127.509 407.021 82.432 443.173 78.0391C445.903 77.7068 448.359 79.6729 448.84 82.3816C454.576 114.652 412.137 158.001 412.137 158.001Z" fill="#FF8080"></path><path d="M233.977 294.143L314.478 199.589L347.991 160.442C351.728 156.006 346.181 148.642 340.959 151.164L318.169 162.173C313.221 164.564 308.822 167.953 305.246 172.126L191.862 304.426L182.235 309.303C182.193 309.322 182.151 309.34 182.109 309.358L182.04 309.388H182.046C181.832 309.502 181.647 309.64 181.499 309.817C179.62 312.058 183.979 318.817 191.243 324.915C198.506 331.011 205.919 334.136 207.802 331.895C207.946 331.721 208.049 331.52 208.125 331.293V331.299L208.149 331.219C208.158 331.177 208.173 331.136 208.18 331.092L212.08 320.14L233.977 294.143Z" stroke="#1C1C1E" stroke-width="1.5" stroke-linecap="round" stroke-linejoin="round"></path><path d="M383.955 192.216L350.485 232.524L311.112 280.133L271.569 327.554L249.592 353.559L239.672 359.389C239.63 359.408 239.59 359.426 239.552 359.444L239.478 359.478H239.484C239.276 359.588 239.094 359.73 238.946 359.902C237.066 362.146 241.432 368.903 248.701 374.995C255.969 381.085 263.383 384.205 265.264 381.962C265.412 381.785 265.515 381.579 265.591 381.35V381.356L265.611 381.283C265.625 381.238 265.635 381.194 265.642 381.148L268.884 370.255L379.325 236.142C382.812 231.893 385.383 226.972 386.875 221.684L393.751 197.329C395.326 191.747 387.812 187.611 384.093 192.061L383.955 192.216Z" stroke="#1C1C1E" stroke-width="1.5" stroke-linecap="round" stroke-linejoin="round"></path><path d="M207.806 331.894C209.688 329.652 205.424 323.499 198.16 317.403C190.897 311.305 183.385 307.571 181.503 309.814C179.619 312.056 183.982 318.817 191.247 324.915C198.509 331.011 205.924 334.136 207.806 331.894Z" fill="#1C1C1E" stroke="#1C1C1E" stroke-width="1.5" stroke-linecap="round" stroke-linejoin="round"></path><path d="M192.662 304.099C195.424 304.596 200.349 306.94 204.553 310.474C208.292 313.617 211.228 317.101 212.459 319.69" stroke="#1C1C1E" stroke-width="1.5" stroke-linecap="round" stroke-linejoin="round"></path><path d="M214.682 277.821C217.424 278.3 221.648 280.612 225.808 284.099C230.063 287.671 233.109 291.521 233.983 294.142" stroke="#1C1C1E" stroke-width="1.5" stroke-linecap="round" stroke-linejoin="round"></path><path d="M295.144 183.935C297.807 184.35 301.879 186.533 305.866 189.88C309.941 193.299 312.835 197.023 313.634 199.581" stroke="#1C1C1E" stroke-width="1.5" stroke-linecap="round" stroke-linejoin="round"></path><path d="M265.265 381.969C267.145 379.726 262.467 373.888 255.2 367.795C247.931 361.702 240.827 357.664 238.946 359.907C237.066 362.152 241.433 368.909 248.7 375.001C255.969 381.094 263.384 384.213 265.265 381.969Z" fill="#1C1C1E" stroke="#1C1C1E" stroke-width="1.5" stroke-linecap="round" stroke-linejoin="round"></path><path d="M269.249 369.908C268.28 367.275 265.229 363.482 261.019 359.954C256.715 356.348 252.35 353.98 249.594 353.56" stroke="#1C1C1E" stroke-width="1.5" stroke-linecap="round" stroke-linejoin="round"></path><path d="M290.677 343.394C289.726 340.779 286.719 337.019 282.557 333.532C278.302 329.964 274.601 327.666 271.867 327.263" stroke="#1C1C1E" stroke-width="1.5" stroke-linecap="round" stroke-linejoin="round"></path><path d="M369.454 248.153C368.582 245.602 365.723 241.971 361.737 238.63C357.659 235.213 353.491 233.01 350.831 232.668" stroke="#1C1C1E" stroke-width="1.5" stroke-linecap="round" stroke-linejoin="round"></path><path d="M210.503 346.021C210.236 340.605 209.871 332.575 210.134 327.434C210.395 322.289 213.046 319.275 213.046 319.275L219.306 311.67L392.317 108.555C392.317 108.555 415.466 81.8698 442.462 78.4041C445.859 77.9675 448.907 80.5082 449.086 83.9283C450.524 111.11 428.435 138.676 428.435 138.676L257.892 343.85L251.539 351.374C251.539 351.374 249.051 354.521 244.038 355.705C239.025 356.889 231.064 357.971 225.685 358.682C225.685 358.682 227.069 354.443 220.129 349.415C215.506 344.643 210.501 346.022 210.501 346.022L210.503 346.021Z" stroke="#1C1C1E" stroke-width="1.5" stroke-linecap="round" stroke-linejoin="round"></path><path d="M210.496 346.02L198.757 360.715C198.757 360.715 195.99 364.625 198.634 368.229C198.634 368.229 198.895 368.815 202.536 371.919C206.179 375.02 206.307 374.757 206.307 374.757C210.371 376.625 213.645 373.13 213.645 373.13L225.688 358.683" stroke="#1C1C1E" stroke-width="1.5" stroke-linecap="round" stroke-linejoin="round"></path><path d="M247.706 354.338C247.706 354.338 255.145 347.825 234.633 331.53C234.633 331.53 214.561 316.473 210.297 325.85" stroke="#1C1C1E" stroke-width="1.5" stroke-linecap="round" stroke-linejoin="round"></path><path d="M411.471 159.022C412.869 157.049 415.164 150.583 398.619 136.172C398.619 136.172 381.535 122.811 375.331 128.655" stroke="#1C1C1E" stroke-width="1.5" stroke-linecap="round" stroke-linejoin="round"></path><path d="M375.689 202.174C377.06 200.037 379.133 193.506 362.589 179.094C362.589 179.094 344.695 165.908 338.489 171.753" stroke="#1C1C1E" stroke-width="1.5" stroke-linecap="round" stroke-linejoin="round"></path><path d="M380.479 167.504C385.345 167.601 389.366 163.736 389.463 158.87C389.56 154.006 385.695 149.984 380.829 149.886C375.965 149.789 371.943 153.656 371.845 158.52C371.75 163.386 375.615 167.407 380.479 167.504Z" fill="#8E8E8E" stroke="#1C1C1E" stroke-width="1.5" stroke-miterlimit="10" stroke-linecap="round" stroke-linejoin="round"></path><path d="M196.932 365.508C196.932 365.508 200.712 360.875 203.833 363.66C206.954 366.446 210.719 369.519 210.719 369.519C210.719 369.519 213.154 371.345 210.263 375.338C207.976 378.497 196.932 365.508 196.932 365.508Z" fill="#1C1C1E"></path><path d="M454.673 250.343L435.923 240.984C434.764 240.405 433.477 240.127 432.181 240.174L410.768 240.954C409.232 241.01 408.294 239.28 409.185 238.023L442.069 191.526C442.719 190.607 444.147 190.889 444.399 191.985L457.317 248.262C457.668 249.791 456.079 251.043 454.673 250.34V250.343Z" fill="#FFB8B8" stroke="#1C1C1E" stroke-width="1.5" stroke-miterlimit="10" stroke-linecap="round" stroke-linejoin="round"></path><path d="M430.967 252.019C430.967 252.019 409.638 365.084 296.564 357.479" stroke="#1C1C1E" stroke-width="1.5" stroke-linecap="round" stroke-linejoin="round"></path><path d="M146.412 341.062C171.37 353.585 195.332 377.794 210.729 419.321" stroke="#1C1C1E" stroke-width="1.5" stroke-linecap="round" stroke-linejoin="round"></path><path d="M125.867 411.407C125.867 411.407 71.2935 374.403 85.9431 341.525C90.0745 332.251 102.793 328.465 118.933 331.208" stroke="#1C1C1E" stroke-width="1.5" stroke-linecap="round" stroke-linejoin="round"></path><path d="M185.38 290.934C171.834 276.266 155.455 252.281 174.987 232.292C201.475 205.184 306.703 252.984 309.644 357.797C312.098 445.285 234.281 444.776 208.487 442.219" stroke="#1C1C1E" stroke-width="1.5" stroke-linecap="round" stroke-linejoin="round"></path><path d="M205.468 135.992H142.456C131.933 135.992 123.404 144.521 123.404 155.042C123.404 165.563 131.933 174.092 142.456 174.092H205.468C215.991 174.092 224.52 165.563 224.52 155.042C224.52 144.521 215.991 135.992 205.468 135.992Z" fill="#D6CCFF" stroke="#1C1C1E" stroke-width="1.5" stroke-miterlimit="10" stroke-linecap="round" stroke-linejoin="round"></path><path d="M229.224 178.289L223.674 184.87C223.466 185.119 223.17 185.279 222.848 185.32L214.722 186.347C213.613 186.487 213.191 187.868 214.032 188.604L232.285 204.64C233.174 205.421 234.564 204.694 234.424 203.514L231.499 178.97C231.367 177.847 229.955 177.42 229.224 178.289Z" fill="#D6CCFF" stroke="#1C1C1E" stroke-width="1.5" stroke-miterlimit="10" stroke-linecap="round" stroke-linejoin="round"></path><path d="M362.271 432.63C359.692 432.63 357.594 430.53 357.594 427.951V379.356C357.594 376.777 359.692 374.678 362.271 374.678H410.867C413.446 374.678 415.545 376.777 415.545 379.356V419.622C415.545 420.859 415.021 422.047 414.108 422.882L404.697 431.476C403.88 432.219 402.824 432.63 401.721 432.63H362.271Z" fill="#D6CCFF"></path><path d="M410.867 375.578C412.954 375.578 414.646 377.269 414.646 379.356V419.623C414.646 420.611 414.231 421.552 413.501 422.218L404.091 430.812C403.443 431.404 402.598 431.731 401.721 431.731H362.271C360.184 431.731 358.493 430.04 358.493 427.952V379.358C358.493 377.27 360.184 375.579 362.271 375.579H410.867M410.867 373.778H362.272C359.197 373.778 356.694 376.281 356.694 379.356V427.951C356.694 431.027 359.197 433.529 362.272 433.529H401.723C403.052 433.529 404.325 433.036 405.306 432.14L414.717 423.546C415.817 422.542 416.447 421.112 416.447 419.622V379.355C416.445 376.281 413.943 373.778 410.867 373.778Z" fill="#1C1C1E"></path><path d="M414.752 418.355H405.179C403.41 418.355 401.899 419.632 401.604 421.377L399.861 431.697" stroke="#1C1C1E" stroke-width="1.5" stroke-miterlimit="10" stroke-linecap="round" stroke-linejoin="round"></path><path d="M126.572 345.531C132.81 345.655 137.966 340.7 138.089 334.464C138.213 328.228 133.258 323.07 127.022 322.946C120.786 322.823 115.628 327.778 115.504 334.014C115.379 340.252 120.336 345.408 126.572 345.531Z" fill="#FFB8B8" stroke="#1C1C1E" stroke-width="1.5" stroke-miterlimit="10" stroke-linecap="round" stroke-linejoin="round"></path></svg>