<svg width="540" height="540" fill="none" viewBox="119.137 97.122 302.374 345.756" xmlns="http://www.w3.org/2000/svg"><path d="M0 0h540v540H0z" style="fill: rgba(251, 247, 239, 0);"></path><path fill="#F0F0F3" d="m385.523 138.385 1.251 1.974 1.252 1.983.643 1.013.255 2.327.256 2.326.185 1.657-.617 2.256-.617 2.256-.59 2.168-.987 2.124-.987 2.115-.987 2.123-.987 2.115-.987 2.124-.987 2.115-.987 2.115-.987 2.124-.987 2.115-.987 2.124-.987 2.115-.987 2.115-.987 2.123-.987 2.124-.987 2.124-.987 2.115-.987 2.124-.987 2.115-.987 2.115-.987 2.123-.987 2.115-.987 2.124-.987 2.115-.987 2.124-.987 2.115-.987 2.115-.987 2.124-.987 2.115-.987 2.123-.987 2.124-.987 2.115-.987 2.124-.987 2.115-.987 2.124-.987 2.115-.987 2.123-.987 2.115-.987 2.115-.987 2.124-.987 2.124-.987 2.124-.987 2.115-.987 2.115-.987 2.123-.987 2.115-.987 2.124-.987 2.115-.987 2.124-.987 2.115-.987 2.115-.987 2.124-.987 2.115-.987 2.123-.987 2.115-.987 2.124-.987 2.115-.987 2.115-.986 2.124-.987 2.115-.987 2.124-.987 2.123-.987 2.115-.987 2.124-.987 2.115-.987 2.124-.987 2.115-.987 2.124-.987 2.115-.987 2.114-.987 2.124-.987 2.115-.987 2.124-.987 2.115-.987 2.115-.987 2.124-.987 2.115-.987 2.123-.987 2.116-.987 2.123-.987 2.115-.987 2.115-.987 2.124-.987 2.115-.987 2.124-.987 2.115-.987 2.124-.987 2.114-.987 2.116-.987 2.123-.987 2.115-.987 2.124-.987 2.115-.987 2.115-.987 2.124-.987 2.115-.987 2.124-.987 2.114-.987 2.124-.987 2.115-.987 2.115-.987 2.124-.987 2.115-.987 2.124-.987 2.115-.987 2.115-.987 2.123-.987 2.115-.987 2.124-.987 2.115-.987 2.124-.987 2.115-.987 2.115-.987 2.124-.987 2.124-.987 2.123-1.498 3.208-1.313 1.939-1.313 1.938-1.313 1.939-.15.229-1.842 1.437-1.842 1.436-1.841 1.436-.194.15-2.212.758-2.212.758-2.071.705-2.335-.132-2.336-.132-1.603-.089-2.248-.643-2.247-.643-2.247-.643-2.247-.644-2.247-.643-2.247-.643-2.248-.644-2.247-.643-2.247-.643-2.247-.644-2.247-.643-2.247-.643-2.248-.643-2.247-.644-2.247-.643-2.247-.643-2.247-.644-2.247-.643-2.248-.643-2.247-.643-2.247-.644-2.247-.643-2.247-.644-2.247-.643-2.248-.643-2.247-.643-2.247-.644-2.247-.643-2.247-.643-2.247-.644-2.247-.643-2.248-.643-2.247-.643-2.247-.644-2.247-.643-2.247-.643-2.248-.644-2.247-.643-2.247-.643-2.247-.644-2.247-.643-2.247-.643-2.247-.643-2.248-.644-2.247-.643-2.247-.644-2.247-.643-2.247-.643-2.247-.643-2.248-.644-2.247-.643-2.247-.643-2.732-.776-2.035-1.154-2.036-1.155-1.022-.581-1.252-1.983-1.251-1.983-.643-1.013-.256-2.327-.256-2.326-.185-1.657.617-2.256.617-2.256.591-2.168.987-2.115.987-2.123.987-2.115.987-2.124.987-2.115.987-2.115.987-2.124.987-2.115.987-2.124.986-2.115.987-2.123.987-2.115.987-2.115.987-2.124.987-2.115.987-2.124.987-2.115.987-2.115.987-2.124.987-2.114.987-2.124.987-2.115.987-2.124.987-2.115.987-2.115.987-2.124.987-2.115.987-2.124.987-2.115.987-2.123.987-2.115.987-2.115.987-2.124.987-2.115.987-2.124.987-2.115.987-2.115.987-2.123.987-2.116.987-2.123.987-2.115.987-2.124.987-2.115.987-2.124.987-2.124.987-2.114.987-2.124.987-2.115.987-2.115.987-2.124.987-2.115.987-2.124.987-2.115.987-2.123.987-2.124.987-2.115.987-2.124.987-2.115.987-2.124.987-2.115.987-2.124.987-2.114.987-2.116.987-2.123.987-2.124.987-2.124.987-2.115.987-2.115.987-2.124.987-2.115.987-2.123.987-2.115.987-2.124.987-2.115.987-2.115.987-2.124.987-2.115.987-2.124.987-2.115.987-2.114.987-2.124.987-2.115.987-2.124.987-2.115.987-2.124.987-2.115.987-2.115.987-2.123.987-2.115.987-2.124.987-2.115.987-2.124.987-2.115.987-2.115.987-2.124.987-2.115.987-2.123.987-2.115.987-2.115.987-2.124.987-2.115.987-2.124.987-2.115.987-2.124.987-2.123.987-2.115.987-2.124.987-2.115.986-2.124.987-2.124.987-2.115.987-2.124.987-2.114.987-2.124.987-2.124 1.499-3.208 1.313-1.938 1.313-1.939 1.313-1.939.149-.229 1.842-1.436 1.842-1.437 1.842-1.436.194-.15 2.212-.758 2.212-.758 2.071-.705 2.335.132 2.335.132 1.604.089 2.247.643 2.247.643 2.247.644 2.248.643 2.247.643 2.247.644 2.247.643 2.247.643 2.247.643 2.248.644 2.247.643 2.247.643 2.247.644 2.247.643 2.247.643 2.248.643 2.247.644 2.247.643 2.247.644 2.247.643 2.247.643 2.248.643 2.247.644 2.247.643 2.247.643 2.247.644 2.247.643 2.247.643 2.248.643 2.247.644 2.247.643 2.247.643 2.247.644 2.248.643 2.247.643 2.247.644 2.247.643 2.247.643 2.247.643 2.248.644 2.247.643 2.247.643 2.247.644 2.247.643 2.247.643 2.247.644 2.248.643 2.247.643 2.247.644 2.247.643 2.247.643 2.247.643 2.732.776 2.036 1.154 2.036 1.155 1.022.59 1.727 1.569 1.736 1.568 1.736 1.569 1.736 1.569 1.736 1.568 1.736 1.569 1.736 1.568 1.736 1.569 1.736 1.569 1.736 1.568 1.737 1.569 1.736 1.568 1.736 1.569 1.736 1.569 1.736 1.568.414.379 1.251 1.974 1.252 1.983.643 1.013.256 2.327.255 2.326.185 1.657-.617 2.256-.617 2.256-.59 2.168-.987 2.124-.987 2.123-.987 2.115-.987 2.124-.987 2.115-.987 2.124-.987 2.115-.987 2.115-.987 2.124-.987 2.114-.987 2.124-.987 2.115-.987 2.124-.987 2.115-.987 2.115-.987 2.124-.987 2.115-.987 2.123-.987 2.116-.987 2.123-.987 2.115-.987 2.115-.987 2.124-.987 2.115-.987 2.124-.987 2.115-.987 2.115-.987 2.123-.987 2.116-.987 2.123-.987 2.115-.987 2.124-.987 2.115-.987 2.115-.987 2.124-.987 2.115-.987 2.124-.987 2.114-.987 2.115-.987 2.124-.987 2.115-.987 2.124-.987 2.115-.987 2.124-.987 2.115-.987 2.115-.987 2.123-.987 2.115-.987 2.124-.987 2.115-.987 2.124-.987 2.115-.987 2.115-.987 2.124-.986 2.115-.987 2.123-.987 2.115-.987 2.115-.987 2.124-.987 2.124-.987 2.124-.987 2.115-.987 2.124-.987 2.114-.987 2.115-.987 2.124-.987 2.115-.987 2.124-.987 2.115-.987 2.115-.987 2.124-.987 2.115-.987 2.123-.987 2.115-.987 2.124-.987 2.115-.987 2.115-.987 2.124-.987 2.115-.987 2.124-.987 2.115-.987 2.123-.987 2.115-.987 2.115-.987 2.124-.987 2.115-.987 2.124-.987 2.115-.987 2.115-.987 2.124-.987 2.114-.987 2.124-.987 2.115-.987 2.124-.987 2.115-.987 2.115-.987 2.124-.987 2.115-.987 2.123-.987 2.116-.987 2.114-.987 2.124-.987 2.115-.987 2.124-.987 2.115-.987 2.124-.987 2.115-.987 2.115-.987 2.123-.987 2.116-.987 2.123-.987 2.124-.987 2.124-.987 2.115-.987 2.115-1.498 3.207-1.313 1.939-1.313 1.939-1.313 1.939-.15.229-1.842 1.436-1.842 1.437-1.841 1.436-.194.15-2.212.758-2.212.757-2.071.706-2.335-.133-2.335-.132-1.604-.088-2.248-.643-2.247-.643-2.247-.644-2.247-.643-2.247-.644-2.247-.643-2.248-.643-2.247-.643-2.247-.644-2.247-.643-2.247-.643-2.247-.644-2.248-.643-2.247-.643-2.247-.643-2.247-.644-2.247-.643-2.247-.643-2.247-.644-2.248-.643-2.247-.643-2.247-.644-2.247-.643-2.247-.643-2.247-.643-2.248-.644-2.247-.643-2.247-.643-2.247-.644-2.247-.643-2.247-.643-2.248-.644-2.247-.643-2.247-.643-2.247-.644-2.247-.643-2.247-.643-2.248-.643-2.247-.644-2.247-.643-2.247-.643-2.247-.644-2.247-.643-2.248-.643-2.247-.644-2.247-.643-2.247-.643-2.247-.643-2.247-.644-2.248-.643-2.247-.643-2.247-.644-2.732-.775-2.035-1.155-2.036-1.154-1.022-.582-1.736-1.568-1.736-1.569-1.736-1.568-1.737-1.569-1.736-1.569-1.736-1.568-1.736-1.569-1.736-1.569-1.736-1.568-1.736-1.569-1.736-1.568-1.736-1.569-1.736-1.568-1.736-1.569-1.736-1.569-.414-.379"></path><path fill="#fff" d="m131.567 381.843-1.683-.599-5.023-2.881-3.314-5.05-.537-6.213 1.815-6.864 115.504-246.897 3.904-5.842 5.72-4.266 6.494-2.22 6.284.15 119.69 34.341 5.058 2.547 3.261 5.191.608 6.424-1.833 6.68-3.71 7.948L272.24 403.31l-3.94 5.808-5.886 4.697-6.495 2.229-6.609-.74-117.743-33.461Z"></path><path fill="#F0F0F3" d="m210.571 179.883.758 2.212.758 2.212.758 2.212.757 2.212.758 2.212.758 2.211.758 2.212.758 2.212.758 2.212.758 2.212.757 2.212.758 2.212.758 2.212.758 2.212.758 2.212.758 2.212.758 2.212.528 1.55 2.248.644 2.247.643 2.247.643 2.247.644 2.247.643 2.247.643 2.248.644 2.247.643 2.247.643 2.247.643 2.247.644 2.247.643 2.248.643 2.247.644 2.247.643 2.247.643 2.247.644 2.247.643 2.248.643 2.247.643 2.247.644 2.247.643 2.247.643 2.247.644 2.247.643 2.248.643 2.247.644 2.247.643 2.247.643.82.229 2.053-1.119 2.053-1.128 2.054-1.119 2.053-1.128 2.053-1.119 2.053-1.119 2.054-1.12 2.053-1.127 2.053-1.12 2.054-1.119 2.053-1.128 2.053-1.119 2.054-1.119 2.053-1.119 2.053-1.128 2.053-1.12 2.054-1.128 2.053-1.119 2.053-1.119 2.054-1.119 1.462-.802 7.191 2.089-82.167 175.639s-1.683 4.582-4.776 6.01-8.204-.899-8.204-.899l-114.747-32.588s-5.507-1.489-1.233-10.117L210.58 179.83l-.009.053Z"></path><path fill="#FD3" d="m256.861 242.565 1.48 1.806.564.696 1.005 2.115.414.873.502 2.282.238 1.075.027 2.344.009 1.26-.415 2.3-.255 1.41-.811 2.195-.546 1.471-1.155 2.036-.828 1.454-1.463 1.824-1.084 1.348-1.727 1.578-1.269 1.163-1.956 1.287-1.384.907-2.141.943-1.41.626-2.274.555-1.357.335-2.335.106-1.225.061-2.309-.378-1.058-.177-2.159-.899-.881-.361-1.877-1.392-.714-.529-1.48-1.807-.564-.696-1.005-2.115-.414-.872-.502-2.283-.238-1.075-.027-2.335-.008-1.26.414-2.3.255-1.41.811-2.194.546-1.472 1.155-2.036.828-1.454 1.463-1.824 1.075-1.348 1.727-1.578 1.269-1.163 1.957-1.286 1.383-.908 2.142-.943 1.41-.626 2.273-.555 1.357-.335 2.336-.106 1.225-.061 2.308.388 1.058.176 2.159.899.881.37 1.877 1.392.723.503 1.736 1.568 1.339 1.216 1.481 1.816.564.696 1.004 2.115.415.881.502 2.282.238 1.075.026 2.336.009 1.26-.414 2.3-.256 1.41-.81 2.194-.547 1.472-1.154 2.036-.828 1.453-1.463 1.825-1.075 1.348-1.728 1.577-1.269 1.164-1.956 1.286-1.384.908-2.141.943-1.41.625-2.274.556-1.357.335-2.335.105-1.225.053-2.309-.379-1.057-.176-2.159-.899-.882-.37-1.877-1.392-.713-.529-1.736-1.569-1.34-1.216M216.095 230.942l1.481 1.815.564.696 1.004 2.115.415.872.502 2.283.238 1.075.026 2.335.009 1.261-.414 2.299-.256 1.41-.81 2.195-.547 1.471-1.154 2.036-.829 1.454-1.463 1.824-1.083 1.349-1.728 1.577-1.269 1.163-1.956 1.287-1.384.908-2.141.951-1.41.626-2.274.555-1.357.335-2.335.106-1.225.061-2.309-.387-1.057-.177-2.159-.899-.873-.37-1.877-1.392-.714-.529-1.48-1.806-.564-.696-1.005-2.115-.414-.882-.502-2.282-.238-1.075-.026-2.335-.009-1.261.414-2.3.255-1.41.811-2.194.547-1.471 1.154-2.036.828-1.454 1.463-1.824 1.075-1.349 1.728-1.577 1.269-1.163 1.956-1.287 1.383-.907 2.142-.943 1.41-.626 2.273-.555 1.358-.335 2.335-.106 1.225-.053 2.309.379 1.057.176 2.159.899.873.361 1.877 1.393.722.529 1.736 1.568 1.34 1.216.405.503 1.481 1.815.158.194 1.005 2.115.414.872.502 2.283.238 1.075.027 2.344.009 1.26-.415 2.3-.255 1.41-.811 2.194-.546 1.472-1.155 2.036-.828 1.454-1.463 1.824-1.084 1.348-1.727 1.577-1.269 1.164-1.956 1.286-1.384.908-2.141.943-1.41.626-2.274.555-.635.159-.722.176-2.335.105-1.225.062-2.309-.388-1.058-.176-2.159-.899-.872-.37-1.877-1.392-.714-.529-1.736-1.569-1.34-1.216"></path><mask id="a" fill="#fff"><path d="m297.83 254.25 1.48 1.807.564.696 1.005 2.115.414.872.502 2.283.238 1.075.027 2.335.008 1.26-.414 2.3-.255 1.41-.811 2.194-.546 1.472-1.155 2.036-.828 1.454-1.463 1.824-1.084 1.348-1.727 1.578-1.269 1.163-1.957 1.287-1.383.907-2.142.943-1.41.626-2.273.555-1.357.335-2.336.106-1.224.061-2.309-.387-1.058-.177-2.159-.899-.872-.37-1.877-1.392-.714-.529-1.481-1.806-.564-.696-1.004-2.115-.414-.873-.503-2.282-.238-1.075-.026-2.336-.018-1.26.414-2.3.256-1.41.811-2.194.546-1.472 1.155-2.036.828-1.453 1.463-1.825 1.075-1.348 1.727-1.577 1.269-1.164 1.957-1.286 1.383-.908 2.141-.943 1.41-.625 2.274-.556 1.357-.335 2.335-.105 1.225-.062 2.309.388 1.058.176 2.159.899.881.361 1.877 1.393.723.537 1.736 1.569 1.339 1.216 1.481 1.815.564.696 1.004 2.115.414.873.503 2.282.238 1.075.026 2.344.009 1.26-.414 2.301-.256 1.41-.811 2.194-.546 1.471-1.154 2.036-.829 1.454-1.463 1.824-1.084 1.349-1.727 1.577-1.269 1.163-1.956 1.287-1.384.907-2.141.943-1.41.626-2.274.555-1.357.335-2.335.106-1.225.062-2.309-.388-1.057-.176-2.159-.899-.873-.37-1.877-1.393-.714-.529-1.736-1.568-1.339-1.216"></path></mask><path fill="#DEDDD6" d="m297.83 254.25 1.48 1.807.564.696 1.005 2.115.414.872.502 2.283.238 1.075.027 2.335.008 1.26-.414 2.3-.255 1.41-.811 2.194-.546 1.472-1.155 2.036-.828 1.454-1.463 1.824-1.084 1.348-1.727 1.578-1.269 1.163-1.957 1.287-1.383.907-2.142.943-1.41.626-2.273.555-1.357.335-2.336.106-1.224.061-2.309-.387-1.058-.177-2.159-.899-.872-.37-1.877-1.392-.714-.529-1.481-1.806-.564-.696-1.004-2.115-.414-.873-.503-2.282-.238-1.075-.026-2.336-.018-1.26.414-2.3.256-1.41.811-2.194.546-1.472 1.155-2.036.828-1.453 1.463-1.825 1.075-1.348 1.727-1.577 1.269-1.164 1.957-1.286 1.383-.908 2.141-.943 1.41-.625 2.274-.556 1.357-.335 2.335-.105 1.225-.062 2.309.388 1.058.176 2.159.899.881.361 1.877 1.393.723.537 1.736 1.569 1.339 1.216 1.481 1.815.564.696 1.004 2.115.414.873.503 2.282.238 1.075.026 2.344.009 1.26-.414 2.301-.256 1.41-.811 2.194-.546 1.471-1.154 2.036-.829 1.454-1.463 1.824-1.084 1.349-1.727 1.577-1.269 1.163-1.956 1.287-1.384.907-2.141.943-1.41.626-2.274.555-1.357.335-2.335.106-1.225.062-2.309-.388-1.057-.176-2.159-.899-.873-.37-1.877-1.393-.714-.529-1.736-1.568-1.339-1.216"></path><path fill="#1C1C1E" d="m297.83 254.25 1.005-1.113-.053-.048-.057-.042-.895 1.203Zm1.48 1.807 1.166-.945-.006-.006-1.16.951Zm.564.696 1.355-.644-.077-.161-.112-.139-1.166.944Zm1.005 2.115 1.355-.643v-.001l-1.355.644Zm.414.872 1.465-.322-.037-.167-.073-.154-1.355.643Zm.502 2.283-1.465.322.001.002 1.464-.324Zm.238 1.075 1.5-.017-.002-.156-.033-.152-1.465.325Zm.027 2.335 1.5-.01-.001-.007-1.499.017Zm.008 1.26 1.477.266.024-.137-.001-.139-1.5.01Zm-.414 2.3 1.476.268v-.002l-1.476-.266Zm-.255 1.41 1.407.52.045-.123.024-.129-1.476-.268Zm-.811 2.194 1.406.522.001-.002-1.407-.52Zm-.546 1.472 1.304.74.06-.105.042-.113-1.406-.522Zm-1.155 2.036 1.303.742.002-.002-1.305-.74Zm-.828 1.454 1.17.938.074-.092.059-.104-1.303-.742Zm-1.463 1.824 1.169.94.001-.002-1.17-.938Zm-1.084 1.348 1.012 1.108.085-.078.072-.09-1.169-.94Zm-1.727 1.578-1.012-1.108-.002.002 1.014 1.106Zm-1.269 1.163.824 1.253.101-.066.088-.081-1.013-1.106Zm-1.957 1.287.823 1.254.002-.001-.825-1.253Zm-1.383.907.604 1.373.114-.05.105-.069-.823-1.254Zm-2.142.943-.604-1.373-.004.002.608 1.371Zm-1.41.626.356 1.457.13-.032.123-.054-.609-1.371Zm-2.273.555-.356-1.457-.004.001.36 1.456Zm-1.357.335.068 1.498.147-.006.144-.036-.359-1.456Zm-2.336.106-.067-1.499h-.008l.075 1.499Zm-1.224.061-.249 1.48.161.027.163-.009-.075-1.498Zm-2.309-.387.248-1.48h-.002l-.246 1.48Zm-1.058-.177-.576 1.385.159.067.171.028.246-1.48Zm-2.159-.899-.586 1.381.01.004.576-1.385Zm-.872-.37-.894 1.205.143.106.165.07.586-1.381Zm-1.877-1.392.893-1.205-.893 1.205Zm-.714-.529-1.16.951.118.144.149.11.893-1.205Zm-1.481-1.806-1.165.944.005.006 1.16-.95Zm-.564-.696-1.355.643.077.162.113.139 1.165-.944Zm-1.004-2.115-1.355.643 1.355-.643Zm-.414-.873-1.465.322.036.167.074.154 1.355-.643Zm-.503-2.282 1.465-.323v-.002l-1.465.325Zm-.238-1.075-1.5.017.002.155.034.152 1.464-.324Zm-.026-2.336 1.5-.017v-.004l-1.5.021Zm-.018-1.26-1.476-.266-.026.143.002.144 1.5-.021Zm.414-2.3-1.476-.267v.001l1.476.266Zm.256-1.41-1.407-.52-.046.123-.023.13 1.476.267Zm.811-2.194-1.406-.522-.001.002 1.407.52Zm.546-1.472-1.305-.74-.059.105-.042.113 1.406.522Zm1.155-2.036-1.304-.742-.001.003 1.305.739Zm.828-1.453-1.17-.939-.075.093-.058.103 1.303.743Zm1.463-1.825 1.17.939.003-.004-1.173-.935Zm1.075-1.348-1.012-1.108-.087.08-.074.093 1.173.935Zm1.727-1.577 1.012 1.107.002-.002-1.014-1.105Zm1.269-1.164-.824-1.253-.101.066-.089.082 1.014 1.105Zm1.957-1.286-.823-1.254-.002.001.825 1.253Zm1.383-.908-.605-1.373-.114.051-.104.068.823 1.254Zm2.141-.943.605 1.373.004-.002-.609-1.371Zm1.41-.625-.355-1.458-.131.032-.122.054.608 1.372Zm2.274-.556.356 1.457h.003l-.359-1.457Zm1.357-.335-.068-1.498-.148.007-.143.035.359 1.456Zm2.335-.105.068 1.498h.008l-.076-1.498Zm1.225-.062.249-1.479-.161-.027-.163.008.075 1.498Zm2.309.388-.248 1.479h.002l.246-1.479Zm1.058.176.576-1.385-.159-.066-.171-.029-.246 1.48Zm2.159.899-.577 1.385.008.003.569-1.388Zm.881.361.894-1.205-.151-.112-.174-.071-.569 1.388Zm1.877 1.393.895-1.204-.001-.001-.894 1.205Zm2.459 2.106 1.008-1.111-.003-.002-1.005 1.113Zm1.339 1.216 1.163-.948-.071-.087-.084-.076-1.008 1.111Zm1.481 1.815 1.165-.944-.003-.004-1.162.948Zm.564.696 1.355-.643-.077-.162-.113-.139-1.165.944Zm1.004 2.115 1.355-.643-1.355.643Zm.414.873 1.465-.323-.036-.166-.074-.155-1.355.644Zm.503 2.282-1.465.323v.001l1.465-.324Zm.238 1.075 1.5-.017-.002-.155-.034-.152-1.464.324Zm.026 2.344 1.5-.01v-.007l-1.5.017Zm.009 1.26 1.476.266.025-.137-.001-.139-1.5.01Zm-.414 2.301 1.476.267v-.002l-1.476-.265Zm-.256 1.41 1.407.519.046-.123.023-.129-1.476-.267Zm-.811 2.194 1.407.522v-.002l-1.407-.52Zm-.546 1.471 1.305.74.059-.104.042-.113-1.406-.523Zm-1.154 2.036 1.303.743.001-.003-1.304-.74Zm-.829 1.454 1.171.939.074-.093.059-.103-1.304-.743Zm-1.463 1.824 1.169.94.002-.001-1.171-.939Zm-1.084 1.349 1.012 1.107.085-.078.073-.09-1.17-.939Zm-1.727 1.577-1.011-1.107-.002.001 1.013 1.106Zm-1.269 1.163.824 1.253.101-.066.089-.081-1.014-1.106Zm-1.956 1.287.823 1.254.001-.001-.824-1.253Zm-1.384.907.605 1.373.114-.05.104-.068-.823-1.255Zm-2.141.943-.605-1.372-.003.001.608 1.371Zm-1.41.626.356 1.457.13-.031.122-.055-.608-1.371Zm-2.274.555-.356-1.457-.003.001.359 1.456Zm-1.357.335.068 1.499.148-.007.144-.035-.36-1.457Zm-2.335.106-.068-1.498h-.007l.075 1.498Zm-1.225.062-.248 1.479.16.027.163-.008-.075-1.498Zm-2.309-.388.249-1.479-.002-.001-.247 1.48Zm-1.057-.176-.577 1.384.16.067.17.028.247-1.479Zm-2.159-.899-.586 1.381.009.004.577-1.385Zm-.873-.37-.893 1.204.143.107.164.07.586-1.381Zm-1.877-1.393.894-1.204-.001-.001-.893 1.205Zm-.714-.529-1.005 1.114.054.048.058.044.893-1.206Zm-1.736-1.568-1.008 1.111.003.002 1.005-1.113Zm25.885-30.571 1.481 1.806 2.32-1.901-1.48-1.807-2.321 1.902Zm1.476 1.8.564.696 2.331-1.888-.564-.697-2.331 1.889Zm.374.395 1.005 2.115 2.71-1.287-1.005-2.115-2.71 1.287Zm1.005 2.115.414.873 2.71-1.287-.414-.872-2.71 1.286Zm.304.552.502 2.282 2.93-.645-.502-2.282-2.93.645Zm.503 2.284.238 1.075 2.929-.649-.238-1.075-2.929.649Zm.202.768.027 2.335 2.999-.034-.026-2.335-3 .034Zm.027 2.329.008 1.26 3-.021-.009-1.26-2.999.021Zm.032.983-.414 2.3 2.952.532.415-2.3-2.953-.532Zm-.414 2.299-.255 1.41 2.952.535.255-1.41-2.952-.535Zm-.186 1.157-.811 2.195 2.814 1.039.811-2.194-2.814-1.04Zm-.81 2.192-.547 1.472 2.813 1.044.546-1.472-2.812-1.044Zm-.445 1.254-1.155 2.036 2.61 1.48 1.154-2.036-2.609-1.48Zm-1.153 2.033-.829 1.454 2.607 1.485.828-1.454-2.606-1.485Zm-.695 1.258-1.463 1.825 2.34 1.876 1.463-1.824-2.34-1.877Zm-1.462 1.823-1.084 1.348 2.338 1.88 1.084-1.348-2.338-1.88Zm-.927 1.181-1.727 1.577 2.023 2.215 1.728-1.577-2.024-2.215Zm-1.729 1.579-1.269 1.163 2.027 2.212 1.269-1.164-2.027-2.211Zm-1.079 1.016-1.957 1.286 1.649 2.507 1.956-1.287-1.648-2.506Zm-1.955 1.285-1.384.908 1.646 2.508 1.383-.907-1.645-2.509Zm-1.166.789-2.141.943 1.209 2.746 2.141-.943-1.209-2.746Zm-2.145.945-1.41.626 1.217 2.742 1.41-.626-1.217-2.742Zm-1.157.54-2.274.555.712 2.914 2.273-.555-.711-2.914Zm-2.278.556-1.357.335.719 2.912 1.357-.335-.719-2.912Zm-1.065.292-2.335.106.135 2.997 2.336-.106-.136-2.997Zm-2.343.106-1.225.062.151 2.996 1.225-.061-.151-2.997Zm-.901.081-2.309-.388-.497 2.959 2.309.388.497-2.959Zm-2.311-.388-1.057-.176-.493 2.959 1.057.176.493-2.959Zm-.727-.081-2.159-.899-1.153 2.769 2.159.899 1.153-2.769Zm-2.15-.895-.872-.371-1.172 2.762.872.37 1.172-2.761Zm-.565-.195-1.877-1.392-1.787 2.41 1.877 1.392 1.787-2.41Zm-1.877-1.392-.714-.529-1.786 2.41.714.529 1.786-2.41Zm-.447-.275-1.48-1.806-2.321 1.901 1.481 1.807 2.32-1.902Zm-1.475-1.8-.564-.696-2.331 1.889.564.696 2.331-1.889Zm-.375-.395-1.004-2.115-2.71 1.287 1.004 2.115 2.71-1.287Zm-1.004-2.115-.414-.872-2.71 1.286.414.873 2.71-1.287Zm-.304-.551-.503-2.283-2.93.645.503 2.282 2.93-.644Zm-.503-2.285-.238-1.075-2.929.649.238 1.075 2.929-.649Zm-.203-.767-.026-2.336-3 .034.026 2.336 3-.034Zm-.026-2.34-.018-1.26-3 .042.018 1.26 3-.042Zm-.041-.973.414-2.3-2.953-.532-.414 2.3 2.953.532Zm.413-2.298.256-1.41-2.952-.535-.256 1.41 2.952.535Zm.187-1.158.811-2.194-2.814-1.04-.811 2.194 2.814 1.04Zm.81-2.192.546-1.472-2.812-1.044-.546 1.472 2.812 1.044Zm.445-1.254 1.154-2.036-2.609-1.479-1.155 2.035 2.61 1.48Zm1.153-2.033.828-1.454-2.606-1.485-.829 1.454 2.607 1.485Zm.695-1.258 1.463-1.824-2.34-1.877-1.463 1.824 2.34 1.877Zm1.466-1.828 1.075-1.348-2.346-1.87-1.075 1.348 2.346 1.87Zm.913-1.175 1.728-1.578-2.023-2.215-1.728 1.577 2.023 2.216Zm1.73-1.58 1.269-1.163-2.028-2.211-1.269 1.163 2.028 2.211Zm1.079-1.015 1.957-1.287-1.649-2.506-1.956 1.286 1.648 2.507Zm1.955-1.286 1.384-.908-1.646-2.508-1.383.908 1.645 2.508Zm1.166-.789 2.141-.943-1.209-2.746-2.142.943 1.21 2.746Zm2.145-.945 1.41-.625-1.217-2.743-1.41.626 1.217 2.742Zm1.157-.539 2.274-.556-.712-2.914-2.273.555.711 2.915Zm2.277-.556 1.357-.335-.718-2.913-1.357.335.718 2.913Zm1.066-.293 2.335-.106-.135-2.997-2.336.106.136 2.997Zm2.343-.106 1.225-.062-.151-2.996-1.225.062.151 2.996Zm.901-.081 2.309.388.497-2.959-2.309-.387-.497 2.958Zm2.311.388 1.057.177.493-2.96-1.057-.176-.493 2.959Zm.727.082 2.159.899 1.153-2.77-2.159-.899-1.153 2.77Zm2.167.902.881.361 1.138-2.776-.881-.361-1.138 2.776Zm.556.178 1.877 1.392 1.788-2.409-1.877-1.393-1.788 2.41Zm1.876 1.391.722.538 1.791-2.407-.723-.538-1.79 2.407Zm.612.447 1.736 1.569 2.011-2.226-1.736-1.569-2.011 2.226Zm1.733 1.566 1.34 1.216 2.016-2.221-1.339-1.216-2.017 2.221Zm1.186 1.054 1.48 1.815 2.325-1.896-1.48-1.815-2.325 1.896Zm1.477 1.811.564.697 2.331-1.889-.564-.696-2.331 1.888Zm.375.396 1.004 2.115 2.71-1.287-1.004-2.115-2.71 1.287Zm1.004 2.115.414.872 2.71-1.287-.414-.872-2.71 1.287Zm.305.551.502 2.283 2.93-.645-.503-2.283-2.929.645Zm.502 2.284.238 1.075 2.929-.648-.238-1.075-2.929.648Zm.203.768.026 2.344 3-.034-.026-2.344-3 .034Zm.026 2.338.009 1.26 3-.021-.009-1.26-3 .021Zm.033.984-.415 2.3 2.953.531.414-2.3-2.952-.531Zm-.414 2.298-.256 1.41 2.952.535.256-1.41-2.952-.535Zm-.187 1.158-.811 2.194 2.814 1.04.811-2.195-2.814-1.039Zm-.81 2.192-.546 1.471 2.812 1.045.547-1.472-2.813-1.044Zm-.445 1.254-1.154 2.035 2.609 1.48 1.155-2.036-2.61-1.479Zm-1.153 2.033-.828 1.454 2.607 1.485.828-1.454-2.607-1.485Zm-.695 1.258-1.463 1.824 2.341 1.877 1.463-1.824-2.341-1.877Zm-1.462 1.823-1.084 1.348 2.339 1.879 1.083-1.348-2.338-1.879Zm-.926 1.18-1.727 1.578 2.023 2.215 1.727-1.578-2.023-2.215Zm-1.729 1.579-1.269 1.163 2.027 2.212 1.269-1.163-2.027-2.212Zm-1.08 1.016-1.956 1.287 1.648 2.506 1.956-1.287-1.648-2.506Zm-1.955 1.286-1.383.907 1.645 2.509 1.384-.908-1.646-2.508Zm-1.165.789-2.142.943 1.209 2.745 2.142-.943-1.209-2.745Zm-2.145.944-1.41.626 1.216 2.742 1.41-.625-1.216-2.743Zm-1.158.54-2.274.555.712 2.915 2.274-.556-.712-2.914Zm-2.277.556-1.357.335.719 2.913 1.357-.335-.719-2.913Zm-1.066.293-2.335.106.136 2.996 2.335-.105-.136-2.997Zm-2.342.106-1.225.061.15 2.997 1.225-.062-.15-2.996Zm-.902.08-2.308-.387-.497 2.958 2.309.388.496-2.959Zm-2.31-.388-1.058-.176-.493 2.959 1.058.176.493-2.959Zm-.728-.081-2.159-.899-1.153 2.77 2.159.898 1.153-2.769Zm-2.15-.895-.872-.37-1.172 2.762.873.37 1.171-2.762Zm-.564-.194-1.877-1.392-1.787 2.409 1.877 1.392 1.787-2.409Zm-1.878-1.393-.714-.529-1.786 2.411.714.529 1.786-2.411Zm-.601-.437-1.736-1.568-2.011 2.226 1.736 1.569 2.011-2.227Zm-1.733-1.565-1.34-1.217-2.016 2.221 1.339 1.217 2.017-2.221Z" mask="url(#a)"></path><path fill="#DEDDD6" d="m237.307 284.477 1.481 1.815.564.696 1.004 2.115.414.872.503 2.283.238 1.075.026 2.335.009 1.261-.414 2.299-.256 1.411-.811 2.194-.546 1.471-1.154 2.036-.829 1.454-1.463 1.824-1.084 1.349-1.727 1.577-1.269 1.163-1.956 1.287-1.384.908-2.141.943-1.41.625-2.274.555-1.357.335-2.335.106-1.225.062-2.309-.388-1.057-.176-2.159-.899-.873-.37-1.877-1.393-.714-.528-1.48-1.807-.564-.696-1.005-2.115-.414-.881-.502-2.283-.238-1.075-.027-2.344-.008-1.26.414-2.3.255-1.41.811-2.194.546-1.472 1.155-2.036.828-1.454 1.463-1.824 1.075-1.348 1.727-1.578 1.269-1.163 1.957-1.287 1.383-.907 2.142-.952 1.41-.626 2.273-.555 1.357-.335 2.336-.105 1.225-.053 2.309.379 1.057.176 2.159.899.881.37 1.877 1.392.714.547 1.736 1.568 1.34 1.216 1.48 1.807.564.696 1.005 2.115.414.881.502 2.283.238 1.075.027 2.335.008 1.26-.414 2.3-.255 1.41-.811 2.194-.546 1.472-1.155 2.036-.828 1.454-1.463 1.824-1.084 1.348-1.727 1.578-1.269 1.163-1.957 1.287-1.383.907-2.142.943-1.41.626-2.273.555-1.357.335-2.336.106-1.224.061-2.309-.387-1.058-.177-2.159-.898-.881-.371-1.877-1.392-.714-.529-1.736-1.568-1.339-1.216"></path><path fill="#FD3" d="m196.54 272.853 1.48 1.815.564.696 1.005 2.115.414.881.502 2.283.238 1.075.027 2.344.008 1.26-.414 2.3-.255 1.41-.811 2.195-.546 1.471-1.155 2.036-.828 1.454-1.463 1.824-1.084 1.348-1.727 1.578-1.269 1.163-1.957 1.287-1.383.907-2.142.943-1.41.626-2.273.555-1.357.335-2.336.106-1.225.053-2.308-.38-1.058-.176-2.159-.899-.881-.37-1.877-1.392-.714-.529-1.48-1.806-.564-.696-1.005-2.115-.414-.873-.503-2.282-.237-1.075-.027-2.336-.009-1.26.414-2.3.256-1.41.811-2.194.546-1.472 1.155-2.035.828-1.455 1.463-1.824 1.084-1.348 1.727-1.577 1.269-1.164 1.956-1.286 1.384-.908 2.141-.943 1.41-.626 2.274-.555 1.357-.335 2.335-.105 1.225-.062 2.309.388 1.057.176 2.16.899.872.37 1.877 1.392.723.503 1.736 1.568 1.339 1.216.406.503 1.48 1.815.159.194 1.004 2.115.414.872.503 2.283.238 1.075.026 2.344.009 1.26-.414 2.3-.256 1.41-.811 2.194-.546 1.472-1.154 2.036-.829 1.454-1.463 1.824-1.075 1.348-1.727 1.578-1.269 1.163-1.956 1.286-1.384.908-2.141.952-1.41.626-2.274.555-.634.158-.723.177-2.335.105-1.225.053-2.309-.379-1.058-.176-2.159-.899-.872-.361-1.877-1.392-.714-.529-1.736-1.569-1.339-1.216"></path><path fill="#DEDDD6" d="m278.268 296.16 1.481 1.807.564.696 1.004 2.115.414.881.503 2.283.238 1.075.026 2.335.018 1.26-.415 2.3-.255 1.41-.811 2.195-.546 1.471-1.155 2.036-.828 1.454-1.463 1.824-1.075 1.348-1.727 1.578-1.269 1.163-1.957 1.287-1.383.907-2.142.952-1.41.626-2.273.555-1.357.335-2.336.106-1.225.061-2.308-.387-1.058-.177-2.159-.899-.872-.361-1.877-1.392-.714-.529-1.481-1.807-.564-.696-1.004-2.115-.414-.872-.503-2.283-.238-1.075-.026-2.344-.009-1.26.414-2.3.256-1.41.811-2.194.546-1.472 1.154-2.036.829-1.454 1.463-1.824 1.075-1.348 1.727-1.578 1.269-1.163 1.956-1.286 1.384-.908 2.141-.952 1.41-.625 2.274-.556 1.357-.334 2.335-.106 1.225-.062 2.309.388 1.057.176 2.16.899.872.37 1.877 1.393.705.519 1.736 1.569 1.34 1.216 1.48 1.807.564.696 1.005 2.115.414.872.502 2.283.238 1.075.026 2.335.009 1.26-.414 2.3-.255 1.41-.811 2.194-.547 1.472-1.154 2.036-.828 1.454-1.463 1.824-1.084 1.348-1.727 1.578-1.269 1.163-1.957 1.286-1.383.908-2.142.952-1.41.626-2.273.555-1.357.335-2.336.105-1.225.062-2.308-.388-1.058-.176-2.159-.899-.881-.37-1.877-1.392-.714-.529-1.736-1.569-1.34-1.216"></path><path fill="#FD3" d="m256.738 342.304 1.48 1.806.564.697 1.005 2.115.414.872.502 2.282.238 1.076.027 2.344.009 1.26-.415 2.3-.255 1.41-.811 2.194-.546 1.472-1.155 2.035-.828 1.454-1.463 1.825-1.075 1.348-1.727 1.577-1.269 1.163-1.957 1.287-1.383.908-2.142.952-1.41.625-2.273.555-1.357.335-2.336.106-1.224.062-2.309-.388-1.058-.176-2.159-.899-.881-.37-1.877-1.393-.714-.528-1.48-1.807-.564-.696-1.005-2.115-.414-.873-.503-2.282-.237-1.075-.027-2.344-.009-1.26.414-2.3.256-1.41.811-2.195.546-1.471 1.155-2.036.828-1.454 1.463-1.824 1.075-1.348 1.727-1.578 1.269-1.163 1.956-1.287 1.384-.907 2.141-.943 1.41-.626 2.274-.555 1.357-.335 2.335-.106 1.225-.061 2.309.387 1.058.176 2.159.899.872.371 1.877 1.392.723.52 1.736 1.568 1.339 1.216 1.481 1.807.564.696 1.004 2.115.415.873.502 2.282.238 1.075.026 2.344.009 1.26-.414 2.3-.256 1.41-.81 2.195-.547 1.471-1.154 2.036-.829 1.454-1.462 1.824-1.076 1.349-1.727 1.577-1.269 1.163-1.956 1.287-1.384.908-2.141.942-1.41.626-2.274.555-1.357.335-2.335.106-1.225.062-2.309-.388-1.057-.176-2.159-.899-.873-.37-1.877-1.393-.714-.528-1.736-1.569-1.339-1.216"></path><path fill="#DEDDD6" d="m215.759 330.619 1.48 1.815.564.696 1.005 2.115.414.873.502 2.282.238 1.075.027 2.336.008 1.26-.414 2.3-.255 1.41-.811 2.194-.546 1.472-1.155 2.035-.828 1.454-1.463 1.825-1.075 1.348-1.727 1.577-1.269 1.163-1.957 1.287-1.383.908-2.142.943-1.41.625-2.273.556-1.357.334-2.336.106-1.225.062-2.309-.388-1.057-.176-2.247-.661-2.247-.661-2.248-.661-2.247-.661-2.247-.661-2.247-.661-2.247-.661-2.247-.661-2.248-.661-2.247-.66-2.247-.661-2.247-.661-2.247-.661-2.247-.661-2.247-.661-2.248-.661-2.247-.661-2.247-.661-2.159-.634-1.877-1.393-.714-.528-1.48-1.807-.564-.696-1.005-2.115-.414-.872-.502-2.283-.238-1.075-.027-2.335-.009-1.261.415-2.299.255-1.411.811-2.194.546-1.471 1.155-2.036.828-1.454 1.463-1.824 1.075-1.349 1.727-1.577 1.269-1.163 1.957-1.287 1.383-.908 2.142-.943 1.409-.625 2.274-.555 1.357-.335 2.336-.106 1.224-.062 2.256.626 2.256.626 2.256.625 2.256.626 2.256.626 1.428.396 2.256.626 2.256.626 2.256.625 2.256.626 2.256.626 2.256.625 2.256.626 2.256.626 2.256.626 2.256.625 2.256.626 2.256.625 2.256.626.854.238 2.159.899.882.37 1.877 1.392.714.529 1.736 1.569 1.339 1.216 1.481 1.815.564.696 1.004 2.115.414.873.503 2.282.238 1.075.026 2.344.009 1.26-.414 2.301-.256 1.41-.811 2.194-.546 1.472-1.154 2.035-.829 1.454-1.463 1.824-1.075 1.349-1.727 1.577-1.269 1.163-1.956 1.287-1.384.908-2.141.943-1.41.625-2.274.555-1.357.335-2.335.106-1.225.062-2.309-.388-1.058-.176-2.247-.661-2.247-.661-2.247-.661-2.247-.661-2.247-.661-2.248-.661-2.247-.661-2.247-.661-2.247-.661-2.247-.661-2.247-.661-2.248-.66-2.247-.661-2.247-.661-2.37-.705-2.248-.661-2.247-.661-2.247-.661-2.027-.599-1.877-1.393-.714-.528-1.736-1.569-1.339-1.216"></path><path fill="#85B8FF" d="m367.511 157.271-27.654 59.069s-.026.353-.775.256c-.749-.106-6.653-1.965-6.653-1.965l-42.45 23.282-66.058-18.832-13.43-39.524 29.954-64.092 2.018-4.098s2.599-5.516 9.473-3.41l115.566 32.817s6.592 1.34 4.01 7.35l-.476 1.542-3.525 7.605Z"></path><path fill="#1C1C1E" d="M299.011 255.687s2.6 3.181 2.838 7.094c.229 3.912-.467 6.811-.467 6.811s-1.181 5.411-5.05 9.844c-3.868 4.424-7.42 6.177-7.42 6.177s-9.42 5.614-17.73.221c0 0 3.41 5.569 12.654 5.005 9.244-.555 15.827-9.006 15.827-9.006s5.861-6.557 5.455-15.951c0 0-.564-6.723-6.547-10.971l.44.776ZM279.623 297.545s2.6 3.181 2.838 7.094c.229 3.921-.467 6.812-.467 6.812s-1.181 5.419-5.05 9.843c-3.868 4.424-7.419 6.178-7.419 6.178s-9.421 5.604-17.731.22c0 0 3.41 5.57 12.655 5.006 9.244-.556 15.827-9.007 15.827-9.007s5.86-6.556 5.455-15.95c0 0-.565-6.724-6.548-10.971l.44.775ZM238.33 285.896s2.599 3.181 2.837 7.094c.229 3.921-.467 6.811-.467 6.811s-1.181 5.411-5.049 9.844c-3.869 4.424-7.42 6.177-7.42 6.177s-9.421 5.614-17.731.221c0 0 3.41 5.569 12.655 5.005 9.244-.564 15.827-9.006 15.827-9.006s5.86-6.557 5.455-15.951c0 0-.564-6.723-6.548-10.971l.441.776ZM197.573 274.421s2.599 3.181 2.829 7.094c.229 3.921-.468 6.812-.468 6.812s-1.18 5.411-5.049 9.843c-3.869 4.424-7.42 6.178-7.42 6.178s-9.421 5.613-17.731.22c0 0 3.411 5.57 12.655 5.006 9.244-.564 15.827-9.007 15.827-9.007s5.86-6.556 5.455-15.95c0 0-.564-6.724-6.548-10.971l.45.775ZM217.17 232.588s2.6 3.181 2.829 7.094c.229 3.922-.467 6.812-.467 6.812s-1.181 5.411-5.049 9.843c-3.869 4.424-7.42 6.178-7.42 6.178s-9.421 5.605-17.731.22c0 0 3.41 5.57 12.655 5.006 9.244-.556 15.827-9.007 15.827-9.007s5.86-6.556 5.455-15.95c0 0-.573-6.724-6.548-10.972l.449.776ZM257.893 244.044s2.6 3.181 2.829 7.094c.229 3.922-.467 6.812-.467 6.812s-1.181 5.42-5.05 9.843c-3.868 4.424-7.42 6.178-7.42 6.178s-9.42 5.605-17.73.22c0 0 3.41 5.57 12.654 5.006 9.245-.556 15.827-9.007 15.827-9.007s5.861-6.556 5.455-15.95c0 0-.564-6.724-6.547-10.971l.449.775ZM257.927 343.817s2.6 3.182 2.829 7.094c.229 3.922-.467 6.812-.467 6.812s-1.181 5.411-5.049 9.844c-3.869 4.423-7.421 6.177-7.421 6.177s-9.42 5.605-17.73.22c0 0 3.41 5.561 12.654 5.006 9.245-.555 15.828-9.006 15.828-9.006s5.86-6.557 5.454-15.951c0 0-.572-6.723-6.547-10.971l.449.775ZM222.942 342.463s-.564-6.724-6.548-10.972l.441.776s2.6 3.181 2.837 7.094c.23 3.921-.467 6.812-.467 6.812s-1.18 5.41-5.049 9.843c-3.869 4.424-7.42 6.178-7.42 6.178s-6.565 3.789-15.898 1.304l-.061-.053-40.617-12.108 3.155 2.846 38.986 11.456c2.08 1.093 5.138 2.027 9.368 1.771 9.244-.555 15.827-9.006 15.827-9.006s5.851-6.556 5.446-15.941Z"></path><path fill="#B2D2FF" d="m276.222 114.725-45.198 20.867-20.692 43.877 5.517 15.906 132.344-60.126-71.971-20.524Z"></path><path fill="#1C1C1E" d="m151.552 402.025-23.071-21.07 1.904.89.035.018.035.008 119.109 34.025.044.018h.053l6.274.361.08.009.079-.027 6.248-1.947 25.688 23.062-5.701 1.956-6.134-.344-82.22-23.44-37.426-10.681-4.997-2.838Z"></path><path stroke="#1C1C1E" stroke-width="1.5" d="m193.975 415.544 82.22 23.44 6.134.344 5.701-1.956-25.688-23.062-6.248 1.947-.079.027-.08-.009-6.274-.361h-.053l-.044-.018-119.109-34.025-.035-.008-.035-.018-1.904-.89 23.071 21.07 4.997 2.838 37.426 10.681Zm0 0-.123.423"></path><path stroke="#1C1C1E" stroke-linejoin="round" stroke-width="1.5" d="m130.43 365.163 2.247.643 2.247.643 2.247.643 2.247.644 2.247.643 2.248.643 2.247.644 2.247.643 2.247.643 2.247.644 2.247.643 2.248.643 2.247.643 2.247.644 2.247.643 2.247.643 2.247.644 2.248.643 2.247.643 2.247.644 2.247.643 2.247.643 2.247.644 2.248.643 2.247.643 2.247.643 2.247.644 2.247.643 2.247.643 2.248.644 2.247.643 2.247.643 2.247.644 2.247.643 2.247.643 2.247.643 2.248.644 2.247.643 2.247.643 2.247.644 2.247.643 2.248.643 2.247.644 2.247.643 2.247.643 2.247.644 2.247.643 2.247.643 2.248.643 2.247.644 2.247.643 3.005.855 2.335.132.705.035 2.018-.687 1.78-1.384 1.313-1.938.67-.987.987-2.124.987-2.115.987-2.115.987-2.124.987-2.115.987-2.124.987-2.114.987-2.124.987-2.115.987-2.115.987-2.124.987-2.115.987-2.124.987-2.115.987-2.115.987-2.124.987-2.114.987-2.124.987-2.115.987-2.124.987-2.115.987-2.115.987-2.124.987-2.115.987-2.123.987-2.116.987-2.114.987-2.124.987-2.115.987-2.124.987-2.115.987-2.124.987-2.115.987-2.115.987-2.123.987-2.115.987-2.124.987-2.115.987-2.124.987-2.115.987-2.115.987-2.124.987-2.115.987-2.124.987-2.123.987-2.115.987-2.124.987-2.115.987-2.124.987-2.115.987-2.123.987-2.116.987-2.114.987-2.124.987-2.115.987-2.124.987-2.115.987-2.115.987-2.124.987-2.115.987-2.123.987-2.115.987-2.124.987-2.115.987-2.124.986-2.124.987-2.115.988-2.124.987-2.114.987-2.124.987-2.115.987-2.115.987-2.124.986-2.115.987-2.124.987-2.115.987-2.123.987-2.124.987-2.115.987-2.124.987-2.115.987-2.124.987-2.115.987-2.115.987-2.123.987-2.116.987-2.123.987-2.115.987-2.115.987-2.124.987-2.115.987-2.124.987-2.115.987-2.124.987-2.114.987-2.115.987-2.124.987-2.115.987-2.124.987-2.115.987-2.124.987-2.115.987-2.123.987-2.124.987-2.115.987-2.124.987-2.115.987-2.115.987-2.124.987-2.115.987-2.123.987-2.115.987-2.124.987-2.115 1.454-3.12.617-2.256.273-.978-.22-1.956-.97-1.542-2.035-1.155-.432-.247-2.247-.643-2.247-.643-2.248-.643-2.247-.644-2.247-.643-2.247-.643-2.247-.644-2.247-.643-2.247-.643-2.248-.644-2.247-.643-2.247-.643-2.247-.643-2.247-.644-2.247-.643-2.248-.643-2.247-.644-2.247-.643-2.247-.643-2.247-.644-2.247-.643-2.248-.643-2.247-.644-2.247-.643-2.247-.643-2.247-.643-2.247-.644-2.248-.643-2.247-.643-2.247-.644-2.247-.643-2.247-.643-2.247-.644-2.248-.643-2.247-.643-2.247-.643-2.247-.644-2.247-.643-2.247-.643-2.248-.644-2.247-.643-2.247-.643-2.247-.644-2.247-.643-2.247-.643-2.248-.644-2.247-.643-2.247-.643-2.247-.643-2.247-.644-2.247-.643-3.005-.855-2.336-.132-.705-.035-2.018.687-1.78 1.384-1.313 1.938-.67.987-.987 2.124-.987 2.124-.987 2.124-.987 2.123-.987 2.116-.987 2.123-.987 2.115-.987 2.115-.987 2.124-.987 2.115-.987 2.124-.987 2.115-.986 2.124-.987 2.114-.987 2.115-.987 2.124-.987 2.115-.987 2.124-.987 2.124-.987 2.123-.987 2.116-.987 2.114-.987 2.124-.987 2.115-.987 2.124-.987 2.115-.987 2.115-.987 2.124-.987 2.115-.987 2.123-.987 2.116-.987 2.123-.987 2.115-.987 2.115-.987 2.124-.987 2.115-.987 2.124-.987 2.115-.987 2.115-.987 2.123-.987 2.115-.987 2.124-.987 2.115-.987 2.124-.987 2.124-.987 2.115-.987 2.124-.987 2.114-.987 2.124-.987 2.115-.987 2.124-.987 2.115-.987 2.115-.987 2.124-.987 2.115-.987 2.123-.987 2.115-.987 2.115-.987 2.124-.987 2.115-.987 2.124-.987 2.115-.987 2.124-.987 2.115-.987 2.115-.987 2.123-.987 2.115-.987 2.124-.987 2.115-.987 2.124-.987 2.115-.987 2.115-.987 2.124-.987 2.115-.987 2.123-.987 2.115-.987 2.124-.987 2.124-.987 2.115-.987 2.124-.987 2.115-.987 2.123-.987 2.115-.987 2.115-.987 2.124-.987 2.115-.987 2.124-.987 2.115-.987 2.115-.987 2.124-.987 2.114-.987 2.124-.987 2.115-.987 2.124-.987 2.115-.987 2.115-.987 2.124-.987 2.115-.987 2.123-.987 2.116-.987 2.123-.987 2.115-.987 2.115-.987 2.124-.987 2.115-.987 2.124-.987 2.115-.987 2.115-.987 2.123-.987 2.116-.987 2.123-.986 2.115-.987 2.124-.987 2.115-1.455 3.12-.616 2.256-.274.978.221 1.956.969 1.542 2.036 1.155.432.238Z"></path><path stroke="#1C1C1E" stroke-linejoin="round" stroke-width="1.5" d="m385.541 138.182 1.251 1.974 1.251 1.983.643 1.013.256 2.327.256 2.326.185 1.657-.617 2.256-.617 2.256-.599 2.168-.987 2.115-.987 2.123-.987 2.124-.987 2.124-.987 2.115-.987 2.124-.987 2.115-.987 2.115-.987 2.123-.987 2.115-.987 2.124-.987 2.115-.987 2.124-.987 2.115-.987 2.115-.987 2.124-.987 2.115-.987 2.123-.987 2.115-.987 2.115-.987 2.124-.987 2.115-.987 2.124-.987 2.115-.987 2.124-.987 2.115-.987 2.115-.987 2.123-.987 2.124-.987 2.124-.987 2.115-.987 2.115-.987 2.124-.987 2.115-.987 2.123-.987 2.115-.987 2.124-.987 2.115-.987 2.115-.987 2.124-.987 2.115-.987 2.124-.987 2.115-.987 2.123-.987 2.124-.987 2.115-.987 2.124-.987 2.124-.987 2.124-.987 2.123-.987 2.115-.987 2.124-.987 2.115-.987 2.124-.987 2.115-.987 2.124-.987 2.115-.987 2.114-.987 2.124-.987 2.115-.987 2.124-.987 2.115-.987 2.115-.987 2.124-.987 2.115-.987 2.123-.987 2.115-.987 2.124-.987 2.115-.987 2.115-.987 2.124-.987 2.115-.987 2.124-.987 2.115-.987 2.123-.987 2.115-.987 2.115-.987 2.124-.987 2.115-.986 2.124-.987 2.115-.987 2.115-.987 2.124-.987 2.115-.987 2.123-.987 2.115-.987 2.124-.987 2.115-.987 2.115-.987 2.124-.987 2.115-.987 2.124-.987 2.115-.987 2.123-.987 2.115-.987 2.115-.987 2.124-.987 2.115-.987 2.124-.987 2.115-.987 2.115-.987 2.124-.987 2.123-.987 2.124-.987 2.115-.987 2.124-.987 2.115-.987 2.115-.987 2.124-.987 2.115-.987 2.123-.987 2.115-.987 2.115-.987 2.124-.987 2.115-1.498 3.208-1.313 1.938-1.313 1.939-1.313 1.939-.15.229-1.842 1.436-1.842 1.437-1.842 1.436-.193.15-2.212.758-2.212.758-2.071.705-2.335-.132-2.336-.132-1.604-.089-2.247-.643-2.247-.643-2.247-.644-2.247-.643-2.247-.643-2.248-.643-2.247-.644-2.247-.643-2.247-.643-2.247-.644-2.247-.643-2.248-.643-2.247-.644-2.247-.643-2.247-.643-2.247-.643-2.247-.644-2.248-.643-2.247-.643-2.247-.644-2.247-.643-2.247-.643-2.247-.644-2.248-.643-2.247-.643-2.247-.644-2.247-.643-2.247-.643-2.247-.643-2.248-.644-2.247-.643-2.247-.643-2.247-.644-2.247-.643-2.247-.643-2.248-.644-2.247-.643-2.247-.643-2.247-.643-2.247-.644-2.247-.643-2.248-.643-2.247-.644-2.247-.643-2.247-.643-2.247-.644-2.247-.643-2.248-.643-2.247-.644-2.247-.643-2.247-.643-2.247-.643-2.732-.776-2.036-1.154-2.035-1.155-1.023-.581-1.251-1.983-1.251-1.983-.644-1.013-.255-2.327-.256-2.326-.185-1.657.617-2.256.617-2.256.599-2.168.987-2.124.987-2.115.987-2.123.987-2.115.987-2.115.987-2.124.987-2.115.987-2.124.987-2.115.987-2.115.987-2.123.987-2.115.987-2.124.987-2.115.987-2.124.987-2.115.987-2.115.987-2.124.987-2.123.987-2.124.987-2.115.987-2.124.987-2.115.987-2.115.987-2.124.987-2.115.987-2.123.987-2.116.987-2.114.987-2.124.987-2.115.987-2.124.987-2.115.987-2.124.987-2.115.987-2.115.987-2.123.987-2.115.987-2.124.987-2.115.987-2.115.987-2.124.987-2.115.987-2.124.987-2.115.987-2.123.987-2.115.987-2.115.987-2.124.987-2.124.987-2.124.987-2.115.987-2.123.987-2.115.987-2.115.987-2.124.987-2.115.987-2.124.987-2.115.987-2.115.987-2.124.987-2.115.987-2.123.987-2.115.987-2.124.987-2.124.986-2.115.987-2.124.987-2.115.987-2.124.987-2.114.987-2.124.987-2.115.987-2.115.987-2.124.987-2.115.987-2.124.987-2.115.987-2.115.987-2.123.987-2.115.987-2.124.987-2.115.987-2.124.987-2.115.987-2.115.987-2.124.987-2.115.987-2.123.987-2.115.987-2.115.987-2.124.987-2.115.987-2.124.987-2.115.987-2.124.987-2.115.987-2.115.987-2.123.987-2.115.987-2.124.987-2.124.987-2.124.987-2.115.987-2.115.987-2.123.987-2.115.987-2.124.987-2.115.987-2.115.987-2.124.987-2.115.987-2.124.987-2.123.987-2.124 1.498-3.208 1.313-1.939 1.313-1.938 1.313-1.939.15-.229 1.842-1.437 1.842-1.436 1.841-1.436.194-.15 2.212-.758 2.212-.758 2.071-.705 2.335.132 2.336.132 1.603.089 2.248.643 2.247.643 2.247.643 2.247.644 2.247.643 2.247.643 2.248.644 2.247.643 2.247.643 2.247.644 2.247.643 2.248.643 2.247.643 2.247.644 2.247.643 2.247.643 2.247.644 2.247.643 2.248.643 2.247.644 2.247.643 2.247.643 2.247.644 2.247.643 2.248.643 2.247.643 2.247.644 2.247.643 2.247.643 2.247.644 2.248.643 2.247.643 2.247.644 2.247.643 2.247.643 2.247.643 2.248.644 2.247.643 2.247.643 2.247.644 2.247.643 2.247.643 2.248.643 2.247.644 2.247.643 2.247.644 2.247.643 2.247.643 2.248.643 2.247.644 2.247.643 2.247.643 2.732.776 2.036 1.154 2.035 1.155 1.023.59Zm0 0 1.727 1.569 1.736 1.568 1.736 1.569 1.736 1.568 1.736 1.569 1.736 1.569 1.736 1.568 1.736 1.569 1.736 1.568 1.736 1.569 1.736 1.569 1.736 1.568 1.736 1.569 1.736 1.569 1.736 1.568.415.379 1.251 1.974 1.251 1.983.644 1.013.264 2.327.255 2.326.186 1.657-.617 2.256-.617 2.256-.591 2.168-.987 2.123-.987 2.124-.987 2.115-.987 2.115-.987 2.124-.987 2.115-.987 2.124-.987 2.115-.987 2.123-.987 2.115-.986 2.115-.987 2.124-.987 2.115-.987 2.124-.987 2.115-.987 2.115-.988 2.124-.986 2.115-.987 2.123-.987 2.115-.987 2.124-.987 2.115-.987 2.115-.987 2.124-.987 2.115-.987 2.124-.987 2.115-.987 2.123-.987 2.115-.987 2.115-.987 2.124-.987 2.115-.987 2.124-.987 2.115-.987 2.115-.987 2.124-.987 2.115-.987 2.123-.987 2.115-.987 2.124-.987 2.115-.987 2.115-.987 2.124-.987 2.115-.987 2.124-.987 2.115-.987 2.114-.987 2.124-.987 2.124-.987 2.124-.987 2.115-.987 2.124-.987 2.115-.987 2.115-.987 2.123-.987 2.115-.987 2.124-.987 2.115-.987 2.115-.987 2.124-.987 2.115-.987 2.124-.987 2.115-.987 2.123-.987 2.115-.987 2.115-.987 2.124-.987 2.115-.987 2.124-.987 2.115-.987 2.124-.987 2.114-.987 2.115-.987 2.124-.987 2.115-.987 2.124-.987 2.115-.987 2.115-.987 2.124-.987 2.115-.987 2.123-.987 2.115-.987 2.124-.987 2.115-.987 2.115-.987 2.124-.987 2.115-.987 2.124-.987 2.115-.987 2.123-.987 2.115-.987 2.115-.987 2.124-.987 2.115-.987 2.124-.987 2.115-.987 2.115-.987 2.124-.987 2.115-.987 2.123-.987 2.124-.987 2.124-.987 2.115-.987 2.115-.987 2.124-.987 2.115-.987 2.123-.987 2.115-.986 2.115-.987 2.124-.987 2.115-.987 2.124-.987 2.115-.987 2.124-.987 2.115-1.499 3.207-1.313 1.939-1.313 1.939-1.313 1.938-.15.23-1.841 1.436-1.842 1.436-1.842 1.437-.194.15-2.212.758-2.212.757-2.071.705-2.335-.132-2.335-.132-1.604-.088-2.247-.643-2.247-.644-2.247-.643-2.248-.643-2.247-.644-2.247-.643-2.247-.643-2.247-.644-2.247-.643-2.248-.643-2.247-.643-2.247-.644-2.247-.643-2.247-.643-2.247-.644-2.248-.643-2.247-.643-2.247-.644-2.247-.643-2.247-.643-2.247-.643-2.248-.644-2.247-.643-2.247-.643-2.247-.644-2.247-.643-2.247-.643-2.248-.644-2.247-.643-2.247-.643-2.247-.644-2.247-.643-2.247-.643-2.248-.643-2.247-.644-2.247-.643-2.247-.643-2.247-.644-2.247-.643-2.248-.643-2.247-.644-2.247-.643-2.247-.643-2.247-.643-2.247-.644-2.248-.643-2.247-.643-2.247-.644-2.247-.643-2.247-.643-2.247-.643-2.247-.644-2.732-.775-2.036-1.155-2.036-1.154-1.022-.582-1.736-1.568-1.736-1.569-1.736-1.569-1.736-1.568-1.736-1.569-1.736-1.568-1.736-1.569-1.736-1.569-1.736-1.568-1.736-1.569-1.736-1.569-1.736-1.568-1.736-1.569-1.737-1.568-1.736-1.569-.414-.379"></path><path stroke="#1C1C1E" stroke-linejoin="round" stroke-width="1.5" d="m210.569 179.882.758 2.212.758 2.212.758 2.212.758 2.211.758 2.212.758 2.212.757 2.212.758 2.212.758 2.212.758 2.212.758 2.212.758 2.212.758 2.212.757 2.212.758 2.212.758 2.211.758 2.212.529 1.543 2.247.643 2.247.643 2.247.643 2.247.644 2.248.643 2.247.643 2.247.644 2.247.643 2.247.643 2.247.643 2.248.644 2.247.643 2.247.643 2.247.644 2.247.643 2.247.643 2.248.644 2.247.643 2.247.643 2.247.643 2.247.644 2.247.643 2.248.643 2.247.644 2.247.643 2.247.643 2.247.644 2.247.643 2.248.643.819.229 2.053-1.119 2.054-1.119 2.053-1.128 2.053-1.119 2.054-1.128 2.053-1.119 2.053-1.12 2.053-1.119 2.054-1.128 2.053-1.119 2.053-1.119 2.054-1.128 2.053-1.119 2.053-1.119 2.054-1.119 2.053-1.129 2.053-1.119 2.053-1.128 2.054-1.119 2.053-1.119 1.463-.802 7.191 2.089M256.738 242.432l1.48 1.806.564.697 1.005 2.114.414.882.502 2.282.238 1.075.027 2.344.009 1.261-.415 2.3-.255 1.41-.811 2.194-.546 1.471-1.155 2.036-.828 1.454-1.463 1.824-1.075 1.349-1.727 1.577-1.269 1.163-1.957 1.287-1.383.908-2.142.951-1.41.626-2.273.555-1.357.335-2.336.106-1.224.062-2.309-.388-1.058-.177-2.159-.898-.881-.37-1.877-1.393-.714-.528-1.48-1.816-.564-.696-1.005-2.115-.414-.881-.503-2.283-.237-1.075-.027-2.344-.009-1.26.414-2.3.256-1.41.811-2.194.546-1.472 1.155-2.036.828-1.454 1.463-1.824 1.084-1.348 1.727-1.578 1.269-1.163 1.956-1.286 1.384-.908 2.141-.943 1.41-.626 2.274-.555 1.357-.335 2.335-.106 1.225-.061 2.309.388 1.057.176 2.159.899.873.37 1.877 1.392.714.529Zm0 0 1.736 1.568 1.339 1.217 1.481 1.815.564.696 1.004 2.115.415.873.502 2.282.238 1.075.026 2.335.009 1.26-.414 2.301-.256 1.409-.81 2.195-.547 1.472-1.154 2.035-.829 1.454-1.462 1.824-1.084 1.348-1.728 1.578-1.269 1.163-1.956 1.287-1.383.908-2.142.942-1.41.626-2.273.555-1.358.335-2.335.106-1.225.062-2.309-.388-1.057-.176-2.159-.899-.873-.37-1.877-1.393-.713-.528-1.736-1.569-1.34-1.216M215.973 230.81l1.481 1.806.564.697 1.004 2.114.414.882.503 2.282.238 1.075.026 2.335.009 1.261-.423 2.3-.256 1.41-.81 2.194-.547 1.472-1.154 2.035-.828 1.454-1.463 1.824-1.075 1.349-1.728 1.577-1.269 1.163-1.956 1.287-1.384.908-2.141.943-1.41.625-2.274.555-1.357.335-2.335.106-1.225.053-2.309-.379-1.057-.176-2.159-.899-.882-.37-1.877-1.393-.713-.528-1.481-1.816-.564-.696-1.004-2.115-.415-.881-.502-2.282-.238-1.076-.026-2.335-.009-1.26.414-2.3.256-1.401.81-2.194.547-1.472 1.154-2.036.829-1.454 1.462-1.824 1.084-1.348 1.728-1.578 1.268-1.163 1.957-1.287 1.383-.907 2.142-.943 1.41-.626 2.273-.555 1.358-.335 2.335-.106 1.225-.053 2.309.388 1.057.176 2.159.899.881.37 1.877 1.393.714.52Zm0 0 1.736 1.568 1.34 1.216.405.503 1.481 1.806.158.194 1.005 2.115.414.881.502 2.283.238 1.075.027 2.335.008 1.26-.414 2.3-.255 1.41-.811 2.195-.546 1.471-1.155 2.036-.828 1.454-1.463 1.824-1.075 1.348-1.727 1.578-1.269 1.163-1.957 1.287-1.383.907-2.142.952-1.41.626-2.273.555-.635.158-.722.177-2.336.106-1.225.061-2.308-.387-1.058-.177-2.159-.899-.881-.37-1.877-1.392-.714-.529-1.736-1.568-1.34-1.217M237.176 284.345l1.481 1.806.564.697 1.004 2.115.414.881.503 2.282.238 1.075.026 2.344.009 1.26-.414 2.301-.256 1.41-.811 2.194-.546 1.472-1.154 2.035-.829 1.454-1.463 1.824-1.083 1.349-1.728 1.577-1.269 1.163-1.956 1.287-1.384.908-2.141.951-1.41.626-2.274.555-1.357.335-2.335.106-1.225.053-2.309-.379-1.057-.176-2.159-.899-.873-.362-1.877-1.392-.714-.529m.027-.017-1.481-1.807-.564-.696-1.004-2.115-.414-.873-.503-2.282-.238-1.075-.026-2.335-.009-1.26.414-2.301.256-1.409.811-2.195.546-1.471 1.154-2.036.829-1.454 1.463-1.824 1.075-1.348 1.727-1.578 1.269-1.163 1.956-1.287 1.384-.907 2.141-.952 1.41-.626 2.274-.555 1.357-.335 2.335-.106 1.225-.061 2.309.387 1.058.177 2.159.898.872.362 1.877 1.392.714.529 1.736 1.568 1.339 1.217 1.481 1.806.564.696 1.004 2.115.415.873.502 2.282.238 1.075.026 2.336.009 1.26-.414 2.3-.256 1.41-.81 2.194-.547 1.472-1.154 2.035-.829 1.454-1.462 1.824-1.084 1.349-1.728 1.577-1.269 1.163-1.956 1.287-1.383.908-2.142.951-1.41.626-2.273.555-1.358.335-2.335.106-1.225.062-2.309-.388-1.057-.176-2.159-.899-.873-.362-1.877-1.392-.713-.529-1.736-1.568-1.331-1.216ZM196.41 272.722l1.48 1.806.564.696 1.005 2.116.414.872.502 2.282.238 1.076.027 2.344.008 1.26-.414 2.3-.255 1.41-.811 2.194-.546 1.472-1.155 2.035-.828 1.454-1.463 1.825-1.075 1.348-1.727 1.577-1.269 1.163-1.957 1.287-1.383.908-2.142.952-1.41.625-2.273.555-1.357.335-2.336.106-1.225.062-2.309-.388-1.057-.176-2.159-.899-.872-.37-1.878-1.393-.713-.528m28.376-30.306-.714-.529-1.877-1.392-.873-.37-2.159-.899-1.057-.177-2.309-.387-1.225.062-2.335.105-1.357.335-2.274.555-1.41.626-2.141.943-1.384.908-1.956 1.286-1.269 1.163-1.727 1.578-1.084 1.348-1.463 1.824-.829 1.454-1.154 2.036-.546 1.472-.811 2.194-.256 1.41-.414 2.3.009 1.26.026 2.344.238 1.075.503 2.283.414.872 1.004 2.115.564.696 1.481 1.807 1.339 1.216 1.736 1.569.714.528 1.877 1.393.873.37 2.159.899 1.057.176 2.309.388 1.225-.062 2.335-.106.723-.176.634-.159 2.274-.555 1.41-.626 2.141-.942 1.384-.908 1.956-1.287 1.269-1.163 1.727-1.577 1.084-1.349 1.463-1.824.829-1.454 1.154-2.036.546-1.471.811-2.195.256-1.41.414-2.3-.009-1.26-.026-2.344-.238-1.075-.503-2.282-.414-.873-1.004-2.115-.159-.194-1.48-1.806-.406-.503-1.339-1.216-1.736-1.568ZM278.144 296.02l1.481 1.815.564.696 1.004 2.115.414.881.503 2.283.238 1.075.026 2.344.009 1.26-.414 2.3-.256 1.41-.811 2.195-.546 1.471-1.154 2.036-.829 1.454-1.463 1.824-1.084 1.348-1.727 1.578-1.269 1.163-1.956 1.286-1.384.908-2.141.943-1.41.626-2.274.555-1.357.335-2.335.106-1.225.052-2.309-.378-1.057-.177-2.159-.899-.882-.37-1.877-1.392-.714-.529m28.394-30.314-.714-.529-1.877-1.392-.881-.371-2.159-.898-1.058-.177-2.308-.387-1.225.061-2.336.106-1.357.335-2.273.555-1.41.626-2.142.943-1.383.907-1.957 1.287-1.269 1.163-1.727 1.578-1.084 1.348-1.463 1.824-.828 1.454-1.154 2.036-.547 1.472-.811 2.194-.255 1.41-.414 2.3.009 1.26.026 2.335.238 1.075.502 2.283.414.872 1.005 2.115.564.696 1.48 1.807m28.394-30.288 1.736 1.568 1.34 1.216 1.48 1.807.564.696 1.005 2.115.414.872.502 2.283.238 1.075.027 2.344.008 1.26-.414 2.3-.255 1.41-.811 2.195-.546 1.471-1.155 2.036-.828 1.454-1.463 1.824-1.084 1.348-1.727 1.578-1.269 1.163-1.957 1.287-1.383.907-2.142.952-1.41.626-2.273.555-1.357.335-2.336.106-1.225.052-2.308-.378-1.058-.177-2.159-.899-.872-.361-1.877-1.392-.714-.529-1.736-1.569-1.34-1.216M256.606 342.162l1.48 1.807.564.696 1.005 2.115.414.872.503 2.283.237 1.075.027 2.335.018 1.26-.415 2.3-.255 1.41-.811 2.195-.546 1.471-1.155 2.036-.828 1.454-1.463 1.824-1.084 1.348-1.727 1.578-1.269 1.163-1.956 1.287-1.384.907-2.141.943-1.41.626-2.274.555-1.357.335-2.335.106-1.225.061-2.309-.387-1.058-.176-2.159-.899-.881-.371-1.877-1.392-.714-.529-1.48-1.815-.564-.696-1.005-2.115-.414-.881-.502-2.283-.238-1.075-.027-2.344-.009-1.26.415-2.3.255-1.41.811-2.194.546-1.472 1.155-2.036.828-1.454 1.463-1.824 1.075-1.348 1.727-1.578 1.269-1.163 1.957-1.286 1.383-.908 2.142-.943 1.41-.626 2.273-.555 1.357-.335 2.336-.106 1.224-.052 2.309.378 1.058.177 2.159.899.881.37 1.877 1.392.714.555Zm0 0 1.736 1.569 1.339 1.216 1.481 1.807.564.696 1.005 2.115.414.872.502 2.283.238 1.075.026 2.335.018 1.26-.414 2.3-.256 1.41-.81 2.194-.547 1.472-1.154 2.036-.829 1.454-1.462 1.824-1.076 1.348-1.727 1.578-1.269 1.163-1.956 1.286-1.384.908-2.141.952-1.41.625-2.274.556-1.357.335-2.335.105-1.225.062-2.309-.388-1.057-.176-2.151-.89-.872-.361-1.877-1.393-.714-.529-1.736-1.568-1.339-1.216M215.639 330.486l1.48 1.806.564.697 1.005 2.115.414.872.502 2.282.238 1.076.026 2.335.009 1.26-.414 2.3-.255 1.41-.811 2.194-.547 1.472-1.154 2.036-.828 1.454-1.463 1.824-1.075 1.348-1.728 1.578-1.269 1.163-1.956 1.286-1.383.908-2.142.952-1.41.626-2.273.555-1.358.335-2.335.105-1.225.062-2.309-.388-1.057-.176-2.247-.661-2.247-.661-2.248-.661-2.247-.661-2.247-.661-2.247-.66-2.247-.661-2.247-.661-2.248-.661-2.247-.661-2.247-.661-2.247-.661-2.247-.661-2.247-.661-2.248-.661-2.247-.661-2.247-.661-2.247-.661-2.159-.634-1.877-1.392-.714-.529-1.48-1.807-.564-.696-1.005-2.115-.414-.872-.503-2.283-.238-1.075-.026-2.344-.009-1.26.414-2.3.256-1.41.811-2.194.546-1.472 1.155-2.036.828-1.454 1.463-1.824 1.075-1.348 1.727-1.578 1.269-1.163 1.956-1.286 1.384-.908 2.141-.952 1.41-.626 2.274-.555 1.357-.335 2.335-.105 1.225-.062 2.256.626 2.256.625 2.256.626 2.256.626 2.256.625 1.428.397 2.256.626 2.256.625 2.256.626 2.256.625 2.256.626 2.256.626 2.256.626 2.256.625 2.256.626 2.256.626 2.256.625 2.256.626 2.256.626.863.238 2.159.899.873.37 1.877 1.392.713.529 1.736 1.568 1.34 1.216 1.48 1.807.564.696 1.005 2.115.414.873.503 2.282.238 1.075.026 2.335.009 1.26-.414 2.301-.256 1.409-.811 2.195-.546 1.471-1.155 2.036-.828 1.454-1.463 1.824-1.075 1.348-1.727 1.578-1.269 1.163-1.956 1.287-1.384.907-2.141.952-1.41.626-2.274.555-1.357.335-2.335.106-1.225.061-2.309-.387-1.058-.177-2.247-.66-2.247-.661-2.247-.661-2.247-.661-2.247-.661-2.248-.661-2.247-.661-2.247-.661-2.247-.661-2.247-.661-2.247-.661-2.248-.661-2.247-.661-2.247-.661-2.371-.705-2.247-.66-2.247-.661-2.247-.661-2.027-.6-1.877-1.392-.714-.529-1.736-1.568-1.339-1.216"></path><path stroke="#1C1C1E" stroke-miterlimit="10" stroke-width="1.5" d="m294.446 166.83 37.894-17.536 21.202 35.082 10.179 1.63 30.473 29.011"></path><path fill="#1C1C1E" stroke="#1C1C1E" stroke-linejoin="round" stroke-width="1.5" d="m342.598 186.572 19.22-14.109 8.521 5.093c1.763.97 2.521 3.05 1.639 4.856l-5.393 11.024c-.908 1.86-3.225 2.741-5.287 2.01l-9.033-3.182a4.3 4.3 0 0 1-1.146-.608l-8.521-5.084Z"></path><path fill="#fff" stroke="#1C1C1E" stroke-miterlimit="10" stroke-width="1.5" d="m360.944 172.083-9.015-2.803c-2.01-.626-4.204.238-5.103 2.009l-5.419 10.646c-1.031 2.018.017 4.406 2.273 5.199l9.033 3.181c2.062.723 4.38-.158 5.287-2.018l5.394-11.024c1.013-2.062-.124-4.477-2.45-5.19Z"></path><path fill="#1C1C1E" stroke="#1C1C1E" stroke-linejoin="round" stroke-width="1.5" d="m388.36 222.985 19.22-14.109 8.522 5.093c1.762.97 2.52 3.049 1.639 4.856l-5.393 11.024c-.908 1.851-3.226 2.741-5.288 2.01l-9.041-3.182a4.271 4.271 0 0 1-1.146-.608l-8.513-5.084Z"></path><path fill="#FD3" stroke="#1C1C1E" stroke-miterlimit="10" stroke-width="1.5" d="m406.708 208.495-9.006-2.802c-2.009-.626-4.203.238-5.102 2.009l-5.42 10.646c-1.031 2.018.018 4.406 2.274 5.199l9.041 3.181c2.062.723 4.38-.158 5.288-2.018l5.393-11.024c.996-2.053-.141-4.468-2.468-5.191Z"></path><path fill="#1C1C1E" stroke="#1C1C1E" stroke-linejoin="round" stroke-width="1.5" d="m313.174 150.545 19.22-14.108 8.521 5.093c1.763.969 2.529 3.049 1.639 4.847l-5.393 11.024c-.907 1.86-3.225 2.741-5.287 2.009l-9.042-3.181a4.278 4.278 0 0 1-1.145-.608l-8.513-5.076Z"></path><path fill="#FD3" stroke="#1C1C1E" stroke-miterlimit="10" stroke-width="1.5" d="m331.521 136.059-9.015-2.802c-2.009-.626-4.204.238-5.103 2.009l-5.419 10.645c-1.031 2.018.017 4.406 2.273 5.199l9.042 3.182c2.062.722 4.38-.159 5.287-2.018l5.394-11.025c1.013-2.053-.124-4.468-2.459-5.19Z"></path><path fill="#1C1C1E" stroke="#1C1C1E" stroke-linejoin="round" stroke-width="1.5" d="m270.239 177.662 19.22-14.108 8.522 5.093c1.762.97 2.52 3.049 1.639 4.856l-5.393 11.024c-.908 1.86-3.226 2.741-5.288 2.018l-9.041-3.181a4.3 4.3 0 0 1-1.146-.608l-8.513-5.094Z"></path><path fill="#fff" stroke="#1C1C1E" stroke-miterlimit="10" stroke-width="1.5" d="m288.586 163.172-9.015-2.802c-2.009-.626-4.203.238-5.102 2.009l-5.42 10.645c-1.031 2.018.018 4.407 2.274 5.2l9.033 3.181c2.062.723 4.379-.159 5.287-2.018l5.393-11.024c1.014-2.054-.123-4.468-2.45-5.191Z"></path><path fill="#1C1C1E" stroke="#1C1C1E" stroke-width="1.5" d="M284.498 218.049 176.37 186.615l.15-.335-.776-.414-.246.396-.917-.951 1.789.432.352.088.15-.335 3.763-8.354 13.492.995.079.009.071-.017 15.844-4.274 11.448 11.817.185.194.255-.079 14.18-4.345.07-.018.062-.044 18.885-13.809.396-.29-.326-.362-.766-.854 1.313-2.953 1.771 2.018 11.077 20.569-.026.017.758 1.384.035.07.061.053 11.007 9.324.3-.23 1.137 1.428 7.014 10.637-4.459 9.667Z"></path><path fill="#fff" stroke="#1C1C1E" stroke-linejoin="round" stroke-width="1.5" d="m173.418 184.359 108.974 31.689 4.724-10.223-7.156-10.856-12.522-10.602-11.88-21.846-21.846 15.969-14.179 4.344-11.623-12.011-16.101 4.344-13.8-1.022-4.591 10.214Z"></path><path stroke="#1C1C1E" stroke-linecap="round" stroke-linejoin="round" stroke-width="1.5" d="m267.19 138.234-6.786 18.26"></path><path fill="#FD3" stroke="#1C1C1E" stroke-miterlimit="10" stroke-width="1.5" d="M263.709 152.671a5.64 5.64 0 0 0 5.64-5.641 5.633 5.633 0 0 0-5.64-5.639 5.64 5.64 0 1 0 0 11.28Z"></path><path stroke="#1C1C1E" stroke-linecap="round" stroke-linejoin="round" stroke-width="1.5" d="m306.185 115.992-6.786 18.259"></path><path fill="#fff" stroke="#1C1C1E" stroke-miterlimit="10" stroke-width="1.5" d="M302.704 130.426a5.64 5.64 0 1 0 0-11.28 5.64 5.64 0 0 0 0 11.28Z"></path><path stroke="#1C1C1E" stroke-linecap="round" stroke-linejoin="round" stroke-width="1.5" d="m229.154 156.493-6.786 18.259"></path><path fill="#fff" stroke="#1C1C1E" stroke-miterlimit="10" stroke-width="1.5" d="M225.665 170.938a5.64 5.64 0 0 0 5.64-5.64 5.64 5.64 0 1 0-5.64 5.64Z"></path><path stroke="#1C1C1E" stroke-linecap="round" stroke-linejoin="round" stroke-width="1.5" d="m196.372 131.062-6.785 18.26"></path><path fill="#FD3" stroke="#1C1C1E" stroke-miterlimit="10" stroke-width="1.5" d="M192.901 145.496a5.64 5.64 0 1 0-.001-11.281 5.64 5.64 0 0 0 .001 11.281Z"></path><path stroke="#1C1C1E" stroke-linecap="round" stroke-linejoin="round" stroke-width="1.5" d="m160.885 147.807-6.785 18.259"></path><path fill="#fff" stroke="#1C1C1E" stroke-miterlimit="10" stroke-width="1.5" d="M157.414 162.249a5.64 5.64 0 1 0 0-11.28 5.634 5.634 0 0 0-5.64 5.64c.009 3.111 2.53 5.64 5.64 5.64Z"></path><path stroke="#1C1C1E" stroke-linecap="round" stroke-linejoin="round" stroke-width="1.5" d="m295.566 127.687-25.865 14.628M256.237 149.443l-23.309 13.853M218.977 161.41l-19.652-17.281M185.34 142.58l-21.309 11.403M244.075 251.21l-6.381 11.439M235.677 255.476l11.482 3.428M194.832 243.252l9.843 2.564M237.367 352.262l10.046 2.996M234.353 358.73l10.046 2.997M187.967 282.741l-13.659 8.064M179.083 280.025l3.825 13.536"></path></svg>