<svg width="540" height="540" viewBox="66.691 112.662 407.913 314.676" fill="none" xmlns="http://www.w3.org/2000/svg"><path d="M74 329.409L78.1721 334.385C80.1031 336.785 82.6745 338.591 85.5893 339.594L351.564 423.156C355.708 424.455 360.179 424.249 364.186 422.576C368.194 420.904 371.481 417.871 373.467 414.013L469.542 227.907C470.728 225.624 471.207 223.04 470.918 220.485C470.629 217.929 469.586 215.517 467.92 213.555L463.284 208" fill="#F8C100"></path><path d="M74 329.409L78.1721 334.385C80.1031 336.785 82.6745 338.591 85.5893 339.594L351.563 423.156C355.708 424.455 360.179 424.249 364.186 422.576C368.194 420.904 371.481 417.871 373.467 414.013L469.542 227.907C470.728 225.624 471.207 223.04 470.918 220.485C470.629 217.929 469.586 215.517 467.92 213.555L463.284 208" stroke="#1C1C1E" stroke-width="1.5" stroke-linecap="round" stroke-linejoin="round"></path><path d="M464.88 222.194L368.751 409.077C366.744 412.928 363.447 415.947 359.439 417.603C355.431 419.26 350.968 419.449 346.834 418.137L80.8258 334.858C78.666 334.182 76.681 333.039 75.0117 331.509C73.3423 329.979 72.0295 328.1 71.1663 326.005C70.3032 323.91 69.9108 321.651 70.017 319.387C70.1232 317.123 70.7255 314.91 71.781 312.906L168.722 128.113C171.039 123.771 174.804 120.382 179.36 118.535C183.916 116.688 188.974 116.502 193.653 118.008L457.111 203.842C458.894 204.436 460.528 205.411 461.898 206.699C463.269 207.987 464.344 209.557 465.05 211.302C465.756 213.047 466.075 214.924 465.985 216.805C465.896 218.685 465.4 220.524 464.532 222.194H464.88Z" fill="#FFDD33"></path><path d="M158.967 205L248 233.837L234.222 257L146 228.047L158.967 205Z" fill="#D6CCFF" stroke="#1C1C1E" stroke-width="1.5" stroke-linecap="round" stroke-linejoin="round"></path><path d="M138.782 243L202 263.903L188.297 287L126 265.751L138.782 243Z" fill="#D6CCFF" stroke="#1C1C1E" stroke-width="1.5" stroke-linecap="round" stroke-linejoin="round"></path><path d="M465.598 222.43L369.335 409.073C367.367 412.926 364.092 415.952 360.097 417.61C356.102 419.268 351.647 419.449 347.53 418.121L80.777 334.37C78.629 333.678 76.6574 332.526 74.9992 330.995C73.3411 329.464 72.0362 327.59 71.1753 325.504C70.3144 323.417 69.9181 321.169 70.014 318.914C70.1099 316.659 70.6957 314.451 71.7306 312.446L169.385 128.123C171.685 123.771 175.449 120.371 180.012 118.525C184.574 116.678 189.642 116.503 194.321 118.031L458.059 203.754C459.841 204.352 461.474 205.325 462.846 206.609C464.219 207.893 465.299 209.458 466.014 211.196C466.729 212.934 467.062 214.806 466.99 216.684C466.918 218.563 466.444 220.404 465.598 222.082V222.43Z" stroke="#1C1C1E" stroke-width="1.5" stroke-linecap="round" stroke-linejoin="round"></path><path d="M275.592 241L402 282.206L353.131 373L228 331.677L275.592 241Z" fill="white" stroke="#1C1C1E" stroke-width="1.5" stroke-linecap="round" stroke-linejoin="round"></path><path d="M236 333.946L353.622 373L400 283" fill="#F0F0F3"></path><path d="M222.174 226L248 234.037L234.093 257L178 239.089L222.174 226Z" fill="#ABA3FF"></path><path d="M158.967 205L248 233.837L234.222 257L146 228.047L158.967 205Z" stroke="#1C1C1E" stroke-width="1.5" stroke-linecap="round" stroke-linejoin="round"></path><path d="M275.592 241L402 282.206L353.131 373L228 331.677L275.592 241Z" stroke="#1C1C1E" stroke-width="1.5" stroke-linecap="round" stroke-linejoin="round"></path><path d="M153.293 247L132.155 254.248L126 265.062L189.18 286L203 263.221L153.293 247Z" fill="#ABA3FF"></path><path d="M138.782 243L202 263.903L188.297 287L126 265.751L138.782 243Z" stroke="#1C1C1E" stroke-width="1.5" stroke-linecap="round" stroke-linejoin="round"></path><path d="M465.598 222.43L369.335 409.073C367.367 412.926 364.092 415.952 360.097 417.61C356.102 419.268 351.647 419.449 347.53 418.121L80.777 334.37C78.629 333.678 76.6574 332.526 74.9992 330.995C73.3411 329.464 72.0362 327.59 71.1753 325.504C70.3144 323.417 69.9181 321.169 70.014 318.914C70.1099 316.659 70.6957 314.451 71.7306 312.446L169.385 128.123C171.685 123.771 175.449 120.371 180.012 118.525C184.574 116.678 189.642 116.503 194.321 118.031L458.059 203.754C459.841 204.352 461.474 205.325 462.846 206.609C464.219 207.893 465.299 209.458 466.014 211.196C466.729 212.934 467.062 214.806 466.99 216.684C466.918 218.563 466.444 220.404 465.598 222.082V222.43Z" stroke="#1C1C1E" stroke-width="1.5" stroke-linecap="round" stroke-linejoin="round"></path><path d="M455 240.967L162.168 144L150 167.033L443.18 264L455 240.967Z" fill="#1C1C1E"></path><path d="M455 241L162 144" stroke="#1C1C1E" stroke-width="1.5" stroke-linecap="round" stroke-linejoin="round"></path><path d="M443 265L150 167" stroke="#1C1C1E" stroke-width="1.5" stroke-linecap="round" stroke-linejoin="round"></path></svg>