<svg width="542" height="542" fill="none" viewBox="94.882 77.336 350.935 394.477" xmlns="http://www.w3.org/2000/svg"><path d="M0 0h542v542H0z" style="fill: rgba(251, 247, 239, 0);"></path><path fill="#8C6F53" d="M346.206 444.224s-9.545 1.952-12.303 11.804c-.591 2.12-.15 4.426 1.287 6.069 2.012 2.3 6.364 4.71 15.768 4.71 9.409 0 13.76-2.41 15.77-4.71 1.437-1.643 1.877-3.949 1.286-6.069-2.757-9.852-12.302-11.804-12.302-11.804"></path><mask id="a" width="36" height="23" x="333" y="444" maskUnits="userSpaceOnUse" style="mask-type:luminance"><path fill="#1C1C1E" d="M346.218 444.225s-9.546 1.952-12.303 11.804c-.591 2.12-.15 4.425 1.286 6.069 2.013 2.3 6.364 4.71 15.769 4.71 9.409 0 13.76-2.41 15.769-4.71 1.437-1.644 1.878-3.949 1.287-6.069-2.758-9.852-12.303-11.804-12.303-11.804"></path></mask><g mask="url(#a)"><path fill="#1C1C1E" d="m335.195 462.098-.675.59.001.001.674-.591Zm31.538 0-.675-.589h-.001l.676.589Zm-20.522-17.873-.18-.878-.001.001h-.004l-.008.001-.027.007a13.952 13.952 0 0 0-1.617.484 19.49 19.49 0 0 0-3.758 1.834c-2.867 1.806-6.117 4.922-7.57 10.114l1.725.483c1.304-4.661 4.206-7.448 6.8-9.081a17.698 17.698 0 0 1 3.408-1.664c.445-.159.806-.267 1.052-.334.123-.034.218-.057.278-.072l.068-.015c.006-.002.01-.002.013-.002l.002-.001h-.001l-.18-.877Zm-13.165 11.563c-.666 2.384-.179 5.009 1.474 6.9l1.349-1.179c-1.221-1.398-1.616-3.385-1.098-5.239l-1.725-.482Zm1.475 6.901c2.25 2.57 6.903 5.015 16.442 5.015v-1.792c-9.269 0-13.319-2.375-15.094-4.403l-1.348 1.18Zm16.442 5.015c9.544 0 14.198-2.444 16.444-5.016l-1.35-1.179c-1.771 2.028-5.82 4.403-15.094 4.403v1.792Zm16.444-5.016c1.653-1.891 2.14-4.516 1.475-6.9l-1.726.482c.518 1.854.123 3.841-1.098 5.239l1.349 1.179Zm1.475-6.9c-1.453-5.192-4.703-8.308-7.571-10.114a19.486 19.486 0 0 0-3.757-1.834 16.016 16.016 0 0 0-1.186-.377 12.723 12.723 0 0 0-.432-.107l-.027-.007-.008-.001h-.003l-.001-.001-.18.878-.18.877v.001a3.728 3.728 0 0 1 .081.017c.061.015.155.038.279.072.245.067.606.175 1.051.334.891.32 2.109.846 3.408 1.664 2.594 1.633 5.496 4.42 6.8 9.081l1.726-.483Z"></path></g><path fill="#8C6F53" d="M250.078 444.224s-9.546 1.952-12.304 11.804c-.591 2.12-.149 4.426 1.288 6.069 2.012 2.3 6.363 4.71 15.768 4.71 9.408 0 13.76-2.41 15.769-4.71 1.436-1.643 1.878-3.949 1.286-6.069-2.757-9.852-12.303-11.804-12.303-11.804"></path><mask id="b" width="36" height="23" x="237" y="444" maskUnits="userSpaceOnUse" style="mask-type:luminance"><path fill="#1C1C1E" d="M250.078 444.225s-9.546 1.952-12.304 11.804c-.591 2.12-.149 4.425 1.288 6.069 2.012 2.3 6.363 4.71 15.768 4.71 9.408 0 13.76-2.41 15.769-4.71 1.436-1.644 1.878-3.949 1.286-6.069-2.757-9.852-12.303-11.804-12.303-11.804"></path></mask><g mask="url(#b)"><path fill="#1C1C1E" d="m239.067 462.098-.675.59v.001l.675-.591Zm32.823-6.069.864-.241h-.001l-.863.241Zm-21.807-11.804-.181-.878-.001.001h-.003a.03.03 0 0 0-.009.001l-.027.007a16.883 16.883 0 0 0-.431.107c-.286.078-.693.2-1.186.377-.985.354-2.326.933-3.758 1.834-2.867 1.806-6.117 4.922-7.57 10.114l1.725.483c1.304-4.661 4.207-7.448 6.8-9.081a17.702 17.702 0 0 1 3.409-1.664 14.16 14.16 0 0 1 1.33-.406l.067-.015.014-.002.002-.001c-.001 0-.002.001-.181-.877Zm-13.166 11.563c-.666 2.384-.178 5.009 1.475 6.9l1.349-1.179c-1.221-1.398-1.616-3.385-1.098-5.239l-1.726-.482Zm1.475 6.901c2.25 2.57 6.903 5.015 16.443 5.015v-1.792c-9.27 0-13.318-2.375-15.094-4.403l-1.349 1.18Zm16.443 5.015c9.543 0 14.197-2.444 16.443-5.016l-1.349-1.179c-1.771 2.028-5.82 4.403-15.094 4.403v1.792Zm16.443-5.016c1.653-1.891 2.14-4.516 1.476-6.9l-1.727.482c.518 1.854.123 3.841-1.098 5.239l1.349 1.179Zm1.475-6.9c-1.453-5.192-4.703-8.308-7.571-10.114a19.486 19.486 0 0 0-3.757-1.834c-.493-.177-.9-.299-1.186-.377a15.277 15.277 0 0 0-.431-.107l-.027-.007-.009-.001h-.003l-.001-.001-.18.878c-.18.878-.181.877-.181.877l.001.001a.05.05 0 0 1 .015.002l.066.015a14.317 14.317 0 0 1 1.33.406c.891.32 2.109.846 3.409 1.664 2.593 1.633 5.496 4.42 6.799 9.081l1.726-.483Z"></path></g><path fill="#8C6F53" d="M155.683 444.174s-9.546 1.952-12.303 11.805c-.592 2.119-.15 4.425 1.287 6.069 2.012 2.3 6.363 4.709 15.769 4.709 9.408 0 13.288-2.409 15.3-4.709 1.437-1.644 1.878-3.95 1.287-6.069-2.758-9.853-12.303-11.805-12.303-11.805"></path><mask id="c" width="35" height="23" x="143" y="444" maskUnits="userSpaceOnUse" style="mask-type:luminance"><path fill="#1C1C1E" d="M155.671 444.175s-9.546 1.952-12.303 11.805c-.591 2.119-.15 4.425 1.287 6.069 2.012 2.3 6.363 4.709 15.769 4.709 9.408 0 13.289-2.409 15.301-4.709 1.437-1.644 1.877-3.95 1.286-6.069-2.757-9.853-12.302-11.805-12.302-11.805"></path></mask><g mask="url(#c)"><path fill="#1C1C1E" d="m143.373 455.98-.863-.242v.001l.863.241Zm33.643 0 .863-.241v-.001l-.863.242Zm-21.34-11.805-.18-.877-.004.001-.009.002a.131.131 0 0 0-.027.005l-.094.021c-.08.019-.193.048-.337.086-.286.079-.693.201-1.186.378-.985.353-2.326.932-3.758 1.833-2.867 1.806-6.118 4.922-7.571 10.114l1.726.483c1.304-4.661 4.207-7.447 6.8-9.08a17.642 17.642 0 0 1 3.409-1.664c.444-.16.805-.267 1.051-.335.123-.033.217-.056.279-.071l.066-.016a.049.049 0 0 0 .015-.002l-.18-.878Zm-13.166 11.564c-.665 2.384-.177 5.009 1.476 6.9l1.349-1.179c-1.222-1.397-1.616-3.385-1.098-5.24l-1.727-.481Zm1.476 6.9c2.249 2.571 6.903 5.015 16.443 5.015v-1.792c-9.27 0-13.319-2.375-15.095-4.403l-1.348 1.18Zm16.443 5.015c9.566 0 13.737-2.457 15.974-5.015l-1.348-1.18c-1.785 2.041-5.377 4.403-14.626 4.403v1.792Zm15.974-5.015c1.653-1.891 2.141-4.516 1.476-6.9l-1.726.481c.518 1.855.123 3.843-1.098 5.24l1.348 1.179Zm1.476-6.901c-1.453-5.192-4.702-8.308-7.571-10.114a19.414 19.414 0 0 0-3.757-1.833 16.616 16.616 0 0 0-1.186-.378 13.952 13.952 0 0 0-.432-.107.112.112 0 0 0-.027-.005l-.008-.002-.003-.001h-.001s-.001-.001-.18.877l-.18.878h-.001.001a.044.044 0 0 0 .015.002l.066.016c.061.015.155.038.279.071.245.068.606.175 1.051.335.891.32 2.109.845 3.408 1.664 2.595 1.633 5.496 4.419 6.8 9.08l1.726-.483Z"></path></g><path fill="#E4FFB5" d="M253.742 339.248s-1.134 13.83-19.726 24.939c-12.831 7.668-24.96 8.64-31.243 8.506a3.24 3.24 0 0 1-2.995-4.311c1.08-3.092 2.53-7.647 3.576-12.406 1.872-8.51 4.873-23.019 22.67-30.16 17.798-7.143 29.021 4.762 29.021 4.762s2.379-16.834 16.267-16.778c13.887.057 30.04 15.077 33.438 40.017 0 0 1.124 8.616-.765 9.575-1.888.959-16.747 4.06-45.03-15.424v21.657l4.048-4.813a5.335 5.335 0 0 1 8.342 6.648l-11.788 15.615-.407 62.286s-.011 1.708-4.543 1.708c0 0-4.468.174-4.468-1.708v-100.4"></path><mask id="d" width="107" height="139" x="199" y="313" maskUnits="userSpaceOnUse" style="mask-type:luminance"><path fill="#1C1C1E" d="M253.734 339.249s-1.133 13.83-19.726 24.939c-12.831 7.668-24.959 8.64-31.243 8.506a3.24 3.24 0 0 1-2.995-4.311c1.08-3.092 2.53-7.647 3.577-12.406 1.871-8.51 4.872-23.019 22.67-30.16 17.797-7.143 29.02 4.762 29.02 4.762s2.38-16.835 16.267-16.778c13.887.057 30.04 15.077 33.439 40.017 0 0 1.123 8.616-.765 9.575-1.889.959-16.748 4.06-45.03-15.424v21.657l4.047-4.813a5.335 5.335 0 0 1 8.342 6.648l-11.787 15.615-.408 62.286s-.011 1.708-4.543 1.708c0 0-4.468.174-4.468-1.708v-100.4"></path></mask><g mask="url(#d)"><path fill="#1C1C1E" d="m255.043 330.579-.651.615 1.277 1.355.261-1.844-.887-.126Zm49.706 23.239.888-.116-.001-.006-.887.122Zm-45.795-5.849.508-.738-1.404-.967v1.705h.896Zm0 21.657h-.896v2.457l1.582-1.88-.686-.577Zm4.047-4.812.686.577v-.001l-.686-.576Zm-3.445 22.262-.715-.539-.18.236-.001.298.896.005Zm-4.951 63.994v-.896h-.034l.034.896Zm-.865-111.821c-.893-.073-.893-.073-.892-.074v-.001l-.001.003-.002.021-.012.1c-.011.091-.03.232-.062.418a17.14 17.14 0 0 1-.363 1.634c-.381 1.411-1.08 3.422-2.347 5.778-2.533 4.707-7.352 10.821-16.506 16.292l.919 1.538c9.438-5.639 14.481-11.994 17.164-16.981 1.339-2.489 2.087-4.63 2.5-6.16.206-.764.328-1.377.4-1.804.036-.213.059-.379.073-.496l.017-.137a.863.863 0 0 1 .003-.038l.001-.013v-.004l.001-.001c0-.001 0-.002-.893-.075Zm-20.185 24.171c-12.644 7.554-24.592 8.51-30.765 8.379l-.038 1.791c6.393.136 18.704-.853 31.722-8.632l-.919-1.538Zm-30.765 8.379a2.345 2.345 0 0 1-2.168-3.121l-1.691-.59c-.93 2.662 1.007 5.442 3.821 5.502l.038-1.791Zm-2.168-3.121c1.086-3.11 2.549-7.702 3.606-12.509l-1.751-.384c-1.035 4.712-2.473 9.23-3.546 12.303l1.691.59Zm3.606-12.509c1.869-8.498 4.793-22.564 22.129-29.521l-.668-1.663c-18.259 7.328-21.338 22.279-23.212 30.8l1.751.384Zm22.129-29.521c8.651-3.472 15.662-2.308 20.507-.301a25.65 25.65 0 0 1 5.608 3.199c.641.483 1.127.903 1.451 1.197.162.148.282.265.361.342l.086.087a.251.251 0 0 1 .018.019l.004.004.651-.616c.652-.614.651-.614.651-.615v-.001l-.003-.004c-.003-.001-.005-.005-.009-.008l-.031-.031a13.888 13.888 0 0 0-.521-.5c-.36-.329-.889-.784-1.578-1.304a27.511 27.511 0 0 0-6.002-3.424c-5.215-2.16-12.715-3.377-21.861.293l.668 1.663Zm28.686 3.931.887.126.001-.006.004-.031.022-.129c.019-.115.05-.287.094-.507.089-.442.231-1.077.444-1.842.428-1.532 1.135-3.564 2.257-5.586 2.241-4.04 6.059-7.934 12.554-7.907l.007-1.792c-7.391-.03-11.707 4.466-14.127 8.83-1.209 2.179-1.965 4.352-2.417 5.974a27.56 27.56 0 0 0-.475 1.971c-.048.24-.081.429-.104.561l-.025.153a.52.52 0 0 1-.006.042l-.002.012-.001.004v.001l.887.126Zm16.263-15.882c13.268.055 29.19 14.548 32.555 39.242l1.775-.243c-3.432-25.185-19.815-40.731-34.323-40.791l-.007 1.792Zm33.443 39.121-.888.116v.004a.139.139 0 0 1 .003.017l.008.068.031.268c.027.232.063.566.099.97.076.81.155 1.894.177 3.002.021 1.117-.016 2.219-.162 3.079-.074.432-.168.763-.273.991-.11.24-.187.272-.166.262l.811 1.597c.492-.25.794-.697.984-1.113.195-.425.323-.925.409-1.437.175-1.024.211-2.257.188-3.414a44.52 44.52 0 0 0-.183-3.131 56.509 56.509 0 0 0-.103-1.008l-.034-.283-.009-.076a.178.178 0 0 0-.003-.02l-.001-.006v-.001l-.888.115Zm-1.171 8.777c-.313.158-1.454.52-3.501.638-2.017.117-4.857-.007-8.53-.763-7.346-1.511-18.021-5.549-32.085-15.239l-1.016 1.476c14.217 9.796 25.113 13.949 32.74 15.518 3.812.785 6.809.924 8.994.797 2.153-.124 3.578-.509 4.209-.83l-.811-1.597Zm-45.52-14.626v21.657h1.791v-21.657h-1.791Zm1.582 22.234 4.047-4.812-1.371-1.154-4.048 4.813 1.372 1.153Zm4.047-4.813a4.439 4.439 0 0 1 6.31-.495l1.176-1.352a6.23 6.23 0 0 0-8.857.695l1.371 1.152Zm6.31-.495a4.44 4.44 0 0 1 .631 6.027l1.43 1.079a6.232 6.232 0 0 0-.885-8.458l-1.176 1.352Zm.631 6.027-11.787 15.615 1.429 1.079 11.789-15.615-1.431-1.079Zm-11.968 16.149-.408 62.285 1.792.012.407-62.286-1.791-.011Zm.488 62.291-.896-.007v-.016l.001-.016.002-.026a.197.197 0 0 1 .004-.034c.003-.014.005-.013-.002-.001-.008.02-.054.113-.219.237-.346.26-1.254.675-3.433.675v1.792c2.354 0 3.717-.439 4.509-1.034.404-.303.644-.636.778-.937.067-.148.104-.28.126-.388.01-.053.017-.102.02-.142l.004-.055.001-.023v-.01l.001-.005v-.002c0-.002 0-.003-.896-.008Zm-4.543 1.708-.034-.896h-.001l-.006.001-.031.001-.128.002a10.554 10.554 0 0 1-1.882-.14c-.519-.088-.951-.22-1.231-.386-.262-.156-.259-.251-.259-.29h-1.792c0 .901.562 1.491 1.138 1.831.558.331 1.242.509 1.841.612.613.105 1.217.144 1.66.158a14.077 14.077 0 0 0 .697.004l.044-.001.013-.001h.006l-.035-.895Zm-3.572-1.708v-100.4h-1.792v100.4h1.792Z"></path></g><path fill="#E4FFB5" d="M163.648 429.111s27.864 24.699 58.235-10.946a3.623 3.623 0 0 0-.833-5.417c-11.259-7.046-47.138-26.264-57.522 7.342-.184.602-.979.726-1.327.201-3.072-4.616-14.391-18.791-34.78-13.587 0 0-9.675 2.765-20.076 14.84 0 0-3.673 4.168-7.657 6.103-1.564.759-2.15 2.7-1.22 4.168 2.56 4.051 9.047 10.398 24.471 10.126 0 0 10.682.833 20.973-5.778 10.291-6.611 11.995-6.48 11.995-6.48v21.891s.081 1.4 4.79 1.4 3.79-2.276 3.79-2.276v-20.912"></path><mask id="e" width="125" height="53" x="98" y="400" maskUnits="userSpaceOnUse" style="mask-type:luminance"><path fill="#1C1C1E" d="M163.64 429.112s27.864 24.699 58.235-10.946a3.623 3.623 0 0 0-.832-5.417c-11.26-7.046-47.138-26.264-57.523 7.342-.184.602-.979.726-1.327.201-3.072-4.616-14.391-18.791-34.78-13.587 0 0-9.675 2.765-20.076 14.84 0 0-3.673 4.168-7.657 6.103-1.564.759-2.149 2.7-1.22 4.168 2.56 4.051 9.048 10.398 24.472 10.126 0 0 10.681.833 20.972-5.778 10.291-6.611 11.995-6.48 11.995-6.48v21.891s.081 1.4 4.79 1.4 3.79-2.276 3.79-2.276v-20.912"></path></mask><g mask="url(#e)"><path fill="#1C1C1E" d="m221.881 418.165.682.582.001-.001-.683-.581Zm-58.355 1.925-.856-.264-.001.003.857.261Zm-1.327.201.747-.494-.001-.002-.746.496Zm-34.779-13.586-.222-.868-.012.003-.012.004.246.861Zm-20.077 14.839.672.592.007-.007-.679-.585Zm-8.877 10.271.758-.478v-.001l-.758.479Zm24.472 10.127.07-.893-.043-.003-.043.001.016.895Zm32.967-12.259h.896v-.83l-.827-.063-.069.893Zm0 21.892h-.896v.025l.002.026.894-.051Zm8.581-.877h-.896v.175l.064.161.832-.336Zm-.84-21.587c-.594.67-.594.671-.593.671l.002.002a.012.012 0 0 1 .005.005l.019.017.067.057a25.397 25.397 0 0 0 1.225.961 37.365 37.365 0 0 0 3.66 2.368c3.154 1.796 7.688 3.817 13.202 4.698 11.098 1.773 25.96-1.105 41.33-19.143l-1.364-1.162c-15.001 17.606-29.256 20.201-39.683 18.535-5.248-.838-9.578-2.764-12.598-4.485a35.696 35.696 0 0 1-3.484-2.253 25.844 25.844 0 0 1-1.127-.883l-.053-.046-.012-.011-.002-.002-.594.671Zm58.918-10.365c1.783-2.096 1.297-5.293-1.04-6.758l-.951 1.519a2.729 2.729 0 0 1 .626 4.078l1.365 1.161Zm-1.04-6.758c-5.649-3.535-17.572-10.192-29.452-11.702-5.955-.757-11.977-.231-17.2 2.708-5.24 2.949-9.553 8.261-12.202 16.832l1.712.529c2.543-8.231 6.609-13.121 11.369-15.799 4.777-2.689 10.374-3.22 16.095-2.493 11.471 1.459 23.117 7.933 28.728 11.444l.95-1.519Zm-58.855 7.841a.15.15 0 0 1 .048-.068.145.145 0 0 1 .155-.022c.037.015.062.04.074.058l-1.494.988c.777 1.174 2.532.873 2.931-.433l-1.714-.523Zm.276-.034c-3.123-4.694-14.773-19.311-35.747-13.958l.444 1.736c19.802-5.054 30.791 8.677 33.811 13.214l1.492-.992Zm-35.525-13.09-.246-.861h-.002l-.002.001-.009.002a.421.421 0 0 0-.027.009l-.095.029a21.731 21.731 0 0 0-1.64.615c-1.104.462-2.675 1.203-4.573 2.325-3.796 2.246-8.892 6.018-14.162 12.135l1.358 1.169c5.132-5.958 10.074-9.607 13.716-11.761 1.821-1.079 3.319-1.783 4.354-2.216.517-.216.918-.365 1.186-.458.134-.048.236-.08.301-.101l.071-.022.015-.004.002-.001c.001 0 .001 0 0 0v.001l-.247-.862Zm-20.077 14.839-.672-.592-.001.002-.007.007-.028.031-.117.129a33.973 33.973 0 0 1-2.111 2.085c-1.392 1.262-3.233 2.723-5.112 3.635l.782 1.612c2.104-1.022 4.093-2.613 5.533-3.919a37.277 37.277 0 0 0 2.227-2.2c.057-.061.1-.11.13-.143l.035-.039.009-.01.003-.004.001-.001-.672-.593Zm-8.048 5.297c-2.03.985-2.81 3.519-1.586 5.453l1.514-.958c-.633-1.001-.245-2.349.854-2.883l-.782-1.612Zm-1.586 5.452c2.732 4.323 9.516 10.821 25.245 10.544l-.032-1.79c-15.119.265-21.31-5.931-23.698-9.71l-1.515.956Zm25.229 9.649c-.069.893-.069.894-.068.894h.003l.008.001.028.001.102.007.378.016c.327.01.8.017 1.399.003a37.391 37.391 0 0 0 4.916-.447c4.043-.632 9.413-2.109 14.691-5.5l-.969-1.507c-5.013 3.221-10.129 4.632-13.999 5.237-1.933.302-3.55.401-4.679.427-.563.011-1.005.005-1.302-.005-.149-.004-.262-.01-.335-.013a4.695 4.695 0 0 0-.082-.006l-.019-.001-.002-.001-.07.894Zm21.457-5.025c5.129-3.295 8.089-4.891 9.749-5.66.83-.385 1.318-.555 1.579-.63.13-.037.196-.047.214-.05l-.014.001-.034.001-.024-.001-.013-.001-.008-.001h-.003c-.002 0-.004 0 .064-.893.069-.893.067-.893.065-.894h-.011l-.015-.001-.032-.001c-.022-.001-.044 0-.068.001a1.692 1.692 0 0 0-.156.015 3.453 3.453 0 0 0-.455.101c-.379.108-.96.318-1.842.727-1.766.819-4.803 2.463-9.965 5.779l.969 1.507Zm10.614-7.234v21.892h1.792v-21.892h-1.792Zm.896 21.892c-.894.051-.894.052-.894.053v.004l.001.005.001.014.003.027.009.061c.007.045.019.095.035.151.033.111.087.239.17.374.169.274.442.549.858.787.807.465 2.189.82 4.607.82v-1.792c-2.291 0-3.304-.345-3.714-.581-.193-.112-.234-.188-.227-.175a.216.216 0 0 1 .023.056c.005.017.01.038.014.061l.006.039.001.021.001.012v.005a.01.01 0 0 0 .001.003c0 .002 0 .003-.895.055Zm4.79 2.296c2.432 0 3.802-.579 4.419-1.557a2.209 2.209 0 0 0 .269-1.74c-.013-.054-.028-.099-.039-.135l-.016-.045-.007-.017-.002-.007-.002-.004-.001-.001c0-.001 0-.002-.83.333l-.832.335-.001-.001-.001-.003-.001-.005a.016.016 0 0 1-.003-.008l-.003-.008.003.011a.477.477 0 0 1 .013.088.41.41 0 0 1-.062.252c-.101.16-.626.72-2.904.72v1.792Zm4.686-3.173v-20.912h-1.791v20.912h1.791Z"></path></g><path fill="#FD3" stroke="#1C1C1E" stroke-linecap="round" stroke-linejoin="round" stroke-width="1.5" d="m363.499 110.414-59.897-28.8c-1.537-.738-3.258.592-2.934 2.263l5.354 27.506c.071.361.044.736-.08 1.087l-8.66 24.585c-.598 1.701 1.114 3.305 2.771 2.594l63.396-27.136c.908-.391.938-1.671.046-2.099h.004Z"></path><path stroke="#1C1C1E" stroke-linecap="round" stroke-linejoin="round" stroke-width="1.5" d="M301.797 111.681s-139.146 2.446-181.84 174.133"></path><path fill="#CEFF7A" stroke="#1C1C1E" stroke-linecap="round" stroke-linejoin="round" stroke-width="1.5" d="M346.432 449.355V390.89l-16.862-17.062a4.407 4.407 0 0 1 6.214-6.25l10.651 10.4.776-128.758c.006-1.361-1.351-2.313-2.624-1.829-12.473 4.733-65.755 19.395-87.199-65.133-.608-2.397 1.043-4.783 3.503-5.071l23.519-2.754s58.142-9.832 67.6 45.726c.064.377.618.351.649-.031.785-9.949 6.39-36.881 43.716-42.022 0 0 25.477-2.165 37.841-5.487l4.114-1.08c2.146-.561 4.214 1.13 4.084 3.346-.582 10.066-3.587 35.084-18.923 52.87-9.202 10.675-22.351 17.113-36.401 18.229-6.872.545-16.952.769-28.472-.815a2.203 2.203 0 0 0-2.51 2.178v35.211l7.189-7.547a3.468 3.468 0 0 1 5.134 4.659l-12.577 14.549-.408 155.136s-.01 1.708-4.542 1.708c0 0-4.469.174-4.469-1.708h-.003Z"></path><path stroke="#1C1C1E" stroke-linecap="round" stroke-linejoin="round" stroke-width="1.5" d="M356.099 282.558 352.637 286M346.43 377.982l3.028 3.129M270.242 186.437s47.958 11.55 76.193 47.837M429.789 185.606s-8.985 7.033-18.75 10.742c-9.462 3.597-23.506 8.29-40.178 26.872a96.74 96.74 0 0 1-5.858 5.97c-1.658 1.553-3.466 3.165-4.749 4.073M258.949 369.617l-1.394 1.607M253.742 339.248s-1.134 13.83-19.726 24.939c-12.831 7.668-24.96 8.64-31.243 8.506a3.24 3.24 0 0 1-2.995-4.311c1.08-3.092 2.53-7.647 3.576-12.406 1.872-8.51 4.873-23.019 22.67-30.16 17.798-7.143 29.021 4.762 29.021 4.762s2.379-16.834 16.267-16.778c13.887.057 30.04 15.077 33.438 40.017 0 0 1.124 8.616-.765 9.575-1.888.959-16.747 4.06-45.03-15.424v21.657l4.048-4.813a5.335 5.335 0 0 1 8.342 6.648l-11.788 15.615-.407 62.286s-.011 1.708-4.543 1.708c0 0-4.468.174-4.468-1.708v-100.4"></path><path stroke="#1C1C1E" stroke-linecap="round" stroke-linejoin="round" stroke-width="1.5" d="M295.959 354.045s-12.841-25.478-29.99-27.908M246.533 334.05s-22.075 4.027-37.345 27.627M163.648 429.111s27.864 24.699 58.235-10.946a3.623 3.623 0 0 0-.833-5.417c-11.259-7.046-47.139-26.264-57.522 7.342-.184.602-.979.726-1.327.201-3.072-4.616-14.391-18.791-34.78-13.587 0 0-9.675 2.765-20.076 14.84 0 0-3.673 4.168-7.657 6.103-1.564.759-2.15 2.7-1.22 4.168 2.56 4.051 9.047 10.398 24.471 10.126 0 0 10.682.833 20.973-5.778 10.291-6.611 11.995-6.48 11.995-6.48v21.891s.081 1.4 4.79 1.4 3.79-2.276 3.79-2.276v-20.912"></path><path stroke="#1C1C1E" stroke-linecap="round" stroke-linejoin="round" stroke-width="1.5" d="M202.717 416.239s-15.792-2.383-26.697 4.011M153.072 421.002s-12.346-5.327-24.318 2.005M346.206 444.224s-9.545 1.952-12.303 11.804c-.591 2.12-.15 4.426 1.287 6.069 2.012 2.3 6.364 4.71 15.768 4.71 9.409 0 13.76-2.41 15.77-4.71 1.437-1.643 1.877-3.949 1.286-6.069-2.757-9.852-12.302-11.804-12.302-11.804M250.078 444.224s-9.546 1.952-12.304 11.804c-.591 2.12-.149 4.426 1.288 6.069 2.012 2.3 6.363 4.71 15.768 4.71 9.408 0 13.76-2.41 15.769-4.71 1.436-1.643 1.878-3.949 1.286-6.069-2.757-9.852-12.303-11.804-12.303-11.804M155.683 444.174s-9.546 1.952-12.303 11.805c-.592 2.119-.15 4.425 1.287 6.069 2.012 2.3 6.363 4.709 15.769 4.709 9.408 0 13.288-2.409 15.3-4.709 1.437-1.644 1.878-3.95 1.287-6.069-2.758-9.853-12.303-11.805-12.303-11.805"></path><path fill="#1C1C1E" stroke="#1C1C1E" stroke-width="1.5" d="m355.648 282.372-1.652 1.645 1.652-6.805v5.16ZM346.879 377.802l.037-6.11 1.334 7.525-1.371-1.415ZM258.497 369.456l-.188.214.157-1.467.031 1.253ZM253.175 343.48c.037 1.081.04 2.449-.055 3.983-.2 3.262-.84 7.247-2.511 10.835l.122-9.62.067-.122c.077-.142.189-.348.323-.604.268-.51.629-1.22 1.003-2.014a33.56 33.56 0 0 0 1.051-2.458ZM361.865 447.867c-1.57.068-3.244.511-4.584.962-.503.168-.964.34-1.363.498l.228-4.654 2.892 1.262 2.827 1.932ZM265.493 447.867c-1.57.068-3.243.511-4.584.962-.503.168-.964.34-1.362.498l.228-4.654 2.892 1.262 2.826 1.932ZM166.603 449.801c-.675.475-1.253.956-1.677 1.336l.019-1.588.24-4.876 2.891 1.262 2.879 1.967c-1.592.185-3.158 1.057-4.352 1.899Z"></path></svg>