<svg width="540" height="540" fill="none" viewBox="84.173 132.086 371.655 266.115" xmlns="http://www.w3.org/2000/svg"><path d="M0 0h540v540H0z" style="fill: rgba(251, 247, 239, 0);"></path><path fill="#F0F0F3" d="M99.614 351.825h-6.49s-6.76-.811-6.039-8.022l.811-2.614 55.614-168.106s2.254-11.177 14.512-13.07c12.259-1.893 21.813 7.482 21.813 7.482l62.104 209.839 6.13 16.855h-14.062s-11.086.992-17.306-12.078l-2.073-7.031-7.301-26.41-35.333-141.876-7.482-28.934s-.27-8.653-6.94-8.563c0 0-4.147-.09-5.769 6.58l-29.745 89.326-24.968 75.715s-2.343 5.949-1.262 8.022c1.172 2.164 3.786 2.885 3.786 2.885Z"></path><path fill="#fff" d="M147.301 165.962s2.253-4.597 10.365-4.687c8.113-.09 12.71 2.524 16.045 11.898l54.893 206.144c2.343 8.833 10.366 14.873 19.559 14.782l192.892-2.614c7.482-.09 12.89-7.211 10.997-14.422l-54.983-207.766c-2.163-8.112-9.555-13.79-17.937-13.61l-196.498 2.614-19.109.27s-10.005-.991-16.224 7.391Z"></path><path fill="#CEFF7A" d="M174.79 145.139c7.571-.09 7.481 5.318 7.481 5.318s.361 6.76.361 8.833c0 1.983-7.662 2.073-7.662 2.073s-7.661.091-7.661-1.892c0-1.983.18-8.834.18-8.834s-.271-5.408 7.301-5.498Z"></path><path fill="#D9D9D9" d="m207.596 350.383-107.984 1.442s-4.507-.811-3.876-6.129l1.442-4.687 55.344-167.114s1.082-4.057 5.048-4.507c3.966-.451 5.769 3.966 5.769 3.966l2.073 7.752 42.184 169.277Z"></path><path fill="#fff" d="m321.705 284.491-13.791.18 2.975 13.251 14.241-.181-3.425-13.25ZM328.553 309.28l-13.791.181 2.974 13.25 14.242-.181-3.425-13.25ZM352.357 284.042l-13.791.18 2.975 13.25 14.241-.18-3.425-13.25ZM359.295 308.919l-13.791.18 2.974 13.25 14.242-.18-3.425-13.25ZM383.088 283.681l-13.791.18 2.974 13.25 14.242-.18-3.425-13.25ZM389.939 308.467l-13.791.18 2.975 13.25 14.242-.18-3.426-13.25Z"></path><path fill="#F0F0F3" d="m340.549 292.963 9.104-8.833-11.087.18 1.983 8.653ZM309.815 293.236l9.104-8.834-11.087.181 1.983 8.653ZM316.745 318.114l9.103-8.834-11.086.181 1.983 8.653ZM347.397 317.752l9.104-8.833-11.087.18 1.983 8.653ZM378.131 317.3l9.104-8.833-11.087.18 1.983 8.653ZM370.747 290.621l7.121-6.94-8.653.09 1.532 6.85Z"></path><path fill="#D9D9D9" d="m205.699 341.008-92.3 1.352h-4.506s-4.237.451-4.237-2.884l.451-2.164 51.288-157.92s1.532-7.842 6.67-6.58l42.634 168.196Z"></path><path fill="#D9D9D9" d="m123.496 348.399 47.051-145.031 1.082 4.597-45.699 140.434h-2.434ZM159.641 342.359l25.959-74.453 1.082 4.597-24.608 69.856h-2.433Z"></path><path stroke="#1C1C1E" stroke-linecap="round" stroke-linejoin="round" stroke-width="1.5" d="m167.31 158.479-5.769.09s-13.881-.181-18.477 15.954L87.449 342.629c-1.532 4.597 1.983 9.374 6.76 9.284l113.392-1.533"></path><path stroke="#1C1C1E" stroke-linecap="round" stroke-linejoin="round" stroke-width="1.5" d="M147.199 165.962s2.254-4.597 10.366-4.687c8.112-.09 12.709 2.524 16.044 11.898l54.893 206.144c2.344 8.833 10.366 14.873 19.56 14.782l192.892-2.614c7.481-.09 12.889-7.211 10.996-14.422l-54.893-207.766c-2.163-8.112-9.554-13.79-17.937-13.61l-196.497 2.614"></path><path stroke="#1C1C1E" stroke-linecap="round" stroke-linejoin="round" stroke-width="1.5" d="M99.615 351.824s-5.498-.902-3.605-7.302c1.893-6.399 56.515-170.629 56.515-170.629s1.172-4.507 5.679-4.597c4.507-.09 5.679 5.498 5.679 5.498l45.969 183.429 6.67 22.535c2.434 8.112 9.915 13.7 18.478 13.61l14.512-.18M174.79 145.139c7.571-.09 7.481 5.318 7.481 5.318s.361 6.76.361 8.833c0 1.983-7.662 2.073-7.662 2.073s-7.661.091-7.661-1.892c0-1.983.18-8.834.18-8.834s-.271-5.408 7.301-5.498ZM321.705 284.491l-13.791.18 2.975 13.251 14.241-.181-3.425-13.25ZM328.553 309.28l-13.791.181 2.974 13.25 14.242-.181-3.425-13.25ZM352.357 284.042l-13.791.18 2.975 13.25 14.241-.18-3.425-13.25ZM359.295 308.919l-13.791.18 2.974 13.25 14.242-.18-3.425-13.25ZM383.088 283.681l-13.791.18 2.974 13.25 14.242-.18-3.425-13.25ZM389.939 308.467l-13.791.18 2.975 13.25 14.242-.18-3.426-13.25Z"></path><path fill="#ABA3FF" d="m413.934 322.53-37.227-139.803c-1.622-5.949-6.94-10.095-13.069-10.095H215.814c-8.924 0-15.413 8.473-13.07 17.036l34.973 131.329c2.163 8.113 9.555 13.791 18.027 13.611l150.528-1.983c5.228 0 9.014-5.048 7.662-10.095Z"></path><path stroke="#1C1C1E" stroke-linecap="round" stroke-linejoin="round" stroke-width="1.5" d="m413.933 322.53-37.227-139.623c-1.622-6.039-7.121-10.275-13.34-10.275H216.083c-9.104 0-15.684 8.563-13.34 17.306l34.883 131.059c2.163 8.113 9.554 13.791 18.027 13.611l150.528-1.983c5.318 0 9.104-5.048 7.752-10.095Z"></path><path fill="#ABA3FF" d="m416.36 322.53-37.227-139.803c-1.622-5.949-6.94-10.095-13.07-10.095H218.24c-8.924 0-15.414 8.473-13.07 17.036l34.973 131.329c2.163 8.113 9.554 13.791 18.027 13.611l150.528-1.983c5.228 0 9.014-5.048 7.662-10.095Z"></path><path stroke="#1C1C1E" stroke-linecap="round" stroke-linejoin="round" stroke-width="1.5" d="m416.358 322.53-37.226-139.623c-1.623-6.039-7.121-10.275-13.34-10.275H218.509c-9.104 0-15.684 8.563-13.34 17.306l34.882 131.059c2.164 8.113 9.555 13.791 18.028 13.611l150.528-1.983c5.318 0 9.103-5.048 7.751-10.095Z"></path><path fill="#ABA3FF" d="m418.875 322.53-37.226-139.803c-1.623-5.949-6.941-10.095-13.07-10.095H220.755c-8.923 0-15.413 8.473-13.069 17.036l34.973 131.329c2.163 8.113 9.554 13.791 18.027 13.611l150.528-1.983c5.228 0 9.013-5.048 7.661-10.095Z"></path><path stroke="#1C1C1E" stroke-linecap="round" stroke-linejoin="round" stroke-width="1.5" d="m418.874 322.53-37.226-139.623c-1.623-6.039-7.121-10.275-13.341-10.275H221.024c-9.103 0-15.683 8.563-13.34 17.306l34.883 131.059c2.163 8.113 9.555 13.791 18.027 13.611l150.528-1.983c5.318 0 9.104-5.048 7.752-10.095Z"></path><path fill="#F7F7F7" stroke="#1C1C1E" stroke-miterlimit="10" stroke-width="1.5" d="M312.421 162.085c-2.885-16.135-16.045-27.222-29.295-24.878-9.103 1.623-16.134 9.464-18.478 19.92l7.301-.09c1.983-6.94 6.58-11.898 12.439-12.889 4.507-.812 9.104.721 13.07 4.236 4.056 3.606 6.85 8.924 7.932 14.963 2.073 11.627-3.065 22.714-11.808 25.058-1.442.27-2.524 1.803-2.524 3.515 0 1.082.451 2.164 1.262 2.795.541.45 1.172.721 1.893.721.271 0 .631-.091.902-.181 12.619-2.974 20.19-17.576 17.306-33.17ZM365.964 161.274c-2.885-16.134-16.045-27.221-29.295-24.877-9.103 1.622-16.134 9.464-18.478 19.92l7.301-.09c1.983-6.941 6.58-11.898 12.439-12.89 4.507-.811 9.104.721 13.07 4.236 4.056 3.606 6.85 8.924 7.932 14.963 2.073 11.628-3.065 22.715-11.808 25.058-1.442.271-2.524 1.803-2.524 3.516 0 1.081.451 2.163 1.262 2.794.541.451 1.172.721 1.893.721.271 0 .631-.09.902-.18 12.528-2.975 20.19-17.577 17.306-33.171ZM267.007 233.385l-5.138-19.199c-.18-.811-.992-1.352-1.803-1.352h-20.371c-1.262 0-2.163 1.172-1.802 2.344l4.777 18.117c.27 1.082 1.352 1.893 2.434 1.893l20.731-.27c.811-.181 1.352-.902 1.172-1.533Z"></path><path fill="#F7F7F7" stroke="#1C1C1E" stroke-miterlimit="10" stroke-width="1.5" d="m267.002 233.385-5.137-19.2c-.181-.811-.992-1.442-1.803-1.442h-20.281c-1.262 0-2.163 1.172-1.802 2.344l4.777 18.027c.27 1.082 1.352 1.893 2.433 1.893l20.732-.27c.721 0 1.262-.721 1.081-1.352ZM301.792 233.385l-5.138-19.199c-.18-.811-.991-1.352-1.803-1.352H274.48c-1.261 0-2.163 1.172-1.802 2.344l4.777 18.117c.27 1.082 1.352 1.893 2.434 1.893l20.731-.27c.901-.181 1.352-.902 1.172-1.533Z"></path><path fill="#F7F7F7" stroke="#1C1C1E" stroke-miterlimit="10" stroke-width="1.5" d="m301.795 233.385-5.137-19.2c-.181-.811-.992-1.442-1.803-1.442h-20.281c-1.262 0-2.163 1.172-1.802 2.344l4.777 18.027c.27 1.082 1.352 1.893 2.433 1.893l20.732-.27c.811 0 1.262-.721 1.081-1.352ZM336.679 233.385l-5.138-19.199c-.181-.811-.992-1.352-1.803-1.352h-20.371c-1.262 0-2.163 1.172-1.803 2.344l4.778 18.117c.27 1.082 1.352 1.893 2.433 1.893l20.732-.27c.811-.181 1.352-.902 1.172-1.533Z"></path><path fill="#F7F7F7" stroke="#1C1C1E" stroke-miterlimit="10" stroke-width="1.5" d="m336.674 233.385-5.137-19.2c-.181-.811-.992-1.442-1.803-1.442h-20.281c-1.262 0-2.163 1.172-1.803 2.344l4.778 18.027c.27 1.082 1.352 1.893 2.433 1.893l20.732-.27c.721 0 1.262-.721 1.081-1.352ZM371.55 233.385l-5.138-19.199c-.18-.811-.992-1.352-1.803-1.352h-20.371c-1.262 0-2.163 1.172-1.802 2.344l4.777 18.117c.27 1.082 1.352 1.893 2.433 1.893l20.732-.27c.811-.181 1.352-.902 1.172-1.533Z"></path><path fill="#F7F7F7" stroke="#1C1C1E" stroke-miterlimit="10" stroke-width="1.5" d="m371.557 233.385-5.138-19.2c-.18-.811-.991-1.442-1.802-1.442h-20.281c-1.262 0-2.163 1.172-1.803 2.344l4.777 18.027c.271 1.082 1.353 1.893 2.434 1.893l20.732-.27c.721 0 1.261-.721 1.081-1.352ZM277.003 267.004l-5.138-19.199c-.18-.811-.991-1.352-1.803-1.352h-20.371c-1.261 0-2.163 1.172-1.802 2.344l4.777 18.117c.27 1.082 1.352 1.893 2.434 1.893l20.731-.27c.811-.181 1.352-.812 1.172-1.533Z"></path><path fill="#F7F7F7" stroke="#1C1C1E" stroke-miterlimit="10" stroke-width="1.5" d="m277.002 267.004-5.137-19.2c-.181-.811-.992-1.442-1.803-1.442h-20.281c-1.262 0-2.163 1.172-1.802 2.344l4.777 18.027c.27 1.082 1.352 1.893 2.433 1.893l20.732-.27c.721 0 1.262-.631 1.081-1.352ZM311.882 267.005l-5.138-19.199c-.18-.811-.992-1.352-1.803-1.352H284.57c-1.262 0-2.163 1.172-1.802 2.344l4.777 18.117c.27 1.082 1.352 1.893 2.434 1.893l20.731-.27c.811-.181 1.352-.812 1.172-1.533Z"></path><path fill="#F7F7F7" stroke="#1C1C1E" stroke-miterlimit="10" stroke-width="1.5" d="m311.885 267.005-5.137-19.2c-.181-.811-.992-1.442-1.803-1.442h-20.281c-1.262 0-2.163 1.172-1.803 2.344l4.778 18.027c.27 1.082 1.352 1.893 2.433 1.893l20.732-.27c.721 0 1.262-.631 1.081-1.352ZM346.772 267.005l-5.137-19.199c-.181-.811-.992-1.352-1.803-1.352h-20.371c-1.262 0-2.163 1.172-1.803 2.344l4.777 18.117c.271 1.082 1.353 1.893 2.434 1.893l20.732-.27c.811-.181 1.352-.812 1.171-1.533Z"></path><path fill="#CEFF7A" stroke="#1C1C1E" stroke-miterlimit="10" stroke-width="1.5" d="m346.772 267.005-5.138-19.2c-.18-.811-.991-1.442-1.802-1.442h-20.281c-1.262 0-2.163 1.172-1.803 2.344l4.777 18.027c.271 1.082 1.352 1.893 2.434 1.893l20.731-.27c.721 0 1.262-.631 1.082-1.352Z"></path><path fill="#F7F7F7" stroke="#1C1C1E" stroke-miterlimit="10" stroke-width="1.5" d="m381.554 267.005-5.138-19.199c-.18-.811-.992-1.352-1.803-1.352h-20.371c-1.262 0-2.163 1.172-1.803 2.344l4.778 18.117c.27 1.082 1.352 1.893 2.433 1.893l20.732-.27c.901-.181 1.352-.812 1.172-1.533Z"></path><path fill="#F7F7F7" stroke="#1C1C1E" stroke-miterlimit="10" stroke-width="1.5" d="m381.561 267.005-5.138-19.2c-.18-.811-.991-1.442-1.802-1.442H354.34c-1.262 0-2.163 1.172-1.803 2.344l4.777 18.027c.271 1.082 1.352 1.893 2.434 1.893l20.731-.27c.812 0 1.262-.631 1.082-1.352ZM287.112 300.625l-5.138-19.199c-.18-.811-.991-1.352-1.802-1.352h-20.371c-1.262 0-2.163 1.172-1.803 2.344l4.777 18.117c.271 1.082 1.352 1.893 2.434 1.893l20.731-.27c.812-.09 1.352-.811 1.172-1.533Z"></path><path fill="#F7F7F7" stroke="#1C1C1E" stroke-miterlimit="10" stroke-width="1.5" d="m287.108 300.626-5.138-19.199c-.18-.812-.991-1.443-1.803-1.443h-20.28c-1.262 0-2.164 1.172-1.803 2.344l4.777 18.027c.271 1.082 1.352 1.893 2.434 1.893l20.731-.27c.721.09 1.262-.631 1.082-1.352ZM321.886 300.625l-5.138-19.199c-.18-.811-.992-1.352-1.803-1.352h-20.371c-1.262 0-2.163 1.172-1.802 2.344l4.777 18.117c.27 1.082 1.352 1.893 2.433 1.893l20.732-.27c.901-.09 1.442-.811 1.172-1.533Z"></path><path fill="#F7F7F7" stroke="#1C1C1E" stroke-miterlimit="10" stroke-width="1.5" d="m321.897 300.626-5.138-19.199c-.18-.812-.991-1.443-1.802-1.443h-20.281c-1.262 0-2.163 1.172-1.803 2.344l4.777 18.027c.271 1.082 1.352 1.893 2.434 1.893l20.731-.27c.812.09 1.352-.631 1.082-1.352ZM356.776 300.625l-5.138-19.199c-.18-.811-.991-1.352-1.802-1.352h-20.371c-1.262 0-2.163 1.172-1.803 2.344l4.777 18.117c.271 1.082 1.352 1.893 2.434 1.893l20.731-.27c.812-.09 1.352-.811 1.172-1.533Z"></path><path fill="#F7F7F7" stroke="#1C1C1E" stroke-miterlimit="10" stroke-width="1.5" d="m356.776 300.626-5.138-19.199c-.18-.812-.991-1.443-1.803-1.443h-20.28c-1.262 0-2.164 1.172-1.803 2.344l4.777 18.027c.271 1.082 1.352 1.893 2.434 1.893l20.731-.27c.721.09 1.262-.631 1.082-1.352Z"></path><path fill="#CEFF7A" stroke="#1C1C1E" stroke-miterlimit="10" stroke-width="1.5" d="m391.651 300.625-5.138-19.199c-.18-.811-.991-1.352-1.802-1.352H364.34c-1.262 0-2.163 1.172-1.803 2.344l4.777 18.117c.271 1.082 1.352 1.893 2.434 1.893l20.731-.27c.812-.09 1.352-.811 1.172-1.533Z"></path><path fill="#F7F7F7" stroke="#1C1C1E" stroke-miterlimit="10" stroke-width="1.5" d="m391.655 300.626-5.138-19.199c-.18-.812-.991-1.443-1.803-1.443h-20.28c-1.262 0-2.164 1.172-1.803 2.344l4.777 18.027c.271 1.082 1.352 1.893 2.434 1.893l20.731-.27c.721.09 1.262-.631 1.082-1.352Z"></path><path fill="#1C1C1E" d="m175.777 221.936 9.194 128.805 22.625-.36-31.819-128.445Z"></path><path fill="#F7F7F7" stroke="#1C1C1E" stroke-miterlimit="10" stroke-width="1.5" d="M258.432 162.807c-2.884-16.135-16.044-27.222-29.294-24.878-9.104 1.622-16.134 9.464-18.478 19.92l7.301-.09c1.983-6.941 6.58-11.898 12.439-12.89 4.507-.811 9.104.721 13.07 4.237 4.056 3.605 6.85 8.923 7.932 14.962 2.073 11.628-3.065 22.715-11.808 25.059-1.442.27-2.524 1.802-2.524 3.515 0 1.082.451 2.163 1.262 2.794.541.451 1.172.721 1.893.721.27 0 .631-.09.901-.18 12.529-2.975 20.101-17.577 17.306-33.17Z"></path></svg>