<svg xmlns:xlink="http://www.w3.org/1999/xlink" xmlns="http://www.w3.org/2000/svg" width="64" height="64" viewBox="0 0 64 64" fill="none"><path fill="#6B991D" d="M61 28.177 40.868 8l-8.418 2.239 20.186 20.177-.054.055.054.027L32.45 50.676l8.418-2.266L61 28.232l-.054-.027.054-.027Z"></path><path stroke="#1C1C1E" stroke-linecap="round" stroke-linejoin="round" stroke-width="0.5px" d="M61 28.177 40.868 8l-8.418 2.239 20.186 20.177-.054.055.054.027L32.45 50.676l8.418-2.266L61 28.232l-.054-.027.054-.027Z" fill="none"></path><path fill="#CEFF7A" d="M52.582 30.416 41.004 18.84l-5.476-5.515-1.09-1.065-1.989-2.02-6.429 6.443.654.656 1.062 1.064 5.476 5.489L44.79 35.495l-.027.054.027.028L31.087 49.31l1.362 1.366 20.133-20.178-.055-.027.055-.055Z"></path><path fill="#265938" d="m44.762 35.55.028-.055-11.578-11.604-5.476-5.488-1.063-1.065-.653-.655-2.343 2.348 5.503 5.515 1.09 1.092 4.821 4.833-11.414 11.413L28.88 47.1l2.207 2.212L44.79 35.577l-.028-.027Z"></path><path stroke="#1C1C1E" stroke-linecap="round" stroke-linejoin="round" stroke-width="0.5px" d="M52.581 30.416 32.45 10.24l-8.772 8.791L35.09 30.47 23.677 41.885l8.772 8.792L52.58 30.498l-.054-.027.054-.055ZM52.636 30.416l8.363-2.184" fill="none"></path><path fill="#6B991D" d="m40.296 33.474-20.133-20.15-8.418 2.24L31.932 35.74l-.027.027.027.054L11.745 56l8.418-2.266 20.133-20.178-.028-.027.028-.055Z"></path><path stroke="#1C1C1E" stroke-linecap="round" stroke-linejoin="round" stroke-width="0.5px" d="m40.296 33.474-20.133-20.15-8.418 2.24L31.932 35.74l-.027.027.027.054L11.745 56l8.418-2.266 20.133-20.178-.028-.027.028-.055Z" fill="none"></path><path fill="#CEFF7A" d="M13.76 17.584 8.504 29.87l1.062 1.065 5.258-12.287-1.062-1.064ZM31.878 35.74 20.327 24.136 8.204 52.423 11.745 56l20.133-20.178-.027-.054.027-.028Z"></path><path fill="#E4FFB5" d="M14.823 18.648 9.565 30.935l4.822 4.833L3 47.208l5.203 5.215 12.123-28.287-5.503-5.488ZM11.745 15.563 3 24.355l5.503 5.515 5.258-12.287-2.016-2.02Z"></path><path stroke="#1C1C1E" stroke-linecap="round" stroke-linejoin="round" stroke-width="0.5px" d="M31.877 35.74 11.745 15.563 3 24.355l11.387 11.413L3 47.208 11.745 56l20.132-20.178-.027-.054.027-.028ZM31.931 35.74l8.364-2.184" fill="none"></path></svg>