<svg width="200" height="201" viewBox="21.932 52.058 143.122 98.33" fill="none" xmlns="http://www.w3.org/2000/svg"><path d="M159.361 148.096C159.361 148.096 162.445 146.698 162.447 146.412L163.002 86.4096C163.006 85.7887 162.656 85.2201 162.097 84.945L99.1968 53.9814C98.7832 53.7778 98.2989 53.599 97.7101 53.7164L95.6035 54.3263" fill="#F8C100"></path><path d="M74.8794 87.0966L74.3438 146.746C74.3401 147.239 74.7363 147.643 75.2306 147.646L159.194 148.095C159.648 148.097 160.019 147.731 160.023 147.277L160.467 86.8939C160.472 86.273 160.122 85.7044 159.563 85.4292L96.6637 54.4648C95.9015 54.0897 94.978 54.351 94.5258 55.0719L75.2912 85.6915C75.0261 86.1125 74.8849 86.6004 74.8794 87.0966Z" fill="#FFDD33"></path><path d="M160.469 86.8948L137.453 107.373L124.668 118.786C124.668 118.786 123.837 118.088 123.22 117.953L110.829 117.508C110.829 117.508 108.965 118.353 108.826 118.843L95.3509 105.989L74.923 86.6518C74.923 86.6518 74.8799 86.2702 75.3211 85.5586L94.6319 54.8133C94.6319 54.8133 95.4802 53.854 96.6642 54.4657L159.648 85.4558C159.648 85.4558 160.403 85.7145 160.469 86.893V86.8948Z" fill="#F0F0F3"></path><path d="M78.6311 88.1769C78.9439 87.8385 79.385 87.6459 79.8463 87.6459H98.5353L98.6023 87.722H154.48C155.12 87.722 155.736 87.9614 156.207 88.3924L157.264 89.6938L124.668 118.786L122.989 117.508H110.828L108.825 118.843L77.4921 89.1105L77.4902 89.1096L78.6311 88.1769Z" fill="#D9D9D9"></path><path d="M162.664 85.41L160.21 85.9676L159.648 85.4549L142.863 77.1963L145.985 76.968L162.348 84.9854L162.664 85.41Z" fill="#FFDD33"></path><path d="M144.064 76.0316L141.097 76.3012L133.873 72.7566L136.8 72.4484L144.064 76.0316Z" fill="#FFDD33"></path><path d="M159.58 147.935L162.159 146.743C162.382 146.597 162.529 146.346 162.531 146.059L162.976 86.3601C162.981 85.7392 162.63 85.1706 162.072 84.8955L99.1714 53.9319C98.7569 53.7283 98.2735 53.5486 97.6847 53.6669L95.5781 54.2768" stroke="#1C1C1E" stroke-width="0.687836" stroke-linecap="round" stroke-linejoin="round"></path><path d="M130.325 91.3016V91.3355L132.216 90.1451H132.25V90.1112C120.255 84.8855 108.467 84.5938 96.9234 90.1112L94.4766 91.3016H130.325Z" fill="#F8C100"></path><path d="M100.842 90.9406L105.578 90.9406L105.578 84.5318L100.842 84.5318L100.842 90.9406Z" fill="#FFDD33"></path><path d="M126.462 117.523L126.697 104.859V99.9022L130.29 91.3355L132.181 90.1451H132.215L131.575 104.377L131.075 114.929C130.814 123.656 123.335 130.354 115.387 133.982C123.084 130.331 125.791 121.772 126.462 117.523Z" fill="#F8C100"></path><path d="M105.577 87.192L100.842 88.7089L100.883 89.1216L105.577 87.944V87.192Z" fill="#1C1C1E"></path><path d="M132.248 90.1112L130.912 114.929C130.651 123.634 123.345 130.371 115.419 134.027C114.409 134.508 114.188 134.588 112.773 134.866" stroke="#1C1C1E" stroke-width="0.687836" stroke-linecap="round" stroke-linejoin="round"></path><path d="M95.8055 114.81C95.8009 115.424 95.9165 116.377 96.0183 117.087C96.0999 117.661 96.2053 118.233 96.3658 118.79C98.2505 125.338 103.768 131.284 110.662 134.558C111.759 135.079 113.044 135.069 114.146 134.56C114.554 134.372 114.96 134.18 115.362 133.985C122.698 130.525 128.091 123.576 128.715 115.723C128.767 115.603 128.95 114.547 128.95 114.408L129.401 105.622L129.451 104.858L129.563 103.121L130.295 91.3264C118.533 85.8301 106.768 86.1906 94.6655 91.3016C94.6316 92.2352 94.7701 92.6269 94.7701 93.3982L95.1452 104.213L95.3212 107.61L95.8055 114.81Z" fill="#FFDD33"></path><path d="M94.6641 91.3016C106.054 86.3904 117.733 85.6733 130.324 91.3016L128.75 115.723C127.704 124.587 123.114 130.331 115.42 133.982C115.093 134.137 114.766 134.289 114.442 134.439C113.152 135.035 111.66 135.031 110.379 134.42C110.183 134.326 109.985 134.232 109.789 134.138C103.559 131.157 95.9535 123.928 95.7884 113.864L94.6641 91.3016Z" stroke="#1C1C1E" stroke-width="0.687836" stroke-linecap="round" stroke-linejoin="round"></path><path d="M108.612 101.581C108.598 101.767 108.598 101.954 108.612 102.14C108.724 103.2 109.139 104.207 109.81 105.044C110.48 105.88 111.378 106.511 112.4 106.865L109.266 117.884H109.396L118.287 121.504L120.048 119.717L116.208 106.838C117.22 106.486 118.11 105.858 118.774 105.028C119.438 104.198 119.85 103.199 119.961 102.147C119.988 101.962 120 101.776 119.995 101.588C119.996 101.214 119.961 100.839 119.893 100.47C119.644 99.1943 118.951 98.0433 117.933 97.2152C116.916 96.3879 115.637 95.9349 114.318 95.9349C112.998 95.9349 111.72 96.3879 110.703 97.2152C109.685 98.0424 108.992 99.1934 108.743 100.47C108.644 100.831 108.6 101.206 108.612 101.581Z" fill="#F8C100"></path><path d="M107.395 118.96L106.492 121.503H118.287L117.381 118.96L117.189 119.021H107.496L107.395 118.96Z" fill="#F8C100"></path><path d="M118.287 121.503L120.048 119.717L116.262 106.818C117.217 106.371 118.163 105.838 118.828 105.008C119.492 104.178 119.903 103.179 120.014 102.127C120.042 101.942 120.053 101.756 120.048 101.568C120.049 101.194 120.015 100.819 119.947 100.45C119.697 99.1742 119.005 98.0232 117.987 97.195C116.97 96.3678 115.69 95.9147 114.371 95.9147C113.052 95.9147 112.019 95.9331 109.248 98.0232C108.231 98.8513 109.046 99.1742 108.796 100.45C108.718 100.819 108.674 101.193 108.666 101.568C108.694 101.707 108.723 101.903 108.723 102.093C108.835 103.154 109.25 104.16 109.921 104.997C110.591 105.833 111.489 106.464 112.51 106.818" stroke="#1C1C1E" stroke-width="0.687836" stroke-linecap="round" stroke-linejoin="round"></path><path d="M106.713 102.675C106.7 102.861 106.7 103.048 106.713 103.234C106.825 104.294 107.241 105.301 107.911 106.138C108.582 106.974 109.48 107.605 110.501 107.958L107.367 118.977H107.498H117.217L117.41 118.916L114.31 107.931C115.322 107.579 116.211 106.95 116.876 106.12C117.54 105.29 117.952 104.292 118.063 103.24C118.089 103.054 118.101 102.868 118.097 102.68C118.098 102.306 118.063 101.931 117.995 101.562C117.745 100.287 117.052 99.1357 116.035 98.3075C115.018 97.4803 113.739 97.0272 112.42 97.0272C111.1 97.0272 109.822 97.4803 108.804 98.3075C107.786 99.1347 107.094 100.286 106.845 101.562C106.745 101.925 106.701 102.3 106.713 102.675Z" fill="#1C1C1E"></path><path d="M106.742 103.266C106.854 104.327 107.269 105.334 107.939 106.17C108.61 107.006 109.508 107.637 110.528 107.991L107.395 118.994L106.492 121.503H118.287L117.381 118.96L114.281 107.99C115.293 107.638 116.182 107.01 116.847 106.18C117.511 105.35 117.923 104.351 118.034 103.299C118.062 103.114 118.073 102.928 118.068 102.74C118.069 102.366 118.035 101.991 117.966 101.622C117.717 100.346 117.024 99.1953 116.006 98.3671C114.989 97.5399 113.71 97.0869 112.391 97.0869C111.072 97.0869 109.793 97.5399 108.776 98.3671C107.759 99.1953 107.065 100.345 106.816 101.622C106.738 101.991 106.694 102.365 106.686 102.74C106.713 102.88 106.742 103.077 106.742 103.266Z" stroke="#1C1C1E" stroke-width="0.687836" stroke-linecap="round" stroke-linejoin="round"></path><path d="M117.217 119.021H107.525" stroke="#1C1C1E" stroke-width="0.687836" stroke-linecap="round" stroke-linejoin="round"></path><path d="M94.6875 91.2686L97.1527 90.1112C107.778 84.4902 120.784 84.802 132.252 90.1112" stroke="#1C1C1E" stroke-width="0.687836" stroke-linecap="round" stroke-linejoin="round"></path><path d="M130.326 91.3355L132.223 90.1451" stroke="#1C1C1E" stroke-width="0.687836" stroke-linecap="round" stroke-linejoin="round"></path><path d="M127.787 106.721L119.844 106.689" stroke="#1C1C1E" stroke-width="0.687836" stroke-linecap="round" stroke-linejoin="round"></path><path d="M125.8 121.503H120.588" stroke="#1C1C1E" stroke-width="0.687836" stroke-linecap="round" stroke-linejoin="round"></path><path d="M105.994 106.64H95.6895L97.6695 104.813H105.109" stroke="#1C1C1E" stroke-width="0.687836" stroke-linecap="round" stroke-linejoin="round"></path><path d="M104.699 121.503H97.6914L99.3716 119.594H105.328" stroke="#1C1C1E" stroke-width="0.687836" stroke-linecap="round" stroke-linejoin="round"></path><path d="M121.391 104.812L127.918 104.859" stroke="#1C1C1E" stroke-width="0.687836" stroke-linecap="round" stroke-linejoin="round"></path><path d="M121.902 119.688H126.456" stroke="#1C1C1E" stroke-width="0.687836" stroke-linecap="round" stroke-linejoin="round"></path><path d="M130.672 104.812H131.371" stroke="#1C1C1E" stroke-width="0.687836" stroke-linecap="round" stroke-linejoin="round"></path><path d="M129.158 119.706L130.018 119.689" stroke="#1C1C1E" stroke-width="0.687836" stroke-linecap="round" stroke-linejoin="round"></path><path d="M97.589 103.035L97.1699 91.8804M114.792 134.276C111.626 133.827 105.009 130.138 100.991 123.452C100.911 123.319 100.833 123.184 100.758 123.048M98.8978 118.063C98.3787 115.918 98.2017 114.02 98.1632 113.145L97.7954 108.297" stroke="#1C1C1E" stroke-width="0.687836" stroke-linecap="round" stroke-linejoin="round"></path><path d="M120.559 87.7808L121.797 88.0807C122.467 88.1907 123.15 88.2008 123.824 88.111L125.467 87.8762C125.467 87.8762 127.707 71.5497 113.3 71.2058C111.247 71.0627 109.194 71.4718 107.36 72.3916C105.527 73.3106 103.982 74.9962 102.892 76.714C102.892 76.714 99.8097 79.5745 100.864 87.6964C100.864 87.6964 103.511 87.192 105.632 86.495C105.632 86.495 105.512 83.4474 105.653 81.6572C105.9 78.4941 109.294 74.9669 114.237 75.63C115.137 75.7345 118.655 76.5856 120.047 80.3559C120.7 82.1222 120.559 87.7808 120.559 87.7808Z" fill="#FFDD33"></path><path d="M118.562 77.8219C118.562 77.8219 116.096 74.2414 110.637 74.8128C107.645 75.1255 105.952 76.9919 105.122 77.8934C102.447 80.7951 101.787 87.7212 101.787 87.7212C101.787 87.7212 103.695 87.4121 104.128 87.3452C104.605 87.2709 105.293 87.192 105.293 87.192C105.293 87.192 105.233 82.5615 105.855 80.7795C106.915 77.7485 108.715 76.5535 110.355 75.9409C114.29 74.4689 118.562 77.8219 118.562 77.8219Z" fill="#F8C100"></path><path d="M120.561 87.4369L120.589 83.6438C120.601 82.4873 120.479 81.572 120.141 80.6081C119.804 79.6451 119.266 78.5703 118.564 77.821C117.862 77.0726 117.01 76.4747 116.061 76.0656C115.113 75.6566 114.089 75.4457 113.054 75.4457C112.018 75.4457 110.995 75.6566 110.046 76.0656C109.098 76.4747 108.246 77.0726 107.544 77.821C106.841 78.5703 106.364 79.3682 106.027 80.3321C105.689 81.2959 105.561 82.3607 105.58 83.4191L105.578 87.7203" stroke="#1C1C1E" stroke-width="0.687836" stroke-linecap="round" stroke-linejoin="round"></path><path d="M122.865 88.4668C121.543 88.1733 120.54 87.6295 120.624 87.2526C120.708 86.8756 121.848 86.8087 123.168 87.1022C124.49 87.3956 125.493 87.9395 125.41 88.3164C125.325 88.6943 124.186 88.7612 122.865 88.4668Z" fill="#F8C100" stroke="#1C1C1E" stroke-width="0.687836" stroke-linecap="round" stroke-linejoin="round"></path><path d="M125.429 88.498L125.462 83.508C125.495 81.8856 125.2 80.2724 124.592 78.7638C123.985 77.2551 123.077 75.8803 121.924 74.7211C120.77 73.5619 119.393 72.6411 117.874 72.012C116.354 71.3837 114.723 71.0591 113.075 71.0591C111.427 71.0591 109.795 71.3828 108.275 72.012C106.756 72.6402 105.379 73.5619 104.225 74.7211C103.072 75.8803 102.165 77.2551 101.557 78.7638C100.95 80.2724 100.653 81.8856 100.686 83.508L100.684 88.9098" stroke="#1C1C1E" stroke-width="0.687836" stroke-linecap="round" stroke-linejoin="round"></path><path d="M103.206 88.4678C101.889 88.7787 100.78 88.8612 100.73 88.6512C100.681 88.4412 101.711 88.0358 103.028 87.7249C104.346 87.414 105.452 87.3159 105.501 87.525C105.551 87.735 104.523 88.1569 103.206 88.4678Z" fill="#F8C100" stroke="#1C1C1E" stroke-width="0.687836" stroke-linecap="round" stroke-linejoin="round"></path><path d="M159.944 146.073V147.779L76.781 147.575L74.5359 147.363L74.3516 145.62L96.9512 127.78L108.821 118.842L110.824 117.507L123.216 117.952L159.944 146.073Z" fill="#FFE771"></path><path d="M100.491 125.115L108.821 118.842L74.878 87.0957L74.3516 145.62L100.491 125.115Z" fill="#FFDD33"></path><path d="M132.996 125.115L124.666 118.842L160.468 86.893L159.946 146.073L132.996 125.115Z" fill="#FFDD33"></path><path d="M74.3203 145.613L109.632 118.207C110.083 117.857 110.637 117.668 111.207 117.668H122.343C122.911 117.668 123.463 117.856 123.912 118.202L160.007 146.043" stroke="#1C1C1E" stroke-width="0.687836" stroke-linecap="round" stroke-linejoin="round"></path><path d="M108.883 118.786L74.8828 86.6536" stroke="#1C1C1E" stroke-width="0.687836" stroke-linecap="round" stroke-linejoin="round"></path><path d="M74.852 87.0471L74.3164 146.697C74.3119 147.19 74.709 147.594 75.2033 147.597L159.166 148.046C159.62 148.048 159.992 147.683 159.996 147.227L160.441 86.8444C160.446 86.2235 160.095 85.6549 159.537 85.3797L96.6363 54.4153C95.8742 54.0402 94.9507 54.3015 94.4985 55.0224L75.262 85.642C74.9979 86.063 74.8557 86.5491 74.8511 87.0461L74.852 87.0471Z" stroke="#1C1C1E" stroke-width="0.687836" stroke-linecap="round" stroke-linejoin="round"></path><path d="M124.666 118.786L160.442 86.8462" stroke="#1C1C1E" stroke-width="0.687836" stroke-linecap="round" stroke-linejoin="round"></path><path d="M54.7549 102.632H33.2402C31.5509 102.632 30.1816 101.263 30.1816 99.5739C30.1816 97.8846 31.5509 96.5153 33.2402 96.5153H54.7549C56.4442 96.5153 57.8135 97.8846 57.8135 99.5739C57.8144 101.263 56.4442 102.632 54.7549 102.632Z" fill="#CEFF7A" stroke="#1C1C1E" stroke-width="0.687836" stroke-miterlimit="10"></path><path d="M47.5732 121.104H26.0586C24.3693 121.104 23 119.735 23 118.045C23 116.356 24.3693 114.987 26.0586 114.987H47.5732C49.2626 114.987 50.6318 116.356 50.6318 118.045C50.6327 119.734 49.2635 121.104 47.5732 121.104Z" fill="#CEFF7A" stroke="#1C1C1E" stroke-width="0.687836" stroke-miterlimit="10"></path><path d="M54.7549 139.575H33.2402C31.5509 139.575 30.1816 138.205 30.1816 136.516C30.1816 134.827 31.5509 133.458 33.2402 133.458H54.7549C56.4442 133.458 57.8135 134.827 57.8135 136.516C57.8144 138.205 56.4442 139.575 54.7549 139.575Z" fill="#CEFF7A" stroke="#1C1C1E" stroke-width="0.687836" stroke-miterlimit="10"></path></svg>