<svg width="540" height="540" fill="none" viewBox="124.935 65.683 290.811 406.59" xmlns="http://www.w3.org/2000/svg"><g clip-path="url(#a)"><path d="M-14-14h568v568H-14z" style="fill: rgba(251, 247, 239, 0);"></path><path fill="#746BD3" d="M268.599 434.939c57.531 0 104.168-45.5 104.168-101.628 0-56.127-46.637-101.627-104.168-101.627-57.53 0-104.167 45.5-104.167 101.627 0 56.128 46.637 101.628 104.167 101.628Z"></path><path fill="#fff" d="M359.867 300.576s-11.018-29.388-38.644-45.158v1.976c0 .676-.204 1.335-.583 1.887l-8.284 12.063a2.445 2.445 0 0 0-.016 2.738l1.231 1.832c.255.38-.035.886-.485.851l-8.94-.726c-1.016-.083-1.727 1-1.265 1.928l3.707 7.451c1.01 2.034 3.381 2.933 5.45 2.072l5.972-2.489 9.418 1.922 5.565-9.737 8.962 12.611c.188.262.437.475.724.612l10.374 5.033c.452.22.8.612.972 1.09l2.052 5.791a1.98 1.98 0 0 1-.229 1.772 1.88 1.88 0 0 1-2.394.628l-24.015-11.993a4.079 4.079 0 0 0-2.094-.424l-17.048 1.122a4.125 4.125 0 0 0-2.591 1.144c-3.448 3.295-14.233 13.947-22.386 25.726a5.252 5.252 0 0 0-.841 3.876l2.642 15.301a7.366 7.366 0 0 0 3.161 4.883l7.939 5.275a20.692 20.692 0 0 0 7.034 2.98l26.138 5.689c1.106.239 1.727 1.44 1.297 2.508l-2.282 5.673a9.473 9.473 0 0 0-.589 4.876l1.902 13.373a.799.799 0 0 0 1.09.641l11.888-4.902a20.402 20.402 0 0 0 8.376-6.419l12.484-16.193s7.454-23.811-5.689-57.283h-.003ZM192.633 272.307l3.378 4.794a1.84 1.84 0 0 0 2.728.334l6.113-5.338a29.874 29.874 0 0 1 10.712-6.011l15.362-4.809 13.456-8.708a1.173 1.173 0 0 0 .37-1.565l-2.977-5.128c-.434-.745.038-1.702.883-1.791l12.35-1.313c1.182-.124 2.132-1.052 2.31-2.25l.195-1.304s-36.359-1.972-64.88 33.086v.003ZM194.024 316.289a8.252 8.252 0 0 0-6.285-2.926h-4.64s-5.415 6.454-7.484 30.731c0 0 2.837 23.02 15.069 49.779 0 0 4.918 9.495 11.955 12.969.06.028.13.019.181-.026l18.495-16.573a37.682 37.682 0 0 0 8.162-10.457l5.788-10.935a4.2 4.2 0 0 0-.503-4.669l-40.738-47.896v.003ZM240.358 377.925c-.567-.545-1.498-.175-1.558.616l-.533 7.215c-.063.877.976 1.361 1.581.733l3.876-4.003a.958.958 0 0 0-.023-1.351l-3.343-3.213v.003ZM305.976 401.856l-5.973-6.093c-1.17-1.192-3.158-.743-3.722.844l-2.964 8.36a20.523 20.523 0 0 1-3.713 6.447l-7.509 8.816s20.952-.532 35.071-12.277l-5.941-2.518a16.177 16.177 0 0 1-5.249-3.582v.003Z"></path><path stroke="#1C1C1E" stroke-miterlimit="10" stroke-width="1.5" d="M268.599 435.258c57.531 0 104.168-45.501 104.168-101.628 0-56.128-46.637-101.628-104.168-101.628-57.53 0-104.167 45.5-104.167 101.628 0 56.127 46.637 101.628 104.167 101.628ZM270.013 208.765c27.003 0 48.893-4.204 48.893-9.389 0-5.186-21.89-9.39-48.893-9.39s-48.894 4.204-48.894 9.39c0 5.185 21.891 9.389 48.894 9.389Z"></path><path stroke="#1C1C1E" stroke-miterlimit="10" stroke-width="1.5" d="M270 236.305c47.094 0 85.271-7.33 85.271-16.372S317.094 203.561 270 203.561s-85.271 7.33-85.271 16.372 38.177 16.372 85.271 16.372ZM365.449 371.439c20.378 4.36 32.776 10.123 32.776 16.44 0 13.596-57.41 24.62-128.227 24.62-70.818 0-128.227-11.024-128.227-24.62 0-6.04 11.32-11.57 30.108-15.853M328.172 250.061c41.579 4.07 70.053 12.369 70.053 21.946 0 13.596-57.41 24.621-128.227 24.621-70.818 0-128.227-11.025-128.227-24.621 0-9.329 27.017-17.443 66.846-21.621M370.868 313.464c25.427 4.927 41.129 11.706 41.129 19.19 0 15.059-63.573 27.262-141.998 27.262-78.426 0-141.999-12.206-141.999-27.262 0-7.21 14.571-13.766 38.37-18.639M313.511 425.354c25.003 2.853 41.761 8.093 41.761 14.084 0 9.042-38.178 16.373-85.271 16.373s-85.272-7.331-85.272-16.373c0-5.794 15.684-10.887 39.349-13.797"></path><path stroke="#1C1C1E" stroke-miterlimit="10" stroke-width="1.5" d="M270.003 469.851c27.1 0 49.069-4.218 49.069-9.421 0-5.203-21.969-9.421-49.069-9.421s-49.068 4.218-49.068 9.421c0 5.203 21.968 9.421 49.068 9.421Z"></path><path fill="#F0F0F3" d="M293.9 75.27c-11.186-4.976-26.672-5.062-26.672-5.062-41.688 0-37.089 41.085-19.901 64.453 17.188 23.368 19.901 36.11 19.901 36.11s2.199 1.715 9.325 1.817"></path><path fill="#fff" d="M276.567 172.585s2.713-12.739 19.901-36.11c17.188-23.368 21.787-64.453-19.901-64.453-41.687 0-37.088 41.085-19.9 64.453 17.188 23.368 19.9 36.11 19.9 36.11Z"></path><path fill="#FF8080" d="M276.562 141.602c1.217 0 11.537-16.965 16.18-28.063 4.322-10.326 5.036-23.977-4.892-23.951-10.469.025-11.288 20.2-11.288 20.2s-.816-20.175-11.289-20.2c-9.928-.026-9.214 13.625-4.892 23.951 4.643 11.098 15.081 28.063 16.181 28.063Z"></path><path stroke="#1C1C1E" stroke-linecap="round" stroke-linejoin="round" stroke-width="1.5" d="M276.567 172.585s2.713-12.739 19.901-36.11c17.188-23.368 21.787-64.453-19.901-64.453-41.687 0-37.088 41.085-19.9 64.453 17.188 23.368 19.9 36.11 19.9 36.11Z"></path><path stroke="#1C1C1E" stroke-linecap="round" stroke-linejoin="round" stroke-width="1.5" d="M276.569 172.584c-7.127-.102-9.326-1.817-9.326-1.817s-2.712-12.739-19.9-36.11c-17.188-23.368-21.787-64.453 19.9-64.453 0 0 15.486.086 26.673 5.061"></path><path stroke="#1C1C1E" stroke-linecap="round" stroke-linejoin="round" stroke-width="1.5" d="M276.562 141.602c1.217 0 11.537-16.965 16.18-28.063 4.322-10.326 5.036-23.977-4.892-23.951-10.469.025-11.288 20.2-11.288 20.2s-.816-20.175-11.289-20.2c-9.928-.026-9.214 13.625-4.892 23.951 4.643 11.098 15.081 28.063 16.181 28.063Z"></path><path fill="#1C1C1E" d="m255.901 77.048-9.928-1.428s11.429-9.482 37.981-3.484c0 0-10.923-.962-20.108 1.46 0 0-5.702 1.855-7.945 3.448v.004ZM275.405 168.906l-2.967-6.923-6.256-11.397-6.473-9.813-9.488-2.1 4.978 7.713 4.876 7.917 3.525 6.893 2.199 5.144s1.186 4.386 1.897 4.701c.71.316 4.764 1.807 8.273 1.533 0 0 .679.08.268-1.208a88.49 88.49 0 0 0-.829-2.46h-.003Z"></path></g><defs><clipPath id="a"><path fill="#fff" d="M0 0h540v540H0z"></path></clipPath></defs></svg>