<svg xmlns:xlink="http://www.w3.org/1999/xlink" width="48" height="61" viewBox="0 0 48 61" fill="none" xmlns="http://www.w3.org/2000/svg" class="center-starts"><g clip-path="url(#clip0_1008_20430)" fill="none"><path d="M20.5384 58.6894C22.0553 45.3532 33.6922 42.4599 33.6922 42.4599C20.7874 39.8153 20.5384 25.4167 20.5384 25.4167C20.5384 25.4167 20.2893 39.7927 7.38452 42.4599C7.38452 42.4599 19.0215 45.3532 20.5384 58.6894Z" fill="#FFD233" stroke="#1C1C1E" stroke-width="0.5px" stroke-miterlimit="10"></path><path d="M42.4615 20.7955C42.9405 16.5353 46.6153 15.6111 46.6153 15.6111C42.5401 14.7662 42.4615 10.1667 42.4615 10.1667C42.4615 10.1667 42.3828 14.759 38.3076 15.6111C38.3076 15.6111 41.9824 16.5353 42.4615 20.7955Z" fill="#FFD233" stroke="#1C1C1E" stroke-width="0.5px" stroke-miterlimit="10"></path><path d="M7.38452 15.25C8.07641 9.13757 13.3845 7.81147 13.3845 7.81147C7.49811 6.59937 7.38452 0 7.38452 0C7.38452 0 7.27094 6.58902 1.38452 7.81147C1.38452 7.81147 6.69263 9.13757 7.38452 15.25Z" fill="#FFD233" stroke="#1C1C1E" stroke-width="0.5px" stroke-miterlimit="10"></path></g><defs><clipPath id="clip0_1008_20430"><rect width="48" height="61" fill="white"></rect></clipPath></defs></svg>