<svg width="540" height="540" fill="none" viewBox="39.497 137.266 460.359 266.115" xmlns="http://www.w3.org/2000/svg"><path d="M0 0h540v540H0z" style="fill: rgba(251, 247, 239, 0);"></path><path fill="#FF8080" d="m46.866 177.807-2.644 5.722c-1.298 2.173.482 4.405.482 4.405l92.922 164.677s2.463 5.618 6.734 7.647c4.272 2.028 8.396 2.896 8.396 2.896l170.986 36.011c8.599 1.535 15.971-2.214 15.971-2.214s140.492-62.106 148.691-65.777c2.563-1.146 3.876-2.674 4.473-4.232l2.629-5.618"></path><path fill="#FFB8B8" d="m332.504 387.764-95.648-169.268s-2.299-4.312-7.954-5.462c-4.847-.986-56.526-12.182-71.192-15.363-1.891-.408-3.827.285-5.084 1.757-1.257 1.473-3.69 2.804-8.555 1.958 0 0-9.73-1.231-17.099-7.62-1.876-1.628-4.112-2.785-6.545-3.289l-68.755-14.181s-3.3-1.064-4.599 1.105c-1.297 2.17.483 4.406.483 4.406l92.922 164.677s2.462 5.618 6.734 7.646c4.272 2.029 8.396 2.897 8.396 2.897l170.985 36.011s3.99.93 5.907-.801c1.918-1.732 0-4.473 0-4.473h.004Z"></path><path fill="#FFB8B8" d="M236.852 218.493s-4.353-5.966 2.733-10.546l57.501-25.109a7.108 7.108 0 0 1 6.1.215c2.418 1.25 6.805 2.251 13.747-.378s8.763-6.464 9.03-9.078c.207-2.047 1.546-3.808 3.415-4.669l60.453-27.797s5.228-2.763 8.951 2.963l96.09 169.724s4.583 7.554-3.616 11.225c-8.199 3.671-148.691 65.778-148.691 65.778s-6.805 2.703-10.065-3.063L236.852 218.49v.003Z"></path><path fill="#F0F5FF" d="m384.711 155.418-43.51 19.287a7.13 7.13 0 0 0-3.752 3.99c-1.361 3.563-5.103 9.923-15.071 14.043-9.968 4.12-17.481 2.885-21.015 1.721a7.05 7.05 0 0 0-5.117.278l-40.958 18.589a5.138 5.138 0 0 0-2.347 7.213l86.091 151.813a7.45 7.45 0 0 0 9.534 3.123l127.213-57.067c2.981-1.339 4.164-4.954 2.544-7.791l-87.16-153.074a5.065 5.065 0 0 0-6.452-2.125ZM222.852 220.47 168.6 208.641a4.09 4.09 0 0 0-3.768 1.098c-1.59 1.587-5.599 3.485-15.619 1.805-11.106-1.861-20.277-7.238-24.682-10.216a19.051 19.051 0 0 0-6.872-2.87l-50.68-10.32c-1.14-.23-2.022.979-1.455 1.991l84.327 150.408a16.878 16.878 0 0 0 11.214 8.255l152.826 32.477c1.539.326 2.74-1.321 1.961-2.685l-88.079-154.502a7.512 7.512 0 0 0-4.917-3.615l-.004.003Z"></path><path fill="#FD3" d="m277.5 345.138-16.625-3.426a3.15 3.15 0 0 0-3.741 2.421 3.155 3.155 0 0 0 2.421 3.746l16.625 3.426a3.151 3.151 0 0 0 3.741-2.421 3.155 3.155 0 0 0-2.421-3.746Z"></path><path fill="#fff" d="M451.967 263.649 391.28 157.073a5.066 5.066 0 0 0-6.452-2.125l-9.011 3.994-46.565 195.493 9.894 17.448a7.45 7.45 0 0 0 9.534 3.122l86.154-38.648 17.129-72.708h.004Z"></path><path fill="#fff" d="M388.67 194.774a3.15 3.15 0 0 0-4.161-1.602l-93.371 41.407a3.15 3.15 0 0 0-1.602 4.16 3.16 3.16 0 0 0 2.885 1.877 3.11 3.11 0 0 0 1.276-.271l93.371-41.406a3.15 3.15 0 0 0 1.602-4.161v-.004ZM396.309 209.53a3.15 3.15 0 0 0-4.161-1.602l-93.371 41.407a3.15 3.15 0 0 0-1.602 4.16 3.158 3.158 0 0 0 4.161 1.606l93.371-41.407a3.15 3.15 0 0 0 1.602-4.16v-.004ZM397.312 227.222a3.15 3.15 0 0 0-4.161-1.602l-86.733 38.466a3.15 3.15 0 0 0-1.602 4.161 3.157 3.157 0 0 0 4.16 1.606l86.734-38.466a3.151 3.151 0 0 0 1.602-4.161v-.004ZM411.586 239.033a3.15 3.15 0 0 0-4.161-1.602l-93.371 41.407a3.15 3.15 0 0 0-1.602 4.16 3.16 3.16 0 0 0 2.885 1.877c.427 0 .861-.086 1.276-.271l93.371-41.407a3.15 3.15 0 0 0 1.602-4.16v-.004ZM407.697 259.767a3.152 3.152 0 0 0-4.143-1.646l-81.46 35.084a3.152 3.152 0 0 0 1.25 6.048c.416 0 .838-.081 1.246-.259l81.46-35.085a3.152 3.152 0 0 0 1.647-4.142ZM427.608 268.537a3.15 3.15 0 0 0-4.161-1.602l-93.371 41.406a3.15 3.15 0 0 0-1.602 4.161 3.158 3.158 0 0 0 4.161 1.606l93.371-41.407a3.15 3.15 0 0 0 1.602-4.16v-.004ZM410.039 291.182l-71.955 31.91a3.15 3.15 0 0 0-1.602 4.161 3.159 3.159 0 0 0 2.885 1.876c.426 0 .86-.085 1.275-.271l71.956-31.91a3.15 3.15 0 0 0 1.602-4.16 3.15 3.15 0 0 0-4.161-1.602v-.004ZM386.179 320.605l-39.713 17.611a3.149 3.149 0 0 0-1.601 4.16 3.157 3.157 0 0 0 4.16 1.606l39.712-17.611a3.148 3.148 0 0 0 1.602-4.16 3.148 3.148 0 0 0-4.16-1.602v-.004ZM218.151 250.802a3.155 3.155 0 0 0 .657-6.238L108.29 220.835a3.154 3.154 0 0 0-1.321 6.167l110.519 23.729c.222.048.445.071.663.071ZM226.067 265.084a3.155 3.155 0 0 0 .657-6.238l-110.518-23.729a3.154 3.154 0 0 0-1.321 6.167l110.519 23.729c.222.048.445.071.663.071ZM224.854 277.407a3.154 3.154 0 0 0 .656-6.237l-101.385-21.772a3.154 3.154 0 0 0-1.32 6.167l101.385 21.772c.222.048.445.07.664.07ZM241.899 293.649a3.154 3.154 0 0 0 .657-6.237l-110.518-23.729a3.15 3.15 0 0 0-3.742 2.421 3.155 3.155 0 0 0 2.421 3.746l110.519 23.729c.222.048.445.07.663.07ZM234.334 304.611a3.153 3.153 0 0 0 .656-6.238l-95.043-20.406a3.153 3.153 0 0 0-1.32 6.167l95.043 20.406c.222.048.445.071.664.071ZM258.386 315.98l-110.518-23.729a3.154 3.154 0 0 0-1.32 6.167l110.518 23.729a3.151 3.151 0 0 0 3.741-2.421 3.155 3.155 0 0 0-2.421-3.746ZM243.898 325.457l-88.12-18.924a3.154 3.154 0 0 0-1.32 6.167l88.12 18.923a3.15 3.15 0 0 0 3.741-2.421 3.153 3.153 0 0 0-2.421-3.745ZM220.01 332.908l-56.318-12.093a3.153 3.153 0 0 0-1.32 6.167l56.318 12.093a3.15 3.15 0 0 0 3.741-2.422 3.154 3.154 0 0 0-2.421-3.745Z"></path><path fill="#fff" d="M159.95 323.232a3.155 3.155 0 0 0 2.422 3.746l18.041 3.875 1.49-6.126-18.207-3.909a3.152 3.152 0 0 0-3.742 2.422l-.004-.008ZM152.036 308.953a3.154 3.154 0 0 0 2.422 3.745l28.861 6.197 1.491-6.126-29.028-6.234a3.149 3.149 0 0 0-3.742 2.422l-.004-.004ZM144.126 294.669a3.154 3.154 0 0 0 2.422 3.745l39.686 8.522 1.49-6.126-39.853-8.559a3.15 3.15 0 0 0-3.741 2.422l-.004-.004ZM136.206 280.388a3.154 3.154 0 0 0 2.422 3.745l50.507 10.847 1.49-6.126-50.674-10.88a3.152 3.152 0 0 0-3.741 2.421l-.004-.007ZM128.296 266.104a3.155 3.155 0 0 0 2.421 3.746l61.332 13.168 1.491-6.126-61.499-13.205a3.149 3.149 0 0 0-3.741 2.421l-.004-.004ZM120.384 251.823a3.154 3.154 0 0 0 2.421 3.745l72.153 15.494 1.49-6.126-72.319-15.531a3.148 3.148 0 0 0-3.741 2.422l-.004-.004ZM112.464 237.539a3.154 3.154 0 0 0 2.421 3.745l82.977 17.819 1.491-6.126-83.144-17.852a3.15 3.15 0 0 0-3.741 2.421l-.004-.007ZM108.297 220.835a3.154 3.154 0 0 0-1.32 6.167l93.798 20.14 1.49-6.127-93.964-20.176-.004-.004Z"></path><path fill="#CEFF7A" d="m440.98 297.508-23.926 10.009a3.15 3.15 0 0 0-1.602 4.161 3.16 3.16 0 0 0 2.885 1.876 3.11 3.11 0 0 0 1.276-.271l23.926-10.008a3.15 3.15 0 0 0 1.602-4.161 3.15 3.15 0 0 0-4.161-1.602v-.004Z"></path><path stroke="#1C1C1E" stroke-linecap="round" stroke-linejoin="round" stroke-width="1.5" d="m332.504 387.764-95.648-169.268s-2.299-4.312-7.954-5.462c-4.847-.986-56.526-12.182-71.192-15.363-1.891-.408-3.827.285-5.084 1.757-1.257 1.473-3.69 2.804-8.555 1.958 0 0-9.73-1.231-17.099-7.62-1.876-1.628-4.112-2.785-6.545-3.289l-68.755-14.181s-3.3-1.064-4.599 1.105c-1.297 2.17.483 4.406.483 4.406l92.922 164.677s2.462 5.618 6.734 7.646c4.272 2.029 8.396 2.897 8.396 2.897l170.985 36.011s3.99.93 5.907-.801c1.918-1.732 0-4.473 0-4.473h.004Z"></path><path stroke="#1C1C1E" stroke-linecap="round" stroke-linejoin="round" stroke-width="1.5" d="M236.852 218.493s-4.353-5.966 2.733-10.546l57.501-25.109a7.108 7.108 0 0 1 6.1.215c2.418 1.25 6.805 2.251 13.747-.378s8.763-6.464 9.03-9.078c.207-2.047 1.546-3.808 3.415-4.669l60.453-27.797s5.228-2.763 8.951 2.963l96.09 169.724s4.583 7.554-3.616 11.225c-8.199 3.671-148.691 65.778-148.691 65.778s-6.805 2.703-10.065-3.063L236.852 218.49v.003Z"></path><path stroke="#1C1C1E" stroke-linecap="round" stroke-linejoin="round" stroke-width="1.5" d="m384.711 155.418-43.51 19.287a7.13 7.13 0 0 0-3.752 3.99c-1.361 3.563-5.103 9.923-15.071 14.043-9.968 4.12-17.481 2.885-21.015 1.721a7.05 7.05 0 0 0-5.117.278l-40.958 18.589a5.138 5.138 0 0 0-2.347 7.213l86.091 151.813a7.45 7.45 0 0 0 9.534 3.123l127.213-57.067c2.981-1.339 4.164-4.954 2.544-7.791l-87.16-153.074a5.065 5.065 0 0 0-6.452-2.125ZM222.852 220.47 168.6 208.641a4.09 4.09 0 0 0-3.768 1.098c-1.59 1.587-5.599 3.485-15.619 1.805-11.106-1.861-20.277-7.238-24.682-10.216a19.051 19.051 0 0 0-6.872-2.87l-50.68-10.32c-1.14-.23-2.022.979-1.455 1.991l84.327 150.408a16.878 16.878 0 0 0 11.214 8.255l152.826 32.477c1.539.326 2.74-1.321 1.961-2.685l-88.079-154.502a7.512 7.512 0 0 0-4.917-3.615l-.004.003Z"></path><path stroke="#1C1C1E" stroke-linecap="round" stroke-linejoin="round" stroke-width="1.5" d="M388.67 194.774a3.15 3.15 0 0 0-4.161-1.602l-93.371 41.407a3.15 3.15 0 0 0-1.602 4.16 3.16 3.16 0 0 0 2.885 1.877 3.11 3.11 0 0 0 1.276-.271l93.371-41.406a3.15 3.15 0 0 0 1.602-4.161v-.004ZM396.309 209.53a3.15 3.15 0 0 0-4.161-1.602l-93.371 41.407a3.15 3.15 0 0 0-1.602 4.16 3.158 3.158 0 0 0 4.161 1.606l93.371-41.407a3.15 3.15 0 0 0 1.602-4.16v-.004ZM397.312 227.222a3.15 3.15 0 0 0-4.161-1.602l-86.733 38.466a3.15 3.15 0 0 0-1.602 4.161 3.157 3.157 0 0 0 4.16 1.606l86.734-38.466a3.151 3.151 0 0 0 1.602-4.161v-.004ZM411.586 239.033a3.15 3.15 0 0 0-4.161-1.602l-93.371 41.407a3.15 3.15 0 0 0-1.602 4.16 3.16 3.16 0 0 0 2.885 1.877c.427 0 .861-.086 1.276-.271l93.371-41.407a3.15 3.15 0 0 0 1.602-4.16v-.004ZM407.697 259.767a3.152 3.152 0 0 0-4.143-1.646l-81.46 35.084a3.152 3.152 0 0 0 1.25 6.048c.416 0 .838-.081 1.246-.259l81.46-35.085a3.152 3.152 0 0 0 1.647-4.142ZM427.608 268.537a3.15 3.15 0 0 0-4.161-1.602l-93.371 41.406a3.15 3.15 0 0 0-1.602 4.161 3.158 3.158 0 0 0 4.161 1.606l93.371-41.407a3.15 3.15 0 0 0 1.602-4.16v-.004ZM410.039 291.182l-71.955 31.91a3.15 3.15 0 0 0-1.602 4.161 3.159 3.159 0 0 0 2.885 1.876c.426 0 .86-.085 1.275-.271l71.956-31.91a3.15 3.15 0 0 0 1.602-4.16 3.15 3.15 0 0 0-4.161-1.602v-.004ZM386.179 320.605l-39.713 17.611a3.149 3.149 0 0 0-1.601 4.16 3.157 3.157 0 0 0 4.16 1.606l39.712-17.611a3.148 3.148 0 0 0 1.602-4.16 3.148 3.148 0 0 0-4.16-1.602v-.004ZM218.151 250.802a3.155 3.155 0 0 0 .657-6.238L108.29 220.835a3.154 3.154 0 0 0-1.321 6.167l110.519 23.729c.222.048.445.071.663.071ZM226.067 265.084a3.155 3.155 0 0 0 .657-6.238l-110.518-23.729a3.154 3.154 0 0 0-1.321 6.167l110.519 23.729c.222.048.445.071.663.071ZM224.854 277.407a3.154 3.154 0 0 0 .656-6.237l-101.385-21.772a3.154 3.154 0 0 0-1.32 6.167l101.385 21.772c.222.048.445.07.664.07ZM241.899 293.649a3.154 3.154 0 0 0 .657-6.237l-110.518-23.729a3.15 3.15 0 0 0-3.742 2.421 3.155 3.155 0 0 0 2.421 3.746l110.519 23.729c.222.048.445.07.663.07ZM234.334 304.611a3.153 3.153 0 0 0 .656-6.238l-95.043-20.406a3.153 3.153 0 0 0-1.32 6.167l95.043 20.406c.222.048.445.071.664.071ZM258.386 315.98l-110.518-23.729a3.154 3.154 0 0 0-1.32 6.167l110.518 23.729a3.151 3.151 0 0 0 3.741-2.421 3.155 3.155 0 0 0-2.421-3.746ZM243.898 325.457l-88.12-18.924a3.154 3.154 0 0 0-1.32 6.167l88.12 18.923a3.15 3.15 0 0 0 3.741-2.421 3.153 3.153 0 0 0-2.421-3.745ZM220.01 332.908l-56.318-12.093a3.153 3.153 0 0 0-1.32 6.167l56.318 12.093a3.15 3.15 0 0 0 3.741-2.422 3.154 3.154 0 0 0-2.421-3.745ZM277.5 345.138l-16.625-3.426a3.15 3.15 0 0 0-3.741 2.421 3.155 3.155 0 0 0 2.421 3.746l16.625 3.426a3.151 3.151 0 0 0 3.741-2.421 3.155 3.155 0 0 0-2.421-3.746ZM440.98 297.508l-23.926 10.009a3.15 3.15 0 0 0-1.602 4.161 3.16 3.16 0 0 0 2.885 1.876 3.11 3.11 0 0 0 1.276-.271l23.926-10.008a3.15 3.15 0 0 0 1.602-4.161 3.15 3.15 0 0 0-4.161-1.602v-.004Z"></path><path stroke="#1C1C1E" stroke-linecap="round" stroke-linejoin="round" stroke-width="1.5" d="m46.866 177.807-2.644 5.722c-1.298 2.173.482 4.405.482 4.405l92.922 164.677s2.463 5.618 6.734 7.647c4.272 2.028 8.396 2.896 8.396 2.896l170.986 36.011c8.599 1.535 15.971-2.214 15.971-2.214s140.492-62.106 148.691-65.777c2.563-1.146 3.876-2.674 4.473-4.232l2.629-5.618"></path></svg>