<svg xmlns:xlink="http://www.w3.org/1999/xlink" xmlns="http://www.w3.org/2000/svg" fill="none" class="icon-SPAGX icon_large-LrSiK al-empty-state__content-icon" width="136" height="142"><g clip-path="url(#a)" fill="none"><path d="m97.188 26.009.817 93.338c.03 3.515-2.496 6.392-5.646 6.42l-56.216 6.931-.333.041a5.176 5.176 0 0 1-2.477-.611 5.628 5.628 0 0 1-.94-.619 6.504 6.504 0 0 1-1.728-2.268 6.724 6.724 0 0 1-.615-2.816l-.817-93.336c-.031-3.514 2.496-6.392 5.646-6.42l21.454-2.646.033 3.8 13.639-1.605-.034-3.862 21.454-2.647a5.29 5.29 0 0 1 2.96.89l.02.014c.998.68 1.78 1.65 2.246 2.789.345.823.528 1.71.537 2.607Z" stroke-width="0.606px" stroke-linejoin="round" stroke-linecap="round" stroke="#1C1C1E" fill="#FFFFFF"></path><path d="m97.188 26.009.817 93.338c.03 3.515-2.496 6.392-5.646 6.42l-56.216 6.931-.333.041a5.176 5.176 0 0 1-2.477-.611 5.628 5.628 0 0 1-.94-.619 6.504 6.504 0 0 1-1.728-2.268 6.724 6.724 0 0 1-.615-2.816l-.817-93.336c-.031-3.514.2-5.563 5.646-6.42l21.454-2.646.033 3.8 13.639-1.605-.034-3.862 21.454-2.647a5.29 5.29 0 0 1 2.96.89l.02.014c.998.68 1.78 1.65 2.246 2.789.345.823.528 1.71.537 2.607Z" stroke-width="0.606px" stroke-miterlimit="10" stroke="#1C1C1E" fill="#F1F2F5"></path><path d="m108.487 126.641-.878-100.344a11.326 11.326 0 0 0-.654-3.77 5.963 5.963 0 0 0-.62-1.26 5.984 5.984 0 0 0-1.048-1.18 11.005 11.005 0 0 0-1.339-.928l-2.367-1.518-1.657-1.064-.069-.044a6.797 6.797 0 0 1 2.613 2.999c.399.882.609 1.843.617 2.817l.878 100.347c.033 3.78-2.438 6.496-6.55 6.891l-65.322 7.519-.382.047c-.995.01-1.882-.287-2.782-.725l5.583 2.567c1.365.539 2.352 1.09 3.64 1.074l65.692-7.537c2.887-.23 4.688-3.474 4.645-5.891Z" stroke-width="0.606px" stroke-miterlimit="10" stroke="#1C1C1E" fill="#FFD233"></path><path d="M97.052 25.477 29.475 75.201l.193 22.078L97.61 45.891l-.558-20.414ZM97.491 53.075l-67.585 48.729.11 12.609 67.941-51.385-.466-9.953Z" fill="#FFFFFF"></path><path d="M102.564 19.57a6.8 6.8 0 0 0-2.614-2.998l-.02-.015a6.485 6.485 0 0 0-3.437-.956L69.94 18.65l-13.637 1.553-25.5 2.931c-2.253.368-3.425.755-4.653 2.047a6.966 6.966 0 0 0-1.898 4.844l.88 100.368a7.018 7.018 0 0 0 .73 3.064 6.781 6.781 0 0 0 1.983 2.4c.342.258.707.482 1.09.668.9.439 1.884.662 2.88.653l.39-.042 65.302-7.505c2.24-.451 3.424-.755 4.652-2.046a6.966 6.966 0 0 0 1.898-4.845l-.881-100.353a6.98 6.98 0 0 0-.613-2.817Zm-4.555 99.774c.031 3.515-2.386 5.874-5.646 6.42l-56.218 6.942c-1.217.021-2.042-.174-2.807-.583a5.625 5.625 0 0 1-.94-.618c-1.401-1.153-2.326-2.999-2.366-7.577l-.463-93.06c-.03-1.734 1.884-3.785 5.312-4.206l21.454-2.646.033 3.8 13.64-1.604-.035-3.862 21.454-2.647a5.29 5.29 0 0 1 2.96.89l.02.014c.998.68 1.78 1.65 2.246 2.789.346.829.528 1.722.535 2.625l.821 93.323Z" stroke-width="0.606px" stroke-miterlimit="10" stroke="#1C1C1E" fill="#FFDD33"></path><path d="m37.118 54.793 51.971-6.428M37.296 64.852l51.972-6.428M37.472 74.91l51.972-6.427M37.649 84.97l51.972-6.428M37.825 95.028l51.971-6.427M38 105.087l51.972-6.427M38.178 115.146l51.972-6.427" stroke-width="0.606px" stroke-linejoin="round" stroke-linecap="round" stroke="#1C1C1E" fill="none"></path><path d="M107.459 41.491c-1.932 1.425-5.461 2.242-10.469 2.46l-.005-.562c5.486-.572 9.26-2.508 10.461-3.404l.013 1.506Z" fill="#1C1C1E"></path><path d="M112.637 22.665a20.297 20.297 0 0 1-7.237 12.449 20.149 20.149 0 0 1-13.648 4.478 16.804 16.804 0 0 1-10.217-4.227 16.701 16.701 0 0 1-4.525-6.89 16.755 16.755 0 0 1-.684-8.225 20.256 20.256 0 0 1 7.236-12.443A20.111 20.111 0 0 1 97.21 3.349c2.684.127 5.295.913 7.606 2.29a16.448 16.448 0 0 1 5.647 5.603 16.96 16.96 0 0 1 2.173 11.422Z" fill="#D6CCFF"></path><path d="M115.733 26.38a20.322 20.322 0 0 1-7.238 12.496 20.176 20.176 0 0 1-13.685 4.496 16.532 16.532 0 0 1-7.62-2.324 16.61 16.61 0 0 1-5.66-5.621 16.804 16.804 0 0 0 10.216 4.227 20.149 20.149 0 0 0 13.675-4.498 20.299 20.299 0 0 0 7.223-12.494 16.96 16.96 0 0 0-2.173-11.422 16.69 16.69 0 0 1 4.56 6.894 16.752 16.752 0 0 1 .702 8.245Z" fill="#746BD3"></path><path d="M103.494 32.954c6.681-5.592 7.917-15.16 2.759-21.37-5.158-6.21-14.755-6.71-21.437-1.118-6.681 5.592-7.916 15.159-2.758 21.369 5.157 6.21 14.755 6.71 21.436 1.119Z" fill="#FFFFFF"></path><path d="M112.637 22.665a20.297 20.297 0 0 1-7.237 12.449 20.149 20.149 0 0 1-13.648 4.478 16.804 16.804 0 0 1-10.217-4.227 16.701 16.701 0 0 1-4.525-6.89 16.755 16.755 0 0 1-.684-8.225 20.256 20.256 0 0 1 7.236-12.443A20.111 20.111 0 0 1 97.21 3.349c2.684.127 5.295.913 7.606 2.29a16.448 16.448 0 0 1 5.647 5.603 16.96 16.96 0 0 1 2.173 11.422Z" stroke-width="0.541px" stroke-linejoin="round" stroke-linecap="round" stroke="#1C1C1E" fill="none"></path><path d="M115.733 26.38a20.322 20.322 0 0 1-7.238 12.496 20.176 20.176 0 0 1-13.685 4.496 16.532 16.532 0 0 1-7.62-2.324 16.61 16.61 0 0 1-5.66-5.621 16.804 16.804 0 0 0 10.216 4.227 20.149 20.149 0 0 0 13.675-4.498 20.299 20.299 0 0 0 7.223-12.494 16.96 16.96 0 0 0-2.173-11.422 16.69 16.69 0 0 1 4.56 6.894 16.752 16.752 0 0 1 .702 8.245Z" stroke-width="0.606px" stroke-linejoin="round" stroke-linecap="round" stroke="#1C1C1E" fill="none"></path><path d="m79.65 33.336 3.992 4.789M108.576 8.694l4.674 5.797" stroke-width="0.541px" stroke-linejoin="round" stroke-linecap="round" stroke="#1C1C1E" fill="none"></path><path d="M95.436 10.87 92.77 21.489M92.769 21.492l5.957 5.864" stroke-width="2.163px" stroke-linejoin="round" stroke-linecap="round" stroke="#1C1C1E" fill="none"></path><path d="M103.332 32.836c6.698-5.6 7.97-15.15 2.842-21.331-5.128-6.181-14.715-6.653-21.413-1.053-6.697 5.6-7.97 15.15-2.842 21.331 5.128 6.181 14.715 6.652 21.413 1.053Z" stroke-width="0.606px" stroke-linejoin="round" stroke-linecap="round" stroke="#1C1C1E" fill="none"></path></g><defs><clipPath id="a"><path d="M.132.149h140v140h-140z" fill="#fff"></path></clipPath></defs></svg>