<svg width="540" height="540" fill="none" viewBox="107.482 130.791 325.683 279.065" xmlns="http://www.w3.org/2000/svg"><g clip-path="url(#a)"><path d="M540 0H0v540h540V0Z" style="fill: rgba(250, 247, 240, 0);"></path><path d="M314.532 150.793v92.784H231.79a5.97 5.97 0 0 0-5.971 5.971v20.328h-11.095l-35.072 28.387 5.266-28.405h-33.849a5.887 5.887 0 0 1-2.201-.424 5.961 5.961 0 0 1-3.761-5.547V150.793a5.97 5.97 0 0 1 5.971-5.971h157.484c.404-.002.808.039 1.203.123l.706.197a5.955 5.955 0 0 1 4.061 5.651Z" fill="#F0F0F3"></path><path d="M283.344 144.605 168.821 269.659H151.05a5.857 5.857 0 0 1-2.2-.423 5.962 5.962 0 0 1-3.761-5.547V150.576a5.971 5.971 0 0 1 5.971-5.971h132.284Z" fill="#fff"></path><path d="M309.765 144.945a5.653 5.653 0 0 0-1.203-.123H151.05a5.97 5.97 0 0 0-5.971 5.971v113.113a5.962 5.962 0 0 0 3.761 5.547l-31.339-8.876a5.98 5.98 0 0 1-4.466-5.782V141.682a5.97 5.97 0 0 1 5.971-5.971h157.531a5.438 5.438 0 0 1 1.88.292l31.348 8.942ZM184.917 269.877l-5.265 28.405-16.756-4.476 4.476-23.929h17.545Z" fill="#D9D9D9"></path><path d="M427.335 258.659v113.113a5.971 5.971 0 0 1-5.97 5.971h-93.81l-35.1 28.405 5.266-28.405h-33.85a5.885 5.885 0 0 1-2.2-.424 5.956 5.956 0 0 1-3.761-5.547V258.659a5.971 5.971 0 0 1 5.971-5.97h157.512c.404-.003.808.038 1.203.122l.705.197a5.955 5.955 0 0 1 4.034 5.651Z" fill="#FD3"></path><path d="M427.335 258.659v45.377l-67.115 73.707h-32.665l-35.1 28.405 5.266-28.405h-11.283l113.865-125.054h21.09c.404-.003.808.038 1.203.122l.705.197a5.95 5.95 0 0 1 4.034 5.651Z" fill="#FFE771"></path><path d="M422.568 252.811a5.598 5.598 0 0 0-1.204-.122H263.853a5.971 5.971 0 0 0-5.971 5.97v113.113a5.956 5.956 0 0 0 3.761 5.547l-31.339-8.876a5.976 5.976 0 0 1-4.466-5.782V249.548a5.971 5.971 0 0 1 5.971-5.971h157.53a5.444 5.444 0 0 1 1.881.292l31.348 8.942ZM297.711 377.742l-5.256 28.405-16.756-4.475 4.476-23.93h17.536ZM236.585 176.396h-14v36.359h14v-36.359ZM229.345 232.849a8.452 8.452 0 0 0 8.452-8.453 8.453 8.453 0 1 0-16.905 0 8.452 8.452 0 0 0 8.453 8.453Z" fill="#FFE771"></path><path d="M339.967 345.717a8.453 8.453 0 1 0 0-16.906 8.453 8.453 0 0 0 0 16.906Z" fill="#fff"></path><path d="M320.428 305.314h14.517s.113-5.491 5.078-5.576c2.585 0 6.224 2.511 5.181 6.582-1.881 7.325-12.402 6.037-12.402 6.037v13.803h13.445v-5.219s13.22-2.698 13.22-15.74c0-6.958-5.839-17.592-19.059-17.31-20.187.47-19.98 17.423-19.98 17.423Z" fill="#F0F0F3"></path><path d="M259.922 254.175a5.919 5.919 0 0 0-2.041 4.485v18.438l-32.063-8.594v-18.956a5.87 5.87 0 0 1 1.627-4.08l32.477 8.707ZM147.12 146.063a5.932 5.932 0 0 0-2.04 4.485v18.439l-32.035-8.594v-18.956a5.866 5.866 0 0 1 1.627-4.081l32.448 8.707ZM359.467 305.229c0 13.051-13.22 15.75-13.22 15.75v5.218h-12.872l24.748-27.192a16.25 16.25 0 0 1 1.344 6.224Z" fill="#fff"></path><path d="M236.595 176.396v19.275l-14.01 15.298v-34.573h14.01Z" fill="#FD3"></path><path stroke="#1C1C1E" stroke-linecap="round" stroke-linejoin="round" stroke-width="1.5" d="M314.532 150.793v92.784H231.79a5.97 5.97 0 0 0-5.971 5.971v20.328h-11.095l-35.072 28.387 5.266-28.405h-33.849a5.887 5.887 0 0 1-2.201-.424 5.961 5.961 0 0 1-3.761-5.547V150.793a5.97 5.97 0 0 1 5.971-5.971h157.484c.404-.002.808.039 1.203.123l.706.197a5.955 5.955 0 0 1 4.061 5.651Z"></path><path stroke="#1C1C1E" stroke-linecap="round" stroke-linejoin="round" stroke-width="1.5" d="M309.765 144.945a5.653 5.653 0 0 0-1.203-.123H151.05a5.97 5.97 0 0 0-5.971 5.971v113.113a5.962 5.962 0 0 0 3.761 5.547l-31.339-8.876a5.98 5.98 0 0 1-4.466-5.782V141.682a5.97 5.97 0 0 1 5.971-5.971h157.531a5.438 5.438 0 0 1 1.88.292l31.348 8.942ZM310.593 145.179l-.094-.029M184.917 269.877l-5.265 28.405-16.756-4.476 4.476-23.929h17.545ZM427.335 258.659v113.113a5.971 5.971 0 0 1-5.97 5.971h-93.81l-35.1 28.405 5.266-28.405h-33.85a5.885 5.885 0 0 1-2.2-.424 5.956 5.956 0 0 1-3.761-5.547V258.659a5.971 5.971 0 0 1 5.971-5.97h157.512c.404-.003.808.038 1.203.122l.705.197a5.955 5.955 0 0 1 4.034 5.651Z"></path><path stroke="#1C1C1E" stroke-linecap="round" stroke-linejoin="round" stroke-width="1.5" d="M422.568 252.811a5.598 5.598 0 0 0-1.204-.122H263.853a5.971 5.971 0 0 0-5.971 5.97v113.113a5.956 5.956 0 0 0 3.761 5.547l-31.339-8.876a5.976 5.976 0 0 1-4.466-5.782V249.548a5.971 5.971 0 0 1 5.971-5.971h157.53a5.444 5.444 0 0 1 1.881.292l31.348 8.942ZM423.396 253.046l-.094-.028M297.711 377.742l-5.256 28.405-16.756-4.475 4.476-23.93h17.536ZM236.585 176.396h-14v36.359h14v-36.359ZM229.345 232.849a8.452 8.452 0 0 0 8.452-8.453 8.453 8.453 0 1 0-16.905 0 8.452 8.452 0 0 0 8.453 8.453ZM339.967 345.717a8.453 8.453 0 1 0 0-16.906 8.453 8.453 0 0 0 0 16.906Z"></path><path stroke="#1C1C1E" stroke-linecap="round" stroke-linejoin="round" stroke-width="1.5" d="M320.428 305.314h14.517s.113-5.482 5.078-5.576c2.585 0 6.224 2.511 5.181 6.582-1.881 7.325-12.402 6.037-12.402 6.037v13.803h13.445v-5.219s13.22-2.689 13.22-15.74c0-6.958-5.839-17.592-19.059-17.31-20.187.47-19.98 17.423-19.98 17.423Z"></path></g><defs><clipPath id="a"><path fill="#fff" d="M0 0h540v540H0z"></path></clipPath></defs></svg>