<svg width="540" height="540" fill="none" viewBox="80.935 90 393.669 362.59" xmlns="http://www.w3.org/2000/svg"><path d="M0 0h540v540H0z" style="fill: rgba(251, 247, 239, 0);"></path><g clip-path="url(#a)"><path fill="#FD3" d="M470.73 225.214c.725 1.378.072 2.293-1.469 2.048l-90.519-14.583c1.052-1.269 2.094-2.538 3.145-3.807l85.507 14.157s1.369.109 1.958-.426l1.378 2.611Z"></path><path fill="#F0F5FF" d="m434.081 155.48 35.266 67.125c-.589.535-1.957.426-1.957.426l-85.507-14.157a2466.29 2466.29 0 0 1 15.861-19.034c10.541-12.508 21.318-24.825 31.397-37.723.544-.689 1.604-1.55 1.876-2.483l2.919 5.565.145.281Z"></path><path fill="#1C1C1E" d="M430.803 148.347c.308.444.345.87.218 1.287l-.716-1.351c.244.009.498.064.498.064ZM381.881 208.874c-1.051 1.269-2.094 2.538-3.145 3.807l-1.006-.163-1.015-.834c3.063-3.735 6.136-7.46 9.236-11.158.834-.988 1.305-1.731.942-2.909l.399-.109c.272.816.825.399 1.287-.154 2.203-2.637 4.423-5.266 6.635-7.903 11.203-13.406 23.629-27.563 34.677-41.104.055-.073.227-.082.408-.064l.716 1.351c-.272.933-1.332 1.795-1.876 2.483-10.079 12.898-20.855 25.215-31.396 37.723a2443.789 2443.789 0 0 0-15.862 19.034Z"></path><path fill="#fff" d="m421.227 130.988 9.081 17.293c-.181-.018-.353-.009-.407.064-11.049 13.541-23.475 27.698-34.678 41.104-2.212 2.637-4.432 5.266-6.635 7.903-.462.553-1.015.97-1.287.154a.77.77 0 0 1-.045-.154c-.807-3.245-2.638-6-4.015-8.973-2.393-5.166-5.556-9.752-9.381-13.885-7.659-8.285-17.421-12.599-28.333-14.656-3.354-.635-6.698-1.251-10.324-1.224.399-.725.644-1.178.906-1.631 2.611-4.414 5.239-8.819 7.832-13.242 5.284-9.046 14.356-26.657 19.876-35.566.381-.617 1.115-1.432.653-2.03l43.397 6.988 1.568.244c1.531.245 3.362 1.568 4.087 2.937l2.393 4.559 5.312 10.115Z"></path><path fill="#1C1C1E" d="M328.278 166.202c6.572-11.429 13.306-22.758 19.977-34.124 3.236-5.52 10.713-19.369 14.103-24.807.263-.426.553-1.025.924-1.324l1.179.2c.462.598-.272 1.414-.653 2.03-5.52 8.909-14.592 26.52-19.877 35.566-2.592 4.423-5.22 8.828-7.831 13.242-.262.453-.507.906-.906 1.631 3.626-.027 6.97.589 10.324 1.224 10.912 2.057 20.674 6.371 28.333 14.656 3.825 4.133 6.988 8.719 9.381 13.885 1.377 2.973 3.208 5.728 4.015 8.973a.751.751 0 0 0 .045.154l-.399.109a5.288 5.288 0 0 0-.398-.906c-1.251-2.284-2.285-4.722-3.544-7.034-2.81-5.121-5.91-10.042-10.025-14.221-10.369-10.532-23.076-15.308-37.741-15.217-.943.009-1.287.516-1.668 1.169-8.221 14.248-16.351 28.541-24.309 42.934-.652 1.179-.435 1.505.744 1.94 7.785 2.891 15.299 6.353 22.287 10.885.952.626 1.795.707 2.892.118 3.389-1.84 6.924-3.417 10.196-5.483.417-.254.916-.68 1.46-.309.326.227.271.635.199 1.025-.852 4.414-1.26 8.9-2.266 13.287-.127.553-.326 1.088.199 1.622 3.617 3.626 6.59 7.732 8.901 12.563.326-.372.507-.571.671-.771 7.387-9.199 14.755-18.408 22.224-27.535l1.015.834 1.006.163a5247.038 5247.038 0 0 0-21.979 26.928c-3.399 4.178-6.798 8.366-10.224 12.589.67.336 1.214.064 1.812-.099 2.176-.58 4.251-1.55 6.608-1.478 4.205.136 7.224 2.384 9.916 5.284.326.354.58.762.888 1.124 1.16 1.396 1.287 1.541.072 2.33l-.906-.834c-1.124-.997-2.048-1.786-2.946-2.611-.38-.353-.716-.552-1.251-.244-3.915 2.238-7.695 4.658-10.532 8.257-.489.634-1.45 1.504-1.45 2.112l-.652.099c-.009-.072-.018-.154-.037-.235-.099-.499.336-.961.626-1.405 2.157-3.318 5.13-5.747 8.492-7.741 1.07-.634 2.185-1.205 3.436-1.885-2.466-1.713-4.605-3.118-7.795-2.166-5.873 1.758-11.747 3.417-17.502 5.556-6.635 2.474-13.278 4.903-19.868 7.477-1.912.735-3.861 1.496-5.864 1.804-2.864.453-5.792.553-8.692.707-6.444.335-12.916.435-19.351.943-6.462.516-12.907.625-19.324-.327-4.677-.688-8.946-2.474-12.39-5.873-3.87-3.834-5.764-8.683-6.943-13.849-.389-1.713-.951-2.592-2.954-2.592-1.641 0-3.445.018-4.831-1.487-3.336-3.598-3.472-7.976-3.363-12.462.018-.771.517-.943 1.142-1.034 2.774-.38 5.538-.806 8.321-1.142.861-.108 1.142-.426 1.142-1.296.036-4.124.072-8.257-.091-12.39-.027-.725-.163-1.423-.707-1.867-1.341-1.087-2.737-2.084-4.278-3.254-.48 2.647-1.024 5.004-2.003 7.224-1.396 3.2-3 6.308-5.873 8.411l-.381-.526c.054-.054.109-.108.154-.163 3.952-4.169 5.991-9.272 7.178-14.465.055-1.142-.027-1.115-1.64-2.166-.109-.064-.199-.127-.29-.182l.498-1.069c3.037 1.423 5.783 3.371 8.674 5.057.744.435.798 1.179.834 1.922.191 4.387.598 8.773.317 13.169-.063 1.043.39.916 1.115.816 2.864-.399 5.493-1.486 8.13-2.601 7.405-3.136 14.584-6.771 21.672-10.541 3.027-1.614 5.837-2.067 9.163-1.985 5.293.136 10.586.018 15.861.634 1.079.127 1.224-.616 1.541-1.232 5.874-11.248 11.847-22.451 18.028-33.545a804.247 804.247 0 0 1 5.529-9.798c.825-1.459 1.668-2.918 2.51-4.378Zm24.074 75.691c.362-.453.562-.834.235-1.405-2.501-4.441-5.13-8.774-9.127-12.073-.562-.462-.961-.915-.77-1.74.843-3.825 1.658-7.659 2.465-11.493.082-.38.408-.77-.009-1.241-.354.181-.734.335-1.088.553-3.072 1.894-6.426 3.226-9.725 4.658-.553.245-1.106.617-1.749.046-1.487-1.297-3.309-2.067-4.994-3.055-5.991-3.498-12.345-6.254-18.762-8.864-.807-.335-1.178-.154-1.577.607a135.42 135.42 0 0 1-3.426 6.263c-.535.934-.58 1.387.679 1.423 1.324.045 2.556.508 4.188 1.124-1.876.562-3.281.018-4.686.063-6.725.209-13.442-.362-20.167-.063-1.006.045-2.012-.027-3.009-.136a3.048 3.048 0 0 0-1.967.408c-8.384 4.876-17.021 9.245-26.148 12.589-.381.136-.753.263-.961.734-1.269 2.883-3.78 4.143-6.635 4.913-3.426.934-6.925.716-10.423.644-.653-.019-1.169-.064-.97.87.435 2.021.825 4.033 1.849 5.873.662 1.205 1.505 1.84 2.955 1.994 7.668.77 15.354.843 23.003.054 6.028-.616 11.765.1 17.394 2.339 5.846 2.32 11.891 2.764 18.082 1.595 6.353-1.197 11.946-4.151 17.456-7.333 1.088-.625 2.139-1.323 3.209-1.994-2.619 2.692-5.447 5.022-8.756 6.789-10.595 5.683-21.408 6.716-32.593 1.858-2.084-.906-4.269-1.55-6.498-2.039-1.251-.272-2.728-.345-3.599.571-2.9 3.072-5.71 6.217-8.673 9.227-.291.29-.834.534-.327 1.123 1.931 2.285 3.925 4.424 7.17 4.822 3.589.435 7.196.281 10.785.553 12.146.916 24.318 1.423 36.482 2.058.951.045 1.903.027 2.809-.345 8.919-3.625 17.938-6.952 27.219-9.544.625-.181 1.169-.444 1.586-.97 3.018-3.824 6.036-7.64 9.073-11.456Zm-92.794 9.29c1.404-1.55 2.809-3.1 4.405-4.849-2.846.218-5.402.517-7.967.589-3.427.109-6.871.046-10.306.046-.544 0-1.097-.091-.888.779 1.097 4.559 2.628 8.91 5.683 12.589.634.762.915.3 1.269-.181 2.393-3.181 5.139-6.036 7.804-8.973Zm-12.862-17.746c1.505-.608 2.91-1.387 4.006-3.218-4.976 2.375-9.988 2.429-14.982 2.592-.526 0-1.042.109-1.568.136-.716.036-.852.435-.77 1.061.081.571-.028 1.123.879 1.142 4.242.09 8.438-.118 12.435-1.713Z"></path><path fill="#F0F0F3" d="M386.903 197.617c.362 1.178-.109 1.922-.943 2.91-3.1 3.697-6.172 7.423-9.236 11.157-7.468 9.127-14.837 18.336-22.224 27.535-.163.2-.344.399-.671.771-2.311-4.831-5.284-8.937-8.9-12.563-.526-.534-.326-1.069-.2-1.622 1.006-4.387 1.414-8.873 2.266-13.287.073-.39.127-.798-.199-1.024-.544-.372-1.042.054-1.459.308-3.272 2.066-6.807 3.643-10.197 5.483-1.097.589-1.94.508-2.891-.118-6.988-4.531-14.502-7.994-22.288-10.885-1.178-.435-1.396-.761-.743-1.94 7.958-14.393 16.088-28.686 24.309-42.934.38-.653.725-1.16 1.667-1.169 14.665-.091 27.373 4.685 37.742 15.217 4.115 4.179 7.214 9.1 10.024 14.221 1.26 2.312 2.293 4.75 3.544 7.034.181.326.308.634.399.906Z"></path><path fill="#1C1C1E" d="M200.117 385.496c-1.051 1.405-2.039 2.728-2.972 3.97-11.013 14.782-14.221 19.695-28.207 37.043l-.462-.109-1.423-.707c7.695-9.698 11.411-15.608 18.925-25.451.607-.788.807-1.531.562-2.483-6.163-23.548-19.858-40.379-43.234-48.636-1.405-.498-2.393-.344-3.58.571-21.97 16.913-28.967 22.623-49.805 40.923-.516.462-.226.426-.77.616l-.045-1.224c.208-1.84 1.45-2.456 2.873-3.725 18.979-16.885 24.127-21.181 44.303-36.608 3.444-2.628 6.888-5.257 10.351-7.867a629.906 629.906 0 0 1 3.988-3.009c10.006-7.55 20.049-15.046 30.046-22.605 5.275-3.988 10.487-8.067 15.508-12.381.761-.662 1.169-1.387 1.35-2.393 1.315-7.187 2.629-14.375 4.224-21.508.498-2.211.834-4.459 1.314-6.689.807-3.698 2.157-6.988 4.45-10.151 8.566-11.828 14.475-25.061 19.469-38.72 1.75-4.767 3.236-9.626 4.387-14.583.526-2.248.734-2.33 2.873-1.396.227.1.453.199.671.308l-.499 1.07c-.861-.472-1.16-.236-1.386.906-1.052 5.248-2.701 10.323-4.568 15.336-.127.353-.716.661-.2 1.024.281.199.544-.055.753-.29l.38.525a5.242 5.242 0 0 1-.453.327c-.943.616-1.541 1.278-1.958 2.32-4.985 12.517-10.722 24.635-18.916 35.448-.38.508-.58 1.106-.824 1.695-2.248 5.474-3.218 11.284-4.342 17.03-.807 4.133-2.139 8.221-1.613 12.535.136 1.097.154 2.212.226 3.327.018.371 0 .707-.29 1.015-2.755 2.909-5.755 5.565-8.792 8.166-6.897 5.937-14.148 11.421-21.399 16.904-1.115.852-2.211 1.722-3.498 2.728 10.06 3.598 18.326 9.39 25.314 17.058 6.898 7.559 12.073 16.115 14.956 26.149 2.9-3.454 5.719-6.735 8.447-10.088 5.221-6.399 11.384-11.294 19.514-13.641 6.689-1.931 13.432-3.662 20.121-5.574 12.209-3.499 24.572-6.372 36.862-9.544.78-.209 1.46-.435 1.985-1.151 2.665-3.626 5.384-7.206 8.085-10.804.1-.145.345-.245.172-.462-.163-.2-.335-.019-.498.045-5.094 1.495-9.789 4.16-15.209 5.565.326-.825.743-.997 1.151-1.233a81.03 81.03 0 0 1 15.426-6.589c.762-.236 1.487-.462 2.031-1.142 3.027-3.743 6.091-7.459 9.136-11.194.154-.19.399-.371.226-.688-9.426-.29-17.782 4.25-26.774 5.991 2.167-1.532 4.532-2.62 7.007-3.454a4885.036 4885.036 0 0 1 23.003-7.722c.988-.326 1.75-.879 2.484-1.604 8.338-8.275 16.36-16.886 25.342-24.499 1.042-.879 2.32-2.656 2.737-3.843-3.707 1.323-7.432 2.066-10.777 4.214-2.864 1.831-6.181 2.91-9.109 4.75-3.489 2.193-7.16 4.088-10.677 6.236-1.903 1.151-3.779 2.175-5.982 2.728-6.87 1.704-13.677 3.616-20.538 5.356-.571.145-1.369.662-2.003-.081 6.924-3.118 14.139-5.239 21.444-7.106 1.469-.381 3.001-.571 4.333-1.45 2.157-1.414 4.405-2.701 6.616-4.034 7.786-4.713 16.025-8.538 24.083-12.725.933-.489 1.785-.861 1.658-2.076l.653-.099c0 .118.036.226.118.317.797.906 1.785-.526 2.755-.761.145-.037.281-.136.426-.209 4.187-2.103 8.366-4.233 12.88-6.861l.906.834c-.19.127-.417.272-.68.435-3.408 2.157-6.87 4.196-10.423 6.073-.426.226-.798.444-.943.988-.942 3.453-3.752 5.537-6.045 7.985-.934.997-1.922 1.957-2.91 2.909-6.526 6.336-12.97 12.744-19.595 18.961-5.239 4.922-9.272 10.795-13.668 16.387-4.17 5.312-8.248 10.686-12.472 15.943-1.224 1.523-2.583 2.919-3.707 4.532-.644.934-1.795 1.097-2.792 1.36a1734.422 1734.422 0 0 1-20.447 5.112c-.771.19-1.315.552-1.795 1.169-1.459 1.876-3.091 3.634-4.405 5.61-1.586 2.384-4.042 2.674-6.462 3.055-2.266.353-4.478.915-6.698 1.441-.68.163-1.378.48-1.886-.163-.516-.653-.027-1.315.299-1.904.644-1.151 1.278-2.311 2.167-3.308.208-.236.489-.471.253-.825-.226-.344-.543-.154-.851-.09-2.23.507-4.324 1.151-5.946 3.009-1.74 1.985-3.762 3.725-5.584 5.637-.734.771-1.45 1.061-2.51.852-2.493-.471-4.94-1.106-7.369-1.831-.689-.199-1.196-.127-1.767.182-4.142 2.175-7.224 5.592-10.469 8.837-6.453 6.453-11.61 13.958-17.067 21.191-.671.897-1.323 1.758-1.949 2.592Zm67.398-42.998c.172-.317.662-.553.453-.934-.244-.444-.761-.254-1.133-.163-1.994.48-3.979 1.006-5.973 1.514-3.504.888-6.1 3.033-7.785 6.435 1.368-.272 2.537-.598 3.725-.716 4.387-.408 8.311-1.604 10.514-5.901.045-.09.154-.145.199-.235Zm-13.541 2.538c-.036-.064-.073-.136-.118-.209-.036.036-.1.082-.1.109.019.072.064.145.1.208.036-.027.073-.063.118-.108Zm-48.391 29.855c.535-.698.444-1.305.217-2.048-6.244-20.103-18.87-34.379-38.475-42.336-1.042-.426-1.758-.381-2.674.317-6.127 4.695-12.308 9.299-18.444 13.976-1.17.897-2.475 1.659-3.445 2.801 24.527 7.912 38.657 25.242 45.654 49.297.073-.064.182-.109.236-.181 5.638-7.279 11.266-14.566 16.931-21.826ZM364.463 106.146l-1.178-.2c.245-.199.517-.271.852-.081.145.081.254.181.326.281Z"></path><path fill="#F0F5FF" d="m362.023 105.747 1.269.199c-.372.3-.662.898-.925 1.324-3.39 5.438-10.867 19.287-14.103 24.807-6.671 11.366-13.405 22.695-19.976 34.125l-36.826-70.18s-.408-.952-.299-1.686l70.796 11.402h.055l.009.009Z"></path><path fill="#FD3" d="M361.983 255.914c.897.824 1.822 1.613 2.946 2.61-4.514 2.628-8.692 4.758-12.88 6.861-.145.073-.281.172-.426.209-.97.235-1.958 1.667-2.755.761a.46.46 0 0 1-.118-.317c0-.608.961-1.478 1.45-2.112 2.837-3.598 6.617-6.018 10.532-8.257.535-.308.87-.109 1.251.245Z"></path><path fill="#FD3" d="M360.615 254.87c-1.251.68-2.366 1.251-3.435 1.885-3.363 1.994-6.336 4.423-8.493 7.74-.29.445-.725.907-.625 1.405.018.082.027.164.036.236.127 1.215-.725 1.586-1.659 2.076-8.057 4.187-16.296 8.012-24.082 12.725-2.211 1.332-4.459 2.619-6.616 4.033-1.333.879-2.865 1.07-4.333 1.45-7.305 1.868-14.52 3.988-21.445 7.106.635.744 1.433.227 2.004.082 6.861-1.74 13.668-3.653 20.538-5.357 2.202-.553 4.079-1.577 5.982-2.728 3.517-2.148 7.187-4.042 10.677-6.236 2.928-1.84 6.245-2.918 9.109-4.749 3.344-2.148 7.07-2.891 10.777-4.215-.417 1.188-1.695 2.964-2.738 3.843-8.982 7.614-17.003 16.224-25.342 24.499-.734.726-1.495 1.278-2.483 1.605a4924.436 4924.436 0 0 0-23.004 7.722c-2.474.834-4.84 1.921-7.006 3.453 8.991-1.74 17.348-6.281 26.774-5.991.172.317-.072.499-.226.689-3.046 3.734-6.109 7.45-9.137 11.194-.543.679-1.269.906-2.03 1.142a80.911 80.911 0 0 0-15.426 6.589c-.408.236-.825.408-1.151 1.233 5.42-1.405 10.115-4.07 15.209-5.566.163-.063.335-.244.498-.045.172.218-.072.317-.172.462-2.701 3.599-5.42 7.179-8.085 10.804-.526.716-1.205.943-1.985 1.151-12.29 3.173-24.653 6.046-36.862 9.544-6.689 1.913-13.432 3.644-20.121 5.575-8.13 2.347-14.294 7.241-19.514 13.64-2.729 3.354-5.547 6.635-8.448 10.088-2.882-10.033-8.057-18.589-14.955-26.149-6.988-7.667-15.254-13.459-25.315-17.057 1.287-1.006 2.384-1.876 3.499-2.728 7.251-5.484 14.502-10.967 21.399-16.904 3.037-2.601 6.037-5.257 8.792-8.167.299-.308.308-.643.29-1.015-.073-1.114-.091-2.229-.227-3.326-.525-4.314.807-8.402 1.614-12.535 1.124-5.746 2.093-11.556 4.341-17.031.245-.589.444-1.187.825-1.695 8.194-10.812 13.931-22.931 18.916-35.447.417-1.043 1.015-1.704 1.958-2.321.154-.099.308-.208.453-.326 2.873-2.103 4.477-5.212 5.873-8.411.979-2.221 1.523-4.577 2.003-7.224 1.541 1.169 2.937 2.166 4.278 3.254.544.444.68 1.142.707 1.867.163 4.133.127 8.266.091 12.39 0 .87-.281 1.187-1.142 1.296-2.783.336-5.547.762-8.321 1.142-.625.091-1.123.263-1.142 1.034-.108 4.486.028 8.864 3.363 12.462 1.387 1.505 3.19 1.486 4.831 1.486 2.003 0 2.565.88 2.955 2.593 1.178 5.166 3.072 10.015 6.943 13.849 3.444 3.399 7.713 5.184 12.39 5.873 6.417.952 12.861.843 19.323.326 6.436-.507 12.907-.607 19.351-.942 2.901-.154 5.828-.254 8.692-.707 2.003-.308 3.952-1.07 5.865-1.804 6.589-2.574 13.233-5.003 19.867-7.477 5.756-2.139 11.629-3.798 17.502-5.556 3.191-.952 5.33.453 7.795 2.166Z"></path><path fill="#FD3" d="M352.584 240.486c.326.571.127.951-.235 1.404a3475.857 3475.857 0 0 0-9.073 11.457c-.417.526-.961.788-1.586.97-9.282 2.592-18.3 5.918-27.219 9.544-.906.371-1.858.39-2.809.344-12.164-.634-24.336-1.142-36.482-2.057-3.589-.272-7.196-.118-10.785-.553-3.245-.399-5.239-2.538-7.17-4.822-.507-.589.036-.834.326-1.124 2.964-3.009 5.774-6.154 8.674-9.227.871-.915 2.348-.843 3.599-.571 2.229.49 4.414 1.133 6.498 2.04 11.185 4.858 21.998 3.824 32.593-1.858 3.309-1.768 6.136-4.097 8.756-6.789-1.07.671-2.121 1.368-3.209 1.994-5.51 3.181-11.103 6.136-17.456 7.332-6.191 1.17-12.236.725-18.082-1.595-5.629-2.239-11.366-2.955-17.394-2.338-7.649.788-15.335.716-23.003-.055-1.45-.154-2.293-.788-2.955-1.994-1.024-1.84-1.414-3.852-1.849-5.873-.199-.933.317-.888.97-.87 3.498.073 6.997.29 10.423-.643 2.855-.771 5.366-2.031 6.635-4.913.208-.471.58-.598.96-.734 9.128-3.345 17.765-7.713 26.149-12.59a3.054 3.054 0 0 1 1.967-.407c.997.108 2.003.181 3.009.136 6.725-.3 13.442.271 20.167.063 1.405-.045 2.81.498 4.686-.063-1.632-.617-2.864-1.079-4.188-1.124-1.259-.037-1.214-.49-.679-1.423a135.94 135.94 0 0 0 3.426-6.263c.398-.762.77-.943 1.577-.608 6.417 2.611 12.77 5.366 18.762 8.865 1.685.988 3.507 1.758 4.994 3.054.643.571 1.196.199 1.749-.045 3.299-1.432 6.653-2.765 9.725-4.659.354-.217.734-.372 1.088-.553.417.471.091.861.009 1.242-.807 3.834-1.622 7.668-2.465 11.493-.191.824.208 1.278.77 1.74 3.997 3.299 6.626 7.631 9.127 12.073ZM291.452 96.021l36.826 70.18a543.784 543.784 0 0 0-2.511 4.378l-39.246-74.72-.136-.273c-.208-.525-.208-.979-.018-1.287a.566.566 0 0 1 .082-.109c.027-.027.063-.072.108-.108a.972.972 0 0 1 .263-.154c.091-.046.209-.082.318-.1.253-.055.534-.055.861 0l3.154.507c-.109.735.299 1.686.299 1.686ZM267.962 341.564c.208.381-.281.617-.453.934-.046.091-.154.145-.2.236-2.202 4.296-6.127 5.492-10.514 5.9-1.187.118-2.356.444-3.725.716 1.686-3.408 4.281-5.553 7.786-6.435 1.994-.508 3.979-1.033 5.973-1.514.372-.09.888-.281 1.133.163ZM263.206 445.188c1.287 1.224.136 3.372-1.595 2.964l-4.605-1.078.073-.327c.67-.879-1.287-2.556-1.287-2.556l-58.651-54.726c.933-1.242 1.921-2.565 2.973-3.97l63.092 59.693Z"></path><path fill="#F0F5FF" d="M255.787 444.191s1.958 1.677 1.287 2.556l-.073.326-88.071-20.565c13.985-17.348 17.193-22.26 28.206-37.043l58.651 54.726Z"></path><path fill="#FD3" d="M250.705 230.219c-1.097 1.831-2.502 2.61-4.006 3.217-3.997 1.596-8.194 1.804-12.436 1.713-.906-.018-.797-.571-.879-1.142-.081-.625.055-1.024.771-1.06.525-.027 1.042-.127 1.568-.136 4.994-.163 10.006-.218 14.982-2.592ZM234.704 209.933c1.613 1.052 1.695 1.025 1.64 2.167-1.187 5.193-3.226 10.296-7.178 14.465-.045.055-.1.109-.154.163-.209.236-.471.49-.752.29-.517-.362.072-.67.199-1.024 1.867-5.012 3.517-10.088 4.568-15.335.227-1.142.526-1.378 1.387-.907.09.055.181.118.29.181Z"></path><path fill="#fff" d="M205.792 372.844c.226.743.317 1.35-.218 2.048-5.664 7.26-11.293 14.547-16.931 21.825-.054.073-.163.118-.235.182-6.997-24.055-21.128-41.385-45.654-49.298.97-1.142 2.275-1.903 3.444-2.8 6.136-4.677 12.318-9.282 18.445-13.976.915-.698 1.631-.744 2.673-.318 19.605 7.958 32.231 22.233 38.476 42.337Z"></path><path fill="#F7FFC2" d="M186.534 397.759c.245.952.045 1.695-.562 2.484-7.514 9.843-11.23 15.752-18.925 25.45l1.423.707-78.691-18.372-.635-16.795c.544-.19.254-.154.77-.616 20.838-18.3 27.836-24.01 49.806-40.922 1.187-.916 2.175-1.07 3.58-.571 23.375 8.257 37.071 25.088 43.234 48.635Z"></path><path fill="#1C1C1E" d="M168.931 426.508s-.045.064-.073.091l-.389-.2.462.109Z"></path><path fill="#FD3" d="m150.317 338.41.299.39a660.004 660.004 0 0 0-3.988 3.009h-.009l-58.941-55.27s-1.65-1.686-2.52-1.197l-.172-4.631c-.064-1.559 1.804-2.402 2.937-1.333l62.394 59.032Z"></path><path fill="#F0F5FF" d="M146.621 341.801h.009a3089.566 3089.566 0 0 0-10.351 7.876c-20.175 15.426-25.324 19.722-44.303 36.608-1.423 1.269-2.665 1.885-2.873 3.725L85.16 285.343c.87-.489 2.52 1.196 2.52 1.196l58.941 55.262Z"></path><path fill="#1C1C1E" d="m89.1 390.01.046 1.223s-.028.009-.046.018a5.659 5.659 0 0 1 0-1.241Z"></path><path fill="#1C1C1E" d="M167.048 425.695c7.695-9.698 11.411-15.607 18.925-25.45.607-.789.807-1.532.562-2.484-6.164-23.547-19.859-40.387-43.234-48.644-1.405-.499-2.393-.336-3.571.571-21.97 16.912-28.968 22.623-49.805 40.922-.535.471-.209.426-.816.635-.28-2.856 1.17-3.445 2.873-4.967 18.98-16.886 24.128-21.182 44.304-36.608 14.719-11.258 29.602-22.306 44.385-33.482 5.275-3.988 10.486-8.066 15.498-12.381.771-.661 1.179-1.386 1.36-2.392 1.314-7.188 2.619-14.375 4.224-21.508.498-2.212.825-4.469 1.314-6.689.807-3.698 2.157-6.988 4.45-10.152 8.565-11.828 14.475-25.061 19.469-38.72 1.749-4.776 3.236-9.625 4.387-14.583.526-2.248.734-2.329 2.873-1.405 3.317 1.441 6.245 3.553 9.345 5.366.743.435.797 1.178.834 1.921.19 4.387.598 8.774.326 13.17-.064 1.042.381.915 1.115.816 2.864-.408 5.492-1.487 8.13-2.602 7.405-3.136 14.583-6.77 21.671-10.541 3.027-1.613 5.837-2.066 9.163-1.985 5.294.127 10.587.018 15.862.635 1.079.127 1.224-.626 1.541-1.233 5.873-11.248 11.855-22.451 18.027-33.544 9.055-16.27 18.599-32.249 28.016-48.301 3.236-5.519 10.714-19.369 14.103-24.807.435-.698.934-1.894 1.777-1.414 1.042.598.118 1.595-.326 2.311-5.52 8.91-14.593 26.53-19.877 35.566-2.592 4.432-5.221 8.828-7.831 13.251-.263.444-.508.907-.907 1.623 3.626-.028 6.97.598 10.324 1.223 10.913 2.058 20.674 6.372 28.342 14.656 3.825 4.133 6.988 8.719 9.372 13.877 1.378 2.973 3.209 5.728 4.015 8.973.254 1.015.843.589 1.333 0 2.202-2.647 4.432-5.266 6.634-7.913 11.203-13.405 23.629-27.562 34.678-41.104.127-.163.906 0 .906 0 .997 1.432-.879 2.774-1.658 3.771-10.07 12.907-20.856 25.215-31.397 37.723-13.849 16.432-27.436 33.082-40.986 49.768-3.399 4.188-6.798 8.366-10.224 12.59.671.344 1.224.063 1.813-.091 2.184-.58 4.251-1.55 6.607-1.477 4.206.136 7.224 2.383 9.916 5.284.326.344.58.752.888 1.124 1.342 1.622 1.305 1.559-.607 2.764-3.399 2.148-6.861 4.188-10.423 6.073-.426.226-.789.444-.943.979-.952 3.462-3.752 5.538-6.045 7.985-.943.997-1.931 1.957-2.91 2.909-6.517 6.336-12.97 12.735-19.596 18.961-5.238 4.922-9.272 10.795-13.668 16.387-4.169 5.303-8.247 10.686-12.471 15.943-1.224 1.514-2.583 2.919-3.698 4.532-.644.934-1.804 1.097-2.792 1.351a1995.563 1995.563 0 0 1-20.447 5.121c-.78.19-1.324.553-1.795 1.169-1.459 1.876-3.091 3.634-4.396 5.61-1.586 2.384-4.051 2.674-6.462 3.055-2.266.353-4.478.915-6.698 1.441-.68.163-1.378.48-1.886-.163-.516-.653-.027-1.324.299-1.904.644-1.151 1.278-2.32 2.167-3.317.208-.236.489-.471.253-.816-.226-.344-.552-.163-.852-.09-2.229.507-4.323 1.151-5.945 3.009-1.741 1.985-3.762 3.725-5.584 5.646-.734.771-1.441 1.052-2.51.852-2.493-.471-4.94-1.114-7.369-1.83-.689-.2-1.196-.127-1.767.172-4.142 2.175-7.215 5.601-10.46 8.846-6.453 6.453-11.61 13.949-17.067 21.191-15.29 20.275-17.275 23.919-33.2 43.696l-1.813-.907-.045.036Zm135.439-104.957c-5.103 1.496-9.798 4.161-15.209 5.565.326-.824.743-.997 1.151-1.223 4.912-2.746 10.06-4.922 15.426-6.589.761-.236 1.478-.472 2.021-1.142 3.028-3.744 6.091-7.46 9.137-11.194.154-.19.398-.372.226-.689-9.426-.29-17.783 4.251-26.774 5.991 2.175-1.532 4.532-2.619 7.006-3.453a5750.952 5750.952 0 0 1 23.004-7.722c.988-.327 1.74-.879 2.483-1.605 8.348-8.275 16.369-16.876 25.342-24.49 1.034-.879 2.312-2.664 2.738-3.852-3.707 1.324-7.433 2.067-10.777 4.215-2.855 1.831-6.182 2.909-9.109 4.749-3.49 2.194-7.16 4.088-10.686 6.236-1.894 1.16-3.771 2.185-5.982 2.728-6.861 1.704-13.677 3.617-20.539 5.357-.571.145-1.377.662-2.003-.091 6.916-3.118 14.14-5.229 21.436-7.106 1.477-.38 3-.562 4.332-1.441 2.158-1.423 4.405-2.701 6.617-4.042 7.786-4.713 16.025-8.538 24.082-12.725.997-.517 1.894-.907 1.623-2.312-.1-.498.335-.96.625-1.405 2.157-3.317 5.13-5.746 8.493-7.74 1.069-.634 2.184-1.205 3.435-1.894-2.466-1.713-4.596-3.118-7.795-2.157-5.864 1.758-11.747 3.408-17.502 5.556-6.635 2.474-13.278 4.903-19.868 7.468-1.903.743-3.861 1.496-5.864 1.813-2.864.444-5.782.553-8.692.698-6.453.335-12.916.435-19.351.942-6.471.508-12.916.617-19.324-.326-4.686-.689-8.955-2.474-12.39-5.882-3.87-3.825-5.764-8.674-6.942-13.84-.39-1.713-.952-2.602-2.955-2.602-1.65 0-3.444.027-4.84-1.477-3.336-3.598-3.472-7.985-3.363-12.472.018-.77.517-.942 1.142-1.024 2.774-.381 5.538-.807 8.321-1.142.861-.109 1.142-.426 1.151-1.287.036-4.133.072-8.266-.091-12.39-.027-.725-.163-1.423-.716-1.867-1.332-1.079-2.737-2.085-4.278-3.254-.471 2.638-1.024 5.003-1.994 7.224-1.477 3.372-3.163 6.625-6.336 8.737-.933.626-1.54 1.287-1.957 2.32-4.994 12.517-10.723 24.635-18.916 35.448-.381.508-.58 1.115-.825 1.704-2.257 5.475-3.227 11.276-4.341 17.031-.807 4.133-2.14 8.212-1.614 12.535.136 1.097.154 2.212.227 3.326.027.372.018.707-.281 1.025-2.765 2.9-5.765 5.556-8.792 8.166-6.897 5.937-14.148 11.411-21.399 16.904-1.115.843-2.212 1.722-3.499 2.719 10.061 3.598 18.327 9.399 25.315 17.057 6.897 7.56 12.073 16.116 14.955 26.158 2.9-3.462 5.71-6.743 8.447-10.088 5.221-6.399 11.384-11.293 19.514-13.64 6.689-1.931 13.433-3.662 20.122-5.575 12.2-3.498 24.572-6.371 36.853-9.544.779-.199 1.459-.426 1.985-1.142 2.664-3.625 5.384-7.214 8.085-10.813.099-.136.344-.235.172-.453-.163-.208-.336-.018-.499.046l.037-.028Zm6.208-104.041c-1.876.553-3.281.018-4.686.063-6.725.218-13.441-.353-20.166-.054-.997.045-2.013-.027-3.01-.136a3.006 3.006 0 0 0-1.957.408c-8.393 4.867-17.022 9.245-26.149 12.58-.381.136-.752.272-.961.743-1.278 2.883-3.779 4.133-6.634 4.913-3.436.933-6.934.716-10.424.643-.652-.018-1.169-.054-.97.87.436 2.022.825 4.034 1.84 5.874.662 1.205 1.505 1.84 2.955 1.985 7.668.779 15.345.843 23.004.063 6.027-.616 11.774.1 17.393 2.338 5.837 2.321 11.883 2.765 18.073 1.596 6.354-1.197 11.955-4.151 17.457-7.333 1.087-.625 2.139-1.323 3.208-1.994-2.619 2.692-5.456 5.021-8.755 6.789-10.596 5.674-21.409 6.716-32.593 1.858-2.085-.906-4.278-1.559-6.499-2.039-1.251-.272-2.737-.354-3.598.571-2.901 3.072-5.71 6.217-8.674 9.217-.29.29-.825.544-.327 1.133 1.94 2.284 3.925 4.414 7.179 4.813 3.589.444 7.196.29 10.786.562 12.145.915 24.318 1.423 36.481 2.057.952.055 1.903.028 2.81-.344 8.918-3.616 17.937-6.952 27.218-9.544.625-.172 1.169-.444 1.586-.97 3.018-3.825 6.037-7.64 9.073-11.456.362-.453.562-.834.236-1.414-2.502-4.432-5.13-8.765-9.128-12.064-.562-.462-.951-.915-.77-1.749a981.27 981.27 0 0 0 2.465-11.484c.082-.38.417-.77-.009-1.251-.353.182-.734.345-1.087.553-3.073 1.895-6.427 3.227-9.726 4.659-.553.236-1.115.616-1.749.045-1.486-1.305-3.308-2.075-4.994-3.054-5.991-3.499-12.345-6.254-18.762-8.864-.816-.327-1.187-.154-1.577.607a140.805 140.805 0 0 1-3.426 6.263c-.544.933-.589 1.378.68 1.423 1.323.045 2.556.507 4.187 1.124Zm45.128 23.293c.327-.371.499-.571.662-.77 10.414-12.961 20.783-25.949 31.46-38.693 1.015-1.214 1.504-2.066.544-3.816-1.251-2.284-2.284-4.731-3.544-7.033-2.81-5.121-5.901-10.043-10.016-14.221-10.368-10.532-23.076-15.308-37.741-15.209-.942 0-1.287.508-1.667 1.17-8.221 14.248-16.351 28.541-24.309 42.934-.644 1.169-.435 1.505.743 1.94 7.786 2.891 15.309 6.353 22.297 10.885.951.616 1.794.698 2.891.109 3.399-1.831 6.925-3.417 10.197-5.475.417-.262.915-.679 1.45-.308.326.227.272.635.199 1.024-.843 4.414-1.26 8.901-2.266 13.288-.127.544-.326 1.087.2 1.622 3.616 3.635 6.589 7.731 8.909 12.562l-.009-.009ZM188.42 396.9c.073-.054.172-.099.236-.181 5.637-7.278 11.266-14.556 16.922-21.816.543-.698.453-1.305.217-2.058-6.245-20.094-18.87-34.378-38.475-42.336-1.043-.426-1.759-.381-2.674.326-6.118 4.686-12.308 9.3-18.436 13.976-1.178.898-2.483 1.659-3.453 2.801 24.527 7.904 38.657 25.242 45.654 49.288h.009Zm75.555-150.565c-2.855.217-5.411.517-7.967.598-3.435.1-6.87.045-10.305.045-.544 0-1.097-.09-.889.78 1.097 4.559 2.629 8.9 5.674 12.58.635.771.916.299 1.278-.181 2.384-3.172 5.139-6.036 7.795-8.964 1.405-1.55 2.819-3.1 4.414-4.858Zm100.951 12.19c-1.124-.987-2.039-1.785-2.936-2.61-.381-.353-.716-.553-1.251-.245-3.916 2.239-7.695 4.659-10.532 8.257-.589.753-1.84 1.849-1.333 2.429.798.907 1.786-.525 2.756-.761.154-.036.281-.136.426-.208 4.196-2.103 8.366-4.242 12.879-6.871l-.009.009ZM253.08 349.352c1.36-.263 2.529-.598 3.716-.707 4.396-.408 8.312-1.613 10.514-5.9.046-.091.154-.154.2-.245.172-.308.661-.553.453-.933-.236-.444-.761-.254-1.133-.163-1.994.48-3.988 1.015-5.973 1.513-3.505.888-6.097 3.033-7.777 6.435Zm-16.74-137.251c.054-1.142-.018-1.114-1.641-2.166-1.078-.698-1.414-.534-1.667.725-1.052 5.248-2.711 10.324-4.569 15.336-.126.354-.716.662-.199 1.024.354.245.671-.208.906-.453 3.952-4.169 5.991-9.272 7.179-14.466h-.009Zm14.375 18.119c-4.985 2.383-9.988 2.438-14.983 2.592-.525.018-1.042.118-1.568.145-.716.036-.861.435-.77 1.06.082.562-.027 1.124.879 1.142 4.242.091 8.439-.117 12.436-1.722 1.504-.598 2.909-1.377 4.006-3.217Zm3.254 114.818c-.037-.063-.073-.136-.109-.208-.036.036-.109.081-.1.108.018.073.064.145.1.218l.109-.109v-.009Z"></path><path stroke="#1C1C1E" stroke-width="1.5" d="m377.733 212.516 91.525 14.747c1.541.245 2.193-.671 1.468-2.048l-36.644-69.736-.145-.281-12.716-24.209-5.312-10.115-2.393-4.559c-.725-1.369-2.556-2.692-4.087-2.937l-1.568-.245-45.844-7.386h-.064l-73.951-11.92a2.283 2.283 0 0 0-.861 0 1.191 1.191 0 0 0-.317.1.972.972 0 0 0-.263.155c-.045.036-.081.081-.108.108a.528.528 0 0 0-.082.11c-.19.307-.19.76.018 1.286l.136.272 39.545 75.292"></path><path stroke="#1C1C1E" stroke-width="1.5" d="m328.433 166.492-36.971-70.461s-.58-1.369-.172-2.085M381.074 208.745l86.314 14.293s1.486.118 2.03-.489"></path><path stroke="#1C1C1E" stroke-miterlimit="10" stroke-width="1.5" d="m150.317 338.421-62.394-59.032c-1.133-1.069-3-.227-2.937 1.332l4.795 127.318 171.829 40.124c1.731.408 2.882-1.74 1.595-2.963l-63.156-59.748"></path><path stroke="#1C1C1E" stroke-miterlimit="10" stroke-width="1.5" d="m146.626 341.81-58.942-55.261s-1.803-1.849-2.637-1.115M196.719 389.078l59.077 55.125s1.958 1.677 1.287 2.556"></path><path fill="#1C1C1E" d="M105.129 411.446c44.784 10.46 70.996 4.251 70.996 4.251l-7.632 10.55-63.364-14.801ZM429.896 148.347c-10.759-18.309-33.391-34.551-79.353-19.106l11.574-21.925.281-.535.127-.227.191-.353.081-.136.054-.109.046-.063 45.844 7.386 4.586 1.849"></path></g><defs><clipPath id="a"><path fill="#fff" d="M84.3 93.111h387.4v355.775H84.3z"></path></clipPath></defs></svg>