<svg width="540" height="540" fill="none" viewBox="121.727 124.316 298.49 291.367" xmlns="http://www.w3.org/2000/svg"><path d="M0 0h540v540H0z" style="fill: rgba(251, 247, 239, 0);"></path><path fill="#E4FFB5" d="M380.508 129.378h-49.559V176.748l35.303 11.058h49.558v-47.372l-35.302-11.056ZM380.508 352.511h-49.559V399.883l35.303 11.056h49.558v-47.372l-35.302-11.056Z"></path><path fill="#FFB8B8" d="M260.629 301.021h-49.561V348.394l35.303 11.056h49.561v-47.37l-35.303-11.059ZM260.629 193.23h-49.561V240.601l35.303 11.056h49.561v-47.371l-35.303-11.056Z"></path><path fill="#fff" d="M346.177 269.974h-22.374c-3.241 0-5.534-.773-7.005-2.361-2.595-2.801-2.395-7.669-2.393-7.715.012-.165.02-.333.02-.498v-19.007c0-9.106-2.573-16.286-7.645-21.344-3.608-3.596-7.701-5.298-10.844-6.1v14.024c.107.069.214.141.32.214 3.402 2.369 5.128 6.811 5.128 13.208v18.81c-.102 1.967-.187 10.76 5.846 17.273.058.064.121.129.182.193-.061.063-.124.128-.182.192-6.033 6.514-5.948 15.306-5.846 17.273v18.81c0 6.395-1.723 10.839-5.128 13.208a7.75 7.75 0 0 1-.32.214v14.024c3.143-.802 7.236-2.504 10.844-6.103 5.072-5.057 7.645-12.237 7.645-21.343v-19.007c0-.197 0-.287-.017-.477-.073-1.405.221-5.439 2.429-7.78 1.473-1.561 3.751-2.32 6.966-2.32h24.336l15.871 17.456h-.051v53.733c0 5.113 4.184 5.527 9.298 5.527 5.113 0 9.298-.414 9.298-5.527v-52.895l-.192-.009c.223-.178.435-.372.624-.591l21.932-25.465-22.364-26.051v-61.73l-18.596-.72v63.143l-17.782 19.744v-.003ZM255.46 198.757c6.483.061 8.024-1.996 8.024-1.996v-27.615c0-.982.798-1.78 1.78-1.78h76.191c5.113 0 7.143-4.184 7.143-9.298 0-5.113-2.03-9.297-7.143-9.297h-81.494c-6.932 0-12.549 5.619-12.549 12.548v35.203s.805 2.167 8.048 2.235ZM341.455 372.74h-76.191c-.982 0-1.78-.798-1.78-1.78v-11.511h-16.072v19.338c0 6.932 5.619 12.549 12.549 12.549h81.494c5.113 0 7.143-4.185 7.143-9.298 0-5.114-2.03-9.298-7.143-9.298ZM178.492 283.36h12.44c3.214 0 5.495.758 6.966 2.319 2.21 2.342 2.502 6.376 2.429 7.781-.017.19-.017.277-.017.477v19.007c0 9.106 2.572 16.286 7.644 21.343 6.483 6.463 14.529 6.806 15.834 6.818H223.89v-.005c1.501-.114 2.702-2.988 2.702-6.519 0-3.53-1.206-6.419-2.711-6.518h.068c-.029 0-2.862-.1-5.469-1.916-3.401-2.369-5.128-6.811-5.128-13.208v-18.81c.102-1.967.188-10.759-5.845-17.273-.058-.064-.122-.129-.182-.192.06-.064.124-.129.182-.193 6.033-6.513 5.947-15.306 5.845-17.273v-18.81c0-6.395 1.724-10.839 5.128-13.208 2.607-1.813 5.442-1.913 5.469-1.916h-.095v-.048c1.517-.066 2.74-2.959 2.74-6.521 0-3.563-1.25-6.524-2.794-6.524-.126 0-.25.022-.372.058-2.047.08-9.436.793-15.471 6.808-5.072 5.058-7.645 12.238-7.645 21.344v19.007c0 .168.008.333.02.498.002.047.202 4.914-2.393 7.715-1.471 1.591-3.764 2.361-7.005 2.361h-12.352"></path><path fill="#FF8080" d="M152.188 303.672c15.01 0 27.177-12.168 27.177-27.177s-12.167-27.177-27.177-27.177c-15.009 0-27.176 12.168-27.176 27.177s12.167 27.177 27.176 27.177Z"></path><path fill="#CEFF7A" d="M330.949 129.378v19.393h11.868s5.318.65 5.581 7.492c.262 6.842-.854 10.273-6.327 11.036l-11.119.068v9.381l35.302 11.056-.114-47.37-35.188-11.056h-.003ZM330.949 372.739v-20.227l35.303 11.056v47.37l-35.303-11.056.066-8.394 11.875-.153s5.838-.608 5.649-8.498c-.193-7.89-3.256-9.011-3.256-9.011s-.902-1.189-3.827-1.087c-2.925.102-10.507 0-10.507 0Z"></path><path fill="#E4FFB5" d="m346.545 269.563 17.412-19.332s-.214 5.225 8.189 5.225 8.921-1.897 8.921-1.897l1.272-1.617.214-2.407 22.364 26.051-21.932 25.465s-2.825 2.901-9.222 2.772c-6.397-.131-9.011-2.223-9.011-2.223l-1.398-1.507-15.216-16.733s3.994.367 4.755-4.793c.762-5.16-1.706-7.589-1.706-7.589s-.798-1.167-5.009-1.004l.369-.411h-.002Z"></path><path fill="#FF8080" d="M246.371 251.657v-47.371l-35.303-11.056v23.219s5.666-3.91 12.36-4.212c0 0 2.382-.466 2.852 3.896.469 4.362.07 5.232.07 5.232s-.741 3.509-2.494 3.854c0 0-4.839.445-7.273 3.703-2.434 3.258-2.83 6.59-2.83 6.59l-.387 3.953.144 2.06 32.861 10.132ZM213.353 301.738l.117 12.743s-.457 7.796 4.727 11.462l2.181 1.248 1.619.549 1.952.323s2.313.62 2.646 5.838c.333 5.218-2.082 7.203-2.082 7.203h-2.409l-4.323-1.002-3.098-1.18-3.557-2.1-.054 11.569 35.303 11.056v-47.424l-33.02-10.288-.002.003Z"></path><path stroke="#1C1C1E" stroke-linecap="round" stroke-linejoin="round" stroke-width="1.5" d="M415.811 140.435H366.25v47.37h49.561v-47.37ZM366.252 140.434l-35.303-11.056h49.559l35.302 11.056h-49.558Z"></path><path stroke="#1C1C1E" stroke-linecap="round" stroke-linejoin="round" stroke-width="1.5" d="M330.949 148.771v-19.393l35.303 11.056v47.372l-35.303-11.058v-9.381M415.811 363.566H366.25v47.371h49.561v-47.371Z"></path><path stroke="#1C1C1E" stroke-linecap="round" stroke-linejoin="round" stroke-width="1.5" d="m382.553 353.153 33.257 10.414h-49.558l-35.303-11.056h33.008"></path><path stroke="#1C1C1E" stroke-linecap="round" stroke-linejoin="round" stroke-width="1.5" d="M330.949 372.741v-20.23l35.303 11.056v47.372l-35.303-11.056v-8.546M295.93 312.079h-49.561v47.37h49.561v-47.37Z"></path><path stroke="#1C1C1E" stroke-linecap="round" stroke-linejoin="round" stroke-width="1.5" d="M213.354 301.021h47.277l35.303 11.059h-49.561l-33.019-10.344M213.352 301.737l33.019 10.344v47.37l-35.303-11.056v-11.511M295.93 204.285h-49.561v47.37h49.561v-47.37Z"></path><path stroke="#1C1C1E" stroke-linecap="round" stroke-linejoin="round" stroke-width="1.5" d="m263.484 194.125 32.448 10.161h-49.561l-35.303-11.056h36.344"></path><path stroke="#1C1C1E" stroke-linecap="round" stroke-linejoin="round" stroke-width="1.5" d="M211.068 216.449V193.23l35.303 11.056v47.371l-33.019-10.342M152.188 303.672c15.01 0 27.177-12.168 27.177-27.177s-12.167-27.177-27.177-27.177c-15.009 0-27.176 12.168-27.176 27.177s12.167 27.177 27.176 27.177ZM346.172 269.974l17.781-19.872M382.549 249.538l22.365 26.051-21.932 25.465a4.569 4.569 0 0 1-1.651 1.211c-2.366 1.019-8.486 2.976-15.564-.09a4.469 4.469 0 0 1-1.522-1.099l-16.108-17.716"></path><path stroke="#1C1C1E" stroke-linecap="round" stroke-linejoin="round" stroke-width="1.5" d="M404.916 275.588s-18.199 11.058-49.373 4.228c-.9-.197-1.809-.408-2.729-.637M382.553 187.808v61.73c0 5.114-4.185 5.94-9.298 5.94s-9.298-.826-9.298-5.94v-62.45M255.46 198.757c-7.243-.068-8.048-2.235-8.048-2.235v-35.203c0-6.932 5.619-12.548 12.549-12.548h81.494c5.113 0 7.143 4.184 7.143 9.297 0 5.114-2.03 9.298-7.143 9.298h-76.193a1.78 1.78 0 0 0-1.78 1.78v27.615s-1.542 2.057-8.024 1.996h.002ZM247.412 359.449v19.338c0 6.932 5.619 12.549 12.549 12.549h81.494c5.113 0 7.143-4.185 7.143-9.298 0-5.114-2.03-9.298-7.143-9.298h-76.193a1.78 1.78 0 0 1-1.78-1.78v-11.511M382.553 301.65v52.894c0 5.114-4.185 5.527-9.298 5.527s-9.298-.413-9.298-5.527v-53.735M178.492 283.36h12.44c3.214 0 5.495.758 6.966 2.319 2.21 2.342 2.502 6.376 2.429 7.781-.017.19-.017.277-.017.477v19.007c0 9.106 2.572 16.286 7.644 21.343 6.483 6.463 14.529 6.806 15.834 6.818H223.89v-.005c1.501-.114 2.702-2.988 2.702-6.519 0-3.53-1.206-6.419-2.711-6.518h.068c-.029 0-2.862-.1-5.469-1.916-3.401-2.369-5.128-6.811-5.128-13.208v-18.81c.102-1.967.188-10.759-5.845-17.273-.058-.064-.122-.129-.182-.192.06-.064.124-.129.182-.193 6.033-6.513 5.947-15.306 5.845-17.273v-18.81c0-6.395 1.724-10.839 5.128-13.208 2.607-1.813 5.442-1.913 5.469-1.916h-.095v-.048c1.517-.066 2.74-2.959 2.74-6.521 0-3.563-1.25-6.524-2.794-6.524-.126 0-.25.022-.372.058-2.047.08-9.436.793-15.471 6.808-5.072 5.058-7.645 12.238-7.645 21.344v19.007c0 .168.008.333.02.498.002.047.202 4.914-2.393 7.715-1.471 1.591-3.764 2.361-7.005 2.361h-12.352"></path><path stroke="#1C1C1E" stroke-linecap="round" stroke-linejoin="round" stroke-width="1.5" d="M295.93 340.386c3.144-.802 7.236-2.504 10.844-6.103 5.072-5.057 7.645-12.238 7.645-21.343v-19.007c0-.197 0-.287-.017-.477-.073-1.405.221-5.439 2.429-7.781 1.473-1.561 3.751-2.319 6.966-2.319h24.337c3.601 0 4.894-2.921 4.894-6.522 0-.058-.002-.114-.005-.172 0-.059.005-.114.005-.173 0-3.601-1.293-6.521-4.894-6.521h-24.337c-3.241 0-5.534-.773-7.005-2.361-2.595-2.801-2.395-7.669-2.393-7.715.012-.165.02-.333.02-.499v-19.006c0-9.106-2.573-16.287-7.645-21.344-3.608-3.596-7.7-5.298-10.844-6.101v14.025c.107.068.214.141.321.214 3.401 2.368 5.128 6.811 5.128 13.208v18.81c-.103 1.967-.188 10.759 5.845 17.273.058.063.121.129.182.192-.061.063-.124.129-.182.192-6.033 6.514-5.948 15.307-5.845 17.274v18.81c0 6.394-1.724 10.839-5.128 13.207a7.454 7.454 0 0 1-.321.214v14.025Z"></path></svg>