<svg width="542" height="542" fill="none" viewBox="121.365 125.447 290.333 315.028" xmlns="http://www.w3.org/2000/svg"><path fill="none" d="M0 0h542v542H0z"></path><path fill="#6C7173" d="M385.094 406.246H191.611L147.923 158.53a11.685 11.685 0 0 1 2.228-9.124l11.301-14.75a11.673 11.673 0 0 1 9.178-4.572l164.122-1.174 50.342 277.333v.003Z"></path><path fill="#fff" d="m198.576 406.191-43.78-248.156s-.802-5.327 2.647-9.053l11.909-15.32s2.75-3.446 8.984-3.62c6.233-.174 156.42-1.119 156.42-1.119l50.342 277.333-186.522-.058v-.007Z"></path><path fill="#F0F0F3" d="m176.062 175.837 27.225-.191-2.46-15.924-27.225.191 2.46 15.924ZM310.067 292.07a4.111 4.111 0 0 0-5.695 1.089l-12.895 18.995c-1.265 1.866-.777 4.429 1.089 5.694a4.112 4.112 0 0 0 5.695-1.088l12.894-18.995a4.112 4.112 0 0 0-1.088-5.695Z"></path><path fill="#D9D9D9" d="m258.121 375.079 4.252 11.146 45.759-7.307 70.125-10.36-4.824-26.579-92.506 15.75-19.605 16.398s-1.065 1.106-3.201.949v.003Z"></path><path stroke="#1C1C1E" stroke-linecap="round" stroke-linejoin="round" stroke-width="1.5" d="M265.824 370.342s-6.992.724-9.418-6.193"></path><path stroke="#1C1C1E" stroke-linecap="round" stroke-linejoin="round" stroke-width="1.5" d="m357.589 254.728 27.505 151.519H191.611l-43.688-247.716a11.685 11.685 0 0 1 2.228-9.124l11.301-14.75a11.673 11.673 0 0 1 9.178-4.572l164.122-1.174 13.259 73.046"></path><path stroke="#1C1C1E" stroke-linecap="round" stroke-linejoin="round" stroke-width="1.5" d="M168.41 134.6a11.678 11.678 0 0 1 9.179-4.572M157.113 149.352l11.301-14.75M154.88 158.476a11.681 11.681 0 0 1 2.228-9.123M198.579 406.187l-43.688-247.716M328.051 197.356l-146.887 1.021M176.062 175.83l27.225-.191-2.46-15.924-27.225.191 2.46 15.924ZM324.179 238.225l-135.351.941M297.229 279.256l-100.725.703M270.274 320.281l-66.102.461M351.052 319.719l-37.614.262M257.182 361.218l-45.35.314M358.722 360.514l-81.812.566"></path><path fill="#fff" d="m321.742 238.116 2.584 7.715-4.434 3.221 7 23.192-7.396 5.6-9.969-31.601 12.215-8.127ZM298.094 196.121c1.59-1.682 3.52-3.004 5.684-3.736 3.551-1.2 8.898-1.408 12.179 6.005 5.246 11.864 2.119 25.736-6.712 30.52-8.829 4.785-13.896-5.126-13.896-5.126s-8.18-16.09 2.745-27.666v.003Z"></path><path fill="#fff" d="M305.64 220.302s-4.54-.129-5.558-8.731c-1.018-8.6 2.818-10.117 4.696-9.933 0 0 4.388.112 5.405 8.713 1.017 8.601-2.579 10.077-4.543 9.947v.004Z"></path><path fill="#CEFF7A" d="M209.529 413.248c.373-.565.886-1.011 1.513-1.349l7.214-11.085 49.046-70.624-2.255 3.169c-3.375-2.911-2.784-5.103-2.784-5.103s.07-.102.191-.286l-.029-.148 3.26-4.642 15.734-23.407 1.059-2.718.086-3.371-.496-2.986-1.312-2.976-.146.341c-6.058-11.476-10.241-25.453-11.331-40.48-3.073-42.36 20.527-79.831 49.931-81.96l13.876-1.011c29.403-2.131 55.731 30.483 58.804 72.843 3.013 41.536-17.451 77.016-45.97 80.389l.047.001-17.883 2.577a37.586 37.586 0 0 1-4.873.037l-.019-.001h-.021a38.336 38.336 0 0 1-7.253-1.128l-.021-.001-2.423-.616-16.697 27.438c-2.475 2.879-6.339 1.855-6.339 1.855l1.89-3.032-.032-.064-1.858 3.096-52.399 84.021c-2.425 3.68-10.777 2.457-18.651-2.732-7.874-5.19-12.29-12.378-9.865-16.057l.006.01Z"></path><path fill="#fff" d="m267.106 330.087 4.707-1.241 5.052.129 1.327.549 4.388 2.739 5.739 5.742 3.776 6.808-53.293 85.762s.591-5.239-5.555-10.764c-6.145-5.525-13.168-7.873-13.168-7.873s-5.966-2.492-9.887.093l56.918-81.941-.004-.003Z"></path><path fill="#1C1C1E" d="M264.839 333.09s-2.621-2.695-2.796-4.354c0 0 6.53-3.401 15.778-1.982 0 0 12.395 5.565 18.577 19.905 0 0-3.106 2.15-5.768 1.037l1.462-2.889s-3.817-10.259-14.839-15.972c0 0-6.496-.718-10.157 1.043l-2.257 3.215v-.003Z"></path><path fill="#8E8E8E" d="M319.152 185.487s15.487-11.238 33.248-1.305c17.762 9.934 25.045 33.221 25.045 33.221s9.002 24.202.689 50.144c-8.312 25.943-24.027 31.56-24.027 31.56s-15.998 6.889-26.639-.691c0 0 23.501.922 35.489-28.21 11.987-29.131-3.034-58.466-3.034-58.466s-11.996-27.161-39.059-26.049l-1.72.136.008-.336v-.004Z"></path><path fill="#F7FFC2" d="M348.23 290.656a37.183 37.183 0 0 1-4.93 3.348s-8.042 4.816-16.214 4.562c0 0-11.434-4.851-19.611-18.555-8.177-13.703-10.094-26.123-10.094-26.123s-6.192-29.388 8.367-54.559c0 0 6.153-10.32 13-13.727 0 0 9.092-1.8 19.898 3.73 4.962 2.54 10.282 6.622 15.253 13.135a58.72 58.72 0 0 1 2.272 3.191c7.242 10.931 9.877 22.794 10.777 31.322"></path><path stroke="#1C1C1E" stroke-linecap="round" stroke-linejoin="round" stroke-width="1.5" d="M296.337 244.017c-2.463-33.677 14.588-62.349 38.083-64.042 23.495-1.692 44.538 24.236 47.001 57.914 2.462 33.676-14.588 62.349-38.084 64.041-23.495 1.692-44.538-24.236-47-57.913ZM313.902 318.432c4.689 1.461 9.558 2.08 14.519 1.734l17.825-2.479"></path><path stroke="#1C1C1E" stroke-linecap="round" stroke-linejoin="round" stroke-width="1.5" d="M348.18 290.386c-5.52 4.712-11.976 7.634-19.005 8.174l-2.339-.015M356.56 205.436c5.505 8.599 9.264 19.396 10.391 31.346M318.528 185.608l2.285-.193c6.341-.484 12.491.984 18.131 4.03M219.42 429.524c-8.112-5.04-12.772-12.189-10.409-15.969 2.363-3.78 10.854-2.76 18.966 2.28 8.112 5.039 12.772 12.188 10.408 15.968-2.363 3.78-10.854 2.76-18.965-2.279Z"></path><path stroke="#1C1C1E" stroke-linecap="round" stroke-linejoin="round" stroke-width="1.5" d="m266.328 331.193-56.379 81.297 55.637-80.251M238.854 430.822l51.919-82.844M286.727 336.063l-27.852 44.346a9.635 9.635 0 0 1-3.892 3.507l-12.359 6.1a9.608 9.608 0 0 0-3.867 3.468l-13.073 20.594"></path><path stroke="#1C1C1E" stroke-linecap="round" stroke-linejoin="round" stroke-width="1.5" d="M263.129 328.626s5.301-2.835 14.452-1.583c0 0 16.077-23.803 19.263-28.322 3.187-4.518.846-11.085.846-11.085-6.753-11.881-11.261-26.514-12.427-42.549-3.08-42.319 18.294-78.351 47.738-80.478 29.444-2.126 55.811 30.458 58.89 72.778 3.079 42.321-18.294 78.352-47.739 80.479-7.239.524-14.291-1.053-20.856-4.353-5.379-2.276-9.261 3.97-9.261 3.97l-17.379 28.493c-2.478 2.877-6.348 1.853-6.348 1.853l1.892-3.028c-5.364-11.675-15.149-15.769-15.149-15.769-6.048-.619-9.915.986-9.915.986l-2.258 3.166c-3.376-2.909-2.788-5.099-2.788-5.099s15.332-22.703 18.523-27.218c1.782-2.527 1.837-5.699 1.536-7.998a12.974 12.974 0 0 0-1.443-4.456c-6.202-11.553-10.485-25.696-11.592-40.913-3.08-42.321 20.551-79.755 49.995-81.881l13.895-1.009"></path><path stroke="#1C1C1E" stroke-linecap="round" stroke-linejoin="round" stroke-width="1.5" d="M277.625 327.128s10.208 3.737 17.588 17.232M341.153 185.794c-.89-.163-1.76.39-1.962 1.26-.201.871-.344 2.344-.143 4.567.2 2.224.592 4.393.988 6.304a6.186 6.186 0 0 0 5.384 4.879c5.092.567 13.755 2.316 20.62 7.723.467.366 1.133-.081.947-.641-1.825-5.466-8.451-20.893-25.837-24.089l.003-.003ZM370.065 234.702a1.569 1.569 0 0 1 2.396.708c1.786 4.701 5.469 17.587-.327 32.851-5.687 14.979-12.631 21.225-15.303 23.395a3.36 3.36 0 0 1-2.788.692c-1.972-.4-5.347-1.345-9.987-5.113a4.178 4.178 0 0 1-1.504-2.719c-.671-5.272-3.514-22.506-13.135-34.823a.404.404 0 0 1 .273-.653c4.142-.441 24.951-3.158 40.375-14.334v-.004Z"></path><path fill="#1C1C1E" d="m341.28 295.182 14.16 3.196s-11.024 8.12-28.599.134c0 0 7.729.973 14.439-3.33ZM331.529 186.148s10.785-3.87 20.004-2.71c0 0-9.582-5.389-21.894-2.509 0 0-5.7 1.371-10.487 4.714 0 0 4.468-.631 12.377.505Z"></path><path stroke="#000" stroke-width="1.5" d="M297.988 220.412h65.658M301.324 267.709h60.094"></path><path fill="#fff" d="M370.057 234.704a1.565 1.565 0 0 1 2.396.71c1.786 4.725 5.467 17.676-.332 33.02-5.688 15.054-12.633 21.335-15.305 23.516-.781.636-1.793.523-2.779.324-1.972-.401-5.356-.976-9.996-4.763a4.207 4.207 0 0 1-1.504-2.733c-.669-5.299-3.511-22.62-13.13-34.999a.406.406 0 0 1 .273-.655c4.142-.444 24.951-3.178 40.377-14.413v-.007ZM341.134 185.793c-.89-.163-1.76.39-1.963 1.26-.201.871-.343 2.345-.143 4.568.201 2.224.593 4.392.988 6.304a6.186 6.186 0 0 0 5.385 4.878c5.091.568 13.755 2.316 20.619 7.723.468.366 1.133-.081.948-.641-1.825-5.466-8.451-20.892-25.837-24.088l.003-.004Z"></path></svg>