<svg width="540" height="540" fill="none" viewBox="140.504 80.288 260.935 380.719" xmlns="http://www.w3.org/2000/svg"><path d="M0 0h540v540H0z" style="fill: rgba(251, 247, 239, 0);"></path><path fill="#F0F0F3" d="m210.316 368.972 6.929 48.298s3.604 40.486 55.081 40.781c51.473-.295 55.08-40.781 55.08-40.781l6.929-48.298"></path><path fill="#fff" d="M178.559 264.06s5.867 12.036 16.979 33.466c0 0 4.876 9.183 8.844 31.634 3.969 22.451 5.928 39.816 5.928 39.816s-.439 14.484 61.514 13.794c61.952.69 62.498-13.794 62.498-13.794s1.959-17.365 5.928-39.816c3.968-22.451 8.844-31.634 8.844-31.634 11.112-21.43 16.979-33.466 16.979-33.466"></path><path fill="#FD3" d="M366.622 262.843c2.893-9.304 4.748-20.114 4.748-30.369 0-54.698-44.34-99.038-99.038-99.038-54.699 0-99.039 44.34-99.039 99.038 0 10.586 1.661 20.787 4.739 30.352 0 0-.218 8.968 38.57 14.467 38.787 5.499 68.419 3.544 68.419 3.544s50.941-.972 73.54-11.24c0 0 6.567-3.325 7.87-6.212l.191-.539v-.003Z"></path><path fill="#F8FFEA" d="m248.682 182.381 48.771-14.079c1.239-.345 2.334.881 1.855 2.073l-20.509 47.174c-.566 1.406-2.609 1.249-2.95-.231l-5.08-22.057a1.556 1.556 0 0 0-.918-1.085l-21.353-8.871c-1.36-.566-1.239-2.532.181-2.927l.003.003Z"></path><path fill="#CEFF7A" d="M297.913 346.143c4.959-5.46 5.023-13.48.142-17.913-4.881-4.434-12.858-3.601-17.817 1.859-4.96 5.459-5.024 13.48-.143 17.913s12.858 3.601 17.818-1.859Z"></path><path fill="#FF8080" d="M291.804 364.633c1.837-2.022 1.861-4.992.053-6.634-1.807-1.641-4.761-1.333-6.598.689-1.836 2.022-1.86 4.992-.053 6.634 1.807 1.641 4.761 1.333 6.598-.689Z"></path><path fill="#F8FFEA" d="M270.515 82.948a4.76 4.76 0 0 0-4.745 4.746v27.756a4.76 4.76 0 0 0 4.745 4.745 4.76 4.76 0 0 0 4.745-4.745V87.694a4.76 4.76 0 0 0-4.745-4.746ZM200.728 104.227a4.76 4.76 0 0 0-6.48-1.738 4.758 4.758 0 0 0-1.738 6.48l13.878 24.036a4.758 4.758 0 0 0 6.48 1.738 4.758 4.758 0 0 0 1.738-6.48l-13.878-24.036ZM173.914 167.284l-24.036-13.878a4.755 4.755 0 0 0-6.48 1.738c-1.306 2.26-.522 5.177 1.738 6.48l24.036 13.878a4.755 4.755 0 0 0 6.48-1.738c1.306-2.26.522-5.177-1.738-6.48ZM347.002 102.929c-2.26-1.306-5.177-.522-6.48 1.738l-13.878 24.036c-1.306 2.26-.522 5.177 1.738 6.48a4.755 4.755 0 0 0 6.48-1.738l13.878-24.036c1.307-2.26.523-5.177-1.738-6.48ZM397.85 155.58a4.76 4.76 0 0 0-6.481-1.738l-24.035 13.878a4.758 4.758 0 0 0-1.738 6.48 4.758 4.758 0 0 0 6.48 1.738l24.035-13.878a4.76 4.76 0 0 0 1.739-6.48Z"></path><path fill="#FFD233" d="M272.283 242.271c-47.74 0-87.378 7.619-95.154 17.629.295 1.029.606 2.05.934 3.065 0 0-.217 8.898 38.57 14.353 38.784 5.456 68.419 3.517 68.419 3.517s50.941-.965 73.54-11.152c0 0 6.567-3.299 7.87-6.162l.191-.536c.305-.971.593-1.959.874-2.961-7.548-10.07-47.314-17.753-95.244-17.753Z"></path><path fill="#1C1C1E" d="M285.052 280.839s35.874-.68 60.767-6.919c-17.706-4.575-44.076-7.479-73.536-7.479-29.461 0-55.972 2.917-73.678 7.515 4.8 1.189 10.72 2.338 18.025 3.366 38.784 5.456 68.419 3.517 68.419 3.517h.003Z"></path><path stroke="#FD3" stroke-linecap="round" stroke-linejoin="round" stroke-width="1.5" d="M275.589 232.346c-13.205 17.582-7.77 46.028-7.77 46.028"></path><path fill="#1C1C1E" d="M299.924 330.471s-.583 14.789-14.799 20.114c0 0 8.094 2.274 14.799-6.702 0 0 3.888-7.984 0-13.412ZM292.357 358.549s-.221 5.643-5.646 7.672c0 0 3.088.868 5.646-2.555 0 0 1.484-3.044 0-5.117Z"></path><path stroke="#1C1C1E" stroke-miterlimit="10" stroke-width="1.5" d="M178.032 262.824c-3.078-9.565-4.739-19.766-4.739-30.352 0-54.698 44.34-99.038 99.039-99.038 54.698 0 99.038 44.34 99.038 99.038 0 10.255-1.855 21.065-4.748 30.369"></path><path stroke="#1C1C1E" stroke-linecap="round" stroke-linejoin="round" stroke-width="1.5" d="M366.632 262.845c-2.88 10.13-43.995 18.165-94.293 18.165-50.298 0-91.463-8.045-94.3-18.182M181.148 256.657c10.861-8.211 47.572-14.253 91.189-14.253 43.617 0 78.249 5.704 90.208 13.564"></path><path stroke="#1C1C1E" stroke-linecap="round" stroke-linejoin="round" stroke-width="1.5" d="M178.578 264.061s5.868 12.036 16.979 33.466c0 0 4.876 9.183 8.845 31.634 3.968 22.451 5.928 39.816 5.928 39.816s-.439 14.484 61.513 13.794c61.953.69 62.498-13.794 62.498-13.794s1.96-17.365 5.928-39.816c3.969-22.451 8.845-31.634 8.845-31.634 11.112-21.43 16.979-33.466 16.979-33.466"></path><path stroke="#1C1C1E" stroke-linecap="round" stroke-linejoin="round" stroke-width="1.5" d="m210.332 368.972 6.929 48.298s3.604 40.486 55.08 40.781c51.474-.295 55.081-40.781 55.081-40.781l6.929-48.298M297.928 346.143c4.96-5.46 5.024-13.48.143-17.913-4.881-4.434-12.858-3.601-17.818 1.859-4.959 5.459-5.023 13.48-.142 17.913 4.881 4.433 12.858 3.601 17.817-1.859ZM291.808 364.633c1.837-2.022 1.861-4.992.053-6.634-1.807-1.641-4.761-1.333-6.598.689-1.836 2.022-1.86 4.992-.053 6.634 1.807 1.641 4.761 1.333 6.598-.689ZM248.698 182.381l48.771-14.079c1.239-.345 2.334.881 1.855 2.073l-20.509 47.174c-.566 1.406-2.609 1.249-2.95-.231l-5.081-22.057a1.555 1.555 0 0 0-.917-1.085l-21.353-8.871c-1.36-.566-1.24-2.532.18-2.927l.004.003Z"></path><path stroke="#1C1C1E" stroke-linecap="round" stroke-linejoin="round" stroke-width="1.5" d="M267.269 196.641c-8.914 6.245-14.742 16.594-14.742 28.305 0 19.072 15.462 34.534 34.535 34.534 0 0 22.009.556 26.085-18.61 4.076-19.166-24.9-26.108-38.105-8.526-13.205 17.582-7.769 46.028-7.769 46.028M219.152 425.227s14.31 5.807 49.538-6.631c13.255-4.682 25.797-11.223 37.07-19.625 8.787-6.551 17.511-14.716 19.464-22.365M213.32 389.831s17.432 2.337 29.732-8.088M255.703 456.328s52.626-3.841 72.05-41.349M275.273 87.694a4.745 4.745 0 1 0-9.488 0v27.753a4.745 4.745 0 1 0 9.488 0V87.694ZM200.742 104.231a4.745 4.745 0 1 0-8.217 4.744l13.876 24.035a4.745 4.745 0 1 0 8.217-4.744l-13.876-24.035ZM149.893 153.409a4.745 4.745 0 1 0-4.744 8.217l24.034 13.876a4.744 4.744 0 1 0 4.744-8.216l-24.034-13.877ZM326.668 128.701a4.744 4.744 0 1 0 8.216 4.744l13.877-24.035a4.745 4.745 0 1 0-8.217-4.743l-13.876 24.034ZM367.358 167.725a4.745 4.745 0 1 0 4.744 8.217l24.035-13.877a4.743 4.743 0 1 0-4.744-8.216l-24.035 13.876Z"></path></svg>