<svg width="540" height="540" viewBox="58.273 67.986 425.396 402.733" fill="none" xmlns="http://www.w3.org/2000/svg"><path d="M271.014 467C373.933 467 457.365 383.517 457.365 280.534C457.365 177.551 373.933 94.0676 271.014 94.0676C168.095 94.0676 84.6621 177.551 84.6621 280.534C84.6621 383.517 168.095 467 271.014 467Z" fill="#F2F0FF"></path><path d="M274.907 409.58L290.686 406.671C299.475 405.219 348.018 391.554 353.911 316.456L358.237 214.965C358.288 213.798 357.872 212.658 357.077 211.799C348.256 202.258 297.789 148.408 215.726 169.442L197.055 175.675" fill="#ABA3FF"></path><path d="M336.954 217.352C328.133 207.81 272.894 152.516 197.06 175.675C195.813 176.055 194.982 177.238 195.057 178.54L201.207 284.954C201.207 284.954 206.123 383.251 272.13 409.299C273.013 409.648 273.974 409.735 274.912 409.58C283.702 408.128 327.896 397.106 333.788 322.008L338.114 220.518C338.165 219.35 337.75 218.21 336.954 217.352Z" fill="#D6CCFF"></path><path d="M281.087 341.848L262.649 334.819L272.443 289.185L270.761 279.208L274.656 278.899L277.01 269.184C277.01 269.184 261.588 263.216 259.672 242.348C259.672 242.348 258.861 232.549 264.145 226.62C264.145 226.62 249.965 221.891 243.819 235.09C237.673 248.288 245.057 260.248 245.057 260.248C245.057 260.248 250.998 271.677 258.461 275.14L244.274 339.802L283.493 354.654L281.083 341.852L281.087 341.848Z" fill="#ABA3FF"></path><path d="M242.994 116.047C255.158 116.047 265.018 106.187 265.018 94.0236C265.018 81.8603 255.158 72 242.994 72C230.831 72 220.971 81.8603 220.971 94.0236C220.971 106.187 230.831 116.047 242.994 116.047Z" fill="#FFDD33"></path><path d="M83.0236 440.397C95.1869 440.397 105.047 430.537 105.047 418.374C105.047 406.21 95.1869 396.35 83.0236 396.35C70.8603 396.35 61 406.21 61 418.374C61 430.537 70.8603 440.397 83.0236 440.397Z" fill="white"></path><path d="M448.543 378.799C465.469 378.799 479.191 365.078 479.191 348.152C479.191 331.226 465.469 317.505 448.543 317.505C431.618 317.505 417.896 331.226 417.896 348.152C417.896 365.078 431.618 378.799 448.543 378.799Z" fill="#ABA3FF"></path><path d="M186.872 343.122C186.386 338.377 183.92 334.056 180.05 331.266C166.578 321.566 134.115 294.259 113.706 244.244C112.048 240.179 106.119 240.658 105.197 244.952C102.732 256.445 101.438 268.369 101.438 280.598C101.438 357.872 153.237 423.045 224.01 443.291C228.502 444.577 231.715 438.942 228.308 435.744C213.131 421.513 192.001 393.185 186.876 343.118L186.872 343.122Z" fill="white"></path><path d="M438.942 263.065C432.313 198.664 389.564 144.973 331.29 122.593C329.362 121.853 327.874 124.354 329.442 125.692C343.008 137.251 370.066 163.965 389.988 207.082C393.985 215.737 399.818 223.407 407.068 229.596C415.628 236.902 427.473 248.644 436.441 263.872C437.173 265.115 439.089 264.501 438.938 263.069L438.942 263.065Z" fill="white"></path><path d="M274.655 278.895L277.01 269.179C277.01 269.179 263.97 262.886 260.313 246.756C260.313 246.756 257.653 233.977 264.144 226.616C264.144 226.616 283.112 231.899 287.497 253.531C291.882 275.163 274.655 278.891 274.655 278.891V278.895Z" fill="#1C1C1E"></path><path d="M281.085 341.847L262.646 334.819L272.441 289.181L281.085 341.847Z" fill="#1C1C1E"></path><path d="M432.263 374.117C400.001 429.656 339.867 467 271.014 467C168.095 467 84.6621 383.567 84.6621 280.648C84.6621 194.679 142.877 122.308 222.032 100.802" stroke="#1C1C1E" stroke-width="1.5" stroke-linecap="round" stroke-linejoin="round"></path><path d="M265.018 94.3955C267.008 94.3322 269.007 94.3005 271.013 94.3005C373.932 94.3005 457.365 177.733 457.365 280.652C457.365 293.419 456.083 305.885 453.637 317.928" stroke="#1C1C1E" stroke-width="1.5" stroke-linecap="round" stroke-linejoin="round"></path><path d="M242.994 116.047C255.158 116.047 265.018 106.187 265.018 94.0236C265.018 81.8603 255.158 72 242.994 72C230.831 72 220.971 81.8603 220.971 94.0236C220.971 106.187 230.831 116.047 242.994 116.047Z" stroke="#1C1C1E" stroke-width="1.5" stroke-linecap="round" stroke-linejoin="round"></path><path d="M83.0236 440.397C95.1869 440.397 105.047 430.537 105.047 418.374C105.047 406.21 95.1869 396.35 83.0236 396.35C70.8603 396.35 61 406.21 61 418.374C61 430.537 70.8603 440.397 83.0236 440.397Z" stroke="#1C1C1E" stroke-width="1.5" stroke-linecap="round" stroke-linejoin="round"></path><path d="M448.543 378.799C465.469 378.799 479.191 365.078 479.191 348.152C479.191 331.226 465.469 317.505 448.543 317.505C431.618 317.505 417.896 331.226 417.896 348.152C417.896 365.078 431.618 378.799 448.543 378.799Z" stroke="#1C1C1E" stroke-width="1.5" stroke-linecap="round" stroke-linejoin="round"></path><path d="M419.455 338.476L353.887 317.928" stroke="#1C1C1E" stroke-width="1.5" stroke-linecap="round" stroke-linejoin="round"></path><path d="M244.445 108.647L250.552 164.459" stroke="#1C1C1E" stroke-width="1.5" stroke-linecap="round" stroke-linejoin="round"></path><path d="M101.965 407.131L216.369 349.747" stroke="#1C1C1E" stroke-width="1.5" stroke-linecap="round" stroke-linejoin="round"></path><path d="M336.954 217.352C328.133 207.81 272.894 152.516 197.06 175.675C195.813 176.055 194.982 177.238 195.057 178.54L201.207 284.954C201.207 284.954 206.123 383.251 272.13 409.299C273.013 409.648 273.974 409.735 274.912 409.58C283.702 408.128 327.896 397.106 333.788 322.008L338.114 220.518C338.165 219.35 337.75 218.21 336.954 217.352Z" stroke="#1C1C1E" stroke-width="1.5" stroke-linecap="round" stroke-linejoin="round"></path><path d="M274.907 409.58L290.686 406.671C299.475 405.219 348.018 391.554 353.911 316.456L358.237 214.965C358.288 213.798 357.872 212.658 357.077 211.799C348.256 202.258 297.789 148.408 215.726 169.442L197.055 175.675" stroke="#1C1C1E" stroke-width="1.5" stroke-linecap="round" stroke-linejoin="round"></path><path d="M358.028 213.422L337.936 219.09" stroke="#1C1C1E" stroke-width="1.5" stroke-linecap="round" stroke-linejoin="round"></path><path d="M113.706 244.244C112.048 240.179 106.119 240.658 105.197 244.952C102.732 256.445 101.438 268.369 101.438 280.598C101.438 357.872 153.237 423.045 224.01 443.291C228.502 444.577 231.715 438.942 228.308 435.744C213.131 421.513 192.001 393.185 186.876 343.118C186.39 338.373 183.924 334.052 180.054 331.262C166.582 321.562 134.119 294.255 113.71 244.24L113.706 244.244Z" stroke="#1C1C1E" stroke-width="1.5" stroke-linecap="round" stroke-linejoin="round"></path><path d="M438.942 263.065C432.313 198.664 389.564 144.973 331.29 122.593C329.362 121.853 327.874 124.354 329.442 125.692C343.008 137.251 370.066 163.965 389.988 207.082C393.985 215.737 399.818 223.407 407.068 229.596C415.628 236.902 427.473 248.644 436.441 263.872C437.173 265.115 439.089 264.502 438.938 263.069L438.942 263.065Z" stroke="#1C1C1E" stroke-width="1.5" stroke-linecap="round" stroke-linejoin="round"></path><path d="M279.997 276.802C289.836 270.668 291.031 254.822 282.669 241.414C274.306 228.005 259.553 222.109 249.714 228.243C239.876 234.377 238.681 250.223 247.043 263.631C250.13 268.578 254.087 272.5 258.346 275.175L244.289 339.615L283.274 354.654L270.82 279.224C274.101 279.295 277.243 278.519 279.997 276.802Z" stroke="#1C1C1E" stroke-width="1.5" stroke-linecap="round" stroke-linejoin="round"></path><path d="M272.441 289.07L262.488 334.704L281.168 341.911" stroke="#1C1C1E" stroke-width="1.5" stroke-linecap="round" stroke-linejoin="round"></path><path d="M264.15 226.62C257.932 234.06 258.107 247.278 265.246 258.724C268.333 263.67 272.821 266.405 277.079 269.08L274.665 278.899" stroke="#1C1C1E" stroke-width="1.5" stroke-linecap="round" stroke-linejoin="round"></path><path d="M355.032 290.234L334.806 298.093L279.404 277.15" stroke="#1C1C1E" stroke-width="1.5" stroke-linecap="round" stroke-linejoin="round"></path><path d="M248.178 265.349L198.998 246.76" stroke="#1C1C1E" stroke-width="1.5" stroke-linecap="round" stroke-linejoin="round"></path><path d="M277.073 269.076L258.346 275.175" stroke="#1C1C1E" stroke-width="1.5" stroke-linecap="round" stroke-linejoin="round"></path><path d="M320.867 182.905L299.936 188.406" stroke="#1C1C1E" stroke-width="1.5" stroke-linecap="round" stroke-linejoin="round"></path><path d="M266.154 165.251L240.564 170.234" stroke="#1C1C1E" stroke-width="1.5" stroke-linecap="round" stroke-linejoin="round"></path><path d="M338.623 284.574L350.701 288.741" stroke="#1C1C1E" stroke-width="1.5" stroke-linecap="round" stroke-linejoin="round"></path><path d="M291.312 268.249L330.52 281.776" stroke="#1C1C1E" stroke-width="1.5" stroke-linecap="round" stroke-linejoin="round"></path><path d="M216.191 242.328L238.504 250.025" stroke="#1C1C1E" stroke-width="1.5" stroke-linecap="round" stroke-linejoin="round"></path><path d="M202.244 245.58L210.832 242.466" stroke="#1C1C1E" stroke-width="1.5" stroke-linecap="round" stroke-linejoin="round"></path><path d="M233.551 348.666C243.005 368.885 257.434 388.503 279.403 399.706" stroke="#1C1C1E" stroke-width="1.5" stroke-linecap="round" stroke-linejoin="round"></path><path d="M214.488 256.124L215.79 278.658C215.79 278.658 217.27 308.225 229.491 339.224" stroke="#1C1C1E" stroke-width="1.5" stroke-linecap="round" stroke-linejoin="round"></path><path d="M210.088 179.973L214.073 248.937" stroke="#1C1C1E" stroke-width="1.5" stroke-linecap="round" stroke-linejoin="round"></path><path d="M325.719 367.717L333.677 370.784" stroke="#1C1C1E" stroke-width="1.5" stroke-linecap="round" stroke-linejoin="round"></path><path d="M286.012 352.418L318.764 365.038" stroke="#1C1C1E" stroke-width="1.5" stroke-linecap="round" stroke-linejoin="round"></path><path d="M230.094 330.873L242.615 335.697" stroke="#1C1C1E" stroke-width="1.5" stroke-linecap="round" stroke-linejoin="round"></path><path d="M213.863 334.185L222.76 330.703" stroke="#1C1C1E" stroke-width="1.5" stroke-linecap="round" stroke-linejoin="round"></path><path d="M337.307 372.182L316.574 379.82L211.221 335.27" stroke="#1C1C1E" stroke-width="1.5" stroke-linecap="round" stroke-linejoin="round"></path></svg>