<svg width="540" height="540" fill="none" viewBox="143.741 157.986 252.518 224.676" xmlns="http://www.w3.org/2000/svg"><path d="M0 0h540v540H0z" style="fill: rgba(251, 247, 239, 0);"></path><path fill="#fff" stroke="#1C1C1E" stroke-linecap="round" stroke-linejoin="round" stroke-miterlimit="10" stroke-width="1.5" d="m392.209 317.961-235.776-2.067-8.47 2.565.092 45.107c.017 8.365 54.707 15.034 122.153 14.897 67.447-.137 122.11-7.029 122.093-15.393l-.092-45.109Z"></path><path fill="#F0F0F3" d="M147.963 318.505v45.109s.126 3.806 13.649 7.016c.565.134 1.183.268 1.822.402v-50.191l-15.471-2.336ZM321.71 376.944s11.323-.824 15.282-1.216c10.712-1.062 31.871-3.341 41.569-5.643 13.522-3.21 13.649-7.016 13.649-7.016V317.96l-59.852 9.035-10.648.877v49.072Z"></path><path fill="#fff" d="m366.916 372.368-16.961 2.256v-50.285h16.961v48.029ZM378.385 369.98l-6.204 1.129v-50.286l6.204 1.129v48.028Z"></path><path stroke="#1C1C1E" stroke-linecap="round" stroke-linejoin="round" stroke-miterlimit="10" stroke-width="1.5" d="m392.209 317.961-235.776-2.067-8.47 2.565.092 45.107c.017 8.365 54.707 15.034 122.153 14.897 67.447-.137 122.11-7.029 122.093-15.393l-.092-45.109Z"></path><path fill="#D9D9D9" d="M270.106 333.361c67.447-.135 122.11-7.025 122.093-15.389-.017-8.364-54.706-15.036-122.153-14.901-67.447.135-122.11 7.025-122.093 15.39.017 8.364 54.707 15.035 122.153 14.9Z"></path><mask id="a" width="246" height="31" x="147" y="303" maskUnits="userSpaceOnUse" style="mask-type:luminance"><path fill="#fff" d="M270.141 333.371c67.447-.27 122.096-7.269 122.062-15.634-.033-8.364-54.737-14.926-122.183-14.656-67.446.27-122.095 7.269-122.062 15.633.033 8.365 54.737 14.927 122.183 14.657Z"></path></mask><g mask="url(#a)"><path fill="#8E8E8E" d="M270.104 324.091c63.327-.127 114.652-6.596 114.636-14.449-.016-7.854-51.366-14.118-114.693-13.991-63.328.126-114.652 6.596-114.637 14.449.016 7.854 51.366 14.118 114.694 13.991Z"></path></g><path stroke="#1C1C1E" stroke-linecap="round" stroke-linejoin="round" stroke-miterlimit="10" stroke-width="1.5" d="M270.106 333.361c67.447-.135 122.11-7.025 122.093-15.389-.017-8.364-54.706-15.036-122.153-14.901-67.447.135-122.11 7.025-122.093 15.39.017 8.364 54.707 15.035 122.153 14.9Z"></path><path fill="#FD3" stroke="#1C1C1E" stroke-linecap="round" stroke-linejoin="round" stroke-miterlimit="10" stroke-width="1.5" d="M274.668 345.547c-20.223.041-39.26-.541-55.92-1.601-6.258-.398-11.55 4.509-11.537 10.701v.052c.011 5.633 4.441 10.283 10.133 10.658 17.001 1.119 36.557 1.737 57.367 1.694 27.988-.057 53.706-1.297 73.982-3.324 5.541-.554 9.746-5.17 9.735-10.67-.013-6.31-5.518-11.237-11.878-10.629-19.938 1.905-44.852 3.064-71.882 3.119Z"></path><path fill="#CEFF7A" stroke="#1C1C1E" stroke-linecap="round" stroke-linejoin="round" stroke-miterlimit="10" stroke-width="1.5" d="M185.572 362.519c4.998-.01 9.039-4.729 9.028-10.541-.012-5.811-4.073-10.514-9.07-10.504-4.997.01-9.039 4.729-9.028 10.541.012 5.811 4.073 10.514 9.07 10.504Z"></path><path fill="#fff" stroke="#1C1C1E" stroke-linecap="round" stroke-linejoin="round" stroke-miterlimit="10" stroke-width="1.5" d="m392.208 247.341-235.776-2.068-8.47 2.565.092 45.109c.017 8.365 54.707 15.034 122.154 14.897 67.446-.137 122.109-7.029 122.092-15.394l-.092-45.109Z"></path><path fill="#F0F0F3" d="M147.962 247.612v45.109s.126 3.806 13.649 7.016c.565.134 1.183.269 1.822.402v-50.191l-15.471-2.336ZM321.709 306.051s11.323-.823 15.282-1.216c10.712-1.062 31.871-3.34 41.569-5.643 13.522-3.21 13.649-7.016 13.649-7.016v-45.109l-59.852 9.036-10.648.877v49.071Z"></path><path fill="#fff" d="m366.916 301.478-16.961 2.257v-50.286h16.961v48.029ZM378.387 299.088l-6.204 1.128v-50.285l6.204 1.127v48.03Z"></path><path stroke="#1C1C1E" stroke-linecap="round" stroke-linejoin="round" stroke-miterlimit="10" stroke-width="1.5" d="m392.208 247.341-235.776-2.068-8.47 2.565.092 45.109c.017 8.365 54.707 15.034 122.154 14.897 67.446-.137 122.109-7.029 122.092-15.394l-.092-45.109Z"></path><path fill="#FD3" stroke="#1C1C1E" stroke-linecap="round" stroke-linejoin="round" stroke-miterlimit="10" stroke-width="1.5" d="M274.669 274.928c-20.223.041-39.26-.541-55.92-1.601-6.258-.398-11.55 4.509-11.537 10.701v.052c.011 5.633 4.441 10.283 10.133 10.658 17.001 1.119 36.557 1.736 57.367 1.694 27.988-.057 53.706-1.297 73.982-3.324 5.54-.554 9.746-5.171 9.735-10.67-.013-6.31-5.518-11.237-11.878-10.629-19.938 1.905-44.852 3.064-71.882 3.119Z"></path><path fill="#D9D9D9" d="M270.112 262.742c67.447-.135 122.11-7.025 122.093-15.389-.017-8.365-54.707-15.036-122.153-14.901-67.447.135-122.11 7.025-122.093 15.389.017 8.365 54.707 15.036 122.153 14.901Z"></path><mask id="b" width="246" height="31" x="147" y="232" maskUnits="userSpaceOnUse" style="mask-type:luminance"><path fill="#fff" d="M270.157 262.75c67.446-.27 122.095-7.269 122.062-15.634-.034-8.364-54.737-14.926-122.183-14.656-67.447.27-122.096 7.269-122.062 15.633.033 8.365 54.736 14.927 122.183 14.657Z"></path></mask><g mask="url(#b)"><path fill="#8E8E8E" d="M270.111 253.472c63.328-.127 114.652-6.596 114.637-14.45-.016-7.853-51.366-14.117-114.694-13.991-63.327.127-114.652 6.596-114.636 14.45.016 7.854 51.366 14.118 114.693 13.991Z"></path></g><path stroke="#1C1C1E" stroke-linecap="round" stroke-linejoin="round" stroke-miterlimit="10" stroke-width="1.5" d="M270.112 262.742c67.447-.135 122.11-7.025 122.093-15.389-.017-8.365-54.707-15.036-122.153-14.901-67.447.135-122.11 7.025-122.093 15.389.017 8.365 54.707 15.036 122.153 14.901Z"></path><path fill="#CEFF7A" stroke="#1C1C1E" stroke-linecap="round" stroke-linejoin="round" stroke-miterlimit="10" stroke-width="1.5" d="M185.573 291.9c4.998-.01 9.039-4.729 9.028-10.541-.012-5.811-4.073-10.514-9.07-10.504-4.997.01-9.039 4.729-9.028 10.54.012 5.812 4.073 10.515 9.07 10.505Z"></path><path fill="#fff" stroke="#1C1C1E" stroke-linecap="round" stroke-linejoin="round" stroke-miterlimit="10" stroke-width="1.5" d="m392.208 176.647-235.776-2.068-8.47 2.565.092 45.109c.017 8.364 54.707 15.034 122.154 14.896 67.446-.137 122.109-7.028 122.092-15.393l-.092-45.109Z"></path><path fill="#F0F0F3" d="M147.962 176.917v45.109s.126 3.806 13.649 7.016c.565.134 1.183.268 1.822.402v-50.191l-15.471-2.336ZM321.706 235.357s11.323-.824 15.282-1.216c10.712-1.062 31.871-3.341 41.569-5.643 13.523-3.21 13.649-7.016 13.649-7.016v-45.109l-59.852 9.035-10.648.877v49.072Z"></path><path fill="#fff" d="m366.911 230.781-16.961 2.257v-50.286h16.961v48.029ZM378.38 228.393l-6.204 1.128v-50.285l6.204 1.128v48.029Z"></path><path stroke="#1C1C1E" stroke-linecap="round" stroke-linejoin="round" stroke-miterlimit="10" stroke-width="1.5" d="m392.208 176.647-235.776-2.068-8.47 2.565.092 45.109c.017 8.364 54.707 15.034 122.154 14.896 67.446-.137 122.109-7.028 122.092-15.393l-.092-45.109Z"></path><path fill="#FD3" stroke="#1C1C1E" stroke-linecap="round" stroke-linejoin="round" stroke-miterlimit="10" stroke-width="1.5" d="M274.662 204.233c-20.223.041-39.26-.54-55.92-1.6-6.258-.398-11.55 4.508-11.537 10.7v.053c.011 5.632 4.442 10.283 10.133 10.658 17.001 1.119 36.557 1.736 57.368 1.694 27.987-.057 53.705-1.297 73.981-3.325 5.541-.554 9.746-5.17 9.735-10.67-.012-6.31-5.517-11.237-11.878-10.629-19.938 1.906-44.852 3.064-71.882 3.119Z"></path><path fill="#D9D9D9" stroke="#1C1C1E" stroke-linecap="round" stroke-linejoin="round" stroke-miterlimit="10" stroke-width="1.5" d="M270.109 192.048c67.446-.135 122.109-7.025 122.093-15.389-.017-8.365-54.707-15.036-122.154-14.901-67.447.135-122.11 7.025-122.093 15.389.017 8.364 54.707 15.036 122.154 14.901Z"></path><path fill="#CEFF7A" stroke="#1C1C1E" stroke-linecap="round" stroke-linejoin="round" stroke-miterlimit="10" stroke-width="1.5" d="M185.571 221.203c4.998-.01 9.039-4.729 9.028-10.54-.012-5.811-4.073-10.514-9.07-10.504-4.997.01-9.039 4.729-9.027 10.54.011 5.811 4.072 10.514 9.069 10.504Z"></path></svg>