<svg width="540" height="540" fill="none" viewBox="119.784 89.353 301.727 361.943" xmlns="http://www.w3.org/2000/svg"><path d="M0 0h540v540H0z" style="fill: rgba(250, 247, 240, 0);"></path><path fill="#fff" d="m182.865 175.098-60.871 272.851 233.156-162.38"></path><path fill="#F0F0F3" d="M259.395 204.774c-39.705-23.351-72.317-36.304-76.538-29.678-4.855 7.64 29.88 38.437 77.604 68.784 47.724 30.347 90.346 48.737 95.201 41.097 2.846-4.467-7.869-16.865-26.796-32.462l-20.805-15.993s-25.597-18.081-40.524-26.884l-8.142-4.864Z"></path><path fill="#1C1C1E" d="M260.137 243.422c34.744 22.1 66.792 37.855 83.516 41.846-4.423-5.965-12.618-13.904-23.553-22.91l-20.805-15.993s-25.597-18.081-40.524-26.884l-8.142-4.864c-27.254-16.028-51.169-27.157-64.854-30.418 9.852 13.262 38.419 36.366 74.362 59.223Z"></path><path fill="#FF8080" d="M241.346 231.227s3.26 61.143 47.477 100.531l65.267-45.556s-6.106 3.957-37.308-10.847c-31.202-14.803-55.205-30.691-55.205-30.691l-15.887-10.186-4.344-3.251ZM244.316 362.757l-50.218 34.974s-24.796-25.933-31.255-83.543c0 0-3.189-21.324-2.044-40.542l21.359-95.853 1.031 2.212 2.582 4.168 1.102 1.462-.582 2.344s-3.313 36.982 5.454 72.432c0 0 5.613 28.734 17.888 53.142 12.275 24.409 23.457 36.93 23.457 36.93l5.762 6.723 5.464 5.551ZM154.87 425.055l-32.876 22.893 18.522-82.23s-4.062 39.934 14.354 59.337Z"></path><path fill="#fff" d="M332.688 247.485c.29-5.208-8.794-9.949-20.302-10.601-11.508-.643-21.069 3.049-21.36 8.257-.29 5.207 8.794 9.948 20.302 10.6 11.508.643 21.069-3.057 21.36-8.256ZM251.892 141.437c1.63-11.402-1.727-21.324-7.508-22.152-5.78-.828-11.79 7.745-13.42 19.156-1.63 11.402 1.727 21.324 7.508 22.153 5.771.819 11.781-7.755 13.42-19.157Z"></path><path fill="#FF8080" d="M404.854 188.121c4.336-10.671 1.648-21.853-6-24.963-7.658-3.111-17.377 3.022-21.721 13.693-4.335 10.671-1.648 21.853 6.001 24.963 7.657 3.111 17.385-3.022 21.72-13.693Z"></path><path fill="#1C1C1E" d="M398.69 163.157a12.255 12.255 0 0 0-1.419-.467c6.618 3.816 8.742 14.284 4.662 24.312-4.08 10.027-12.9 16.046-20.302 14.16.432.247.872.467 1.339.652 7.658 3.11 17.377-3.022 21.721-13.693 4.335-10.671 1.648-21.844-6.001-24.964Z"></path><path fill="#fff" d="M378.093 130.801a5.547 5.547 0 0 0 5.543-5.543 5.547 5.547 0 0 0-5.543-5.542 5.541 5.541 0 0 0-5.542 5.542 5.541 5.541 0 0 0 5.542 5.543Z"></path><path fill="#C95353" d="M294.226 100.674a4.332 4.332 0 0 0 4.335-4.336 4.332 4.332 0 0 0-4.335-4.335 4.332 4.332 0 0 0-4.335 4.335 4.332 4.332 0 0 0 4.335 4.336Z"></path><path fill="#FFB8B8" d="M231.073 210.448a4.035 4.035 0 1 0 0-8.071 4.035 4.035 0 1 0 0 8.071Z"></path><path fill="#C95353" d="M384.237 226.037c10.124-1.824 17.614-1.004 20.963-.422 1.991.352 3.912 1.101 5.551 2.291 1.965 1.427 3.842 3.533 5.331 6.494 9.437 18.716-11.808 43.978-14.222 58.8l-16.548.511c2.414-14.822 23.659-40.084 14.222-58.8-1.754-3.481-3.886-5.737-6.168-7.12-8.741-5.305-19.624 2.238-19.624 2.238l16.548-.511c1.56-1.674 3.076-1.727 3.076-1.727"></path><path fill="#FFB8B8" d="M301.07 157.948c-2.52 26.664 18.02 34.736 18.02 34.736-6.072-3.269-7.244-11.685-7.244-11.685s-2.308-10.855.785-24.117c0 0-5.913-.581-11.077.899l-.484.167ZM302.748 148.751c7.34-27.157 32.823-39.009 32.823-39.009l7.367 9.975c-16.557 8.248-24.734 20.205-28.62 31.369"></path><path fill="#C95353" d="M374.128 229.79s6.115-3.842 12.072-3.895c5.956-.044 6.82 1.948 6.82 1.948l-1.577.696-1.137.978-16.548.511.37-.238Z"></path><path fill="#FFB8B8" d="M329.562 164.346c-17.024-17.596-60.271-4.643-61.901 40.402-.397 10.829.017 19.042.863 25.289 0 0-5.675-4.186-8.433-13.728-1.489-5.155-.555-11.826-.273-19.668 1.63-45.045 42.252-58.236 63.973-39.952 0 0 9.472 8.274 11.895 16.822 0 0-1.762-5.226-5.216-8.107l-.908-1.058Z"></path><path fill="#FFB8B8" d="M311.988 181.626s1.86 10.503 9.129 11.79c7.27 1.277 11.42-4.627 11.42-4.627s7.419-7.19 2.326-17.455c0 0-3.331-5.622-6.256-7.904 0 0 4.388 9.093-.952 16.953 0 0-2.493 4.988-10.838 4.283 0-.009-3.551-.926-4.829-3.04Z"></path><path fill="#D9D9D9" d="M324.545 254.366c4.803-1.463 7.966-3.93 8.134-6.891.29-5.207-8.794-9.948-20.302-10.6a39.666 39.666 0 0 0-1.031-.044l13.199 17.535ZM244.361 119.415c-5.78-.829-11.79 7.745-13.42 19.156a40.275 40.275 0 0 0-.405 6.485l17.834-23.227c-1.145-1.348-2.493-2.194-4.009-2.414Z"></path><path stroke="#1C1C1E" stroke-linecap="round" stroke-linejoin="round" stroke-width="1.5" d="M267.537 209.64a620.02 620.02 0 0 1 10.53 6.555c10.918 6.944 21.165 13.914 30.409 20.62M328.866 252.516c18.936 15.597 29.642 27.986 26.796 32.453-4.864 7.64-47.486-10.759-95.201-41.106-47.715-30.347-82.459-61.135-77.604-68.783 4.212-6.626 36.824 6.327 76.538 29.677"></path><path stroke="#1C1C1E" stroke-linecap="round" stroke-linejoin="round" stroke-width="1.5" d="m182.865 175.098-60.871 272.851 233.156-162.38"></path><path stroke="#1C1C1E" stroke-linecap="round" stroke-linejoin="round" stroke-width="1.5" d="M241.346 231.227s4.591 62.765 47.477 100.531M186.611 185.301s-12.416 106.488 57.698 177.466M160.792 274.035s-4.511 78.168 33.3 123.706M140.733 363.94s-5.181 40.225 14.134 61.118M332.688 247.485c.29-5.208-8.794-9.949-20.302-10.601-11.508-.643-21.069 3.049-21.36 8.257-.29 5.207 8.794 9.948 20.302 10.6 11.508.643 21.069-3.057 21.36-8.256ZM251.886 141.437c1.63-11.402-1.727-21.324-7.507-22.152-5.781-.828-11.79 7.745-13.421 19.156-1.63 11.402 1.728 21.324 7.508 22.153 5.78.819 11.781-7.755 13.42-19.157ZM404.854 188.121c4.336-10.671 1.648-21.853-6-24.963-7.658-3.111-17.377 3.022-21.721 13.693-4.335 10.671-1.648 21.853 6.001 24.963 7.666 3.111 17.385-3.022 21.72-13.693ZM378.093 130.801a5.547 5.547 0 0 0 5.543-5.543 5.547 5.547 0 0 0-5.543-5.542 5.541 5.541 0 0 0-5.542 5.542 5.541 5.541 0 0 0 5.542 5.543ZM294.226 100.674a4.332 4.332 0 0 0 4.335-4.336 4.332 4.332 0 0 0-4.335-4.335 4.332 4.332 0 0 0-4.335 4.335 4.332 4.332 0 0 0 4.335 4.336ZM231.083 210.448a4.034 4.034 0 0 0 4.035-4.035 4.035 4.035 0 1 0-8.071 0c-.009 2.229 1.806 4.035 4.036 4.035ZM393.377 227.791s-1.515.053-3.075 1.727l-16.548.52s10.882-7.552 19.623-2.247Zm0 0c2.274 1.383 4.406 3.63 6.169 7.12 9.437 18.716-11.808 43.978-14.222 58.8l16.548-.511c2.414-14.822 23.659-40.084 14.222-58.8-1.489-2.961-3.357-5.067-5.331-6.494-1.639-1.19-3.551-1.939-5.552-2.291-3.348-.582-10.838-1.402-20.962.422M311.851 181.002c2.106 9.772 6.855 12.31 10.679 12.627 2.9.238 5.746-.81 7.922-2.731 4.3-3.798 11.861-13.367-.89-26.541-17.024-17.597-60.271-4.644-61.901 40.401-.388 10.83.017 19.042.863 25.29 0 0-5.675-4.186-8.433-13.729-1.489-5.155-.555-11.825-.273-19.667 1.63-45.045 42.252-58.236 63.973-39.952 0 0 9.472 8.274 11.895 16.821"></path><path stroke="#1C1C1E" stroke-linecap="round" stroke-linejoin="round" stroke-width="1.5" d="M312.631 156.885c-3.102 13.261-.785 24.117-.785 24.117s1.163 8.415 7.244 11.684c0 0-20.54-8.071-18.02-34.735M302.758 148.751c7.34-27.157 32.823-39.009 32.823-39.009l7.375 9.975c-16.557 8.248-24.734 20.205-28.62 31.369"></path><path stroke="#1C1C1E" stroke-linecap="round" stroke-linejoin="round" stroke-width="1.5" d="M311.852 181.001s2.15 5.772 10.891 3.093c6.873-2.106 9.851-11.887 5.877-20.672"></path><path fill="#1C1C1E" d="M391.832 228.301s-7.182-1.304-13.949-.476c0 0 8.565-4.318 15.499-.035-.008 0-.969-.044-1.55.511ZM330.099 174.79l5.454 9.217s5.375-8.847-6.688-20.346c-.009 0 2.309 5.137 1.234 11.129ZM311.988 181.626s1.578 10.177 9.596 11.966c0 0 2.415.229 3.393-.15l-4.441-8.82s-5.948 1.375-8.548-2.996ZM312.518 157.421s-8.283.846-11.649 6.001l.203-5.472s5.578-1.551 11.561-1.066l-.115.537Z"></path></svg>