<svg width="540" height="540" viewBox="117.842 90.647 304.316 359.353" fill="none" xmlns="http://www.w3.org/2000/svg"><path d="M350.7 95H153.7C148.4 95 143.3 97.4 140 101.6L124.1 121.8C122.4 124 121.7 126.8 122.1 129.6L177.7 445.4H385.3L407.3 409.5L350.7 95Z" fill="#FFDD33"></path><path d="M361.7 95H164.7C159.4 95 154.3 97.4 151 101.6L135.1 121.8C133.4 124 132.7 126.8 133.1 129.6L188.7 445.4H396.3L418.3 409.5L361.7 95Z" fill="white"></path><path d="M162.001 151.8L191.601 151.6L188.901 134.3L159.301 134.5L162.001 151.8Z" fill="white"></path><path d="M164.7 95H153.7C148.4 95 143.3 97.4 140 101.6L124.1 121.8C122.4 124 121.7 126.8 122.1 129.6L177.7 445.4H188.7" stroke="#1C1C1E" stroke-width="1.5" stroke-linecap="round" stroke-linejoin="round"></path><path d="M162.001 151.8L191.601 151.6L188.901 134.3L159.301 134.5L162.001 151.8Z" fill="#9A9994"></path><path d="M165.801 151.7L178.801 134.3L159.301 134.4L162.001 151.7H165.801Z" fill="#DEDDD6"></path><path d="M162.001 151.8L191.601 151.6L188.901 134.3L159.301 134.5L162.001 151.8Z" stroke="#1C1C1E" stroke-width="1.5" stroke-linecap="round" stroke-linejoin="round"></path><path d="M240 210H360" stroke="black" stroke-width="1.5"></path><path d="M250 266H370" stroke="black" stroke-width="1.5"></path><path d="M260 322H380" stroke="black" stroke-width="1.5"></path><path d="M271 378H391" stroke="black" stroke-width="1.5"></path><path d="M285.291 343.543C270.856 347.911 258.285 360.215 249.229 371.561C244.595 377.367 240.92 382.96 238.363 387.062C237.085 389.139 236.126 390.79 235.433 391.962C235.114 392.548 234.847 393.028 234.688 393.347C234.634 393.507 234.528 393.613 234.528 393.667H220.679C215.885 386.849 210.558 381.469 206.35 377.74C204.273 375.876 202.462 374.438 201.183 373.479C200.544 372.999 200.065 372.627 199.692 372.36C199.585 372.254 199.479 372.2 199.372 372.147C201.503 368.898 203.474 366.927 204.912 365.808C205.658 365.222 206.243 364.85 206.67 364.637C206.883 364.53 207.042 364.424 207.149 364.424C215.299 370.602 220.359 377.154 223.342 382.108C224.833 384.611 225.845 386.742 226.431 388.18C226.751 388.926 226.964 389.512 227.071 389.885C227.124 390.098 227.177 390.258 227.23 390.364C227.23 390.417 227.284 390.471 227.284 390.471V390.524L227.497 391.216L227.816 390.577C240.6 362.985 255.302 351.267 266.754 346.473C272.454 344.076 277.407 343.383 280.87 343.277C282.627 343.223 284.012 343.33 284.971 343.437C285.078 343.49 285.184 343.543 285.291 343.543Z" fill="#CEFF7A"></path><path d="M220.52 393.933H234.688C234.688 393.933 256.794 351.48 286.463 343.437C286.463 343.437 253.225 335.18 227.551 390.471C227.551 390.471 223.769 376.622 207.203 364.104C207.203 364.104 203.421 365.436 199 372.254C199 372.307 210.985 380.244 220.52 393.933Z" stroke="#1C1C1E" stroke-width="1.5" stroke-linecap="round" stroke-linejoin="round"></path><path d="M275.291 287.543C260.856 291.911 248.285 304.215 239.229 315.561C234.595 321.367 230.92 326.96 228.363 331.062C227.085 333.139 226.126 334.79 225.433 335.962C225.114 336.548 224.847 337.028 224.688 337.347C224.634 337.507 224.528 337.613 224.528 337.667H210.679C205.885 330.849 200.558 325.469 196.35 321.74C194.273 319.876 192.462 318.438 191.183 317.479C190.544 316.999 190.065 316.627 189.692 316.36C189.585 316.254 189.479 316.2 189.372 316.147C191.503 312.898 193.474 310.927 194.912 309.808C195.658 309.222 196.243 308.85 196.67 308.637C196.883 308.53 197.042 308.424 197.149 308.424C205.299 314.602 210.359 321.154 213.342 326.108C214.833 328.611 215.845 330.742 216.431 332.18C216.751 332.926 216.964 333.512 217.071 333.885C217.124 334.098 217.177 334.258 217.23 334.364C217.23 334.417 217.284 334.471 217.284 334.471V334.524L217.497 335.216L217.816 334.577C230.6 306.985 245.302 295.267 256.754 290.473C262.454 288.076 267.407 287.383 270.87 287.277C272.627 287.223 274.012 287.33 274.971 287.437C275.078 287.49 275.184 287.543 275.291 287.543Z" fill="#CEFF7A"></path><path d="M210.52 337.933H224.688C224.688 337.933 246.794 295.48 276.463 287.437C276.463 287.437 243.225 279.18 217.551 334.471C217.551 334.471 213.769 320.622 197.203 308.104C197.203 308.104 193.421 309.436 189 316.254C189 316.307 200.985 324.244 210.52 337.933Z" stroke="#1C1C1E" stroke-width="1.5" stroke-linecap="round" stroke-linejoin="round"></path><path d="M265.563 231.543C251.128 235.911 238.557 248.215 229.502 259.561C224.868 265.367 221.192 270.96 218.636 275.062C217.357 277.139 216.398 278.79 215.706 279.962C215.386 280.548 215.12 281.028 214.96 281.347C214.907 281.507 214.8 281.613 214.8 281.667H200.951C196.157 274.849 190.83 269.469 186.622 265.74C184.545 263.876 182.734 262.438 181.456 261.479C180.816 260.999 180.337 260.627 179.964 260.36C179.858 260.254 179.751 260.2 179.645 260.147C181.775 256.898 183.746 254.927 185.184 253.808C185.93 253.222 186.516 252.85 186.942 252.637C187.155 252.53 187.315 252.423 187.421 252.423C195.571 258.602 200.631 265.154 203.614 270.108C205.106 272.611 206.118 274.742 206.704 276.18C207.023 276.926 207.237 277.512 207.343 277.885C207.396 278.098 207.45 278.258 207.503 278.364C207.503 278.417 207.556 278.471 207.556 278.471V278.524L207.769 279.216L208.089 278.577C220.873 250.985 235.574 239.267 247.026 234.473C252.726 232.076 257.68 231.383 261.142 231.277C262.9 231.223 264.285 231.33 265.244 231.437C265.35 231.49 265.457 231.49 265.563 231.543Z" fill="#CEFF7A"></path><path d="M200.844 281.933H215.013C215.013 281.933 237.118 239.48 266.788 231.437C266.788 231.437 233.549 223.18 207.875 278.471C207.875 278.471 204.093 264.622 187.527 252.104C187.527 252.104 183.745 253.436 179.324 260.254C179.324 260.254 191.256 268.244 200.844 281.933Z" stroke="#1C1C1E" stroke-width="1.5" stroke-linecap="round" stroke-linejoin="round"></path><path d="M255.438 174.77C241.003 179.138 228.432 191.443 219.377 202.788C214.743 208.594 211.067 214.187 208.511 218.289C207.232 220.366 206.273 222.017 205.581 223.189C205.261 223.775 204.995 224.255 204.835 224.574C204.782 224.734 204.675 224.841 204.675 224.894H190.826C186.032 218.076 180.705 212.696 176.497 208.967C174.42 207.103 172.609 205.665 171.331 204.706C170.691 204.226 170.212 203.854 169.839 203.587C169.733 203.481 169.626 203.427 169.52 203.374C171.65 200.125 173.621 198.154 175.059 197.035C175.805 196.45 176.391 196.077 176.817 195.864C177.03 195.757 177.19 195.651 177.296 195.651C185.446 201.829 190.506 208.381 193.489 213.335C194.981 215.839 195.993 217.969 196.579 219.407C196.898 220.153 197.112 220.739 197.218 221.112C197.271 221.325 197.325 221.485 197.378 221.591C197.378 221.645 197.431 221.698 197.431 221.698V221.751L197.644 222.444L197.964 221.804C210.748 194.212 225.449 182.494 236.901 177.7C242.601 175.303 247.555 174.61 251.017 174.504C252.775 174.451 254.16 174.557 255.119 174.664C255.225 174.77 255.332 174.77 255.438 174.77Z" fill="#CEFF7A"></path><path d="M190.719 225.213H204.888C204.888 225.213 226.993 182.76 256.663 174.717C256.663 174.717 223.424 166.461 197.75 221.751C197.75 221.751 193.968 207.902 177.402 195.384C177.402 195.384 173.62 196.716 169.199 203.534C169.199 203.534 181.131 211.471 190.719 225.213Z" stroke="#1C1C1E" stroke-width="1.5" stroke-linecap="round" stroke-linejoin="round"></path><path d="M361.7 95H164.7C159.4 95 154.3 97.4 151.1 101.6L135.2 121.8C133.5 124 132.8 126.8 133.2 129.6L188.8 445.4H396.4L418.4 409.5L361.7 95Z" stroke="#1C1C1E" stroke-width="1.5" stroke-linecap="round" stroke-linejoin="round"></path></svg>