<svg width="540" height="540" fill="none" viewBox="77.051 85.468 414.389 385.899" xmlns="http://www.w3.org/2000/svg"><path d="M0 0h540v540H0z" style="fill: rgba(251, 247, 239, 0);"></path><path fill="#F7FFC2" d="m375.088 168.505 6.711-.939a10.67 10.67 0 0 1 5.616.347l93.269 31.685c5.279 1.796 8.243 7.413 6.72 12.783l-31.749 112.508a9.423 9.423 0 0 1-2.352 4.076c-.912.939-2.088 1.577-3.347 1.915-2.006.538-5.753 1.459-8.899 1.778"></path><path fill="#fff" d="m472.963 200.7-93.269-31.685c-5.799-1.969-12.072 1.331-13.723 7.231l-30.107 107.493c-2.052 7.321 1.96 14.962 9.145 17.442l90.634 31.239c5.188 1.787 10.814-1.158 12.3-6.428l31.758-112.508a10.497 10.497 0 0 0-6.72-12.784h-.018Z"></path><path stroke="#000" stroke-linecap="round" stroke-linejoin="round" stroke-width="1.5" d="m472.963 200.7-93.269-31.685c-5.799-1.969-12.072 1.331-13.723 7.231l-30.107 107.493c-2.052 7.321 1.96 14.962 9.145 17.442l90.634 31.239c5.188 1.787 10.804-1.158 12.3-6.428l31.758-112.508a10.497 10.497 0 0 0-6.72-12.784h-.018Z"></path><path stroke="#000" stroke-linecap="round" stroke-linejoin="round" stroke-width="1.5" d="m375.088 168.505 6.711-.939a10.67 10.67 0 0 1 5.616.347l93.269 31.685c5.279 1.796 8.243 7.413 6.72 12.783l-31.749 112.508a9.423 9.423 0 0 1-2.352 4.076c-.912.939-2.088 1.577-3.347 1.915-2.006.538-5.753 1.459-8.899 1.778"></path><path fill="#F7FFC2" d="m326.521 117.926 6.374-2.298a10.592 10.592 0 0 1 5.571-.812l97.782 11.909a10.49 10.49 0 0 1 9.2 11.133l-8.033 116.62a9.578 9.578 0 0 1-1.468 4.477c-.702 1.103-1.723 1.969-2.89 2.562-1.851.939-5.334 2.608-8.343 3.565"></path><path fill="#fff" d="m428.915 129.388-97.782-11.908c-6.082-.739-11.544 3.774-11.954 9.893L311.72 238.75c-.51 7.586 4.988 14.251 12.529 15.2l95.11 12.017c5.444.684 10.34-3.337 10.723-8.817l8.033-116.62a10.486 10.486 0 0 0-9.2-11.133v-.009Z"></path><path stroke="#000" stroke-linecap="round" stroke-linejoin="round" stroke-width="1.5" d="m428.915 129.388-97.782-11.908c-6.082-.739-11.544 3.774-11.954 9.893L311.72 238.75c-.51 7.586 4.988 14.251 12.529 15.2l95.11 12.017c5.444.684 10.34-3.337 10.723-8.817l8.033-116.62a10.486 10.486 0 0 0-9.2-11.133v-.009Z"></path><path stroke="#000" stroke-linecap="round" stroke-linejoin="round" stroke-width="1.5" d="m326.521 117.926 6.374-2.298a10.592 10.592 0 0 1 5.571-.812l97.782 11.909a10.49 10.49 0 0 1 9.2 11.133l-8.033 116.62a9.578 9.578 0 0 1-1.468 4.477c-.702 1.103-1.723 1.969-2.89 2.562-1.851.939-5.334 2.608-8.343 3.565"></path><path fill="#F7FFC2" d="m275.475 100.074 5.872-3.374a10.656 10.656 0 0 1 5.343-1.778l98.356-5.37c5.571-.301 10.413 3.802 11.006 9.355l12.482 116.228a9.484 9.484 0 0 1-.665 4.659c-.502 1.213-1.35 2.243-2.398 3.027-1.66 1.24-4.796 3.502-7.596 4.97"></path><path fill="#fff" d="m378.288 93.465-98.357 5.37c-6.118.338-10.704 5.736-10.039 11.826l12.137 110.967c.829 7.55 7.394 13.158 14.99 12.775l95.739-4.806c5.48-.273 9.602-5.097 9.009-10.549L389.284 102.82c-.592-5.553-5.434-9.656-11.005-9.355h.009Z"></path><path stroke="#2C2E33" stroke-linecap="round" stroke-linejoin="round" stroke-width="1.5" d="m378.288 93.465-98.357 5.37c-6.118.338-10.704 5.736-10.039 11.826l12.137 110.967c.829 7.55 7.394 13.158 14.99 12.775l95.739-4.806c5.48-.273 9.602-5.097 9.009-10.549L389.284 102.82c-.592-5.553-5.434-9.656-11.005-9.355h.009Z"></path><path stroke="#2C2E33" stroke-linecap="round" stroke-linejoin="round" stroke-width="1.5" d="m275.475 100.074 5.872-3.374a10.656 10.656 0 0 1 5.343-1.778l98.356-5.37c5.571-.301 10.413 3.802 11.006 9.355l12.482 116.228a9.484 9.484 0 0 1-.665 4.659c-.502 1.213-1.35 2.243-2.398 3.027-1.66 1.24-4.796 3.502-7.596 4.97"></path><path fill="#000" d="m375.091 230.488-63.316 10.741.292-7.577 63.024-3.164ZM372.753 259.86H340.43l3.084-3.476 29.239 3.476Z"></path><path fill="#FD3" d="M290.594 253.496c1.504 2.17 3.437 3.137 6.282 3.137 7.897-.1 15.811-1.103 23.552-2.088l1.541-.192c1.651-.209 3.301-.428 4.96-.62 2.152-.255 4.368-.51 6.775-.437-3.674 1.039-7.541 1.468-11.37 1.878-1.678.182-3.328.365-4.924.593l-.52.073c-7.65 1.048-15.555 2.142-23.378 1.44-9.592-.875-20.461-2.99-28.412-12.099-9.383-10.732-14.808-20.16-17.598-30.555l-.465-1.714c-2.872-10.577-5.845-21.51-7.304-32.57-.118-.939-.483-1.641-1.148-2.206-3.949-3.356-7.322-7.322-10.577-11.161-1.578-1.86-3.21-3.784-4.897-5.626-1.532-1.677-3.146-3.191-6.154-3.465-2.435-.2-4.879-.355-7.468-.465l-1.268-.045.502 1.149c.283.665.556 1.331.821 1.997a150.879 150.879 0 0 0-1.97-4.204l-.41.201-.411.191c.101.201.201.41.292.611a337.868 337.868 0 0 0-12.51-.182c-.62.009-1.486.109-1.951.802-.511.784-.082 1.824.064 2.17a135.494 135.494 0 0 1 1.851 4.559l.538 1.368c.456 1.149.921 2.289 1.377 3.428l.31-.127-.283.191c3.793 9.547 7.714 19.413 9.246 29.853l.182 1.267.118-.082v.483l-.3.219.273.365c1.55 13.285-.283 24.801-5.598 35.205a24.71 24.71 0 0 1-.511.957l-.155-2.343-.228-.356c.037-.064.073-.128.1-.191 3.83-7.997 5.489-16.905 5.097-27.245-.492-13.294-4.768-25.786-8.89-36.254-.711-1.841-1.34-3.756-1.942-5.616l-.045-.137c-.83-2.58-1.778-5.507-3.037-8.215-.1-.219-.2-.52-.1-.702.082-.146.356-.329.875-.402l.192-.027c2.17-.283 4.404-.574 6.592-.638 2.644-.055 5.316-.082 7.933-.11l2.06-.027c3.11-.027 6.328-.055 9.538-.128 1.477 0 2.444.876 3.556 2.015 2.28 2.353 4.468 4.742 6.884 7.395 3.429 3.766 6.985 7.65 10.759 11.288 1.049.994 1.696 2.298 1.924 3.866 2.444 15.793 5.444 30.017 9.811 41.059 4.687 11.853 10.814 20.598 20.489 28.266 2.817 2.216 6.939 3.237 9.875 4.276 1.313.456 2.808.775 4.057-1.121 1.632-2.535 3.565-4.422 5.909-5.726l.246.465a3.8 3.8 0 0 0-1.423 1.614c-.656 1.413-.419 3.118.666 4.695Z"></path><path fill="#FD3" d="m207.136 157.51-1.149 43.056-.119.082-.182-1.267c-1.532-10.441-5.453-20.306-9.246-29.853l.283-.191-.31.127c-.456-1.14-.921-2.279-1.377-3.428l-.538-1.368a133.419 133.419 0 0 0-1.851-4.559c-.146-.346-.574-1.386-.064-2.17.465-.693 1.331-.793 1.952-.802 4.896-.01 8.762.054 12.509.182.037.064.064.128.092.191ZM215.15 187.855c-.584 3.657-2.061 6.948-4.742 9.739 2.517-2.854 4.094-6.046 4.742-9.739Z"></path><path fill="#FD3" d="M215.044 178.628c.474 3.155.574 6.173.146 8.991a1.943 1.943 0 0 0-.037.237c-.647 3.693-2.225 6.884-4.741 9.738-1.131 1.185-2.489 2.279-4.076 3.264l-.356.228v-.036c1.514-1.149 2.836-2.353 3.967-3.611 8.088-8.097 5.717-20.643-.812-36.71 3.11 6.912 5.088 12.802 5.909 17.899Z"></path><path fill="#FD3" d="M210.411 197.593c-1.25 1.422-2.727 2.763-4.45 4.039l.018-.547.356-.228c1.586-.985 2.945-2.079 4.076-3.264ZM351.301 247.651v.055l-.528 6.027c-.447 5.152-.848 9.802-1.341 14.507-.948 9.309-1.486 18.774-2.006 27.919l-.027.447c-.328 5.781-.666 11.762-1.112 17.625l-.137 1.687c-.547 6.848-1.113 13.933-1.45 20.954-.182 3.948-1.523 6.373-4.34 7.868-1.906 1.04-2.271 2.699-2.453 4.176-.492 3.821-1.085 7.705-1.659 11.462l-.146.921a882.62 882.62 0 0 0-.785 5.151c-.2 1.468-1.021 2.526-2.197 3.666-5.735 5.498-11.717 10.932-17.498 16.184l-.082.073c-3.1 2.809-6.2 5.626-9.273 8.453-.884.811-1.769.903-2.999.793-11.863-1.213-24.008-3.054-34.722-4.677l-3.529-.529c-16.987-2.599-34.603-5.015-53.851-7.386-.565-.073-1.14-.137-1.705-.2l.228-.602-.055-.739c.137.018.274.028.41.046 21.154 2.389 43.402 5.489 66.116 9.218 9.473 1.559 18.764 2.945 28.329 2.763 1.432-.018 2.444-.41 3.383-1.322a6115.87 6115.87 0 0 1 24.263-22.841c.794-.757 1.769-1.687 1.988-3.064.41-2.562.793-5.115 1.185-7.714l.237-1.613a905.888 905.888 0 0 0 .794-5.234l.191-1.277-1.231.402c-.255.091-.483.164-.702.227l-.328.11c-.41.118-.766.228-1.103.355-6.985 2.499-13.413 6.091-19.312 9.611-3.456 2.061-6.429 3.501-9.264 4.486 2.598-1.349 5.088-2.936 7.54-4.486l.693-.447c.611-.383 1.222-.766 1.833-1.14a372.958 372.958 0 0 0 5.434-3.51l1.049-.693c5.088-3.346 10.349-6.811 15.938-9.474 4.185-1.987 6.064-5.015 5.745-9.255-.137-1.778.045-3.647.237-5.461l.018-.183c.118-1.139.237-2.261.292-3.364.027-.784.091-1.541.164-2.307.146-1.696.301-3.447.045-5.352l-.136-1.085-4.523 2.124a1141.42 1141.42 0 0 1-8.945 4.158c-3.556 1.586-7.203 3.355-10.413 4.905-6.455 3.128-13.139 6.365-20.087 8.845-.264.1-.519.201-.784.292l-.082.036a20.38 20.38 0 0 1-1.331.483l.675-.337c14.187-7.076 28.858-14.397 43.894-20.47 1.112-.456 2.207-1.067 2.307-2.927.474-8.653 1.039-17.051 1.678-26.342.054-.793.018-1.586-.566-2.033-.583-.456-1.377-.283-2.07-.046-2.334.757-4.759 1.423-7.239 2.097l-1.067.283c-11.215 3.082-22.823 6.264-33.609 11.498-5.498 2.653-11.589 5.161-18.638 7.65-.601.21-1.203.419-1.805.638 24.126-11.598 44.168-19.868 63.015-26.014 1.751-.565 2.544-1.568 2.735-3.437.848-8.398 1.806-16.923 2.745-25.166l.21-1.869c.474-4.377.164-4.778-4.067-5.435l-.228-.036c-14.133-2.225-28.047-2.188-40.986-1.815-.756.019-1.504.037-2.261.064-2.434.064-5.48.128-8.389.411-.866.091-1.632.346-2.261.747l-.246-.465c2.79-1.568 6.173-2.297 10.34-2.297h7.012c1.823-.019 3.656-.019 5.507-.019 10.468 0 22.622.164 34.393 2.116 1.177.2 2.134.474 2.945 1.13Z"></path><path fill="#FD3" d="M345.48 247.815c4.231.657 4.541 1.058 4.067 5.434l-.21 1.87c-.939 8.242-1.897 16.768-2.745 25.165-.191 1.87-.984 2.873-2.735 3.438-18.847 6.146-38.889 14.416-63.015 26.014.602-.219 1.204-.429 1.805-.638 7.049-2.49 13.14-4.997 18.638-7.651 10.786-5.233 22.394-8.415 33.609-11.497l1.067-.283c2.48-.675 4.905-1.34 7.239-2.097.693-.237 1.487-.411 2.07.045.584.447.62 1.24.566 2.034-.639 9.291-1.204 17.689-1.678 26.342-.1 1.86-1.195 2.471-2.307 2.927-15.036 6.072-29.707 13.394-43.894 20.47l-.675.337c.456-.146.893-.31 1.331-.483l.082-.037c.265-.091.52-.191.784-.291 6.948-2.481 13.632-5.717 20.087-8.845 3.21-1.55 6.857-3.319 10.413-4.905a1179.05 1179.05 0 0 0 8.945-4.158l4.523-2.125.136 1.085c.256 1.906.101 3.657-.045 5.353a37.726 37.726 0 0 0-.164 2.306c-.055 1.104-.174 2.225-.292 3.365l-.018.182c-.192 1.815-.374 3.684-.237 5.462.319 4.24-1.56 7.267-5.745 9.255-5.589 2.662-10.85 6.127-15.938 9.474l-1.049.693a372.958 372.958 0 0 1-5.434 3.51c-.611.374-1.222.757-1.833 1.14l-.693.447c-2.453 1.55-4.942 3.136-7.54 4.486 2.835-.985 5.808-2.426 9.264-4.486 5.899-3.52 12.327-7.113 19.312-9.611.337-.128.693-.237 1.103-.355l.328-.11c.219-.064.447-.137.702-.228l1.231-.401-.191 1.276a954.2 954.2 0 0 1-.411 2.736c-.127.839-.255 1.668-.383 2.498l-.237 1.614c-.392 2.599-.775 5.152-1.185 7.714-.219 1.377-1.194 2.307-1.988 3.064a6113.057 6113.057 0 0 0-24.263 22.84c-.939.912-1.951 1.304-3.383 1.322-9.565.183-18.856-1.203-28.33-2.762-22.713-3.73-44.961-6.83-66.115-9.219-.136-.018-.273-.027-.41-.045l-9.784-143.692c.183-.319.347-.638.511-.957 5.316-10.404 7.149-21.92 5.599-35.205l.273.365c11.817-8.79 12.857-20.242 3.328-41.442-.009-.009-.018-.018-.018-.036a88.435 88.435 0 0 0-.821-1.997l-.501-1.149 1.267.046c2.59.109 5.033.264 7.468.465 3.009.273 4.623 1.787 6.155 3.465 1.686 1.841 3.319 3.765 4.896 5.625 3.255 3.839 6.629 7.805 10.577 11.161.666.565 1.03 1.267 1.149 2.206 1.459 11.061 4.431 21.993 7.303 32.57l.465 1.714c2.791 10.395 8.216 19.823 17.598 30.555 7.951 9.109 18.82 11.224 28.412 12.1 7.823.702 15.729-.392 23.379-1.441l.52-.073c1.595-.228 3.246-.41 4.923-.593 3.83-.41 7.696-.839 11.371-1.878-2.408-.073-4.623.182-6.775.438-1.66.191-3.31.41-4.96.62l-1.541.191c-7.742.985-15.656 1.988-23.552 2.088-2.845 0-4.778-.966-6.283-3.136-1.085-1.578-1.322-3.283-.665-4.696a3.798 3.798 0 0 1 1.422-1.614c.629-.401 1.395-.657 2.261-.748 2.909-.282 5.955-.346 8.389-.41.757-.027 1.505-.046 2.261-.064 12.939-.374 26.853-.41 40.986 1.815l.228.036Z"></path><path fill="#FD3" d="M215.191 187.618c.428-2.817.328-5.835-.146-8.99.538 3.31.583 6.282.146 8.99Z"></path><path fill="#FD3" d="M215.188 187.617c.438-2.708.392-5.68-.145-8.99-.858-5.699-2.955-11.863-5.48-18.072 9.528 21.199 8.488 32.651-3.329 41.441l-.273-.364c1.723-1.277 3.2-2.617 4.45-4.04 2.68-2.79 4.157-6.082 4.741-9.738.009-.082.018-.155.036-.237Z"></path><path fill="#FD3" d="M209.134 160.728c6.528 16.066 8.899 28.613.811 36.709 7.65-8.543 6.675-20.123-2.808-39.927v-.183h.419c.547 1.14 1.058 2.252 1.55 3.337.009.019.018.046.028.064Z"></path><path fill="#FD3" d="M207.139 157.511c9.483 19.804 10.459 31.384 2.808 39.928a20.778 20.778 0 0 1-3.027 2.489l-.93.638 1.149-43.055Z"></path><path fill="#FD3" d="M209.564 160.556c2.526 6.21 4.623 12.373 5.48 18.072-.821-5.097-2.799-10.987-5.908-17.898 0-.019-.019-.046-.028-.064-.319-.794-.647-1.596-.994-2.407l-.41-.912h-.146a23.443 23.443 0 0 0-.392-.83l.41-.201a150.879 150.879 0 0 1 1.97 4.204c0 .018 0 .027.018.036ZM209.633 381.488l.055.738-.228.602s-.055-.009-.082-.009c-.647-.082-1.286-.155-1.942-.228l-.401-.046c-1.231-.145-2.48-.273-3.73-.446l.265-.693-.274.693s-.045-.01-.073-.01a56 56 0 0 1-2.498-.355c-2.125-.347-3.875.219-5.443.866-3.301 1.404-7.04 2.881-11.435 4.523-6.537 2.407-12.81 5.626-18.874 8.735l-.128.073a393.369 393.369 0 0 1-8.206 4.139 6302.238 6302.238 0 0 0-13.558 6.611l-5.052 2.462-.583-.93a44.748 44.748 0 0 1 1.522-.711l.484-.228c2.033-.94 3.902-2.061 4.395-5.407 1.003-6.793.182-13.34-2.508-20.005-5.918-14.589-9.528-27.811-11.015-40.403-.145-1.194-.474-1.887-1.057-2.233-.666-.374-1.505-.101-2.362.264l-.401.173a3912.9 3912.9 0 0 1-25.239 10.997l-.665-1.049c6.856-3 14.926-6.465 23.169-9.565 5.607-2.097 5.872-2.498 5.534-8.534-.474-8.599-.173-16.076.93-22.841l.365.055a7.988 7.988 0 0 0-.119.829c-.984 9.757-.793 19.796.593 30.683 2.508 19.904 9.082 39.481 19.54 58.182.62 1.103 1.286 1.596 2.143 1.596.447 0 .948-.137 1.586-.447 2.271-1.14 4.632-2.28 6.857-3.337 2.28-1.104 4.705-2.271 7.103-3.474 6.045-3.055 12.328-5.772 19.795-8.553l1.733-.657-1.66-.811c-1.313-.638-2.416-1.468-3.483-2.271l-.082-.063c-.392-.301-.747-.575-1.103-.83 2.489.173 4.988.292 7.541.41 4.568.219 8.698.438 12.847.876.128 0 .255.018.392.036 1.778.192 3.556.392 5.352.593Z"></path><path fill="#FD3" d="m199.849 237.794 9.783 143.691c-1.796-.2-3.574-.401-5.352-.592a6.442 6.442 0 0 0-.392-.037c-4.149-.437-8.279-.656-12.848-.875-2.553-.119-5.051-.237-7.54-.41a43.6 43.6 0 0 1 1.103.829l.082.064c1.067.803 2.17 1.632 3.483 2.271l1.66.811-1.733.657c-7.467 2.781-13.75 5.498-19.795 8.552-2.398 1.204-4.823 2.371-7.103 3.474a361.724 361.724 0 0 0-6.857 3.338c-.638.31-1.139.446-1.586.446-.857 0-1.523-.492-2.143-1.595-10.458-18.701-17.033-38.278-19.54-58.183-1.386-10.887-1.577-20.926-.593-30.682.028-.283.064-.565.119-.83.328-1.878 1.176-3.355 3.583-4.358 7.86-3.292 14.917-6.31 21.71-9.811 2.025-1.04 4.113-1.988 6.137-2.909 2.361-1.067 5.224-2.361 7.814-3.793.739-.392 1.277-.72 1.568-1.413 6.629-15.118 15.765-28.987 24.601-42.39l1.194-1.805a59.506 59.506 0 0 0 2.645-4.45Z"></path><path fill="#FD3" d="m209.462 382.827-.128.328-31.95 83.294c-.045.137-.1.264-.155.401-.364.702-.848 1.131-1.349 1.213-.073.018-.137.018-.192.018-.054-.009-.136 0-.209-.018a1.302 1.302 0 0 1-.411-.137 1.832 1.832 0 0 1-.401-.237c-.292-.219-.556-.52-.802-.912l-2.398-3.811c.875-.566 1.513-1.888 1.513-1.888l30.199-78.652.128-.328c1.249.173 2.498.301 3.729.446l.402.046c.656.073 1.294.146 1.942.228.027 0 .054.009.082.009ZM208.113 158.258c.346.811.675 1.614.994 2.407a152.12 152.12 0 0 0-1.55-3.328h.146l.41.921ZM207.167 156.517c.136.273.264.547.392.82h-.347s-.045-.009-.064-.009l.019-.811ZM206.92 199.928a20.825 20.825 0 0 0 3.027-2.49c-1.131 1.259-2.453 2.462-3.967 3.611v-.483l.94-.638ZM207.164 156.517l-.018.811s-.064-.009-.1-.009c-.091-.201-.192-.41-.292-.611l.41-.191Z"></path><path fill="#FD3" d="M207.145 157.329v.183c-.036-.064-.064-.128-.1-.192.036 0 .064.009.1.009ZM205.975 201.049v.036l-.064.037.046.51-.273-.365c.1-.072.2-.145.291-.218Z"></path><path fill="#FD3" d="m205.978 201.085-.018.546-.046-.51.064-.036ZM203.57 381.404l-.264.693h-.009l.273-.693ZM203.309 382.098l-.128.328-30.199 78.652s-.638 1.322-1.513 1.888l-.274-.429 32.105-80.439h.009Z"></path><path fill="#F0F5FF" d="m203.295 382.097-32.105 80.44-33.29-52.949-.164-.264.292-.183 5.052-2.462c4.513-2.206 9.036-4.413 13.558-6.61 2.9-1.414 5.772-2.882 8.206-4.14l.128-.073c6.063-3.109 12.337-6.328 18.874-8.735 4.395-1.641 8.134-3.118 11.434-4.523 1.569-.647 3.319-1.212 5.444-.866.83.137 1.659.256 2.498.356.028 0 .046.009.073.009Z"></path><path fill="#FD3" d="M196.157 240.931c.036-.054.064-.1.091-.146a48.1 48.1 0 0 0 3.219-5.689l.228.355.155 2.344a59.489 59.489 0 0 1-2.645 4.449l-1.194 1.806c-8.835 13.403-17.972 27.272-24.601 42.389-.291.693-.829 1.022-1.568 1.414-2.589 1.431-5.452 2.726-7.814 3.793-2.024.921-4.112 1.869-6.137 2.909-6.792 3.501-13.85 6.519-21.71 9.811-2.407 1.003-3.255 2.48-3.583 4.358l-.365-.055.028-.164c.045-.264.063-.529.073-.921 0-.164.018-.355.036-.574l.073-1.24-1.158.447a4020.287 4020.287 0 0 0-12.884 5.024l-.155.054c-10.422 4.076-21.208 8.279-32.004 12.291l-.639-1.021c14.28-5.899 31.075-12.738 47.688-18.901 9.957-3.684 19.522-8.48 28.777-13.112l.173-.091a930.646 930.646 0 0 1 8.616-4.277c.976-.465 1.632-1.185 2.143-2.343 5.544-12.848 13.212-25.996 24.126-41.396.347-.502.703-1.003 1.031-1.514Z"></path><path fill="#FD3" d="m199.258 234.759.209.337a47.882 47.882 0 0 1-3.218 5.69c-.028.045-.055.091-.091.137l-.201-.32-52.201-83.84s-1.167-1.568-2.279-1.687l1.486-3.875c.784-2.052 2.361-2.216 3.538-.356l52.757 83.914Z"></path><path fill="#FD3" d="m195.958 240.604.2.319-54.726-85.728.045-.119c1.113.119 2.28 1.687 2.28 1.687l52.201 83.841Z"></path><path fill="#F0F5FF" d="M196.159 240.922c-.329.52-.684 1.022-1.031 1.523-10.914 15.4-18.582 28.549-24.126 41.396-.511 1.158-1.167 1.878-2.143 2.343a956.497 956.497 0 0 0-8.616 4.277l-.174.091c-9.254 4.632-18.819 9.428-28.776 13.112-16.613 6.163-33.409 13.002-47.688 18.901l.639 1.022-.292.182-.857-1.368-.274-.428-1.203-1.888c-1.158-1.851-1.468-5.015-.693-7.057l2.598-6.775 5.772-15.026 13.787-35.971.164-.42 38.186-99.642 54.727 85.728Z"></path><path fill="#FD3" d="m171.194 462.537.274.429c-.174.118-.347.2-.538.237l.264-.666Z"></path><path fill="#fff" d="M141.342 381.861c2.69 6.665 3.511 13.212 2.508 20.005-.493 3.346-2.362 4.467-4.395 5.407l-.483.228a45.85 45.85 0 0 0-1.523.711l.583.93-.291.182-.794-1.258-19.257-30.628-.037-.063v-.019l-16.521-26.269-.155-.246.291-.182a3912.9 3912.9 0 0 0 25.239-10.997l.401-.173c.857-.365 1.696-.638 2.362-.264.583.346.912 1.039 1.058 2.233 1.486 12.593 5.097 25.814 11.014 40.403Z"></path><path fill="#FD3" d="m141.477 155.076-.045.118-.082-.128s.082 0 .127.01Z"></path><path fill="#000" d="m130.448 305.769-.073 1.24c-.018.218-.027.41-.036.574a6.13 6.13 0 0 1-.073.921l-.028.164c-1.103 6.766-1.404 14.242-.93 22.841.338 6.036.073 6.437-5.534 8.534-8.243 3.1-16.313 6.565-23.169 9.565l.665 1.049-.292.182-.875-1.386-16.002-25.448-.146-.237.292-.183c10.796-4.012 21.582-8.215 32.004-12.291l.155-.055c4.286-1.677 8.58-3.355 12.884-5.024l1.158-.446Z"></path><path fill="#020202" d="M351.303 247.653c-.812-.656-1.769-.93-2.946-1.13-11.771-1.952-23.925-2.116-34.393-2.116-1.851 0-3.684 0-5.507.009h-7.012c-7.677.01-12.674 2.49-16.248 8.033-1.25 1.897-2.745 1.578-4.058 1.122-2.936-1.04-5.453-1.35-8.27-3.565-9.674-7.669-15.282-14.343-20.962-27.099-4.824-10.851-8.498-27.135-10.942-42.928-.228-1.568-.875-2.872-1.924-3.866-3.775-3.638-7.331-7.522-10.759-11.288-2.417-2.653-4.605-5.042-6.884-7.395-1.113-1.14-2.079-2.015-3.556-2.015-3.21.073-6.429.1-9.538.128l-2.061.027c-2.617.027-5.288.055-7.932.109-2.189.064-4.423.356-6.593.639l-.191.027c-.52.073-.793.255-.876.401-.1.183 0 .484.101.702 1.258 2.708 2.206 5.635 3.036 8.216l.046.137c.601 1.86 1.231 3.774 1.942 5.616 4.121 10.468 8.398 22.96 8.89 36.254.392 10.34-1.267 19.248-5.097 27.244a49.925 49.925 0 0 1-3.319 5.882 48.79 48.79 0 0 1-1.122 1.659c-10.914 15.4-18.582 28.549-24.126 41.396-.511 1.158-1.167 1.878-2.143 2.343a956.497 956.497 0 0 0-8.616 4.277l-.174.091c-9.254 4.632-18.819 9.428-28.776 13.112-16.613 6.163-33.409 13.002-47.688 18.901l.639 1.022c10.796-4.012 21.582-8.216 32.004-12.292l.155-.054c4.286-1.678 8.58-3.356 12.884-5.024l1.158-.447-.073 1.24c-.018.219-.027.41-.036.574-.01.393-.028.657-.073.921-1.122 6.812-1.432 14.334-.958 23.005.338 6.036.073 6.438-5.534 8.535-8.243 3.1-16.313 6.565-23.169 9.565l.665 1.048c8.58-3.693 17.197-7.468 25.239-10.996l.401-.173c.857-.365 1.696-.639 2.362-.265.583.347.912 1.04 1.057 2.234 1.487 12.592 5.097 25.813 11.015 40.402 2.69 6.665 3.51 13.212 2.507 20.005-.492 3.346-2.361 4.468-4.394 5.407l-.484.228c-.51.228-1.021.465-1.522.711l.583.93 5.052-2.461c4.513-2.207 9.036-4.414 13.558-6.611 2.9-1.413 5.772-2.881 8.206-4.14l.128-.073c6.064-3.109 12.337-6.328 18.874-8.735 4.395-1.641 8.134-3.118 11.434-4.522 1.569-.648 3.319-1.213 5.444-.867.83.137 1.659.256 2.498.356 1.277.173 2.553.31 3.812.456l.401.046c.656.073 1.295.145 1.942.228.593.063 1.194.136 1.787.209 19.248 2.371 36.864 4.787 53.851 7.386l3.529.529c10.714 1.623 22.859 3.465 34.722 4.677 1.231.11 2.115.019 2.999-.793 3.073-2.827 6.173-5.644 9.273-8.452l.083-.073c5.78-5.252 11.762-10.687 17.497-16.185 1.176-1.14 1.997-2.197 2.198-3.665.255-1.724.519-3.438.784-5.152l.146-.921c.574-3.757 1.167-7.641 1.659-11.461.182-1.478.547-3.137 2.453-4.176 2.817-1.496 4.158-3.921 4.34-7.869.337-7.021.903-14.106 1.45-20.954l.137-1.687c.446-5.862.784-11.844 1.112-17.625l.027-.446c.52-9.146 1.058-18.61 2.006-27.92.493-4.705.894-9.355 1.341-14.507l.538-6.027v-.055l-.009-.009ZM196.432 169.53l.283-.192-.31.128c-.456-1.14-.921-2.28-1.377-3.428l-.538-1.368a130.607 130.607 0 0 0-1.851-4.559c-.146-.347-.574-1.386-.064-2.17.465-.693 1.332-.794 1.952-.803 4.969-.009 8.872.055 12.674.192l.492.018.41.912c8.043 19.047 10.915 33.418-1.194 41.669l-1.049.721-.182-1.268c-1.532-10.44-5.453-20.306-9.246-29.852Zm153.102 83.722-.21 1.869c-.939 8.243-1.897 16.768-2.745 25.166-.191 1.869-.984 2.872-2.735 3.437-18.847 6.146-38.889 14.416-63.015 26.014.602-.219 1.204-.428 1.805-.638 7.049-2.489 13.14-4.997 18.638-7.65 10.786-5.234 22.394-8.416 33.609-11.498l1.067-.283c2.48-.674 4.905-1.34 7.239-2.097.693-.237 1.487-.41 2.07.046.584.447.62 1.24.566 2.033-.639 9.291-1.204 17.689-1.678 26.342-.1 1.86-1.195 2.471-2.307 2.927-15.036 6.073-29.707 13.394-43.894 20.47l-.675.337c.456-.145.893-.31 1.331-.483l.082-.036c.265-.091.52-.192.784-.292 6.948-2.48 13.632-5.717 20.087-8.845 3.21-1.55 6.857-3.319 10.413-4.905a1141.42 1141.42 0 0 0 8.945-4.158l4.523-2.124.136 1.085c.256 1.905.101 3.656-.045 5.352a37.816 37.816 0 0 0-.164 2.307c-.055 1.103-.174 2.225-.292 3.364l-.018.183c-.192 1.814-.374 3.683-.237 5.461.319 4.24-1.56 7.268-5.745 9.255-5.589 2.663-10.85 6.128-15.938 9.474l-1.049.693a364.766 364.766 0 0 1-5.434 3.51c-.611.374-1.222.757-1.833 1.14l-.693.447c-2.453 1.55-4.942 3.137-7.54 4.486 2.835-.985 5.808-2.425 9.264-4.486 5.899-3.52 12.327-7.112 19.312-9.611.337-.127.693-.237 1.103-.355l.328-.11c.219-.063.447-.136.702-.227l1.231-.402-.191 1.277a903.008 903.008 0 0 1-.794 5.234l-.237 1.614c-.392 2.598-.775 5.151-1.185 7.713-.219 1.377-1.194 2.307-1.988 3.064a6115.87 6115.87 0 0 0-24.263 22.841c-.939.912-1.951 1.304-3.383 1.322-9.565.182-18.856-1.204-28.329-2.763-22.714-3.729-44.962-6.829-66.116-9.218a1407.65 1407.65 0 0 0-5.762-.638c-.137-.019-.265-.028-.392-.037-4.149-.438-8.279-.656-12.848-.875-2.553-.119-5.051-.237-7.54-.411.355.256.711.529 1.103.83l.082.064c1.067.802 2.17 1.632 3.483 2.27l1.66.812-1.733.656c-7.467 2.781-13.75 5.499-19.795 8.553-2.398 1.204-4.823 2.371-7.103 3.474a367.79 367.79 0 0 0-6.857 3.337c-.638.31-1.14.447-1.586.447-.857 0-1.523-.492-2.143-1.596-10.458-18.701-17.033-38.277-19.54-58.182-1.386-10.887-1.577-20.926-.593-30.682.237-2.28.949-4.039 3.702-5.188 7.86-3.292 14.917-6.31 21.71-9.811 2.025-1.04 4.113-1.988 6.137-2.909 2.361-1.067 5.224-2.362 7.814-3.793.739-.392 1.276-.72 1.568-1.413 6.629-15.118 15.765-28.987 24.601-42.39l1.194-1.806a60.995 60.995 0 0 0 3.155-5.407c5.316-10.403 7.149-21.92 5.599-35.205l-.046-.51.419-.265c14.042-8.735 9.447-25.503 2.389-42.335l-.501-1.149 1.267.046c2.59.109 5.033.264 7.468.465 3.009.274 4.623 1.787 6.155 3.465 1.686 1.842 3.319 3.766 4.896 5.626 3.255 3.838 6.629 7.805 10.577 11.16.666.566 1.03 1.268 1.149 2.207 1.459 11.06 4.431 21.993 7.303 32.57l.465 1.714c2.791 10.394 8.216 19.822 17.598 30.554 7.951 9.109 18.82 11.225 28.412 12.1 7.823.702 15.729-.392 23.379-1.441l.52-.073a147.76 147.76 0 0 1 4.923-.592c3.83-.411 7.696-.839 11.371-1.879-2.408-.073-4.623.183-6.775.438-1.66.192-3.31.41-4.96.62l-1.541.192c-7.742.984-15.656 1.987-23.552 2.088-2.845 0-4.778-.967-6.283-3.137-1.085-1.577-1.322-3.283-.665-4.696.611-1.331 1.951-2.188 3.683-2.361 2.909-.283 5.955-.347 8.389-.411.757-.027 1.505-.045 2.261-.064 12.939-.373 26.853-.41 40.986 1.815l.228.036c4.231.657 4.541 1.058 4.067 5.435Z"></path><path fill="#1C1C1E" d="m206.238 202-.547-.729c12.146-9.027 12.437-21.109 1.067-44.56l.821-.401c11.607 23.944 11.242 36.326-1.341 45.681V202Z"></path><path stroke="#1C1C1E" stroke-width="1.5" d="m209.69 382.228-.356.93-31.949 83.294c-.046.136-.101.264-.155.401-.365.702-.848 1.13-1.35 1.213-.073.018-.137.018-.191.018-.055-.009-.137 0-.21-.018a1.288 1.288 0 0 1-.41-.137 1.815 1.815 0 0 1-.402-.237c-.291-.219-.556-.52-.802-.912l-2.398-3.811-33.564-53.378-.957-1.522-19.257-30.628-.037-.064v-.018L101.13 351.09l-1.03-1.632-16.002-25.449-1.003-1.604-.274-.429-1.203-1.887c-1.158-1.851-1.468-5.015-.693-7.058l2.598-6.775 5.772-15.026 13.787-35.971.164-.419 38.232-99.761 1.486-3.875c.784-2.052 2.362-2.216 3.538-.356l52.757 83.914.438.693"></path><path stroke="#1C1C1E" stroke-width="1.5" d="M170.93 463.205c.191-.036.364-.118.538-.237.875-.565 1.513-1.887 1.513-1.887l30.199-78.653.392-1.021M141.35 155.069c.045 0 .082 0 .127.009 1.113.119 2.28 1.687 2.28 1.687l52.201 83.841.583.93"></path></svg>