<svg width="540" height="540" fill="none" viewBox="133.381 143.094 274.532 255.755" xmlns="http://www.w3.org/2000/svg"><path d="M0 0h540v540H0z" style="fill: rgba(251, 247, 239, 0);"></path><path fill="#FFD233" d="m360.894 244.072 18.798 124.534c.522 3.481-.348 6.701-2.437 9.137-2.089 2.437-5.135 3.829-8.616 3.829l-180.926 11.575-14.533-9.312s-6.614-3.568-9.399-6.005c-2.785-2.436-4.699-5.743-5.221-9.137l-22.453-149.51c-.522-3.481.348-6.701 2.437-9.138 2.088-2.437 5.134-3.829 8.615-3.829h65.879l18.623 17.318 8.529 7.919 106.345.261c1.653 0 3.307.348 4.873.958 1.567.609 3.133 1.566 4.439 2.697a16.266 16.266 0 0 1 3.307 4.004c.957 1.392 1.479 3.045 1.74 4.699Z"></path><path stroke="#1C1C1E" stroke-linecap="round" stroke-linejoin="round" stroke-miterlimit="10" stroke-width="1.5" d="m360.891 244.073 18.798 124.534c.522 3.481-.348 6.701-2.437 9.137-2.089 2.437-5.135 3.829-8.616 3.829l-165.435 8.007-14.621 3.046s-21.93-12.445-24.715-14.882c-2.785-2.436-4.699-5.743-5.221-9.137l-22.453-149.51c-.522-3.481.348-6.701 2.437-9.138 2.088-2.437 5.134-3.829 8.615-3.829h65.879l18.623 17.318 8.529 7.919 106.345.261c1.653 0 3.307.348 4.873.958 1.567.609 3.133 1.566 4.439 2.697a16.266 16.266 0 0 1 3.307 4.004c.87 1.479 1.392 3.133 1.653 4.786Z"></path><path fill="#fff" d="M375.426 378.962H182.925c-6.788 0-12.793-5.569-13.402-12.357l-11.226-136.369c-.522-6.788 4.525-12.358 11.313-12.358h192.588c6.788 0 12.793 5.57 13.402 12.358l11.226 136.369c.522 6.875-4.525 12.357-11.4 12.357Z"></path><path stroke="#1C1C1E" stroke-miterlimit="10" stroke-width="1.5" d="M375.426 378.962H182.925c-6.788 0-12.793-5.569-13.402-12.357l-11.226-136.369c-.522-6.788 4.525-12.358 11.313-12.358h192.588c6.788 0 12.793 5.57 13.402 12.358l11.226 136.369c.522 6.875-4.525 12.357-11.4 12.357Z"></path><path fill="#FD3" d="m325.299 206.13-16.187 18.536-7.397 8.529-106.346.261c-1.653 0-3.22.348-4.786.957a14.53 14.53 0 0 0-4.09 2.872 13.092 13.092 0 0 0-2.698 4.351c-.609 1.654-.957 3.394-.957 5.135l-1.393 133.41c0 3.655 1.306 7.223 3.655 9.834 2.437 2.611 5.657 4.09 9.138 4.09h66.575l73.188-187.975h-8.702Z"></path><path fill="#FFE564" d="M398.49 390.015c2.437-2.611 3.829-6.179 3.916-9.834l1.653-160.127c0-3.655-1.305-7.223-3.655-9.834-2.436-2.611-5.656-4.09-9.137-4.09h-57.176l-73.189 187.975h128.363c3.481 0 6.788-1.479 9.225-4.09Z"></path><path fill="#fff" d="M385.694 351.725h-69.011l-.261 22.278h69.011l.261-22.278ZM386.13 307.079h-69.011l-.262 22.279h69.012l.261-22.279Z"></path><path fill="#F0F0F3" d="M385.955 328.923h-46.994l8.702-22.278h38.553l-.261 22.278ZM385.436 373.481h-63.79l8.703-22.279h55.348l-.261 22.279Z"></path><path fill="#B2D2FF" d="M352.166 239.104c.578-7.33-4.468-13.708-11.272-14.245-6.804-.537-12.788 4.971-13.367 12.302-.578 7.331 4.469 13.709 11.273 14.245 6.804.537 12.788-4.971 13.366-12.302ZM388.055 239.044c.578-7.331-4.469-13.709-11.273-14.246-6.803-.536-12.788 4.972-13.366 12.302-.578 7.331 4.469 13.709 11.272 14.246 6.804.536 12.789-4.971 13.367-12.302Z"></path><path stroke="#1C1C1E" stroke-miterlimit="10" stroke-width="1.5" d="M352.166 239.104c.578-7.33-4.468-13.708-11.272-14.245-6.804-.537-12.788 4.971-13.367 12.302-.578 7.331 4.469 13.709 11.273 14.245 6.804.537 12.788-4.971 13.366-12.302ZM388.055 239.044c.578-7.331-4.469-13.709-11.273-14.246-6.803-.536-12.788 4.972-13.366 12.302-.578 7.331 4.469 13.709 11.272 14.246 6.804.536 12.789-4.971 13.367-12.302ZM385.694 351.725h-69.011l-.261 22.278h69.011l.261-22.278ZM386.13 307.079h-69.011l-.262 22.279h69.012l.261-22.279Z"></path><path fill="#F7FFC2" d="M270.471 146.169c-2.872.087-5.047 2.611-5.047 5.396l.783 20.625c.087 2.872 2.611 5.048 5.396 5.048 1.653-.087 3.046-.784 3.916-1.915.783-.957 1.131-2.089 1.131-3.481l-6.179-25.673Zm0 0c2.872-.087 5.309 2.176 5.396 5.048l.783 20.625-6.179-25.673ZM235.4 185.679l-11.227-17.318c-1.479-2.437-.87-5.656 1.48-7.223 2.436-1.479 5.656-.87 7.223 1.48l11.226 17.318c.696 1.131.957 2.349.87 3.481-.174 1.479-1.044 2.784-2.349 3.742-2.35 1.74-5.57 1.044-7.223-1.48Z"></path><path stroke="#1C1C1E" stroke-width="1.5" d="M244.972 183.417c.087-1.132-.174-2.35-.87-3.481l-11.226-17.318c-1.567-2.35-4.787-2.959-7.223-1.48-2.35 1.567-2.959 4.786-1.48 7.223l11.227 17.318c1.653 2.524 4.873 3.22 7.223 1.48 1.305-.958 2.175-2.263 2.349-3.742Zm0 0h.261"></path><path fill="#F7FFC2" d="m312.246 164.88-11.922 16.709-.087.087c-.087.087-.261.348-.261.609l-.087.087c-1.132 2.089-.436 5.048 1.653 6.527l.087.087c.087.087.348.261.609.261l.087.087.087.087c.348.087.609.261.958.348.435.174 1.044.174 1.566.087.261 0 .348-.174.435-.087h.261l-.087-.087c1.219-.261 2.263-1.044 3.046-2.001l11.923-16.709c1.653-2.263 1.044-5.57-1.306-7.223-2.088-1.741-5.395-1.132-6.962 1.131Z"></path><path stroke="#1C1C1E" stroke-linecap="round" stroke-linejoin="round" stroke-width="1.5" d="M275.607 175.236c-.957 1.218-2.349 1.914-4.003 2.001-2.872.087-5.482-2.175-5.482-5.134l-.784-20.625c-.087-2.872 2.176-5.483 5.135-5.483 3.046 0 5.482 2.176 5.482 5.135l.784 20.625c.174 1.305-.348 2.436-1.132 3.481ZM245.146 183.59c-.174 1.48-1.131 2.872-2.35 3.742-2.524 1.654-5.831.958-7.397-1.479l-11.226-17.318c-1.654-2.524-.958-5.831 1.479-7.397 2.524-1.654 5.831-.958 7.397 1.479l11.314 17.405c.696 1.131.87 2.437.783 3.568ZM305.894 189.682c-1.479.435-3.133.174-4.351-.87-2.437-1.741-3.046-5.047-1.306-7.397l11.923-16.709c1.74-2.437 5.047-3.046 7.397-1.305 2.437 1.74 3.046 5.047 1.306 7.397l-11.923 16.709c-.783 1.131-1.828 1.914-3.046 2.175Z"></path><path fill="#231F20" d="M181.444 337.625v42.556l-4.612-2.698 4.612-39.858Z"></path><path stroke="#1C1C1E" stroke-miterlimit="10" stroke-width="1.5" d="M400.315 210.22c-2.437-2.611-5.657-4.09-9.138-4.09h-65.878l-16.187 18.536-7.397 8.529-106.346.261c-1.653 0-3.22.348-4.786.957a14.53 14.53 0 0 0-4.09 2.872 13.092 13.092 0 0 0-2.698 4.351c-.609 1.654-.957 3.394-.957 5.135l-1.393 133.41c0 3.655 1.306 7.223 3.655 9.834 2.437 2.611 5.657 4.09 9.138 4.09h195.024c3.481 0 6.788-1.479 9.225-4.09 2.437-2.611 3.829-6.179 3.916-9.834l1.654-160.127c0-3.742-1.306-7.223-3.742-9.834Z"></path></svg>