<svg xmlns:xlink="http://www.w3.org/1999/xlink" width="386" height="386" viewBox="0 0 386 386" fill="none" xmlns="http://www.w3.org/2000/svg"><path d="M29.6494 340.568L32.476 338.128L32.7255 338.296C32.7255 338.296 38.741 332.221 43.3596 334.421C47.9782 336.621 48.098 339.999 48.098 339.999C48.098 339.999 49.1673 343.248 45.5298 346.9C41.8923 350.552 39.0328 353.021 39.0328 353.021C39.0328 353.021 53.6267 374.075 90.6248 379.61C90.6248 379.61 96.2967 376.958 99.776 372.065L101.457 379.557C101.457 379.557 133.463 377.494 142.763 344.437L112.772 336.815L58.6808 316.676L40.7824 319.266L36.0879 327.707C29.8741 319.564 17.7458 300.346 18.8614 275.538L8.88412 284.146C8.88412 284.146 5.52932 313.488 29.6458 340.564L29.6494 340.568Z" fill="#F0F0F3"></path><path d="M36.6091 244.091L37.0204 243.329C33.902 244.487 28.2449 249.001 28.2449 249.001C28.2449 249.001 18.602 257.428 14.7864 265.613C10.9709 273.798 11.8164 274.053 11.8164 274.053L17.5059 277.734L19.2337 276.243L28.8781 280.867C36.7516 285.44 38.9169 283.944 38.9169 283.944C42.8979 279.196 36.7373 274.334 36.7373 274.334L21.3224 265.004C26.2723 250.448 36.6097 244.093 36.6097 244.093L36.6091 244.091Z" fill="#F0F0F3"></path><path d="M56.0358 245.376L57.6182 248.946C59.2007 252.516 60.9526 254.818 64.6228 254.051C68.2931 253.284 67.5155 249.038 67.5155 249.038L64.5358 237.865C59.1327 239.855 56.0358 245.376 56.0358 245.376Z" fill="#F0F0F3"></path><path d="M128.885 327.346C127.645 330.14 130.004 332.965 130.004 332.965L130.569 333.908L137.731 338.317L144.542 330.96L134.195 326.225C134.195 326.225 130.124 324.552 128.885 327.346Z" fill="#F0F0F3"></path><path d="M77.0008 239.612C77.0008 239.612 69.9417 236.277 64.1095 237.375L67.076 248.083C67.076 248.083 68.587 253.107 63.3016 253.744C58.0162 254.381 54.9415 243.412 54.9415 243.412L52.6029 238.132C52.6029 238.132 30.7686 237.815 21.3801 264.271L22.123 264.882L36.0224 273.195C36.0224 273.195 41.0897 276.055 40.1228 281.229C39.1558 286.404 31.8537 281.742 31.8537 281.742L19.2885 275.512C19.2885 275.512 15.207 303.603 40.0136 331.843L47.621 326.229C47.621 326.229 52.4054 323.242 56.8116 327.799C61.2178 332.355 56.5098 337.568 56.5098 337.568L49.714 343.587L49.4495 344.573C49.4495 344.573 68.9751 367.698 100.885 370.828L98.301 356.66C98.301 356.66 98.5479 352.872 103.149 352.337C107.749 351.801 109.45 360.744 109.45 360.744L111.7 370.774C111.7 370.774 132.273 369.681 143.59 342.893L130.88 334.645C130.88 334.645 127.654 333.137 128.369 328.737C129.084 324.338 134.814 327.624 134.814 327.624L144.354 331.636C144.354 331.636 145.123 329.758 144.641 327.62L135.348 325.328L133.738 324.506L133.553 323.193L132.377 305.742L119.733 303.596C119.733 303.596 99.5904 299.319 95.5745 293.453L95.71 291.45L96.8982 273.622C96.8982 273.622 76.1774 269.9 68.934 252.826C68.934 252.826 68.4341 252.321 69.764 250.637C71.0939 248.954 77.0083 239.61 77.0083 239.61L77.0008 239.612Z" fill="#D9D9D9"></path><path d="M78.4627 267.241L68.5736 276.655C68.5736 276.655 59.431 285.94 70.7279 304.316C82.0247 322.693 95.9595 321.932 95.9595 321.932C95.9595 321.932 102.229 322.556 106.001 319.005C109.773 315.454 115.982 309.944 115.982 309.944L78.4596 267.239L78.4627 267.241Z" fill="#F0F0F3"></path><path d="M79.8828 265.996L78.5895 267.209C78.5895 267.209 69.7422 277.293 81.8318 295.877C93.9213 314.461 109.12 312.376 109.12 312.376L112.595 311.592L114.897 310.689C114.897 310.689 118.95 308.893 118.881 303.258L99.2486 271.728L79.8853 265.996L79.8828 265.996Z" fill="#D9D9D9"></path><path d="M178.14 65.1722L173.132 69.1027L169.31 73.0139L166.528 76.5118L165.227 78.393L155.307 86.6429C155.307 86.6429 140.897 98.1429 138.458 122.773C136.02 147.404 145.64 169.722 145.64 169.722C145.64 169.722 157.532 204.752 191.276 231.936C225.021 259.121 254.433 258.372 254.433 258.372C254.433 258.372 268.675 259.731 281.783 253.084C281.783 253.084 291.104 248.384 293.793 244.691C293.793 244.691 301.073 240.594 307.216 231.394L313.576 225.55L178.137 65.1727L178.14 65.1722Z" fill="#F0F5FF"></path><path d="M243.146 55.1239C243.146 55.1239 215.286 44.6642 194.059 54.6918C194.059 54.6918 182.517 58.6104 173.142 71.0359C173.142 71.0359 161.586 85.5662 162.035 107.372C162.483 129.178 168.182 143.173 168.182 143.173C168.182 143.173 173.976 162.4 190.211 183.552C206.446 204.705 225.428 216.942 225.428 216.942C225.428 216.942 245.822 231.834 270.15 235.148C294.477 238.463 307.879 229.6 307.879 229.6C307.879 229.6 324.489 222.678 332.163 199.508C339.838 176.339 331.46 150.611 331.46 150.611L329.606 144.772L243.146 55.1239Z" fill="#F0F5FF"></path><path d="M251.461 74.0451C251.461 74.0451 247.159 92.3727 268.545 120.397C268.545 120.397 284.928 141.951 309.583 147.475C309.583 147.475 321.509 150.681 332.226 144.118L334.66 142.183L346.1 130.484L346.212 121.958L265.976 58.7132L251.461 74.0425L251.461 74.0451Z" fill="#F0F5FF"></path><path d="M274.896 42.9435C274.896 42.9435 257.447 52.1254 266.177 80.8456C274.908 109.566 300.906 127.365 309.824 130.684C318.743 134.003 325.531 136.925 336.646 134.897C347.762 132.87 352.457 124.021 354.2 116.502C355.944 108.982 354.079 95.8199 349.339 85.9208C349.339 85.9208 331.159 84.9923 318.91 69.5294C318.91 69.5294 309.158 59.1767 308.466 44.1303C308.466 44.1303 288.722 33.8701 274.895 42.941L274.896 42.9435Z" fill="#F0F5FF"></path><path d="M309.13 40.1401C309.13 40.1401 307.085 56.2876 321 71.1185C334.919 85.9514 350.863 85.6034 350.863 85.6034C350.863 85.6034 371.556 85.7682 374.453 69.5871C374.453 69.5871 377.15 56.1328 362.848 38.558L361.518 39.5086L356.234 39.6667L355.211 38.995L354.853 38.0154L354.555 33.2781L355.019 32.2128L355.747 31.3017C355.747 31.3017 340.476 16.9986 324.817 19.2427C324.817 19.2427 311.808 20.3376 309.128 40.1432L309.13 40.1401ZM334.676 36.5059C334.676 36.5059 346.647 39.7949 354.036 52.1068C361.425 64.4187 356.881 70.441 356.881 70.441C352.966 72.6252 345.714 69.2706 345.714 69.2706C345.714 69.2706 336.866 65.8832 329.495 56.5283C322.124 47.1734 323.347 39.4096 323.347 39.4096L323.684 37.1511C327.651 34.1531 334.676 36.5059 334.676 36.5059Z" fill="#F0F5FF"></path><path d="M364.417 21.5513L355.142 32.4369L355.157 36.7382L355.389 38.2492L356.283 39.3542L357.162 39.6559L361.993 39.4245L363.052 38.7458L372.318 28.099C372.318 28.099 375.221 29.4085 377.566 28.5596L382.143 23.9176C382.143 23.9176 383.61 20.6266 380.765 16.4832C377.919 12.3399 373.122 9.92339 373.122 9.92339C373.122 9.92339 368.933 7.45064 366.078 10.6937L362.865 14.449C362.865 14.449 361.235 17.0397 364.414 21.5493L364.417 21.5513Z" fill="#F0F5FF"></path><path d="M128.898 121.206L127.022 124.154L125.121 128.325L131.035 145.251L108.288 125.255C108.288 125.255 106.686 122.404 102.279 124.166C97.8723 125.928 94.9606 136.577 94.9606 136.577L112.368 159.368L83.5923 145.262C83.5923 145.262 82.52 144.768 80.5764 148.496L80.0311 148.348L77.639 146.723C77.639 146.723 77.2227 146.218 75.9063 148.142C74.5905 150.067 72.5914 153.256 73.1889 156.525L73.8096 157.951L75.9131 159.594L103.7 181.126L60.399 172.964C60.399 172.964 57.9815 172.32 58.8005 178.113C59.6195 183.905 63.8297 189.789 63.8297 189.789L65.5787 191.518L68.3547 192.769L87.0292 199.899L57.0616 209.474C57.0616 209.474 55.4219 209.456 56.7089 213.48C57.996 217.504 64.2588 225.701 64.2588 225.701C64.2588 225.701 68.9607 231.623 73.9364 233.292C78.9121 234.962 81.5721 233.996 81.5721 233.996L81.4467 234.485L78.365 239.184L70.4371 251.266C70.4371 251.266 69.2193 254.572 77.896 263.013C86.5727 271.453 98.2682 273.214 98.2682 273.214L96.9993 292.267C96.9993 292.267 96.2029 293.142 99.8453 295.635C103.488 298.128 112.254 300.786 112.254 300.786L120.72 303.115L128.34 304.646L133.772 305.355L134.855 321.432C134.855 321.432 134.505 323.829 135.799 324.545C137.094 325.26 140.515 325.942 140.515 325.942L152.116 328.236L161.493 328.99L170.045 328.863L174.454 336.789L175.767 339.261C175.767 339.261 176.317 340.062 178.502 340.007C180.688 339.953 183.149 339.707 183.149 339.707L189.533 338.665L197.517 336.893L209.12 333.99L212.24 338.536C212.24 338.536 213.509 338.377 215.949 337.355C218.39 336.332 225.769 332.831 225.769 332.831L237.031 326.638L241.49 323.235L247.387 318.626C247.387 318.626 252.08 314.002 251.667 313.352C251.255 312.703 249.017 309.167 249.017 309.167L258.333 300.159L261.99 297.295C261.99 297.295 271.377 290.618 268.286 286.286C265.195 281.954 258.917 276.859 258.917 276.859L263.674 269.76L270.676 260.957C270.676 260.957 272.925 258.265 273.324 256.331C273.324 256.331 258.537 261.261 238.972 256.778C219.407 252.291 201.321 240.353 201.321 240.353C201.321 240.353 177.43 226.186 158.617 197.269C139.803 168.35 137.807 144.587 137.807 144.587C137.807 144.587 135.462 130.095 138.047 117.279C138.047 117.279 133.164 115.149 128.903 121.216L128.898 121.206ZM172.824 218.838C194.758 242.767 196.42 264.854 196.42 264.854L196.95 270.558C196.95 270.558 170.831 267.827 148.205 238.896C148.205 238.896 131.039 218.528 129.63 193.328C129.63 193.328 150.889 194.91 172.824 218.838Z" fill="#FFDD33"></path><path d="M225.638 128.746C225.638 128.746 241.88 131.133 254.387 150.184C254.387 150.184 259.899 158.554 261.453 168.294C261.453 168.294 278.825 165.474 269.27 142.143C259.715 118.811 238.33 118.02 238.33 118.02C238.33 118.02 228.015 117.379 225.64 128.745L225.638 128.746Z" fill="#F0F5FF"></path><path d="M225.41 135.807C225.41 135.807 238.244 136.638 249.674 154.602C249.674 154.602 254.279 162.814 254.555 168.123C254.555 168.123 230.067 162.289 225.408 135.81L225.41 135.807Z" fill="#FBF7EF"></path><path d="M181.489 99.8004C181.489 99.8004 174.789 106.418 182.464 118.779C190.138 131.14 202.375 128.324 202.375 128.324C202.375 128.324 211.586 126.285 210.109 115.497C208.631 104.709 199.916 99.4228 199.916 99.4228C199.916 99.4228 189.108 91.8321 181.486 99.801L181.489 99.8004Z" fill="#F0F5FF"></path><path d="M261.436 192.682C261.436 192.682 254.736 199.3 262.411 211.661C270.086 224.022 282.323 221.206 282.323 221.206C282.323 221.206 291.534 219.166 290.056 208.379C288.579 197.591 279.863 192.305 279.863 192.305C279.863 192.305 269.056 184.714 261.434 192.683L261.436 192.682Z" fill="#F0F5FF"></path><path d="M220.041 157.402L232.36 172.079L233.407 174.253L233.665 175.404L233.758 177.027L233.208 178.781L224.973 195.896C224.973 195.896 221.344 202.217 212.941 195.954C212.941 195.954 198.421 187.016 191.114 167.747C191.114 167.747 189.329 161.354 195.615 159.382L214.25 155.545C214.25 155.545 217.555 155.026 220.038 157.403L220.041 157.402Z" fill="#F0F5FF"></path><path d="M287.864 158.069L286.343 171.915C286.343 171.915 285.968 174.464 288.796 176.777C291.625 179.091 310.951 197.358 310.951 197.358C310.951 197.358 317.626 201.722 320.792 195.19C323.958 188.658 322.552 175.419 322.552 175.419L321.341 165.068C321.341 165.068 321.524 160.462 316.579 159.61C311.633 158.758 293.433 154.025 293.433 154.025C293.433 154.025 289.133 153.478 287.861 158.069L287.864 158.069Z" fill="#F0F5FF"></path><path d="M243.651 80.2747L246.376 99.7991C246.376 99.7991 246.364 104.11 241.395 103.35C236.426 102.59 229.687 102.376 229.687 102.376C229.687 102.376 223.633 104.111 220.555 98.6767C217.477 93.2428 208.008 76.8605 208.008 76.8605C208.008 76.8605 201.911 69.0699 211.227 64.7924C211.227 64.7924 225.171 60.8585 240.421 71.0554L240.73 71.3778L239.431 79.0613C239.431 79.0613 239.401 80.6961 240.694 81.1537C241.987 81.6113 242.887 80.7202 242.887 80.7202L243.653 80.2716L243.651 80.2747Z" fill="#F0F5FF"></path><path d="M142.616 164.137C142.616 164.137 128.239 171.965 129.947 193.279C129.947 193.279 152.359 196.003 172.571 217.993C192.783 239.983 196.226 261.907 196.226 261.907L197.163 270.421C197.163 270.421 206.106 272.795 217.714 267.87C217.714 267.87 226.86 263.39 230.343 254.532C230.343 254.532 212.714 249.139 195.575 236.194C178.435 223.25 167.143 208.659 167.143 208.659C167.143 208.659 150.499 188.143 142.616 164.137Z" fill="#FFD233"></path><path d="M58.794 175.055C58.794 175.055 56.8332 179.894 62.7538 189.738C68.6774 199.583 77.5404 188.798 75.9904 182.099C75.9904 182.099 75.4873 179.006 73.2603 180.542C71.0334 182.077 68.054 187.891 63.9858 182.499C63.9858 182.499 62.6174 180.705 61.9854 177.667C61.3527 174.626 59.8686 172.91 58.7915 175.055L58.794 175.055Z" fill="#FFE771"></path><path d="M60.6355 222.535C67.961 233.983 77.2113 236.713 81.0725 234.109C84.9362 231.504 86.1332 226.939 84.2181 223.238C82.301 219.54 78.7321 221.606 76.2959 222.28C73.8591 222.951 72.0012 222.766 72.0012 222.766C67.2749 222.027 63.7575 218.244 60.4433 213.421C57.1285 208.595 55.7093 210.948 55.7093 210.948C54.9579 214.855 60.6355 222.535 60.6355 222.535Z" fill="#FFE771"></path><path d="M70.7182 255.825C70.7182 255.825 75.076 264.846 88.2039 270.928C101.332 277.011 108.241 272.283 108.241 272.283C108.241 272.283 111.123 270.393 108.866 265.973C106.612 261.553 102.366 261.706 99.7101 262.861C97.054 264.016 87.8525 265.907 78.2209 257.207C78.2209 257.207 73.3543 251.113 70.5308 251.312C67.7073 251.511 70.7151 255.823 70.7151 255.823L70.7182 255.825Z" fill="#FFE771"></path><path d="M95.7116 292.617C95.7116 292.617 95.5955 295.64 109.09 300.167C122.584 304.693 132.82 305.449 132.82 305.449C132.82 305.449 145.531 307.489 144.422 301.69C143.312 295.89 129.175 297.919 129.175 297.919C129.175 297.919 113.304 300.622 98.8736 292.256C98.8736 292.256 96.1591 290.981 95.7116 292.617Z" fill="#FFE771"></path><path d="M133.877 322.717C133.333 324.126 137.858 325.01 137.858 325.01C137.858 325.01 153.023 330.146 172.64 328.148C192.255 326.15 184.494 319.905 182.689 319.364C180.885 318.823 178.48 317.534 166.903 321.424C155.329 325.313 138.939 322.377 138.939 322.377C138.939 322.377 134.417 321.306 133.876 322.714L133.877 322.717Z" fill="#FFE771"></path><path d="M221.845 324.663C215.53 324.807 213.241 327.109 203.648 331.135C194.057 335.161 187.416 334.407 180.581 335.224C173.745 336.04 174.742 338.285 174.742 338.285C176.151 341.822 202.861 334.764 211.595 331.947C220.325 329.128 228.161 324.518 221.844 324.666L221.845 324.663Z" fill="#FFE771"></path><path d="M213.458 335.759C206.002 340.646 222.877 333.763 234.833 326.374C246.789 318.984 258.99 305.445 245.336 315.882C231.685 326.318 213.458 335.759 213.458 335.759Z" fill="#FFE771"></path><path d="M80.9507 149.29C79.2655 152.642 77.9882 155.058 75.9969 155.74C74.0025 156.419 75.6447 153.039 77.1885 150.678C78.7322 148.317 77.7081 147.977 77.7081 147.977C77.7081 147.977 77.1755 147.668 76.4124 148.841C76.4124 148.841 72.6664 154.035 73.3265 157.781C73.9867 161.528 77.4352 158.579 79.7603 155.979C82.0879 153.378 84.3896 148.562 84.1233 147.212C83.857 145.861 82.6353 145.935 80.9526 149.287L80.9507 149.29Z" fill="#FFE771"></path><path d="M228.172 113.095C228.172 113.095 222.237 116.378 220.641 121.449C220.641 121.449 214.377 132.261 224.114 150.823C233.851 169.385 253.726 174.611 253.726 174.611C253.726 174.611 263.769 177.941 272.119 171.202C280.469 164.464 278.314 151.122 278.314 151.122C278.314 151.122 276.744 132.072 258.376 118.852C240.007 105.629 228.172 113.095 228.172 113.095ZM255.259 124.465C269.657 134.827 271.84 149.701 271.84 149.701C271.84 149.701 273.866 160.172 267.322 165.453C260.776 170.735 252.954 167.609 252.954 167.609C252.954 167.609 237.812 162.404 230.137 148.888C222.023 134.601 226.636 126.441 226.636 126.441C227.885 122.466 232.538 119.895 232.538 119.895C232.538 119.895 240.861 114.102 255.26 124.467L255.259 124.465Z" fill="#F0F5FF"></path><path d="M282.753 79.1026C282.753 79.1026 284.6 92.4321 296.663 103.826C308.726 115.22 319.807 115.395 319.807 115.395C319.807 115.395 336.183 116.386 336.152 99.3384C336.152 99.3384 336.175 89.2592 329.227 78.6454C329.227 78.6454 319.603 72.2894 315.756 65.3489C315.756 65.3489 301.214 54.194 288.943 61.2366C288.943 61.2366 281.004 64.8276 282.753 79.1051L282.753 79.1026Z" fill="#F0F5FF"></path><path d="M285.938 75.0186C285.938 75.0186 299.126 73.932 310.532 87.2392C321.937 100.546 322.187 109.947 322.026 111.788C322.026 111.788 309.033 113.895 295.181 97.349C295.181 97.349 285.879 86.6945 285.938 75.0186Z" fill="#F0F5FF"></path><path d="M286.023 74.9781C286.023 74.9781 297.852 73.7933 310.649 87.209C323.446 100.625 321.655 111.885 321.655 111.885C321.655 111.885 336.855 111.728 331.285 91.1002C331.285 91.1002 326.377 75.7006 311.687 66.857C296.997 58.0134 289.587 65.769 289.587 65.769C289.587 65.769 286.446 67.651 286.023 74.9781Z" fill="#F0F5FF"></path><path d="M249.829 144.341C236.736 129.081 217.769 123.858 207.463 132.674C197.158 141.49 199.418 161.008 212.511 176.268C225.603 191.528 244.571 196.751 254.876 187.935C265.181 179.119 262.921 159.601 249.829 144.341Z" stroke="#1C1C1E" stroke-width="0.484276px" stroke-miterlimit="10" fill="none"></path><path d="M245.07 148.414C234.583 136.19 219.858 131.606 212.181 138.174C204.504 144.742 206.782 159.975 217.269 172.199C227.756 184.422 242.481 189.007 250.158 182.439C257.835 175.871 255.557 160.637 245.07 148.414Z" stroke="#1C1C1E" stroke-width="0.484276px" stroke-miterlimit="10" fill="none"></path><path d="M254.746 187.721L272.424 170.171" stroke="#1C1C1E" stroke-width="0.484276px" stroke-miterlimit="10" fill="none"></path><path d="M206.658 133.897L224.054 116.576" stroke="#1C1C1E" stroke-width="0.484276px" stroke-miterlimit="10" fill="none"></path><path d="M222.778 148.63L204.416 163.869" stroke="#1C1C1E" stroke-width="0.484276px" stroke-miterlimit="10" fill="none"></path><path d="M243.343 170.593L224.549 186.831" stroke="#1C1C1E" stroke-width="0.484276px" stroke-miterlimit="10" fill="none"></path><path d="M322.324 147.246C332.905 177.048 330.773 206.213 314.717 224.125" stroke="#1C1C1E" stroke-width="0.484276px" stroke-miterlimit="10" fill="none"></path><path d="M176.39 67.9981C193.414 54.7584 217.706 53.9473 242.295 63.6071" stroke="#1C1C1E" stroke-width="0.484276px" stroke-miterlimit="10" fill="none"></path><path d="M303.517 145.742C318.298 176.751 319.503 208.738 305.764 229.674" stroke="#1C1C1E" stroke-width="0.484276px" stroke-miterlimit="10" fill="none"></path><path d="M171.646 73.7303C193.682 63.1287 223.84 68.4464 251.513 86.7199" stroke="#1C1C1E" stroke-width="0.484276px" stroke-miterlimit="10" fill="none"></path><path d="M294.846 142.244C312.544 173.821 316.065 207.6 303.928 230.51" stroke="#1C1C1E" stroke-width="0.484276px" stroke-miterlimit="10" fill="none"></path><path d="M169.159 77.8168C192.863 67.5768 225.275 74.9407 253.943 96.4298" stroke="#1C1C1E" stroke-width="0.484276px" stroke-miterlimit="10" fill="none"></path><path d="M184.256 74.23L203.021 52.6265" stroke="#1C1C1E" stroke-width="0.484276px" stroke-miterlimit="10" fill="none"></path><path d="M229.871 81.8577L241.416 67.9534" stroke="#1C1C1E" stroke-width="0.484276px" stroke-miterlimit="10" fill="none"></path><path d="M304.979 163.612L320.283 147.623" stroke="#1C1C1E" stroke-width="0.484276px" stroke-miterlimit="10" fill="none"></path><path d="M309.623 214.491L334.496 188.374" stroke="#1C1C1E" stroke-width="0.484276px" stroke-miterlimit="10" fill="none"></path><path d="M243.847 227.757C243.847 227.757 228.149 165.036 169.821 149.843" stroke="#1C1C1E" stroke-width="0.484276px" stroke-miterlimit="10" fill="none"></path><path d="M231.969 221.813C231.969 221.813 215.323 174.478 175.833 162.826" stroke="#1C1C1E" stroke-width="0.484276px" stroke-miterlimit="10" fill="none"></path><path d="M268.8 61.7903C281.952 55.0826 303.485 62.7942 319.791 80.9367C336.096 99.0792 342.009 122.999 332.977 135.343" stroke="#1C1C1E" stroke-width="0.484276px" stroke-miterlimit="10" fill="none"></path><path d="M287.377 60.5669L297.397 45.1878" stroke="#1C1C1E" stroke-width="0.484276px" stroke-miterlimit="10" fill="none"></path><path d="M336.754 126.641L349.682 110.67" stroke="#1C1C1E" stroke-width="0.484276px" stroke-miterlimit="10" fill="none"></path><path d="M342.142 84.2005L332.43 98.9487" stroke="#1C1C1E" stroke-width="0.484276px" stroke-miterlimit="10" fill="none"></path><path d="M313.977 74.7671L318.126 68.5554" stroke="#1C1C1E" stroke-width="0.484276px" stroke-miterlimit="10" fill="none"></path><path d="M331.15 111.822L323.435 120.563C315.019 128.306 298.298 123.58 286.092 110.007C273.886 96.4346 271.162 81.6282 279.23 71.4125L286.033 63.5992" stroke="#1C1C1E" stroke-width="0.484276px" stroke-miterlimit="10" fill="none"></path><path d="M283.497 84.0173L275.898 93.6306" stroke="#1C1C1E" stroke-width="0.484276px" stroke-miterlimit="10" fill="none"></path><path d="M295.187 102.972L287.979 112.273" stroke="#1C1C1E" stroke-width="0.484276px" stroke-miterlimit="10" fill="none"></path><path d="M317.781 115.102L310.342 123.913" stroke="#1C1C1E" stroke-width="0.484276px" stroke-miterlimit="10" fill="none"></path><path d="M362.778 38.4864C374.817 52.8561 378.331 69.7399 370.382 77.7541C361.708 86.4977 342.673 81.3625 327.864 66.2861C313.056 51.2097 308.082 31.9029 316.755 23.1592C324.74 15.1107 341.512 18.8242 355.68 31.2328" stroke="#1C1C1E" stroke-width="0.484276px" stroke-linecap="round" stroke-linejoin="round" fill="none"></path><path d="M369.775 78.2976C358.176 89.992 336.771 87.2534 321.968 72.1808C307.164 57.1081 304.568 35.4109 316.167 23.7164" stroke="#1C1C1E" stroke-width="0.484276px" stroke-linecap="round" stroke-linejoin="round" fill="none"></path><path d="M353.873 40.1838C344.146 30.4076 331.642 27.0786 325.944 32.7482C320.247 38.4178 323.514 50.9392 333.242 60.7154C342.97 70.4916 355.474 73.8206 361.171 68.151C366.868 62.4813 363.601 49.96 353.873 40.1838Z" stroke="#1C1C1E" stroke-width="0.484276px" stroke-linecap="round" stroke-linejoin="round" fill="none"></path><path d="M377.757 12.9598C373.535 9.18224 368.527 7.89674 366.57 10.0886C364.613 12.2804 366.449 17.1195 370.671 20.8971C374.892 24.6747 379.901 25.9603 381.857 23.7684C383.814 21.5766 381.978 16.7374 377.757 12.9598Z" stroke="#1C1C1E" stroke-width="0.484276px" stroke-linecap="round" stroke-linejoin="round" fill="none"></path><path d="M381.798 23.8473L378.426 27.6794C376.479 29.8896 371.496 28.5916 367.295 24.7817C363.093 20.9692 361.266 16.0868 363.215 13.876L366.587 10.0439" stroke="#1C1C1E" stroke-width="0.484276px" stroke-linecap="round" stroke-linejoin="round" fill="none"></path><path d="M323.608 37.0912C329.631 33.4649 340.252 36.7972 348.621 45.3199C356.974 53.8275 360.216 64.5849 356.634 70.6745" stroke="#1C1C1E" stroke-width="0.484276px" stroke-linecap="round" stroke-linejoin="round" fill="none"></path><path d="M327.172 19.2099C327.172 19.2099 331.917 21.4535 333.025 30.082C333.025 30.082 333.627 34.7168 330.189 35.8445" stroke="#1C1C1E" stroke-width="0.484276px" stroke-linecap="round" stroke-linejoin="round" fill="none"></path><path d="M358.077 65.6255C358.077 65.6255 359.643 62.8732 363.761 62.1189C367.878 61.3645 373.91 66.7973 373.694 72.0805" stroke="#1C1C1E" stroke-width="0.484276px" stroke-linecap="round" stroke-linejoin="round" fill="none"></path><path d="M323.178 40.4528C323.178 40.4528 319.315 35.3392 312.547 38.4331C312.547 38.4331 308.391 40.5572 309.004 46.4036" stroke="#1C1C1E" stroke-width="0.484276px" stroke-linecap="round" stroke-linejoin="round" fill="none"></path><path d="M350.957 70.6887C350.957 70.6887 358.561 76.4485 354.94 83.0418C354.94 83.0418 352.902 86.0944 347.602 85.1088" stroke="#1C1C1E" stroke-width="0.484276px" stroke-linecap="round" stroke-linejoin="round" fill="none"></path><path d="M333.042 60.8458C333.042 60.8458 328.367 68.4383 321.73 72.2559" stroke="#1C1C1E" stroke-width="0.484276px" stroke-linecap="round" stroke-linejoin="round" fill="none"></path><path d="M355.921 39.2994C354.14 41.321 351.736 43.5948 348.822 45.27" stroke="#1C1C1E" stroke-width="0.484276px" stroke-linecap="round" stroke-linejoin="round" fill="none"></path><path d="M364.226 21.4845L355.561 31.682C355.012 32.3276 354.741 33.173 354.811 34.0317L355.096 37.6247C355.187 38.7745 356.163 39.6602 357.299 39.6256L360.821 39.5186C361.687 39.493 362.499 39.1113 363.073 38.4629L372.261 28.0834" stroke="#1C1C1E" stroke-width="0.484276px" stroke-linecap="round" stroke-linejoin="round" fill="none"></path><path d="M329.775 145.281C339.965 176.524 336.068 206.647 316.676 223.427C287.081 249.039 232.6 233.868 194.991 189.536C157.382 145.207 150.885 88.5065 180.483 62.8935C197.832 47.8792 223.732 46.879 249.771 57.5532" stroke="#1C1C1E" stroke-width="0.484276px" stroke-linecap="round" stroke-linejoin="round" fill="none"></path><path d="M230.324 254.301C228.661 258.112 226.29 261.438 223.188 264.124C206.22 278.81 173.823 268.741 150.827 241.63C127.832 214.52 122.945 180.634 139.914 165.947C140.751 165.223 141.622 164.559 142.53 163.956" stroke="#1C1C1E" stroke-width="0.484276px" stroke-linecap="round" stroke-linejoin="round" fill="none"></path><path d="M129.642 193.359C144.821 195.67 161.987 205.794 175.766 222.059C188.912 237.575 196.126 255.313 196.702 270.391" stroke="#1C1C1E" stroke-width="0.484276px" stroke-linecap="round" stroke-linejoin="round" fill="none"></path><path d="M314.214 225.219L310.24 228.535C280.686 254.123 226.28 238.966 188.724 194.677C151.167 150.389 144.68 93.742 174.237 68.1531L180.312 63.117" stroke="#1C1C1E" stroke-width="0.484276px" stroke-linecap="round" stroke-linejoin="round" fill="none"></path><path d="M307.497 230.669C305.021 234.434 302.061 237.847 298.607 240.835C269.038 266.432 214.605 251.27 177.029 206.966C139.454 162.665 132.963 106 162.535 80.4027C163.376 79.6755 164.238 78.9786 165.117 78.3176" stroke="#1C1C1E" stroke-width="0.484276px" stroke-linecap="round" stroke-linejoin="round" fill="none"></path><path d="M296.329 242.608L292.355 245.923C262.801 271.512 208.396 256.354 170.839 212.065C133.283 167.777 126.795 111.13 156.352 85.5413L162.427 80.5052" stroke="#1C1C1E" stroke-width="0.484276px" stroke-linecap="round" stroke-linejoin="round" fill="none"></path><path d="M267.278 127.214C254.185 111.954 235.218 106.731 224.913 115.547C214.608 124.363 216.867 143.881 229.96 159.141C243.052 174.401 262.02 179.624 272.325 170.808C282.63 161.992 280.371 142.474 267.278 127.214Z" stroke="#1C1C1E" stroke-width="0.484276px" stroke-linecap="round" stroke-linejoin="round" fill="none"></path><path d="M229.691 120.895C233.818 117.322 239.996 117.028 246.448 119.457C251.931 121.519 257.614 125.547 262.408 131.197C272.842 143.496 275.109 158.823 267.473 165.431C259.838 172.039 245.19 167.427 234.756 155.129C224.322 142.83 222.056 127.503 229.691 120.895Z" stroke="#1C1C1E" stroke-width="0.484276px" stroke-linecap="round" stroke-linejoin="round" fill="none"></path><path d="M321.897 75.6431C311.059 63.7362 296.578 59.259 289.554 65.6428C282.53 72.0266 285.623 86.8541 296.461 98.7609C307.3 110.668 321.78 115.145 328.804 108.761C335.828 102.377 332.736 87.5499 321.897 75.6431Z" stroke="#1C1C1E" stroke-width="0.484276px" stroke-linecap="round" stroke-linejoin="round" fill="none"></path><path d="M285.848 74.9594C293.294 74.3102 303.165 79.0739 311.081 87.883C318.063 95.6502 321.81 104.655 321.673 111.777" stroke="#1C1C1E" stroke-width="0.484276px" stroke-linecap="round" stroke-linejoin="round" fill="none"></path><path d="M225.419 128.813C233.748 130.421 242.751 135.823 249.957 144.325C256.342 151.858 260.129 160.425 261.114 168.24" stroke="#1C1C1E" stroke-width="0.484276px" stroke-linecap="round" stroke-linejoin="round" fill="none"></path><path d="M225.273 135.557C231.883 136.894 239.216 141.41 245.172 148.437C250.484 154.705 253.675 161.764 254.51 168.048" stroke="#1C1C1E" stroke-width="0.484276px" stroke-linecap="round" stroke-linejoin="round" fill="none"></path><path d="M214.236 155.597L196.019 159.215C191.923 160.029 189.634 164.436 191.283 168.372C194.786 176.738 202.168 189.972 215.883 197.832C219.251 199.762 223.471 198.486 225.127 195.012L233.003 178.507C234.046 176.319 233.69 173.684 232.096 171.811L220.058 157.663C218.609 155.961 216.383 155.17 214.236 155.597Z" stroke="#1C1C1E" stroke-width="0.484276px" stroke-linecap="round" stroke-linejoin="round" fill="none"></path><path d="M204.359 103.38C197.59 95.9445 187.654 93.9602 182.165 98.9477C176.677 103.935 177.715 114.006 184.484 121.441C191.253 128.877 201.189 130.861 206.678 125.874C212.166 120.886 211.128 110.815 204.359 103.38Z" stroke="#1C1C1E" stroke-width="0.484276px" stroke-linecap="round" stroke-linejoin="round" fill="none"></path><path d="M284.193 196.268C277.424 188.832 267.488 186.848 261.999 191.835C256.511 196.823 257.549 206.894 264.318 214.329C271.087 221.764 281.023 223.749 286.512 218.761C292 213.774 290.962 203.703 284.193 196.268Z" stroke="#1C1C1E" stroke-width="0.484276px" stroke-linecap="round" stroke-linejoin="round" fill="none"></path><path d="M287.92 175.905L310.544 196.957C314.165 200.324 319.941 198.659 321.134 193.903C322.747 187.484 323.692 177.611 320.986 163.858C320.587 161.839 319.046 160.226 317.066 159.749L293.664 154.122C290.68 153.406 287.799 155.475 287.502 158.549L286.251 171.525C286.093 173.157 286.713 174.784 287.92 175.905Z" stroke="#1C1C1E" stroke-width="0.484276px" stroke-linecap="round" stroke-linejoin="round" fill="none"></path><path d="M207.051 75.301L220.504 98.7903C221.86 101.158 224.389 102.596 227.064 102.507C230.689 102.385 236.182 102.439 241.826 103.39C244.349 103.813 246.528 101.701 246.185 99.1353L243.041 75.6594C242.75 73.4785 241.508 71.53 239.654 70.3538C234.88 67.3231 224.703 62.3456 211.901 64.5668C207.023 65.413 204.534 70.912 207.046 75.302L207.051 75.301Z" stroke="#1C1C1E" stroke-width="0.484276px" stroke-linecap="round" stroke-linejoin="round" fill="none"></path><path d="M241.934 257.225C239.822 263.702 236.288 269.319 231.277 273.657C210.139 291.953 170.74 280.54 143.279 248.165C115.818 215.79 110.69 174.714 131.829 156.418C134.082 154.469 136.544 152.855 139.175 151.569" stroke="#1C1C1E" stroke-width="0.484276px" stroke-linecap="round" stroke-linejoin="round" fill="none"></path><path d="M58.6966 174.993C58.6966 174.993 56.7358 179.833 62.6564 189.676C68.577 199.52 77.443 188.736 75.893 182.037C75.893 182.037 75.3899 178.945 73.1635 180.483C70.9371 182.02 67.9571 187.832 63.8889 182.44C63.8889 182.44 62.5206 180.646 61.8879 177.605C61.2553 174.565 59.7712 172.848 58.6941 174.994L58.6966 174.993Z" stroke="#1C1C1E" stroke-width="0.484276px" stroke-linecap="round" stroke-linejoin="round" fill="none"></path><path d="M55.6105 210.884C55.6105 210.884 57.0298 208.532 60.3446 213.357C63.6594 218.183 67.1761 221.963 71.9025 222.702C71.9025 222.702 73.761 222.889 76.1972 222.216C78.6334 221.542 82.2023 219.476 84.1194 223.174C86.0364 226.872 84.8375 231.44 80.9738 234.045C77.1101 236.649 67.8623 233.919 60.5368 222.471C60.5368 222.471 54.8567 214.792 55.6105 210.884Z" stroke="#1C1C1E" stroke-width="0.484276px" stroke-linecap="round" stroke-linejoin="round" fill="none"></path><path d="M70.6225 255.763C70.6225 255.763 74.9803 264.784 88.1082 270.866C101.236 276.949 108.146 272.221 108.146 272.221C108.146 272.221 111.027 270.331 108.77 265.911C106.514 261.492 102.271 261.644 99.6144 262.799C96.9583 263.954 87.7568 265.845 78.1252 257.145C78.1252 257.145 73.2586 251.051 70.4351 251.25C67.6116 251.449 70.6194 255.761 70.6194 255.761L70.6225 255.763Z" stroke="#1C1C1E" stroke-width="0.484276px" stroke-linecap="round" stroke-linejoin="round" fill="none"></path><path d="M95.6159 292.555C95.6159 292.555 95.4998 295.578 108.994 300.105C122.488 304.631 132.724 305.387 132.724 305.387C132.724 305.387 145.436 307.427 144.326 301.628C143.217 295.828 129.079 297.857 129.079 297.857C129.079 297.857 113.208 300.56 98.7779 292.194C98.7779 292.194 96.0634 290.919 95.6159 292.555Z" stroke="#1C1C1E" stroke-width="0.484276px" stroke-linecap="round" stroke-linejoin="round" fill="none"></path><path d="M137.762 324.951C137.762 324.951 152.927 330.087 172.544 328.089C192.162 326.09 184.398 319.846 182.593 319.305C180.789 318.764 178.384 317.475 166.807 321.365C155.23 325.255 138.843 322.318 138.843 322.318C138.843 322.318 134.321 321.247 133.78 322.655C133.239 324.063 137.761 324.948 137.761 324.948L137.762 324.951Z" stroke="#1C1C1E" stroke-width="0.484276px" stroke-linecap="round" stroke-linejoin="round" fill="none"></path><path d="M174.647 338.221C174.647 338.221 173.65 335.979 180.485 335.159C187.321 334.34 193.962 335.097 203.553 331.071C213.144 327.045 215.433 324.744 221.75 324.599C228.068 324.453 220.232 329.064 211.501 331.88C202.771 334.696 176.058 341.754 174.649 338.218L174.647 338.221Z" stroke="#1C1C1E" stroke-width="0.484276px" stroke-linecap="round" stroke-linejoin="round" fill="none"></path><path d="M213.362 335.697C213.362 335.697 231.589 326.256 245.241 315.82C258.892 305.383 246.693 318.921 234.737 326.311C222.781 333.701 205.907 340.584 213.362 335.697Z" stroke="#1C1C1E" stroke-width="0.484276px" stroke-linecap="round" stroke-linejoin="round" fill="none"></path><path d="M76.3128 148.783C76.3128 148.783 72.5668 153.976 73.2269 157.722C73.887 161.469 77.3355 158.52 79.6607 155.92C81.9858 153.32 84.29 148.503 84.0237 147.153C83.7574 145.803 82.5357 145.877 80.853 149.228C79.1703 152.58 77.8905 154.996 75.8992 155.678C73.9079 156.359 75.5471 152.977 77.0908 150.616C78.6345 148.255 77.6104 147.915 77.6104 147.915C77.6104 147.915 77.0778 147.606 76.3148 148.779L76.3128 148.783Z" stroke="#1C1C1E" stroke-width="0.484276px" stroke-linecap="round" stroke-linejoin="round" fill="none"></path><path d="M78.1694 234.388L106.542 233.292C109.232 236.735 114.574 239.511 114.574 239.511C123.874 243.985 131.956 236.106 137.708 242.63C143.461 249.154 138.03 254.398 138.03 254.398C122.068 266.21 107.089 272.766 107.089 272.766" stroke="#1C1C1E" stroke-width="0.484276px" stroke-linecap="round" stroke-linejoin="round" fill="none"></path><path d="M56.6914 210.501L86.5835 200.592" stroke="#1C1C1E" stroke-width="0.484276px" stroke-linecap="round" stroke-linejoin="round" fill="none"></path><path d="M106.894 233.49C106.894 233.49 118.223 233.272 121.677 228.662C125.131 224.051 122.22 216.734 122.22 216.734C122.22 216.734 120.205 211.715 113.908 212.535C107.612 213.354 101.452 215.343 97.7869 204.479" stroke="#1C1C1E" stroke-width="0.484276px" stroke-linecap="round" stroke-linejoin="round" fill="none"></path><path d="M66.5713 193.08L103.694 206.964C103.694 206.964 111.12 210.112 114.105 205.979C117.09 201.845 119.067 197.57 118.154 190.281C117.385 184.144 105.752 182.232 102.089 181.779C101.171 181.667 100.258 181.518 99.347 181.346L60.0965 173.794" stroke="#1C1C1E" stroke-width="0.484276px" stroke-linecap="round" stroke-linejoin="round" fill="none"></path><path d="M73.8843 159.057L103.643 182.116" stroke="#1C1C1E" stroke-width="0.484276px" stroke-linecap="round" stroke-linejoin="round" fill="none"></path><path d="M83.4896 146.042L123.321 165.531C123.321 165.531 124.76 169.544 112.707 184.381" stroke="#1C1C1E" stroke-width="0.484276px" stroke-linecap="round" stroke-linejoin="round" fill="none"></path><path d="M77.656 147.944L80.5938 149.859" stroke="#1C1C1E" stroke-width="0.484276px" stroke-linecap="round" stroke-linejoin="round" fill="none"></path><path d="M112.97 160.361L95.3757 137.46C95.3757 137.46 97.4614 128.424 102.554 125.117C102.554 125.117 105.506 123.298 108.048 125.53C110.59 127.762 139.03 152.762 139.03 152.762" stroke="#1C1C1E" stroke-width="0.484276px" stroke-linecap="round" stroke-linejoin="round" fill="none"></path><path d="M131.828 146.076L125.826 129.095C125.826 129.095 130.759 114.927 138.713 118.125" stroke="#1C1C1E" stroke-width="0.484276px" stroke-linecap="round" stroke-linejoin="round" fill="none"></path><path d="M251.387 312.109L228.051 275.115" stroke="#1C1C1E" stroke-width="0.484276px" stroke-linecap="round" stroke-linejoin="round" fill="none"></path><path d="M249.104 307.839L259.247 298.01C259.247 298.01 269.936 291.027 268.959 286.385C267.982 281.744 240.409 260.328 240.409 260.328" stroke="#1C1C1E" stroke-width="0.484276px" stroke-linecap="round" stroke-linejoin="round" fill="none"></path><path d="M259.1 275.507C259.1 275.507 263.944 268.01 268.687 262.523C273.431 257.036 273.616 254.944 273.616 254.944" stroke="#1C1C1E" stroke-width="0.484276px" stroke-linecap="round" stroke-linejoin="round" fill="none"></path><path d="M97.1257 273.559L95.7188 292.866" stroke="#1C1C1E" stroke-width="0.484276px" stroke-linecap="round" stroke-linejoin="round" fill="none"></path><path d="M69.5449 252L80.8928 234.704" stroke="#1C1C1E" stroke-width="0.484276px" stroke-linecap="round" stroke-linejoin="round" fill="none"></path><path d="M133.811 323.232L132.607 305.176" stroke="#1C1C1E" stroke-width="0.484276px" stroke-linecap="round" stroke-linejoin="round" fill="none"></path><path d="M174.609 338.326L168.993 328.168" stroke="#1C1C1E" stroke-width="0.484276px" stroke-linecap="round" stroke-linejoin="round" fill="none"></path><path d="M211.405 337.432L208.309 332.903" stroke="#1C1C1E" stroke-width="0.484276px" stroke-linecap="round" stroke-linejoin="round" fill="none"></path><path d="M224.056 325.081L212.084 281.291" stroke="#1C1C1E" stroke-width="0.484276px" stroke-linecap="round" stroke-linejoin="round" fill="none"></path><path d="M185.793 322.551L187.778 282.058C187.778 282.058 186.905 278.176 179.217 276.06C179.217 276.06 176.33 275.882 171.284 277.099C166.239 278.316 158.138 279.858 158.138 279.858" stroke="#1C1C1E" stroke-width="0.484276px" stroke-linecap="round" stroke-linejoin="round" fill="none"></path><path d="M144.268 303.501L159.093 278.203C159.093 278.203 163.899 269.701 161.686 266.544C159.474 263.388 154.111 261.463 146.891 262.512C139.671 263.561 132.08 262.525 128.646 260.304" stroke="#1C1C1E" stroke-width="0.484276px" stroke-linecap="round" stroke-linejoin="round" fill="none"></path><path d="M115.609 309.844L105.943 318.94C104.496 320.361 102.613 321.226 100.614 321.571C84.8155 324.294 73.7309 308.84 73.7309 308.84C56.9969 285.973 69.509 275.485 69.509 275.485L79.7384 265.882C79.7384 265.882 67.2262 276.37 83.9603 299.237C83.9603 299.237 95.0473 314.691 110.843 311.968C112.843 311.623 114.725 310.758 116.172 309.337C117.508 308.026 118.722 306.056 118.72 303.231" stroke="#1C1C1E" stroke-width="0.484276px" stroke-linecap="round" stroke-linejoin="round" fill="none"></path><path d="M328.572 78.419C337.225 90.9283 338.658 105.007 331.291 111.784C322.872 119.528 306.146 114.801 293.936 101.226C281.726 87.6503 278.652 70.3664 287.071 62.6226C293.638 56.5847 305.25 58.1269 315.839 65.5358" stroke="#1C1C1E" stroke-width="0.484276px" stroke-linecap="round" stroke-linejoin="round" fill="none"></path><path d="M349.162 85.6719C357.151 103.142 356.925 120.332 347.022 129.441C332.934 142.401 304.59 134.093 283.72 110.889C262.847 87.6852 257.35 58.3669 271.438 45.4075C280.066 37.471 294.04 37.5103 308.37 44.0625" stroke="#1C1C1E" stroke-width="0.484276px" stroke-linecap="round" stroke-linejoin="round" fill="none"></path><path d="M344.289 85.0919C351.944 101.024 352.04 116.767 343.14 124.955C330.706 136.391 305.424 128.761 286.67 107.911C267.916 87.0611 262.793 60.885 275.227 49.4491C282.998 42.3022 295.789 42.6015 308.869 48.9231" stroke="#1C1C1E" stroke-width="0.484276px" stroke-linecap="round" stroke-linejoin="round" fill="none"></path><path d="M340.204 133.716C338.912 136.963 337.015 139.815 334.489 142.141C320.406 155.097 292.072 146.792 271.209 123.593C250.344 100.395 244.849 71.0842 258.932 58.128" stroke="#1C1C1E" stroke-width="0.484276px" stroke-linecap="round" stroke-linejoin="round" fill="none"></path><path d="M332.584 135.49C331.974 136.261 331.305 136.984 330.571 137.657C318.151 149.084 292.897 141.46 274.165 120.626C255.432 99.7912 250.315 73.6347 262.735 62.2074C265.314 59.834 268.444 58.2837 271.956 57.4998" stroke="#1C1C1E" stroke-width="0.484276px" stroke-linecap="round" stroke-linejoin="round" fill="none"></path><path d="M334.525 141.563L346.822 128.875" stroke="#1C1C1E" stroke-width="0.484276px" stroke-linecap="round" stroke-linejoin="round" fill="none"></path><path d="M320.462 134.17L308.16 146.86" stroke="#1C1C1E" stroke-width="0.484276px" stroke-linecap="round" stroke-linejoin="round" fill="none"></path><path d="M293.169 120.448L281.32 133.492" stroke="#1C1C1E" stroke-width="0.484276px" stroke-linecap="round" stroke-linejoin="round" fill="none"></path><path d="M274.965 100.529L263.463 114.371" stroke="#1C1C1E" stroke-width="0.484276px" stroke-linecap="round" stroke-linejoin="round" fill="none"></path><path d="M263.723 72.2711L252.012 88.2654" stroke="#1C1C1E" stroke-width="0.484276px" stroke-linecap="round" stroke-linejoin="round" fill="none"></path><path d="M76.9529 239.478C76.9529 239.478 69.9749 236.097 63.8481 237.347L66.7485 247.237C66.7485 247.237 68.7198 252.3 64.1634 253.532C59.607 254.765 57.1572 248.571 57.1572 248.571L52.5048 238.076C52.5048 238.076 29.9415 237.859 21.3252 264.404L36.8375 273.681C36.8375 273.681 41.499 277.152 39.7963 281.98C39.7963 281.98 38.4241 285.198 32.9534 282.309C27.4827 279.42 19.1904 275.453 19.1904 275.453C19.1904 275.453 15.7111 304.54 39.9151 331.783L47.6743 326.054C47.6743 326.054 51.7585 323.287 56.4835 327.449C56.4835 327.449 61.4696 333.182 55.7672 338.105C50.0649 343.028 49.2818 344.217 49.2818 344.217C49.2818 344.217 65.5831 365.97 100.782 370.765L98.261 356.887C98.261 356.887 98.1822 352.998 102.271 352.321C106.359 351.644 108.728 357.93 108.728 357.93L111.595 370.712C111.595 370.712 131.483 370.372 143.484 342.831L130.11 334.126C130.11 334.126 128.099 332.69 128.212 329.226C128.325 325.762 131.81 325.956 134.233 327.118C136.656 328.281 144.249 331.575 144.249 331.575C144.249 331.575 144.878 330.515 144.615 327.911" stroke="#1C1C1E" stroke-width="0.484276px" stroke-linecap="round" stroke-linejoin="round" fill="none"></path><path d="M99.6121 371.21L101.299 378.738C101.299 378.738 133.929 376.543 143.361 342.03" stroke="#1C1C1E" stroke-width="0.484276px" stroke-linecap="round" stroke-linejoin="round" fill="none"></path><path d="M100.223 370.863C94.9348 377.947 90.2839 379.447 90.2839 379.447C55.1576 374.658 38.89 352.933 38.89 352.933C38.89 352.933 39.6714 351.747 45.362 346.83C51.0526 341.914 46.0768 336.188 46.0768 336.188C41.3616 332.032 37.2857 334.795 37.2857 334.795L29.5426 340.516C5.39111 313.309 8.8607 284.26 8.8607 284.26L18.7996 275.677" stroke="#1C1C1E" stroke-width="0.484276px" stroke-linecap="round" stroke-linejoin="round" fill="none"></path><path d="M42.7859 240.852C42.7859 240.852 19.9772 247.158 11.3349 273.786L17.4503 277.743" stroke="#1C1C1E" stroke-width="0.484276px" stroke-linecap="round" stroke-linejoin="round" fill="none"></path><path d="M111.121 370.091C111.121 370.091 108.282 375.823 101.109 378.743" stroke="#1C1C1E" stroke-width="0.484276px" stroke-linecap="round" stroke-linejoin="round" fill="none"></path><path d="M144.444 330.825L137.619 338.184" stroke="#1C1C1E" stroke-width="0.484276px" stroke-linecap="round" stroke-linejoin="round" fill="none"></path><path d="M38.5469 352.991L48.5576 344.337" stroke="#1C1C1E" stroke-width="0.484276px" stroke-linecap="round" stroke-linejoin="round" fill="none"></path><path d="M29.2285 340.707L39.2399 332.055" stroke="#1C1C1E" stroke-width="0.484276px" stroke-linecap="round" stroke-linejoin="round" fill="none"></path><path d="M11.1699 273.837L21.1807 265.183" stroke="#1C1C1E" stroke-width="0.484276px" stroke-linecap="round" stroke-linejoin="round" fill="none"></path><path d="M64.3335 237.843C64.3335 237.843 58.3722 240.597 55.9453 245.375" stroke="#1C1C1E" stroke-width="0.484276px" stroke-linecap="round" stroke-linejoin="round" fill="none"></path><path d="M39.6299 302.072C37.9406 298.525 34.5612 296.591 32.0821 297.751C29.6029 298.911 28.9627 302.727 30.652 306.273C32.3414 309.819 35.7207 311.753 38.1999 310.593C40.679 309.433 41.3193 305.618 39.6299 302.072Z" stroke="#1C1C1E" stroke-width="0.484276px" stroke-linecap="round" stroke-linejoin="round" fill="none"></path><path d="M46.9313 254.898C44.1862 252.088 40.3727 251.36 38.4134 253.273C36.4542 255.186 37.0912 259.015 39.8363 261.825C42.5813 264.636 46.3949 265.364 48.3541 263.451C50.3134 261.538 49.6763 257.709 46.9313 254.898Z" stroke="#1C1C1E" stroke-width="0.484276px" stroke-linecap="round" stroke-linejoin="round" fill="none"></path><path d="M80.3728 349.097C78.3885 345.707 74.8589 344.07 72.4892 345.441C70.1196 346.812 69.8073 350.672 71.7917 354.062C73.7761 357.452 77.3057 359.089 79.6753 357.718C82.0449 356.347 82.3572 352.488 80.3728 349.097Z" stroke="#1C1C1E" stroke-width="0.484276px" stroke-linecap="round" stroke-linejoin="round" fill="none"></path><path d="M125.4 345.379C122.402 342.84 118.54 342.479 116.774 344.571C115.008 346.664 116.007 350.419 119.005 352.958C122.003 355.496 125.865 355.858 127.631 353.766C129.397 351.673 128.398 347.918 125.4 345.379Z" stroke="#1C1C1E" stroke-width="0.484276px" stroke-linecap="round" stroke-linejoin="round" fill="none"></path><path d="M133.331 316.331C131.573 316.427 129.496 315.683 127.724 314.16C124.759 311.607 123.77 307.832 125.518 305.728C126.003 305.143 126.651 304.749 127.395 304.539" stroke="#1C1C1E" stroke-width="0.484276px" stroke-linecap="round" stroke-linejoin="round" fill="none"></path><path d="M151.012 184.406L140.479 196.485" stroke="#1C1C1E" stroke-width="0.484276px" stroke-linecap="round" stroke-linejoin="round" fill="none"></path><path d="M208.361 244.154L195.002 257.26" stroke="#1C1C1E" stroke-width="0.484276px" stroke-linecap="round" stroke-linejoin="round" fill="none"></path><path d="M174.91 217.756L173.482 219.121" stroke="#1C1C1E" stroke-width="0.484276px" stroke-linecap="round" stroke-linejoin="round" fill="none"></path><path d="M163.656 91.7904L138.566 120.813" stroke="#1C1C1E" stroke-width="0.484276px" stroke-linecap="round" stroke-linejoin="round" fill="none"></path><path d="M165.011 137.132L141.285 159.189" stroke="#1C1C1E" stroke-width="0.484276px" stroke-linecap="round" stroke-linejoin="round" fill="none"></path><path d="M193.931 189.839L170.17 212.301" stroke="#1C1C1E" stroke-width="0.484276px" stroke-linecap="round" stroke-linejoin="round" fill="none"></path><path d="M239.424 225.366L215.41 248.206" stroke="#1C1C1E" stroke-width="0.484276px" stroke-linecap="round" stroke-linejoin="round" fill="none"></path><path d="M284.652 234.909L258.701 257.504" stroke="#1C1C1E" stroke-width="0.484276px" stroke-linecap="round" stroke-linejoin="round" fill="none"></path><path d="M310.175 66.1708L300.631 79.1331" stroke="#1C1C1E" stroke-width="0.484276px" stroke-linecap="round" stroke-linejoin="round" fill="none"></path><path d="M330.479 88.7874L320.342 101.99" stroke="#1C1C1E" stroke-width="0.484276px" stroke-linecap="round" stroke-linejoin="round" fill="none"></path><path d="M361.876 24.6488C361.876 24.6488 363.975 26.9002 368.92 26.2049" stroke="#1C1C1E" stroke-width="0.484276px" stroke-linecap="round" stroke-linejoin="round" fill="none"></path><path d="M358.664 28.0213C358.664 28.0213 361.368 31.9814 370.509 29.9594" stroke="#1C1C1E" stroke-width="0.484276px" stroke-linecap="round" stroke-linejoin="round" fill="none"></path><path d="M355.973 31.1332C355.973 31.1332 357.964 36.1889 366.657 34.3518" stroke="#1C1C1E" stroke-width="0.484276px" stroke-linecap="round" stroke-linejoin="round" fill="none"></path><path d="M354.879 35.5115C354.879 35.5115 357.615 39.1893 363.52 37.7104" stroke="#1C1C1E" stroke-width="0.484276px" stroke-linecap="round" stroke-linejoin="round" fill="none"></path><path d="M372.238 12.2467L376.545 21.522" stroke="#1C1C1E" stroke-width="0.484276px" stroke-linecap="round" stroke-linejoin="round" fill="none"></path></svg>