<svg width="540" height="540" fill="none" viewBox="95.827 73.166 348.993 391.079" xmlns="http://www.w3.org/2000/svg"><path d="M0 0h540v540H0z" style="fill: rgba(251, 247, 239, 0);"></path><path fill="#fff" d="M398.566 351.101a53.01 53.01 0 0 1-5.681 6.647c-36.973 36.974-120.828 13.067-187.298-53.403s-90.297-149.984-53.62-187.094c-28.281 39.348-3.238 117.397 59.54 180.174 66.481 66.482 150.075 90.65 186.718 54.006l.341-.33Z"></path><path fill="#FD3" d="m398.569 351.099-.307.318c-36.644 36.644-120.237 12.499-186.719-54.006-62.777-62.777-87.82-140.826-59.539-180.174l.204-.204c36.974-36.974 120.828-13.056 187.299 53.403 62.743 62.755 87.57 140.997 59.062 180.663Z"></path><path fill="#fff" d="m263.525 95.696 32.303-10s-2.954-7.953-14.51-7.544c-13.135.466-18.964 11.203-17.793 17.544ZM196.997 239.339l-22.35 6.817-3.408 1.046-3.352 1.045-3.591 1.136-1.761.546-62.97 19.498c-1.341-17.101 9.317-31.167 26.678-29.77a52.71 52.71 0 0 1 1.307-8.601 42.598 42.598 0 0 1 2.329-7.181 31.499 31.499 0 0 1 12.976-15.215 26.603 26.603 0 0 1 7.636-2.954 25.629 25.629 0 0 1 12.419.318 25.108 25.108 0 0 1 17.43 17.896c15.214-1.102 16.657 15.419 16.657 15.419ZM440.551 306.594l-13.26 4.079-11.544 3.556-5.988 1.852-52.858 16.26-13.408 4.125c-2.659-20.203 12.283-35.167 28.668-33.156a27.569 27.569 0 0 1 13.169 5.488c.67-1.068 3.147-3.329 8.124-2.272a15.733 15.733 0 0 1 6.045-9.806 28.565 28.565 0 0 1 8.953-4.875 33.548 33.548 0 0 1 7.124-1.579c10.647-1.08 21.794 3.17 24.975 16.328Z"></path><path fill="#F8FFEA" d="m344.345 175.71-.181-.193a173.507 173.507 0 0 0-2.421-2.523l-6.022 27.611H246.14l11.146-51.131h58.619a305.487 305.487 0 0 0-17.043-12.839H260.15l4.363-20.089a204.558 204.558 0 0 0-12.408-5.454l-74.503 342.225a6.589 6.589 0 0 0 12.862 2.806l10.715-49.153h89.547l-10.169 46.654a6.588 6.588 0 0 0 2.68 6.818 6.588 6.588 0 0 0 7.325.133 6.59 6.59 0 0 0 2.88-4.145l59.187-271.698a223.915 223.915 0 0 0-8.284-9.022Zm-39.7 167.107-11.101 51.302h-89.559l11.181-51.29 89.479-.012Zm2.875-12.839h-89.548l11.442-52.517h89.548l-11.442 52.517Zm25.383-116.522v-.068l-11.169 51.21h-89.513l11.158-51.199h89.536l-.012.057Z"></path><path stroke="#1C1C1E" stroke-linejoin="round" stroke-width="1.5" d="M343.437 206.991c0 1.701-.67 3.333-1.864 4.545a6.43 6.43 0 0 1-4.545 1.806h-93.637l1.079-4.92 1.727-7.953h90.843c.435.001.868.043 1.295.125a6.329 6.329 0 0 1 3.238 1.772c.298.283.561.599.784.943.226.344.424.705.591 1.08a6.5 6.5 0 0 1 .489 2.602ZM329.812 271.018a6.321 6.321 0 0 1-1.898 4.545 1.242 1.242 0 0 1-.181.159v.057l-.375.273a.57.57 0 0 1-.216.17.718.718 0 0 1-.193.125 2.249 2.249 0 0 1-.444.261H326.358l-.398.182-.216.08a.886.886 0 0 1-.261.079 1.929 1.929 0 0 1-.421.114c-.147 0-.295.068-.443.102-.147.034-.295 0-.443 0h-.216a.697.697 0 0 1-.204 0h-94.331l1.068-4.931 1.738-7.897h91.172a6.406 6.406 0 0 1 4.545 1.875c.292.287.555.603.784.943.24.337.442.699.603 1.079.366.881.529 1.832.477 2.784ZM301.693 400.537c.007.474-.047.948-.159 1.409-.01.116-.037.231-.079.341a5.697 5.697 0 0 1-.523 1.318 5.11 5.11 0 0 1-.682 1.011 3.83 3.83 0 0 1-.409.454c-.102.103-.204.182-.295.262a3.084 3.084 0 0 0-.443.318 4.2 4.2 0 0 1-.534.341c-.148.096-.304.18-.466.25l-.261.113a3.016 3.016 0 0 1-.534.193c-.12.052-.246.086-.375.103h-95.729l2.795-12.828h91.286c.272-.018.546-.018.818 0 .266.019.529.069.784.147a6.89 6.89 0 0 1 1.795.773l.319.227c.204.148.409.307.59.466.106.079.201.171.284.273.08.091.171.182.25.284.173.19.332.391.478.602a6.52 6.52 0 0 1 1.09 3.943Z"></path><path fill="#1C1C1E" stroke="#1C1C1E" stroke-linejoin="round" stroke-width="1.5" d="M246.731 213.399v.023l-3.34-.023 1.079-4.92 2.261 4.92ZM232.765 277.45l-3.34-.011 1.068-4.931 2.272 4.942ZM218.518 342.816h-3.34l1.079-4.943 2.261 4.943ZM204.533 406.969l-3.329-.011 1.08-4.932 2.249 4.943ZM341.586 211.592a39.665 39.665 0 0 1-2.534 3.147c-.875 1.034-1.795 1.977-2.67 2.841l-.488.488-.239.228-.239.238-.454.432-.886.818c-.137.136-.284.261-.409.375l-.762.67-.591.5c-.636.546-1.136.898-1.249 1.034-.114.137 0 0-.057 0l1.966-8.999h4.067a6.43 6.43 0 0 0 4.545-1.772ZM327.654 275.824a15.9 15.9 0 0 1-.761 1.011 46.558 46.558 0 0 1-3.409 3.909l-.602.602-.875.853-.284.272-.557.512c-.409.386-.807.738-1.136 1.068l-.705.613c-.795.671-1.42 1.136-1.818 1.477l-.272.216h-.057l1.954-8.999h4.625c.067.01.136.01.204 0h.659c.148 0 .296 0 .443-.102.144-.022.285-.06.421-.114a.886.886 0 0 0 .261-.079l.216-.08.398-.182H326.506c.157-.07.306-.157.443-.261a.708.708 0 0 0 .194-.125.578.578 0 0 0 .216-.17l.374-.273s-.09-.136-.079-.148ZM313.27 341.419c-.318.42-.636.852-.988 1.261a47.845 47.845 0 0 1-4.159 4.545c-.5.5-.989.966-1.488 1.386-.5.421-.909.83-1.33 1.137-1.363 1.136-2.272 1.908-2.477 1.999l1.954-8.999h5.193c.162-.013.322-.043.477-.091.133-.003.263-.03.387-.079h.17c.147-.039.292-.088.432-.148.175-.052.345-.117.511-.193.16-.07.316-.15.466-.239.299-.164.581-.358.841-.579h.011ZM299.543 405.401c-.25.319-.489.671-.739.978a41.913 41.913 0 0 1-1.25 1.522 49.501 49.501 0 0 1-3.511 3.659c-.557.534-1.136 1.022-1.636 1.477-.125.114-.239.227-.375.329l-.875.75-.772.637c-.091.079-.194.147-.273.227l-.682.523c-.114.102-.239.181-.318.25l-.159.113-.102.08.295-1.364 1.67-7.624h5.432a2.37 2.37 0 0 0 .59-.114 1.39 1.39 0 0 0 .375-.102 2.96 2.96 0 0 0 .534-.193l.262-.114c.162-.07.318-.153.466-.25.186-.1.365-.213.534-.34a3.09 3.09 0 0 1 .443-.319v-.056l.091-.069Z"></path><path stroke="#1C1C1E" stroke-linejoin="round" stroke-width="1.5" d="M315.906 149.348h-58.562l.329-1.466.762-3.409 1.727-7.953h38.711a267.903 267.903 0 0 1 17.033 12.828Z"></path><path fill="#1C1C1E" stroke="#1C1C1E" stroke-linejoin="round" stroke-width="1.5" d="M260.684 149.35v.023h-3.34v-.023l.329-1.466.75-3.443.012.023 2.249 4.886Z"></path><path stroke="#1C1C1E" stroke-linejoin="round" stroke-width="1.5" d="M150.491 205.695a26.597 26.597 0 0 0-7.635 2.954c-12.999-37.496-10.931-71.583 9.169-91.672a48.47 48.47 0 0 1 2.875-2.659c-17.396 21.134-17.964 54.756-4.409 91.377Z"></path><path stroke="#1C1C1E" stroke-linejoin="round" stroke-width="1.5" d="m252.106 110.944-40.563 186.457a291.21 291.21 0 0 1-40.28-50.108l3.409-1.045 22.327-6.909s-1.443-16.475-16.658-15.385a25.109 25.109 0 0 0-17.43-17.895 25.617 25.617 0 0 0-12.419-.319c-13.555-36.621-12.987-70.242 4.409-91.376 21.929-19.021 58.141-19.066 97.205-3.42ZM315.713 336.408a6.394 6.394 0 0 1-1.887 4.545c-.174.172-.36.331-.556.477.08-.079.153-.167.215-.261a6.374 6.374 0 0 1-4.658 1.693h-93.649l2.795-12.84h91.32c.647.001 1.291.1 1.909.296.145.034.286.083.42.148.134.049.263.109.386.181.191.073.374.164.546.273.16.084.313.183.454.296.231.159.448.337.648.534l.409.409c.085.097.165.2.239.306.096.103.18.218.25.341.113.148.204.33.306.489.212.379.383.778.512 1.193.061.182.11.368.147.557.113.446.178.903.194 1.363ZM249.947 329.978h-15.169a290.318 290.318 0 0 1-14.259-11.703l2.272-10.226a292.237 292.237 0 0 0 27.156 21.929Z"></path><path stroke="#1C1C1E" stroke-linejoin="round" stroke-width="1.5" d="m301.396 358.054-1.784 8.17a224.016 224.016 0 0 1-46.654-23.407h16.919a219.768 219.768 0 0 0 31.519 15.237ZM229.425 277.45l1.068-4.931 1.738-7.897 11.158-51.199 1.08-4.92 1.727-7.954 11.146-51.131.33-1.465.75-3.409 6.101-28.031a245.92 245.92 0 0 1 34.349 20.1 288.182 288.182 0 0 1 17.044 12.839c.579.466 1.136.909 1.693 1.409l.136.114.341.284c.216.182.477.409.807.67l.295.239.125.114.352.306.602.512.33.272.693.591 2.42 2.08c.144.113.292.238.443.375l.921.806.477.421.977.863.5.443 2.079 1.864a295.247 295.247 0 0 1 10.045 9.612c.863.864 1.704 1.716 2.545 2.58l-6.022 27.61M331.007 222.363h-.057l-9.192 42.166M395.727 354.1c-1 1.193-2.046 2.34-3.159 3.408-18.055 18.067-47.336 21.589-80.298 12.681l1.704-7.795c32.94 9.954 62.618 7.863 81.753-8.294Z"></path><path stroke="#1C1C1E" stroke-linejoin="round" stroke-width="1.5" d="M409.758 316.07c-.966 14.839-5.522 27.849-13.976 37.939-19.134 16.214-48.858 18.305-81.753 8.328l4.829-22.531 6.681-30.679 27.088-124.373c31.009 35.223 50.427 73.856 55.779 107.193a28.559 28.559 0 0 0-8.954 4.875 15.733 15.733 0 0 0-6.045 9.805c-4.976-1.136-7.454 1.137-8.124 2.273a27.569 27.569 0 0 0-13.169-5.488c-16.385-2.011-31.326 12.953-28.667 33.155l13.407-4.124 52.904-16.373Z"></path><path fill="#1C1C1E" stroke="#1C1C1E" stroke-linejoin="round" stroke-width="1.5" d="m390.796 161.28-36.712 11.363-9.727 3.068-.181-.194c-4.545-4.988-10.113-10.305-15.01-14.714-.705-.648-1.409-1.261-2.08-1.863l-.5-.444-.977-.863-.477-.421-1.363-1.136-2.421-2.079-.693-.591-.329-.273-.602-.511-.353-.307-.42-.352c-.33-.261-.591-.489-.807-.67l-.341-.284-.136-.114a22.914 22.914 0 0 1 9.931-3.602 32.57 32.57 0 0 1 15.964 2c11.919-30.951 49.052-15.885 47.234 11.987Z"></path><path stroke="#1C1C1E" stroke-linejoin="round" stroke-width="1.5" d="m263.525 95.696 32.303-10s-2.954-7.953-14.51-7.544c-13.135.466-18.964 11.203-17.793 17.544ZM196.997 239.339l-22.35 6.817-3.408 1.046-3.352 1.045-3.591 1.136-1.761.546-62.97 19.498c-1.341-17.101 9.317-31.167 26.678-29.77a52.71 52.71 0 0 1 1.307-8.601 42.598 42.598 0 0 1 2.329-7.181 31.499 31.499 0 0 1 12.976-15.215 26.603 26.603 0 0 1 7.636-2.954 25.629 25.629 0 0 1 12.419.318 25.108 25.108 0 0 1 17.43 17.896c15.214-1.102 16.657 15.419 16.657 15.419ZM229.427 277.438l-11.453 52.529-1.727 7.954-1.08 4.942-5.908 27.145-5.272 24.145-1.716 7.897-1.08 4.932-10.726 49.142a6.588 6.588 0 0 1-12.873-2.806l19.168-88.071 12.499-57.323M252.105 110.943a205.539 205.539 0 0 1 12.408 5.454M293.544 394.107l1.352-6.261 2.988-13.726 1.727-7.896 1.784-8.17.194-.886 1.136-5.272"></path><path stroke="#1C1C1E" stroke-linejoin="round" stroke-width="1.5" d="m335.712 200.548 6.022-27.61c.818.84 1.625 1.67 2.42 2.522l.182.193a257.563 257.563 0 0 1 8.295 9.09l-27.077 124.351-6.681 30.678-4.909 22.555-1.704 7.806-18.805 86.229a6.594 6.594 0 1 1-12.885-2.806l8.192-37.621M440.551 306.594l-13.26 4.079-11.544 3.556-5.988 1.852-52.858 16.26-13.408 4.125c-2.659-20.203 12.283-35.167 28.668-33.156a27.569 27.569 0 0 1 13.169 5.488c.67-1.068 3.147-3.329 8.124-2.272a15.733 15.733 0 0 1 6.045-9.806 28.565 28.565 0 0 1 8.953-4.875 33.548 33.548 0 0 1 7.124-1.579c10.647-1.08 21.794 3.17 24.975 16.328ZM211.543 297.411l-2.102 9.658-.182.852a299.566 299.566 0 0 1-3.852-3.795 288.935 288.935 0 0 1-42.847-54.187l1.761-.545 3.59-1.137 3.352-1.045a291.223 291.223 0 0 0 40.28 50.199ZM395.728 354.045l.024-.024M318.975 277.449l-11.544 52.961"></path></svg>