<svg width="540" height="540" fill="none" viewBox="146.331 119.784 247.338 301.079" xmlns="http://www.w3.org/2000/svg"><path d="M0 0h540v540H0z" style="fill: rgba(251, 247, 239, 0);"></path><path fill="#F8C100" d="m178.631 402.72-6.167-2.826c-1.027-.514-5.481-3.34-6.423-4.111-8.992-7.365-15.244-11.818-15.244-20.64V171.315c0-9.078 7.365-16.443 16.443-16.443h116.987c6.937 0 7.622 1.884 26.892 14.645l5.138 14.473-2.826 34-12.932 173.682h-70.141l-51.727 11.048Z"></path><path fill="#FD3" d="M186.334 167.716c-9.078 0-16.443 7.365-16.443 16.443v90.609l60.035-107.052h-43.592Z"></path><path fill="#FFD233" d="M303.321 167.716h-22.952L169.891 368.29v19.697c0 9.078 7.365 16.443 16.443 16.443h133.173l.257-180.533v-39.738c0-9.078-7.365-16.443-16.443-16.443Z"></path><path fill="#FFE771" d="m229.926 167.716-60.035 107.052v93.522l110.478-200.574h-50.443Z"></path><path fill="#DEDDD6" d="m346.826 416.336-16.357-6.252.685-140.281 15.587 5.652.085 140.881Z"></path><path fill="#fff" d="M249.964 222.7c-.514-.942-1.884-.857-2.398 0l-18.241 32.886s-2.827 5.31-6.681.343c0 0-2.654-3.511.172-9.078 2.055-4.111 15.929-30.746 23.209-44.705 1.884-3.683 7.194-3.769 9.163-.086l24.323 43.763 59.007-83.758c.428-.599-.086-1.37-.771-1.284l-7.108.856s-9.678 1.713-11.647-9.592c0 0-2.398-13.018 12.846-17.814 8.222-2.569 22.438-6.594 33.914-9.848 8.736-2.484 17.386 4.367 16.957 13.531l-2.483 52.927s-.086 13.189-12.504 14.045c0 0-11.733.428-12.332-12.76l-.172-14.474c0-.771-1.027-1.113-1.456-.514l-67.229 89.924c-2.74 3.597-8.221 3.34-10.619-.514l-25.95-43.848Z"></path><path fill="#fff" d="m364.814 149.39-30.06 9.164c-5.395 1.627-11.048-1.371-12.675-6.766-1.627-5.396 1.37-11.048 6.766-12.675l30.06-9.164c5.396-1.627 11.048 1.37 12.675 6.766 1.627 5.31-1.37 11.048-6.766 12.675Z"></path><path fill="#000" d="m191.899 362.553-4.454 41.365 4.796.342-.342-41.707ZM260.159 362.553l-4.282 41.365 4.625.342"></path><path fill="#fff" d="M207.832 415.822h42.393v-11.39h-42.393v11.39ZM277.375 404.433v11.99h42.393v-82.045h-.172l-.085 70.055h-42.136Z"></path><path fill="#DEDDD6" d="m191.906 408.714 15.33 6.337v-10.619h-15.244l-.086 4.282ZM260.504 410.341l15.758 6.68v-12.589h-15.758v5.909Z"></path><path fill="#F7FFC2" d="m207.75 353.217.086 51.214h42.392v-51.214H207.75ZM277.375 404.433h42.136l.085-70.055h-42.307l.086 70.055Z"></path><path fill="#FFE771" d="m192.673 346.453-.685 57.98h15.245v-51.728l-14.56-6.252ZM260.504 328.298v76.136h15.758v-69.456l-15.758-6.68Z"></path><path fill="#fff" d="M346.826 275.542v3.597l1.97-3.597h-1.97Z"></path><path fill="#FBF7EF" d="M346.914 370.947v45.476h42.393V293.955l-42.393 76.992Z"></path><path fill="#fff" d="M389.305 275.542h-40.509l-1.97 3.597.086 91.808 42.393-76.992v-18.413Z"></path><path stroke="#1C1C1E" stroke-linecap="round" stroke-linejoin="round" stroke-width="1.5" d="m311.632 169.859-18.498-12.247c-2.57-1.713-5.653-2.655-8.993-2.655H167.154c-9.078 0-16.443 7.365-16.443 16.443v203.828c0 3.426 1.028 6.681 2.826 9.25 0 0 13.189 16.015 29.204 19.441M259.559 404.347h-9.42M319.682 222.528v111.763"></path><path stroke="#1C1C1E" stroke-linecap="round" stroke-linejoin="round" stroke-width="1.5" d="M191.478 404.347h-5.31c-9.078 0-16.443-7.365-16.443-16.443V184.076c0-9.078 7.365-16.443 16.443-16.443h116.987c9.078 0 16.443 7.365 16.443 16.443v4.453"></path><path fill="#FFE771" stroke="#1C1C1E" stroke-linecap="round" stroke-linejoin="round" stroke-width="1.5" d="m193.186 346.539 14.473 6.68h42.478l-16.271-6.68h-40.68Z"></path><path stroke="#1C1C1E" stroke-linecap="round" stroke-linejoin="round" stroke-width="1.5" d="M250.137 353.133v62.605l-42.307.085-15.244-6.766v-62.604M207.664 353.134v62.604"></path><path fill="#FFE771" stroke="#1C1C1E" stroke-linecap="round" stroke-linejoin="round" stroke-width="1.5" d="m261.445 327.61 16.786 6.766 41.451-.086-16.872-6.68h-41.365Z"></path><path stroke="#1C1C1E" stroke-linecap="round" stroke-linejoin="round" stroke-width="1.5" d="M319.683 334.29v82.046h-43.25l-15.929-6.681V327.61M277.199 334.291v82.045"></path><path fill="#DEDDD6" stroke="#1C1C1E" stroke-linecap="round" stroke-linejoin="round" stroke-width="1.5" d="m330.982 268.776 16.786 7.023 41.451-.428-15.758-6.681-42.479.086Z"></path><path stroke="#1C1C1E" stroke-linecap="round" stroke-linejoin="round" stroke-width="1.5" d="M389.223 275.454v140.882h-43.678l-15.758-6.68V268.774M346.742 275.455v140.881"></path><path fill="#F8FAE9" stroke="#1C1C1E" stroke-linecap="round" stroke-linejoin="round" stroke-width="1.5" d="M249.88 222.615c-.514-.942-1.884-.857-2.398 0l-18.241 32.886s-2.827 5.31-6.681.343c0 0-2.654-3.511.172-9.078 2.055-4.111 15.929-30.746 23.209-44.705 1.884-3.683 7.194-3.769 9.163-.086l24.323 43.763 59.007-83.758c.428-.599-.086-1.37-.771-1.284l-7.108.856s-9.678 1.713-11.647-9.592c0 0-2.398-13.018 12.846-17.813 8.222-2.57 22.438-6.595 33.914-9.849 8.736-2.484 17.386 4.367 16.957 13.531l-2.483 52.927s-.086 13.189-12.504 14.045c0 0-11.733.428-12.332-12.76l-.172-14.474c0-.771-1.027-1.113-1.456-.514l-67.229 89.924c-2.74 3.597-8.221 3.34-10.619-.514l-25.95-43.848Z"></path><path stroke="#1C1C1E" stroke-linecap="round" stroke-linejoin="round" stroke-width="1.5" d="M192.244 404.262h41.28M273.264 404.775h29.546M373.467 268.69v137.456M373.464 406.146h-34.771M373.467 406.146l9.249 4.54M302.811 331.036v72.882M233.529 404.26v-55.239M246.804 412.226l-13.275-7.964M316.085 412.226l-13.274-7.964"></path></svg>