<svg width="540" height="540" fill="none" viewBox="123.669 70.576 279.712 398.201" xmlns="http://www.w3.org/2000/svg"><g clip-path="url(#a)"><path d="M540 0H0v540h540V0Z" style="fill: rgba(251, 247, 239, 0);"></path><path fill="#FD3" d="M400.815 399.594a.785.785 0 0 1-.018.253c0 .043-.017.07-.026.105a.697.697 0 0 1-.096.244c-.183.34-.541.663-1.082.934l-2.951 1.467h-.873v-.157c-.044-.498-.445-.996-1.213-1.371l-64.873-32.546-.105-.061c.053-.105.096-.21.149-.314a238.284 238.284 0 0 0 1.519-3.335c.069-.149.139-.297.2-.446a.154.154 0 0 0 .035-.07l.026-.052.105.061 54.563 27.195 13.418 6.687h.008c.393.201.699.428.873.672.105.122.184.236.236.358.035.061.053.131.07.192.017.053.026.105.035.157v.027Z"></path><path fill="#FD3" d="m396.633 402.596-.437.218-.602.297c.105-.166.157-.349.166-.515h.873Z"></path><path fill="#FD3" d="m396.196 402.814-.594.306h-.008v-.009l.602-.297Z"></path><path fill="#F0F5FF" d="M395.758 402.5v.096l-76.125.026c.131-4.513.34-8.721.62-12.737.104-1.58.235-3.361 1.091-4.933 2.828-5.203 5.456-10.546 7.962-15.932.07-.149.139-.288.2-.437a.738.738 0 0 0 .062-.122l.104.061 64.873 32.546c.768.376 1.17.873 1.213 1.371v.061ZM319.634 402.622l76.126-.026a1.084 1.084 0 0 1-.166.515l-77.636 38.867-.157.078v-.017c.218-2.934.401-5.867.576-8.739.175-2.838.358-5.771.585-8.652.375-4.574.436-9.341.497-13.951l.018-.89c.035-2.48.087-4.872.157-7.185Z"></path><path fill="#fff" stroke="#1C1C1E" stroke-miterlimit="10" stroke-width="1.5" d="M386.961 189.78a8.172 8.172 0 0 1-7.508 8.792c-4.496.358-8.433-3.012-8.791-7.508-1.362-17.234-6.067-33.847-13.977-49.387-11.148-21.886-28.084-40.159-48.975-52.835a8.165 8.165 0 0 1-2.741-11.227c2.34-3.867 7.368-5.09 11.227-2.75 23.492 14.257 42.532 34.799 55.06 59.4 8.887 17.461 14.169 36.134 15.705 55.515Z"></path><path fill="#FD3" d="M353.17 310.66c-.366-2.392-.559-4.566-.576-6.644l-.017-3.684c-.062-10.781-.123-21.93.593-32.886.166-2.419-.227-4.592-1.187-6.644-1.79-3.85-3.108-7.84-4.156-11.803l-1.108.288-.428.113.794 3.012c-.48-1.073-1.248-1.938-2.959-2.235-1.973-.34-3.387-1.99-4.505-3.561-1.266-1.773-2.226-3.789-2.854-6.016-.987-3.465-1.231-6.966-1.293-11.148 0-.166.018-.34.044-.515.07-.559.166-1.327-.506-1.659-.472-.236-.891-.113-1.24.105a4.78 4.78 0 0 0-.585.48c-.131.122-.27.253-.401.349a24.008 24.008 0 0 0-2.384 1.965c.14-.149.288-.297.428-.437.183-.183.358-.358.533-.515.183-.175.375-.34.567-.498.026-.026.044-.035.061-.052.166-.14.332-.271.498-.402.279-.218.559-.419.847-.602.139-.096.288-.192.436-.288.629-.41 1.292-.794 2.034-1.196l-.358-.306-1.004-.846c-2.741 1.554-5.377 3.684-8.023 6.477-2.304 2.41-2.863 5.073-2.994 8.329-.288 7.394-.227 13.811.183 19.617.603 8.485-1.056 15.836-5.072 22.497-.497.838-.925 1.781-1.283 2.593l-.262.585c-.305.681-.812 1.484-1.99 1.711-2.881.55-5.666.899-8.032-.349.052.096.096.201.14.306.043.104.078.209.104.314.027.07.044.131.062.192.069.244.104.428.104.428l7.709.646-4.644 6.373s-.009.008-.009.017c-.009 0-.009.009-.009.009l-1.135 1.554.218-.122.83-.463-17.39 18.988h-.009l-.035.044-4.994 5.456 9.464-9.743h.008l.009-.008 11.952-12.293s.008-.008.008-.017l2.366-2.427a114.443 114.443 0 0 1-4.906 6.356c-5.194 6.242-11.375 12.178-18.901 18.132-.471.376-.934.751-1.388 1.126-.427.35-.855.699-1.266 1.057-.41.349-.811.707-1.204 1.056a17.84 17.84 0 0 0-.646.585c-.192.175-.384.349-.576.532-.236.219-.472.446-.708.673-.235.227-.462.445-.689.672a53.512 53.512 0 0 0-2.401 2.532c-.253.279-.498.567-.742.846-.201.236-.384.463-.576.69a.07.07 0 0 0-.035.035.9.9 0 0 0-.079.096c-.026.035-.061.061-.078.096-.018.018-.035.044-.053.061-.663.821-1.3 1.659-1.894 2.506-.236.34-.471.681-.698 1.03-.315.454-.603.917-.891 1.379-.035.061-.078.123-.113.184-.018.026-.035.061-.053.087-.026.044-.052.087-.078.14a4.897 4.897 0 0 0-.245.419 43.557 43.557 0 0 0-1.667 3.064c-.079.14-.149.288-.21.437a2.474 2.474 0 0 0-.209.436c-4.357 9.097-6.164 19.722-5.657 32.948.122 3.073.585 6.146 1.039 9.114l.13.873c-2.33-8.145-5.709-26.129 2.812-43.633l.209-.446c.079-.148.148-.296.227-.445a48.9 48.9 0 0 1 1.746-3.134c.079-.14.166-.279.253-.419a.77.77 0 0 1 .088-.14 2.7 2.7 0 0 1 .165-.27 54.385 54.385 0 0 1 6.74-8.669 58.679 58.679 0 0 1 2.217-2.218l.044-.044c12.257-13.392 21.432-30.843 23.702-35.575.07-.148.14-.279.192-.402.105-.218.192-.401.244-.532.123-.279.236-.489.35-.646a.894.894 0 0 1 .104-.131l.088-.087a.133.133 0 0 1 .043-.035c.018-.018.044-.035.07-.053-.716-.497-1.379-1.161-1.99-2.043-.332-.497-.725-.969-1.135-1.449a32.628 32.628 0 0 1-.524-.637c-6.268-7.735-10.808-16.526-15.286-25.597a19.372 19.372 0 0 0-.664-1.266l-.2-.367c-.655-1.187-1.406-2.531-1.808-4.024-.899-3.353-1.815-6.705-2.732-10.057l-1.44-5.247c-.533-1.929-1.022-3.894-1.485-5.753-1.047-4.2-2.121-8.547-3.692-12.659-3.501-9.149-6.138-18.491-8.015-28.426l-1.361.262-.437.079 1.074 5.936.768 4.898a149.4 149.4 0 0 0-1.17-3.012l-.366-.916-.254.951c-1.117 4.164-3.902 7.255-8.066 8.931-4.129 1.659-7.936.803-11.978-2.706l-.672-.585-.576-3.763-.428.061-1.353.175c2.383 17.652 5.212 35.444 9.429 52.8l.052.209c.157.568.541 1.939-.925 2.445-.559.192-1.066.454-1.677.794-1.056.568-2.261 1.231-3.736 1.188-.55-.018-.777-.481-.934-.786l-.088-.192a56.257 56.257 0 0 0-.759-1.371c-.576-1.004-1.222-2.139-1.65-3.326l-2.444-6.783c-3.632-10.031-6.897-19.084-9.97-28.26-9.385-27.98-18.481-50.094-28.643-69.597a76.979 76.979 0 0 0-4.505-7.49c-.419-.611-.489-.611-.899-.428-5.587 2.479-9.603 5.369-12.65 9.071-1.44 1.746-2.383 2.898-1.423 5.561 3.606 9.891 6.452 19.939 9.612 31.97 5.447 20.76 11.358 39.076 18.071 55.995a287.533 287.533 0 0 0 2.602 6.286l.113.279c1.851 4.348 3.763 8.852 5.221 13.506l3.099 9.856-1.327-.323c-1.135-.288-1.502-1.013-1.711-1.449l-.088-.149-2.601-4.618a1372.9 1372.9 0 0 1-6.155-11l-.742.41-.384.21c1.589 2.846 3.143 5.718 4.592 8.617l.794 1.588c.961 1.939 1.956 3.938 3.03 5.85.358.637.454 1.082.314 1.475-.157.454-.602.751-1.065 1.013-5.561 3.108-12.868 7.22-20.07 11.428-.568.331-.978.48-1.345.48-.113 0-.218-.018-.323-.044-.436-.113-.785-.454-1.196-1.179-1.999-3.5-3.701-7.219-5.343-10.807a370.162 370.162 0 0 0-1.99-4.287c-6.067-12.79-11.253-25.579-15.408-38.029l-1.31-3.911c-4.749-14.212-9.664-28.897-13.898-43.546-.463-1.624-.873-3.282-1.275-4.889-.716-2.916-1.466-5.928-2.566-8.774a2.159 2.159 0 0 1-.14-.471l-.428.087-.288.061c2.122 9.918 4.522 18.901 7.342 27.413 1.493 4.531 2.942 9.053 4.548 14.082 4.374 13.689 8.879 27.771 14.44 41.206 3.78 9.141 8.127 18.22 12.335 27.003l2.663 5.578c.34.716.69 1.458.402 2.244-.192.524-.62.943-1.327 1.266-.105.044-.201.096-.297.14l-.21.104c-.847.454-2.034 1.092-3.579-.558-4.95-5.273-9.655-10.835-14.212-16.221l-1.188-1.406a945.138 945.138 0 0 1-2.776-3.265 191.556 191.556 0 0 0-3.728-4.19l-.131-.14c-3.902-4.304-7.944-8.747-10.703-14.282-3.474-6.941-7.953-13.969-13.313-20.883-.855-1.091-1.449-1.248-2.523-.69-1.335.716-2.724 1.362-4.068 1.982l-.236.105c-1.597.733-3.588 1.65-5.404 2.689-1.268.733-1.623 1.711-1.065 2.933a856.198 856.198 0 0 1 2.392 5.221c2.855 6.259 5.815 12.728 8.888 19.031.768 1.563 1.51 3.178 2.226 4.741l.375.821c2.226 4.845 4.514 9.821 7.674 14.256l.017.044h.018a35.914 35.914 0 0 0 1.554 2.06c3.273 4.025 6.547 8.329 10.301 13.558 1.659 2.296 3.379 4.601 5.046 6.836l.201.27c5.456 7.299 11.096 14.85 15.242 23.406 7.046 14.536 15.845 28.443 23.528 40.133.087.139.174.27.262.392l.052.079 1.51-.611s.07.105.184.262l.262-.131.392-.192a163.919 163.919 0 0 1 2.096 3.169l-.393.192-.262.131c.201.305.34.515.358.55l-1.519.62c.07.104.139.218.218.331a2917.66 2917.66 0 0 1 4.051 6.085l1.108 1.668c.655.995 1.31 1.982 1.956 2.968 4.793 7.281 9.708 14.745 16.77 20.184.664.524.908 1.179.777 2.078l-.157 1.1a740.533 740.533 0 0 0-3.955 31.481l-1.187 11.524 1.345.663c.48-4.33.916-8.424 1.3-12.178.07-.795.288-1.292.707-1.615.516-.437 1.249-.411 1.816-.35.943.114 1.877.227 2.811.35l1.642.209c4.251.533 8.642 1.091 12.964 1.205 11.41.314 23.545.506 35.4-.864 10.38-1.196 19.817-2.995 28.835-5.5 1.397-.393 2.244-.629 2.864-.123.628.516.576 1.415.48 2.916l-.742 12.196 1.606-.803c.218-2.907.401-5.779.559-8.486.192-3.073.366-5.849.585-8.66.375-4.54.436-9.271.497-13.846l.018-.969c.035-2.479.087-4.871.157-7.176.131-4.531.34-8.748.62-12.764.104-1.527.227-3.431 1.143-5.116 2.567-4.714 5.168-9.917 7.953-15.906l.053-.113c.052-.096.096-.201.139-.306.035-.07.061-.122.079-.175l-.803-.454c.07-.139.131-.288.201-.436a421.956 421.956 0 0 0 1.51-3.335 5.16 5.16 0 0 0 .201-.437l.82.454c.044-.104.079-.174.105-.253 2.444-5.386 4.775-10.834 7.036-16.098l.611-1.449c1.258-2.951 2.515-5.893 3.789-8.827.943-2.173 1.799-4.356 2.75-6.792 1.86-4.766 3.789-9.69 6.469-14.221 1.196-2.008 1.589-3.78 1.292-5.736Zm-193.989-50.059-.445-.113.043.462c.376 3.92.734 7.622-3.405 9.691-1.693.847-3.142 1.074-4.321.69.297-.009.585-.035.882-.096 2.261-.454 4.828-.969 5.596-3.772 1.274-4.627.925-8.52-1.057-11.899a123.81 123.81 0 0 0-1.501-2.523v-.018l8.197 9.49c-1.065-1.17-1.554-1.301-3.989-1.912Zm92.354-11.847.856.062.445.034 8.145.568.577.044-3.257 1.545h-.026c-.026.009-.052.026-.079.035-.043.026-.087.043-.13.061-.053.026-.105.052-.149.07l-5.02 2.383-1.362-4.81v.008Zm-27.29 18.517-.506.262c-.506.271-.995.524-1.466.524-.14 0-.289-.026-.428-.087-.428-.175-.734-.62-.978-1.397-2.82-9.15-6.373-18.211-9.813-26.968-3.291-8.363-6.687-17.015-9.445-25.763-.192-.602-.385-1.213-.568-1.824-2.505-8.076-4.749-16.326-6.923-24.322-2.383-8.748-4.845-17.793-7.63-26.584-.279-.873-.567-1.737-.855-2.601-.795-2.384-1.615-4.854-2.157-7.377-.358-1.668 0-2.846 1.179-3.929 2.252-2.078 4.732-4.217 7.551-5.867 1.275-.742 2.148-.969 2.916-.759.76.209 1.388.838 2.087 2.104 4.539 8.224 8.555 16.866 12.449 25.221l.838 1.799c3.291 7.054 5.989 14.439 8.599 21.572 1.082 2.968 2.2 6.032 3.352 9.036.122.305.218.611.279.899l.018.044 2.514 7.272-.017.026 1.702 4.871a2922.717 2922.717 0 0 0 6.434 18.264 719.526 719.526 0 0 0 3.431 9.332c1.03 2.768 2.06 5.544 3.055 8.32.35.969.891 1.877 1.406 2.759.637 1.091 1.301 2.218 1.65 3.501.288 1.03.498 1.807-.873 2.497-5.963 2.994-11.986 6.137-17.801 9.175Z"></path><path fill="#FD3" d="m347.825 248.998-1.109.288-.428.113-.794-3.02c.035.122.061.253.087.384l.594 2.698-.472-.079c-2.654-.428-4.042-2.139-5.142-3.719-2.732-3.929-3.396-8.486-3.876-13.191-.052-.472-.061-.935-.079-1.406-.017-.812-.043-1.58-.244-2.357-.262-1.022.096-2.174.969-3.099.262-.28.567-.524.882-.725-.899.489-1.694.908-2.41 1.301l-.358-.306-1.004-.847a24.477 24.477 0 0 1 6.338-2.531c.804-.201 1.354-.192 1.685.026.323.209.55.733.699 1.641.218 1.336.427 2.663.637 3.99l.105.663c.62 3.929 1.178 7.465 1.868 11.018.585 2.986 1.248 6.067 2.052 9.158Z"></path><path fill="#FD3" d="m346.291 249.399.794 3.012c-.48-1.074-1.248-1.938-2.959-2.235-1.973-.34-3.387-1.99-4.505-3.562-1.266-1.772-2.226-3.789-2.855-6.015-.986-3.466-1.23-6.967-1.292-11.148 0-.166.018-.341.044-.515.07-.559.166-1.327-.506-1.659-.768-.384-1.38.174-1.825.585-.131.122-.27.253-.401.349a23.995 23.995 0 0 0-2.384 1.964c1.746-1.851 3.239-2.811 5.404-3.989.716-.393 1.51-.812 2.41-1.301-.315.201-.62.445-.882.724-.873.926-1.231 2.078-.969 3.1.201.777.227 1.545.244 2.357.018.471.027.934.079 1.405.48 4.706 1.144 9.263 3.876 13.192 1.1 1.58 2.488 3.291 5.142 3.719l.471.078-.593-2.697a5.43 5.43 0 0 0-.087-.385l.794 3.021ZM340.484 139.066a8.187 8.187 0 0 1-2.68 11.254c-.192.113-.384.227-.585.323a8.183 8.183 0 0 1-10.668-3.012c-16.569-26.942-45.326-44.978-76.929-48.235-4.487-.462-7.752-4.478-7.289-8.974.462-4.487 4.478-7.761 8.974-7.29 17.818 1.833 35.296 7.787 50.529 17.199 15.645 9.673 29.002 23.065 38.648 38.735ZM331.507 364.245l-.026.052c0 .026-.017.052-.035.07a9.69 9.69 0 0 1-.201.445 227.275 227.275 0 0 1-1.519 3.335c-.052.105-.096.209-.148.314l-.384-.218-.803-.454c.069-.14.131-.288.2-.437a374.92 374.92 0 0 0 1.511-3.334 5.12 5.12 0 0 0 .2-.437l.821.454.384.21Z"></path><path fill="#ABA3FF" d="M318.889 441.444v.018l-2.392 1.222-45.466 23.17c-1.667.847-4.365.847-6.024 0l-37.87-19.311-.149-.079c.446-4.103.943-8.669 1.388-13.226.061-.698.236-1.118.559-1.379.41-.35 1.013-.332 1.537-.262 1.449.174 2.889.366 4.338.55 4.435.576 9.027 1.178 13.541 1.292 11.715.331 24.164.532 36.325-.899 10.625-1.249 20.306-3.126 29.612-5.762 1.345-.385 2.078-.594 2.532-.21.463.384.419 1.196.332 2.663-.271 4.505-.533 9.018-.803 13.523l2.557-1.301-.017-.009Z"></path><path fill="#FD3" d="m315.096 288.379-4.645 6.373s-.008.009-.008.017c-.009 0-.009.009-.009.009l-1.135 1.554-1.51.856 1.222-.454.288-.402.218-.122.83-.463-17.39 18.988h-.009l-.035.044-4.994 5.456-1.894 1.196-6.19 3.903-.663.419 2.261-2.261c12.257-13.393 21.432-30.844 23.702-35.576.07-.148.14-.279.192-.402.105-.218.192-.401.244-.532.123-.279.236-.489.35-.646a.881.881 0 0 1 .104-.131l.088-.087a.133.133 0 0 1 .043-.035c.026-.018.044-.035.07-.044 0 0 0-.009.009-.009a.273.273 0 0 1 .087-.035h.035c.166-.034.314.062.437.219.026.026.043.052.069.087.044.061.079.131.114.201.052.096.096.201.14.305.043.105.078.21.104.315.027.069.044.131.061.192.07.244.105.427.105.427l7.709.647v-.009Z"></path><path fill="#FD3" d="m287.91 320.235 23.807-24.488a114.072 114.072 0 0 1-4.906 6.356c-5.195 6.242-11.376 12.178-18.901 18.132ZM307.785 297.187l1.51-.856-.288.402-1.222.454Z"></path><path fill="#FD3" d="m279.164 325.752 8.747-5.518c-6.277 4.968-10.703 9.726-13.924 14.973-.035.061-.079.122-.114.183-.017.026-.035.061-.052.087-.026.044-.052.088-.079.14-.087.14-.174.279-.244.419a43.557 43.557 0 0 0-1.667 3.064c-.079.14-.149.288-.21.437a2.474 2.474 0 0 0-.209.436c-4.357 9.097-6.164 19.722-5.658 32.948.123 3.073.585 6.146 1.039 9.114l.131.873c-2.331-8.145-5.709-26.129 2.811-43.633l.21-.445c.078-.149.148-.297.227-.446a48.418 48.418 0 0 1 1.746-3.134c.078-.139.166-.279.253-.419a.725.725 0 0 1 .087-.139c.053-.096.105-.184.166-.271a54.327 54.327 0 0 1 6.74-8.669ZM265.885 188.768l-.436.079c.105.646.192 1.292.288 1.938.768 5.386-4.112 12.537-9.673 14.169a8.379 8.379 0 0 1-2.418.349c-1.877 0-3.806-.593-5.526-1.728-1.929-1.275-3.309-3.047-3.911-4.994l-.428.061-1.353.175c-1.013-7.456-1.938-14.885-2.855-22.245l-.541-4.295a3095.9 3095.9 0 0 0-1.135-9.036l-2.017-15.522c-.174-1.388-.244-2.855.428-4.225.664-1.345 1.737-2.008 3.082-1.956 4.749.236 9.428 1.519 14.029 2.785l2.165.594c1.825.497 2.549 2.592 3.186 4.443l.201.603c3.719 10.511 5.5 21.668 7.229 32.458l.139.882c.28 1.755.585 3.492.908 5.203l-1.362.262Z"></path><path fill="#FD3" d="m266.521 194.783.768 4.898a149.4 149.4 0 0 0-1.17-3.012l-.366-.917-.254.952c-1.117 4.164-3.902 7.255-8.066 8.931-4.129 1.659-7.936.803-11.978-2.707l-.672-.584-.576-3.763c.602 1.947 1.982 3.719 3.911 4.993 1.72 1.135 3.649 1.729 5.526 1.729.821 0 1.633-.113 2.418-.349 5.561-1.633 10.441-8.783 9.673-14.169-.096-.646-.183-1.292-.288-1.938l1.074 5.936ZM261.557 249.46l-8.66 4.103-1.362-4.81 1.301.096 8.145.567.576.044ZM242.925 255.598c.288 1.03.497 1.807-.873 2.496-5.963 2.995-11.987 6.138-17.801 9.176l-.506.262c-.506.27-.995.523-1.467.523-.139 0-.288-.026-.428-.087-.427-.174-.733-.62-.977-1.397-2.82-9.149-6.373-18.211-9.813-26.967-3.291-8.364-6.687-17.015-9.446-25.763-.192-.602-.384-1.213-.567-1.825l2.113-.654c.977 1.816 3.465 3.448 6.015 3.806 7.027.995 10.737-2.951 14.439-9.629l.349-.638.245.69c.349.987.689 1.973 1.038 2.96l1.703 4.871a2922.717 2922.717 0 0 0 6.434 18.264 710.321 710.321 0 0 0 3.431 9.332c1.03 2.768 2.06 5.544 3.055 8.32.349.969.891 1.877 1.406 2.759.637 1.091 1.3 2.217 1.65 3.501Z"></path><path fill="#F0F5FF" d="M230.606 399.819c.541.419.725.917.611 1.668-.061.384-.113.768-.166 1.161l-91.333.026a.776.776 0 0 1-.018-.314c.044-.498.454-.987 1.205-1.371h.009l65.449-32.572c.087.122.166.253.253.384 1.362 2.034 2.715 4.068 4.059 6.094l1.109 1.667c.655.987 1.31 1.973 1.956 2.96 4.784 7.272 9.725 14.797 16.866 20.297ZM139.719 402.675l91.333-.027a754.653 754.653 0 0 0-3.946 31.438l-1.205 11.681-85.536-42.769-.323-.166h-.009l-.131-.07-.061-.026-.122-.061Z"></path><path fill="#FD3" d="M228.078 446.849c-.009.044-.009.096-.018.14l-2.173-1.083s.008-.096.017-.139l.149.078 2.025 1.004ZM222.742 201.252l2.515 7.272-.018.026c-.349-.986-.689-1.973-1.039-2.959l-.244-.69-.349.637c-3.702 6.679-7.412 10.625-14.44 9.63-2.549-.358-5.037-1.991-6.015-3.806.55.401 1.048.776 1.563 1.134 4.077 2.89 8.852 2.768 12.755-.34 2.234-1.772 3.649-4.112 4.635-5.963.891-1.65 1.1-3.212.637-4.941Z"></path><path fill="#FD3" d="M222.748 201.252c.463 1.729.253 3.291-.637 4.941-.987 1.851-2.401 4.191-4.636 5.963-3.902 3.108-8.678 3.23-12.755.341-.515-.358-1.012-.734-1.562-1.135l-2.113.654c-2.505-8.075-4.749-16.325-6.923-24.322-2.383-8.748-4.845-17.792-7.63-26.583-.279-.873-.567-1.738-.855-2.602-.795-2.383-1.615-4.854-2.157-7.377-.358-1.667 0-2.846 1.179-3.928 2.252-2.078 4.731-4.217 7.551-5.867 1.275-.742 2.148-.969 2.916-.76.76.21 1.388.838 2.087 2.104 4.539 8.224 8.555 16.867 12.449 25.222l.838 1.798c3.291 7.054 5.988 14.44 8.599 21.572 1.082 2.969 2.2 6.033 3.352 9.036.122.306.218.611.279.899l.018.044ZM215.74 269.677c.358.638.454 1.083.315 1.476-.157.454-.603.751-1.065 1.012-5.561 3.108-12.868 7.22-20.071 11.428-.567.332-.977.48-1.344.48-.114 0-.218-.017-.323-.043-.437-.114-.786-.454-1.196-1.179-1.999-3.501-3.702-7.22-5.343-10.808a396.176 396.176 0 0 0-1.99-4.286c-6.068-12.79-11.253-25.58-15.409-38.029l-1.309-3.911c-4.749-14.213-9.664-28.897-13.898-43.546-.463-1.624-.873-3.283-1.275-4.889-.716-2.916-1.467-5.928-2.567-8.774a2.169 2.169 0 0 1-.139-.471c-.192-.943.279-1.537.838-2.034a62.153 62.153 0 0 1 7.429-5.649c.786-.506 1.362-.681 1.886-.55.663.166 1.1.83 1.475 1.51 8.276 15.182 16.203 30.12 22.174 45.912 1.161 3.073 2.523 6.147 3.833 9.106l.663 1.519c.541 1.222.646 2.41.332 3.719-.541 2.218-1.379 5.081-3.117 7.63-2.68 3.929-6.041 5.605-10.275 5.125l-.183-.026c-.218-.035-.402-.061-.585 0 1.685.847 3.413.986 5.142.41 3.605-1.196 7.036-5.325 9.908-11.96l.166-.376.332.245s.096.07.157.096c.157.096.341.201.428.401.454.996.917 1.982 1.397 2.969l.052.122c3.143 6.495 6.792 12.79 10.336 18.909 1.598 2.759 3.222 5.562 4.811 8.399 1.589 2.846 3.142 5.718 4.592 8.617l.794 1.588c.96 1.939 1.956 3.938 3.029 5.85v.008Z"></path><path fill="#FD3" d="m208.439 253.004-.742.411-.384.209a663.22 663.22 0 0 0-4.811-8.398c-3.544-6.12-7.193-12.415-10.336-18.91l-.052-.122-3.702-8.241-.663-1.519c-1.31-2.96-2.672-6.033-3.833-9.106-5.971-15.793-13.898-30.73-22.174-45.912-.375-.681-.812-1.345-1.475-1.51-.524-.131-1.1.043-1.886.55a62.042 62.042 0 0 0-7.429 5.648c-.559.498-1.03 1.091-.838 2.034l-.428.087-.288.062c-.07-.315-.131-.629-.201-.943-.175-.83.096-1.31.681-1.938 3.247-3.466 7.481-5.85 11.218-7.954.262-.151.515-.029.759.367l.123.192c2.723 4.234 5.133 8.914 7.263 13.052l.637 1.222a201.147 201.147 0 0 0 1.755 3.361c5.509 10.424 10.223 21.372 14.789 31.97l.183.41c2.89 6.705 5.884 13.637 9.053 20.368 3.929 8.337 8.32 16.561 12.781 24.61ZM208.594 366.742l-.655.323a360.843 360.843 0 0 1-2.095-3.169l.655-.323a168.679 168.679 0 0 1 2.095 3.169ZM208.302 367.614l-1.773.725-.157.079v-.018c-.087-.14-.174-.27-.27-.41l1.85-.926c.201.306.341.516.358.55h-.008Z"></path><path fill="#FD3" d="m207.934 367.065-1.851.925c-.698-1.056-1.396-2.113-2.095-3.178l1.851-.916c.419.646 1.51 2.296 2.095 3.169Z"></path><path fill="#FD3" d="M206.357 368.4v.017l-65.449 32.573h-.009c-.751.384-1.161.873-1.204 1.37a.763.763 0 0 0 .017.315v.017l-.428-.209-3.02-1.511c-1.633-.812-1.912-1.973-.28-2.785l67.736-33.759c.044.061.079.122.123.174l.131.21a922.022 922.022 0 0 0 2.365 3.588h.018ZM205.846 363.896l-1.458.724-.393.192-.131-.209c-.043-.053-.078-.114-.122-.175l.157-.078.253-.105 1.511-.611s.07.105.183.262ZM188.414 217.952l3.702 8.241c-.48-.986-.943-1.973-1.397-2.968-.087-.201-.271-.305-.428-.401a.762.762 0 0 1-.157-.096l-.332-.245-.166.376c-2.872 6.634-6.303 10.764-9.908 11.96-1.729.576-3.457.436-5.142-.41.183-.07.367-.044.585 0l.183.026c4.234.48 7.595-1.196 10.275-5.125 1.738-2.549 2.576-5.413 3.117-7.63.314-1.31.21-2.497-.332-3.719v-.009ZM154.987 253.022l8.189 9.49c-1.065-1.17-1.554-1.301-3.99-1.912l-.445-.113.044.462c.375 3.92.733 7.622-3.405 9.691-1.694.847-3.143 1.074-4.321.69.296-.009.585-.035.881-.096 2.261-.454 4.828-.969 5.596-3.772 1.275-4.627.926-8.52-1.056-11.899a128.64 128.64 0 0 0-1.502-2.523v-.018h.009ZM139.884 402.77l-.087-.043s.035 0 .044.008c.017 0 .034.018.043.035ZM139.73 402.692l.062.035s-.053 0-.062-.035Z"></path><path stroke="#1C1C1E" stroke-miterlimit="10" stroke-width="1.5" d="m207.804 367.814-1.283.524-65.606 32.651h-.009c-.751.384-1.161.873-1.205 1.371a.776.776 0 0 0 .018.314c.017.096.122.009.166.096l-.585-.288-3.021-1.51c-1.632-.812-1.912-1.973-.279-2.785l67.893-33.838 1.109-.446 2.802 3.92v-.009ZM400.801 399.567v.026a.783.783 0 0 1-.018.253c-.008.044-.017.07-.026.105a.713.713 0 0 1-.096.245c-.183.34-.541.663-1.082.934l-3.37 1.676-.611.314h-.009c.122-.209.175-.419.166-.62v-.061c-.044-.497-.445-.995-1.214-1.37l-64.872-32.547-1.048-.593 1.956-4.191 1.012.568 54.563 27.194 13.418 6.688h.009c.392.2.698.427.873.672.104.122.183.236.235.358.035.061.053.131.07.192.018.052.026.105.035.157h.009Z" clip-rule="evenodd"></path><path fill="#fff" stroke="#1C1C1E" stroke-miterlimit="10" stroke-width="1.5" d="M337.216 150.643c-3.754 1.912-8.416.646-10.668-3.004-16.578-26.95-45.335-44.977-76.929-48.234a8.182 8.182 0 0 1-7.298-8.974c.463-4.488 4.478-7.762 8.974-7.29 17.827 1.842 35.305 7.787 50.538 17.207 15.636 9.664 29.001 23.056 38.639 38.736a8.175 8.175 0 0 1-3.256 11.567v-.008Z"></path><path stroke="#1C1C1E" stroke-width="1.5" d="m139.715 402.673.183.088.131.069h.009l.323.166 85.685 42.848 2.174 1.083 36.971 18.49c1.624.812 4.26.812 5.884 0l44.384-22.192 2.496-1.248 78.675-39.382"></path><path fill="#000" d="M279.829 325.334a83.972 83.972 0 0 0-3.43 4.251l-.149.201a45.952 45.952 0 0 0-2.968 4.138c-.079.114-.148.227-.21.314-.174.262-.27.411-.27.411-.07.096-.114.174-.157.253l-.096.166a4.682 4.682 0 0 0-.245.393 47.539 47.539 0 0 0-1.737 3.125l-.428.873c-5.954 12.222-6.111 24.584-4.801 33.882 0-.14-.009-.271-.018-.402-.515-13.427 1.301-23.964 5.701-33.157.044-.122.122-.288.227-.463.043-.113.122-.279.209-.427a44.371 44.371 0 0 1 1.668-3.082c.113-.175.236-.358.358-.533a.462.462 0 0 1 .061-.078c1.047-1.519 2.357-3.161 3.928-4.907.018-.017.035-.043.053-.061.017-.035.052-.061.078-.096.018-.035.053-.061.079-.096a.07.07 0 0 1 .035-.035c1.528-1.72 3.256-3.535 5.116-5.412a180.546 180.546 0 0 1 3.186-3.161l-6.19 3.903Zm-42.75 77.646-.149-.149c-.061-.061-.113-.122-.174-.183-.891-.934-1.808-1.894-2.811-2.68-9.603-7.543-15.994-17.661-22.175-27.439a639.51 639.51 0 0 0-3.012-4.741 7.714 7.714 0 0 1-.261-.41c-.018-.026-.035-.044-.053-.07a5.576 5.576 0 0 0-.209-.323c-.009-.017-.027-.035-.035-.052l-.262.131c.201.305.34.515.358.55l-1.519.62c.07.104.139.218.218.331a2917.66 2917.66 0 0 1 4.051 6.085l1.108 1.668c.655.995 1.31 1.982 1.956 2.968 4.793 7.281 9.708 14.745 16.77 20.184.664.524.908 1.179.777 2.078l-.157 1.1h.917c.166-.14.366-.253.637-.34.803-.254 1.432.017 1.947.34.166.105.323.227.463.332l.113.087c.419.306.856.664 1.292 1.004 1.423 1.152 2.759 2.226 4.391 2.733-1.615-1.092-2.916-2.48-4.181-3.824Zm42.75-77.646a83.972 83.972 0 0 0-3.43 4.251l-.149.201a45.952 45.952 0 0 0-2.968 4.138c-.079.114-.148.227-.21.314-.174.262-.27.411-.27.411-.07.096-.114.174-.157.253l-.096.166a4.682 4.682 0 0 0-.245.393 47.539 47.539 0 0 0-1.737 3.125l-.428.873c-5.954 12.222-6.111 24.584-4.801 33.882 0-.14-.009-.271-.018-.402-.515-13.427 1.301-23.964 5.701-33.157.044-.122.122-.288.227-.463.043-.113.122-.279.209-.427a44.371 44.371 0 0 1 1.668-3.082c.113-.175.236-.358.358-.533a.462.462 0 0 1 .061-.078c1.047-1.519 2.357-3.161 3.928-4.907.018-.017.035-.043.053-.061.017-.035.052-.061.078-.096.018-.035.053-.061.079-.096a.07.07 0 0 1 .035-.035c1.528-1.72 3.256-3.535 5.116-5.412a180.546 180.546 0 0 1 3.186-3.161l-6.19 3.903Zm-42.75 77.646-.149-.149c-.061-.061-.113-.122-.174-.183-.891-.934-1.808-1.894-2.811-2.68-9.603-7.543-15.994-17.661-22.175-27.439a639.51 639.51 0 0 0-3.012-4.741 7.714 7.714 0 0 1-.261-.41c-.018-.026-.035-.044-.053-.07a5.576 5.576 0 0 0-.209-.323c-.009-.017-.027-.035-.035-.052l-.262.131c.201.305.34.515.358.55l-1.519.62c.07.104.139.218.218.331a2917.66 2917.66 0 0 1 4.051 6.085l1.108 1.668c.655.995 1.31 1.982 1.956 2.968 4.793 7.281 9.708 14.745 16.77 20.184.664.524.908 1.179.777 2.078l-.157 1.1h.917c.166-.14.366-.253.637-.34.803-.254 1.432.017 1.947.34.166.105.323.227.463.332l.113.087c.419.306.856.664 1.292 1.004 1.423 1.152 2.759 2.226 4.391 2.733-1.615-1.092-2.916-2.48-4.181-3.824Zm42.75-77.646a83.972 83.972 0 0 0-3.43 4.251l-.149.201a45.952 45.952 0 0 0-2.968 4.138c-.079.114-.148.227-.21.314-.174.262-.27.411-.27.411-.07.096-.114.174-.157.253l-.096.166a4.682 4.682 0 0 0-.245.393 47.539 47.539 0 0 0-1.737 3.125l-.428.873c-5.954 12.222-6.111 24.584-4.801 33.882 0-.14-.009-.271-.018-.402-.515-13.427 1.301-23.964 5.701-33.157.044-.122.122-.288.227-.463.043-.113.122-.279.209-.427a44.371 44.371 0 0 1 1.668-3.082c.113-.175.236-.358.358-.533a.462.462 0 0 1 .061-.078c1.047-1.519 2.357-3.161 3.928-4.907.018-.017.035-.043.053-.061.017-.035.052-.061.078-.096.018-.035.053-.061.079-.096a.07.07 0 0 1 .035-.035c1.528-1.72 3.256-3.535 5.116-5.412a180.546 180.546 0 0 1 3.186-3.161l-6.19 3.903Zm-42.75 77.646-.149-.149c-.061-.061-.113-.122-.174-.183-.891-.934-1.808-1.894-2.811-2.68-9.603-7.543-15.994-17.661-22.175-27.439a639.51 639.51 0 0 0-3.012-4.741 7.714 7.714 0 0 1-.261-.41c-.018-.026-.035-.044-.053-.07a5.576 5.576 0 0 0-.209-.323c-.009-.017-.027-.035-.035-.052l-.262.131c.201.305.34.515.358.55l-1.519.62c.07.104.139.218.218.331a2917.66 2917.66 0 0 1 4.051 6.085l1.108 1.668c.655.995 1.31 1.982 1.956 2.968 4.793 7.281 9.708 14.745 16.77 20.184.664.524.908 1.179.777 2.078l-.157 1.1h.917c.166-.14.366-.253.637-.34.803-.254 1.432.017 1.947.34.166.105.323.227.463.332l.113.087c.419.306.856.664 1.292 1.004 1.423 1.152 2.759 2.226 4.391 2.733-1.615-1.092-2.916-2.48-4.181-3.824Zm45.046-77.716c-.235.227-.462.445-.689.672a53.512 53.512 0 0 0-2.401 2.532c-.253.279-.498.567-.742.847-.201.235-.384.462-.576.689 1.528-1.72 3.256-3.535 5.116-5.412-.236.218-.472.445-.708.672Zm0 0c-.235.227-.462.445-.689.672a53.512 53.512 0 0 0-2.401 2.532c-.253.279-.498.567-.742.847-.201.235-.384.462-.576.689 1.528-1.72 3.256-3.535 5.116-5.412-.236.218-.472.445-.708.672Zm71.045-14.606c-.366-2.392-.559-4.566-.576-6.643l-.017-3.685c-.062-10.781-.123-21.93.593-32.886.166-2.418-.227-4.592-1.187-6.644-1.79-3.85-3.108-7.84-4.156-11.803-.803-3.091-1.466-6.172-2.051-9.158-.69-3.553-1.249-7.089-1.868-11.018l-.105-.663c-.21-1.327-.419-2.654-.637-3.99-.149-.908-.376-1.431-.699-1.641-.332-.218-.882-.227-1.685-.026-2.2.541-4.304 1.37-6.338 2.532-2.741 1.554-5.377 3.684-8.023 6.477-2.304 2.41-2.863 5.073-2.994 8.329-.288 7.394-.227 13.811.183 19.617.603 8.485-1.056 15.836-5.072 22.497-.497.838-.925 1.781-1.283 2.593l-.262.585c-.305.681-.812 1.484-1.99 1.711-2.881.55-5.666.899-8.032-.349a4.734 4.734 0 0 1-.742-.463h-.009c-.716-.497-1.379-1.161-1.99-2.043-.332-.497-.725-.969-1.135-1.449a32.628 32.628 0 0 1-.524-.637c-6.268-7.735-10.808-16.526-15.286-25.597a19.372 19.372 0 0 0-.664-1.266l-.2-.366c-.655-1.188-1.406-2.532-1.808-4.025-.899-3.352-1.815-6.705-2.732-10.057l-1.44-5.247c-.533-1.929-1.022-3.894-1.485-5.753-1.047-4.199-2.121-8.547-3.692-12.659-3.501-9.149-6.138-18.491-8.015-28.425a183.358 183.358 0 0 1-.907-5.204l-.14-.881c-1.729-10.791-3.51-21.948-7.229-32.459l-.2-.603c-.638-1.85-1.362-3.946-3.187-4.443l-2.165-.594c-4.601-1.266-9.28-2.549-14.029-2.785-1.344-.052-2.418.611-3.082 1.956-.672 1.37-.602 2.837-.427 4.225l2.016 15.522c.384 3.012.76 6.024 1.135 9.036l.541 4.295c.917 7.36 1.842 14.789 2.855 22.245 2.383 17.652 5.212 35.444 9.429 52.8l.052.209c.157.568.541 1.939-.925 2.445-.559.192-1.066.454-1.677.794-1.056.568-2.261 1.231-3.736 1.188-.55-.018-.777-.48-.934-.786l-.088-.192a56.257 56.257 0 0 0-.759-1.371c-.576-1.004-1.222-2.139-1.65-3.326l-2.444-6.783c-3.632-10.031-6.897-19.084-9.97-28.26-9.385-27.98-18.481-50.094-28.643-69.597a76.979 76.979 0 0 0-4.505-7.49c-.419-.611-.489-.611-.899-.428-5.587 2.479-9.603 5.369-12.65 9.071-1.44 1.746-2.383 2.898-1.423 5.561 3.606 9.891 6.452 19.939 9.612 31.97 5.447 20.76 11.358 39.076 18.071 55.995a287.533 287.533 0 0 0 2.602 6.286l.113.279c1.851 4.348 3.763 8.852 5.221 13.506l3.099 9.856-1.327-.323c-1.135-.288-1.502-1.013-1.711-1.449l-.088-.149-2.601-4.618a1372.9 1372.9 0 0 1-6.155-11c-4.461-8.049-8.852-16.273-12.781-24.61-3.169-6.731-6.163-13.663-9.053-20.368l-.183-.41c-4.566-10.599-9.28-21.546-14.789-31.97a208.884 208.884 0 0 1-1.754-3.361l-.638-1.222c-2.13-4.138-4.539-8.818-7.263-13.052l-.122-.192c-.245-.396-.498-.518-.76-.367-3.736 2.104-7.97 4.488-11.218 7.953-.585.629-.855 1.109-.681 1.939.07.314.131.628.201.942 2.122 9.918 4.522 18.901 7.342 27.413 1.493 4.531 2.942 9.053 4.548 14.082 4.374 13.689 8.879 27.771 14.44 41.206 3.78 9.141 8.127 18.22 12.335 27.003l2.663 5.578c.34.716.69 1.458.402 2.244-.192.524-.62.943-1.327 1.266-.105.044-.201.096-.297.14l-.21.104c-.847.454-2.034 1.092-3.579-.558-4.95-5.273-9.655-10.834-14.212-16.221l-1.188-1.406a945.138 945.138 0 0 1-2.776-3.265 191.556 191.556 0 0 0-3.728-4.19l-.131-.14c-3.902-4.304-7.944-8.747-10.703-14.282-3.474-6.941-7.953-13.969-13.313-20.883-.855-1.091-1.449-1.248-2.523-.69-1.335.716-2.724 1.362-4.068 1.982l-.236.105c-1.597.733-3.588 1.65-5.404 2.689-1.268.733-1.623 1.711-1.065 2.933a856.198 856.198 0 0 1 2.392 5.221c2.855 6.259 5.815 12.728 8.888 19.032.768 1.562 1.51 3.177 2.226 4.74l.375.821c2.226 4.845 4.514 9.821 7.674 14.256l.017.044h.018a35.568 35.568 0 0 0 1.554 2.06c3.273 4.025 6.547 8.329 10.301 13.558 1.659 2.296 3.379 4.601 5.046 6.836l.201.27c5.456 7.299 11.096 14.85 15.242 23.406 7.046 14.536 15.845 28.443 23.528 40.133.087.139.174.27.262.392l.052.079c.017.035.044.061.07.096l.148.244s.018.027.018.035c.087.123.166.245.244.367.541.812 1.074 1.633 1.615 2.445a.94.94 0 0 0 .07.113l.14.201s.017.026.035.043l.235.367c.009 0 .009.009.009.009.018.026.026.044.044.07.07.104.139.218.218.331a2917.66 2917.66 0 0 1 4.051 6.085l1.108 1.668c.655.995 1.31 1.982 1.956 2.968 4.793 7.281 9.708 14.745 16.77 20.184.664.524.908 1.179.777 2.078l-.157 1.1a740.533 740.533 0 0 0-3.955 31.481l-1.187 11.524 1.345.663c.48-4.33.916-8.424 1.3-12.178.07-.795.288-1.292.707-1.615.516-.437 1.249-.411 1.816-.349.943.113 1.877.226 2.811.349l1.642.209c4.251.533 8.642 1.092 12.964 1.205 11.41.314 23.545.506 35.4-.864 10.38-1.196 19.817-2.995 28.835-5.5 1.397-.393 2.244-.629 2.864-.123.628.516.576 1.415.48 2.916l-.742 12.196 1.606-.803c.218-2.907.401-5.779.559-8.485.192-3.073.366-5.85.585-8.661.375-4.54.436-9.271.497-13.846l.018-.969c.035-2.479.087-4.871.157-7.176.131-4.531.34-8.748.62-12.764.104-1.527.227-3.431 1.143-5.116 2.567-4.714 5.168-9.917 7.953-15.906l.053-.113c.052-.096.096-.201.139-.306.035-.07.061-.122.079-.175.035-.061.061-.113.087-.165l.053-.114a288.198 288.198 0 0 0 1.519-3.326c.069-.149.131-.297.192-.437l.052-.104s.017-.044.026-.062c.044-.104.079-.174.105-.253 2.444-5.386 4.775-10.834 7.036-16.098l.611-1.449c1.258-2.951 2.515-5.893 3.789-8.827.943-2.173 1.799-4.356 2.75-6.792 1.86-4.766 3.789-9.69 6.469-14.221 1.196-2.008 1.589-3.78 1.292-5.736ZM210.653 239.76c-3.125-7.927-6.661-16.91-9.455-25.789-2.723-8.599-5.124-17.442-7.455-25.989l-.087-.332c-2.366-8.695-4.819-17.679-7.578-26.409-.279-.873-.568-1.728-.856-2.593-.759-2.278-1.615-4.854-2.173-7.429-.385-1.807.017-3.143 1.309-4.339 2.139-1.973 4.723-4.217 7.63-5.919 1.388-.812 2.357-1.048 3.248-.803.899.244 1.597.934 2.357 2.313 4.47 8.093 8.433 16.596 12.265 24.82l1.039 2.226c3.274 7.019 5.963 14.362 8.556 21.459l.052.149a599.777 599.777 0 0 0 3.352 9.027c.131.331.236.663.297.969l2.593 7.464-.017.026 1.632 4.671a2756.615 2756.615 0 0 0 6.425 18.255 842.086 842.086 0 0 0 3.431 9.332 735.35 735.35 0 0 1 3.056 8.32c.323.89.82 1.746 1.309 2.567l.061.122c.673 1.144 1.336 2.287 1.703 3.605.279 1.004.593 2.148-1.1 3.004-6.155 3.081-12.606 6.46-17.801 9.166l-.506.262c-.498.271-1.065.576-1.667.576-.21 0-.42-.043-.603-.122-.541-.218-.925-.751-1.213-1.667-2.846-9.211-6.382-18.22-9.804-26.942Zm-24.339 32.468a387.706 387.706 0 0 0-1.991-4.287c-6.085-12.824-11.279-25.631-15.426-38.072l-1.484-4.435c-4.697-14.038-9.542-28.565-13.732-43.04a133.69 133.69 0 0 1-1.187-4.565l-.088-.341c-.672-2.732-1.431-5.823-2.549-8.721a3.76 3.76 0 0 1-.166-.542c-.235-1.17.384-1.912.978-2.444a62.674 62.674 0 0 1 7.482-5.692c.899-.576 1.588-.768 2.226-.603.82.201 1.327.943 1.755 1.72 8.293 15.208 16.229 30.163 22.2 45.965 1.144 3.029 2.479 6.05 3.771 8.974l.716 1.633 3.754 8.363c3.117 6.434 6.748 12.703 10.258 18.77l.061.096c1.597 2.759 3.221 5.561 4.81 8.407a209.566 209.566 0 0 1 4.601 8.635l.794 1.588c.856 1.72 1.921 3.868 3.021 5.823.279.516.576 1.179.34 1.843-.2.584-.724.942-1.257 1.248-5.037 2.811-12.597 7.054-20.061 11.419-.655.384-1.118.541-1.572.541-.139 0-.27-.017-.428-.061-.558-.14-1.003-.559-1.466-1.379-2.017-3.527-3.719-7.246-5.36-10.843Zm165.582-3.772c-.821 6.618-1.231 13.567-1.231 21.145 0 6.696.323 13.881.96 21.756.096 1.231.087 2.558-.559 3.919-4.4 9.307-8.503 18.893-12.466 28.164-2.593 6.059-5.526 12.929-8.564 19.678-.061.131-.114.262-.184.384l-.052.113a2.343 2.343 0 0 1-.183.393c-.463 1.065-.961 2.139-1.45 3.222l-.13.27a2.48 2.48 0 0 1-.123.271l-.218.48c-.41.882-.812 1.764-1.213 2.654l-.428.943c-2.078 4.557-4.226 9.263-6.81 13.689-1.222 2.104-1.842 4.382-2.226 6.495.122-.105.271-.192.437-.27l.532-.219.358.428c.637.716.498 1.528.411 2.069a3.075 3.075 0 0 0-.062.402c-.113 1.964-.235 3.92-.358 5.875l-.139 2.305-.053.794c-.419 6.609-.82 13.052-1.126 19.338-.113 2.444-1.257 3.23-3.073 3.701-16.674 4.409-34.317 6.644-52.432 6.644-9.027 0-18.342-.559-27.683-1.668a4.762 4.762 0 0 1-.55-.122l-.105-.026c-.131-.035-.235-.061-.314-.052-1.231.035-2.078-.245-2.619-.856-.759-.829-.733-2.078-.594-3.186l.611-4.61c.786-5.884 1.607-11.978 1.65-18.01 0-.079 0-.157-.008-.236-.018-.428-.061-1.187.515-1.685.166-.14.366-.253.637-.34.803-.254 1.432.017 1.947.34.166.105.323.227.463.332l.113.087c.419.306.856.664 1.292 1.004 1.423 1.152 2.759 2.226 4.391 2.733-1.615-1.092-2.916-2.48-4.181-3.824l-.149-.149c-.061-.061-.113-.122-.174-.183-.891-.934-1.808-1.894-2.811-2.68-9.603-7.543-15.994-17.661-22.175-27.439a639.51 639.51 0 0 0-3.012-4.741 7.714 7.714 0 0 1-.261-.41c-.018-.026-.035-.044-.053-.07a5.576 5.576 0 0 0-.209-.323c-.009-.017-.027-.035-.035-.052l-.236-.367c-.035-.052-.061-.096-.096-.148a252.293 252.293 0 0 0-1.519-2.287l-.21-.315c-.008-.017-.026-.035-.034-.052a1.09 1.09 0 0 0-.096-.14c-.062-.105-.097-.148-.131-.201l-.018-.026-.035-.052c-.096-.122-.166-.236-.236-.341-9.349-13.75-17.267-26.452-24.19-38.823-1.1-1.955-1.904-4.086-2.68-6.146l-.297-.777c-.157-.419-.315-.829-.472-1.248a23.609 23.609 0 0 0-3.265-5.692l-5.587-7.238a5788.57 5788.57 0 0 1-17.774-23.135l-6.766-9.935-15.766-32.982c-.437-.917-.865-1.825-1.301-2.724-.594-1.222-.716-2.086-.393-2.802.314-.716.995-1.188 2.279-1.581 1.178-.349 2.357-.829 3.492-1.283a55.67 55.67 0 0 1 1.973-.777c3.43-1.274 4.181-1.03 6.215 2.026a393.364 393.364 0 0 1 6.6 10.345l.681 1.109c2.375 3.815 4.688 7.551 6.949 11.366l.026.026 8.468 9.822c.123.14.254.305.402.48l6.923 8.294c4.243 5.089 8.59 10.301 12.912 15.417.576.69 1.187 1.511.986 2.392-.148.673-.69 1.196-1.763 1.694-1.738.821-3.457 1.825-5.116 2.794l-.157.096c-.603.349-1.196.698-1.799 1.047-.445.253-.925.542-1.414.899 7.796-3.553 15.443-7.9 22.209-11.742a717.38 717.38 0 0 1 8.948-5.028c17.426-9.551 37.173-20.376 57.409-29.543a92.31 92.31 0 0 0 3.064-1.493 192.434 192.434 0 0 0-5.238 1.956c-1.047.427-1.981.811-2.846 1.187h-.026c-.026.009-.052.026-.079.035-.043.026-.087.043-.13.061-.053.026-.105.052-.149.07-.585.262-1.135.524-1.676.785-.69.341-1.502.646-2.244.297-.593-.27-.969-.855-1.248-1.938-.122-.48-.236-.934-.332-1.379 0-.044-.017-.087-.026-.131-2.113-8.704-3.562-17.653-4.967-26.313l-.515-3.169c-.559-3.431-1.065-6.879-1.624-10.721l-.149-.986c-.104-.742-.218-1.493-.331-2.253l-1.022-6.722a7.257 7.257 0 0 1-.288-1.388l-.288-2.427c-1.694-14.064-3.562-29.063-6.268-44.175-.096-.576-.131-.977-.105-1.274.07-3.51.096-5.107 1.144-5.928 1.004-.794 2.453-.463 5.36.21.62.148 1.24.27 1.851.401l.183.035c3.091.646 6.26 1.318 9.062 3.204 2.191 1.467 3.422 3.047 3.885 4.959 2.924 12.257 5.7 24.252 7.551 36.405l.018.096 1.073 5.936.76 4.863c4.452 11.733 7.857 24.06 11.157 35.968l.812 2.951c.462 1.676.934 3.361 1.397 5.037 3.657 12.991 9.786 25.423 18.228 36.955 1.344 1.842 2.802 3.798 4.443 5.596a11.29 11.29 0 0 0 1.563 1.441c.026.017.044.035.07.052 1.44 1.056 2.916 1.441 4.653 1.205.445-.052.856-.044 1.379-.026.253.008.542.017.865.017h1.239l-.55 1.1a181.767 181.767 0 0 1-1.728 3.414c-.044.078-.096.166-.14.253-.148.262-.314.559-.489.899-.061.105-.113.21-.174.323 0 .009-.009.009-.009.018-.009 0-.009.008-.009.008-.253.454-.559.934-.917 1.432-3.989 5.683-13.863 14.195-23.509 22.751a60.118 60.118 0 0 0-4.601 4.583c-.201.218-.402.445-.585.664a84.872 84.872 0 0 0-4.417 5.377l-.149.201a46.095 46.095 0 0 0-2.968 4.138c-.079.114-.148.227-.21.315-.174.262-.27.41-.27.41-.07.096-.114.175-.157.253l-.096.166a4.682 4.682 0 0 0-.245.393 47.539 47.539 0 0 0-1.737 3.125l-.428.873c-5.954 12.223-6.111 24.584-4.801 33.882 0-.14-.009-.271-.018-.401-.515-13.427 1.301-23.965 5.701-33.158a2.75 2.75 0 0 1 .227-.462c.043-.114.122-.28.209-.428a44.371 44.371 0 0 1 1.668-3.082c.113-.175.236-.358.358-.532a.43.43 0 0 1 .061-.079c1.047-1.519 2.357-3.16 3.928-4.906.018-.018.035-.044.053-.062.017-.034.052-.061.078-.096.018-.034.053-.061.079-.096a.07.07 0 0 1 .035-.035 139.152 139.152 0 0 1 5.116-5.412 184.059 184.059 0 0 1 3.186-3.161c.48-.471.96-.942 1.449-1.414l.131-.087.018-.018.654-.681c1.519-1.475 3.082-2.959 4.636-4.452l.035-.035h.009c1.492-1.432 2.968-2.837 4.426-4.251h.008l.009-.009c4.496-4.33 8.739-8.556 11.952-12.292l.008-.018a53.988 53.988 0 0 0 2.157-2.645c.244-.314.48-.629.698-.934 0 0 .288-.437.297-.437 0-.008 1.117-1.938 1.117-1.938v-.061a106.66 106.66 0 0 0 8.023-14.221c.087-.21.201-.419.306-.638l.139-.253c.219-.428.437-.873.62-1.318l.166-.41c1.152-2.855 2.235-5.544 2.121-8.765-.183-5.003-.165-10.066-.148-14.964.009-3.728.018-7.578-.061-11.375-.052-2.916.847-5.369 2.828-7.718a32 32 0 0 1 2.419-2.575l.035-.044c1.754-1.851 3.265-2.837 5.369-3.998.48-.262.995-.533 1.545-.83l1.021-.55c.149-.104.358-.218.629-.34.812-.358 1.641-.472 2.409-.323 1.257.227 1.336 1.231 1.371 1.711 0 .14.009.227.026.314.419 2.305.733 4.662 1.039 6.949l.035.227c.401 3.004.812 6.103 1.484 9.089.314 1.37.62 2.741.917 4.164l.794 2.994.794 3.012c.219.489.393 1.083.533 1.554a134.396 134.396 0 0 0 3.178 9.394c.681 1.781.89 3.44.672 5.212l.009.008ZM237.079 402.98l-.149-.149c-.061-.061-.113-.122-.174-.183-.891-.934-1.808-1.894-2.811-2.68-9.603-7.543-15.994-17.661-22.175-27.439a639.51 639.51 0 0 0-3.012-4.741 7.714 7.714 0 0 1-.261-.41c-.018-.026-.035-.044-.053-.07a5.576 5.576 0 0 0-.209-.323c-.009-.017-.027-.035-.035-.052l-.262.131c.201.305.34.515.358.55l-1.519.62c.07.104.139.218.218.331a2917.66 2917.66 0 0 1 4.051 6.085l1.108 1.668c.655.995 1.31 1.982 1.956 2.968 4.793 7.281 9.708 14.745 16.77 20.184.664.524.908 1.179.777 2.078l-.157 1.1h.917c.166-.14.366-.253.637-.34.803-.254 1.432.017 1.947.34.166.105.323.227.463.332l.113.087c.419.306.856.664 1.292 1.004 1.423 1.152 2.759 2.226 4.391 2.733-1.615-1.092-2.916-2.48-4.181-3.824Zm42.75-77.646a83.972 83.972 0 0 0-3.43 4.251l-.149.201a45.952 45.952 0 0 0-2.968 4.138c-.079.114-.148.227-.21.314-.174.262-.27.411-.27.411-.07.096-.114.174-.157.253l-.096.166a4.682 4.682 0 0 0-.245.393 47.539 47.539 0 0 0-1.737 3.125l-.428.873c-5.954 12.222-6.111 24.584-4.801 33.882 0-.14-.009-.271-.018-.402-.515-13.427 1.301-23.964 5.701-33.157.044-.122.122-.288.227-.463.043-.113.122-.279.209-.427a44.371 44.371 0 0 1 1.668-3.082c.113-.175.236-.358.358-.533a.462.462 0 0 1 .061-.078c1.047-1.519 2.357-3.161 3.928-4.907.018-.017.035-.043.053-.061.017-.035.052-.061.078-.096.018-.035.053-.061.079-.096a.07.07 0 0 1 .035-.035c1.528-1.72 3.256-3.535 5.116-5.412a180.546 180.546 0 0 1 3.186-3.161l-6.19 3.903Zm-42.75 77.646-.149-.149c-.061-.061-.113-.122-.174-.183-.891-.934-1.808-1.894-2.811-2.68-9.603-7.543-15.994-17.661-22.175-27.439a639.51 639.51 0 0 0-3.012-4.741 7.714 7.714 0 0 1-.261-.41c-.018-.026-.035-.044-.053-.07a5.576 5.576 0 0 0-.209-.323c-.009-.017-.027-.035-.035-.052l-.262.131c.201.305.34.515.358.55l-1.519.62c.07.104.139.218.218.331a2917.66 2917.66 0 0 1 4.051 6.085l1.108 1.668c.655.995 1.31 1.982 1.956 2.968 4.793 7.281 9.708 14.745 16.77 20.184.664.524.908 1.179.777 2.078l-.157 1.1h.917c.166-.14.366-.253.637-.34.803-.254 1.432.017 1.947.34.166.105.323.227.463.332l.113.087c.419.306.856.664 1.292 1.004 1.423 1.152 2.759 2.226 4.391 2.733-1.615-1.092-2.916-2.48-4.181-3.824Zm42.75-77.646a83.972 83.972 0 0 0-3.43 4.251l-.149.201a45.952 45.952 0 0 0-2.968 4.138c-.079.114-.148.227-.21.314-.174.262-.27.411-.27.411-.07.096-.114.174-.157.253l-.096.166a4.682 4.682 0 0 0-.245.393 47.539 47.539 0 0 0-1.737 3.125l-.428.873c-5.954 12.222-6.111 24.584-4.801 33.882 0-.14-.009-.271-.018-.402-.515-13.427 1.301-23.964 5.701-33.157.044-.122.122-.288.227-.463.043-.113.122-.279.209-.427a44.371 44.371 0 0 1 1.668-3.082c.113-.175.236-.358.358-.533a.462.462 0 0 1 .061-.078c1.047-1.519 2.357-3.161 3.928-4.907.018-.017.035-.043.053-.061.017-.035.052-.061.078-.096.018-.035.053-.061.079-.096a.07.07 0 0 1 .035-.035c1.528-1.72 3.256-3.535 5.116-5.412a180.546 180.546 0 0 1 3.186-3.161l-6.19 3.903Zm-42.75 77.646-.149-.149c-.061-.061-.113-.122-.174-.183-.891-.934-1.808-1.894-2.811-2.68-9.603-7.543-15.994-17.661-22.175-27.439a639.51 639.51 0 0 0-3.012-4.741 7.714 7.714 0 0 1-.261-.41c-.018-.026-.035-.044-.053-.07a5.576 5.576 0 0 0-.209-.323c-.009-.017-.027-.035-.035-.052l-.262.131c.201.305.34.515.358.55l-1.519.62c.07.104.139.218.218.331a2917.66 2917.66 0 0 1 4.051 6.085l1.108 1.668c.655.995 1.31 1.982 1.956 2.968 4.793 7.281 9.708 14.745 16.77 20.184.664.524.908 1.179.777 2.078l-.157 1.1h.917c.166-.14.366-.253.637-.34.803-.254 1.432.017 1.947.34.166.105.323.227.463.332l.113.087c.419.306.856.664 1.292 1.004 1.423 1.152 2.759 2.226 4.391 2.733-1.615-1.092-2.916-2.48-4.181-3.824Zm42.75-77.646a83.972 83.972 0 0 0-3.43 4.251l-.149.201a45.952 45.952 0 0 0-2.968 4.138c-.079.114-.148.227-.21.314-.174.262-.27.411-.27.411-.07.096-.114.174-.157.253l-.096.166a4.682 4.682 0 0 0-.245.393 47.539 47.539 0 0 0-1.737 3.125l-.428.873c-5.954 12.222-6.111 24.584-4.801 33.882 0-.14-.009-.271-.018-.402-.515-13.427 1.301-23.964 5.701-33.157.044-.122.122-.288.227-.463.043-.113.122-.279.209-.427a44.371 44.371 0 0 1 1.668-3.082c.113-.175.236-.358.358-.533a.462.462 0 0 1 .061-.078c1.047-1.519 2.357-3.161 3.928-4.907.018-.017.035-.043.053-.061.017-.035.052-.061.078-.096.018-.035.053-.061.079-.096a.07.07 0 0 1 .035-.035c1.528-1.72 3.256-3.535 5.116-5.412a180.546 180.546 0 0 1 3.186-3.161l-6.19 3.903Zm-42.75 77.646-.149-.149c-.061-.061-.113-.122-.174-.183-.891-.934-1.808-1.894-2.811-2.68-9.603-7.543-15.994-17.661-22.175-27.439a639.51 639.51 0 0 0-3.012-4.741 7.714 7.714 0 0 1-.261-.41c-.018-.026-.035-.044-.053-.07a5.576 5.576 0 0 0-.209-.323c-.009-.017-.027-.035-.035-.052l-.262.131c.201.305.34.515.358.55l-1.519.62c.07.104.139.218.218.331a2917.66 2917.66 0 0 1 4.051 6.085l1.108 1.668c.655.995 1.31 1.982 1.956 2.968 4.793 7.281 9.708 14.745 16.77 20.184.664.524.908 1.179.777 2.078l-.157 1.1h.917c.166-.14.366-.253.637-.34.803-.254 1.432.017 1.947.34.166.105.323.227.463.332l.113.087c.419.306.856.664 1.292 1.004 1.423 1.152 2.759 2.226 4.391 2.733-1.615-1.092-2.916-2.48-4.181-3.824Zm42.75-77.646a83.972 83.972 0 0 0-3.43 4.251l-.149.201a45.952 45.952 0 0 0-2.968 4.138c-.079.114-.148.227-.21.314-.174.262-.27.411-.27.411-.07.096-.114.174-.157.253l-.096.166a4.682 4.682 0 0 0-.245.393 47.539 47.539 0 0 0-1.737 3.125l-.428.873c-5.954 12.222-6.111 24.584-4.801 33.882 0-.14-.009-.271-.018-.402-.515-13.427 1.301-23.964 5.701-33.157.044-.122.122-.288.227-.463.043-.113.122-.279.209-.427a44.371 44.371 0 0 1 1.668-3.082c.113-.175.236-.358.358-.533a.462.462 0 0 1 .061-.078c1.047-1.519 2.357-3.161 3.928-4.907.018-.017.035-.043.053-.061.017-.035.052-.061.078-.096.018-.035.053-.061.079-.096a.07.07 0 0 1 .035-.035c1.528-1.72 3.256-3.535 5.116-5.412a180.546 180.546 0 0 1 3.186-3.161l-6.19 3.903Z"></path><path fill="#000" d="M294.109 314.491c.053-.052.114-.096.166-.157a.277.277 0 0 1-.096.079l-.07.078ZM262.614 249.539l-9.717 4.024-1.362-4.81 1.301.096 8.145.567 1.633.123ZM347.492 251.877c-.497-1.074-1.3-1.938-3.09-2.235-2.06-.341-3.536-1.991-4.705-3.562-1.319-1.772-2.323-3.789-2.986-6.015-1.03-3.466-1.283-6.967-1.353-11.149 0-.165.017-.34.043-.515.07-.558.175-1.327-.532-1.658-.803-.384-1.441.174-1.903.585-.14.122-.28.253-.419.349a24.938 24.938 0 0 0-2.488 1.964c2.435-2.471 4.4-3.344 8.162-5.29-.332.2-.646.445-.925.724-.908.926-1.284 2.078-1.013 3.099.21.777.236 1.546.253 2.358.018.471.026.934.079 1.405.497 4.706 1.196 9.263 4.051 13.191 1.152 1.581 2.601 3.292 5.368 3.719l.489.079-.619-2.698c-.027-.131-.053-.261-.088-.384l1.659 6.033h.017ZM163.574 262.152c-1.065-1.17-1.554-1.301-3.989-1.912l-.446-.114.044.463c.375 3.92.733 7.622-3.405 9.691-1.693.846-3.142 1.073-4.321.689a4.99 4.99 0 0 0 .882-.096c2.261-.454 4.827-.969 5.596-3.771 1.274-4.627.925-8.521-1.057-11.899-.489-.839-.986-1.685-1.501-2.523v-.018l8.197 9.49ZM192.729 226.193c-.48-.986-.943-1.973-1.397-2.968-.087-.201-.27-.305-.428-.401a.762.762 0 0 1-.157-.096l-.331-.245-.166.376c-2.872 6.634-6.303 10.764-9.909 11.96-1.728.576-3.457.436-5.142-.41.184-.07.367-.044.585-.009l.183.026c4.235.48 7.596-1.196 10.276-5.125 1.737-2.549 2.575-5.412 3.116-7.63.315-1.309.21-2.497-.331-3.719l3.701 8.241ZM225.761 208.525l-.018.026c-.349-.986-.69-1.973-1.039-2.959l-.244-.69-.349.637c-3.702 6.679-7.412 10.625-14.44 9.63-2.549-.358-5.037-1.991-6.015-3.807.55.402 1.048.777 1.563 1.135 4.077 2.89 8.852 2.768 12.754-.34 2.235-1.772 3.65-4.112 4.636-5.963.891-1.65 1.1-3.212.637-4.941l2.515 7.272ZM267.742 199.68a110.975 110.975 0 0 0-1.231-3.012l-.384-.917-.262.952c-1.169 4.164-4.094 7.255-8.468 8.931-4.339 1.659-8.337.803-12.58-2.707l-.707-.584-.602-3.763c.628 1.947 2.078 3.719 4.103 4.994 1.807 1.134 3.832 1.728 5.805 1.728.865 0 1.711-.113 2.541-.349 5.84-1.633 10.965-8.783 10.162-14.169-.105-.646-.193-1.292-.306-1.938l1.126 5.936.803 4.898Z"></path><path fill="#000" d="M315.09 288.378c-8.748 15.881-28.023 31.831-33.803 37.095-5.779 5.264-4.242 4.671-4.242 4.671s10.1-13.227 20.34-24.2c10.241-10.974 9.996-18.212 9.996-18.212l7.709.646Z"></path></g><defs><clipPath id="a"><path fill="#fff" d="M0 0h540v540H0z"></path></clipPath></defs></svg>