<svg width="540" height="540" fill="none" viewBox="148.921 105.54 242.806 328.274" xmlns="http://www.w3.org/2000/svg"><path d="M0 0h540v540H0z" style="fill: rgba(251, 247, 239, 0);"></path><path fill="#D6CCFF" d="M382.038 285.243s3.278 15.291.238 30.655l-1.242 5.741-1.002 3.406-1.39 4.062-8.022 23.125-7.19 18.86s-6.133 14.559-8.485 19.337c-2.352 4.776-6.531 12.664-6.531 12.664s-3.947 7.365-8.695 13.668c-4.747 6.303-12.339 9.774-12.339 9.774s-7.294 4.319-20.477 4.46c-13.183.141-24.464-3.81-24.464-3.81l-3.555-1.408-7.096-4.203-12.059-8.115-13.641-10.265-11.288-9.569s-11.248-9.973-16.316-16.987c-5.068-7.014-6.563-9.475-6.563-9.475s-4.751-8.728-6.879-14.303a949.441 949.441 0 0 1-4.427-11.885l-2.237-8.508-2.237-9.749s-5.9 2.839-13.763-2.801c-7.863-5.639-11.04-12.3-11.04-12.3l-5.939-10.301s-8.471-16.11-11.757-26.946c-3.284-10.835-1.408-18.766 3.548-23.132 4.957-4.366 9.812-4.341 9.812-4.341s2.071-.367 4.271.228c0 0-2.376-13.647-1.149-29.659 1.229-16.014 3.419-23.303 3.419-23.303s3.699-17.657 13.028-32.354c9.329-14.696 26.967-35.111 62.868-44.322l12.03-2.606s15.312-3.07 27.018-1.331c11.706 1.739 19.774 4.229 19.774 4.229s15.448 4.95 26.83 12.329c11.382 7.378 21.968 16.633 21.968 16.633s10.601 9.01 15.632 18.312c5.032 9.302 7.557 16.89 7.557 16.89s3.948 11.33 4.632 25.391c.684 14.061 1.65 24.431 1.65 24.431l1.361 20.173s.63 10.334-1.145 22.886c-1.776 12.553-4.708 14.412-4.708 14.412v.007Z"></path><path fill="#746BD3" d="M350.933 158.066s-19.857-39.733-85.767-35.003c0 0-69.791 4.864-75.874 74.195 0 0-3.343 32.611 17.447 43.413 20.794 10.807 44.015 6.43 54.922 0 10.517-6.202 31.973-22.082 59.009-27.371a62.772 62.772 0 0 1 4.326-.671c5.27-.664 24.99-4.525 29.594-25.351 0 0 3.245-14.599-3.657-29.216v.004Z"></path><path fill="#ABA3FF" d="M348.146 373.697s-14.299 8.071-64.099 2.165c0 0 18.287-9.031 29.456-7.368 0 0 4.531.537 7.247 2.461 0 0 4.884-4.1 12.726-3.262 7.841.837 14.67 6.007 14.67 6.007v-.003Z"></path><path stroke="#1C1C1E" stroke-linecap="round" stroke-linejoin="round" stroke-width="1.5" d="M201.006 317.236s-2.201 7.054-10.496 6.102c-8.296-.953-15.636-10.525-15.636-10.525s-11.328-14.674-21.226-42.44c0 0-2.099-6-1.502-12.726 1.157-13.072 16.688-19.509 26.528-10.846 1.83 1.613 3.645 3.742 5.363 6.524l6.711 13.021M168.688 263.966l20.609 35.147"></path><path stroke="#1C1C1E" stroke-linecap="round" stroke-linejoin="round" stroke-width="1.5" d="M171.139 242.843s-20.582-119.481 100.398-133.412c0 0 46-7.476 92.202 39.773 0 0 18.928 17.337 21.107 53.636l3.047 45.105s1.131 27.892-5.853 37.298c0 0 4.419 21.285-2.352 40.83-6.772 19.545-19.746 60.647-37.722 87.65-17.978 27.004-56.424 14.873-62.022 12.567-5.597-2.306-55.926-34.151-69.667-62.208 0 0-8.99-15.515-14.134-41.364"></path><path stroke="#1C1C1E" stroke-linecap="round" stroke-linejoin="round" stroke-width="1.5" d="M387.858 257.991s-3.865-4.374-12.042-2.689c-8.177 1.685-31.39 9.547-31.39 9.547M302.744 265.828l-46.688-5.943s-14.433-1.259-20.923 5.943M379.018 284.376s-2.492-9.522-17.515-8.435c-15.024 1.086-19.757 11.925-19.757 11.925M296.661 291.788s-4.917-12.697-22.224-13.163c0 0-15.467-.537-24.464 7.934M333.703 316.541l7.859 23.128c1.502 4.424-.302 9.363-4.391 11.611a15.58 15.58 0 0 1-2.013.92M304.289 325.938l-6.087 11.639s-6.397 12.879 8.111 14.625"></path><path stroke="#1C1C1E" stroke-linecap="round" stroke-linejoin="round" stroke-width="1.5" d="M336.986 345.153s-2.903 4.983-8.31 7.685c-2.618 1.311-5.723 1.217-8.283-.205l-5.454-3.02a11.11 11.11 0 0 0-5.021-1.39l-3.606-.122M348.417 373.712s-14.376 7.977-64.362 2.222c0 0 24.766-13.184 36.71-4.954 0 0 3.746-3.525 10.903-3.471 7.157.054 16.752 6.203 16.752 6.203h-.003ZM342.089 382.872s-18.704 18.564-52.847.978M350.937 158.066s-19.857-39.733-85.767-35.003c0 0-69.791 4.864-75.874 74.195 0 0-3.343 32.611 17.447 43.413 20.79 10.804 44.015 6.43 54.922 0 10.517-6.202 31.973-22.082 59.009-27.371a62.772 62.772 0 0 1 4.326-.671c5.269-.665 24.99-4.525 29.594-25.351 0 0 3.245-14.599-3.657-29.216v.004Z"></path><path fill="#fff" stroke="#1C1C1E" stroke-miterlimit="10" stroke-width="1.5" d="M319.203 145.178c-26.535 0-28.131-26.953-28.131-26.953s-1.595 26.953-28.131 26.953c26.536 0 28.131 26.953 28.131 26.953s1.596-26.953 28.131-26.953ZM185.941 168.027c31.726 12.384 35.731 56.731 35.731 56.731s4.006-44.347 35.731-56.731c-31.725-12.383-35.731-56.731-35.731-56.731s-4.005 44.348-35.731 56.731ZM273.322 208.476s1.416-8.472 9.221-9.695c0 0-7.294-2.233-9.221-9.89 0 0-1.415 8.472-9.22 9.695 0 0 7.293 2.233 9.22 9.89Z"></path></svg>