<svg xmlns:xlink="http://www.w3.org/1999/xlink" xmlns="http://www.w3.org/2000/svg" width="64" height="64" viewBox="0 0 64 64" fill="none"><path fill="#F8C100" d="M61 28.177 40.868 8l-8.418 2.266 20.186 20.178-.027.027.027.027L32.45 50.675l8.418-2.238L61 28.259l-.027-.027.027-.055Z"></path><path stroke="#1C1C1E" stroke-linecap="round" stroke-linejoin="round" stroke-width="0.5px" d="M61 28.177 40.868 8l-8.418 2.266 20.186 20.178-.027.027.027.027L32.45 50.675l8.418-2.238L61 28.259l-.027-.027.027-.055Z" fill="none"></path><path fill="#FFDD33" d="M52.582 30.444 41.004 18.84l-5.476-5.488-1.062-1.092-2.016-1.994-6.402 6.444.626.628 1.09 1.092 5.476 5.488 11.578 11.604-.055.028.055.027-13.73 13.734 1.362 1.365 20.132-20.178-.027-.027.027-.027Z"></path><path fill="#1C1C1E" d="m44.763 35.55.054-.028L33.24 23.918l-5.476-5.488-1.09-1.092-.626-.628-2.343 2.348 5.503 5.515 1.063 1.065 4.822 4.833-11.388 11.44 5.204 5.215 2.179 2.184 13.73-13.733-.054-.027Z"></path><path stroke="#1C1C1E" stroke-linecap="round" stroke-linejoin="round" stroke-width="0.5px" d="M52.581 30.444 32.45 10.266l-8.745 8.792 11.388 11.413-11.388 11.44 8.745 8.765 20.132-20.178-.027-.027.027-.027ZM52.636 30.443l8.363-2.184" fill="none"></path><path fill="#F8C100" d="M40.322 33.502 20.19 13.324l-8.418 2.266 20.187 20.15-.055.055.055.027L11.772 56l8.418-2.24 20.132-20.176-.054-.055.054-.027Z"></path><path stroke="#1C1C1E" stroke-linecap="round" stroke-linejoin="round" stroke-width="0.5px" d="M40.322 33.502 20.19 13.324l-8.418 2.266 20.187 20.15-.055.055.055.027L11.772 56l8.418-2.24 20.132-20.176-.054-.055.054-.027Z" fill="none"></path><path fill="#FFDD33" d="M13.788 17.584 8.503 29.87l1.09 1.092 5.258-12.314-1.063-1.064ZM31.905 35.74 20.327 24.163 8.204 52.45 11.773 56l20.132-20.178-.027-.027.027-.055Z"></path><path fill="#FFE564" d="M14.85 18.648 9.594 30.962l4.822 4.833L3 47.208l5.203 5.242 12.123-28.286-5.476-5.516ZM11.772 15.59 3 24.356l5.503 5.515 5.285-12.286-2.016-1.993Z"></path><path stroke="#1C1C1E" stroke-linecap="round" stroke-linejoin="round" stroke-width="0.5px" d="M31.904 35.74 11.772 15.59 3 24.356l11.415 11.44L3 47.208 11.772 56l20.132-20.177-.027-.028.027-.054ZM31.96 35.74l8.363-2.157" fill="none"></path></svg>