<svg width="540" height="540" fill="none" viewBox="105.539 106.835 328.921 327.626" xmlns="http://www.w3.org/2000/svg"><path d="M0 0h540v540H0z" style="fill: rgba(251, 247, 239, 0);"></path><path fill="#fff" d="M391.031 402.057v7.742c0 11.278-54.561 20.418-121.865 20.418s-121.865-9.14-121.865-20.418c0-.225.021-.451.065-.674l-.065-7.068"></path><path fill="#D9D9D9" d="M391.031 402.057c0 11.278-54.561 20.419-121.865 20.419s-121.865-9.141-121.865-20.419c0-.225.021-.45.065-.673"></path><path fill="#fff" d="M120.529 356.381c-6.62 10.36-11.545 27.496-11.545 27.496 0 6.678 14.443 12.787 38.381 17.505 29.597 5.831 73.704 9.532 122.97 9.532 89.112 0 161.349-12.104 161.349-27.034 0 0-1.027-15.237-11.317-27.085"></path><path fill="#F0F0F3" d="M363.242 339.097c35.115 4.619 57.671 11.797 57.671 19.857 0 13.935-67.418 25.231-150.581 25.231-83.164 0-150.58-11.296-150.58-25.231 0-6.494 14.642-12.414 38.696-16.885"></path><path fill="#FD3" d="M289.282 404.942a7.564 7.564 0 1 0-.001-15.127 7.564 7.564 0 0 0 .001 15.127Z"></path><path fill="#fff" d="M285.32 289.614c-11.094-34.862-52.089-36.258-52.089-36.258v-52.111l7.021-2.268s7.892-1.302 8.786-7.167c.896-5.866-2.898-8.951-2.898-8.951l-30.673-4.137-30.673 4.137s-3.793 3.085-2.898 8.951c.894 5.865 8.787 7.167 8.787 7.167l7.02 2.268v52.111s-40.994 1.396-52.088 36.258c-11.094 34.859 14.845 54.427 14.845 54.427l5.946 5.268 5.026 3.211s14.703 5.194 44.04 4.869c29.336.325 44.039-4.869 44.039-4.869l5.027-3.211 5.945-5.268s25.938-19.565 14.846-54.427h-.009Z"></path><path fill="#F0F0F3" d="M220.161 357.407c29.196 0 52.866-3.68 52.866-8.219s-23.67-8.219-52.866-8.219c-29.197 0-52.866 3.68-52.866 8.219s23.669 8.219 52.866 8.219Z"></path><path fill="#fff" d="M287.99 144.82c21.032 0 38.082-2.819 38.082-6.297 0-3.479-17.05-6.298-38.082-6.298s-38.082 2.819-38.082 6.298c0 3.478 17.05 6.297 38.082 6.297Z"></path><path fill="#FFB8B8" d="M215.468 189.077c17.29 0 31.306-2.319 31.306-5.178s-14.016-5.177-31.306-5.177-31.306 2.318-31.306 5.177c0 2.859 14.016 5.178 31.306 5.178Z"></path><path fill="#fff" d="M315.845 156.353s-3.556 1.936-3.694 4.88c-.139 2.945 1.141 85.72 1.141 85.72s-.424 17.175 12.986 30.397c12.59 12.414 44.061 45.238 35.509 78.531-1.268 4.934-4.92 8.911-9.702 10.666-8.604 3.156-29.201 6.746-65.82 6.827-36.62-.081-54.58-3.891-63.182-7.048-4.785-1.754-8.436-5.732-9.703-10.665-8.552-33.294 22.92-66.118 35.508-78.532 13.408-13.221 12.988-30.397 12.988-30.397s1.278-82.772 1.14-85.719c-.138-2.946-3.694-4.881-3.694-4.881l-5.075-1.818s-6.469-2.801-7.363-8.145c-.892-5.343 3.647-8.827 3.647-8.827l75.101.222s3.807 2.92 3.547 7.315c-.26 4.396-3.107 6.646-3.107 6.646s-3.848 3.42-10.227 4.83v-.002Z"></path><path fill="#FF8080" d="M248.341 295.624s-7.699 5.721-19.028 25.847c0 0-9.609 17.745-4.871 29.51 4.738 11.766 66.858 10.309 66.858 10.309 16.219.003 56.341-.945 60.111-10.309 4.738-11.765-4.873-29.51-4.873-29.51-11.327-20.126-19.027-25.847-19.027-25.847"></path><path fill="#C95353" d="M287.993 303.145c22.041 0 39.908-2.955 39.908-6.599 0-3.645-17.867-6.599-39.908-6.599s-39.909 2.954-39.909 6.599c0 3.644 17.868 6.599 39.909 6.599Z"></path><path fill="#FD3" d="M310.489 143.54s-.582-3.316-21.194-3.788c-20.611-.472-24.547 3.483-24.547 3.483l.846.535s13.737 1.035 26.273.893c12.536-.143 18.622-1.123 18.622-1.123Z"></path><path fill="#C95353" d="m231.84 188.285-7.961.649-7.682.142-6.793-.097-8.49-.476-1.773-.221s.499-1.727 15.186-2.072c14.629-.343 17.513 2.072 17.513 2.072v.003Z"></path><path fill="#FF8080" d="M212.766 172.963c7.885 0 14.276-6.392 14.276-14.277 0-7.886-6.391-14.278-14.276-14.278s-14.278 6.392-14.278 14.278c0 7.885 6.393 14.277 14.278 14.277ZM192.595 132.224c5.921 0 10.72-4.799 10.72-10.719 0-5.92-4.799-10.719-10.72-10.719-5.919 0-10.718 4.799-10.718 10.719 0 5.92 4.799 10.719 10.718 10.719ZM227.53 135.507a7.58 7.58 0 1 0 0-15.16 7.58 7.58 0 0 0 0 15.16Z"></path><path fill="#FD3" d="M312.256 175.004s-2.926 1.868-18.197 1.927c0 0-6.254-.257-6.254 4.95 0 0-.536 4.796 6.337 4.796 0 0 15.618.566 18.233-2.348M312.485 195.386s-2.927 1.867-18.197 1.927c0 0-6.255-.257-6.255 4.951 0 0-.536 4.796 6.337 4.796 0 0 15.619.565 18.234-2.349M312.731 215.771s-2.926 1.868-18.197 1.929c0 0-6.255-.258-6.255 4.95 0 0-.535 4.795 6.337 4.795 0 0 15.619.566 18.234-2.349"></path><path fill="#FFE771" d="m312.224 184.475-.119-9.325s-.387.246-1.613.564l-2.525 10.415c1.973-.359 3.567-.886 4.257-1.654ZM312.45 204.859l-.12-9.325s-1.35.861-6.994 1.431l-2.457 10.13c4.076-.244 8.318-.84 9.571-2.236ZM312.851 225.096l-.119-9.325s-2.137 1.363-12.279 1.797l-2.406 9.918c4.755-.016 12.971-.349 14.802-2.39h.002Z"></path><path fill="#D9D9D9" d="M349.24 367.479s39.471-3.731 47.98-22.11c0 0-17.979-4.589-33.981-6.265l-.108 1.867s.857 13.85-3.556 19.775c0 0-2.893 4.964-10.335 6.733Z"></path><path fill="#FFE771" d="M292.146 394.169c-1.647 1.217-3.687 3.46-4.136 7.262-.152 1.293.936 2.394 2.227 2.222 1.387-.187 3.124-.831 4.404-2.698 1.336-1.951 1.158-4.12.702-5.709-.393-1.379-2.045-1.928-3.197-1.077Z"></path><path fill="#FFB8B8" d="M219.462 155.548c-2.508 1.796-5.615 5.106-6.298 10.719-.231 1.908 1.426 3.534 3.39 3.28 2.113-.275 4.757-1.226 6.708-3.983 2.035-2.879 1.762-6.081 1.068-8.427-.599-2.034-3.113-2.845-4.868-1.589ZM197.405 118.838c-1.881 1.347-4.21 3.83-4.723 8.039-.173 1.431 1.07 2.651 2.543 2.46 1.584-.206 3.567-.92 5.031-2.987 1.526-2.16 1.321-4.561.801-6.321-.449-1.525-2.336-2.134-3.652-1.191ZM230.25 125.33c-1.567 1.077-3.509 3.064-3.936 6.431-.145 1.145.891 2.121 2.119 1.968 1.32-.164 2.973-.735 4.193-2.39 1.271-1.727 1.1-3.648.667-5.055-.375-1.221-1.946-1.708-3.043-.954Z"></path><path stroke="#1C1C1E" stroke-linecap="round" stroke-linejoin="round" stroke-width="1.5" d="M287.99 144.82c21.032 0 38.082-2.819 38.082-6.297 0-3.479-17.05-6.298-38.082-6.298s-38.082 2.819-38.082 6.298c0 3.478 17.05 6.297 38.082 6.297ZM215.468 189.077c17.29 0 31.306-2.319 31.306-5.178s-14.016-5.177-31.306-5.177-31.306 2.318-31.306 5.177c0 2.859 14.016 5.178 31.306 5.178ZM170.291 346.657c5.622-2.714 19.943-4.764 37.464-5.233"></path><path stroke="#1C1C1E" stroke-linecap="round" stroke-linejoin="round" stroke-width="1.5" d="M198.822 188.283c2.077-1.197 8.743-2.072 16.646-2.072 7.904 0 14.568.875 16.647 2.072M227.655 217.055a176.76 176.76 0 0 1-12.187.406c-3.767 0-7.38-.11-10.728-.312M227.655 230.426c-3.744.262-7.864.406-12.187.406-3.767 0-7.38-.11-10.728-.312M287.993 303.145c22.041 0 39.908-2.955 39.908-6.599 0-3.645-17.867-6.599-39.908-6.599s-39.909 2.954-39.909 6.599c0 3.644 17.868 6.599 39.909 6.599ZM250.537 137.338a9.411 9.411 0 0 0-3.762 7.537c0 3.906 3.136 7.826 7.729 9.535 0 0 5.413 2.849 17.376 3.802"></path><path stroke="#1C1C1E" stroke-linecap="round" stroke-linejoin="round" stroke-width="1.5" d="M315.845 156.353s-3.556 1.938-3.694 4.882c-.139 2.944 1.141 85.719 1.141 85.719s-.424 17.176 12.986 30.397c12.59 12.414 44.061 45.238 35.509 78.531-1.268 4.934-4.92 8.911-9.702 10.667-8.604 3.155-29.201 6.746-65.82 6.826-36.62-.08-54.58-3.892-63.182-7.048-4.785-1.755-8.436-5.732-9.703-10.666-8.552-33.293 22.92-66.116 35.508-78.531 13.408-13.221 12.988-30.397 12.988-30.397s1.278-82.773 1.14-85.72c-.138-2.946-3.694-4.88-3.694-4.88"></path><path stroke="#1C1C1E" stroke-linecap="round" stroke-linejoin="round" stroke-width="1.5" d="M325.418 137.338a9.413 9.413 0 0 1 3.761 7.537c0 3.906-3.136 7.826-7.729 9.535 0 0-5.413 2.849-17.376 3.802M264.678 143.541c0-2.093 10.256-3.788 22.907-3.788s22.908 1.695 22.908 3.788M312.262 175.004s-2.927 1.868-18.197 1.927c0 0-6.254-.257-6.254 4.95 0 0-.537 4.796 6.337 4.796 0 0 15.618.566 18.233-2.348M312.491 195.386s-2.925 1.867-18.197 1.927c0 0-6.253-.257-6.253 4.951 0 0-.537 4.796 6.337 4.796 0 0 15.618.565 18.234-2.349M312.746 215.771s-2.926 1.868-18.197 1.929c0 0-6.254-.258-6.254 4.95 0 0-.537 4.795 6.337 4.795 0 0 15.618.566 18.234-2.349M248.341 295.624s-7.699 5.721-19.028 25.847c0 0-9.609 17.745-4.871 29.51 4.738 11.766 66.858 10.309 66.858 10.309 16.219.003 56.341-.945 60.111-10.309 4.738-11.765-4.873-29.51-4.873-29.51-11.327-20.126-19.027-25.847-19.027-25.847M184.793 182.861s-3.055 1.946-3.055 7.469c0 5.523 6.11 7.736 6.11 7.736l9.849 3.183v52.111s-42.379.888-53.033 39.334c-10.655 38.445 26.516 59.628 26.516 59.628s11.939 5.088 42.688 5.072M246.24 182.861s3.054 1.946 3.054 7.469c0 5.523-6.109 7.736-6.109 7.736l-9.849 3.183v52.111s12.793.27 26.089 6.887M212.766 172.963c7.885 0 14.276-6.392 14.276-14.277 0-7.886-6.391-14.278-14.276-14.278s-14.278 6.392-14.278 14.278c0 7.885 6.393 14.277 14.278 14.277ZM192.595 132.224c5.921 0 10.72-4.799 10.72-10.719 0-5.92-4.799-10.719-10.72-10.719-5.919 0-10.718 4.799-10.718 10.719 0 5.92 4.799 10.719 10.718 10.719ZM227.53 135.507a7.58 7.58 0 1 0 0-15.16 7.58 7.58 0 0 0 0 15.16Z"></path><path stroke="#1C1C1E" stroke-linecap="round" stroke-linejoin="round" stroke-width="1.5" d="M363.242 339.097c35.115 4.619 57.671 11.797 57.671 19.857 0 13.935-67.418 25.231-150.581 25.231-83.164 0-150.58-11.296-150.58-25.231 0-6.494 14.642-12.414 38.696-16.885M391.031 402.057c0 11.278-54.561 20.419-121.865 20.419s-121.865-9.141-121.865-20.419c0-.225.021-.45.065-.673"></path><path stroke="#1C1C1E" stroke-linecap="round" stroke-linejoin="round" stroke-width="1.5" d="M391.031 402.057v7.742c0 11.278-54.561 20.418-121.865 20.418s-121.865-9.14-121.865-20.418c0-.225.021-.451.065-.674l-.065-7.068"></path><path stroke="#1C1C1E" stroke-linecap="round" stroke-linejoin="round" stroke-width="1.5" d="M120.529 356.381c-6.62 10.36-11.545 27.496-11.545 27.496 0 6.678 14.443 12.787 38.381 17.505 29.597 5.831 73.704 9.532 122.97 9.532 89.112 0 161.349-12.104 161.349-27.034 0 0-1.027-15.237-11.317-27.085"></path><path stroke="#1C1C1E" stroke-linecap="round" stroke-linejoin="round" stroke-width="1.5" d="M289.282 404.942a7.564 7.564 0 1 0-.001-15.127 7.564 7.564 0 0 0 .001 15.127Z"></path></svg>