<svg width="542" height="542" fill="none" viewBox="76.686 104.63 385.379 332.739" xmlns="http://www.w3.org/2000/svg"><path d="M0 0h542v542H0z" style="fill: rgba(251, 247, 239, 0);"></path><path fill="#fff" d="m457.328 299.53-6.003 27.29-.671 3.075-47.851-14.736-10.635-3.275 1.981-2.119 12.484-13.318 8.663-9.248 42.032 12.331ZM443.956 348.368l-9.087 20.215-39.812-13.564-2.451-12.408-3.676-18.612 10.173 3.036 11.159 3.322 33.694 18.011ZM303.652 265.574c.971-.101 1.557 1.04.933 1.772l-15.953 18.543a3.36 3.36 0 0 0-.802 2.458l1.881 24.508c.069.971-1.071 1.526-1.788.87l-22.011-20.253-14.342-13.194 1.804-9.633 19.76-1.996 30.518-3.075Z"></path><path fill="#fff" d="M453.599 327.505c3.999 1.187 6.273 5.403 5.086 9.403a7.568 7.568 0 0 1-7.244 5.402 7.742 7.742 0 0 1-2.158-.316l-2.173-.647-36.846-10.983-11.159-3.329-10.173-3.029-14.512-4.331-39.875-11.891-28.291-8.432c-.015-.007-.023-.007-.031-.015a7.553 7.553 0 0 1-5.055-9.387 7.568 7.568 0 0 1 7.244-5.41c.547 0 1.102.062 1.649.193.17.038.347.077.509.131l28.176 8.4 39.905 11.892 15.498 4.616-1.981 2.112 10.636 3.275 47.851 14.735.67-3.067 2.274.678Z"></path><path fill="#FFF0F0" d="M381.967 275.848c0 10.08-1.14 19.891-3.314 29.309l-39.905-11.892a89.486 89.486 0 0 0 1.711-17.417c0-49.169-39.859-89.021-89.02-89.021-49.161 0-89.02 39.852-89.02 89.021 0 49.161 39.859 89.013 89.02 89.013 37.901 0 70.27-23.691 83.109-57.076l39.874 11.891c-18.01 50.533-66.27 86.701-122.983 86.701-72.089 0-130.521-58.448-130.521-130.529 0-72.089 58.432-130.537 130.521-130.537 72.088 0 130.528 58.44 130.528 130.537Z"></path><path fill="#FFF0F0" d="M310.549 277.103c0 2.582-.17 5.133-.494 7.63a7.086 7.086 0 0 0-1.649-.193 7.568 7.568 0 0 0-7.244 5.41 7.554 7.554 0 0 0 5.055 9.387c-8.778 21.641-30.01 36.9-54.802 36.9-32.653 0-59.126-26.473-59.126-59.134 0-32.654 26.473-59.126 59.126-59.126 32.661 0 59.134 26.465 59.134 59.126Zm-5.973-9.749c.624-.732.038-1.873-.933-1.773l-30.518 3.075c-3.014-9.101-11.599-15.668-21.71-15.668-12.624 0-22.858 10.235-22.858 22.859 0 12.623 10.234 22.858 22.858 22.858a22.75 22.75 0 0 0 14.327-5.048l.162-.177 22.01 20.253c.717.655 1.857.1 1.788-.871l-1.881-24.507a3.364 3.364 0 0 1 .802-2.459l15.953-18.542Z"></path><path fill="#FF8080" d="M228.637 431.269c-.054 0-.1-.007-.154-.015h-.054c-77.753-10.273-137.757-76.837-137.757-157.395 0-87.696 71.087-158.791 158.781-158.791 42.14 0 80.443 16.423 108.873 43.212.023.023.046.039.069.062.008.008.023.023.039.031 30.657 28.962 49.801 69.977 49.801 115.486 0 7.668-.548 15.205-1.596 22.588l-12.485 13.325-15.498-4.616a130.239 130.239 0 0 0 3.314-29.309c0-72.089-58.44-130.537-130.528-130.537-72.089 0-130.521 58.44-130.521 130.537 0 72.081 58.432 130.529 130.521 130.529 56.713 0 104.973-36.167 122.983-86.701l14.512 4.332 3.676 18.604v.007c-25.625 53.262-80.096 90.023-143.16 90.023-7.059 0-14.003-.462-20.816-1.372Z"></path><path fill="#FF8080" d="M340.462 275.847c0 5.957-.593 11.776-1.711 17.417l-28.175-8.4c-.162-.054-.339-.093-.509-.131.324-2.497.493-5.048.493-7.63 0-32.653-26.472-59.126-59.133-59.126-32.654 0-59.126 26.473-59.126 59.126 0 32.662 26.472 59.134 59.126 59.134 24.792 0 46.024-15.259 54.802-36.9.008.008.015.008.031.016l28.291 8.431c-12.839 33.386-45.207 57.076-83.109 57.076-49.161 0-89.02-39.851-89.02-89.013 0-49.169 39.859-89.021 89.02-89.021 49.161 0 89.02 39.844 89.02 89.021Z"></path><path fill="#FF8080" d="m253.37 270.653-1.803 9.634 14.342 13.194-.162.177a22.746 22.746 0 0 1-14.326 5.048c-12.624 0-22.859-10.235-22.859-22.858 0-12.624 10.235-22.859 22.859-22.859 10.111 0 18.696 6.566 21.709 15.668l-19.76 1.996Z"></path><path fill="#1C1C1E" d="m447.107 341.34-3.152 7.028-33.693-18.011 36.845 10.983Z"></path><path fill="#C95353" d="M358.318 158.272c-28.43-26.789-66.732-43.212-108.872-43.212-87.695 0-158.782 71.095-158.782 158.79 0 80.559 60.005 147.123 137.758 157.403a163.322 163.322 0 0 1-9.179-1.048C141.081 419 81 351.758 81 270.482c0-89.121 72.25-161.364 161.363-161.364 45.516 0 86.631 18.843 115.955 49.154Z"></path><path stroke="#1C1C1E" stroke-linecap="round" stroke-linejoin="round" stroke-miterlimit="10" stroke-width="1.5" d="M392.613 342.611c-25.625 53.269-80.096 90.03-143.16 90.03-7.059 0-14.003-.462-20.816-1.364-.054 0-.1-.008-.154-.015h-.054c-77.753-10.281-137.757-76.845-137.757-157.403 0-87.696 71.087-158.791 158.781-158.791 42.14 0 80.443 16.423 108.873 43.212M358.383 158.343c.008.007.023.023.038.031 30.658 28.962 49.801 69.977 49.801 115.486 0 7.668-.547 15.205-1.595 22.588"></path><path stroke="#1C1C1E" stroke-linecap="round" stroke-linejoin="round" stroke-miterlimit="10" stroke-width="1.5" d="M219.243 430.205C141.082 419 81 351.758 81 270.482c0-89.121 72.25-161.364 161.363-161.364 45.516 0 86.631 18.843 115.955 49.154.023.023.046.038.07.062.1.107.208.223.316.331"></path><path stroke="#1C1C1E" stroke-miterlimit="10" stroke-width="1.5" d="M219.246 430.206a163.429 163.429 0 0 0 9.387 1.064l.216.023"></path><path stroke="#1C1C1E" stroke-linecap="round" stroke-linejoin="round" stroke-miterlimit="10" stroke-width="1.5" d="M374.422 319.668c-18.01 50.534-66.27 86.701-122.983 86.701-72.089 0-130.521-58.448-130.521-130.529 0-72.089 58.432-130.537 130.521-130.537 72.088 0 130.528 58.448 130.528 130.537 0 10.08-1.14 19.891-3.314 29.309"></path><path stroke="#1C1C1E" stroke-linecap="round" stroke-linejoin="round" stroke-miterlimit="10" stroke-width="1.5" d="M334.551 307.784c-12.839 33.386-45.207 57.076-83.109 57.076-49.161 0-89.02-39.851-89.02-89.013 0-49.169 39.859-89.021 89.02-89.021 49.161 0 89.02 39.852 89.02 89.021 0 5.957-.593 11.776-1.711 17.417"></path><path stroke="#1C1C1E" stroke-linecap="round" stroke-linejoin="round" stroke-miterlimit="10" stroke-width="1.5" d="M306.217 299.337c-8.778 21.641-30.01 36.9-54.802 36.9-32.653 0-59.126-26.473-59.126-59.134 0-32.654 26.473-59.126 59.126-59.126 32.661 0 59.134 26.472 59.134 59.126 0 2.582-.17 5.133-.494 7.63"></path><path stroke="#1C1C1E" stroke-linecap="round" stroke-linejoin="round" stroke-miterlimit="10" stroke-width="1.5" d="M265.747 293.65a22.746 22.746 0 0 1-14.326 5.048c-12.624 0-22.859-10.235-22.859-22.858 0-12.624 10.235-22.859 22.859-22.859 10.111 0 18.696 6.567 21.709 15.668"></path><path stroke="#1C1C1E" stroke-linecap="round" stroke-linejoin="round" stroke-miterlimit="10" stroke-width="1.5" d="m254.624 263.932-1.256 6.72-1.803 9.633-2.12 11.322M394.145 309.765l12.484-13.318 8.663-9.248 42.032 12.331-6.003 27.29"></path><path stroke="#1C1C1E" stroke-linecap="round" stroke-linejoin="round" stroke-miterlimit="10" stroke-width="1.5" d="m388.932 323.999-14.512-4.332-39.875-11.891-28.291-8.431c-.015-.008-.023-.008-.031-.016a7.553 7.553 0 0 1-5.055-9.387 7.568 7.568 0 0 1 7.244-5.41c.547 0 1.102.062 1.649.193.17.038.347.077.509.131l28.176 8.4 39.905 11.892 15.498 4.616-1.981 2.112 10.636 3.275 47.851 14.736.67-3.068 2.274.678c3.999 1.187 6.273 5.403 5.086 9.403a7.568 7.568 0 0 1-7.244 5.402 7.742 7.742 0 0 1-2.158-.316l-2.173-.647-36.846-10.982M443.956 348.368l-9.087 20.215-39.812-13.564-2.451-12.408-3.676-18.612 10.173 3.036 11.159 3.322 33.694 18.011ZM447.109 341.339l-3.152 7.028"></path><path stroke="#1C1C1E" stroke-width="1.5" d="m253.374 270.653 19.76-1.996 30.518-3.075c.971-.1 1.557 1.041.933 1.773l-15.953 18.542a3.364 3.364 0 0 0-.802 2.459l1.881 24.507c.069.971-1.071 1.526-1.788.871l-22.011-20.253-14.342-13.194"></path></svg>