<svg width="540" height="540" fill="none" viewBox="107.482 90.647 326.331 361.295" xmlns="http://www.w3.org/2000/svg"><path d="M0 0h540v540H0z" style="fill: rgba(251, 247, 239, 0);"></path><path fill="#FD3" stroke="#231F20" stroke-miterlimit="10" stroke-width="1.5" d="M139.581 446.984c16.067 0 29.092-13.022 29.092-29.084 0-16.063-13.025-29.085-29.092-29.085-16.068 0-29.093 13.022-29.093 29.085 0 16.062 13.025 29.084 29.093 29.084Z"></path><path fill="#231F20" d="M142.844 393.725s11.226-2.694 18.438 4.295c0 0-4.649-6.144-15.885-8.714l-.123 3.274-2.43 1.136v.009Z"></path><path fill="#FD3" stroke="#231F20" stroke-miterlimit="10" stroke-width="1.5" d="M232.631 446.985c16.068 0 29.093-13.022 29.093-29.084 0-16.063-13.025-29.085-29.093-29.085-16.067 0-29.092 13.022-29.092 29.085 0 16.062 13.025 29.084 29.092 29.084Z"></path><path fill="#231F20" d="M235.895 393.726s11.226-2.694 18.438 4.295c0 0-4.649-6.144-15.885-8.714l-.123 3.274-2.43 1.136v.009Z"></path><path fill="#fff" stroke="#231F20" stroke-miterlimit="10" stroke-width="1.5" d="M232.78 351.915h-40.689V302.62h-12.495v49.295h-40.689a5.792 5.792 0 0 0-5.794 5.792v34.489c0 .722 2.8 1.312 6.252 1.312s6.252-.59 6.252-1.312v-26.883c0-.502.405-.907.907-.907h78.665c.502 0 .907.405.907.907v26.883c0 .722 2.8 1.312 6.252 1.312s6.252-.59 6.252-1.312v-34.489a5.792 5.792 0 0 0-5.794-5.792h-.026Z"></path><path fill="#231F20" d="M179.633 320.86s5.635 2.728 12.494 0v-6.77l-12.485-.273v7.043h-.009Z"></path><path fill="#FD3" stroke="#231F20" stroke-miterlimit="10" stroke-width="1.5" d="M308.249 446.984c16.067 0 29.092-13.022 29.092-29.084 0-16.063-13.025-29.085-29.092-29.085-16.068 0-29.093 13.022-29.093 29.085 0 16.062 13.025 29.084 29.093 29.084Z"></path><path fill="#231F20" d="M311.512 393.725s11.226-2.694 18.438 4.295c0 0-4.649-6.144-15.885-8.714l-.123 3.274-2.43 1.136v.009Z"></path><path fill="#FD3" stroke="#231F20" stroke-miterlimit="10" stroke-width="1.5" d="M401.296 446.984c16.067 0 29.092-13.022 29.092-29.084 0-16.063-13.025-29.085-29.092-29.085-16.068 0-29.093 13.022-29.093 29.085 0 16.062 13.025 29.084 29.093 29.084Z"></path><path fill="#231F20" d="M404.559 393.725s11.226-2.694 18.438 4.295c0 0-4.649-6.144-15.885-8.714l-.123 3.274-2.43 1.136v.009Z"></path><path fill="#fff" stroke="#231F20" stroke-miterlimit="10" stroke-width="1.5" d="M401.44 351.916h-40.689v-49.295h-12.495v49.295h-40.689a5.792 5.792 0 0 0-5.794 5.792v34.489c0 .722 2.8 1.312 6.252 1.312s6.252-.59 6.252-1.312v-26.883c0-.502.405-.907.907-.907h78.666c.501 0 .906.405.906.907v26.883c0 .722 2.801 1.312 6.252 1.312 3.452 0 6.252-.59 6.252-1.312v-34.489a5.792 5.792 0 0 0-5.794-5.792h-.026Z"></path><path fill="#231F20" d="M348.254 320.86s5.635 2.728 12.495 0v-6.77l-12.486-.273v7.043h-.009Z"></path><path fill="#FD3" stroke="#231F20" stroke-miterlimit="10" stroke-width="1.5" d="M354.817 318.317c17.877 0 32.368-14.487 32.368-32.359 0-17.871-14.491-32.358-32.368-32.358-17.876 0-32.368 14.487-32.368 32.358 0 17.872 14.492 32.359 32.368 32.359Z"></path><path fill="#231F20" d="M357.906 259.058s12.486-2.993 20.508 4.78c0 0-5.178-6.839-17.672-9.692l-.133 3.645-2.703 1.267Z"></path><path fill="#FD3" stroke="#231F20" stroke-miterlimit="10" stroke-width="1.5" d="M186.149 318.317c17.877 0 32.368-14.487 32.368-32.359 0-17.871-14.491-32.358-32.368-32.358-17.876 0-32.368 14.487-32.368 32.358 0 17.872 14.492 32.359 32.368 32.359Z"></path><path fill="#231F20" d="M189.766 259.058s12.485-2.993 20.507 4.78c0 0-5.177-6.839-17.672-9.692l-.132 3.645-2.703 1.267Z"></path><path fill="#fff" stroke="#231F20" stroke-miterlimit="10" stroke-width="1.5" d="M354.94 216.144h-78.508v-54.947h-12.494v54.947h-78.507a5.792 5.792 0 0 0-5.794 5.792v35.554c0 .722 2.8 1.312 6.251 1.312 3.452 0 6.252-.59 6.252-1.312v-27.949c0-.501.405-.906.907-.906h154.294c.502 0 .907.405.907.906v27.949c0 .722 2.8 1.312 6.251 1.312 3.452 0 6.252-.59 6.252-1.312v-35.554a5.792 5.792 0 0 0-5.794-5.792h-.017Z"></path><path fill="#231F20" d="M263.859 179.588s6.032 2.623 12.618 0v-6.497l-12.609-.264v6.761h-.009Z"></path><path fill="#FD3" stroke="#231F20" stroke-miterlimit="10" stroke-width="1.5" d="M310.425 134.977c0-22.686-18.396-41.078-41.089-41.078-22.693 0-41.09 18.392-41.09 41.078 0 22.687 18.397 41.078 41.09 41.078 22.693 0 41.089-18.391 41.089-41.078Z"></path><ellipse cx="11.95" cy="15.764" fill="#F8FFEA" rx="11.95" ry="15.764" transform="rotate(48.443 22.587 333.278) skewX(.004)"></ellipse><ellipse cx="6.908" cy="9.113" fill="#F8FFEA" rx="6.908" ry="9.113" transform="rotate(48.443 -202.945 320.508) skewX(.004)"></ellipse><ellipse cx="6.908" cy="9.113" fill="#F8FFEA" rx="6.908" ry="9.113" transform="rotate(48.443 -373.511 338.694) skewX(.004)"></ellipse><ellipse cx="6.908" cy="9.113" fill="#F8FFEA" rx="6.908" ry="9.113" transform="rotate(48.443 -289.114 526.3) skewX(.004)"></ellipse><ellipse cx="6.908" cy="9.113" fill="#F8FFEA" rx="6.908" ry="9.113" transform="rotate(48.443 -326.996 442.094) skewX(.004)"></ellipse><ellipse cx="6.908" cy="9.113" fill="#F8FFEA" rx="6.908" ry="9.113" transform="rotate(48.443 -242.597 629.703) skewX(.004)"></ellipse><ellipse cx="6.908" cy="9.113" fill="#F8FFEA" rx="6.908" ry="9.113" transform="rotate(48.443 -118.156 508.985) skewX(.004)"></ellipse><path stroke="#231F20" stroke-miterlimit="10" stroke-width="1.5" d="M310.425 134.977c0-22.686-18.396-41.078-41.089-41.078-22.693 0-41.09 18.392-41.09 41.078 0 22.687 18.397 41.078 41.09 41.078 22.693 0 41.089-18.391 41.089-41.078Z"></path><path fill="#F0F0F3" d="M193 228.036a5.64 5.64 0 0 1 5.64-5.64h142.905a5.64 5.64 0 0 1 5.64 5.64H193ZM145.191 363.791a5.64 5.64 0 0 1 5.64-5.64h70.072a5.639 5.639 0 0 1 5.639 5.64h-81.351ZM313.844 363.791a5.64 5.64 0 0 1 5.639-5.64h70.072a5.64 5.64 0 0 1 5.64 5.64h-81.351Z"></path></svg>