<svg width="540" height="540" viewBox="75.108 153.453 389.137 269.353" fill="none" xmlns="http://www.w3.org/2000/svg"><g clip-path="url(#clip0_2102_43788)"><path d="M460.331 407.64L458.453 404.216L331.307 350.64H80.3281V358.483L216.975 416.146C219.957 417.361 223.161 418.024 226.475 418.024H457.128C458.895 418.024 459.889 416.809 460.11 415.483V407.64H460.331Z" fill="#AFB1B2" stroke="#AFB1B2" stroke-width="1.5" stroke-linecap="round" stroke-linejoin="round"></path><path d="M80.3281 350.64L216.975 408.303C219.957 409.518 223.161 410.181 226.475 410.181H457.128C460.442 410.181 461.436 405.541 458.343 404.216L331.086 350.64H80.3281Z" fill="#F0F0F3" stroke="#AFB1B2" stroke-width="1.5" stroke-linecap="round" stroke-linejoin="round"></path><path d="M91.3747 159.534H320.15C326.225 159.534 331.196 164.505 331.196 170.581V350.64H80.3281V170.581C80.3281 164.505 85.2991 159.534 91.3747 159.534Z" fill="#D9D9D9" stroke="#AFB1B2" stroke-width="1.5" stroke-linecap="round" stroke-linejoin="round"></path><path d="M219.314 376.489L259.634 393.501C261.953 394.495 264.384 394.937 266.814 394.937H373.193C374.076 394.937 374.408 393.722 373.524 393.28L338.617 378.588C335.303 377.152 331.657 376.489 328.012 376.489H219.203H219.314Z" fill="#D9D9D9" stroke="#AFB1B2" stroke-width="1.5" stroke-linecap="round" stroke-linejoin="round"></path><path d="M222.693 417.969V410.019L218.631 409.052L80.3828 350.583V358.233L215.899 415.791L222.693 417.969Z" fill="#AFB1B2"></path><path fill-rule="evenodd" clip-rule="evenodd" d="M80.3281 311.109L289.348 159.534H320.15C326.225 159.534 331.196 164.505 331.196 170.581V195.485L117.238 350.64H80.3281V311.109Z" fill="#F0F0F3"></path><path fill-rule="evenodd" clip-rule="evenodd" d="M198.556 350.641H158.66L331.199 225.657V254.557L198.556 350.641Z" fill="#F0F0F3"></path><path d="M91.3747 159.534H320.15C326.225 159.534 331.196 164.505 331.196 170.581V350.64H80.3281V170.581C80.3281 164.505 85.2991 159.534 91.3747 159.534Z" stroke="#AFB1B2" stroke-width="1.5" stroke-linecap="round" stroke-linejoin="round"></path><path fill-rule="evenodd" clip-rule="evenodd" d="M232.221 209.796H218.081L229.901 230.564L204.052 209.796H189.912L202.837 235.203L175.772 209.796H161.633L175.772 242.162L161.633 306.785H175.772L202.837 237.523L189.912 306.785H204.052L229.901 232.883L218.081 306.785H232.221L258.07 226.034L232.221 209.906V209.796Z" fill="#AFB1B2"></path><path fill-rule="evenodd" clip-rule="evenodd" d="M236.152 294.508L219.203 306.785H232.222L236.152 294.508Z" fill="#D9D9D9"></path><path fill-rule="evenodd" clip-rule="evenodd" d="M218.653 210.801L220.04 209.796H232.221V209.906L258.07 226.034L248.685 255.352L223.371 273.709L229.901 232.883L212.987 281.239L191.814 296.593L202.837 237.523L175.772 306.785H161.633L175.772 242.162L175.684 241.961L195.065 227.907L202.837 235.203L198.031 225.756L211.636 215.89L229.901 230.564L218.653 210.801Z" fill="#D9D9D9"></path></g><defs><clipPath id="clip0_2102_43788"><rect width="540" height="540" fill="white"></rect></clipPath></defs></svg>