<svg width="540" height="540" fill="none" viewBox="133.381 97.769 273.885 344.461" xmlns="http://www.w3.org/2000/svg"><path d="M0 0h540v540H0z" style="fill: rgba(251, 247, 239, 0);"></path><path fill="#8E8E8E" d="m249.498 145.946-22.86 2.696 1.835 20.841s1.547 23.654.415 35.531c-1.132 11.878-7.388 19.233-7.388 19.233s-6.641 9.376-18.195 12.111l.978.231 14.454-1.731s25.664-10.603 29.707-20.108c4.045-9.504 3.666-19.014 3.666-19.014l.089-12.622-.524-12.524-2.177-24.65v.006Z"></path><path fill="#1C1C1E" d="m175.236 138.941-4.375-34.714s11.892-4.545 28.67-2.136l14.805 2.821-2.105 34.029-22.193 2.822-14.805-2.822h.003Z"></path><path fill="#fff" d="m163.582 411.834.764 8.231c1.885.803 2.903-.276 2.903-.276l.15-8.17c.092-7.642 3.767-9.953 3.767-9.953l-11.752.619c3.594 3.585 4.168 9.549 4.168 9.549ZM278.113 417.905l-11.34 1.55c4.049 3.065 5.429 10.378 5.429 10.378l1.876 8.052c1.977.541 2.839-.669 2.839-.669l-.962-8.114c-.951-7.583 2.158-11.194 2.158-11.194v-.003Z"></path><path fill="#FD3" d="m279.771 415.729-.438-2.216-15.942 1.661.468 2.37c.173.881.864 1.57 1.745 1.737 2.108.402 6.463.678 13.01-1.544a1.763 1.763 0 0 0 1.159-2.008h-.002ZM157.42 400.004a2.437 2.437 0 0 0 1.993 2.281c5.73 1.065 9.731.123 11.752-.619a2.42 2.42 0 0 0 1.578-2.18l.078-1.971-15.479.814.075 1.673.003.002Z"></path><path fill="#F8C100" d="M332.497 408.728c25.099-1.517 57.505-17.155 68.442-83.492 0 0 17.892-106.823-67.112-153.206a1.622 1.622 0 0 1-.833-1.65l1.982-14.103a1.62 1.62 0 0 0-.934-1.7l-40.865-18.611a1.592 1.592 0 0 0-1.112-.083l-8.805 1.118"></path><path fill="#FD3" stroke="#1C1C1E" stroke-miterlimit="10" stroke-width="1.5" d="M281.873 138.38 246.03 392.802a1.625 1.625 0 0 0 .828 1.65l40.569 22.138c.99.54 2.217-.07 2.381-1.188l1.261-8.54a1.618 1.618 0 0 1 2.146-1.291c12.248 4.391 81.627 24.371 98.699-79.173 0 0 17.891-106.823-67.112-153.206a1.622 1.622 0 0 1-.834-1.65l1.982-14.102a1.617 1.617 0 0 0-.934-1.701l-40.865-18.61a1.62 1.62 0 0 0-2.278 1.249v.002Z"></path><path fill="#F8C100" d="m292.968 405.505 6.708 2.197-.839 6.535s-.151 1.16-1.397 1.325l-8.167 1.093.497-1.071 1.419-8.807s.248-1.459 1.779-1.275"></path><path fill="#F7FFC2" d="m277.648 169.482-1.193 8.462 23.802 12.391 1.09-8.37-23.699-12.483ZM271.184 215.569l23.799 12.391 1.093-8.37-23.702-12.483-1.19 8.462ZM266.094 251.457l23.799 12.39 1.093-8.37-23.699-12.482-1.193 8.462ZM260.979 287.342l23.799 12.393 1.09-8.373-23.699-12.479-1.19 8.459ZM255.963 323.23l23.799 12.391 1.093-8.37-23.702-12.482-1.19 8.461ZM250.941 359.12l23.8 12.39 1.092-8.37-23.698-12.482-1.194 8.462Z"></path><path fill="#fff" d="M157.351 398.331c9.775 2.445 15.479-.814 15.479-.814l8.735-162.922-30.538-37.026 6.324 200.762ZM246.996 217.535s-1.274-3.588-10.458-.903c-3.627 1.062-7.054 2.713-10.185 4.832-3.819 2.584-8.682 6.554-8.294 9.825l45.329 183.888s5.375 2.334 15.942-1.662l-32.331-195.977-.003-.003Z"></path><path fill="#F0F0F3" d="m226.642 148.641-89.634-16.843s5.531 75.872 34.968 97.343c27.176 19.823 54.817 1.023 56.913-24.128 1.776-21.301-2.25-56.372-2.25-56.372h.003Z"></path><path fill="#1C1C1E" d="m212.236 138.942 37.266 7.004-22.86 2.696-89.634-16.843 23.612-2.557 13.72 2.579"></path><path fill="#8E8E8E" d="m212.24 138.941-22.194 2.821-4.374-34.714s11.891-4.545 28.67-2.136l-2.105 34.029h.003Z"></path><path fill="#F0F0F3" d="m170.861 104.227 14.805 2.821 4.375 34.717-14.805-2.824-4.375-34.714Z"></path><path fill="#FD3" d="M190.312 212.417c10.655-2.14 16.896-15.803 13.94-30.516-2.956-14.713-13.99-24.905-24.645-22.764-10.655 2.14-16.896 15.803-13.94 30.516 2.956 14.713 13.99 24.905 24.645 22.764Z"></path><path fill="#fff" d="M201.214 189.979c-.401 8.941-5.01 16.067-11.894 17.45-1.948.393-3.914.276-5.818-.276l.212-1.525c3.145-24.245-13.985-30.086-13.985-30.086 1.516-5.111 4.608-9.095 8.737-10.787 0 0 .341 24.658 21.541 25.187l1.21.039-.003-.002Z"></path><path fill="#000" d="m273.789 415.183.719 3.775 4.824-1.497s.661-.6.438-1.732l-.438-2.216-5.543 1.67ZM166.742 399.129v3.519s4.525-.402 5.496-1.76c.97-1.357.591-3.37.591-3.37s-2.783 1.26-6.087 1.611Z"></path><path fill="#FBF7EF" d="m316.33 223.905-18.739 130.549a1.277 1.277 0 0 0 .918 1.411c6.831 1.91 44.308 10.096 56.035-36.376 12.568-49.815-16.893-86.612-36.36-96.54a1.28 1.28 0 0 0-1.854.953v.003Z"></path><path fill="#F8C100" d="m325.399 227.56-17.938 127.449-9.867-.552 18.761-130.82s.694-1.243 1.829-.75c1.135.494 4.765 2.945 4.765 2.945l2.453 1.728h-.003Z"></path><path stroke="#000" stroke-linejoin="round" stroke-width="1.5" d="m250.337 362.223-4.307 30.579c-.095.67.237 1.325.828 1.651l13.199 7.202M299.818 407.563l-.984 6.675a1.607 1.607 0 0 1-1.018 1.274l-9.404 1.261"></path><path stroke="#000" stroke-linecap="round" stroke-linejoin="round" stroke-width="1.5" d="m277.648 169.482 23.699 12.483-1.09 8.37-23.802-12.391M272.374 207.107l23.702 12.483-1.093 8.37-23.799-12.391M267.287 242.995l23.699 12.482-1.093 8.37-23.799-12.39M262.169 278.883l23.699 12.479-1.09 8.373-23.799-12.393M263.604 318.168l17.249 9.084-1.093 8.369-14.525-7.561M270.562 360.364l5.273 2.777-1.093 8.37-2.56-1.333"></path><path fill="#1C1C1E" d="m312.455 357.631-2.733-1.063-1.795-1.106-.404-.569-9.929-.438s-.259.993 1.302 1.461c1.564.468 4.885 1.02 4.885 1.02s6.039.904 8.674.695ZM334.582 154.981l-9.097 1.09-41.337-18.939.137-.262 8.392-1.049 41.362 18.756.543.404ZM324.803 173.195l9.028-1.163s41.403 20.105 58.212 67.84l-8.877 1.561s-7.469-23.76-26.442-43.628c0 0-8.025-8.81-19.528-16.94l-6.452-4.227-5.941-3.44v-.003ZM385.869 249.464l8.869-1.673s4.099 13.347 5.415 23.378l-8.881 2.102s-1.572-13.151-5.403-23.807Z"></path><path stroke="#000" stroke-linecap="round" stroke-linejoin="round" stroke-width="1.5" d="m212.236 138.942 37.266 7.004-22.86 2.696-89.634-16.843 23.612-2.557 13.72 2.579"></path><path stroke="#000" stroke-linecap="round" stroke-linejoin="round" stroke-width="1.5" d="m226.642 148.641-89.634-16.843s5.531 75.872 34.968 97.343c27.176 19.823 54.817 1.023 56.913-24.128 1.776-21.301-2.25-56.372-2.25-56.372h.003ZM218.941 234.859l-20.08 2.373M249.504 145.944s4.026 35.072 2.25 56.373a36.586 36.586 0 0 1-4.748 15.217M212.24 138.941l-22.194 2.821-4.374-34.714s11.891-4.545 28.67-2.136l-2.105 34.029h.003Z"></path><path stroke="#000" stroke-linecap="round" stroke-linejoin="round" stroke-width="1.5" d="m175.236 138.941-4.375-34.714s11.892-4.545 28.67-2.136l14.805 2.821-2.105 34.029-22.193 2.822-14.805-2.822h.003Z"></path><path stroke="#000" stroke-linecap="round" stroke-linejoin="round" stroke-width="1.5" d="m170.861 104.227 14.805 2.821 4.375 34.717-14.805-2.824-4.375-34.714ZM181.565 234.592l-8.735 162.922s-5.701 3.259-15.479.814l-6.324-200.762M218.056 231.289l45.329 183.888s5.375 2.334 15.942-1.662l-32.331-195.977s-1.274-3.588-10.458-.903c-3.627 1.062-7.054 2.712-10.185 4.831-3.819 2.585-8.682 6.555-8.294 9.826l-.003-.003ZM190.312 212.417c10.655-2.14 16.896-15.803 13.94-30.516-2.956-14.713-13.99-24.905-24.645-22.764-10.655 2.14-16.896 15.803-13.94 30.516 2.956 14.713 13.99 24.905 24.645 22.764Z"></path><path stroke="#000" stroke-linecap="round" stroke-linejoin="round" stroke-width="1.5" d="M201.214 189.979c-.401 8.941-5.01 16.067-11.894 17.45-1.948.393-3.914.276-5.818-.276l.212-1.525c3.145-24.245-13.985-30.086-13.985-30.086 1.516-5.111 4.608-9.095 8.737-10.787 0 0 .341 24.658 21.541 25.187l1.21.039-.003-.002ZM263.391 415.174l.468 2.37c.173.881.864 1.57 1.745 1.737 2.108.402 6.463.678 13.01-1.544a1.763 1.763 0 0 0 1.159-2.008l-.437-2.216M172.824 397.518l-.078 1.971a2.42 2.42 0 0 1-1.578 2.18c-2.024.742-6.025 1.684-11.752.619a2.435 2.435 0 0 1-1.993-2.281l-.075-1.673"></path><path stroke="#000" stroke-linecap="round" stroke-linejoin="round" stroke-width="1.5" d="M171.172 401.666s-3.678 2.311-3.767 9.953l-.151 8.17s-1.017 1.081-2.902.276l-.764-8.231s-.574-5.964-4.168-9.549M278.113 417.905s-3.109 3.611-2.158 11.194l.962 8.114s-.862 1.21-2.839.669l-1.876-8.052s-1.38-7.313-5.429-10.377"></path><path stroke="#000" stroke-linejoin="round" stroke-width="1.5" d="m279.087 412.039 8.336 4.551c.99.54 2.216-.07 2.381-1.188l1.26-8.54a1.62 1.62 0 0 1 2.147-1.291c12.248 4.391 81.627 24.371 98.698-79.173 0 0 17.892-106.823-67.112-153.206a1.622 1.622 0 0 1-.833-1.65l1.982-14.102a1.62 1.62 0 0 0-.934-1.701l-40.865-18.61a1.62 1.62 0 0 0-2.278 1.249l-22.076 156.704"></path><path stroke="#000" stroke-linejoin="round" stroke-width="1.5" d="M332.497 408.728c25.099-1.517 57.505-17.155 68.442-83.492 0 0 17.892-106.823-67.112-153.206a1.622 1.622 0 0 1-.833-1.65l1.982-14.103a1.62 1.62 0 0 0-.934-1.7l-40.865-18.611a1.592 1.592 0 0 0-1.112-.083l-8.805 1.118"></path><path stroke="#000" stroke-linejoin="round" stroke-width="1.5" d="m316.33 223.905-18.739 130.549a1.277 1.277 0 0 0 .918 1.411c6.831 1.91 44.308 10.096 56.035-36.376 12.568-49.815-16.893-86.612-36.36-96.54a1.28 1.28 0 0 0-1.854.953v.003Z"></path><path stroke="#000" stroke-linejoin="round" stroke-width="1.5" d="M307.461 355.006s1.536 1.982 6.011 2.604M325.396 227.562l-17.938 127.447-9.87-.552"></path></svg>