<svg xmlns:xlink="http://www.w3.org/1999/xlink" viewBox="0 0 320 320" display="block" fill="none" xmlns="http://www.w3.org/2000/svg" class="Box-sc-g760pt-0 IconBase-sc-1liaym9-0 gCvxsI" width="320" height="320"><path d="M0 80C0 35.8172 35.8172 0 80 0H240C284.183 0 320 35.8172 320 80V240C320 284.183 284.183 320 240 320H80C35.8172 320 0 284.183 0 240V80Z" fill="#FFDD33"></path><path fill-rule="evenodd" clip-rule="evenodd" d="M211.878 61H182.902L207.049 103.425L153.927 61H124.951L151.512 112.854L95.9756 61H67L95.9756 127.004L67 259H95.9756L151.512 117.575L124.951 259H153.927L207.049 108.146L182.902 259H211.878L265 93.996L211.878 61Z" fill="#1C1C1E"></path></svg>